<?xml version="1.0" encoding="utf-8" standalone="no"?>
<!DOCTYPE svg PUBLIC "-//W3C//DTD SVG 1.1//EN"
  "http://www.w3.org/Graphics/SVG/1.1/DTD/svg11.dtd">
<svg xmlns:xlink="http://www.w3.org/1999/xlink" width="872.39952pt" height="296.39952pt" viewBox="0 0 872.39952 296.39952" xmlns="http://www.w3.org/2000/svg" version="1.1">
 <metadata>
  <rdf:RDF xmlns:dc="http://purl.org/dc/elements/1.1/" xmlns:cc="http://creativecommons.org/ns#" xmlns:rdf="http://www.w3.org/1999/02/22-rdf-syntax-ns#">
   <cc:Work>
    <dc:type rdf:resource="http://purl.org/dc/dcmitype/StillImage"/>
    <dc:date>2024-06-13T07:58:49.766187</dc:date>
    <dc:format>image/svg+xml</dc:format>
    <dc:creator>
     <cc:Agent>
      <dc:title>Matplotlib v3.8.4, https://matplotlib.org/</dc:title>
     </cc:Agent>
    </dc:creator>
   </cc:Work>
  </rdf:RDF>
 </metadata>
 <defs>
  <style type="text/css">*{stroke-linejoin: round; stroke-linecap: butt}</style>
 </defs>
 <g id="figure_1">
  <g id="patch_1">
   <path d="M 0 296.39952 
L 872.39952 296.39952 
L 872.39952 0 
L 0 0 
z
" style="fill: #ffffff"/>
  </g>
  <g id="axes_1">
   <g id="patch_2">
    <path d="M 59.690625 257.158895 
L 436.653198 257.158895 
L 436.653198 22.318125 
L 59.690625 22.318125 
z
" style="fill: #ffffff"/>
   </g>
   <g id="matplotlib.axis_1">
    <g id="xtick_1">
     <g id="line2d_1">
      <path d="M 107.979219 257.158895 
L 107.979219 22.318125 
" clip-path="url(#pfc05088769)" style="fill: none; stroke: #b0b0b0; stroke-width: 0.8; stroke-linecap: square"/>
     </g>
     <g id="line2d_2">
      <defs>
       <path id="me37bbee51f" d="M 0 0 
L 0 3.5 
" style="stroke: #000000; stroke-width: 0.8"/>
      </defs>
      <g>
       <use xlink:href="#me37bbee51f" x="107.979219" y="257.158895" style="stroke: #000000; stroke-width: 0.8"/>
      </g>
     </g>
     <g id="text_1">
      <!-- 1 -->
      <g transform="translate(104.797969 271.757332) scale(0.1 -0.1)">
       <defs>
        <path id="DejaVuSans-31" d="M 794 531 
L 1825 531 
L 1825 4091 
L 703 3866 
L 703 4441 
L 1819 4666 
L 2450 4666 
L 2450 531 
L 3481 531 
L 3481 0 
L 794 0 
L 794 531 
z
" transform="scale(0.015625)"/>
       </defs>
       <use xlink:href="#DejaVuSans-31"/>
      </g>
     </g>
    </g>
    <g id="xtick_2">
     <g id="line2d_3">
      <path d="M 170.287082 257.158895 
L 170.287082 22.318125 
" clip-path="url(#pfc05088769)" style="fill: none; stroke: #b0b0b0; stroke-width: 0.8; stroke-linecap: square"/>
     </g>
     <g id="line2d_4">
      <g>
       <use xlink:href="#me37bbee51f" x="170.287082" y="257.158895" style="stroke: #000000; stroke-width: 0.8"/>
      </g>
     </g>
     <g id="text_2">
      <!-- 2 -->
      <g transform="translate(167.105832 271.757332) scale(0.1 -0.1)">
       <defs>
        <path id="DejaVuSans-32" d="M 1228 531 
L 3431 531 
L 3431 0 
L 469 0 
L 469 531 
Q 828 903 1448 1529 
Q 2069 2156 2228 2338 
Q 2531 2678 2651 2914 
Q 2772 3150 2772 3378 
Q 2772 3750 2511 3984 
Q 2250 4219 1831 4219 
Q 1534 4219 1204 4116 
Q 875 4013 500 3803 
L 500 4441 
Q 881 4594 1212 4672 
Q 1544 4750 1819 4750 
Q 2544 4750 2975 4387 
Q 3406 4025 3406 3419 
Q 3406 3131 3298 2873 
Q 3191 2616 2906 2266 
Q 2828 2175 2409 1742 
Q 1991 1309 1228 531 
z
" transform="scale(0.015625)"/>
       </defs>
       <use xlink:href="#DejaVuSans-32"/>
      </g>
     </g>
    </g>
    <g id="xtick_3">
     <g id="line2d_5">
      <path d="M 232.594945 257.158895 
L 232.594945 22.318125 
" clip-path="url(#pfc05088769)" style="fill: none; stroke: #b0b0b0; stroke-width: 0.8; stroke-linecap: square"/>
     </g>
     <g id="line2d_6">
      <g>
       <use xlink:href="#me37bbee51f" x="232.594945" y="257.158895" style="stroke: #000000; stroke-width: 0.8"/>
      </g>
     </g>
     <g id="text_3">
      <!-- 3 -->
      <g transform="translate(229.413695 271.757332) scale(0.1 -0.1)">
       <defs>
        <path id="DejaVuSans-33" d="M 2597 2516 
Q 3050 2419 3304 2112 
Q 3559 1806 3559 1356 
Q 3559 666 3084 287 
Q 2609 -91 1734 -91 
Q 1441 -91 1130 -33 
Q 819 25 488 141 
L 488 750 
Q 750 597 1062 519 
Q 1375 441 1716 441 
Q 2309 441 2620 675 
Q 2931 909 2931 1356 
Q 2931 1769 2642 2001 
Q 2353 2234 1838 2234 
L 1294 2234 
L 1294 2753 
L 1863 2753 
Q 2328 2753 2575 2939 
Q 2822 3125 2822 3475 
Q 2822 3834 2567 4026 
Q 2313 4219 1838 4219 
Q 1578 4219 1281 4162 
Q 984 4106 628 3988 
L 628 4550 
Q 988 4650 1302 4700 
Q 1616 4750 1894 4750 
Q 2613 4750 3031 4423 
Q 3450 4097 3450 3541 
Q 3450 3153 3228 2886 
Q 3006 2619 2597 2516 
z
" transform="scale(0.015625)"/>
       </defs>
       <use xlink:href="#DejaVuSans-33"/>
      </g>
     </g>
    </g>
    <g id="xtick_4">
     <g id="line2d_7">
      <path d="M 294.902809 257.158895 
L 294.902809 22.318125 
" clip-path="url(#pfc05088769)" style="fill: none; stroke: #b0b0b0; stroke-width: 0.8; stroke-linecap: square"/>
     </g>
     <g id="line2d_8">
      <g>
       <use xlink:href="#me37bbee51f" x="294.902809" y="257.158895" style="stroke: #000000; stroke-width: 0.8"/>
      </g>
     </g>
     <g id="text_4">
      <!-- 4 -->
      <g transform="translate(291.721559 271.757332) scale(0.1 -0.1)">
       <defs>
        <path id="DejaVuSans-34" d="M 2419 4116 
L 825 1625 
L 2419 1625 
L 2419 4116 
z
M 2253 4666 
L 3047 4666 
L 3047 1625 
L 3713 1625 
L 3713 1100 
L 3047 1100 
L 3047 0 
L 2419 0 
L 2419 1100 
L 313 1100 
L 313 1709 
L 2253 4666 
z
" transform="scale(0.015625)"/>
       </defs>
       <use xlink:href="#DejaVuSans-34"/>
      </g>
     </g>
    </g>
    <g id="xtick_5">
     <g id="line2d_9">
      <path d="M 357.210672 257.158895 
L 357.210672 22.318125 
" clip-path="url(#pfc05088769)" style="fill: none; stroke: #b0b0b0; stroke-width: 0.8; stroke-linecap: square"/>
     </g>
     <g id="line2d_10">
      <g>
       <use xlink:href="#me37bbee51f" x="357.210672" y="257.158895" style="stroke: #000000; stroke-width: 0.8"/>
      </g>
     </g>
     <g id="text_5">
      <!-- 5 -->
      <g transform="translate(354.029422 271.757332) scale(0.1 -0.1)">
       <defs>
        <path id="DejaVuSans-35" d="M 691 4666 
L 3169 4666 
L 3169 4134 
L 1269 4134 
L 1269 2991 
Q 1406 3038 1543 3061 
Q 1681 3084 1819 3084 
Q 2600 3084 3056 2656 
Q 3513 2228 3513 1497 
Q 3513 744 3044 326 
Q 2575 -91 1722 -91 
Q 1428 -91 1123 -41 
Q 819 9 494 109 
L 494 744 
Q 775 591 1075 516 
Q 1375 441 1709 441 
Q 2250 441 2565 725 
Q 2881 1009 2881 1497 
Q 2881 1984 2565 2268 
Q 2250 2553 1709 2553 
Q 1456 2553 1204 2497 
Q 953 2441 691 2322 
L 691 4666 
z
" transform="scale(0.015625)"/>
       </defs>
       <use xlink:href="#DejaVuSans-35"/>
      </g>
     </g>
    </g>
    <g id="xtick_6">
     <g id="line2d_11">
      <path d="M 419.518535 257.158895 
L 419.518535 22.318125 
" clip-path="url(#pfc05088769)" style="fill: none; stroke: #b0b0b0; stroke-width: 0.8; stroke-linecap: square"/>
     </g>
     <g id="line2d_12">
      <g>
       <use xlink:href="#me37bbee51f" x="419.518535" y="257.158895" style="stroke: #000000; stroke-width: 0.8"/>
      </g>
     </g>
     <g id="text_6">
      <!-- 6 -->
      <g transform="translate(416.337285 271.757332) scale(0.1 -0.1)">
       <defs>
        <path id="DejaVuSans-36" d="M 2113 2584 
Q 1688 2584 1439 2293 
Q 1191 2003 1191 1497 
Q 1191 994 1439 701 
Q 1688 409 2113 409 
Q 2538 409 2786 701 
Q 3034 994 3034 1497 
Q 3034 2003 2786 2293 
Q 2538 2584 2113 2584 
z
M 3366 4563 
L 3366 3988 
Q 3128 4100 2886 4159 
Q 2644 4219 2406 4219 
Q 1781 4219 1451 3797 
Q 1122 3375 1075 2522 
Q 1259 2794 1537 2939 
Q 1816 3084 2150 3084 
Q 2853 3084 3261 2657 
Q 3669 2231 3669 1497 
Q 3669 778 3244 343 
Q 2819 -91 2113 -91 
Q 1303 -91 875 529 
Q 447 1150 447 2328 
Q 447 3434 972 4092 
Q 1497 4750 2381 4750 
Q 2619 4750 2861 4703 
Q 3103 4656 3366 4563 
z
" transform="scale(0.015625)"/>
       </defs>
       <use xlink:href="#DejaVuSans-36"/>
      </g>
     </g>
    </g>
    <g id="text_7">
     <!-- wavelength [Å] -->
     <g transform="translate(210.134411 287.119832) scale(0.1 -0.1)">
      <defs>
       <path id="DejaVuSans-77" d="M 269 3500 
L 844 3500 
L 1563 769 
L 2278 3500 
L 2956 3500 
L 3675 769 
L 4391 3500 
L 4966 3500 
L 4050 0 
L 3372 0 
L 2619 2869 
L 1863 0 
L 1184 0 
L 269 3500 
z
" transform="scale(0.015625)"/>
       <path id="DejaVuSans-61" d="M 2194 1759 
Q 1497 1759 1228 1600 
Q 959 1441 959 1056 
Q 959 750 1161 570 
Q 1363 391 1709 391 
Q 2188 391 2477 730 
Q 2766 1069 2766 1631 
L 2766 1759 
L 2194 1759 
z
M 3341 1997 
L 3341 0 
L 2766 0 
L 2766 531 
Q 2569 213 2275 61 
Q 1981 -91 1556 -91 
Q 1019 -91 701 211 
Q 384 513 384 1019 
Q 384 1609 779 1909 
Q 1175 2209 1959 2209 
L 2766 2209 
L 2766 2266 
Q 2766 2663 2505 2880 
Q 2244 3097 1772 3097 
Q 1472 3097 1187 3025 
Q 903 2953 641 2809 
L 641 3341 
Q 956 3463 1253 3523 
Q 1550 3584 1831 3584 
Q 2591 3584 2966 3190 
Q 3341 2797 3341 1997 
z
" transform="scale(0.015625)"/>
       <path id="DejaVuSans-76" d="M 191 3500 
L 800 3500 
L 1894 563 
L 2988 3500 
L 3597 3500 
L 2284 0 
L 1503 0 
L 191 3500 
z
" transform="scale(0.015625)"/>
       <path id="DejaVuSans-65" d="M 3597 1894 
L 3597 1613 
L 953 1613 
Q 991 1019 1311 708 
Q 1631 397 2203 397 
Q 2534 397 2845 478 
Q 3156 559 3463 722 
L 3463 178 
Q 3153 47 2828 -22 
Q 2503 -91 2169 -91 
Q 1331 -91 842 396 
Q 353 884 353 1716 
Q 353 2575 817 3079 
Q 1281 3584 2069 3584 
Q 2775 3584 3186 3129 
Q 3597 2675 3597 1894 
z
M 3022 2063 
Q 3016 2534 2758 2815 
Q 2500 3097 2075 3097 
Q 1594 3097 1305 2825 
Q 1016 2553 972 2059 
L 3022 2063 
z
" transform="scale(0.015625)"/>
       <path id="DejaVuSans-6c" d="M 603 4863 
L 1178 4863 
L 1178 0 
L 603 0 
L 603 4863 
z
" transform="scale(0.015625)"/>
       <path id="DejaVuSans-6e" d="M 3513 2113 
L 3513 0 
L 2938 0 
L 2938 2094 
Q 2938 2591 2744 2837 
Q 2550 3084 2163 3084 
Q 1697 3084 1428 2787 
Q 1159 2491 1159 1978 
L 1159 0 
L 581 0 
L 581 3500 
L 1159 3500 
L 1159 2956 
Q 1366 3272 1645 3428 
Q 1925 3584 2291 3584 
Q 2894 3584 3203 3211 
Q 3513 2838 3513 2113 
z
" transform="scale(0.015625)"/>
       <path id="DejaVuSans-67" d="M 2906 1791 
Q 2906 2416 2648 2759 
Q 2391 3103 1925 3103 
Q 1463 3103 1205 2759 
Q 947 2416 947 1791 
Q 947 1169 1205 825 
Q 1463 481 1925 481 
Q 2391 481 2648 825 
Q 2906 1169 2906 1791 
z
M 3481 434 
Q 3481 -459 3084 -895 
Q 2688 -1331 1869 -1331 
Q 1566 -1331 1297 -1286 
Q 1028 -1241 775 -1147 
L 775 -588 
Q 1028 -725 1275 -790 
Q 1522 -856 1778 -856 
Q 2344 -856 2625 -561 
Q 2906 -266 2906 331 
L 2906 616 
Q 2728 306 2450 153 
Q 2172 0 1784 0 
Q 1141 0 747 490 
Q 353 981 353 1791 
Q 353 2603 747 3093 
Q 1141 3584 1784 3584 
Q 2172 3584 2450 3431 
Q 2728 3278 2906 2969 
L 2906 3500 
L 3481 3500 
L 3481 434 
z
" transform="scale(0.015625)"/>
       <path id="DejaVuSans-74" d="M 1172 4494 
L 1172 3500 
L 2356 3500 
L 2356 3053 
L 1172 3053 
L 1172 1153 
Q 1172 725 1289 603 
Q 1406 481 1766 481 
L 2356 481 
L 2356 0 
L 1766 0 
Q 1100 0 847 248 
Q 594 497 594 1153 
L 594 3053 
L 172 3053 
L 172 3500 
L 594 3500 
L 594 4494 
L 1172 4494 
z
" transform="scale(0.015625)"/>
       <path id="DejaVuSans-68" d="M 3513 2113 
L 3513 0 
L 2938 0 
L 2938 2094 
Q 2938 2591 2744 2837 
Q 2550 3084 2163 3084 
Q 1697 3084 1428 2787 
Q 1159 2491 1159 1978 
L 1159 0 
L 581 0 
L 581 4863 
L 1159 4863 
L 1159 2956 
Q 1366 3272 1645 3428 
Q 1925 3584 2291 3584 
Q 2894 3584 3203 3211 
Q 3513 2838 3513 2113 
z
" transform="scale(0.015625)"/>
       <path id="DejaVuSans-20" transform="scale(0.015625)"/>
       <path id="DejaVuSans-5b" d="M 550 4863 
L 1875 4863 
L 1875 4416 
L 1125 4416 
L 1125 -397 
L 1875 -397 
L 1875 -844 
L 550 -844 
L 550 4863 
z
" transform="scale(0.015625)"/>
       <path id="DejaVuSans-c5" d="M 2663 5081 
Q 2663 5278 2523 5417 
Q 2384 5556 2188 5556 
Q 1988 5556 1852 5420 
Q 1716 5284 1716 5081 
Q 1716 4884 1853 4746 
Q 1991 4609 2188 4609 
Q 2384 4609 2523 4746 
Q 2663 4884 2663 5081 
z
M 2188 4044 
L 1338 1722 
L 3041 1722 
L 2188 4044 
z
M 1716 4366 
Q 1525 4494 1428 4673 
Q 1331 4853 1331 5081 
Q 1331 5441 1579 5691 
Q 1828 5941 2188 5941 
Q 2544 5941 2795 5689 
Q 3047 5438 3047 5081 
Q 3047 4863 2948 4678 
Q 2850 4494 2663 4366 
L 4325 0 
L 3669 0 
L 3244 1197 
L 1141 1197 
L 716 0 
L 50 0 
L 1716 4366 
z
" transform="scale(0.015625)"/>
       <path id="DejaVuSans-5d" d="M 1947 4863 
L 1947 -844 
L 622 -844 
L 622 -397 
L 1369 -397 
L 1369 4416 
L 622 4416 
L 622 4863 
L 1947 4863 
z
" transform="scale(0.015625)"/>
      </defs>
      <use xlink:href="#DejaVuSans-77"/>
      <use xlink:href="#DejaVuSans-61" x="81.787109"/>
      <use xlink:href="#DejaVuSans-76" x="143.066406"/>
      <use xlink:href="#DejaVuSans-65" x="202.246094"/>
      <use xlink:href="#DejaVuSans-6c" x="263.769531"/>
      <use xlink:href="#DejaVuSans-65" x="291.552734"/>
      <use xlink:href="#DejaVuSans-6e" x="353.076172"/>
      <use xlink:href="#DejaVuSans-67" x="416.455078"/>
      <use xlink:href="#DejaVuSans-74" x="479.931641"/>
      <use xlink:href="#DejaVuSans-68" x="519.140625"/>
      <use xlink:href="#DejaVuSans-20" x="582.519531"/>
      <use xlink:href="#DejaVuSans-5b" x="614.306641"/>
      <use xlink:href="#DejaVuSans-c5" x="653.320312"/>
      <use xlink:href="#DejaVuSans-5d" x="721.728516"/>
     </g>
    </g>
   </g>
   <g id="matplotlib.axis_2">
    <g id="ytick_1">
     <g id="line2d_13">
      <path d="M 59.690625 229.872082 
L 436.653198 229.872082 
" clip-path="url(#pfc05088769)" style="fill: none; stroke: #b0b0b0; stroke-width: 0.8; stroke-linecap: square"/>
     </g>
     <g id="line2d_14">
      <defs>
       <path id="m113a65006b" d="M 0 0 
L -3.5 0 
" style="stroke: #000000; stroke-width: 0.8"/>
      </defs>
      <g>
       <use xlink:href="#m113a65006b" x="59.690625" y="229.872082" style="stroke: #000000; stroke-width: 0.8"/>
      </g>
     </g>
     <g id="text_8">
      <!-- 2000 -->
      <g transform="translate(27.240625 233.671301) scale(0.1 -0.1)">
       <defs>
        <path id="DejaVuSans-30" d="M 2034 4250 
Q 1547 4250 1301 3770 
Q 1056 3291 1056 2328 
Q 1056 1369 1301 889 
Q 1547 409 2034 409 
Q 2525 409 2770 889 
Q 3016 1369 3016 2328 
Q 3016 3291 2770 3770 
Q 2525 4250 2034 4250 
z
M 2034 4750 
Q 2819 4750 3233 4129 
Q 3647 3509 3647 2328 
Q 3647 1150 3233 529 
Q 2819 -91 2034 -91 
Q 1250 -91 836 529 
Q 422 1150 422 2328 
Q 422 3509 836 4129 
Q 1250 4750 2034 4750 
z
" transform="scale(0.015625)"/>
       </defs>
       <use xlink:href="#DejaVuSans-32"/>
       <use xlink:href="#DejaVuSans-30" x="63.623047"/>
       <use xlink:href="#DejaVuSans-30" x="127.246094"/>
       <use xlink:href="#DejaVuSans-30" x="190.869141"/>
      </g>
     </g>
    </g>
    <g id="ytick_2">
     <g id="line2d_15">
      <path d="M 59.690625 197.941809 
L 436.653198 197.941809 
" clip-path="url(#pfc05088769)" style="fill: none; stroke: #b0b0b0; stroke-width: 0.8; stroke-linecap: square"/>
     </g>
     <g id="line2d_16">
      <g>
       <use xlink:href="#m113a65006b" x="59.690625" y="197.941809" style="stroke: #000000; stroke-width: 0.8"/>
      </g>
     </g>
     <g id="text_9">
      <!-- 4000 -->
      <g transform="translate(27.240625 201.741028) scale(0.1 -0.1)">
       <use xlink:href="#DejaVuSans-34"/>
       <use xlink:href="#DejaVuSans-30" x="63.623047"/>
       <use xlink:href="#DejaVuSans-30" x="127.246094"/>
       <use xlink:href="#DejaVuSans-30" x="190.869141"/>
      </g>
     </g>
    </g>
    <g id="ytick_3">
     <g id="line2d_17">
      <path d="M 59.690625 166.011537 
L 436.653198 166.011537 
" clip-path="url(#pfc05088769)" style="fill: none; stroke: #b0b0b0; stroke-width: 0.8; stroke-linecap: square"/>
     </g>
     <g id="line2d_18">
      <g>
       <use xlink:href="#m113a65006b" x="59.690625" y="166.011537" style="stroke: #000000; stroke-width: 0.8"/>
      </g>
     </g>
     <g id="text_10">
      <!-- 6000 -->
      <g transform="translate(27.240625 169.810755) scale(0.1 -0.1)">
       <use xlink:href="#DejaVuSans-36"/>
       <use xlink:href="#DejaVuSans-30" x="63.623047"/>
       <use xlink:href="#DejaVuSans-30" x="127.246094"/>
       <use xlink:href="#DejaVuSans-30" x="190.869141"/>
      </g>
     </g>
    </g>
    <g id="ytick_4">
     <g id="line2d_19">
      <path d="M 59.690625 134.081264 
L 436.653198 134.081264 
" clip-path="url(#pfc05088769)" style="fill: none; stroke: #b0b0b0; stroke-width: 0.8; stroke-linecap: square"/>
     </g>
     <g id="line2d_20">
      <g>
       <use xlink:href="#m113a65006b" x="59.690625" y="134.081264" style="stroke: #000000; stroke-width: 0.8"/>
      </g>
     </g>
     <g id="text_11">
      <!-- 8000 -->
      <g transform="translate(27.240625 137.880483) scale(0.1 -0.1)">
       <defs>
        <path id="DejaVuSans-38" d="M 2034 2216 
Q 1584 2216 1326 1975 
Q 1069 1734 1069 1313 
Q 1069 891 1326 650 
Q 1584 409 2034 409 
Q 2484 409 2743 651 
Q 3003 894 3003 1313 
Q 3003 1734 2745 1975 
Q 2488 2216 2034 2216 
z
M 1403 2484 
Q 997 2584 770 2862 
Q 544 3141 544 3541 
Q 544 4100 942 4425 
Q 1341 4750 2034 4750 
Q 2731 4750 3128 4425 
Q 3525 4100 3525 3541 
Q 3525 3141 3298 2862 
Q 3072 2584 2669 2484 
Q 3125 2378 3379 2068 
Q 3634 1759 3634 1313 
Q 3634 634 3220 271 
Q 2806 -91 2034 -91 
Q 1263 -91 848 271 
Q 434 634 434 1313 
Q 434 1759 690 2068 
Q 947 2378 1403 2484 
z
M 1172 3481 
Q 1172 3119 1398 2916 
Q 1625 2713 2034 2713 
Q 2441 2713 2670 2916 
Q 2900 3119 2900 3481 
Q 2900 3844 2670 4047 
Q 2441 4250 2034 4250 
Q 1625 4250 1398 4047 
Q 1172 3844 1172 3481 
z
" transform="scale(0.015625)"/>
       </defs>
       <use xlink:href="#DejaVuSans-38"/>
       <use xlink:href="#DejaVuSans-30" x="63.623047"/>
       <use xlink:href="#DejaVuSans-30" x="127.246094"/>
       <use xlink:href="#DejaVuSans-30" x="190.869141"/>
      </g>
     </g>
    </g>
    <g id="ytick_5">
     <g id="line2d_21">
      <path d="M 59.690625 102.150991 
L 436.653198 102.150991 
" clip-path="url(#pfc05088769)" style="fill: none; stroke: #b0b0b0; stroke-width: 0.8; stroke-linecap: square"/>
     </g>
     <g id="line2d_22">
      <g>
       <use xlink:href="#m113a65006b" x="59.690625" y="102.150991" style="stroke: #000000; stroke-width: 0.8"/>
      </g>
     </g>
     <g id="text_12">
      <!-- 10000 -->
      <g transform="translate(20.878125 105.95021) scale(0.1 -0.1)">
       <use xlink:href="#DejaVuSans-31"/>
       <use xlink:href="#DejaVuSans-30" x="63.623047"/>
       <use xlink:href="#DejaVuSans-30" x="127.246094"/>
       <use xlink:href="#DejaVuSans-30" x="190.869141"/>
       <use xlink:href="#DejaVuSans-30" x="254.492188"/>
      </g>
     </g>
    </g>
    <g id="ytick_6">
     <g id="line2d_23">
      <path d="M 59.690625 70.220718 
L 436.653198 70.220718 
" clip-path="url(#pfc05088769)" style="fill: none; stroke: #b0b0b0; stroke-width: 0.8; stroke-linecap: square"/>
     </g>
     <g id="line2d_24">
      <g>
       <use xlink:href="#m113a65006b" x="59.690625" y="70.220718" style="stroke: #000000; stroke-width: 0.8"/>
      </g>
     </g>
     <g id="text_13">
      <!-- 12000 -->
      <g transform="translate(20.878125 74.019937) scale(0.1 -0.1)">
       <use xlink:href="#DejaVuSans-31"/>
       <use xlink:href="#DejaVuSans-32" x="63.623047"/>
       <use xlink:href="#DejaVuSans-30" x="127.246094"/>
       <use xlink:href="#DejaVuSans-30" x="190.869141"/>
       <use xlink:href="#DejaVuSans-30" x="254.492188"/>
      </g>
     </g>
    </g>
    <g id="ytick_7">
     <g id="line2d_25">
      <path d="M 59.690625 38.290446 
L 436.653198 38.290446 
" clip-path="url(#pfc05088769)" style="fill: none; stroke: #b0b0b0; stroke-width: 0.8; stroke-linecap: square"/>
     </g>
     <g id="line2d_26">
      <g>
       <use xlink:href="#m113a65006b" x="59.690625" y="38.290446" style="stroke: #000000; stroke-width: 0.8"/>
      </g>
     </g>
     <g id="text_14">
      <!-- 14000 -->
      <g transform="translate(20.878125 42.089664) scale(0.1 -0.1)">
       <use xlink:href="#DejaVuSans-31"/>
       <use xlink:href="#DejaVuSans-34" x="63.623047"/>
       <use xlink:href="#DejaVuSans-30" x="127.246094"/>
       <use xlink:href="#DejaVuSans-30" x="190.869141"/>
       <use xlink:href="#DejaVuSans-30" x="254.492188"/>
      </g>
     </g>
    </g>
    <g id="text_15">
     <!-- [counts] -->
     <g transform="translate(14.798438 160.35101) rotate(-90) scale(0.1 -0.1)">
      <defs>
       <path id="DejaVuSans-63" d="M 3122 3366 
L 3122 2828 
Q 2878 2963 2633 3030 
Q 2388 3097 2138 3097 
Q 1578 3097 1268 2742 
Q 959 2388 959 1747 
Q 959 1106 1268 751 
Q 1578 397 2138 397 
Q 2388 397 2633 464 
Q 2878 531 3122 666 
L 3122 134 
Q 2881 22 2623 -34 
Q 2366 -91 2075 -91 
Q 1284 -91 818 406 
Q 353 903 353 1747 
Q 353 2603 823 3093 
Q 1294 3584 2113 3584 
Q 2378 3584 2631 3529 
Q 2884 3475 3122 3366 
z
" transform="scale(0.015625)"/>
       <path id="DejaVuSans-6f" d="M 1959 3097 
Q 1497 3097 1228 2736 
Q 959 2375 959 1747 
Q 959 1119 1226 758 
Q 1494 397 1959 397 
Q 2419 397 2687 759 
Q 2956 1122 2956 1747 
Q 2956 2369 2687 2733 
Q 2419 3097 1959 3097 
z
M 1959 3584 
Q 2709 3584 3137 3096 
Q 3566 2609 3566 1747 
Q 3566 888 3137 398 
Q 2709 -91 1959 -91 
Q 1206 -91 779 398 
Q 353 888 353 1747 
Q 353 2609 779 3096 
Q 1206 3584 1959 3584 
z
" transform="scale(0.015625)"/>
       <path id="DejaVuSans-75" d="M 544 1381 
L 544 3500 
L 1119 3500 
L 1119 1403 
Q 1119 906 1312 657 
Q 1506 409 1894 409 
Q 2359 409 2629 706 
Q 2900 1003 2900 1516 
L 2900 3500 
L 3475 3500 
L 3475 0 
L 2900 0 
L 2900 538 
Q 2691 219 2414 64 
Q 2138 -91 1772 -91 
Q 1169 -91 856 284 
Q 544 659 544 1381 
z
M 1991 3584 
L 1991 3584 
z
" transform="scale(0.015625)"/>
       <path id="DejaVuSans-73" d="M 2834 3397 
L 2834 2853 
Q 2591 2978 2328 3040 
Q 2066 3103 1784 3103 
Q 1356 3103 1142 2972 
Q 928 2841 928 2578 
Q 928 2378 1081 2264 
Q 1234 2150 1697 2047 
L 1894 2003 
Q 2506 1872 2764 1633 
Q 3022 1394 3022 966 
Q 3022 478 2636 193 
Q 2250 -91 1575 -91 
Q 1294 -91 989 -36 
Q 684 19 347 128 
L 347 722 
Q 666 556 975 473 
Q 1284 391 1588 391 
Q 1994 391 2212 530 
Q 2431 669 2431 922 
Q 2431 1156 2273 1281 
Q 2116 1406 1581 1522 
L 1381 1569 
Q 847 1681 609 1914 
Q 372 2147 372 2553 
Q 372 3047 722 3315 
Q 1072 3584 1716 3584 
Q 2034 3584 2315 3537 
Q 2597 3491 2834 3397 
z
" transform="scale(0.015625)"/>
      </defs>
      <use xlink:href="#DejaVuSans-5b"/>
      <use xlink:href="#DejaVuSans-63" x="39.013672"/>
      <use xlink:href="#DejaVuSans-6f" x="93.994141"/>
      <use xlink:href="#DejaVuSans-75" x="155.175781"/>
      <use xlink:href="#DejaVuSans-6e" x="218.554688"/>
      <use xlink:href="#DejaVuSans-74" x="281.933594"/>
      <use xlink:href="#DejaVuSans-73" x="321.142578"/>
      <use xlink:href="#DejaVuSans-5d" x="373.242188"/>
     </g>
    </g>
   </g>
   <g id="patch_3">
    <path d="M 59.690625 257.158895 
L 59.690625 22.318125 
" style="fill: none; stroke: #000000; stroke-width: 0.8; stroke-linejoin: miter; stroke-linecap: square"/>
   </g>
   <g id="patch_4">
    <path d="M 436.653198 257.158895 
L 436.653198 22.318125 
" style="fill: none; stroke: #000000; stroke-width: 0.8; stroke-linejoin: miter; stroke-linecap: square"/>
   </g>
   <g id="patch_5">
    <path d="M 59.690625 257.158895 
L 436.653198 257.158895 
" style="fill: none; stroke: #000000; stroke-width: 0.8; stroke-linejoin: miter; stroke-linecap: square"/>
   </g>
   <g id="patch_6">
    <path d="M 59.690625 22.318125 
L 436.653198 22.318125 
" style="fill: none; stroke: #000000; stroke-width: 0.8; stroke-linejoin: miter; stroke-linecap: square"/>
   </g>
   <g id="text_16">
    <!-- Intensities per gain -->
    <g transform="translate(190.387224 16.318125) scale(0.12 -0.12)">
     <defs>
      <path id="DejaVuSans-49" d="M 628 4666 
L 1259 4666 
L 1259 0 
L 628 0 
L 628 4666 
z
" transform="scale(0.015625)"/>
      <path id="DejaVuSans-69" d="M 603 3500 
L 1178 3500 
L 1178 0 
L 603 0 
L 603 3500 
z
M 603 4863 
L 1178 4863 
L 1178 4134 
L 603 4134 
L 603 4863 
z
" transform="scale(0.015625)"/>
      <path id="DejaVuSans-70" d="M 1159 525 
L 1159 -1331 
L 581 -1331 
L 581 3500 
L 1159 3500 
L 1159 2969 
Q 1341 3281 1617 3432 
Q 1894 3584 2278 3584 
Q 2916 3584 3314 3078 
Q 3713 2572 3713 1747 
Q 3713 922 3314 415 
Q 2916 -91 2278 -91 
Q 1894 -91 1617 61 
Q 1341 213 1159 525 
z
M 3116 1747 
Q 3116 2381 2855 2742 
Q 2594 3103 2138 3103 
Q 1681 3103 1420 2742 
Q 1159 2381 1159 1747 
Q 1159 1113 1420 752 
Q 1681 391 2138 391 
Q 2594 391 2855 752 
Q 3116 1113 3116 1747 
z
" transform="scale(0.015625)"/>
      <path id="DejaVuSans-72" d="M 2631 2963 
Q 2534 3019 2420 3045 
Q 2306 3072 2169 3072 
Q 1681 3072 1420 2755 
Q 1159 2438 1159 1844 
L 1159 0 
L 581 0 
L 581 3500 
L 1159 3500 
L 1159 2956 
Q 1341 3275 1631 3429 
Q 1922 3584 2338 3584 
Q 2397 3584 2469 3576 
Q 2541 3569 2628 3553 
L 2631 2963 
z
" transform="scale(0.015625)"/>
     </defs>
     <use xlink:href="#DejaVuSans-49"/>
     <use xlink:href="#DejaVuSans-6e" x="29.492188"/>
     <use xlink:href="#DejaVuSans-74" x="92.871094"/>
     <use xlink:href="#DejaVuSans-65" x="132.080078"/>
     <use xlink:href="#DejaVuSans-6e" x="193.603516"/>
     <use xlink:href="#DejaVuSans-73" x="256.982422"/>
     <use xlink:href="#DejaVuSans-69" x="309.082031"/>
     <use xlink:href="#DejaVuSans-74" x="336.865234"/>
     <use xlink:href="#DejaVuSans-69" x="376.074219"/>
     <use xlink:href="#DejaVuSans-65" x="403.857422"/>
     <use xlink:href="#DejaVuSans-73" x="465.380859"/>
     <use xlink:href="#DejaVuSans-20" x="517.480469"/>
     <use xlink:href="#DejaVuSans-70" x="549.267578"/>
     <use xlink:href="#DejaVuSans-65" x="612.744141"/>
     <use xlink:href="#DejaVuSans-72" x="674.267578"/>
     <use xlink:href="#DejaVuSans-20" x="715.380859"/>
     <use xlink:href="#DejaVuSans-67" x="747.167969"/>
     <use xlink:href="#DejaVuSans-61" x="810.644531"/>
     <use xlink:href="#DejaVuSans-69" x="871.923828"/>
     <use xlink:href="#DejaVuSans-6e" x="899.707031"/>
    </g>
   </g>
   <g id="legend_1">
    <g id="patch_7">
     <path d="M 337.77351 103.70875 
L 429.653198 103.70875 
Q 431.653198 103.70875 431.653198 101.70875 
L 431.653198 29.318125 
Q 431.653198 27.318125 429.653198 27.318125 
L 337.77351 27.318125 
Q 335.77351 27.318125 335.77351 29.318125 
L 335.77351 101.70875 
Q 335.77351 103.70875 337.77351 103.70875 
z
" style="fill: #ffffff; opacity: 0.8; stroke: #cccccc; stroke-linejoin: miter"/>
    </g>
    <g id="line2d_27">
     <path d="M 339.77351 35.416562 
L 339.77351 35.416562 
L 349.77351 35.416562 
L 349.77351 35.416562 
L 359.77351 35.416562 
" style="fill: none; stroke: #1f77b4; stroke-width: 1.5; stroke-linecap: square"/>
    </g>
    <g id="text_17">
     <!-- 0 th [V]  0.4 -->
     <g transform="translate(367.77351 38.916562) scale(0.1 -0.1)">
      <defs>
       <path id="DejaVuSans-56" d="M 1831 0 
L 50 4666 
L 709 4666 
L 2188 738 
L 3669 4666 
L 4325 4666 
L 2547 0 
L 1831 0 
z
" transform="scale(0.015625)"/>
       <path id="DejaVuSans-2e" d="M 684 794 
L 1344 794 
L 1344 0 
L 684 0 
L 684 794 
z
" transform="scale(0.015625)"/>
      </defs>
      <use xlink:href="#DejaVuSans-30"/>
      <use xlink:href="#DejaVuSans-20" x="63.623047"/>
      <use xlink:href="#DejaVuSans-74" x="95.410156"/>
      <use xlink:href="#DejaVuSans-68" x="134.619141"/>
      <use xlink:href="#DejaVuSans-20" x="197.998047"/>
      <use xlink:href="#DejaVuSans-5b" x="229.785156"/>
      <use xlink:href="#DejaVuSans-56" x="268.798828"/>
      <use xlink:href="#DejaVuSans-5d" x="337.207031"/>
      <use xlink:href="#DejaVuSans-20" x="376.220703"/>
      <use xlink:href="#DejaVuSans-20" x="408.007812"/>
      <use xlink:href="#DejaVuSans-30" x="439.794922"/>
      <use xlink:href="#DejaVuSans-2e" x="503.417969"/>
      <use xlink:href="#DejaVuSans-34" x="535.205078"/>
     </g>
    </g>
    <g id="line2d_28">
     <path d="M 339.77351 50.094687 
L 339.77351 50.094687 
L 349.77351 50.094687 
L 349.77351 50.094687 
L 359.77351 50.094687 
" style="fill: none; stroke: #ff7f0e; stroke-width: 1.5; stroke-linecap: square"/>
    </g>
    <g id="text_18">
     <!-- 1 th [V]  0.5 -->
     <g transform="translate(367.77351 53.594687) scale(0.1 -0.1)">
      <use xlink:href="#DejaVuSans-31"/>
      <use xlink:href="#DejaVuSans-20" x="63.623047"/>
      <use xlink:href="#DejaVuSans-74" x="95.410156"/>
      <use xlink:href="#DejaVuSans-68" x="134.619141"/>
      <use xlink:href="#DejaVuSans-20" x="197.998047"/>
      <use xlink:href="#DejaVuSans-5b" x="229.785156"/>
      <use xlink:href="#DejaVuSans-56" x="268.798828"/>
      <use xlink:href="#DejaVuSans-5d" x="337.207031"/>
      <use xlink:href="#DejaVuSans-20" x="376.220703"/>
      <use xlink:href="#DejaVuSans-20" x="408.007812"/>
      <use xlink:href="#DejaVuSans-30" x="439.794922"/>
      <use xlink:href="#DejaVuSans-2e" x="503.417969"/>
      <use xlink:href="#DejaVuSans-35" x="535.205078"/>
     </g>
    </g>
    <g id="line2d_29">
     <path d="M 339.77351 64.772812 
L 339.77351 64.772812 
L 349.77351 64.772812 
L 349.77351 64.772812 
L 359.77351 64.772812 
" style="fill: none; stroke: #2ca02c; stroke-width: 1.5; stroke-linecap: square"/>
    </g>
    <g id="text_19">
     <!-- 2 th [V]  0.6 -->
     <g transform="translate(367.77351 68.272812) scale(0.1 -0.1)">
      <use xlink:href="#DejaVuSans-32"/>
      <use xlink:href="#DejaVuSans-20" x="63.623047"/>
      <use xlink:href="#DejaVuSans-74" x="95.410156"/>
      <use xlink:href="#DejaVuSans-68" x="134.619141"/>
      <use xlink:href="#DejaVuSans-20" x="197.998047"/>
      <use xlink:href="#DejaVuSans-5b" x="229.785156"/>
      <use xlink:href="#DejaVuSans-56" x="268.798828"/>
      <use xlink:href="#DejaVuSans-5d" x="337.207031"/>
      <use xlink:href="#DejaVuSans-20" x="376.220703"/>
      <use xlink:href="#DejaVuSans-20" x="408.007812"/>
      <use xlink:href="#DejaVuSans-30" x="439.794922"/>
      <use xlink:href="#DejaVuSans-2e" x="503.417969"/>
      <use xlink:href="#DejaVuSans-36" x="535.205078"/>
     </g>
    </g>
    <g id="line2d_30">
     <path d="M 339.77351 79.450937 
L 339.77351 79.450937 
L 349.77351 79.450937 
L 349.77351 79.450937 
L 359.77351 79.450937 
" style="fill: none; stroke: #d62728; stroke-width: 1.5; stroke-linecap: square"/>
    </g>
    <g id="text_20">
     <!-- 3 th [V]  0.7 -->
     <g transform="translate(367.77351 82.950937) scale(0.1 -0.1)">
      <defs>
       <path id="DejaVuSans-37" d="M 525 4666 
L 3525 4666 
L 3525 4397 
L 1831 0 
L 1172 0 
L 2766 4134 
L 525 4134 
L 525 4666 
z
" transform="scale(0.015625)"/>
      </defs>
      <use xlink:href="#DejaVuSans-33"/>
      <use xlink:href="#DejaVuSans-20" x="63.623047"/>
      <use xlink:href="#DejaVuSans-74" x="95.410156"/>
      <use xlink:href="#DejaVuSans-68" x="134.619141"/>
      <use xlink:href="#DejaVuSans-20" x="197.998047"/>
      <use xlink:href="#DejaVuSans-5b" x="229.785156"/>
      <use xlink:href="#DejaVuSans-56" x="268.798828"/>
      <use xlink:href="#DejaVuSans-5d" x="337.207031"/>
      <use xlink:href="#DejaVuSans-20" x="376.220703"/>
      <use xlink:href="#DejaVuSans-20" x="408.007812"/>
      <use xlink:href="#DejaVuSans-30" x="439.794922"/>
      <use xlink:href="#DejaVuSans-2e" x="503.417969"/>
      <use xlink:href="#DejaVuSans-37" x="535.205078"/>
     </g>
    </g>
    <g id="line2d_31">
     <path d="M 339.77351 94.129062 
L 339.77351 94.129062 
L 349.77351 94.129062 
L 349.77351 94.129062 
L 359.77351 94.129062 
" style="fill: none; stroke: #9467bd; stroke-width: 1.5; stroke-linecap: square"/>
    </g>
    <g id="text_21">
     <!-- 4 th [V]  0.8 -->
     <g transform="translate(367.77351 97.629062) scale(0.1 -0.1)">
      <use xlink:href="#DejaVuSans-34"/>
      <use xlink:href="#DejaVuSans-20" x="63.623047"/>
      <use xlink:href="#DejaVuSans-74" x="95.410156"/>
      <use xlink:href="#DejaVuSans-68" x="134.619141"/>
      <use xlink:href="#DejaVuSans-20" x="197.998047"/>
      <use xlink:href="#DejaVuSans-5b" x="229.785156"/>
      <use xlink:href="#DejaVuSans-56" x="268.798828"/>
      <use xlink:href="#DejaVuSans-5d" x="337.207031"/>
      <use xlink:href="#DejaVuSans-20" x="376.220703"/>
      <use xlink:href="#DejaVuSans-20" x="408.007812"/>
      <use xlink:href="#DejaVuSans-30" x="439.794922"/>
      <use xlink:href="#DejaVuSans-2e" x="503.417969"/>
      <use xlink:href="#DejaVuSans-38" x="535.205078"/>
     </g>
    </g>
   </g>
   <g id="line2d_32">
    <path d="M 76.825287 91.51821 
L 76.825287 91.51821 
L 91.104173 91.51821 
L 91.104173 72.008814 
L 105.383058 72.008814 
L 105.383058 52.339766 
L 119.661943 52.339766 
L 119.661943 37.971143 
L 133.940829 37.971143 
L 133.940829 32.415275 
L 148.219714 32.415275 
L 148.219714 35.688128 
L 162.498599 35.688128 
L 162.498599 44.229476 
L 176.777485 44.229476 
L 176.777485 58.949332 
L 191.05637 58.949332 
L 191.05637 75.265702 
L 205.335255 75.265702 
L 205.335255 83.854945 
L 219.614141 83.854945 
L 219.614141 89.889766 
L 233.893026 89.889766 
L 233.893026 93.960876 
L 248.171911 93.960876 
L 248.171911 94.184388 
L 262.450797 94.184388 
L 262.450797 88.931858 
L 276.729682 88.931858 
L 276.729682 90.464511 
L 291.008567 90.464511 
L 291.008567 93.992806 
L 305.287453 93.992806 
L 305.287453 101.416595 
L 319.566338 101.416595 
L 319.566338 117.573313 
L 333.845223 117.573313 
L 333.845223 140.291702 
L 348.124109 140.291702 
L 348.124109 160.774972 
L 362.402994 160.774972 
L 362.402994 184.387409 
L 376.681879 184.387409 
L 376.681879 204.40769 
L 390.960764 204.40769 
L 390.960764 221.618107 
L 405.23965 221.618107 
L 405.23965 234.358285 
L 419.518535 234.358285 
" clip-path="url(#pfc05088769)" style="fill: none; stroke: #1f77b4; stroke-width: 1.5; stroke-linecap: square"/>
   </g>
   <g id="line2d_33">
    <path d="M 76.825287 100.570443 
L 76.825287 100.570443 
L 91.104173 100.570443 
L 91.104173 81.939129 
L 105.383058 81.939129 
L 105.383058 64.968189 
L 119.661943 64.968189 
L 119.661943 53.47329 
L 133.940829 53.47329 
L 133.940829 52.483452 
L 148.219714 52.483452 
L 148.219714 50.759217 
L 162.498599 50.759217 
L 162.498599 62.557453 
L 176.777485 62.557453 
L 176.777485 74.052351 
L 191.05637 74.052351 
L 191.05637 87.016042 
L 205.335255 87.016042 
L 205.335255 98.431114 
L 219.614141 98.431114 
L 219.614141 103.348376 
L 233.893026 103.348376 
L 233.893026 109.686536 
L 248.171911 109.686536 
L 248.171911 106.605264 
L 262.450797 106.605264 
L 262.450797 101.161153 
L 276.729682 101.161153 
L 276.729682 103.939086 
L 291.008567 103.939086 
L 291.008567 107.674928 
L 305.287453 107.674928 
L 305.287453 117.461557 
L 319.566338 117.461557 
L 319.566338 131.590703 
L 333.845223 131.590703 
L 333.845223 151.16396 
L 348.124109 151.16396 
L 348.124109 171.519509 
L 362.402994 171.519509 
L 362.402994 189.879416 
L 376.681879 189.879416 
L 376.681879 209.532498 
L 390.960764 209.532498 
L 390.960764 225.769042 
L 405.23965 225.769042 
L 405.23965 236.513579 
L 419.518535 236.513579 
" clip-path="url(#pfc05088769)" style="fill: none; stroke: #ff7f0e; stroke-width: 1.5; stroke-linecap: square"/>
   </g>
   <g id="line2d_34">
    <path d="M 76.825287 113.438343 
L 76.825287 113.438343 
L 91.104173 113.438343 
L 91.104173 97.265659 
L 105.383058 97.265659 
L 105.383058 81.603861 
L 119.661943 81.603861 
L 119.661943 66.884005 
L 133.940829 66.884005 
L 133.940829 62.956581 
L 148.219714 62.956581 
L 148.219714 68.576309 
L 162.498599 68.576309 
L 162.498599 78.219252 
L 176.777485 78.219252 
L 176.777485 91.214873 
L 191.05637 91.214873 
L 191.05637 106.844741 
L 205.335255 106.844741 
L 205.335255 117.557348 
L 219.614141 117.557348 
L 219.614141 125.507986 
L 233.893026 125.507986 
L 233.893026 130.505073 
L 248.171911 130.505073 
L 248.171911 135.949185 
L 262.450797 135.949185 
L 262.450797 133.442658 
L 276.729682 133.442658 
L 276.729682 133.953543 
L 291.008567 133.953543 
L 291.008567 137.449908 
L 305.287453 137.449908 
L 305.287453 145.432476 
L 319.566338 145.432476 
L 319.566338 159.162493 
L 333.845223 159.162493 
L 333.845223 170.433879 
L 348.124109 170.433879 
L 348.124109 189.160984 
L 362.402994 189.160984 
L 362.402994 204.136282 
L 376.681879 204.136282 
L 376.681879 218.999824 
L 390.960764 218.999824 
L 390.960764 232.155097 
L 405.23965 232.155097 
L 405.23965 242.229098 
L 419.518535 242.229098 
" clip-path="url(#pfc05088769)" style="fill: none; stroke: #2ca02c; stroke-width: 1.5; stroke-linecap: square"/>
   </g>
   <g id="line2d_35">
    <path d="M 76.825287 103.651714 
L 76.825287 103.651714 
L 91.104173 103.651714 
L 91.104173 86.185855 
L 105.383058 86.185855 
L 105.383058 65.846271 
L 119.661943 65.846271 
L 119.661943 59.492147 
L 133.940829 59.492147 
L 133.940829 54.111896 
L 148.219714 54.111896 
L 148.219714 60.625671 
L 162.498599 60.625671 
L 162.498599 75.026224 
L 176.777485 75.026224 
L 176.777485 87.319379 
L 191.05637 87.319379 
L 191.05637 106.285961 
L 205.335255 106.285961 
L 205.335255 121.484771 
L 219.614141 121.484771 
L 219.614141 139.764852 
L 233.893026 139.764852 
L 233.893026 145.624058 
L 248.171911 145.624058 
L 248.171911 150.796762 
L 262.450797 150.796762 
L 262.450797 155.777884 
L 276.729682 155.777884 
L 276.729682 160.55146 
L 291.008567 160.55146 
L 291.008567 162.32359 
L 305.287453 162.32359 
L 305.287453 170.737217 
L 319.566338 170.737217 
L 319.566338 178.496273 
L 333.845223 178.496273 
L 333.845223 190.518021 
L 348.124109 190.518021 
L 348.124109 203.960666 
L 362.402994 203.960666 
L 362.402994 218.393149 
L 376.681879 218.393149 
L 376.681879 228.020126 
L 390.960764 228.020126 
L 390.960764 238.780628 
L 405.23965 238.780628 
L 405.23965 246.076696 
L 419.518535 246.076696 
" clip-path="url(#pfc05088769)" style="fill: none; stroke: #d62728; stroke-width: 1.5; stroke-linecap: square"/>
   </g>
   <g id="line2d_36">
    <path d="M 76.825287 135.055137 
L 76.825287 135.055137 
L 91.104173 135.055137 
L 91.104173 117.573313 
L 105.383058 117.573313 
L 105.383058 107.116149 
L 119.661943 107.116149 
L 119.661943 102.182921 
L 133.940829 102.182921 
L 133.940829 96.850566 
L 148.219714 96.850566 
L 148.219714 100.267105 
L 162.498599 100.267105 
L 162.498599 108.648802 
L 176.777485 108.648802 
L 176.777485 124.087089 
L 191.05637 124.087089 
L 191.05637 136.092871 
L 205.335255 136.092871 
L 205.335255 151.658879 
L 219.614141 151.658879 
L 219.614141 162.547102 
L 233.893026 162.547102 
L 233.893026 170.114577 
L 248.171911 170.114577 
L 248.171911 173.994105 
L 262.450797 173.994105 
L 262.450797 177.394679 
L 276.729682 177.394679 
L 276.729682 179.486112 
L 291.008567 179.486112 
L 291.008567 183.078267 
L 305.287453 183.078267 
L 305.287453 188.713961 
L 319.566338 188.713961 
L 319.566338 196.073888 
L 333.845223 196.073888 
L 333.845223 205.700866 
L 348.124109 205.700866 
L 348.124109 215.822762 
L 362.402994 215.822762 
L 362.402994 225.864833 
L 376.681879 225.864833 
L 376.681879 234.581797 
L 390.960764 234.581797 
L 390.960764 243.218936 
L 405.23965 243.218936 
L 405.23965 249.525165 
L 419.518535 249.525165 
" clip-path="url(#pfc05088769)" style="fill: none; stroke: #9467bd; stroke-width: 1.5; stroke-linecap: square"/>
   </g>
  </g>
  <g id="axes_2">
   <g id="patch_8">
    <path d="M 488.236948 257.158895 
L 865.19952 257.158895 
L 865.19952 22.318125 
L 488.236948 22.318125 
z
" style="fill: #ffffff"/>
   </g>
   <g id="matplotlib.axis_3">
    <g id="xtick_7">
     <g id="line2d_37">
      <path d="M 536.525541 257.158895 
L 536.525541 22.318125 
" clip-path="url(#pa9bcad4242)" style="fill: none; stroke: #b0b0b0; stroke-width: 0.8; stroke-linecap: square"/>
     </g>
     <g id="line2d_38">
      <g>
       <use xlink:href="#me37bbee51f" x="536.525541" y="257.158895" style="stroke: #000000; stroke-width: 0.8"/>
      </g>
     </g>
     <g id="text_22">
      <!-- 1 -->
      <g transform="translate(533.344291 271.757332) scale(0.1 -0.1)">
       <use xlink:href="#DejaVuSans-31"/>
      </g>
     </g>
    </g>
    <g id="xtick_8">
     <g id="line2d_39">
      <path d="M 598.833405 257.158895 
L 598.833405 22.318125 
" clip-path="url(#pa9bcad4242)" style="fill: none; stroke: #b0b0b0; stroke-width: 0.8; stroke-linecap: square"/>
     </g>
     <g id="line2d_40">
      <g>
       <use xlink:href="#me37bbee51f" x="598.833405" y="257.158895" style="stroke: #000000; stroke-width: 0.8"/>
      </g>
     </g>
     <g id="text_23">
      <!-- 2 -->
      <g transform="translate(595.652155 271.757332) scale(0.1 -0.1)">
       <use xlink:href="#DejaVuSans-32"/>
      </g>
     </g>
    </g>
    <g id="xtick_9">
     <g id="line2d_41">
      <path d="M 661.141268 257.158895 
L 661.141268 22.318125 
" clip-path="url(#pa9bcad4242)" style="fill: none; stroke: #b0b0b0; stroke-width: 0.8; stroke-linecap: square"/>
     </g>
     <g id="line2d_42">
      <g>
       <use xlink:href="#me37bbee51f" x="661.141268" y="257.158895" style="stroke: #000000; stroke-width: 0.8"/>
      </g>
     </g>
     <g id="text_24">
      <!-- 3 -->
      <g transform="translate(657.960018 271.757332) scale(0.1 -0.1)">
       <use xlink:href="#DejaVuSans-33"/>
      </g>
     </g>
    </g>
    <g id="xtick_10">
     <g id="line2d_43">
      <path d="M 723.449131 257.158895 
L 723.449131 22.318125 
" clip-path="url(#pa9bcad4242)" style="fill: none; stroke: #b0b0b0; stroke-width: 0.8; stroke-linecap: square"/>
     </g>
     <g id="line2d_44">
      <g>
       <use xlink:href="#me37bbee51f" x="723.449131" y="257.158895" style="stroke: #000000; stroke-width: 0.8"/>
      </g>
     </g>
     <g id="text_25">
      <!-- 4 -->
      <g transform="translate(720.267881 271.757332) scale(0.1 -0.1)">
       <use xlink:href="#DejaVuSans-34"/>
      </g>
     </g>
    </g>
    <g id="xtick_11">
     <g id="line2d_45">
      <path d="M 785.756994 257.158895 
L 785.756994 22.318125 
" clip-path="url(#pa9bcad4242)" style="fill: none; stroke: #b0b0b0; stroke-width: 0.8; stroke-linecap: square"/>
     </g>
     <g id="line2d_46">
      <g>
       <use xlink:href="#me37bbee51f" x="785.756994" y="257.158895" style="stroke: #000000; stroke-width: 0.8"/>
      </g>
     </g>
     <g id="text_26">
      <!-- 5 -->
      <g transform="translate(782.575744 271.757332) scale(0.1 -0.1)">
       <use xlink:href="#DejaVuSans-35"/>
      </g>
     </g>
    </g>
    <g id="xtick_12">
     <g id="line2d_47">
      <path d="M 848.064858 257.158895 
L 848.064858 22.318125 
" clip-path="url(#pa9bcad4242)" style="fill: none; stroke: #b0b0b0; stroke-width: 0.8; stroke-linecap: square"/>
     </g>
     <g id="line2d_48">
      <g>
       <use xlink:href="#me37bbee51f" x="848.064858" y="257.158895" style="stroke: #000000; stroke-width: 0.8"/>
      </g>
     </g>
     <g id="text_27">
      <!-- 6 -->
      <g transform="translate(844.883608 271.757332) scale(0.1 -0.1)">
       <use xlink:href="#DejaVuSans-36"/>
      </g>
     </g>
    </g>
    <g id="text_28">
     <!-- wavelength [Å] -->
     <g transform="translate(638.680734 287.119832) scale(0.1 -0.1)">
      <use xlink:href="#DejaVuSans-77"/>
      <use xlink:href="#DejaVuSans-61" x="81.787109"/>
      <use xlink:href="#DejaVuSans-76" x="143.066406"/>
      <use xlink:href="#DejaVuSans-65" x="202.246094"/>
      <use xlink:href="#DejaVuSans-6c" x="263.769531"/>
      <use xlink:href="#DejaVuSans-65" x="291.552734"/>
      <use xlink:href="#DejaVuSans-6e" x="353.076172"/>
      <use xlink:href="#DejaVuSans-67" x="416.455078"/>
      <use xlink:href="#DejaVuSans-74" x="479.931641"/>
      <use xlink:href="#DejaVuSans-68" x="519.140625"/>
      <use xlink:href="#DejaVuSans-20" x="582.519531"/>
      <use xlink:href="#DejaVuSans-5b" x="614.306641"/>
      <use xlink:href="#DejaVuSans-c5" x="653.320312"/>
      <use xlink:href="#DejaVuSans-5d" x="721.728516"/>
     </g>
    </g>
   </g>
   <g id="matplotlib.axis_4">
    <g id="ytick_8">
     <g id="line2d_49">
      <path d="M 488.236948 256.711876 
L 865.19952 256.711876 
" clip-path="url(#pa9bcad4242)" style="fill: none; stroke: #b0b0b0; stroke-width: 0.8; stroke-linecap: square"/>
     </g>
     <g id="line2d_50">
      <g>
       <use xlink:href="#m113a65006b" x="488.236948" y="256.711876" style="stroke: #000000; stroke-width: 0.8"/>
      </g>
     </g>
     <g id="text_29">
      <!-- 0.90 -->
      <g transform="translate(458.971323 260.511095) scale(0.1 -0.1)">
       <defs>
        <path id="DejaVuSans-39" d="M 703 97 
L 703 672 
Q 941 559 1184 500 
Q 1428 441 1663 441 
Q 2288 441 2617 861 
Q 2947 1281 2994 2138 
Q 2813 1869 2534 1725 
Q 2256 1581 1919 1581 
Q 1219 1581 811 2004 
Q 403 2428 403 3163 
Q 403 3881 828 4315 
Q 1253 4750 1959 4750 
Q 2769 4750 3195 4129 
Q 3622 3509 3622 2328 
Q 3622 1225 3098 567 
Q 2575 -91 1691 -91 
Q 1453 -91 1209 -44 
Q 966 3 703 97 
z
M 1959 2075 
Q 2384 2075 2632 2365 
Q 2881 2656 2881 3163 
Q 2881 3666 2632 3958 
Q 2384 4250 1959 4250 
Q 1534 4250 1286 3958 
Q 1038 3666 1038 3163 
Q 1038 2656 1286 2365 
Q 1534 2075 1959 2075 
z
" transform="scale(0.015625)"/>
       </defs>
       <use xlink:href="#DejaVuSans-30"/>
       <use xlink:href="#DejaVuSans-2e" x="63.623047"/>
       <use xlink:href="#DejaVuSans-39" x="95.410156"/>
       <use xlink:href="#DejaVuSans-30" x="159.033203"/>
      </g>
     </g>
    </g>
    <g id="ytick_9">
     <g id="line2d_51">
      <path d="M 488.236948 230.602664 
L 865.19952 230.602664 
" clip-path="url(#pa9bcad4242)" style="fill: none; stroke: #b0b0b0; stroke-width: 0.8; stroke-linecap: square"/>
     </g>
     <g id="line2d_52">
      <g>
       <use xlink:href="#m113a65006b" x="488.236948" y="230.602664" style="stroke: #000000; stroke-width: 0.8"/>
      </g>
     </g>
     <g id="text_30">
      <!-- 0.95 -->
      <g transform="translate(458.971323 234.401883) scale(0.1 -0.1)">
       <use xlink:href="#DejaVuSans-30"/>
       <use xlink:href="#DejaVuSans-2e" x="63.623047"/>
       <use xlink:href="#DejaVuSans-39" x="95.410156"/>
       <use xlink:href="#DejaVuSans-35" x="159.033203"/>
      </g>
     </g>
    </g>
    <g id="ytick_10">
     <g id="line2d_53">
      <path d="M 488.236948 204.493452 
L 865.19952 204.493452 
" clip-path="url(#pa9bcad4242)" style="fill: none; stroke: #b0b0b0; stroke-width: 0.8; stroke-linecap: square"/>
     </g>
     <g id="line2d_54">
      <g>
       <use xlink:href="#m113a65006b" x="488.236948" y="204.493452" style="stroke: #000000; stroke-width: 0.8"/>
      </g>
     </g>
     <g id="text_31">
      <!-- 1.00 -->
      <g transform="translate(458.971323 208.292671) scale(0.1 -0.1)">
       <use xlink:href="#DejaVuSans-31"/>
       <use xlink:href="#DejaVuSans-2e" x="63.623047"/>
       <use xlink:href="#DejaVuSans-30" x="95.410156"/>
       <use xlink:href="#DejaVuSans-30" x="159.033203"/>
      </g>
     </g>
    </g>
    <g id="ytick_11">
     <g id="line2d_55">
      <path d="M 488.236948 178.38424 
L 865.19952 178.38424 
" clip-path="url(#pa9bcad4242)" style="fill: none; stroke: #b0b0b0; stroke-width: 0.8; stroke-linecap: square"/>
     </g>
     <g id="line2d_56">
      <g>
       <use xlink:href="#m113a65006b" x="488.236948" y="178.38424" style="stroke: #000000; stroke-width: 0.8"/>
      </g>
     </g>
     <g id="text_32">
      <!-- 1.05 -->
      <g transform="translate(458.971323 182.183458) scale(0.1 -0.1)">
       <use xlink:href="#DejaVuSans-31"/>
       <use xlink:href="#DejaVuSans-2e" x="63.623047"/>
       <use xlink:href="#DejaVuSans-30" x="95.410156"/>
       <use xlink:href="#DejaVuSans-35" x="159.033203"/>
      </g>
     </g>
    </g>
    <g id="ytick_12">
     <g id="line2d_57">
      <path d="M 488.236948 152.275028 
L 865.19952 152.275028 
" clip-path="url(#pa9bcad4242)" style="fill: none; stroke: #b0b0b0; stroke-width: 0.8; stroke-linecap: square"/>
     </g>
     <g id="line2d_58">
      <g>
       <use xlink:href="#m113a65006b" x="488.236948" y="152.275028" style="stroke: #000000; stroke-width: 0.8"/>
      </g>
     </g>
     <g id="text_33">
      <!-- 1.10 -->
      <g transform="translate(458.971323 156.074246) scale(0.1 -0.1)">
       <use xlink:href="#DejaVuSans-31"/>
       <use xlink:href="#DejaVuSans-2e" x="63.623047"/>
       <use xlink:href="#DejaVuSans-31" x="95.410156"/>
       <use xlink:href="#DejaVuSans-30" x="159.033203"/>
      </g>
     </g>
    </g>
    <g id="ytick_13">
     <g id="line2d_59">
      <path d="M 488.236948 126.165815 
L 865.19952 126.165815 
" clip-path="url(#pa9bcad4242)" style="fill: none; stroke: #b0b0b0; stroke-width: 0.8; stroke-linecap: square"/>
     </g>
     <g id="line2d_60">
      <g>
       <use xlink:href="#m113a65006b" x="488.236948" y="126.165815" style="stroke: #000000; stroke-width: 0.8"/>
      </g>
     </g>
     <g id="text_34">
      <!-- 1.15 -->
      <g transform="translate(458.971323 129.965034) scale(0.1 -0.1)">
       <use xlink:href="#DejaVuSans-31"/>
       <use xlink:href="#DejaVuSans-2e" x="63.623047"/>
       <use xlink:href="#DejaVuSans-31" x="95.410156"/>
       <use xlink:href="#DejaVuSans-35" x="159.033203"/>
      </g>
     </g>
    </g>
    <g id="ytick_14">
     <g id="line2d_61">
      <path d="M 488.236948 100.056603 
L 865.19952 100.056603 
" clip-path="url(#pa9bcad4242)" style="fill: none; stroke: #b0b0b0; stroke-width: 0.8; stroke-linecap: square"/>
     </g>
     <g id="line2d_62">
      <g>
       <use xlink:href="#m113a65006b" x="488.236948" y="100.056603" style="stroke: #000000; stroke-width: 0.8"/>
      </g>
     </g>
     <g id="text_35">
      <!-- 1.20 -->
      <g transform="translate(458.971323 103.855822) scale(0.1 -0.1)">
       <use xlink:href="#DejaVuSans-31"/>
       <use xlink:href="#DejaVuSans-2e" x="63.623047"/>
       <use xlink:href="#DejaVuSans-32" x="95.410156"/>
       <use xlink:href="#DejaVuSans-30" x="159.033203"/>
      </g>
     </g>
    </g>
    <g id="ytick_15">
     <g id="line2d_63">
      <path d="M 488.236948 73.947391 
L 865.19952 73.947391 
" clip-path="url(#pa9bcad4242)" style="fill: none; stroke: #b0b0b0; stroke-width: 0.8; stroke-linecap: square"/>
     </g>
     <g id="line2d_64">
      <g>
       <use xlink:href="#m113a65006b" x="488.236948" y="73.947391" style="stroke: #000000; stroke-width: 0.8"/>
      </g>
     </g>
     <g id="text_36">
      <!-- 1.25 -->
      <g transform="translate(458.971323 77.74661) scale(0.1 -0.1)">
       <use xlink:href="#DejaVuSans-31"/>
       <use xlink:href="#DejaVuSans-2e" x="63.623047"/>
       <use xlink:href="#DejaVuSans-32" x="95.410156"/>
       <use xlink:href="#DejaVuSans-35" x="159.033203"/>
      </g>
     </g>
    </g>
    <g id="ytick_16">
     <g id="line2d_65">
      <path d="M 488.236948 47.838179 
L 865.19952 47.838179 
" clip-path="url(#pa9bcad4242)" style="fill: none; stroke: #b0b0b0; stroke-width: 0.8; stroke-linecap: square"/>
     </g>
     <g id="line2d_66">
      <g>
       <use xlink:href="#m113a65006b" x="488.236948" y="47.838179" style="stroke: #000000; stroke-width: 0.8"/>
      </g>
     </g>
     <g id="text_37">
      <!-- 1.30 -->
      <g transform="translate(458.971323 51.637398) scale(0.1 -0.1)">
       <use xlink:href="#DejaVuSans-31"/>
       <use xlink:href="#DejaVuSans-2e" x="63.623047"/>
       <use xlink:href="#DejaVuSans-33" x="95.410156"/>
       <use xlink:href="#DejaVuSans-30" x="159.033203"/>
      </g>
     </g>
    </g>
    <g id="text_38">
     <!-- [dimensionless] -->
     <g transform="translate(452.891635 179.215854) rotate(-90) scale(0.1 -0.1)">
      <defs>
       <path id="DejaVuSans-64" d="M 2906 2969 
L 2906 4863 
L 3481 4863 
L 3481 0 
L 2906 0 
L 2906 525 
Q 2725 213 2448 61 
Q 2172 -91 1784 -91 
Q 1150 -91 751 415 
Q 353 922 353 1747 
Q 353 2572 751 3078 
Q 1150 3584 1784 3584 
Q 2172 3584 2448 3432 
Q 2725 3281 2906 2969 
z
M 947 1747 
Q 947 1113 1208 752 
Q 1469 391 1925 391 
Q 2381 391 2643 752 
Q 2906 1113 2906 1747 
Q 2906 2381 2643 2742 
Q 2381 3103 1925 3103 
Q 1469 3103 1208 2742 
Q 947 2381 947 1747 
z
" transform="scale(0.015625)"/>
       <path id="DejaVuSans-6d" d="M 3328 2828 
Q 3544 3216 3844 3400 
Q 4144 3584 4550 3584 
Q 5097 3584 5394 3201 
Q 5691 2819 5691 2113 
L 5691 0 
L 5113 0 
L 5113 2094 
Q 5113 2597 4934 2840 
Q 4756 3084 4391 3084 
Q 3944 3084 3684 2787 
Q 3425 2491 3425 1978 
L 3425 0 
L 2847 0 
L 2847 2094 
Q 2847 2600 2669 2842 
Q 2491 3084 2119 3084 
Q 1678 3084 1418 2786 
Q 1159 2488 1159 1978 
L 1159 0 
L 581 0 
L 581 3500 
L 1159 3500 
L 1159 2956 
Q 1356 3278 1631 3431 
Q 1906 3584 2284 3584 
Q 2666 3584 2933 3390 
Q 3200 3197 3328 2828 
z
" transform="scale(0.015625)"/>
      </defs>
      <use xlink:href="#DejaVuSans-5b"/>
      <use xlink:href="#DejaVuSans-64" x="39.013672"/>
      <use xlink:href="#DejaVuSans-69" x="102.490234"/>
      <use xlink:href="#DejaVuSans-6d" x="130.273438"/>
      <use xlink:href="#DejaVuSans-65" x="227.685547"/>
      <use xlink:href="#DejaVuSans-6e" x="289.208984"/>
      <use xlink:href="#DejaVuSans-73" x="352.587891"/>
      <use xlink:href="#DejaVuSans-69" x="404.6875"/>
      <use xlink:href="#DejaVuSans-6f" x="432.470703"/>
      <use xlink:href="#DejaVuSans-6e" x="493.652344"/>
      <use xlink:href="#DejaVuSans-6c" x="557.03125"/>
      <use xlink:href="#DejaVuSans-65" x="584.814453"/>
      <use xlink:href="#DejaVuSans-73" x="646.337891"/>
      <use xlink:href="#DejaVuSans-73" x="698.4375"/>
      <use xlink:href="#DejaVuSans-5d" x="750.537109"/>
     </g>
    </g>
   </g>
   <g id="patch_9">
    <path d="M 488.236948 257.158895 
L 488.236948 22.318125 
" style="fill: none; stroke: #000000; stroke-width: 0.8; stroke-linejoin: miter; stroke-linecap: square"/>
   </g>
   <g id="patch_10">
    <path d="M 865.19952 257.158895 
L 865.19952 22.318125 
" style="fill: none; stroke: #000000; stroke-width: 0.8; stroke-linejoin: miter; stroke-linecap: square"/>
   </g>
   <g id="patch_11">
    <path d="M 488.236948 257.158895 
L 865.19952 257.158895 
" style="fill: none; stroke: #000000; stroke-width: 0.8; stroke-linejoin: miter; stroke-linecap: square"/>
   </g>
   <g id="patch_12">
    <path d="M 488.236948 22.318125 
L 865.19952 22.318125 
" style="fill: none; stroke: #000000; stroke-width: 0.8; stroke-linejoin: miter; stroke-linecap: square"/>
   </g>
   <g id="text_39">
    <!-- Flat ↓ -->
    <g transform="translate(542.756328 58.281864) scale(0.13 -0.13)">
     <defs>
      <path id="DejaVuSans-46" d="M 628 4666 
L 3309 4666 
L 3309 4134 
L 1259 4134 
L 1259 2759 
L 3109 2759 
L 3109 2228 
L 1259 2228 
L 1259 0 
L 628 0 
L 628 4666 
z
" transform="scale(0.015625)"/>
      <path id="DejaVuSans-2193" d="M 2822 -22 
L 2541 -22 
L 1309 1209 
L 1684 1584 
L 2416 853 
L 2416 4666 
L 2947 4666 
L 2947 853 
L 3672 1584 
L 4047 1209 
L 2822 -22 
z
" transform="scale(0.015625)"/>
     </defs>
     <use xlink:href="#DejaVuSans-46"/>
     <use xlink:href="#DejaVuSans-6c" x="57.519531"/>
     <use xlink:href="#DejaVuSans-61" x="85.302734"/>
     <use xlink:href="#DejaVuSans-74" x="146.582031"/>
     <use xlink:href="#DejaVuSans-20" x="185.791016"/>
     <use xlink:href="#DejaVuSans-2193" x="217.578125"/>
    </g>
   </g>
   <g id="text_40">
    <!-- Pairwise comparison -->
    <g transform="translate(615.228546 16.318125) scale(0.12 -0.12)">
     <defs>
      <path id="DejaVuSans-50" d="M 1259 4147 
L 1259 2394 
L 2053 2394 
Q 2494 2394 2734 2622 
Q 2975 2850 2975 3272 
Q 2975 3691 2734 3919 
Q 2494 4147 2053 4147 
L 1259 4147 
z
M 628 4666 
L 2053 4666 
Q 2838 4666 3239 4311 
Q 3641 3956 3641 3272 
Q 3641 2581 3239 2228 
Q 2838 1875 2053 1875 
L 1259 1875 
L 1259 0 
L 628 0 
L 628 4666 
z
" transform="scale(0.015625)"/>
     </defs>
     <use xlink:href="#DejaVuSans-50"/>
     <use xlink:href="#DejaVuSans-61" x="55.802734"/>
     <use xlink:href="#DejaVuSans-69" x="117.082031"/>
     <use xlink:href="#DejaVuSans-72" x="144.865234"/>
     <use xlink:href="#DejaVuSans-77" x="185.978516"/>
     <use xlink:href="#DejaVuSans-69" x="267.765625"/>
     <use xlink:href="#DejaVuSans-73" x="295.548828"/>
     <use xlink:href="#DejaVuSans-65" x="347.648438"/>
     <use xlink:href="#DejaVuSans-20" x="409.171875"/>
     <use xlink:href="#DejaVuSans-63" x="440.958984"/>
     <use xlink:href="#DejaVuSans-6f" x="495.939453"/>
     <use xlink:href="#DejaVuSans-6d" x="557.121094"/>
     <use xlink:href="#DejaVuSans-70" x="654.533203"/>
     <use xlink:href="#DejaVuSans-61" x="718.009766"/>
     <use xlink:href="#DejaVuSans-72" x="779.289062"/>
     <use xlink:href="#DejaVuSans-69" x="820.402344"/>
     <use xlink:href="#DejaVuSans-73" x="848.185547"/>
     <use xlink:href="#DejaVuSans-6f" x="900.285156"/>
     <use xlink:href="#DejaVuSans-6e" x="961.466797"/>
    </g>
   </g>
   <g id="legend_2">
    <g id="patch_13">
     <path d="M 696.715145 252.158895 
L 858.19952 252.158895 
Q 860.19952 252.158895 860.19952 250.158895 
L 860.19952 192.446395 
Q 860.19952 190.446395 858.19952 190.446395 
L 696.715145 190.446395 
Q 694.715145 190.446395 694.715145 192.446395 
L 694.715145 250.158895 
Q 694.715145 252.158895 696.715145 252.158895 
z
" style="fill: #ffffff; opacity: 0.8; stroke: #cccccc; stroke-linejoin: miter"/>
    </g>
    <g id="line2d_67">
     <path d="M 698.715145 198.544832 
L 698.715145 198.544832 
L 708.715145 198.544832 
L 708.715145 198.544832 
L 718.715145 198.544832 
" style="fill: none; stroke: #1f77b4; stroke-width: 2; stroke-linecap: square"/>
    </g>
    <g id="text_41">
     <!-- 0 th [V]  0.4 / 1 th [V]  0.5 -->
     <g transform="translate(726.715145 202.044832) scale(0.1 -0.1)">
      <defs>
       <path id="DejaVuSans-2f" d="M 1625 4666 
L 2156 4666 
L 531 -594 
L 0 -594 
L 1625 4666 
z
" transform="scale(0.015625)"/>
      </defs>
      <use xlink:href="#DejaVuSans-30"/>
      <use xlink:href="#DejaVuSans-20" x="63.623047"/>
      <use xlink:href="#DejaVuSans-74" x="95.410156"/>
      <use xlink:href="#DejaVuSans-68" x="134.619141"/>
      <use xlink:href="#DejaVuSans-20" x="197.998047"/>
      <use xlink:href="#DejaVuSans-5b" x="229.785156"/>
      <use xlink:href="#DejaVuSans-56" x="268.798828"/>
      <use xlink:href="#DejaVuSans-5d" x="337.207031"/>
      <use xlink:href="#DejaVuSans-20" x="376.220703"/>
      <use xlink:href="#DejaVuSans-20" x="408.007812"/>
      <use xlink:href="#DejaVuSans-30" x="439.794922"/>
      <use xlink:href="#DejaVuSans-2e" x="503.417969"/>
      <use xlink:href="#DejaVuSans-34" x="535.205078"/>
      <use xlink:href="#DejaVuSans-20" x="598.828125"/>
      <use xlink:href="#DejaVuSans-2f" x="630.615234"/>
      <use xlink:href="#DejaVuSans-20" x="664.306641"/>
      <use xlink:href="#DejaVuSans-31" x="696.09375"/>
      <use xlink:href="#DejaVuSans-20" x="759.716797"/>
      <use xlink:href="#DejaVuSans-74" x="791.503906"/>
      <use xlink:href="#DejaVuSans-68" x="830.712891"/>
      <use xlink:href="#DejaVuSans-20" x="894.091797"/>
      <use xlink:href="#DejaVuSans-5b" x="925.878906"/>
      <use xlink:href="#DejaVuSans-56" x="964.892578"/>
      <use xlink:href="#DejaVuSans-5d" x="1033.300781"/>
      <use xlink:href="#DejaVuSans-20" x="1072.314453"/>
      <use xlink:href="#DejaVuSans-20" x="1104.101562"/>
      <use xlink:href="#DejaVuSans-30" x="1135.888672"/>
      <use xlink:href="#DejaVuSans-2e" x="1199.511719"/>
      <use xlink:href="#DejaVuSans-35" x="1231.298828"/>
     </g>
    </g>
    <g id="line2d_68">
     <path d="M 698.715145 213.222957 
L 698.715145 213.222957 
L 708.715145 213.222957 
L 708.715145 213.222957 
L 718.715145 213.222957 
" style="fill: none; stroke: #ff7f0e; stroke-width: 2; stroke-linecap: square"/>
    </g>
    <g id="text_42">
     <!-- 1 th [V]  0.5 / 2 th [V]  0.6 -->
     <g transform="translate(726.715145 216.722957) scale(0.1 -0.1)">
      <use xlink:href="#DejaVuSans-31"/>
      <use xlink:href="#DejaVuSans-20" x="63.623047"/>
      <use xlink:href="#DejaVuSans-74" x="95.410156"/>
      <use xlink:href="#DejaVuSans-68" x="134.619141"/>
      <use xlink:href="#DejaVuSans-20" x="197.998047"/>
      <use xlink:href="#DejaVuSans-5b" x="229.785156"/>
      <use xlink:href="#DejaVuSans-56" x="268.798828"/>
      <use xlink:href="#DejaVuSans-5d" x="337.207031"/>
      <use xlink:href="#DejaVuSans-20" x="376.220703"/>
      <use xlink:href="#DejaVuSans-20" x="408.007812"/>
      <use xlink:href="#DejaVuSans-30" x="439.794922"/>
      <use xlink:href="#DejaVuSans-2e" x="503.417969"/>
      <use xlink:href="#DejaVuSans-35" x="535.205078"/>
      <use xlink:href="#DejaVuSans-20" x="598.828125"/>
      <use xlink:href="#DejaVuSans-2f" x="630.615234"/>
      <use xlink:href="#DejaVuSans-20" x="664.306641"/>
      <use xlink:href="#DejaVuSans-32" x="696.09375"/>
      <use xlink:href="#DejaVuSans-20" x="759.716797"/>
      <use xlink:href="#DejaVuSans-74" x="791.503906"/>
      <use xlink:href="#DejaVuSans-68" x="830.712891"/>
      <use xlink:href="#DejaVuSans-20" x="894.091797"/>
      <use xlink:href="#DejaVuSans-5b" x="925.878906"/>
      <use xlink:href="#DejaVuSans-56" x="964.892578"/>
      <use xlink:href="#DejaVuSans-5d" x="1033.300781"/>
      <use xlink:href="#DejaVuSans-20" x="1072.314453"/>
      <use xlink:href="#DejaVuSans-20" x="1104.101562"/>
      <use xlink:href="#DejaVuSans-30" x="1135.888672"/>
      <use xlink:href="#DejaVuSans-2e" x="1199.511719"/>
      <use xlink:href="#DejaVuSans-36" x="1231.298828"/>
     </g>
    </g>
    <g id="line2d_69">
     <path d="M 698.715145 227.901082 
L 698.715145 227.901082 
L 708.715145 227.901082 
L 708.715145 227.901082 
L 718.715145 227.901082 
" style="fill: none; stroke: #2ca02c; stroke-width: 2; stroke-linecap: square"/>
    </g>
    <g id="text_43">
     <!-- 2 th [V]  0.6 / 3 th [V]  0.7 -->
     <g transform="translate(726.715145 231.401082) scale(0.1 -0.1)">
      <use xlink:href="#DejaVuSans-32"/>
      <use xlink:href="#DejaVuSans-20" x="63.623047"/>
      <use xlink:href="#DejaVuSans-74" x="95.410156"/>
      <use xlink:href="#DejaVuSans-68" x="134.619141"/>
      <use xlink:href="#DejaVuSans-20" x="197.998047"/>
      <use xlink:href="#DejaVuSans-5b" x="229.785156"/>
      <use xlink:href="#DejaVuSans-56" x="268.798828"/>
      <use xlink:href="#DejaVuSans-5d" x="337.207031"/>
      <use xlink:href="#DejaVuSans-20" x="376.220703"/>
      <use xlink:href="#DejaVuSans-20" x="408.007812"/>
      <use xlink:href="#DejaVuSans-30" x="439.794922"/>
      <use xlink:href="#DejaVuSans-2e" x="503.417969"/>
      <use xlink:href="#DejaVuSans-36" x="535.205078"/>
      <use xlink:href="#DejaVuSans-20" x="598.828125"/>
      <use xlink:href="#DejaVuSans-2f" x="630.615234"/>
      <use xlink:href="#DejaVuSans-20" x="664.306641"/>
      <use xlink:href="#DejaVuSans-33" x="696.09375"/>
      <use xlink:href="#DejaVuSans-20" x="759.716797"/>
      <use xlink:href="#DejaVuSans-74" x="791.503906"/>
      <use xlink:href="#DejaVuSans-68" x="830.712891"/>
      <use xlink:href="#DejaVuSans-20" x="894.091797"/>
      <use xlink:href="#DejaVuSans-5b" x="925.878906"/>
      <use xlink:href="#DejaVuSans-56" x="964.892578"/>
      <use xlink:href="#DejaVuSans-5d" x="1033.300781"/>
      <use xlink:href="#DejaVuSans-20" x="1072.314453"/>
      <use xlink:href="#DejaVuSans-20" x="1104.101562"/>
      <use xlink:href="#DejaVuSans-30" x="1135.888672"/>
      <use xlink:href="#DejaVuSans-2e" x="1199.511719"/>
      <use xlink:href="#DejaVuSans-37" x="1231.298828"/>
     </g>
    </g>
    <g id="line2d_70">
     <path d="M 698.715145 242.579207 
L 698.715145 242.579207 
L 708.715145 242.579207 
L 708.715145 242.579207 
L 718.715145 242.579207 
" style="fill: none; stroke: #d62728; stroke-width: 2; stroke-linecap: square"/>
    </g>
    <g id="text_44">
     <!-- 3 th [V]  0.7 / 4 th [V]  0.8 -->
     <g transform="translate(726.715145 246.079207) scale(0.1 -0.1)">
      <use xlink:href="#DejaVuSans-33"/>
      <use xlink:href="#DejaVuSans-20" x="63.623047"/>
      <use xlink:href="#DejaVuSans-74" x="95.410156"/>
      <use xlink:href="#DejaVuSans-68" x="134.619141"/>
      <use xlink:href="#DejaVuSans-20" x="197.998047"/>
      <use xlink:href="#DejaVuSans-5b" x="229.785156"/>
      <use xlink:href="#DejaVuSans-56" x="268.798828"/>
      <use xlink:href="#DejaVuSans-5d" x="337.207031"/>
      <use xlink:href="#DejaVuSans-20" x="376.220703"/>
      <use xlink:href="#DejaVuSans-20" x="408.007812"/>
      <use xlink:href="#DejaVuSans-30" x="439.794922"/>
      <use xlink:href="#DejaVuSans-2e" x="503.417969"/>
      <use xlink:href="#DejaVuSans-37" x="535.205078"/>
      <use xlink:href="#DejaVuSans-20" x="598.828125"/>
      <use xlink:href="#DejaVuSans-2f" x="630.615234"/>
      <use xlink:href="#DejaVuSans-20" x="664.306641"/>
      <use xlink:href="#DejaVuSans-34" x="696.09375"/>
      <use xlink:href="#DejaVuSans-20" x="759.716797"/>
      <use xlink:href="#DejaVuSans-74" x="791.503906"/>
      <use xlink:href="#DejaVuSans-68" x="830.712891"/>
      <use xlink:href="#DejaVuSans-20" x="894.091797"/>
      <use xlink:href="#DejaVuSans-5b" x="925.878906"/>
      <use xlink:href="#DejaVuSans-56" x="964.892578"/>
      <use xlink:href="#DejaVuSans-5d" x="1033.300781"/>
      <use xlink:href="#DejaVuSans-20" x="1072.314453"/>
      <use xlink:href="#DejaVuSans-20" x="1104.101562"/>
      <use xlink:href="#DejaVuSans-30" x="1135.888672"/>
      <use xlink:href="#DejaVuSans-2e" x="1199.511719"/>
      <use xlink:href="#DejaVuSans-38" x="1231.298828"/>
     </g>
    </g>
   </g>
   <g id="line2d_71">
    <path d="M 505.37161 175.17585 
L 505.37161 175.17585 
L 519.650495 175.17585 
L 519.650495 175.663468 
L 533.929381 175.663468 
L 533.929381 170.991324 
L 548.208266 170.991324 
L 548.208266 165.636765 
L 562.487151 165.636765 
L 562.487151 154.42972 
L 576.766036 154.42972 
L 576.766036 167.203042 
L 591.044922 167.203042 
L 591.044922 156.459196 
L 605.323807 156.459196 
L 605.323807 162.487815 
L 619.602692 162.487815 
L 619.602692 169.388629 
L 633.881578 169.388629 
L 633.881578 157.903575 
L 648.160463 157.903575 
L 648.160463 160.140674 
L 662.439348 160.140674 
L 662.439348 150.510299 
L 676.718234 150.510299 
L 676.718234 162.701523 
L 690.997119 162.701523 
L 690.997119 164.740606 
L 705.276004 164.740606 
L 705.276004 159.9219 
L 719.55489 159.9219 
L 719.55489 158.138377 
L 733.833775 158.138377 
L 733.833775 146.44731 
L 748.11266 146.44731 
L 748.11266 148.279895 
L 762.391546 148.279895 
L 762.391546 153.179243 
L 776.670431 153.179243 
L 776.670431 142.348448 
L 790.949316 142.348448 
L 790.949316 164.619672 
L 805.228202 164.619672 
L 805.228202 153.295791 
L 819.507087 153.295791 
L 819.507087 144.339308 
L 833.785972 144.339308 
L 833.785972 159.989113 
L 848.064858 159.989113 
" clip-path="url(#pa9bcad4242)" style="fill: none; stroke: #1f77b4; stroke-width: 2; stroke-linecap: square"/>
   </g>
   <g id="line2d_72">
    <path d="M 505.37161 159.203395 
L 505.37161 159.203395 
L 519.650495 159.203395 
L 519.650495 155.852187 
L 533.929381 155.852187 
L 533.929381 156.286135 
L 548.208266 156.286135 
L 548.208266 168.566286 
L 562.487151 168.566286 
L 562.487151 176.990211 
L 576.766036 176.990211 
L 576.766036 156.343603 
L 591.044922 156.343603 
L 591.044922 159.944992 
L 605.323807 159.944992 
L 605.323807 151.957367 
L 619.602692 151.957367 
L 619.602692 137.673667 
L 633.881578 137.673667 
L 633.881578 135.254191 
L 648.160463 135.254191 
L 648.160463 119.593401 
L 662.439348 119.593401 
L 662.439348 121.695756 
L 676.718234 121.695756 
L 676.718234 82.740992 
L 690.997119 82.740992 
L 690.997119 73.168012 
L 705.276004 73.168012 
L 705.276004 81.902745 
L 719.55489 81.902745 
L 719.55489 79.461533 
L 733.833775 79.461533 
L 733.833775 78.980104 
L 748.11266 78.980104 
L 748.11266 64.220907 
L 762.391546 64.220907 
L 762.391546 94.363034 
L 776.670431 94.363034 
L 776.670431 77.677278 
L 790.949316 77.677278 
L 790.949316 75.393084 
L 805.228202 75.393084 
L 805.228202 88.993543 
L 819.507087 88.993543 
L 819.507087 92.014347 
L 833.785972 92.014347 
L 833.785972 52.012245 
L 848.064858 52.012245 
" clip-path="url(#pa9bcad4242)" style="fill: none; stroke: #ff7f0e; stroke-width: 2; stroke-linecap: square"/>
   </g>
   <g id="line2d_73">
    <path d="M 505.37161 236.807094 
L 505.37161 236.807094 
L 519.650495 236.807094 
L 519.650495 237.438531 
L 533.929381 237.438531 
L 533.929381 246.484315 
L 548.208266 246.484315 
L 548.208266 223.572627 
L 562.487151 223.572627 
L 562.487151 226.731139 
L 576.766036 226.731139 
L 576.766036 225.130525 
L 591.044922 225.130525 
L 591.044922 213.420441 
L 605.323807 213.420441 
L 605.323807 216.151696 
L 619.602692 216.151696 
L 619.602692 206.369691 
L 633.881578 206.369691 
L 633.881578 189.877759 
L 648.160463 189.877759 
L 648.160463 143.489981 
L 662.439348 143.489981 
L 662.439348 136.53846 
L 676.718234 136.53846 
L 676.718234 134.648587 
L 690.997119 134.648587 
L 690.997119 94.489573 
L 705.276004 94.489573 
L 705.276004 67.319225 
L 719.55489 67.319225 
L 719.55489 73.92644 
L 733.833775 73.92644 
L 733.833775 59.391414 
L 748.11266 59.391414 
L 748.11266 83.304276 
L 762.391546 83.304276 
L 762.391546 57.369649 
L 776.670431 57.369649 
L 776.670431 70.884621 
L 790.949316 70.884621 
L 790.949316 32.992705 
L 805.228202 32.992705 
L 805.228202 65.063349 
L 819.507087 65.063349 
L 819.507087 54.211579 
L 833.785972 54.211579 
L 833.785972 76.730606 
L 848.064858 76.730606 
" clip-path="url(#pa9bcad4242)" style="fill: none; stroke: #2ca02c; stroke-width: 2; stroke-linecap: square"/>
   </g>
   <g id="line2d_74">
    <path d="M 505.37161 75.114889 
L 505.37161 75.114889 
L 519.650495 75.114889 
L 519.650495 90.854508 
L 533.929381 90.854508 
L 533.929381 65.176054 
L 548.208266 65.176054 
L 548.208266 64.833453 
L 562.487151 64.833453 
L 562.487151 69.196586 
L 576.766036 69.196586 
L 576.766036 76.34723 
L 591.044922 76.34723 
L 591.044922 89.855693 
L 605.323807 89.855693 
L 605.323807 65.078855 
L 619.602692 65.078855 
L 619.602692 80.67862 
L 633.881578 80.67862 
L 633.881578 61.439644 
L 648.160463 61.439644 
L 648.160463 84.635495 
L 662.439348 84.635495 
L 662.439348 65.013976 
L 676.718234 65.013976 
L 676.718234 66.541869 
L 690.997119 66.541869 
L 690.997119 70.762136 
L 705.276004 70.762136 
L 705.276004 84.378923 
L 719.55489 84.378923 
L 719.55489 66.825734 
L 733.833775 66.825734 
L 733.833775 76.057572 
L 748.11266 76.057572 
L 748.11266 64.8469 
L 762.391546 64.8469 
L 762.391546 63.173812 
L 776.670431 63.173812 
L 776.670431 69.77717 
L 790.949316 69.77717 
L 790.949316 95.927381 
L 805.228202 95.927381 
L 805.228202 78.617954 
L 819.507087 78.617954 
L 819.507087 79.779346 
L 833.785972 79.779346 
L 833.785972 57.820114 
L 848.064858 57.820114 
" clip-path="url(#pa9bcad4242)" style="fill: none; stroke: #d62728; stroke-width: 2; stroke-linecap: square"/>
   </g>
  </g>
 </g>
 <defs>
  <clipPath id="pfc05088769">
   <rect x="59.690625" y="22.318125" width="376.962573" height="234.84077"/>
  </clipPath>
  <clipPath id="pa9bcad4242">
   <rect x="488.236948" y="22.318125" width="376.962572" height="234.84077"/>
  </clipPath>
 </defs>
</svg>
