<?xml version="1.0" encoding="utf-8" standalone="no"?>
<!DOCTYPE svg PUBLIC "-//W3C//DTD SVG 1.1//EN"
  "http://www.w3.org/Graphics/SVG/1.1/DTD/svg11.dtd">
<svg xmlns:xlink="http://www.w3.org/1999/xlink" width="385.78125pt" height="268.200625pt" viewBox="0 0 385.78125 268.200625" xmlns="http://www.w3.org/2000/svg" version="1.1">
 <metadata>
  <rdf:RDF xmlns:dc="http://purl.org/dc/elements/1.1/" xmlns:cc="http://creativecommons.org/ns#" xmlns:rdf="http://www.w3.org/1999/02/22-rdf-syntax-ns#">
   <cc:Work>
    <dc:type rdf:resource="http://purl.org/dc/dcmitype/StillImage"/>
    <dc:date>2025-11-21T09:43:47.122134</dc:date>
    <dc:format>image/svg+xml</dc:format>
    <dc:creator>
     <cc:Agent>
      <dc:title>Matplotlib v3.10.7, https://matplotlib.org/</dc:title>
     </cc:Agent>
    </dc:creator>
   </cc:Work>
  </rdf:RDF>
 </metadata>
 <defs>
  <style type="text/css">*{stroke-linejoin: round; stroke-linecap: butt}</style>
 </defs>
 <g id="figure_1">
  <g id="patch_1">
   <path d="M 0 268.200625 
L 385.78125 268.200625 
L 385.78125 0 
L 0 0 
z
" style="fill: #ffffff"/>
  </g>
  <g id="axes_1">
   <g id="patch_2">
    <path d="M 43.78125 228.96 
L 378.58125 228.96 
L 378.58125 7.2 
L 43.78125 7.2 
z
" style="fill: #ffffff"/>
   </g>
   <g id="matplotlib.axis_1">
    <g id="xtick_1">
     <g id="line2d_1">
      <defs>
       <path id="mcaefc0bbe1" d="M 0 0 
L 0 3.5 
" style="stroke: #000000; stroke-width: 0.8"/>
      </defs>
      <g>
       <use xlink:href="#mcaefc0bbe1" x="92.002718" y="228.96" style="stroke: #000000; stroke-width: 0.8"/>
      </g>
     </g>
     <g id="text_1">
      <!-- 2 -->
      <g transform="translate(88.821468 243.558437) scale(0.1 -0.1)">
       <defs>
        <path id="DejaVuSans-32" d="M 1228 531 
L 3431 531 
L 3431 0 
L 469 0 
L 469 531 
Q 828 903 1448 1529 
Q 2069 2156 2228 2338 
Q 2531 2678 2651 2914 
Q 2772 3150 2772 3378 
Q 2772 3750 2511 3984 
Q 2250 4219 1831 4219 
Q 1534 4219 1204 4116 
Q 875 4013 500 3803 
L 500 4441 
Q 881 4594 1212 4672 
Q 1544 4750 1819 4750 
Q 2544 4750 2975 4387 
Q 3406 4025 3406 3419 
Q 3406 3131 3298 2873 
Q 3191 2616 2906 2266 
Q 2828 2175 2409 1742 
Q 1991 1309 1228 531 
z
" transform="scale(0.015625)"/>
       </defs>
       <use xlink:href="#DejaVuSans-32"/>
      </g>
     </g>
    </g>
    <g id="xtick_2">
     <g id="line2d_2">
      <g>
       <use xlink:href="#mcaefc0bbe1" x="165.343353" y="228.96" style="stroke: #000000; stroke-width: 0.8"/>
      </g>
     </g>
     <g id="text_2">
      <!-- 4 -->
      <g transform="translate(162.162103 243.558437) scale(0.1 -0.1)">
       <defs>
        <path id="DejaVuSans-34" d="M 2419 4116 
L 825 1625 
L 2419 1625 
L 2419 4116 
z
M 2253 4666 
L 3047 4666 
L 3047 1625 
L 3713 1625 
L 3713 1100 
L 3047 1100 
L 3047 0 
L 2419 0 
L 2419 1100 
L 313 1100 
L 313 1709 
L 2253 4666 
z
" transform="scale(0.015625)"/>
       </defs>
       <use xlink:href="#DejaVuSans-34"/>
      </g>
     </g>
    </g>
    <g id="xtick_3">
     <g id="line2d_3">
      <g>
       <use xlink:href="#mcaefc0bbe1" x="238.683988" y="228.96" style="stroke: #000000; stroke-width: 0.8"/>
      </g>
     </g>
     <g id="text_3">
      <!-- 6 -->
      <g transform="translate(235.502738 243.558437) scale(0.1 -0.1)">
       <defs>
        <path id="DejaVuSans-36" d="M 2113 2584 
Q 1688 2584 1439 2293 
Q 1191 2003 1191 1497 
Q 1191 994 1439 701 
Q 1688 409 2113 409 
Q 2538 409 2786 701 
Q 3034 994 3034 1497 
Q 3034 2003 2786 2293 
Q 2538 2584 2113 2584 
z
M 3366 4563 
L 3366 3988 
Q 3128 4100 2886 4159 
Q 2644 4219 2406 4219 
Q 1781 4219 1451 3797 
Q 1122 3375 1075 2522 
Q 1259 2794 1537 2939 
Q 1816 3084 2150 3084 
Q 2853 3084 3261 2657 
Q 3669 2231 3669 1497 
Q 3669 778 3244 343 
Q 2819 -91 2113 -91 
Q 1303 -91 875 529 
Q 447 1150 447 2328 
Q 447 3434 972 4092 
Q 1497 4750 2381 4750 
Q 2619 4750 2861 4703 
Q 3103 4656 3366 4563 
z
" transform="scale(0.015625)"/>
       </defs>
       <use xlink:href="#DejaVuSans-36"/>
      </g>
     </g>
    </g>
    <g id="xtick_4">
     <g id="line2d_4">
      <g>
       <use xlink:href="#mcaefc0bbe1" x="312.024623" y="228.96" style="stroke: #000000; stroke-width: 0.8"/>
      </g>
     </g>
     <g id="text_4">
      <!-- 8 -->
      <g transform="translate(308.843373 243.558437) scale(0.1 -0.1)">
       <defs>
        <path id="DejaVuSans-38" d="M 2034 2216 
Q 1584 2216 1326 1975 
Q 1069 1734 1069 1313 
Q 1069 891 1326 650 
Q 1584 409 2034 409 
Q 2484 409 2743 651 
Q 3003 894 3003 1313 
Q 3003 1734 2745 1975 
Q 2488 2216 2034 2216 
z
M 1403 2484 
Q 997 2584 770 2862 
Q 544 3141 544 3541 
Q 544 4100 942 4425 
Q 1341 4750 2034 4750 
Q 2731 4750 3128 4425 
Q 3525 4100 3525 3541 
Q 3525 3141 3298 2862 
Q 3072 2584 2669 2484 
Q 3125 2378 3379 2068 
Q 3634 1759 3634 1313 
Q 3634 634 3220 271 
Q 2806 -91 2034 -91 
Q 1263 -91 848 271 
Q 434 634 434 1313 
Q 434 1759 690 2068 
Q 947 2378 1403 2484 
z
M 1172 3481 
Q 1172 3119 1398 2916 
Q 1625 2713 2034 2713 
Q 2441 2713 2670 2916 
Q 2900 3119 2900 3481 
Q 2900 3844 2670 4047 
Q 2441 4250 2034 4250 
Q 1625 4250 1398 4047 
Q 1172 3844 1172 3481 
z
" transform="scale(0.015625)"/>
       </defs>
       <use xlink:href="#DejaVuSans-38"/>
      </g>
     </g>
    </g>
    <g id="text_5">
     <!-- wavelength [Å] -->
     <g transform="translate(173.14375 258.920937) scale(0.1 -0.1)">
      <defs>
       <path id="DejaVuSans-77" d="M 269 3500 
L 844 3500 
L 1563 769 
L 2278 3500 
L 2956 3500 
L 3675 769 
L 4391 3500 
L 4966 3500 
L 4050 0 
L 3372 0 
L 2619 2869 
L 1863 0 
L 1184 0 
L 269 3500 
z
" transform="scale(0.015625)"/>
       <path id="DejaVuSans-61" d="M 2194 1759 
Q 1497 1759 1228 1600 
Q 959 1441 959 1056 
Q 959 750 1161 570 
Q 1363 391 1709 391 
Q 2188 391 2477 730 
Q 2766 1069 2766 1631 
L 2766 1759 
L 2194 1759 
z
M 3341 1997 
L 3341 0 
L 2766 0 
L 2766 531 
Q 2569 213 2275 61 
Q 1981 -91 1556 -91 
Q 1019 -91 701 211 
Q 384 513 384 1019 
Q 384 1609 779 1909 
Q 1175 2209 1959 2209 
L 2766 2209 
L 2766 2266 
Q 2766 2663 2505 2880 
Q 2244 3097 1772 3097 
Q 1472 3097 1187 3025 
Q 903 2953 641 2809 
L 641 3341 
Q 956 3463 1253 3523 
Q 1550 3584 1831 3584 
Q 2591 3584 2966 3190 
Q 3341 2797 3341 1997 
z
" transform="scale(0.015625)"/>
       <path id="DejaVuSans-76" d="M 191 3500 
L 800 3500 
L 1894 563 
L 2988 3500 
L 3597 3500 
L 2284 0 
L 1503 0 
L 191 3500 
z
" transform="scale(0.015625)"/>
       <path id="DejaVuSans-65" d="M 3597 1894 
L 3597 1613 
L 953 1613 
Q 991 1019 1311 708 
Q 1631 397 2203 397 
Q 2534 397 2845 478 
Q 3156 559 3463 722 
L 3463 178 
Q 3153 47 2828 -22 
Q 2503 -91 2169 -91 
Q 1331 -91 842 396 
Q 353 884 353 1716 
Q 353 2575 817 3079 
Q 1281 3584 2069 3584 
Q 2775 3584 3186 3129 
Q 3597 2675 3597 1894 
z
M 3022 2063 
Q 3016 2534 2758 2815 
Q 2500 3097 2075 3097 
Q 1594 3097 1305 2825 
Q 1016 2553 972 2059 
L 3022 2063 
z
" transform="scale(0.015625)"/>
       <path id="DejaVuSans-6c" d="M 603 4863 
L 1178 4863 
L 1178 0 
L 603 0 
L 603 4863 
z
" transform="scale(0.015625)"/>
       <path id="DejaVuSans-6e" d="M 3513 2113 
L 3513 0 
L 2938 0 
L 2938 2094 
Q 2938 2591 2744 2837 
Q 2550 3084 2163 3084 
Q 1697 3084 1428 2787 
Q 1159 2491 1159 1978 
L 1159 0 
L 581 0 
L 581 3500 
L 1159 3500 
L 1159 2956 
Q 1366 3272 1645 3428 
Q 1925 3584 2291 3584 
Q 2894 3584 3203 3211 
Q 3513 2838 3513 2113 
z
" transform="scale(0.015625)"/>
       <path id="DejaVuSans-67" d="M 2906 1791 
Q 2906 2416 2648 2759 
Q 2391 3103 1925 3103 
Q 1463 3103 1205 2759 
Q 947 2416 947 1791 
Q 947 1169 1205 825 
Q 1463 481 1925 481 
Q 2391 481 2648 825 
Q 2906 1169 2906 1791 
z
M 3481 434 
Q 3481 -459 3084 -895 
Q 2688 -1331 1869 -1331 
Q 1566 -1331 1297 -1286 
Q 1028 -1241 775 -1147 
L 775 -588 
Q 1028 -725 1275 -790 
Q 1522 -856 1778 -856 
Q 2344 -856 2625 -561 
Q 2906 -266 2906 331 
L 2906 616 
Q 2728 306 2450 153 
Q 2172 0 1784 0 
Q 1141 0 747 490 
Q 353 981 353 1791 
Q 353 2603 747 3093 
Q 1141 3584 1784 3584 
Q 2172 3584 2450 3431 
Q 2728 3278 2906 2969 
L 2906 3500 
L 3481 3500 
L 3481 434 
z
" transform="scale(0.015625)"/>
       <path id="DejaVuSans-74" d="M 1172 4494 
L 1172 3500 
L 2356 3500 
L 2356 3053 
L 1172 3053 
L 1172 1153 
Q 1172 725 1289 603 
Q 1406 481 1766 481 
L 2356 481 
L 2356 0 
L 1766 0 
Q 1100 0 847 248 
Q 594 497 594 1153 
L 594 3053 
L 172 3053 
L 172 3500 
L 594 3500 
L 594 4494 
L 1172 4494 
z
" transform="scale(0.015625)"/>
       <path id="DejaVuSans-68" d="M 3513 2113 
L 3513 0 
L 2938 0 
L 2938 2094 
Q 2938 2591 2744 2837 
Q 2550 3084 2163 3084 
Q 1697 3084 1428 2787 
Q 1159 2491 1159 1978 
L 1159 0 
L 581 0 
L 581 4863 
L 1159 4863 
L 1159 2956 
Q 1366 3272 1645 3428 
Q 1925 3584 2291 3584 
Q 2894 3584 3203 3211 
Q 3513 2838 3513 2113 
z
" transform="scale(0.015625)"/>
       <path id="DejaVuSans-20" transform="scale(0.015625)"/>
       <path id="DejaVuSans-5b" d="M 550 4863 
L 1875 4863 
L 1875 4416 
L 1125 4416 
L 1125 -397 
L 1875 -397 
L 1875 -844 
L 550 -844 
L 550 4863 
z
" transform="scale(0.015625)"/>
       <path id="DejaVuSans-c5" d="M 2663 5081 
Q 2663 5278 2523 5417 
Q 2384 5556 2188 5556 
Q 1988 5556 1852 5420 
Q 1716 5284 1716 5081 
Q 1716 4884 1853 4746 
Q 1991 4609 2188 4609 
Q 2384 4609 2523 4746 
Q 2663 4884 2663 5081 
z
M 2188 4044 
L 1338 1722 
L 3041 1722 
L 2188 4044 
z
M 1716 4366 
Q 1525 4494 1428 4673 
Q 1331 4853 1331 5081 
Q 1331 5441 1579 5691 
Q 1828 5941 2188 5941 
Q 2544 5941 2795 5689 
Q 3047 5438 3047 5081 
Q 3047 4863 2948 4678 
Q 2850 4494 2663 4366 
L 4325 0 
L 3669 0 
L 3244 1197 
L 1141 1197 
L 716 0 
L 50 0 
L 1716 4366 
z
" transform="scale(0.015625)"/>
       <path id="DejaVuSans-5d" d="M 1947 4863 
L 1947 -844 
L 622 -844 
L 622 -397 
L 1369 -397 
L 1369 4416 
L 622 4416 
L 622 4863 
L 1947 4863 
z
" transform="scale(0.015625)"/>
      </defs>
      <use xlink:href="#DejaVuSans-77"/>
      <use xlink:href="#DejaVuSans-61" transform="translate(81.787109 0)"/>
      <use xlink:href="#DejaVuSans-76" transform="translate(143.066406 0)"/>
      <use xlink:href="#DejaVuSans-65" transform="translate(202.246094 0)"/>
      <use xlink:href="#DejaVuSans-6c" transform="translate(263.769531 0)"/>
      <use xlink:href="#DejaVuSans-65" transform="translate(291.552734 0)"/>
      <use xlink:href="#DejaVuSans-6e" transform="translate(353.076172 0)"/>
      <use xlink:href="#DejaVuSans-67" transform="translate(416.455078 0)"/>
      <use xlink:href="#DejaVuSans-74" transform="translate(479.931641 0)"/>
      <use xlink:href="#DejaVuSans-68" transform="translate(519.140625 0)"/>
      <use xlink:href="#DejaVuSans-20" transform="translate(582.519531 0)"/>
      <use xlink:href="#DejaVuSans-5b" transform="translate(614.306641 0)"/>
      <use xlink:href="#DejaVuSans-c5" transform="translate(653.320312 0)"/>
      <use xlink:href="#DejaVuSans-5d" transform="translate(721.728516 0)"/>
     </g>
    </g>
   </g>
   <g id="matplotlib.axis_2">
    <g id="ytick_1">
     <g id="line2d_5">
      <defs>
       <path id="mec2f633d4e" d="M 0 0 
L -3.5 0 
" style="stroke: #000000; stroke-width: 0.8"/>
      </defs>
      <g>
       <use xlink:href="#mec2f633d4e" x="43.78125" y="201.450686" style="stroke: #000000; stroke-width: 0.8"/>
      </g>
     </g>
     <g id="text_6">
      <!-- 0.4 -->
      <g transform="translate(20.878125 205.249904) scale(0.1 -0.1)">
       <defs>
        <path id="DejaVuSans-30" d="M 2034 4250 
Q 1547 4250 1301 3770 
Q 1056 3291 1056 2328 
Q 1056 1369 1301 889 
Q 1547 409 2034 409 
Q 2525 409 2770 889 
Q 3016 1369 3016 2328 
Q 3016 3291 2770 3770 
Q 2525 4250 2034 4250 
z
M 2034 4750 
Q 2819 4750 3233 4129 
Q 3647 3509 3647 2328 
Q 3647 1150 3233 529 
Q 2819 -91 2034 -91 
Q 1250 -91 836 529 
Q 422 1150 422 2328 
Q 422 3509 836 4129 
Q 1250 4750 2034 4750 
z
" transform="scale(0.015625)"/>
        <path id="DejaVuSans-2e" d="M 684 794 
L 1344 794 
L 1344 0 
L 684 0 
L 684 794 
z
" transform="scale(0.015625)"/>
       </defs>
       <use xlink:href="#DejaVuSans-30"/>
       <use xlink:href="#DejaVuSans-2e" transform="translate(63.623047 0)"/>
       <use xlink:href="#DejaVuSans-34" transform="translate(95.410156 0)"/>
      </g>
     </g>
    </g>
    <g id="ytick_2">
     <g id="line2d_6">
      <g>
       <use xlink:href="#mec2f633d4e" x="43.78125" y="172.594148" style="stroke: #000000; stroke-width: 0.8"/>
      </g>
     </g>
     <g id="text_7">
      <!-- 0.5 -->
      <g transform="translate(20.878125 176.393367) scale(0.1 -0.1)">
       <defs>
        <path id="DejaVuSans-35" d="M 691 4666 
L 3169 4666 
L 3169 4134 
L 1269 4134 
L 1269 2991 
Q 1406 3038 1543 3061 
Q 1681 3084 1819 3084 
Q 2600 3084 3056 2656 
Q 3513 2228 3513 1497 
Q 3513 744 3044 326 
Q 2575 -91 1722 -91 
Q 1428 -91 1123 -41 
Q 819 9 494 109 
L 494 744 
Q 775 591 1075 516 
Q 1375 441 1709 441 
Q 2250 441 2565 725 
Q 2881 1009 2881 1497 
Q 2881 1984 2565 2268 
Q 2250 2553 1709 2553 
Q 1456 2553 1204 2497 
Q 953 2441 691 2322 
L 691 4666 
z
" transform="scale(0.015625)"/>
       </defs>
       <use xlink:href="#DejaVuSans-30"/>
       <use xlink:href="#DejaVuSans-2e" transform="translate(63.623047 0)"/>
       <use xlink:href="#DejaVuSans-35" transform="translate(95.410156 0)"/>
      </g>
     </g>
    </g>
    <g id="ytick_3">
     <g id="line2d_7">
      <g>
       <use xlink:href="#mec2f633d4e" x="43.78125" y="143.73761" style="stroke: #000000; stroke-width: 0.8"/>
      </g>
     </g>
     <g id="text_8">
      <!-- 0.6 -->
      <g transform="translate(20.878125 147.536829) scale(0.1 -0.1)">
       <use xlink:href="#DejaVuSans-30"/>
       <use xlink:href="#DejaVuSans-2e" transform="translate(63.623047 0)"/>
       <use xlink:href="#DejaVuSans-36" transform="translate(95.410156 0)"/>
      </g>
     </g>
    </g>
    <g id="ytick_4">
     <g id="line2d_8">
      <g>
       <use xlink:href="#mec2f633d4e" x="43.78125" y="114.881072" style="stroke: #000000; stroke-width: 0.8"/>
      </g>
     </g>
     <g id="text_9">
      <!-- 0.7 -->
      <g transform="translate(20.878125 118.680291) scale(0.1 -0.1)">
       <defs>
        <path id="DejaVuSans-37" d="M 525 4666 
L 3525 4666 
L 3525 4397 
L 1831 0 
L 1172 0 
L 2766 4134 
L 525 4134 
L 525 4666 
z
" transform="scale(0.015625)"/>
       </defs>
       <use xlink:href="#DejaVuSans-30"/>
       <use xlink:href="#DejaVuSans-2e" transform="translate(63.623047 0)"/>
       <use xlink:href="#DejaVuSans-37" transform="translate(95.410156 0)"/>
      </g>
     </g>
    </g>
    <g id="ytick_5">
     <g id="line2d_9">
      <g>
       <use xlink:href="#mec2f633d4e" x="43.78125" y="86.024534" style="stroke: #000000; stroke-width: 0.8"/>
      </g>
     </g>
     <g id="text_10">
      <!-- 0.8 -->
      <g transform="translate(20.878125 89.823753) scale(0.1 -0.1)">
       <use xlink:href="#DejaVuSans-30"/>
       <use xlink:href="#DejaVuSans-2e" transform="translate(63.623047 0)"/>
       <use xlink:href="#DejaVuSans-38" transform="translate(95.410156 0)"/>
      </g>
     </g>
    </g>
    <g id="ytick_6">
     <g id="line2d_10">
      <g>
       <use xlink:href="#mec2f633d4e" x="43.78125" y="57.167996" style="stroke: #000000; stroke-width: 0.8"/>
      </g>
     </g>
     <g id="text_11">
      <!-- 0.9 -->
      <g transform="translate(20.878125 60.967215) scale(0.1 -0.1)">
       <defs>
        <path id="DejaVuSans-39" d="M 703 97 
L 703 672 
Q 941 559 1184 500 
Q 1428 441 1663 441 
Q 2288 441 2617 861 
Q 2947 1281 2994 2138 
Q 2813 1869 2534 1725 
Q 2256 1581 1919 1581 
Q 1219 1581 811 2004 
Q 403 2428 403 3163 
Q 403 3881 828 4315 
Q 1253 4750 1959 4750 
Q 2769 4750 3195 4129 
Q 3622 3509 3622 2328 
Q 3622 1225 3098 567 
Q 2575 -91 1691 -91 
Q 1453 -91 1209 -44 
Q 966 3 703 97 
z
M 1959 2075 
Q 2384 2075 2632 2365 
Q 2881 2656 2881 3163 
Q 2881 3666 2632 3958 
Q 2384 4250 1959 4250 
Q 1534 4250 1286 3958 
Q 1038 3666 1038 3163 
Q 1038 2656 1286 2365 
Q 1534 2075 1959 2075 
z
" transform="scale(0.015625)"/>
       </defs>
       <use xlink:href="#DejaVuSans-30"/>
       <use xlink:href="#DejaVuSans-2e" transform="translate(63.623047 0)"/>
       <use xlink:href="#DejaVuSans-39" transform="translate(95.410156 0)"/>
      </g>
     </g>
    </g>
    <g id="ytick_7">
     <g id="line2d_11">
      <g>
       <use xlink:href="#mec2f633d4e" x="43.78125" y="28.311458" style="stroke: #000000; stroke-width: 0.8"/>
      </g>
     </g>
     <g id="text_12">
      <!-- 1.0 -->
      <g transform="translate(20.878125 32.110677) scale(0.1 -0.1)">
       <defs>
        <path id="DejaVuSans-31" d="M 794 531 
L 1825 531 
L 1825 4091 
L 703 3866 
L 703 4441 
L 1819 4666 
L 2450 4666 
L 2450 531 
L 3481 531 
L 3481 0 
L 794 0 
L 794 531 
z
" transform="scale(0.015625)"/>
       </defs>
       <use xlink:href="#DejaVuSans-31"/>
       <use xlink:href="#DejaVuSans-2e" transform="translate(63.623047 0)"/>
       <use xlink:href="#DejaVuSans-30" transform="translate(95.410156 0)"/>
      </g>
     </g>
    </g>
    <g id="text_13">
     <!-- [dimensionless] -->
     <g transform="translate(14.798438 157.557344) rotate(-90) scale(0.1 -0.1)">
      <defs>
       <path id="DejaVuSans-64" d="M 2906 2969 
L 2906 4863 
L 3481 4863 
L 3481 0 
L 2906 0 
L 2906 525 
Q 2725 213 2448 61 
Q 2172 -91 1784 -91 
Q 1150 -91 751 415 
Q 353 922 353 1747 
Q 353 2572 751 3078 
Q 1150 3584 1784 3584 
Q 2172 3584 2448 3432 
Q 2725 3281 2906 2969 
z
M 947 1747 
Q 947 1113 1208 752 
Q 1469 391 1925 391 
Q 2381 391 2643 752 
Q 2906 1113 2906 1747 
Q 2906 2381 2643 2742 
Q 2381 3103 1925 3103 
Q 1469 3103 1208 2742 
Q 947 2381 947 1747 
z
" transform="scale(0.015625)"/>
       <path id="DejaVuSans-69" d="M 603 3500 
L 1178 3500 
L 1178 0 
L 603 0 
L 603 3500 
z
M 603 4863 
L 1178 4863 
L 1178 4134 
L 603 4134 
L 603 4863 
z
" transform="scale(0.015625)"/>
       <path id="DejaVuSans-6d" d="M 3328 2828 
Q 3544 3216 3844 3400 
Q 4144 3584 4550 3584 
Q 5097 3584 5394 3201 
Q 5691 2819 5691 2113 
L 5691 0 
L 5113 0 
L 5113 2094 
Q 5113 2597 4934 2840 
Q 4756 3084 4391 3084 
Q 3944 3084 3684 2787 
Q 3425 2491 3425 1978 
L 3425 0 
L 2847 0 
L 2847 2094 
Q 2847 2600 2669 2842 
Q 2491 3084 2119 3084 
Q 1678 3084 1418 2786 
Q 1159 2488 1159 1978 
L 1159 0 
L 581 0 
L 581 3500 
L 1159 3500 
L 1159 2956 
Q 1356 3278 1631 3431 
Q 1906 3584 2284 3584 
Q 2666 3584 2933 3390 
Q 3200 3197 3328 2828 
z
" transform="scale(0.015625)"/>
       <path id="DejaVuSans-73" d="M 2834 3397 
L 2834 2853 
Q 2591 2978 2328 3040 
Q 2066 3103 1784 3103 
Q 1356 3103 1142 2972 
Q 928 2841 928 2578 
Q 928 2378 1081 2264 
Q 1234 2150 1697 2047 
L 1894 2003 
Q 2506 1872 2764 1633 
Q 3022 1394 3022 966 
Q 3022 478 2636 193 
Q 2250 -91 1575 -91 
Q 1294 -91 989 -36 
Q 684 19 347 128 
L 347 722 
Q 666 556 975 473 
Q 1284 391 1588 391 
Q 1994 391 2212 530 
Q 2431 669 2431 922 
Q 2431 1156 2273 1281 
Q 2116 1406 1581 1522 
L 1381 1569 
Q 847 1681 609 1914 
Q 372 2147 372 2553 
Q 372 3047 722 3315 
Q 1072 3584 1716 3584 
Q 2034 3584 2315 3537 
Q 2597 3491 2834 3397 
z
" transform="scale(0.015625)"/>
       <path id="DejaVuSans-6f" d="M 1959 3097 
Q 1497 3097 1228 2736 
Q 959 2375 959 1747 
Q 959 1119 1226 758 
Q 1494 397 1959 397 
Q 2419 397 2687 759 
Q 2956 1122 2956 1747 
Q 2956 2369 2687 2733 
Q 2419 3097 1959 3097 
z
M 1959 3584 
Q 2709 3584 3137 3096 
Q 3566 2609 3566 1747 
Q 3566 888 3137 398 
Q 2709 -91 1959 -91 
Q 1206 -91 779 398 
Q 353 888 353 1747 
Q 353 2609 779 3096 
Q 1206 3584 1959 3584 
z
" transform="scale(0.015625)"/>
      </defs>
      <use xlink:href="#DejaVuSans-5b"/>
      <use xlink:href="#DejaVuSans-64" transform="translate(39.013672 0)"/>
      <use xlink:href="#DejaVuSans-69" transform="translate(102.490234 0)"/>
      <use xlink:href="#DejaVuSans-6d" transform="translate(130.273438 0)"/>
      <use xlink:href="#DejaVuSans-65" transform="translate(227.685547 0)"/>
      <use xlink:href="#DejaVuSans-6e" transform="translate(289.208984 0)"/>
      <use xlink:href="#DejaVuSans-73" transform="translate(352.587891 0)"/>
      <use xlink:href="#DejaVuSans-69" transform="translate(404.6875 0)"/>
      <use xlink:href="#DejaVuSans-6f" transform="translate(432.470703 0)"/>
      <use xlink:href="#DejaVuSans-6e" transform="translate(493.652344 0)"/>
      <use xlink:href="#DejaVuSans-6c" transform="translate(557.03125 0)"/>
      <use xlink:href="#DejaVuSans-65" transform="translate(584.814453 0)"/>
      <use xlink:href="#DejaVuSans-73" transform="translate(646.337891 0)"/>
      <use xlink:href="#DejaVuSans-73" transform="translate(698.4375 0)"/>
      <use xlink:href="#DejaVuSans-5d" transform="translate(750.537109 0)"/>
     </g>
    </g>
   </g>
   <g id="line2d_12">
    <path d="M 58.999432 49.260808 
L 60.013977 49.260808 
L 60.013977 68.090003 
L 61.028523 68.090003 
L 61.028523 44.539573 
L 62.043068 44.539573 
L 62.043068 73.930242 
L 63.057614 73.930242 
L 63.057614 74.107228 
L 64.072159 74.107228 
L 64.072159 78.174336 
L 65.086705 78.174336 
L 65.086705 87.495237 
L 66.10125 87.495237 
L 66.10125 69.883344 
L 67.115795 69.883344 
L 67.115795 72.505029 
L 68.130341 72.505029 
L 68.130341 79.502886 
L 69.144886 79.502886 
L 69.144886 76.693671 
L 70.159432 76.693671 
L 70.159432 98.659944 
L 71.173977 98.659944 
L 71.173977 89.875247 
L 72.188523 89.875247 
L 72.188523 109.350915 
L 73.203068 109.350915 
L 73.203068 107.625445 
L 74.217614 107.625445 
L 74.217614 100.572445 
L 75.232159 100.572445 
L 75.232159 76.071415 
L 76.246705 76.071415 
L 76.246705 84.1471 
L 77.26125 84.1471 
L 77.26125 90.093083 
L 78.275795 90.093083 
L 78.275795 87.755178 
L 79.290341 87.755178 
L 79.290341 109.683302 
L 80.304886 109.683302 
L 80.304886 96.788877 
L 81.319432 96.788877 
L 81.319432 108.316242 
L 82.333977 108.316242 
L 82.333977 121.472397 
L 83.348523 121.472397 
L 83.348523 108.454047 
L 84.363068 108.454047 
L 84.363068 124.847332 
L 85.377614 124.847332 
L 85.377614 116.546123 
L 86.392159 116.546123 
L 86.392159 110.872843 
L 87.406705 110.872843 
L 87.406705 119.921574 
L 88.42125 119.921574 
L 88.42125 123.964791 
L 89.435795 123.964791 
L 89.435795 122.108499 
L 90.450341 122.108499 
L 90.450341 126.911329 
L 91.464886 126.911329 
L 91.464886 121.746511 
L 92.479432 121.746511 
L 92.479432 117.662771 
L 93.493977 117.662771 
L 93.493977 118.455047 
L 94.508523 118.455047 
L 94.508523 127.316042 
L 95.523068 127.316042 
L 95.523068 117.183669 
L 96.537614 117.183669 
L 96.537614 121.857381 
L 97.552159 121.857381 
L 97.552159 127.493234 
L 98.566705 127.493234 
L 98.566705 136.71878 
L 99.58125 136.71878 
L 99.58125 145.889199 
L 101.610341 145.844101 
L 101.610341 140.51757 
L 102.624886 140.51757 
L 102.624886 153.747805 
L 103.639432 153.747805 
L 103.639432 148.609164 
L 104.653977 148.609164 
L 104.653977 119.477353 
L 105.668523 119.477353 
L 105.668523 105.908866 
L 106.683068 105.908866 
L 106.683068 107.14034 
L 107.697614 107.14034 
L 107.697614 98.165483 
L 108.712159 98.165483 
L 108.712159 101.404539 
L 109.726705 101.404539 
L 109.726705 88.605383 
L 110.74125 88.605383 
L 110.74125 120.143916 
L 111.755795 120.143916 
L 111.755795 109.270643 
L 112.770341 109.270643 
L 112.770341 120.323482 
L 113.784886 120.323482 
L 113.784886 129.584046 
L 114.799432 129.584046 
L 114.799432 125.739092 
L 115.813977 125.739092 
L 115.813977 113.070689 
L 116.828523 113.070689 
L 116.828523 117.7761 
L 117.843068 117.7761 
L 117.843068 125.938868 
L 118.857614 125.938868 
L 118.857614 133.38294 
L 119.872159 133.38294 
L 119.872159 140.104344 
L 120.886705 140.104344 
L 120.886705 137.003764 
L 121.90125 137.003764 
L 121.90125 142.143832 
L 122.915795 142.143832 
L 122.915795 137.11902 
L 123.930341 137.11902 
L 123.930341 135.279652 
L 124.944886 135.279652 
L 124.944886 107.414781 
L 125.959432 107.414781 
L 125.959432 113.908803 
L 126.973977 113.908803 
L 126.973977 126.521959 
L 127.988523 126.521959 
L 127.988523 136.78266 
L 129.003068 136.78266 
L 129.003068 123.546112 
L 130.017614 123.546112 
L 130.017614 129.434184 
L 131.032159 129.434184 
L 131.032159 125.140073 
L 132.046705 125.140073 
L 132.046705 136.010697 
L 133.06125 136.010697 
L 133.06125 149.33787 
L 134.075795 149.33787 
L 134.075795 141.326306 
L 135.090341 141.326306 
L 135.090341 146.070297 
L 136.104886 146.070297 
L 136.104886 142.201331 
L 137.119432 142.201331 
L 137.119432 146.264741 
L 138.133977 146.264741 
L 138.133977 153.239894 
L 139.148523 153.239894 
L 139.148523 153.639962 
L 140.163068 153.639962 
L 140.163068 148.69494 
L 141.177614 148.69494 
L 141.177614 161.789933 
L 142.192159 161.789933 
L 142.192159 159.014963 
L 143.206705 159.014963 
L 143.206705 161.01969 
L 144.22125 161.01969 
L 144.22125 161.290604 
L 145.235795 161.290604 
L 145.235795 177.140675 
L 146.250341 177.140675 
L 146.250341 168.5693 
L 147.264886 168.5693 
L 147.264886 175.604661 
L 148.279432 175.604661 
L 148.279432 170.111523 
L 149.293977 170.111523 
L 149.293977 180.383361 
L 150.308523 180.383361 
L 150.308523 174.296304 
L 151.323068 174.296304 
L 151.323068 179.271357 
L 152.337614 179.271357 
L 152.337614 180.891005 
L 153.352159 180.891005 
L 153.352159 192.043766 
L 154.366705 192.043766 
L 154.366705 186.18521 
L 155.38125 186.18521 
L 155.38125 191.106995 
L 156.395795 191.106995 
L 156.395795 186.260553 
L 157.410341 186.260553 
L 157.410341 188.065857 
L 158.424886 188.065857 
L 158.424886 201.836296 
L 159.439432 201.836296 
L 159.439432 190.700726 
L 160.453977 190.700726 
L 160.453977 191.413633 
L 161.468523 191.413633 
L 161.468523 196.875235 
L 162.483068 196.875235 
L 162.483068 200.881232 
L 163.497614 200.881232 
L 163.497614 212.779769 
L 164.512159 212.779769 
L 164.512159 198.675766 
L 165.526705 198.675766 
L 165.526705 191.322921 
L 166.54125 191.322921 
L 166.54125 197.520547 
L 167.555795 197.520547 
L 167.555795 151.898066 
L 168.570341 151.898066 
L 168.570341 27.391129 
L 169.584886 27.391129 
L 169.584886 24.633961 
L 170.599432 24.633961 
L 170.599432 24.011396 
L 171.613977 24.011396 
L 171.613977 28.462507 
L 172.628523 28.462507 
L 172.628523 30.651376 
L 173.643068 30.651376 
L 173.643068 25.684734 
L 174.657614 25.684734 
L 174.657614 47.124502 
L 175.672159 47.124502 
L 175.672159 24.488898 
L 176.686705 24.488898 
L 176.686705 28.386776 
L 177.70125 28.386776 
L 177.70125 44.496092 
L 178.715795 44.496092 
L 178.715795 42.227433 
L 179.730341 42.227433 
L 179.730341 44.930405 
L 180.744886 44.930405 
L 180.744886 57.686836 
L 181.759432 57.686836 
L 181.759432 29.003648 
L 182.773977 29.003648 
L 182.773977 41.635828 
L 183.788523 41.635828 
L 183.788523 32.183228 
L 184.803068 32.183228 
L 184.803068 47.276342 
L 185.817614 47.276342 
L 185.817614 45.14444 
L 186.832159 45.14444 
L 186.832159 42.446577 
L 187.846705 42.446577 
L 187.846705 47.734924 
L 188.86125 47.734924 
L 188.86125 43.446868 
L 189.875795 43.446868 
L 189.875795 36.30147 
L 190.890341 36.30147 
L 190.890341 44.840674 
L 191.904886 44.840674 
L 191.904886 49.992128 
L 192.919432 49.992128 
L 192.919432 55.542756 
L 193.933977 55.542756 
L 193.933977 50.467893 
L 194.948523 50.467893 
L 194.948523 60.105598 
L 195.963068 60.105598 
L 195.963068 59.274983 
L 196.977614 59.274983 
L 196.977614 49.049474 
L 197.992159 49.049474 
L 197.992159 54.95404 
L 199.006705 54.95404 
L 199.006705 53.78163 
L 200.02125 53.78163 
L 200.02125 48.257507 
L 201.035795 48.257507 
L 201.035795 63.348059 
L 202.050341 63.348059 
L 202.050341 65.897316 
L 203.064886 65.897316 
L 203.064886 71.606544 
L 204.079432 71.606544 
L 204.079432 46.524452 
L 205.093977 46.524452 
L 205.093977 56.891756 
L 206.108523 56.891756 
L 206.108523 62.562543 
L 207.123068 62.562543 
L 207.123068 69.583413 
L 208.137614 69.583413 
L 208.137614 61.395379 
L 209.152159 61.395379 
L 209.152159 57.889708 
L 210.166705 57.889708 
L 210.166705 49.716397 
L 211.18125 49.716397 
L 211.18125 72.827698 
L 212.195795 72.827698 
L 212.195795 59.496483 
L 214.224886 59.495623 
L 214.224886 70.451712 
L 215.239432 70.451712 
L 215.239432 76.806175 
L 216.253977 76.806175 
L 216.253977 64.500139 
L 217.268523 64.500139 
L 217.268523 62.087552 
L 218.283068 62.087552 
L 218.283068 65.13968 
L 219.297614 65.13968 
L 219.297614 79.292428 
L 220.312159 79.292428 
L 220.312159 74.504458 
L 221.326705 74.504458 
L 221.326705 52.523273 
L 222.34125 52.523273 
L 222.34125 61.024292 
L 223.355795 61.024292 
L 223.355795 77.934364 
L 224.370341 77.934364 
L 224.370341 77.494684 
L 225.384886 77.494684 
L 225.384886 70.17409 
L 226.399432 70.17409 
L 226.399432 80.690122 
L 227.413977 80.690122 
L 227.413977 78.798638 
L 228.428523 78.798638 
L 228.428523 77.431544 
L 229.443068 77.431544 
L 229.443068 88.652081 
L 231.472159 88.731751 
L 231.472159 97.666739 
L 232.486705 97.666739 
L 232.486705 74.62742 
L 233.50125 74.62742 
L 233.50125 96.535764 
L 234.515795 96.535764 
L 234.515795 72.754839 
L 235.530341 72.754839 
L 235.530341 82.156769 
L 236.544886 82.156769 
L 236.544886 80.540483 
L 237.559432 80.540483 
L 237.559432 82.539379 
L 238.573977 82.539379 
L 238.573977 91.655086 
L 239.588523 91.655086 
L 239.588523 80.655877 
L 240.603068 80.655877 
L 240.603068 87.792897 
L 241.617614 87.792897 
L 241.617614 84.43303 
L 242.632159 84.43303 
L 242.632159 97.19751 
L 243.646705 97.19751 
L 243.646705 86.685916 
L 244.66125 86.685916 
L 244.66125 88.676057 
L 245.675795 88.676057 
L 245.675795 95.579866 
L 246.690341 95.579866 
L 246.690341 94.446775 
L 247.704886 94.446775 
L 247.704886 82.3309 
L 248.719432 82.3309 
L 248.719432 76.275921 
L 249.733977 76.275921 
L 249.733977 98.790559 
L 250.748523 98.790559 
L 250.748523 96.526218 
L 251.763068 96.526218 
L 251.763068 105.49325 
L 252.777614 105.49325 
L 252.777614 99.10953 
L 253.792159 99.10953 
L 253.792159 117.664198 
L 254.806705 117.664198 
L 254.806705 118.703464 
L 255.82125 118.703464 
L 255.82125 99.045168 
L 256.835795 99.045168 
L 256.835795 103.700872 
L 257.850341 103.700872 
L 257.850341 95.525119 
L 258.864886 95.525119 
L 258.864886 68.693786 
L 259.879432 68.693786 
L 259.879432 102.246368 
L 260.893977 102.246368 
L 260.893977 112.87714 
L 261.908523 112.87714 
L 261.908523 102.642308 
L 262.923068 102.642308 
L 262.923068 93.012222 
L 263.937614 93.012222 
L 263.937614 109.41538 
L 264.952159 109.41538 
L 264.952159 87.279173 
L 265.966705 87.279173 
L 265.966705 90.683657 
L 266.98125 90.683657 
L 266.98125 83.851245 
L 267.995795 83.851245 
L 267.995795 119.460773 
L 269.010341 119.460773 
L 269.010341 108.930603 
L 270.024886 108.930603 
L 270.024886 109.794413 
L 271.039432 109.794413 
L 271.039432 117.162376 
L 272.053977 117.162376 
L 272.053977 109.047957 
L 273.068523 109.047957 
L 273.068523 114.255707 
L 274.083068 114.255707 
L 274.083068 103.716455 
L 275.097614 103.716455 
L 275.097614 109.779776 
L 276.112159 109.779776 
L 276.112159 115.390913 
L 277.126705 115.390913 
L 277.126705 100.405245 
L 278.14125 100.405245 
L 278.14125 124.499912 
L 279.155795 124.499912 
L 279.155795 122.066393 
L 280.170341 122.066393 
L 280.170341 117.178303 
L 281.184886 117.178303 
L 281.184886 115.476259 
L 282.199432 115.476259 
L 282.199432 101.203748 
L 283.213977 101.203748 
L 283.213977 111.977141 
L 284.228523 111.977141 
L 284.228523 119.40336 
L 285.243068 119.40336 
L 285.243068 120.863058 
L 286.257614 120.863058 
L 286.257614 113.65612 
L 287.272159 113.65612 
L 287.272159 104.026362 
L 288.286705 104.026362 
L 288.286705 125.197434 
L 289.30125 125.197434 
L 289.30125 111.906398 
L 290.315795 111.906398 
L 290.315795 136.256293 
L 291.330341 136.256293 
L 291.330341 128.721354 
L 292.344886 128.721354 
L 292.344886 112.439369 
L 293.359432 112.439369 
L 293.359432 121.717288 
L 294.373977 121.717288 
L 294.373977 120.742556 
L 295.388523 120.742556 
L 295.388523 136.68868 
L 296.403068 136.68868 
L 296.403068 120.832425 
L 297.417614 120.832425 
L 297.417614 131.191285 
L 298.432159 131.191285 
L 298.432159 135.869916 
L 299.446705 135.869916 
L 299.446705 133.264932 
L 300.46125 133.264932 
L 300.46125 131.066294 
L 301.475795 131.066294 
L 301.475795 146.729773 
L 302.490341 146.729773 
L 302.490341 121.450708 
L 303.504886 121.450708 
L 303.504886 122.536895 
L 304.519432 122.536895 
L 304.519432 143.62933 
L 305.533977 143.62933 
L 305.533977 129.309348 
L 306.548523 129.309348 
L 306.548523 133.354079 
L 307.563068 133.354079 
L 307.563068 136.640211 
L 309.592159 136.653695 
L 309.592159 152.259004 
L 310.606705 152.259004 
L 310.606705 123.898744 
L 311.62125 123.898744 
L 311.62125 125.883932 
L 312.635795 125.883932 
L 312.635795 100.719005 
L 313.650341 100.719005 
L 313.650341 121.620023 
L 314.664886 121.620023 
M 315.679432 179.027136 
L 316.693977 179.027136 
L 316.693977 152.250594 
L 317.708523 152.250594 
L 317.708523 133.479809 
L 318.723068 133.479809 
L 318.723068 141.155925 
L 319.737614 141.155925 
L 319.737614 147.291554 
L 320.752159 147.291554 
L 320.752159 150.671339 
L 321.766705 150.671339 
L 321.766705 132.805885 
L 322.78125 132.805885 
L 322.78125 147.807119 
L 323.795795 147.807119 
L 323.795795 123.610457 
L 324.810341 123.610457 
L 324.810341 152.036215 
L 325.824886 152.036215 
L 325.824886 134.240524 
L 326.839432 134.240524 
L 326.839432 137.150014 
L 327.853977 137.150014 
L 327.853977 153.614007 
L 328.868523 153.614007 
L 328.868523 142.894519 
L 329.883068 142.894519 
L 329.883068 164.606767 
L 330.897614 164.606767 
L 330.897614 156.33454 
L 331.912159 156.33454 
L 331.912159 133.146064 
L 332.926705 133.146064 
L 332.926705 141.887829 
L 333.94125 141.887829 
L 333.94125 141.059829 
L 334.955795 141.059829 
L 334.955795 141.966364 
L 335.970341 141.966364 
L 335.970341 158.324424 
L 336.984886 158.324424 
L 336.984886 157.174632 
L 337.999432 157.174632 
L 337.999432 159.270741 
L 339.013977 159.270741 
L 339.013977 147.642998 
L 340.028523 147.642998 
L 340.028523 139.117434 
L 341.043068 139.117434 
L 341.043068 159.073958 
L 343.072159 158.968489 
L 343.072159 146.697248 
L 344.086705 146.697248 
L 344.086705 127.009179 
L 345.10125 127.009179 
L 345.10125 158.059529 
L 346.115795 158.059529 
L 346.115795 142.550711 
L 347.130341 142.550711 
L 347.130341 154.166741 
L 348.144886 154.166741 
L 348.144886 157.925043 
L 349.159432 157.925043 
L 349.159432 160.404365 
L 350.173977 160.404365 
L 350.173977 172.594148 
L 351.188523 172.594148 
L 351.188523 152.660362 
L 352.203068 152.660362 
L 352.203068 162.186871 
L 353.217614 162.186871 
L 353.217614 161.608165 
L 354.232159 161.608165 
L 354.232159 143.836777 
L 355.246705 143.836777 
L 355.246705 154.921505 
L 356.26125 154.921505 
L 356.26125 161.578151 
L 357.275795 161.578151 
L 357.275795 144.196563 
L 358.290341 144.196563 
L 358.290341 158.675111 
L 359.304886 158.675111 
L 359.304886 157.006813 
L 360.319432 157.006813 
L 360.319432 171.686702 
L 361.333977 171.686702 
L 361.333977 203.292589 
L 362.348523 203.292589 
L 362.348523 167.441197 
L 363.363068 167.441197 
L 363.363068 167.441197 
" clip-path="url(#p8cbe53d8f3)" style="fill: none; stroke: #1f77b4; stroke-width: 1.5; stroke-linecap: square"/>
   </g>
   <g id="LineCollection_1">
    <path d="M 59.506705 58.274476 
L 59.506705 40.24714 
" clip-path="url(#p8cbe53d8f3)" style="fill: none; stroke: #1f77b4; stroke-width: 1.5"/>
    <path d="M 60.52125 76.047914 
L 60.52125 60.132091 
" clip-path="url(#p8cbe53d8f3)" style="fill: none; stroke: #1f77b4; stroke-width: 1.5"/>
    <path d="M 61.535795 53.376736 
L 61.535795 35.70241 
" clip-path="url(#p8cbe53d8f3)" style="fill: none; stroke: #1f77b4; stroke-width: 1.5"/>
    <path d="M 62.550341 81.633642 
L 62.550341 66.226841 
" clip-path="url(#p8cbe53d8f3)" style="fill: none; stroke: #1f77b4; stroke-width: 1.5"/>
    <path d="M 63.564886 81.733294 
L 63.564886 66.481162 
" clip-path="url(#p8cbe53d8f3)" style="fill: none; stroke: #1f77b4; stroke-width: 1.5"/>
    <path d="M 64.579432 85.64189 
L 64.579432 70.706782 
" clip-path="url(#p8cbe53d8f3)" style="fill: none; stroke: #1f77b4; stroke-width: 1.5"/>
    <path d="M 65.593977 94.483205 
L 65.593977 80.507269 
" clip-path="url(#p8cbe53d8f3)" style="fill: none; stroke: #1f77b4; stroke-width: 1.5"/>
    <path d="M 66.608523 77.552571 
L 66.608523 62.214116 
" clip-path="url(#p8cbe53d8f3)" style="fill: none; stroke: #1f77b4; stroke-width: 1.5"/>
    <path d="M 67.623068 80.000637 
L 67.623068 65.009421 
" clip-path="url(#p8cbe53d8f3)" style="fill: none; stroke: #1f77b4; stroke-width: 1.5"/>
    <path d="M 68.637614 86.613773 
L 68.637614 72.391998 
" clip-path="url(#p8cbe53d8f3)" style="fill: none; stroke: #1f77b4; stroke-width: 1.5"/>
    <path d="M 69.652159 84.063774 
L 69.652159 69.323567 
" clip-path="url(#p8cbe53d8f3)" style="fill: none; stroke: #1f77b4; stroke-width: 1.5"/>
    <path d="M 70.666705 105.264839 
L 70.666705 92.055048 
" clip-path="url(#p8cbe53d8f3)" style="fill: none; stroke: #1f77b4; stroke-width: 1.5"/>
    <path d="M 71.68125 96.818015 
L 71.68125 82.932479 
" clip-path="url(#p8cbe53d8f3)" style="fill: none; stroke: #1f77b4; stroke-width: 1.5"/>
    <path d="M 72.695795 115.782301 
L 72.695795 102.919529 
" clip-path="url(#p8cbe53d8f3)" style="fill: none; stroke: #1f77b4; stroke-width: 1.5"/>
    <path d="M 73.710341 114.167417 
L 73.710341 101.083473 
" clip-path="url(#p8cbe53d8f3)" style="fill: none; stroke: #1f77b4; stroke-width: 1.5"/>
    <path d="M 74.724886 107.301185 
L 74.724886 93.843705 
" clip-path="url(#p8cbe53d8f3)" style="fill: none; stroke: #1f77b4; stroke-width: 1.5"/>
    <path d="M 75.739432 83.512915 
L 75.739432 68.629915 
" clip-path="url(#p8cbe53d8f3)" style="fill: none; stroke: #1f77b4; stroke-width: 1.5"/>
    <path d="M 76.753977 91.306368 
L 76.753977 76.987831 
" clip-path="url(#p8cbe53d8f3)" style="fill: none; stroke: #1f77b4; stroke-width: 1.5"/>
    <path d="M 77.768523 97.224597 
L 77.768523 82.961569 
" clip-path="url(#p8cbe53d8f3)" style="fill: none; stroke: #1f77b4; stroke-width: 1.5"/>
    <path d="M 78.783068 94.934913 
L 78.783068 80.575443 
" clip-path="url(#p8cbe53d8f3)" style="fill: none; stroke: #1f77b4; stroke-width: 1.5"/>
    <path d="M 79.797614 116.205061 
L 79.797614 103.161542 
" clip-path="url(#p8cbe53d8f3)" style="fill: none; stroke: #1f77b4; stroke-width: 1.5"/>
    <path d="M 80.812159 103.789892 
L 80.812159 89.787861 
" clip-path="url(#p8cbe53d8f3)" style="fill: none; stroke: #1f77b4; stroke-width: 1.5"/>
    <path d="M 81.826705 115.164104 
L 81.826705 101.46838 
" clip-path="url(#p8cbe53d8f3)" style="fill: none; stroke: #1f77b4; stroke-width: 1.5"/>
    <path d="M 82.84125 127.993318 
L 82.84125 114.951475 
" clip-path="url(#p8cbe53d8f3)" style="fill: none; stroke: #1f77b4; stroke-width: 1.5"/>
    <path d="M 83.855795 115.287888 
L 83.855795 101.620206 
" clip-path="url(#p8cbe53d8f3)" style="fill: none; stroke: #1f77b4; stroke-width: 1.5"/>
    <path d="M 84.870341 131.30219 
L 84.870341 118.392474 
" clip-path="url(#p8cbe53d8f3)" style="fill: none; stroke: #1f77b4; stroke-width: 1.5"/>
    <path d="M 85.884886 123.216832 
L 85.884886 109.875413 
" clip-path="url(#p8cbe53d8f3)" style="fill: none; stroke: #1f77b4; stroke-width: 1.5"/>
    <path d="M 86.899432 117.729651 
L 86.899432 104.016035 
" clip-path="url(#p8cbe53d8f3)" style="fill: none; stroke: #1f77b4; stroke-width: 1.5"/>
    <path d="M 87.913977 126.474383 
L 87.913977 113.368764 
" clip-path="url(#p8cbe53d8f3)" style="fill: none; stroke: #1f77b4; stroke-width: 1.5"/>
    <path d="M 88.928523 130.526887 
L 88.928523 117.402695 
" clip-path="url(#p8cbe53d8f3)" style="fill: none; stroke: #1f77b4; stroke-width: 1.5"/>
    <path d="M 89.943068 128.691938 
L 89.943068 115.525059 
" clip-path="url(#p8cbe53d8f3)" style="fill: none; stroke: #1f77b4; stroke-width: 1.5"/>
    <path d="M 90.957614 133.407681 
L 90.957614 120.414978 
" clip-path="url(#p8cbe53d8f3)" style="fill: none; stroke: #1f77b4; stroke-width: 1.5"/>
    <path d="M 91.972159 128.401644 
L 91.972159 115.091377 
" clip-path="url(#p8cbe53d8f3)" style="fill: none; stroke: #1f77b4; stroke-width: 1.5"/>
    <path d="M 92.986705 124.540919 
L 92.986705 110.784623 
" clip-path="url(#p8cbe53d8f3)" style="fill: none; stroke: #1f77b4; stroke-width: 1.5"/>
    <path d="M 94.00125 125.112762 
L 94.00125 111.797332 
" clip-path="url(#p8cbe53d8f3)" style="fill: none; stroke: #1f77b4; stroke-width: 1.5"/>
    <path d="M 95.015795 133.755071 
L 95.015795 120.877012 
" clip-path="url(#p8cbe53d8f3)" style="fill: none; stroke: #1f77b4; stroke-width: 1.5"/>
    <path d="M 96.030341 123.928879 
L 96.030341 110.438459 
" clip-path="url(#p8cbe53d8f3)" style="fill: none; stroke: #1f77b4; stroke-width: 1.5"/>
    <path d="M 97.044886 128.428646 
L 97.044886 115.286115 
" clip-path="url(#p8cbe53d8f3)" style="fill: none; stroke: #1f77b4; stroke-width: 1.5"/>
    <path d="M 98.059432 133.977188 
L 98.059432 121.00928 
" clip-path="url(#p8cbe53d8f3)" style="fill: none; stroke: #1f77b4; stroke-width: 1.5"/>
    <path d="M 99.073977 142.649249 
L 99.073977 130.78831 
" clip-path="url(#p8cbe53d8f3)" style="fill: none; stroke: #1f77b4; stroke-width: 1.5"/>
    <path d="M 100.088523 151.759803 
L 100.088523 140.018596 
" clip-path="url(#p8cbe53d8f3)" style="fill: none; stroke: #1f77b4; stroke-width: 1.5"/>
    <path d="M 101.103068 151.554023 
L 101.103068 140.13418 
" clip-path="url(#p8cbe53d8f3)" style="fill: none; stroke: #1f77b4; stroke-width: 1.5"/>
    <path d="M 102.117614 146.449724 
L 102.117614 134.585416 
" clip-path="url(#p8cbe53d8f3)" style="fill: none; stroke: #1f77b4; stroke-width: 1.5"/>
    <path d="M 103.132159 159.365324 
L 103.132159 148.130286 
" clip-path="url(#p8cbe53d8f3)" style="fill: none; stroke: #1f77b4; stroke-width: 1.5"/>
    <path d="M 104.146705 154.362875 
L 104.146705 142.855454 
" clip-path="url(#p8cbe53d8f3)" style="fill: none; stroke: #1f77b4; stroke-width: 1.5"/>
    <path d="M 105.16125 125.965241 
L 105.16125 112.989466 
" clip-path="url(#p8cbe53d8f3)" style="fill: none; stroke: #1f77b4; stroke-width: 1.5"/>
    <path d="M 106.175795 112.736029 
L 106.175795 99.081704 
" clip-path="url(#p8cbe53d8f3)" style="fill: none; stroke: #1f77b4; stroke-width: 1.5"/>
    <path d="M 107.190341 113.981645 
L 107.190341 100.299036 
" clip-path="url(#p8cbe53d8f3)" style="fill: none; stroke: #1f77b4; stroke-width: 1.5"/>
    <path d="M 108.204886 105.637867 
L 108.204886 90.693098 
" clip-path="url(#p8cbe53d8f3)" style="fill: none; stroke: #1f77b4; stroke-width: 1.5"/>
    <path d="M 109.219432 109.868577 
L 109.219432 92.9405 
" clip-path="url(#p8cbe53d8f3)" style="fill: none; stroke: #1f77b4; stroke-width: 1.5"/>
    <path d="M 110.233977 98.142839 
L 110.233977 79.067928 
" clip-path="url(#p8cbe53d8f3)" style="fill: none; stroke: #1f77b4; stroke-width: 1.5"/>
    <path d="M 111.248523 126.413362 
L 111.248523 113.87447 
" clip-path="url(#p8cbe53d8f3)" style="fill: none; stroke: #1f77b4; stroke-width: 1.5"/>
    <path d="M 112.263068 115.338178 
L 112.263068 103.203109 
" clip-path="url(#p8cbe53d8f3)" style="fill: none; stroke: #1f77b4; stroke-width: 1.5"/>
    <path d="M 113.277614 126.010708 
L 113.277614 114.636256 
" clip-path="url(#p8cbe53d8f3)" style="fill: none; stroke: #1f77b4; stroke-width: 1.5"/>
    <path d="M 114.292159 134.616614 
L 114.292159 124.551478 
" clip-path="url(#p8cbe53d8f3)" style="fill: none; stroke: #1f77b4; stroke-width: 1.5"/>
    <path d="M 115.306705 130.46002 
L 115.306705 121.018164 
" clip-path="url(#p8cbe53d8f3)" style="fill: none; stroke: #1f77b4; stroke-width: 1.5"/>
    <path d="M 116.32125 117.954033 
L 116.32125 108.187346 
" clip-path="url(#p8cbe53d8f3)" style="fill: none; stroke: #1f77b4; stroke-width: 1.5"/>
    <path d="M 117.335795 122.524647 
L 117.335795 113.027554 
" clip-path="url(#p8cbe53d8f3)" style="fill: none; stroke: #1f77b4; stroke-width: 1.5"/>
    <path d="M 118.350341 130.529232 
L 118.350341 121.348504 
" clip-path="url(#p8cbe53d8f3)" style="fill: none; stroke: #1f77b4; stroke-width: 1.5"/>
    <path d="M 119.364886 137.843761 
L 119.364886 128.922119 
" clip-path="url(#p8cbe53d8f3)" style="fill: none; stroke: #1f77b4; stroke-width: 1.5"/>
    <path d="M 120.379432 144.359546 
L 120.379432 135.849142 
" clip-path="url(#p8cbe53d8f3)" style="fill: none; stroke: #1f77b4; stroke-width: 1.5"/>
    <path d="M 121.393977 141.364486 
L 121.393977 132.643041 
" clip-path="url(#p8cbe53d8f3)" style="fill: none; stroke: #1f77b4; stroke-width: 1.5"/>
    <path d="M 122.408523 146.407101 
L 122.408523 137.880562 
" clip-path="url(#p8cbe53d8f3)" style="fill: none; stroke: #1f77b4; stroke-width: 1.5"/>
    <path d="M 123.423068 141.452939 
L 123.423068 132.785101 
" clip-path="url(#p8cbe53d8f3)" style="fill: none; stroke: #1f77b4; stroke-width: 1.5"/>
    <path d="M 124.437614 139.569279 
L 124.437614 130.990025 
" clip-path="url(#p8cbe53d8f3)" style="fill: none; stroke: #1f77b4; stroke-width: 1.5"/>
    <path d="M 125.452159 112.203522 
L 125.452159 102.62604 
" clip-path="url(#p8cbe53d8f3)" style="fill: none; stroke: #1f77b4; stroke-width: 1.5"/>
    <path d="M 126.466705 118.596015 
L 126.466705 109.221591 
" clip-path="url(#p8cbe53d8f3)" style="fill: none; stroke: #1f77b4; stroke-width: 1.5"/>
    <path d="M 127.48125 130.89967 
L 127.48125 122.144249 
" clip-path="url(#p8cbe53d8f3)" style="fill: none; stroke: #1f77b4; stroke-width: 1.5"/>
    <path d="M 128.495795 140.945306 
L 128.495795 132.620013 
" clip-path="url(#p8cbe53d8f3)" style="fill: none; stroke: #1f77b4; stroke-width: 1.5"/>
    <path d="M 129.510341 128.027525 
L 129.510341 119.0647 
" clip-path="url(#p8cbe53d8f3)" style="fill: none; stroke: #1f77b4; stroke-width: 1.5"/>
    <path d="M 130.524886 133.721559 
L 130.524886 125.146809 
" clip-path="url(#p8cbe53d8f3)" style="fill: none; stroke: #1f77b4; stroke-width: 1.5"/>
    <path d="M 131.539432 129.58649 
L 131.539432 120.693656 
" clip-path="url(#p8cbe53d8f3)" style="fill: none; stroke: #1f77b4; stroke-width: 1.5"/>
    <path d="M 132.553977 140.255094 
L 132.553977 131.766299 
" clip-path="url(#p8cbe53d8f3)" style="fill: none; stroke: #1f77b4; stroke-width: 1.5"/>
    <path d="M 133.568523 153.276479 
L 133.568523 145.399261 
" clip-path="url(#p8cbe53d8f3)" style="fill: none; stroke: #1f77b4; stroke-width: 1.5"/>
    <path d="M 134.583068 145.472704 
L 134.583068 137.179909 
" clip-path="url(#p8cbe53d8f3)" style="fill: none; stroke: #1f77b4; stroke-width: 1.5"/>
    <path d="M 135.597614 150.082581 
L 135.597614 142.058012 
" clip-path="url(#p8cbe53d8f3)" style="fill: none; stroke: #1f77b4; stroke-width: 1.5"/>
    <path d="M 136.612159 146.3196 
L 136.612159 138.083062 
" clip-path="url(#p8cbe53d8f3)" style="fill: none; stroke: #1f77b4; stroke-width: 1.5"/>
    <path d="M 137.626705 150.375514 
L 137.626705 142.153968 
" clip-path="url(#p8cbe53d8f3)" style="fill: none; stroke: #1f77b4; stroke-width: 1.5"/>
    <path d="M 138.64125 157.171959 
L 138.64125 149.307828 
" clip-path="url(#p8cbe53d8f3)" style="fill: none; stroke: #1f77b4; stroke-width: 1.5"/>
    <path d="M 139.655795 157.580328 
L 139.655795 149.699596 
" clip-path="url(#p8cbe53d8f3)" style="fill: none; stroke: #1f77b4; stroke-width: 1.5"/>
    <path d="M 140.670341 152.731271 
L 140.670341 144.658609 
" clip-path="url(#p8cbe53d8f3)" style="fill: none; stroke: #1f77b4; stroke-width: 1.5"/>
    <path d="M 141.684886 165.626692 
L 141.684886 157.953173 
" clip-path="url(#p8cbe53d8f3)" style="fill: none; stroke: #1f77b4; stroke-width: 1.5"/>
    <path d="M 142.699432 162.884347 
L 142.699432 155.145578 
" clip-path="url(#p8cbe53d8f3)" style="fill: none; stroke: #1f77b4; stroke-width: 1.5"/>
    <path d="M 143.713977 164.853748 
L 143.713977 157.185631 
" clip-path="url(#p8cbe53d8f3)" style="fill: none; stroke: #1f77b4; stroke-width: 1.5"/>
    <path d="M 144.728523 165.141882 
L 144.728523 157.439326 
" clip-path="url(#p8cbe53d8f3)" style="fill: none; stroke: #1f77b4; stroke-width: 1.5"/>
    <path d="M 145.743068 180.722492 
L 145.743068 173.558858 
" clip-path="url(#p8cbe53d8f3)" style="fill: none; stroke: #1f77b4; stroke-width: 1.5"/>
    <path d="M 146.757614 172.371822 
L 146.757614 164.766778 
" clip-path="url(#p8cbe53d8f3)" style="fill: none; stroke: #1f77b4; stroke-width: 1.5"/>
    <path d="M 147.772159 179.256669 
L 147.772159 171.952653 
" clip-path="url(#p8cbe53d8f3)" style="fill: none; stroke: #1f77b4; stroke-width: 1.5"/>
    <path d="M 148.786705 173.890071 
L 148.786705 166.332976 
" clip-path="url(#p8cbe53d8f3)" style="fill: none; stroke: #1f77b4; stroke-width: 1.5"/>
    <path d="M 149.80125 184.034145 
L 149.80125 176.732576 
" clip-path="url(#p8cbe53d8f3)" style="fill: none; stroke: #1f77b4; stroke-width: 1.5"/>
    <path d="M 150.815795 178.067244 
L 150.815795 170.525364 
" clip-path="url(#p8cbe53d8f3)" style="fill: none; stroke: #1f77b4; stroke-width: 1.5"/>
    <path d="M 151.830341 183.011594 
L 151.830341 175.53112 
" clip-path="url(#p8cbe53d8f3)" style="fill: none; stroke: #1f77b4; stroke-width: 1.5"/>
    <path d="M 152.844886 184.602536 
L 152.844886 177.179474 
" clip-path="url(#p8cbe53d8f3)" style="fill: none; stroke: #1f77b4; stroke-width: 1.5"/>
    <path d="M 153.859432 195.540331 
L 153.859432 188.547201 
" clip-path="url(#p8cbe53d8f3)" style="fill: none; stroke: #1f77b4; stroke-width: 1.5"/>
    <path d="M 154.873977 189.895159 
L 154.873977 182.47526 
" clip-path="url(#p8cbe53d8f3)" style="fill: none; stroke: #1f77b4; stroke-width: 1.5"/>
    <path d="M 155.888523 194.749317 
L 155.888523 187.464672 
" clip-path="url(#p8cbe53d8f3)" style="fill: none; stroke: #1f77b4; stroke-width: 1.5"/>
    <path d="M 156.903068 190.120935 
L 156.903068 182.400172 
" clip-path="url(#p8cbe53d8f3)" style="fill: none; stroke: #1f77b4; stroke-width: 1.5"/>
    <path d="M 157.917614 191.925498 
L 157.917614 184.206216 
" clip-path="url(#p8cbe53d8f3)" style="fill: none; stroke: #1f77b4; stroke-width: 1.5"/>
    <path d="M 158.932159 205.431603 
L 158.932159 198.240988 
" clip-path="url(#p8cbe53d8f3)" style="fill: none; stroke: #1f77b4; stroke-width: 1.5"/>
    <path d="M 159.946705 194.688342 
L 159.946705 186.713109 
" clip-path="url(#p8cbe53d8f3)" style="fill: none; stroke: #1f77b4; stroke-width: 1.5"/>
    <path d="M 160.96125 195.597854 
L 160.96125 187.229412 
" clip-path="url(#p8cbe53d8f3)" style="fill: none; stroke: #1f77b4; stroke-width: 1.5"/>
    <path d="M 161.975795 201.078567 
L 161.975795 192.671903 
" clip-path="url(#p8cbe53d8f3)" style="fill: none; stroke: #1f77b4; stroke-width: 1.5"/>
    <path d="M 162.990341 205.368083 
L 162.990341 196.394381 
" clip-path="url(#p8cbe53d8f3)" style="fill: none; stroke: #1f77b4; stroke-width: 1.5"/>
    <path d="M 164.004886 217.36285 
L 164.004886 208.196689 
" clip-path="url(#p8cbe53d8f3)" style="fill: none; stroke: #1f77b4; stroke-width: 1.5"/>
    <path d="M 165.019432 203.390476 
L 165.019432 193.961055 
" clip-path="url(#p8cbe53d8f3)" style="fill: none; stroke: #1f77b4; stroke-width: 1.5"/>
    <path d="M 166.033977 195.456506 
L 166.033977 187.189336 
" clip-path="url(#p8cbe53d8f3)" style="fill: none; stroke: #1f77b4; stroke-width: 1.5"/>
    <path d="M 167.048523 201.561931 
L 167.048523 193.479163 
" clip-path="url(#p8cbe53d8f3)" style="fill: none; stroke: #1f77b4; stroke-width: 1.5"/>
    <path d="M 168.063068 156.947233 
L 168.063068 146.848898 
" clip-path="url(#p8cbe53d8f3)" style="fill: none; stroke: #1f77b4; stroke-width: 1.5"/>
    <path d="M 169.077614 34.356594 
L 169.077614 20.425665 
" clip-path="url(#p8cbe53d8f3)" style="fill: none; stroke: #1f77b4; stroke-width: 1.5"/>
    <path d="M 170.092159 31.418071 
L 170.092159 17.849851 
" clip-path="url(#p8cbe53d8f3)" style="fill: none; stroke: #1f77b4; stroke-width: 1.5"/>
    <path d="M 171.106705 30.742785 
L 171.106705 17.280006 
" clip-path="url(#p8cbe53d8f3)" style="fill: none; stroke: #1f77b4; stroke-width: 1.5"/>
    <path d="M 172.12125 35.061842 
L 172.12125 21.863172 
" clip-path="url(#p8cbe53d8f3)" style="fill: none; stroke: #1f77b4; stroke-width: 1.5"/>
    <path d="M 173.135795 37.211422 
L 173.135795 24.091329 
" clip-path="url(#p8cbe53d8f3)" style="fill: none; stroke: #1f77b4; stroke-width: 1.5"/>
    <path d="M 174.150341 32.310938 
L 174.150341 19.058529 
" clip-path="url(#p8cbe53d8f3)" style="fill: none; stroke: #1f77b4; stroke-width: 1.5"/>
    <path d="M 175.164886 53.341975 
L 175.164886 40.90703 
" clip-path="url(#p8cbe53d8f3)" style="fill: none; stroke: #1f77b4; stroke-width: 1.5"/>
    <path d="M 176.179432 31.265441 
L 176.179432 17.712354 
" clip-path="url(#p8cbe53d8f3)" style="fill: none; stroke: #1f77b4; stroke-width: 1.5"/>
    <path d="M 177.193977 34.97879 
L 177.193977 21.794763 
" clip-path="url(#p8cbe53d8f3)" style="fill: none; stroke: #1f77b4; stroke-width: 1.5"/>
    <path d="M 178.208523 50.695149 
L 178.208523 38.297035 
" clip-path="url(#p8cbe53d8f3)" style="fill: none; stroke: #1f77b4; stroke-width: 1.5"/>
    <path d="M 179.223068 48.629577 
L 179.223068 35.82529 
" clip-path="url(#p8cbe53d8f3)" style="fill: none; stroke: #1f77b4; stroke-width: 1.5"/>
    <path d="M 180.237614 51.247281 
L 180.237614 38.613529 
" clip-path="url(#p8cbe53d8f3)" style="fill: none; stroke: #1f77b4; stroke-width: 1.5"/>
    <path d="M 181.252159 63.813749 
L 181.252159 51.559924 
" clip-path="url(#p8cbe53d8f3)" style="fill: none; stroke: #1f77b4; stroke-width: 1.5"/>
    <path d="M 182.266705 35.654017 
L 182.266705 22.35328 
" clip-path="url(#p8cbe53d8f3)" style="fill: none; stroke: #1f77b4; stroke-width: 1.5"/>
    <path d="M 183.28125 48.090266 
L 183.28125 35.18139 
" clip-path="url(#p8cbe53d8f3)" style="fill: none; stroke: #1f77b4; stroke-width: 1.5"/>
    <path d="M 184.295795 38.868189 
L 184.295795 25.498266 
" clip-path="url(#p8cbe53d8f3)" style="fill: none; stroke: #1f77b4; stroke-width: 1.5"/>
    <path d="M 185.310341 53.682336 
L 185.310341 40.870349 
" clip-path="url(#p8cbe53d8f3)" style="fill: none; stroke: #1f77b4; stroke-width: 1.5"/>
    <path d="M 186.324886 51.647667 
L 186.324886 38.641213 
" clip-path="url(#p8cbe53d8f3)" style="fill: none; stroke: #1f77b4; stroke-width: 1.5"/>
    <path d="M 187.339432 49.004101 
L 187.339432 35.889052 
" clip-path="url(#p8cbe53d8f3)" style="fill: none; stroke: #1f77b4; stroke-width: 1.5"/>
    <path d="M 188.353977 54.264137 
L 188.353977 41.205712 
" clip-path="url(#p8cbe53d8f3)" style="fill: none; stroke: #1f77b4; stroke-width: 1.5"/>
    <path d="M 189.368523 50.083365 
L 189.368523 36.81037 
" clip-path="url(#p8cbe53d8f3)" style="fill: none; stroke: #1f77b4; stroke-width: 1.5"/>
    <path d="M 190.383068 43.123668 
L 190.383068 29.479273 
" clip-path="url(#p8cbe53d8f3)" style="fill: none; stroke: #1f77b4; stroke-width: 1.5"/>
    <path d="M 191.397614 51.621267 
L 191.397614 38.06008 
" clip-path="url(#p8cbe53d8f3)" style="fill: none; stroke: #1f77b4; stroke-width: 1.5"/>
    <path d="M 192.412159 56.601017 
L 192.412159 43.383239 
" clip-path="url(#p8cbe53d8f3)" style="fill: none; stroke: #1f77b4; stroke-width: 1.5"/>
    <path d="M 193.426705 62.104156 
L 193.426705 48.981356 
" clip-path="url(#p8cbe53d8f3)" style="fill: none; stroke: #1f77b4; stroke-width: 1.5"/>
    <path d="M 194.44125 57.206477 
L 194.44125 43.729308 
" clip-path="url(#p8cbe53d8f3)" style="fill: none; stroke: #1f77b4; stroke-width: 1.5"/>
    <path d="M 195.455795 66.697986 
L 195.455795 53.513209 
" clip-path="url(#p8cbe53d8f3)" style="fill: none; stroke: #1f77b4; stroke-width: 1.5"/>
    <path d="M 196.470341 65.958146 
L 196.470341 52.59182 
" clip-path="url(#p8cbe53d8f3)" style="fill: none; stroke: #1f77b4; stroke-width: 1.5"/>
    <path d="M 197.484886 55.979379 
L 197.484886 42.119568 
" clip-path="url(#p8cbe53d8f3)" style="fill: none; stroke: #1f77b4; stroke-width: 1.5"/>
    <path d="M 198.499432 61.800522 
L 198.499432 48.107558 
" clip-path="url(#p8cbe53d8f3)" style="fill: none; stroke: #1f77b4; stroke-width: 1.5"/>
    <path d="M 199.513977 60.747643 
L 199.513977 46.815618 
" clip-path="url(#p8cbe53d8f3)" style="fill: none; stroke: #1f77b4; stroke-width: 1.5"/>
    <path d="M 200.528523 55.210435 
L 200.528523 41.304579 
" clip-path="url(#p8cbe53d8f3)" style="fill: none; stroke: #1f77b4; stroke-width: 1.5"/>
    <path d="M 201.543068 70.156359 
L 201.543068 56.53976 
" clip-path="url(#p8cbe53d8f3)" style="fill: none; stroke: #1f77b4; stroke-width: 1.5"/>
    <path d="M 202.557614 72.537698 
L 202.557614 59.256934 
" clip-path="url(#p8cbe53d8f3)" style="fill: none; stroke: #1f77b4; stroke-width: 1.5"/>
    <path d="M 203.572159 78.437514 
L 203.572159 64.775573 
" clip-path="url(#p8cbe53d8f3)" style="fill: none; stroke: #1f77b4; stroke-width: 1.5"/>
    <path d="M 204.586705 53.949248 
L 204.586705 39.099656 
" clip-path="url(#p8cbe53d8f3)" style="fill: none; stroke: #1f77b4; stroke-width: 1.5"/>
    <path d="M 205.60125 64.138078 
L 205.60125 49.645435 
" clip-path="url(#p8cbe53d8f3)" style="fill: none; stroke: #1f77b4; stroke-width: 1.5"/>
    <path d="M 206.615795 69.718657 
L 206.615795 55.406429 
" clip-path="url(#p8cbe53d8f3)" style="fill: none; stroke: #1f77b4; stroke-width: 1.5"/>
    <path d="M 207.630341 76.779499 
L 207.630341 62.387327 
" clip-path="url(#p8cbe53d8f3)" style="fill: none; stroke: #1f77b4; stroke-width: 1.5"/>
    <path d="M 208.644886 69.077875 
L 208.644886 53.712883 
" clip-path="url(#p8cbe53d8f3)" style="fill: none; stroke: #1f77b4; stroke-width: 1.5"/>
    <path d="M 209.659432 65.514817 
L 209.659432 50.264599 
" clip-path="url(#p8cbe53d8f3)" style="fill: none; stroke: #1f77b4; stroke-width: 1.5"/>
    <path d="M 210.673977 58.012828 
L 210.673977 41.419967 
" clip-path="url(#p8cbe53d8f3)" style="fill: none; stroke: #1f77b4; stroke-width: 1.5"/>
    <path d="M 211.688523 80.53006 
L 211.688523 65.125336 
" clip-path="url(#p8cbe53d8f3)" style="fill: none; stroke: #1f77b4; stroke-width: 1.5"/>
    <path d="M 212.703068 67.711757 
L 212.703068 51.281208 
" clip-path="url(#p8cbe53d8f3)" style="fill: none; stroke: #1f77b4; stroke-width: 1.5"/>
    <path d="M 213.717614 68.019462 
L 213.717614 50.971783 
" clip-path="url(#p8cbe53d8f3)" style="fill: none; stroke: #1f77b4; stroke-width: 1.5"/>
    <path d="M 214.732159 79.352713 
L 214.732159 61.550711 
" clip-path="url(#p8cbe53d8f3)" style="fill: none; stroke: #1f77b4; stroke-width: 1.5"/>
    <path d="M 215.746705 86.607765 
L 215.746705 67.004584 
" clip-path="url(#p8cbe53d8f3)" style="fill: none; stroke: #1f77b4; stroke-width: 1.5"/>
    <path d="M 216.76125 76.701699 
L 216.76125 52.298579 
" clip-path="url(#p8cbe53d8f3)" style="fill: none; stroke: #1f77b4; stroke-width: 1.5"/>
    <path d="M 217.775795 75.359083 
L 217.775795 48.816021 
" clip-path="url(#p8cbe53d8f3)" style="fill: none; stroke: #1f77b4; stroke-width: 1.5"/>
    <path d="M 218.790341 75.621383 
L 218.790341 54.657977 
" clip-path="url(#p8cbe53d8f3)" style="fill: none; stroke: #1f77b4; stroke-width: 1.5"/>
    <path d="M 219.804886 87.705766 
L 219.804886 70.879091 
" clip-path="url(#p8cbe53d8f3)" style="fill: none; stroke: #1f77b4; stroke-width: 1.5"/>
    <path d="M 220.819432 82.429333 
L 220.819432 66.579584 
" clip-path="url(#p8cbe53d8f3)" style="fill: none; stroke: #1f77b4; stroke-width: 1.5"/>
    <path d="M 221.833977 60.433462 
L 221.833977 44.613084 
" clip-path="url(#p8cbe53d8f3)" style="fill: none; stroke: #1f77b4; stroke-width: 1.5"/>
    <path d="M 222.848523 68.615708 
L 222.848523 53.432877 
" clip-path="url(#p8cbe53d8f3)" style="fill: none; stroke: #1f77b4; stroke-width: 1.5"/>
    <path d="M 223.863068 85.101141 
L 223.863068 70.767587 
" clip-path="url(#p8cbe53d8f3)" style="fill: none; stroke: #1f77b4; stroke-width: 1.5"/>
    <path d="M 224.877614 84.707877 
L 224.877614 70.281492 
" clip-path="url(#p8cbe53d8f3)" style="fill: none; stroke: #1f77b4; stroke-width: 1.5"/>
    <path d="M 225.892159 77.41874 
L 225.892159 62.92944 
" clip-path="url(#p8cbe53d8f3)" style="fill: none; stroke: #1f77b4; stroke-width: 1.5"/>
    <path d="M 226.906705 87.889833 
L 226.906705 73.490411 
" clip-path="url(#p8cbe53d8f3)" style="fill: none; stroke: #1f77b4; stroke-width: 1.5"/>
    <path d="M 227.92125 85.949494 
L 227.92125 71.647783 
" clip-path="url(#p8cbe53d8f3)" style="fill: none; stroke: #1f77b4; stroke-width: 1.5"/>
    <path d="M 228.935795 84.703223 
L 228.935795 70.159864 
" clip-path="url(#p8cbe53d8f3)" style="fill: none; stroke: #1f77b4; stroke-width: 1.5"/>
    <path d="M 229.950341 95.545546 
L 229.950341 81.758616 
" clip-path="url(#p8cbe53d8f3)" style="fill: none; stroke: #1f77b4; stroke-width: 1.5"/>
    <path d="M 230.964886 95.821939 
L 230.964886 81.641562 
" clip-path="url(#p8cbe53d8f3)" style="fill: none; stroke: #1f77b4; stroke-width: 1.5"/>
    <path d="M 231.979432 104.429217 
L 231.979432 90.904261 
" clip-path="url(#p8cbe53d8f3)" style="fill: none; stroke: #1f77b4; stroke-width: 1.5"/>
    <path d="M 232.993977 81.977878 
L 232.993977 67.276962 
" clip-path="url(#p8cbe53d8f3)" style="fill: none; stroke: #1f77b4; stroke-width: 1.5"/>
    <path d="M 234.008523 103.459676 
L 234.008523 89.611851 
" clip-path="url(#p8cbe53d8f3)" style="fill: none; stroke: #1f77b4; stroke-width: 1.5"/>
    <path d="M 235.023068 80.308674 
L 235.023068 65.201004 
" clip-path="url(#p8cbe53d8f3)" style="fill: none; stroke: #1f77b4; stroke-width: 1.5"/>
    <path d="M 236.037614 89.491623 
L 236.037614 74.821915 
" clip-path="url(#p8cbe53d8f3)" style="fill: none; stroke: #1f77b4; stroke-width: 1.5"/>
    <path d="M 237.052159 88.032662 
L 237.052159 73.048304 
" clip-path="url(#p8cbe53d8f3)" style="fill: none; stroke: #1f77b4; stroke-width: 1.5"/>
    <path d="M 238.066705 89.970472 
L 238.066705 75.108286 
" clip-path="url(#p8cbe53d8f3)" style="fill: none; stroke: #1f77b4; stroke-width: 1.5"/>
    <path d="M 239.08125 98.952466 
L 239.08125 84.357707 
" clip-path="url(#p8cbe53d8f3)" style="fill: none; stroke: #1f77b4; stroke-width: 1.5"/>
    <path d="M 240.095795 88.249189 
L 240.095795 73.062565 
" clip-path="url(#p8cbe53d8f3)" style="fill: none; stroke: #1f77b4; stroke-width: 1.5"/>
    <path d="M 241.110341 95.212699 
L 241.110341 80.373096 
" clip-path="url(#p8cbe53d8f3)" style="fill: none; stroke: #1f77b4; stroke-width: 1.5"/>
    <path d="M 242.124886 92.087436 
L 242.124886 76.778624 
" clip-path="url(#p8cbe53d8f3)" style="fill: none; stroke: #1f77b4; stroke-width: 1.5"/>
    <path d="M 243.139432 104.557751 
L 243.139432 89.83727 
" clip-path="url(#p8cbe53d8f3)" style="fill: none; stroke: #1f77b4; stroke-width: 1.5"/>
    <path d="M 244.153977 94.399427 
L 244.153977 78.972405 
" clip-path="url(#p8cbe53d8f3)" style="fill: none; stroke: #1f77b4; stroke-width: 1.5"/>
    <path d="M 245.168523 96.267997 
L 245.168523 81.084118 
" clip-path="url(#p8cbe53d8f3)" style="fill: none; stroke: #1f77b4; stroke-width: 1.5"/>
    <path d="M 246.183068 103.149787 
L 246.183068 88.009944 
" clip-path="url(#p8cbe53d8f3)" style="fill: none; stroke: #1f77b4; stroke-width: 1.5"/>
    <path d="M 247.197614 101.821267 
L 247.197614 87.072283 
" clip-path="url(#p8cbe53d8f3)" style="fill: none; stroke: #1f77b4; stroke-width: 1.5"/>
    <path d="M 248.212159 90.420189 
L 248.212159 74.241611 
" clip-path="url(#p8cbe53d8f3)" style="fill: none; stroke: #1f77b4; stroke-width: 1.5"/>
    <path d="M 249.226705 84.565014 
L 249.226705 67.986828 
" clip-path="url(#p8cbe53d8f3)" style="fill: none; stroke: #1f77b4; stroke-width: 1.5"/>
    <path d="M 250.24125 106.31229 
L 250.24125 91.268829 
" clip-path="url(#p8cbe53d8f3)" style="fill: none; stroke: #1f77b4; stroke-width: 1.5"/>
    <path d="M 251.255795 104.261842 
L 251.255795 88.790593 
" clip-path="url(#p8cbe53d8f3)" style="fill: none; stroke: #1f77b4; stroke-width: 1.5"/>
    <path d="M 252.270341 113.088389 
L 252.270341 97.89811 
" clip-path="url(#p8cbe53d8f3)" style="fill: none; stroke: #1f77b4; stroke-width: 1.5"/>
    <path d="M 253.284886 106.880298 
L 253.284886 91.338763 
" clip-path="url(#p8cbe53d8f3)" style="fill: none; stroke: #1f77b4; stroke-width: 1.5"/>
    <path d="M 254.299432 125.067325 
L 254.299432 110.261071 
" clip-path="url(#p8cbe53d8f3)" style="fill: none; stroke: #1f77b4; stroke-width: 1.5"/>
    <path d="M 255.313977 126.10868 
L 255.313977 111.298248 
" clip-path="url(#p8cbe53d8f3)" style="fill: none; stroke: #1f77b4; stroke-width: 1.5"/>
    <path d="M 256.328523 107.246496 
L 256.328523 90.843841 
" clip-path="url(#p8cbe53d8f3)" style="fill: none; stroke: #1f77b4; stroke-width: 1.5"/>
    <path d="M 257.343068 111.661051 
L 257.343068 95.740693 
" clip-path="url(#p8cbe53d8f3)" style="fill: none; stroke: #1f77b4; stroke-width: 1.5"/>
    <path d="M 258.357614 104.305648 
L 258.357614 86.744589 
" clip-path="url(#p8cbe53d8f3)" style="fill: none; stroke: #1f77b4; stroke-width: 1.5"/>
    <path d="M 259.372159 78.547375 
L 259.372159 58.840197 
" clip-path="url(#p8cbe53d8f3)" style="fill: none; stroke: #1f77b4; stroke-width: 1.5"/>
    <path d="M 260.386705 110.882712 
L 260.386705 93.610024 
" clip-path="url(#p8cbe53d8f3)" style="fill: none; stroke: #1f77b4; stroke-width: 1.5"/>
    <path d="M 261.40125 121.230579 
L 261.40125 104.523701 
" clip-path="url(#p8cbe53d8f3)" style="fill: none; stroke: #1f77b4; stroke-width: 1.5"/>
    <path d="M 262.415795 111.797992 
L 262.415795 93.486624 
" clip-path="url(#p8cbe53d8f3)" style="fill: none; stroke: #1f77b4; stroke-width: 1.5"/>
    <path d="M 263.430341 103.155365 
L 263.430341 82.86908 
" clip-path="url(#p8cbe53d8f3)" style="fill: none; stroke: #1f77b4; stroke-width: 1.5"/>
    <path d="M 264.444886 119.652211 
L 264.444886 99.178549 
" clip-path="url(#p8cbe53d8f3)" style="fill: none; stroke: #1f77b4; stroke-width: 1.5"/>
    <path d="M 265.459432 100.41001 
L 265.459432 74.148336 
" clip-path="url(#p8cbe53d8f3)" style="fill: none; stroke: #1f77b4; stroke-width: 1.5"/>
    <path d="M 266.473977 108.09675 
L 266.473977 73.270563 
" clip-path="url(#p8cbe53d8f3)" style="fill: none; stroke: #1f77b4; stroke-width: 1.5"/>
    <path d="M 267.488523 106.402356 
L 267.488523 61.300135 
" clip-path="url(#p8cbe53d8f3)" style="fill: none; stroke: #1f77b4; stroke-width: 1.5"/>
    <path d="M 268.503068 131.619238 
L 268.503068 107.302308 
" clip-path="url(#p8cbe53d8f3)" style="fill: none; stroke: #1f77b4; stroke-width: 1.5"/>
    <path d="M 269.517614 119.629449 
L 269.517614 98.231756 
" clip-path="url(#p8cbe53d8f3)" style="fill: none; stroke: #1f77b4; stroke-width: 1.5"/>
    <path d="M 270.532159 119.054416 
L 270.532159 100.53441 
" clip-path="url(#p8cbe53d8f3)" style="fill: none; stroke: #1f77b4; stroke-width: 1.5"/>
    <path d="M 271.546705 125.385873 
L 271.546705 108.938879 
" clip-path="url(#p8cbe53d8f3)" style="fill: none; stroke: #1f77b4; stroke-width: 1.5"/>
    <path d="M 272.56125 117.357766 
L 272.56125 100.738148 
" clip-path="url(#p8cbe53d8f3)" style="fill: none; stroke: #1f77b4; stroke-width: 1.5"/>
    <path d="M 273.575795 122.105881 
L 273.575795 106.405532 
" clip-path="url(#p8cbe53d8f3)" style="fill: none; stroke: #1f77b4; stroke-width: 1.5"/>
    <path d="M 274.590341 112.214302 
L 274.590341 95.218608 
" clip-path="url(#p8cbe53d8f3)" style="fill: none; stroke: #1f77b4; stroke-width: 1.5"/>
    <path d="M 275.604886 118.008459 
L 275.604886 101.551092 
" clip-path="url(#p8cbe53d8f3)" style="fill: none; stroke: #1f77b4; stroke-width: 1.5"/>
    <path d="M 276.619432 123.744345 
L 276.619432 107.037481 
" clip-path="url(#p8cbe53d8f3)" style="fill: none; stroke: #1f77b4; stroke-width: 1.5"/>
    <path d="M 277.633977 108.894494 
L 277.633977 91.915997 
" clip-path="url(#p8cbe53d8f3)" style="fill: none; stroke: #1f77b4; stroke-width: 1.5"/>
    <path d="M 278.648523 132.393233 
L 278.648523 116.606592 
" clip-path="url(#p8cbe53d8f3)" style="fill: none; stroke: #1f77b4; stroke-width: 1.5"/>
    <path d="M 279.663068 129.984359 
L 279.663068 114.148427 
" clip-path="url(#p8cbe53d8f3)" style="fill: none; stroke: #1f77b4; stroke-width: 1.5"/>
    <path d="M 280.677614 125.429999 
L 280.677614 108.926606 
" clip-path="url(#p8cbe53d8f3)" style="fill: none; stroke: #1f77b4; stroke-width: 1.5"/>
    <path d="M 281.692159 123.579035 
L 281.692159 107.373483 
" clip-path="url(#p8cbe53d8f3)" style="fill: none; stroke: #1f77b4; stroke-width: 1.5"/>
    <path d="M 282.706705 109.891031 
L 282.706705 92.516465 
" clip-path="url(#p8cbe53d8f3)" style="fill: none; stroke: #1f77b4; stroke-width: 1.5"/>
    <path d="M 283.72125 120.412466 
L 283.72125 103.541816 
" clip-path="url(#p8cbe53d8f3)" style="fill: none; stroke: #1f77b4; stroke-width: 1.5"/>
    <path d="M 284.735795 127.866616 
L 284.735795 110.940104 
" clip-path="url(#p8cbe53d8f3)" style="fill: none; stroke: #1f77b4; stroke-width: 1.5"/>
    <path d="M 285.750341 128.731939 
L 285.750341 112.994178 
" clip-path="url(#p8cbe53d8f3)" style="fill: none; stroke: #1f77b4; stroke-width: 1.5"/>
    <path d="M 286.764886 121.995692 
L 286.764886 105.316549 
" clip-path="url(#p8cbe53d8f3)" style="fill: none; stroke: #1f77b4; stroke-width: 1.5"/>
    <path d="M 287.779432 113.115131 
L 287.779432 94.937593 
" clip-path="url(#p8cbe53d8f3)" style="fill: none; stroke: #1f77b4; stroke-width: 1.5"/>
    <path d="M 288.793977 133.367713 
L 288.793977 117.027156 
" clip-path="url(#p8cbe53d8f3)" style="fill: none; stroke: #1f77b4; stroke-width: 1.5"/>
    <path d="M 289.808523 120.630937 
L 289.808523 103.181859 
" clip-path="url(#p8cbe53d8f3)" style="fill: none; stroke: #1f77b4; stroke-width: 1.5"/>
    <path d="M 290.823068 144.179285 
L 290.823068 128.333301 
" clip-path="url(#p8cbe53d8f3)" style="fill: none; stroke: #1f77b4; stroke-width: 1.5"/>
    <path d="M 291.837614 137.105623 
L 291.837614 120.337086 
" clip-path="url(#p8cbe53d8f3)" style="fill: none; stroke: #1f77b4; stroke-width: 1.5"/>
    <path d="M 292.852159 121.244449 
L 292.852159 103.63429 
" clip-path="url(#p8cbe53d8f3)" style="fill: none; stroke: #1f77b4; stroke-width: 1.5"/>
    <path d="M 293.866705 130.308587 
L 293.866705 113.125989 
" clip-path="url(#p8cbe53d8f3)" style="fill: none; stroke: #1f77b4; stroke-width: 1.5"/>
    <path d="M 294.88125 129.360589 
L 294.88125 112.124524 
" clip-path="url(#p8cbe53d8f3)" style="fill: none; stroke: #1f77b4; stroke-width: 1.5"/>
    <path d="M 295.895795 144.718388 
L 295.895795 128.658972 
" clip-path="url(#p8cbe53d8f3)" style="fill: none; stroke: #1f77b4; stroke-width: 1.5"/>
    <path d="M 296.910341 129.905833 
L 296.910341 111.759018 
" clip-path="url(#p8cbe53d8f3)" style="fill: none; stroke: #1f77b4; stroke-width: 1.5"/>
    <path d="M 297.924886 139.942014 
L 297.924886 122.440556 
" clip-path="url(#p8cbe53d8f3)" style="fill: none; stroke: #1f77b4; stroke-width: 1.5"/>
    <path d="M 298.939432 144.433531 
L 298.939432 127.306301 
" clip-path="url(#p8cbe53d8f3)" style="fill: none; stroke: #1f77b4; stroke-width: 1.5"/>
    <path d="M 299.953977 141.517493 
L 299.953977 125.012371 
" clip-path="url(#p8cbe53d8f3)" style="fill: none; stroke: #1f77b4; stroke-width: 1.5"/>
    <path d="M 300.968523 140.083705 
L 300.968523 122.048883 
" clip-path="url(#p8cbe53d8f3)" style="fill: none; stroke: #1f77b4; stroke-width: 1.5"/>
    <path d="M 301.983068 155.011318 
L 301.983068 138.448227 
" clip-path="url(#p8cbe53d8f3)" style="fill: none; stroke: #1f77b4; stroke-width: 1.5"/>
    <path d="M 302.997614 130.982725 
L 302.997614 111.918691 
" clip-path="url(#p8cbe53d8f3)" style="fill: none; stroke: #1f77b4; stroke-width: 1.5"/>
    <path d="M 304.012159 132.086917 
L 304.012159 112.986872 
" clip-path="url(#p8cbe53d8f3)" style="fill: none; stroke: #1f77b4; stroke-width: 1.5"/>
    <path d="M 305.026705 152.292721 
L 305.026705 134.965939 
" clip-path="url(#p8cbe53d8f3)" style="fill: none; stroke: #1f77b4; stroke-width: 1.5"/>
    <path d="M 306.04125 138.759589 
L 306.04125 119.859107 
" clip-path="url(#p8cbe53d8f3)" style="fill: none; stroke: #1f77b4; stroke-width: 1.5"/>
    <path d="M 307.055795 142.873872 
L 307.055795 123.834285 
" clip-path="url(#p8cbe53d8f3)" style="fill: none; stroke: #1f77b4; stroke-width: 1.5"/>
    <path d="M 308.070341 146.187419 
L 308.070341 127.093003 
" clip-path="url(#p8cbe53d8f3)" style="fill: none; stroke: #1f77b4; stroke-width: 1.5"/>
    <path d="M 309.084886 146.736776 
L 309.084886 126.570615 
" clip-path="url(#p8cbe53d8f3)" style="fill: none; stroke: #1f77b4; stroke-width: 1.5"/>
    <path d="M 310.099432 162.26585 
L 310.099432 142.252158 
" clip-path="url(#p8cbe53d8f3)" style="fill: none; stroke: #1f77b4; stroke-width: 1.5"/>
    <path d="M 311.113977 135.948597 
L 311.113977 111.84889 
" clip-path="url(#p8cbe53d8f3)" style="fill: none; stroke: #1f77b4; stroke-width: 1.5"/>
    <path d="M 312.128523 140.704378 
L 312.128523 111.063485 
" clip-path="url(#p8cbe53d8f3)" style="fill: none; stroke: #1f77b4; stroke-width: 1.5"/>
    <path d="M 313.143068 120.783466 
L 313.143068 80.654544 
" clip-path="url(#p8cbe53d8f3)" style="fill: none; stroke: #1f77b4; stroke-width: 1.5"/>
    <path d="M 314.157614 145.404179 
L 314.157614 97.835867 
" clip-path="url(#p8cbe53d8f3)" style="fill: none; stroke: #1f77b4; stroke-width: 1.5"/>
    <path clip-path="url(#p8cbe53d8f3)" style="fill: none; stroke: #1f77b4; stroke-width: 1.5"/>
    <path d="M 316.186705 198.37662 
L 316.186705 159.677653 
" clip-path="url(#p8cbe53d8f3)" style="fill: none; stroke: #1f77b4; stroke-width: 1.5"/>
    <path d="M 317.20125 164.972142 
L 317.20125 139.529045 
" clip-path="url(#p8cbe53d8f3)" style="fill: none; stroke: #1f77b4; stroke-width: 1.5"/>
    <path d="M 318.215795 145.94567 
L 318.215795 121.013949 
" clip-path="url(#p8cbe53d8f3)" style="fill: none; stroke: #1f77b4; stroke-width: 1.5"/>
    <path d="M 319.230341 152.006132 
L 319.230341 130.305717 
" clip-path="url(#p8cbe53d8f3)" style="fill: none; stroke: #1f77b4; stroke-width: 1.5"/>
    <path d="M 320.244886 157.490092 
L 320.244886 137.093016 
" clip-path="url(#p8cbe53d8f3)" style="fill: none; stroke: #1f77b4; stroke-width: 1.5"/>
    <path d="M 321.259432 160.106844 
L 321.259432 141.235834 
" clip-path="url(#p8cbe53d8f3)" style="fill: none; stroke: #1f77b4; stroke-width: 1.5"/>
    <path d="M 322.273977 143.813519 
L 322.273977 121.798252 
" clip-path="url(#p8cbe53d8f3)" style="fill: none; stroke: #1f77b4; stroke-width: 1.5"/>
    <path d="M 323.288523 157.766796 
L 323.288523 137.847441 
" clip-path="url(#p8cbe53d8f3)" style="fill: none; stroke: #1f77b4; stroke-width: 1.5"/>
    <path d="M 324.303068 134.701641 
L 324.303068 112.519273 
" clip-path="url(#p8cbe53d8f3)" style="fill: none; stroke: #1f77b4; stroke-width: 1.5"/>
    <path d="M 325.317614 161.920494 
L 325.317614 142.151935 
" clip-path="url(#p8cbe53d8f3)" style="fill: none; stroke: #1f77b4; stroke-width: 1.5"/>
    <path d="M 326.332159 144.677711 
L 326.332159 123.803337 
" clip-path="url(#p8cbe53d8f3)" style="fill: none; stroke: #1f77b4; stroke-width: 1.5"/>
    <path d="M 327.346705 147.368755 
L 327.346705 126.931273 
" clip-path="url(#p8cbe53d8f3)" style="fill: none; stroke: #1f77b4; stroke-width: 1.5"/>
    <path d="M 328.36125 162.880891 
L 328.36125 144.347123 
" clip-path="url(#p8cbe53d8f3)" style="fill: none; stroke: #1f77b4; stroke-width: 1.5"/>
    <path d="M 329.375795 153.232442 
L 329.375795 132.556595 
" clip-path="url(#p8cbe53d8f3)" style="fill: none; stroke: #1f77b4; stroke-width: 1.5"/>
    <path d="M 330.390341 173.498608 
L 330.390341 155.714927 
" clip-path="url(#p8cbe53d8f3)" style="fill: none; stroke: #1f77b4; stroke-width: 1.5"/>
    <path d="M 331.404886 165.582718 
L 331.404886 147.086362 
" clip-path="url(#p8cbe53d8f3)" style="fill: none; stroke: #1f77b4; stroke-width: 1.5"/>
    <path d="M 332.419432 143.554414 
L 332.419432 122.737714 
" clip-path="url(#p8cbe53d8f3)" style="fill: none; stroke: #1f77b4; stroke-width: 1.5"/>
    <path d="M 333.433977 152.085675 
L 333.433977 131.689984 
" clip-path="url(#p8cbe53d8f3)" style="fill: none; stroke: #1f77b4; stroke-width: 1.5"/>
    <path d="M 334.448523 151.044329 
L 334.448523 131.075329 
" clip-path="url(#p8cbe53d8f3)" style="fill: none; stroke: #1f77b4; stroke-width: 1.5"/>
    <path d="M 335.463068 152.148012 
L 335.463068 131.784716 
" clip-path="url(#p8cbe53d8f3)" style="fill: none; stroke: #1f77b4; stroke-width: 1.5"/>
    <path d="M 336.477614 167.628118 
L 336.477614 149.020729 
" clip-path="url(#p8cbe53d8f3)" style="fill: none; stroke: #1f77b4; stroke-width: 1.5"/>
    <path d="M 337.492159 166.718246 
L 337.492159 147.631017 
" clip-path="url(#p8cbe53d8f3)" style="fill: none; stroke: #1f77b4; stroke-width: 1.5"/>
    <path d="M 338.506705 168.169531 
L 338.506705 150.371952 
" clip-path="url(#p8cbe53d8f3)" style="fill: none; stroke: #1f77b4; stroke-width: 1.5"/>
    <path d="M 339.52125 157.496251 
L 339.52125 137.789745 
" clip-path="url(#p8cbe53d8f3)" style="fill: none; stroke: #1f77b4; stroke-width: 1.5"/>
    <path d="M 340.535795 149.722828 
L 340.535795 128.512041 
" clip-path="url(#p8cbe53d8f3)" style="fill: none; stroke: #1f77b4; stroke-width: 1.5"/>
    <path d="M 341.550341 168.999429 
L 341.550341 149.148487 
" clip-path="url(#p8cbe53d8f3)" style="fill: none; stroke: #1f77b4; stroke-width: 1.5"/>
    <path d="M 342.564886 168.518651 
L 342.564886 149.418326 
" clip-path="url(#p8cbe53d8f3)" style="fill: none; stroke: #1f77b4; stroke-width: 1.5"/>
    <path d="M 343.579432 156.701672 
L 343.579432 136.692824 
" clip-path="url(#p8cbe53d8f3)" style="fill: none; stroke: #1f77b4; stroke-width: 1.5"/>
    <path d="M 344.593977 138.483092 
L 344.593977 115.535267 
" clip-path="url(#p8cbe53d8f3)" style="fill: none; stroke: #1f77b4; stroke-width: 1.5"/>
    <path d="M 345.608523 167.402313 
L 345.608523 148.716745 
" clip-path="url(#p8cbe53d8f3)" style="fill: none; stroke: #1f77b4; stroke-width: 1.5"/>
    <path d="M 346.623068 152.735008 
L 346.623068 132.366415 
" clip-path="url(#p8cbe53d8f3)" style="fill: none; stroke: #1f77b4; stroke-width: 1.5"/>
    <path d="M 347.637614 164.154987 
L 347.637614 144.178496 
" clip-path="url(#p8cbe53d8f3)" style="fill: none; stroke: #1f77b4; stroke-width: 1.5"/>
    <path d="M 348.652159 168.314548 
L 348.652159 147.535539 
" clip-path="url(#p8cbe53d8f3)" style="fill: none; stroke: #1f77b4; stroke-width: 1.5"/>
    <path d="M 349.666705 170.746899 
L 349.666705 150.061831 
" clip-path="url(#p8cbe53d8f3)" style="fill: none; stroke: #1f77b4; stroke-width: 1.5"/>
    <path d="M 350.68125 181.780837 
L 350.68125 163.407459 
" clip-path="url(#p8cbe53d8f3)" style="fill: none; stroke: #1f77b4; stroke-width: 1.5"/>
    <path d="M 351.695795 163.718986 
L 351.695795 141.601739 
" clip-path="url(#p8cbe53d8f3)" style="fill: none; stroke: #1f77b4; stroke-width: 1.5"/>
    <path d="M 352.710341 172.789002 
L 352.710341 151.584739 
" clip-path="url(#p8cbe53d8f3)" style="fill: none; stroke: #1f77b4; stroke-width: 1.5"/>
    <path d="M 353.724886 172.406542 
L 353.724886 150.809788 
" clip-path="url(#p8cbe53d8f3)" style="fill: none; stroke: #1f77b4; stroke-width: 1.5"/>
    <path d="M 354.739432 155.551913 
L 354.739432 132.121642 
" clip-path="url(#p8cbe53d8f3)" style="fill: none; stroke: #1f77b4; stroke-width: 1.5"/>
    <path d="M 355.753977 166.470956 
L 355.753977 143.372053 
" clip-path="url(#p8cbe53d8f3)" style="fill: none; stroke: #1f77b4; stroke-width: 1.5"/>
    <path d="M 356.768523 172.907938 
L 356.768523 150.248364 
" clip-path="url(#p8cbe53d8f3)" style="fill: none; stroke: #1f77b4; stroke-width: 1.5"/>
    <path d="M 357.783068 156.780123 
L 357.783068 131.613004 
" clip-path="url(#p8cbe53d8f3)" style="fill: none; stroke: #1f77b4; stroke-width: 1.5"/>
    <path d="M 358.797614 171.571013 
L 358.797614 145.779209 
" clip-path="url(#p8cbe53d8f3)" style="fill: none; stroke: #1f77b4; stroke-width: 1.5"/>
    <path d="M 359.812159 171.099047 
L 359.812159 142.914579 
" clip-path="url(#p8cbe53d8f3)" style="fill: none; stroke: #1f77b4; stroke-width: 1.5"/>
    <path d="M 360.826705 185.759404 
L 360.826705 157.613999 
" clip-path="url(#p8cbe53d8f3)" style="fill: none; stroke: #1f77b4; stroke-width: 1.5"/>
    <path d="M 361.84125 218.879998 
L 361.84125 187.70518 
" clip-path="url(#p8cbe53d8f3)" style="fill: none; stroke: #1f77b4; stroke-width: 1.5"/>
    <path d="M 362.855795 201.628956 
L 362.855795 133.253438 
" clip-path="url(#p8cbe53d8f3)" style="fill: none; stroke: #1f77b4; stroke-width: 1.5"/>
   </g>
   <g id="patch_3">
    <path d="M 43.78125 228.96 
L 43.78125 7.2 
" style="fill: none; stroke: #000000; stroke-width: 0.8; stroke-linejoin: miter; stroke-linecap: square"/>
   </g>
   <g id="patch_4">
    <path d="M 378.58125 228.96 
L 378.58125 7.2 
" style="fill: none; stroke: #000000; stroke-width: 0.8; stroke-linejoin: miter; stroke-linecap: square"/>
   </g>
   <g id="patch_5">
    <path d="M 43.78125 228.96 
L 378.58125 228.96 
" style="fill: none; stroke: #000000; stroke-width: 0.8; stroke-linejoin: miter; stroke-linecap: square"/>
   </g>
   <g id="patch_6">
    <path d="M 43.78125 7.2 
L 378.58125 7.2 
" style="fill: none; stroke: #000000; stroke-width: 0.8; stroke-linejoin: miter; stroke-linecap: square"/>
   </g>
  </g>
 </g>
 <defs>
  <clipPath id="p8cbe53d8f3">
   <rect x="43.78125" y="7.2" width="334.8" height="221.76"/>
  </clipPath>
 </defs>
</svg>
