<?xml version="1.0" encoding="utf-8" standalone="no"?>
<!DOCTYPE svg PUBLIC "-//W3C//DTD SVG 1.1//EN"
  "http://www.w3.org/Graphics/SVG/1.1/DTD/svg11.dtd">
<svg xmlns:xlink="http://www.w3.org/1999/xlink" width="395.328125pt" height="268.200625pt" viewBox="0 0 395.328125 268.200625" xmlns="http://www.w3.org/2000/svg" version="1.1">
 <metadata>
  <rdf:RDF xmlns:dc="http://purl.org/dc/elements/1.1/" xmlns:cc="http://creativecommons.org/ns#" xmlns:rdf="http://www.w3.org/1999/02/22-rdf-syntax-ns#">
   <cc:Work>
    <dc:type rdf:resource="http://purl.org/dc/dcmitype/StillImage"/>
    <dc:date>2025-11-21T09:43:45.462240</dc:date>
    <dc:format>image/svg+xml</dc:format>
    <dc:creator>
     <cc:Agent>
      <dc:title>Matplotlib v3.10.7, https://matplotlib.org/</dc:title>
     </cc:Agent>
    </dc:creator>
   </cc:Work>
  </rdf:RDF>
 </metadata>
 <defs>
  <style type="text/css">*{stroke-linejoin: round; stroke-linecap: butt}</style>
 </defs>
 <g id="figure_1">
  <g id="patch_1">
   <path d="M 0 268.200625 
L 395.328125 268.200625 
L 395.328125 0 
L 0 0 
z
" style="fill: #ffffff"/>
  </g>
  <g id="axes_1">
   <g id="patch_2">
    <path d="M 53.328125 228.96 
L 388.128125 228.96 
L 388.128125 7.2 
L 53.328125 7.2 
z
" style="fill: #ffffff"/>
   </g>
   <g id="matplotlib.axis_1">
    <g id="xtick_1">
     <g id="line2d_1">
      <defs>
       <path id="mc91d9d7751" d="M 0 0 
L 0 3.5 
" style="stroke: #000000; stroke-width: 0.8"/>
      </defs>
      <g>
       <use xlink:href="#mc91d9d7751" x="104.794862" y="228.96" style="stroke: #000000; stroke-width: 0.8"/>
      </g>
     </g>
     <g id="text_1">
      <!-- 2 -->
      <g transform="translate(101.613612 243.558437) scale(0.1 -0.1)">
       <defs>
        <path id="DejaVuSans-32" d="M 1228 531 
L 3431 531 
L 3431 0 
L 469 0 
L 469 531 
Q 828 903 1448 1529 
Q 2069 2156 2228 2338 
Q 2531 2678 2651 2914 
Q 2772 3150 2772 3378 
Q 2772 3750 2511 3984 
Q 2250 4219 1831 4219 
Q 1534 4219 1204 4116 
Q 875 4013 500 3803 
L 500 4441 
Q 881 4594 1212 4672 
Q 1544 4750 1819 4750 
Q 2544 4750 2975 4387 
Q 3406 4025 3406 3419 
Q 3406 3131 3298 2873 
Q 3191 2616 2906 2266 
Q 2828 2175 2409 1742 
Q 1991 1309 1228 531 
z
" transform="scale(0.015625)"/>
       </defs>
       <use xlink:href="#DejaVuSans-32"/>
      </g>
     </g>
    </g>
    <g id="xtick_2">
     <g id="line2d_2">
      <g>
       <use xlink:href="#mc91d9d7751" x="177.393331" y="228.96" style="stroke: #000000; stroke-width: 0.8"/>
      </g>
     </g>
     <g id="text_2">
      <!-- 4 -->
      <g transform="translate(174.212081 243.558437) scale(0.1 -0.1)">
       <defs>
        <path id="DejaVuSans-34" d="M 2419 4116 
L 825 1625 
L 2419 1625 
L 2419 4116 
z
M 2253 4666 
L 3047 4666 
L 3047 1625 
L 3713 1625 
L 3713 1100 
L 3047 1100 
L 3047 0 
L 2419 0 
L 2419 1100 
L 313 1100 
L 313 1709 
L 2253 4666 
z
" transform="scale(0.015625)"/>
       </defs>
       <use xlink:href="#DejaVuSans-34"/>
      </g>
     </g>
    </g>
    <g id="xtick_3">
     <g id="line2d_3">
      <g>
       <use xlink:href="#mc91d9d7751" x="249.9918" y="228.96" style="stroke: #000000; stroke-width: 0.8"/>
      </g>
     </g>
     <g id="text_3">
      <!-- 6 -->
      <g transform="translate(246.81055 243.558437) scale(0.1 -0.1)">
       <defs>
        <path id="DejaVuSans-36" d="M 2113 2584 
Q 1688 2584 1439 2293 
Q 1191 2003 1191 1497 
Q 1191 994 1439 701 
Q 1688 409 2113 409 
Q 2538 409 2786 701 
Q 3034 994 3034 1497 
Q 3034 2003 2786 2293 
Q 2538 2584 2113 2584 
z
M 3366 4563 
L 3366 3988 
Q 3128 4100 2886 4159 
Q 2644 4219 2406 4219 
Q 1781 4219 1451 3797 
Q 1122 3375 1075 2522 
Q 1259 2794 1537 2939 
Q 1816 3084 2150 3084 
Q 2853 3084 3261 2657 
Q 3669 2231 3669 1497 
Q 3669 778 3244 343 
Q 2819 -91 2113 -91 
Q 1303 -91 875 529 
Q 447 1150 447 2328 
Q 447 3434 972 4092 
Q 1497 4750 2381 4750 
Q 2619 4750 2861 4703 
Q 3103 4656 3366 4563 
z
" transform="scale(0.015625)"/>
       </defs>
       <use xlink:href="#DejaVuSans-36"/>
      </g>
     </g>
    </g>
    <g id="xtick_4">
     <g id="line2d_4">
      <g>
       <use xlink:href="#mc91d9d7751" x="322.590268" y="228.96" style="stroke: #000000; stroke-width: 0.8"/>
      </g>
     </g>
     <g id="text_4">
      <!-- 8 -->
      <g transform="translate(319.409018 243.558437) scale(0.1 -0.1)">
       <defs>
        <path id="DejaVuSans-38" d="M 2034 2216 
Q 1584 2216 1326 1975 
Q 1069 1734 1069 1313 
Q 1069 891 1326 650 
Q 1584 409 2034 409 
Q 2484 409 2743 651 
Q 3003 894 3003 1313 
Q 3003 1734 2745 1975 
Q 2488 2216 2034 2216 
z
M 1403 2484 
Q 997 2584 770 2862 
Q 544 3141 544 3541 
Q 544 4100 942 4425 
Q 1341 4750 2034 4750 
Q 2731 4750 3128 4425 
Q 3525 4100 3525 3541 
Q 3525 3141 3298 2862 
Q 3072 2584 2669 2484 
Q 3125 2378 3379 2068 
Q 3634 1759 3634 1313 
Q 3634 634 3220 271 
Q 2806 -91 2034 -91 
Q 1263 -91 848 271 
Q 434 634 434 1313 
Q 434 1759 690 2068 
Q 947 2378 1403 2484 
z
M 1172 3481 
Q 1172 3119 1398 2916 
Q 1625 2713 2034 2713 
Q 2441 2713 2670 2916 
Q 2900 3119 2900 3481 
Q 2900 3844 2670 4047 
Q 2441 4250 2034 4250 
Q 1625 4250 1398 4047 
Q 1172 3844 1172 3481 
z
" transform="scale(0.015625)"/>
       </defs>
       <use xlink:href="#DejaVuSans-38"/>
      </g>
     </g>
    </g>
    <g id="text_5">
     <!-- wavelength [Å] -->
     <g transform="translate(182.690625 258.920937) scale(0.1 -0.1)">
      <defs>
       <path id="DejaVuSans-77" d="M 269 3500 
L 844 3500 
L 1563 769 
L 2278 3500 
L 2956 3500 
L 3675 769 
L 4391 3500 
L 4966 3500 
L 4050 0 
L 3372 0 
L 2619 2869 
L 1863 0 
L 1184 0 
L 269 3500 
z
" transform="scale(0.015625)"/>
       <path id="DejaVuSans-61" d="M 2194 1759 
Q 1497 1759 1228 1600 
Q 959 1441 959 1056 
Q 959 750 1161 570 
Q 1363 391 1709 391 
Q 2188 391 2477 730 
Q 2766 1069 2766 1631 
L 2766 1759 
L 2194 1759 
z
M 3341 1997 
L 3341 0 
L 2766 0 
L 2766 531 
Q 2569 213 2275 61 
Q 1981 -91 1556 -91 
Q 1019 -91 701 211 
Q 384 513 384 1019 
Q 384 1609 779 1909 
Q 1175 2209 1959 2209 
L 2766 2209 
L 2766 2266 
Q 2766 2663 2505 2880 
Q 2244 3097 1772 3097 
Q 1472 3097 1187 3025 
Q 903 2953 641 2809 
L 641 3341 
Q 956 3463 1253 3523 
Q 1550 3584 1831 3584 
Q 2591 3584 2966 3190 
Q 3341 2797 3341 1997 
z
" transform="scale(0.015625)"/>
       <path id="DejaVuSans-76" d="M 191 3500 
L 800 3500 
L 1894 563 
L 2988 3500 
L 3597 3500 
L 2284 0 
L 1503 0 
L 191 3500 
z
" transform="scale(0.015625)"/>
       <path id="DejaVuSans-65" d="M 3597 1894 
L 3597 1613 
L 953 1613 
Q 991 1019 1311 708 
Q 1631 397 2203 397 
Q 2534 397 2845 478 
Q 3156 559 3463 722 
L 3463 178 
Q 3153 47 2828 -22 
Q 2503 -91 2169 -91 
Q 1331 -91 842 396 
Q 353 884 353 1716 
Q 353 2575 817 3079 
Q 1281 3584 2069 3584 
Q 2775 3584 3186 3129 
Q 3597 2675 3597 1894 
z
M 3022 2063 
Q 3016 2534 2758 2815 
Q 2500 3097 2075 3097 
Q 1594 3097 1305 2825 
Q 1016 2553 972 2059 
L 3022 2063 
z
" transform="scale(0.015625)"/>
       <path id="DejaVuSans-6c" d="M 603 4863 
L 1178 4863 
L 1178 0 
L 603 0 
L 603 4863 
z
" transform="scale(0.015625)"/>
       <path id="DejaVuSans-6e" d="M 3513 2113 
L 3513 0 
L 2938 0 
L 2938 2094 
Q 2938 2591 2744 2837 
Q 2550 3084 2163 3084 
Q 1697 3084 1428 2787 
Q 1159 2491 1159 1978 
L 1159 0 
L 581 0 
L 581 3500 
L 1159 3500 
L 1159 2956 
Q 1366 3272 1645 3428 
Q 1925 3584 2291 3584 
Q 2894 3584 3203 3211 
Q 3513 2838 3513 2113 
z
" transform="scale(0.015625)"/>
       <path id="DejaVuSans-67" d="M 2906 1791 
Q 2906 2416 2648 2759 
Q 2391 3103 1925 3103 
Q 1463 3103 1205 2759 
Q 947 2416 947 1791 
Q 947 1169 1205 825 
Q 1463 481 1925 481 
Q 2391 481 2648 825 
Q 2906 1169 2906 1791 
z
M 3481 434 
Q 3481 -459 3084 -895 
Q 2688 -1331 1869 -1331 
Q 1566 -1331 1297 -1286 
Q 1028 -1241 775 -1147 
L 775 -588 
Q 1028 -725 1275 -790 
Q 1522 -856 1778 -856 
Q 2344 -856 2625 -561 
Q 2906 -266 2906 331 
L 2906 616 
Q 2728 306 2450 153 
Q 2172 0 1784 0 
Q 1141 0 747 490 
Q 353 981 353 1791 
Q 353 2603 747 3093 
Q 1141 3584 1784 3584 
Q 2172 3584 2450 3431 
Q 2728 3278 2906 2969 
L 2906 3500 
L 3481 3500 
L 3481 434 
z
" transform="scale(0.015625)"/>
       <path id="DejaVuSans-74" d="M 1172 4494 
L 1172 3500 
L 2356 3500 
L 2356 3053 
L 1172 3053 
L 1172 1153 
Q 1172 725 1289 603 
Q 1406 481 1766 481 
L 2356 481 
L 2356 0 
L 1766 0 
Q 1100 0 847 248 
Q 594 497 594 1153 
L 594 3053 
L 172 3053 
L 172 3500 
L 594 3500 
L 594 4494 
L 1172 4494 
z
" transform="scale(0.015625)"/>
       <path id="DejaVuSans-68" d="M 3513 2113 
L 3513 0 
L 2938 0 
L 2938 2094 
Q 2938 2591 2744 2837 
Q 2550 3084 2163 3084 
Q 1697 3084 1428 2787 
Q 1159 2491 1159 1978 
L 1159 0 
L 581 0 
L 581 4863 
L 1159 4863 
L 1159 2956 
Q 1366 3272 1645 3428 
Q 1925 3584 2291 3584 
Q 2894 3584 3203 3211 
Q 3513 2838 3513 2113 
z
" transform="scale(0.015625)"/>
       <path id="DejaVuSans-20" transform="scale(0.015625)"/>
       <path id="DejaVuSans-5b" d="M 550 4863 
L 1875 4863 
L 1875 4416 
L 1125 4416 
L 1125 -397 
L 1875 -397 
L 1875 -844 
L 550 -844 
L 550 4863 
z
" transform="scale(0.015625)"/>
       <path id="DejaVuSans-c5" d="M 2663 5081 
Q 2663 5278 2523 5417 
Q 2384 5556 2188 5556 
Q 1988 5556 1852 5420 
Q 1716 5284 1716 5081 
Q 1716 4884 1853 4746 
Q 1991 4609 2188 4609 
Q 2384 4609 2523 4746 
Q 2663 4884 2663 5081 
z
M 2188 4044 
L 1338 1722 
L 3041 1722 
L 2188 4044 
z
M 1716 4366 
Q 1525 4494 1428 4673 
Q 1331 4853 1331 5081 
Q 1331 5441 1579 5691 
Q 1828 5941 2188 5941 
Q 2544 5941 2795 5689 
Q 3047 5438 3047 5081 
Q 3047 4863 2948 4678 
Q 2850 4494 2663 4366 
L 4325 0 
L 3669 0 
L 3244 1197 
L 1141 1197 
L 716 0 
L 50 0 
L 1716 4366 
z
" transform="scale(0.015625)"/>
       <path id="DejaVuSans-5d" d="M 1947 4863 
L 1947 -844 
L 622 -844 
L 622 -397 
L 1369 -397 
L 1369 4416 
L 622 4416 
L 622 4863 
L 1947 4863 
z
" transform="scale(0.015625)"/>
      </defs>
      <use xlink:href="#DejaVuSans-77"/>
      <use xlink:href="#DejaVuSans-61" transform="translate(81.787109 0)"/>
      <use xlink:href="#DejaVuSans-76" transform="translate(143.066406 0)"/>
      <use xlink:href="#DejaVuSans-65" transform="translate(202.246094 0)"/>
      <use xlink:href="#DejaVuSans-6c" transform="translate(263.769531 0)"/>
      <use xlink:href="#DejaVuSans-65" transform="translate(291.552734 0)"/>
      <use xlink:href="#DejaVuSans-6e" transform="translate(353.076172 0)"/>
      <use xlink:href="#DejaVuSans-67" transform="translate(416.455078 0)"/>
      <use xlink:href="#DejaVuSans-74" transform="translate(479.931641 0)"/>
      <use xlink:href="#DejaVuSans-68" transform="translate(519.140625 0)"/>
      <use xlink:href="#DejaVuSans-20" transform="translate(582.519531 0)"/>
      <use xlink:href="#DejaVuSans-5b" transform="translate(614.306641 0)"/>
      <use xlink:href="#DejaVuSans-c5" transform="translate(653.320312 0)"/>
      <use xlink:href="#DejaVuSans-5d" transform="translate(721.728516 0)"/>
     </g>
    </g>
   </g>
   <g id="matplotlib.axis_2">
    <g id="ytick_1">
     <g id="line2d_5">
      <defs>
       <path id="md95a23b723" d="M 0 0 
L -3.5 0 
" style="stroke: #000000; stroke-width: 0.8"/>
      </defs>
      <g>
       <use xlink:href="#md95a23b723" x="53.328125" y="218.88" style="stroke: #000000; stroke-width: 0.8"/>
      </g>
     </g>
     <g id="text_6">
      <!-- 0 -->
      <g transform="translate(39.965625 222.679219) scale(0.1 -0.1)">
       <defs>
        <path id="DejaVuSans-30" d="M 2034 4250 
Q 1547 4250 1301 3770 
Q 1056 3291 1056 2328 
Q 1056 1369 1301 889 
Q 1547 409 2034 409 
Q 2525 409 2770 889 
Q 3016 1369 3016 2328 
Q 3016 3291 2770 3770 
Q 2525 4250 2034 4250 
z
M 2034 4750 
Q 2819 4750 3233 4129 
Q 3647 3509 3647 2328 
Q 3647 1150 3233 529 
Q 2819 -91 2034 -91 
Q 1250 -91 836 529 
Q 422 1150 422 2328 
Q 422 3509 836 4129 
Q 1250 4750 2034 4750 
z
" transform="scale(0.015625)"/>
       </defs>
       <use xlink:href="#DejaVuSans-30"/>
      </g>
     </g>
    </g>
    <g id="ytick_2">
     <g id="line2d_6">
      <g>
       <use xlink:href="#md95a23b723" x="53.328125" y="191.236676" style="stroke: #000000; stroke-width: 0.8"/>
      </g>
     </g>
     <g id="text_7">
      <!-- 1000 -->
      <g transform="translate(20.878125 195.035894) scale(0.1 -0.1)">
       <defs>
        <path id="DejaVuSans-31" d="M 794 531 
L 1825 531 
L 1825 4091 
L 703 3866 
L 703 4441 
L 1819 4666 
L 2450 4666 
L 2450 531 
L 3481 531 
L 3481 0 
L 794 0 
L 794 531 
z
" transform="scale(0.015625)"/>
       </defs>
       <use xlink:href="#DejaVuSans-31"/>
       <use xlink:href="#DejaVuSans-30" transform="translate(63.623047 0)"/>
       <use xlink:href="#DejaVuSans-30" transform="translate(127.246094 0)"/>
       <use xlink:href="#DejaVuSans-30" transform="translate(190.869141 0)"/>
      </g>
     </g>
    </g>
    <g id="ytick_3">
     <g id="line2d_7">
      <g>
       <use xlink:href="#md95a23b723" x="53.328125" y="163.593351" style="stroke: #000000; stroke-width: 0.8"/>
      </g>
     </g>
     <g id="text_8">
      <!-- 2000 -->
      <g transform="translate(20.878125 167.39257) scale(0.1 -0.1)">
       <use xlink:href="#DejaVuSans-32"/>
       <use xlink:href="#DejaVuSans-30" transform="translate(63.623047 0)"/>
       <use xlink:href="#DejaVuSans-30" transform="translate(127.246094 0)"/>
       <use xlink:href="#DejaVuSans-30" transform="translate(190.869141 0)"/>
      </g>
     </g>
    </g>
    <g id="ytick_4">
     <g id="line2d_8">
      <g>
       <use xlink:href="#md95a23b723" x="53.328125" y="135.950026" style="stroke: #000000; stroke-width: 0.8"/>
      </g>
     </g>
     <g id="text_9">
      <!-- 3000 -->
      <g transform="translate(20.878125 139.749245) scale(0.1 -0.1)">
       <defs>
        <path id="DejaVuSans-33" d="M 2597 2516 
Q 3050 2419 3304 2112 
Q 3559 1806 3559 1356 
Q 3559 666 3084 287 
Q 2609 -91 1734 -91 
Q 1441 -91 1130 -33 
Q 819 25 488 141 
L 488 750 
Q 750 597 1062 519 
Q 1375 441 1716 441 
Q 2309 441 2620 675 
Q 2931 909 2931 1356 
Q 2931 1769 2642 2001 
Q 2353 2234 1838 2234 
L 1294 2234 
L 1294 2753 
L 1863 2753 
Q 2328 2753 2575 2939 
Q 2822 3125 2822 3475 
Q 2822 3834 2567 4026 
Q 2313 4219 1838 4219 
Q 1578 4219 1281 4162 
Q 984 4106 628 3988 
L 628 4550 
Q 988 4650 1302 4700 
Q 1616 4750 1894 4750 
Q 2613 4750 3031 4423 
Q 3450 4097 3450 3541 
Q 3450 3153 3228 2886 
Q 3006 2619 2597 2516 
z
" transform="scale(0.015625)"/>
       </defs>
       <use xlink:href="#DejaVuSans-33"/>
       <use xlink:href="#DejaVuSans-30" transform="translate(63.623047 0)"/>
       <use xlink:href="#DejaVuSans-30" transform="translate(127.246094 0)"/>
       <use xlink:href="#DejaVuSans-30" transform="translate(190.869141 0)"/>
      </g>
     </g>
    </g>
    <g id="ytick_5">
     <g id="line2d_9">
      <g>
       <use xlink:href="#md95a23b723" x="53.328125" y="108.306702" style="stroke: #000000; stroke-width: 0.8"/>
      </g>
     </g>
     <g id="text_10">
      <!-- 4000 -->
      <g transform="translate(20.878125 112.10592) scale(0.1 -0.1)">
       <use xlink:href="#DejaVuSans-34"/>
       <use xlink:href="#DejaVuSans-30" transform="translate(63.623047 0)"/>
       <use xlink:href="#DejaVuSans-30" transform="translate(127.246094 0)"/>
       <use xlink:href="#DejaVuSans-30" transform="translate(190.869141 0)"/>
      </g>
     </g>
    </g>
    <g id="ytick_6">
     <g id="line2d_10">
      <g>
       <use xlink:href="#md95a23b723" x="53.328125" y="80.663377" style="stroke: #000000; stroke-width: 0.8"/>
      </g>
     </g>
     <g id="text_11">
      <!-- 5000 -->
      <g transform="translate(20.878125 84.462596) scale(0.1 -0.1)">
       <defs>
        <path id="DejaVuSans-35" d="M 691 4666 
L 3169 4666 
L 3169 4134 
L 1269 4134 
L 1269 2991 
Q 1406 3038 1543 3061 
Q 1681 3084 1819 3084 
Q 2600 3084 3056 2656 
Q 3513 2228 3513 1497 
Q 3513 744 3044 326 
Q 2575 -91 1722 -91 
Q 1428 -91 1123 -41 
Q 819 9 494 109 
L 494 744 
Q 775 591 1075 516 
Q 1375 441 1709 441 
Q 2250 441 2565 725 
Q 2881 1009 2881 1497 
Q 2881 1984 2565 2268 
Q 2250 2553 1709 2553 
Q 1456 2553 1204 2497 
Q 953 2441 691 2322 
L 691 4666 
z
" transform="scale(0.015625)"/>
       </defs>
       <use xlink:href="#DejaVuSans-35"/>
       <use xlink:href="#DejaVuSans-30" transform="translate(63.623047 0)"/>
       <use xlink:href="#DejaVuSans-30" transform="translate(127.246094 0)"/>
       <use xlink:href="#DejaVuSans-30" transform="translate(190.869141 0)"/>
      </g>
     </g>
    </g>
    <g id="ytick_7">
     <g id="line2d_11">
      <g>
       <use xlink:href="#md95a23b723" x="53.328125" y="53.020052" style="stroke: #000000; stroke-width: 0.8"/>
      </g>
     </g>
     <g id="text_12">
      <!-- 6000 -->
      <g transform="translate(20.878125 56.819271) scale(0.1 -0.1)">
       <use xlink:href="#DejaVuSans-36"/>
       <use xlink:href="#DejaVuSans-30" transform="translate(63.623047 0)"/>
       <use xlink:href="#DejaVuSans-30" transform="translate(127.246094 0)"/>
       <use xlink:href="#DejaVuSans-30" transform="translate(190.869141 0)"/>
      </g>
     </g>
    </g>
    <g id="ytick_8">
     <g id="line2d_12">
      <g>
       <use xlink:href="#md95a23b723" x="53.328125" y="25.376728" style="stroke: #000000; stroke-width: 0.8"/>
      </g>
     </g>
     <g id="text_13">
      <!-- 7000 -->
      <g transform="translate(20.878125 29.175946) scale(0.1 -0.1)">
       <defs>
        <path id="DejaVuSans-37" d="M 525 4666 
L 3525 4666 
L 3525 4397 
L 1831 0 
L 1172 0 
L 2766 4134 
L 525 4134 
L 525 4666 
z
" transform="scale(0.015625)"/>
       </defs>
       <use xlink:href="#DejaVuSans-37"/>
       <use xlink:href="#DejaVuSans-30" transform="translate(63.623047 0)"/>
       <use xlink:href="#DejaVuSans-30" transform="translate(127.246094 0)"/>
       <use xlink:href="#DejaVuSans-30" transform="translate(190.869141 0)"/>
      </g>
     </g>
    </g>
    <g id="text_14">
     <!-- [counts] -->
     <g transform="translate(14.798438 138.6925) rotate(-90) scale(0.1 -0.1)">
      <defs>
       <path id="DejaVuSans-63" d="M 3122 3366 
L 3122 2828 
Q 2878 2963 2633 3030 
Q 2388 3097 2138 3097 
Q 1578 3097 1268 2742 
Q 959 2388 959 1747 
Q 959 1106 1268 751 
Q 1578 397 2138 397 
Q 2388 397 2633 464 
Q 2878 531 3122 666 
L 3122 134 
Q 2881 22 2623 -34 
Q 2366 -91 2075 -91 
Q 1284 -91 818 406 
Q 353 903 353 1747 
Q 353 2603 823 3093 
Q 1294 3584 2113 3584 
Q 2378 3584 2631 3529 
Q 2884 3475 3122 3366 
z
" transform="scale(0.015625)"/>
       <path id="DejaVuSans-6f" d="M 1959 3097 
Q 1497 3097 1228 2736 
Q 959 2375 959 1747 
Q 959 1119 1226 758 
Q 1494 397 1959 397 
Q 2419 397 2687 759 
Q 2956 1122 2956 1747 
Q 2956 2369 2687 2733 
Q 2419 3097 1959 3097 
z
M 1959 3584 
Q 2709 3584 3137 3096 
Q 3566 2609 3566 1747 
Q 3566 888 3137 398 
Q 2709 -91 1959 -91 
Q 1206 -91 779 398 
Q 353 888 353 1747 
Q 353 2609 779 3096 
Q 1206 3584 1959 3584 
z
" transform="scale(0.015625)"/>
       <path id="DejaVuSans-75" d="M 544 1381 
L 544 3500 
L 1119 3500 
L 1119 1403 
Q 1119 906 1312 657 
Q 1506 409 1894 409 
Q 2359 409 2629 706 
Q 2900 1003 2900 1516 
L 2900 3500 
L 3475 3500 
L 3475 0 
L 2900 0 
L 2900 538 
Q 2691 219 2414 64 
Q 2138 -91 1772 -91 
Q 1169 -91 856 284 
Q 544 659 544 1381 
z
M 1991 3584 
L 1991 3584 
z
" transform="scale(0.015625)"/>
       <path id="DejaVuSans-73" d="M 2834 3397 
L 2834 2853 
Q 2591 2978 2328 3040 
Q 2066 3103 1784 3103 
Q 1356 3103 1142 2972 
Q 928 2841 928 2578 
Q 928 2378 1081 2264 
Q 1234 2150 1697 2047 
L 1894 2003 
Q 2506 1872 2764 1633 
Q 3022 1394 3022 966 
Q 3022 478 2636 193 
Q 2250 -91 1575 -91 
Q 1294 -91 989 -36 
Q 684 19 347 128 
L 347 722 
Q 666 556 975 473 
Q 1284 391 1588 391 
Q 1994 391 2212 530 
Q 2431 669 2431 922 
Q 2431 1156 2273 1281 
Q 2116 1406 1581 1522 
L 1381 1569 
Q 847 1681 609 1914 
Q 372 2147 372 2553 
Q 372 3047 722 3315 
Q 1072 3584 1716 3584 
Q 2034 3584 2315 3537 
Q 2597 3491 2834 3397 
z
" transform="scale(0.015625)"/>
      </defs>
      <use xlink:href="#DejaVuSans-5b"/>
      <use xlink:href="#DejaVuSans-63" transform="translate(39.013672 0)"/>
      <use xlink:href="#DejaVuSans-6f" transform="translate(93.994141 0)"/>
      <use xlink:href="#DejaVuSans-75" transform="translate(155.175781 0)"/>
      <use xlink:href="#DejaVuSans-6e" transform="translate(218.554688 0)"/>
      <use xlink:href="#DejaVuSans-74" transform="translate(281.933594 0)"/>
      <use xlink:href="#DejaVuSans-73" transform="translate(321.142578 0)"/>
      <use xlink:href="#DejaVuSans-5d" transform="translate(373.242188 0)"/>
     </g>
    </g>
   </g>
   <g id="line2d_13">
    <path d="M 68.546307 186.28852 
L 69.560852 186.28852 
L 69.560852 172.992081 
L 70.575398 172.992081 
L 70.575398 168.209786 
L 71.589943 168.209786 
L 71.589943 156.93131 
L 72.604489 156.93131 
L 72.604489 142.473851 
L 73.619034 142.473851 
L 73.619034 137.470409 
L 74.63358 137.470409 
L 74.63358 136.862256 
L 75.648125 136.862256 
L 75.648125 130.725438 
L 76.66267 130.725438 
L 76.66267 128.735119 
L 77.677216 128.735119 
L 77.677216 125.196773 
L 78.691761 125.196773 
L 78.691761 124.947983 
L 79.706307 124.947983 
L 79.706307 127.739959 
L 80.720852 127.739959 
L 80.720852 122.653587 
L 81.735398 122.653587 
L 81.735398 121.851931 
L 82.749943 121.851931 
L 82.749943 120.110401 
L 83.764489 120.110401 
L 83.764489 121.243778 
L 84.779034 121.243778 
L 84.779034 122.211294 
L 85.79358 122.211294 
L 85.79358 120.248618 
L 86.808125 120.248618 
L 86.808125 121.188491 
L 87.82267 121.188491 
L 87.82267 122.76416 
L 88.837216 122.76416 
L 88.837216 124.892696 
L 89.851761 124.892696 
L 89.851761 123.068237 
L 90.866307 123.068237 
L 90.866307 126.772443 
L 91.880852 126.772443 
L 91.880852 123.17881 
L 92.895398 123.17881 
L 92.895398 125.224416 
L 93.909943 125.224416 
L 93.909943 128.044035 
L 94.924489 128.044035 
L 94.924489 129.094482 
L 95.939034 129.094482 
L 95.939034 125.998429 
L 96.95358 125.998429 
L 96.95358 127.352952 
L 97.968125 127.352952 
L 97.968125 131.554738 
L 98.98267 131.554738 
L 98.98267 129.177412 
L 101.011761 129.287985 
L 101.011761 130.366075 
L 102.026307 130.366075 
L 102.026307 130.504291 
L 103.040852 130.504291 
L 103.040852 132.135247 
L 104.055398 132.135247 
L 104.055398 131.527094 
L 105.069943 131.527094 
L 105.069943 135.81181 
L 106.084489 135.81181 
L 106.084489 132.245821 
L 107.099034 132.245821 
L 107.099034 129.840852 
L 108.11358 129.840852 
L 108.11358 130.200215 
L 109.128125 130.200215 
L 109.128125 131.941744 
L 110.14267 131.941744 
L 110.14267 130.061998 
L 111.157216 130.061998 
L 111.157216 125.362633 
L 112.171761 125.362633 
L 112.171761 124.809766 
L 113.186307 124.809766 
L 113.186307 123.75932 
L 114.200852 123.75932 
L 114.200852 126.164289 
L 115.215398 126.164289 
L 115.215398 125.362633 
L 116.229943 125.362633 
L 116.229943 124.83741 
L 117.244489 124.83741 
L 117.244489 126.827729 
L 119.27358 126.827729 
L 119.27358 129.453845 
L 120.288125 129.453845 
L 120.288125 139.322512 
L 121.30267 139.322512 
L 121.30267 159.308636 
L 122.317216 159.308636 
L 122.317216 165.141377 
L 123.331761 165.141377 
L 123.331761 126.468366 
L 124.346307 126.468366 
L 124.346307 112.53613 
L 125.360852 112.53613 
L 125.360852 103.662623 
L 126.375398 103.662623 
L 126.375398 82.18376 
L 127.389943 82.18376 
L 127.389943 55.093302 
L 128.404489 55.093302 
L 128.404489 46.081578 
L 129.419034 46.081578 
L 129.419034 42.128582 
L 130.43358 42.128582 
L 130.43358 39.86183 
L 131.448125 39.86183 
L 131.448125 43.455462 
L 132.46267 43.455462 
L 132.46267 36.240554 
L 133.477216 36.240554 
L 133.477216 37.097497 
L 134.491761 37.097497 
L 134.491761 37.95444 
L 135.506307 37.95444 
L 135.506307 33.061572 
L 136.520852 33.061572 
L 136.520852 31.485902 
L 137.535398 31.485902 
L 137.535398 32.978642 
L 138.549943 32.978642 
L 138.549943 32.370489 
L 139.564489 32.370489 
L 139.564489 23.801058 
L 140.579034 23.801058 
L 140.579034 19.958636 
L 141.59358 19.958636 
L 141.59358 26.924754 
L 142.608125 26.924754 
L 142.608125 23.275835 
L 143.62267 23.275835 
L 143.62267 27.422334 
L 144.637216 27.422334 
L 144.637216 28.610997 
L 145.651761 28.610997 
L 145.651761 24.796218 
L 146.666307 24.796218 
L 146.666307 22.004242 
L 147.680852 22.004242 
L 147.680852 19.626916 
L 148.695398 19.626916 
L 148.695398 23.911632 
L 149.709943 23.911632 
L 149.709943 29.13622 
L 150.724489 29.13622 
L 150.724489 25.901951 
L 151.739034 25.901951 
L 151.739034 27.007684 
L 152.75358 27.007684 
L 152.75358 25.017365 
L 153.768125 25.017365 
L 153.768125 29.689086 
L 154.78267 29.689086 
L 154.78267 28.05813 
L 156.811761 28.168704 
L 156.811761 33.973802 
L 157.826307 33.973802 
L 157.826307 31.071253 
L 158.840852 31.071253 
L 158.840852 37.843867 
L 159.855398 37.843867 
L 159.855398 31.154183 
L 160.869943 31.154183 
L 160.869943 37.595077 
L 161.884489 37.595077 
L 161.884489 43.925399 
L 162.899034 43.925399 
L 162.899034 41.658646 
L 163.91358 41.658646 
L 163.91358 51.278523 
L 164.928125 51.278523 
L 164.928125 48.84591 
L 165.94267 48.84591 
L 165.94267 53.268842 
L 166.957216 53.268842 
L 166.957216 55.590882 
L 167.971761 55.590882 
L 167.971761 64.270886 
L 168.986307 64.270886 
L 168.986307 72.757386 
L 170.000852 72.757386 
L 170.000852 74.471272 
L 171.015398 74.471272 
L 171.015398 78.645414 
L 172.029943 78.645414 
L 172.029943 88.210005 
L 173.044489 88.210005 
L 173.044489 102.39103 
L 174.059034 102.39103 
L 174.059034 115.272819 
L 175.07358 115.272819 
L 175.07358 132.356394 
L 176.088125 132.356394 
L 176.088125 153.144174 
L 177.10267 153.144174 
L 177.10267 106.122879 
L 178.117216 106.122879 
L 178.117216 98.825041 
L 179.131761 98.825041 
L 179.131761 108.555492 
L 180.146307 108.555492 
L 180.146307 86.164399 
L 181.160852 86.164399 
L 181.160852 74.664776 
L 182.175398 74.664776 
L 182.175398 67.090505 
L 183.189943 67.090505 
L 183.189943 60.31789 
L 184.204489 60.31789 
L 184.204489 67.394581 
L 185.219034 67.394581 
L 185.219034 62.05942 
L 186.23358 62.05942 
L 186.23358 66.814071 
L 187.248125 66.814071 
L 187.248125 61.64477 
L 188.26267 61.64477 
L 188.26267 64.906682 
L 189.277216 64.906682 
L 189.277216 58.659291 
L 190.291761 58.659291 
L 190.291761 62.004133 
L 191.306307 62.004133 
L 191.306307 68.666174 
L 192.320852 68.666174 
L 192.320852 65.238402 
L 193.335398 65.238402 
L 193.335398 67.975091 
L 194.349943 67.975091 
L 194.349943 66.592925 
L 195.364489 66.592925 
L 195.364489 73.282609 
L 196.379034 73.282609 
L 196.379034 72.03866 
L 197.39358 72.03866 
L 197.39358 74.498916 
L 198.408125 74.498916 
L 198.408125 73.365539 
L 199.42267 73.365539 
L 199.42267 75.189999 
L 200.437216 75.189999 
L 200.437216 77.263248 
L 201.451761 77.263248 
L 201.451761 80.635734 
L 202.466307 80.635734 
L 202.466307 78.645414 
L 203.480852 78.645414 
L 203.480852 83.510639 
L 204.495398 83.510639 
L 204.495398 82.0179 
L 205.509943 82.0179 
L 205.509943 84.146436 
L 206.524489 84.146436 
L 206.524489 86.938412 
L 207.539034 86.938412 
L 207.539034 89.785674 
L 208.55358 89.785674 
L 208.55358 93.683383 
L 209.568125 93.683383 
L 209.568125 93.959816 
L 210.58267 93.959816 
L 210.58267 91.803637 
L 211.597216 91.803637 
L 211.597216 93.8216 
L 212.611761 93.8216 
L 212.611761 97.746952 
L 213.626307 97.746952 
L 213.626307 97.249372 
L 214.640852 97.249372 
L 214.640852 103.911413 
L 215.655398 103.911413 
L 215.655398 107.449759 
L 216.669943 107.449759 
L 216.669943 107.200969 
L 217.684489 107.200969 
L 217.684489 110.490524 
L 218.699034 110.490524 
L 218.699034 114.802883 
L 219.71358 114.802883 
L 219.71358 122.68123 
L 220.728125 122.68123 
L 220.728125 120.386835 
L 221.74267 120.386835 
L 221.74267 131.305948 
L 222.757216 131.305948 
L 222.757216 130.670151 
L 223.771761 130.670151 
L 223.771761 134.31907 
L 224.786307 134.31907 
L 224.786307 140.483532 
L 225.800852 140.483532 
L 225.800852 152.923028 
L 226.815398 152.923028 
L 226.815398 168.486219 
L 227.829943 168.486219 
L 227.829943 183.579475 
L 228.844489 183.579475 
L 228.844489 187.753617 
L 229.859034 187.753617 
L 229.859034 168.348003 
L 230.87358 168.348003 
L 230.87358 149.633472 
L 231.888125 149.633472 
L 231.888125 135.369516 
L 232.90267 135.369516 
L 232.90267 122.985307 
L 233.917216 122.985307 
L 233.917216 120.442121 
L 234.931761 120.442121 
L 234.931761 119.281102 
L 235.946307 119.281102 
L 235.946307 122.238937 
L 236.960852 122.238937 
L 236.960852 117.622502 
L 237.975398 117.622502 
L 237.975398 119.446961 
L 238.989943 119.446961 
L 238.989943 120.552694 
L 240.004489 120.552694 
L 240.004489 119.999828 
L 241.019034 119.999828 
L 241.019034 120.165688 
L 242.03358 120.165688 
L 242.03358 125.16913 
L 243.048125 125.16913 
L 243.048125 119.502248 
L 244.06267 119.502248 
L 244.06267 120.442121 
L 245.077216 120.442121 
L 245.077216 127.905819 
L 246.091761 127.905819 
L 246.091761 122.653587 
L 247.106307 122.653587 
L 247.106307 127.380596 
L 248.120852 127.380596 
L 248.120852 129.205055 
L 249.135398 129.205055 
L 249.135398 129.398558 
L 250.149943 129.398558 
L 250.149943 131.388878 
L 252.179034 131.361234 
L 252.179034 133.047477 
L 253.19358 133.047477 
L 253.19358 135.673593 
L 254.208125 135.673593 
L 254.208125 134.457287 
L 255.22267 134.457287 
L 255.22267 138.686715 
L 256.237216 138.686715 
L 256.237216 135.507733 
L 257.251761 135.507733 
L 257.251761 135.286586 
L 258.266307 135.286586 
L 258.266307 139.405442 
L 259.280852 139.405442 
L 259.280852 142.169774 
L 260.295398 142.169774 
L 260.295398 141.478691 
L 261.309943 141.478691 
L 261.309943 140.566461 
L 262.324489 140.566461 
L 262.324489 143.026717 
L 263.339034 143.026717 
L 263.339034 144.574744 
L 264.35358 144.574744 
L 264.35358 145.29347 
L 265.368125 145.29347 
L 265.368125 149.163535 
L 266.38267 149.163535 
L 266.38267 148.278949 
L 267.397216 148.278949 
L 267.397216 152.093728 
L 268.411761 152.093728 
L 268.411761 154.996277 
L 269.426307 154.996277 
L 269.426307 160.442012 
L 270.440852 160.442012 
L 270.440852 160.718445 
L 271.455398 160.718445 
L 271.455398 159.308636 
L 272.469943 159.308636 
L 272.469943 164.312077 
L 273.484489 164.312077 
L 273.484489 171.775775 
L 274.499034 171.775775 
L 274.499034 176.502784 
L 275.51358 176.502784 
L 275.51358 185.210431 
L 276.528125 185.210431 
L 276.528125 198.09222 
L 277.54267 198.09222 
L 277.54267 212.522036 
L 278.557216 212.522036 
L 278.557216 196.350691 
L 279.571761 196.350691 
L 279.571761 187.753617 
L 280.586307 187.753617 
L 280.586307 174.512464 
L 281.600852 174.512464 
L 281.600852 164.892587 
L 282.615398 164.892587 
L 282.615398 159.032202 
L 283.629943 159.032202 
L 283.629943 154.028761 
L 284.644489 154.028761 
L 284.644489 155.5215 
L 285.659034 155.5215 
L 285.659034 158.562266 
L 286.67358 158.562266 
L 286.67358 158.838699 
L 287.688125 158.838699 
L 287.688125 160.469655 
L 288.70267 160.469655 
L 288.70267 155.576787 
L 289.717216 155.576787 
L 289.717216 159.391566 
L 290.731761 159.391566 
L 290.731761 160.165579 
L 291.746307 160.165579 
L 291.746307 157.041883 
L 292.760852 157.041883 
L 292.760852 160.718445 
L 293.775398 160.718445 
L 293.775398 159.667999 
L 294.789943 159.667999 
L 294.789943 164.699084 
L 295.804489 164.699084 
L 295.804489 159.529782 
L 296.819034 159.529782 
L 296.819034 159.833859 
L 297.83358 159.833859 
L 297.83358 163.427491 
L 298.848125 163.427491 
L 298.848125 164.367364 
L 299.86267 164.367364 
L 299.86267 163.455134 
L 301.891761 163.538064 
L 301.891761 167.021123 
L 302.906307 167.021123 
L 302.906307 167.380486 
L 303.920852 167.380486 
L 303.920852 166.938193 
L 304.935398 166.938193 
L 304.935398 167.40813 
L 305.949943 167.40813 
L 305.949943 164.837301 
L 306.964489 164.837301 
L 306.964489 171.305838 
L 307.979034 171.305838 
L 307.979034 171.720488 
L 308.99358 171.720488 
L 308.99358 172.245712 
L 310.008125 172.245712 
L 310.008125 165.804817 
L 311.02267 165.804817 
L 311.02267 174.678324 
L 312.037216 174.678324 
L 312.037216 172.936795 
L 313.051761 172.936795 
L 313.051761 176.336924 
L 314.066307 176.336924 
L 314.066307 176.917433 
L 315.080852 176.917433 
L 315.080852 175.590554 
L 316.095398 175.590554 
L 316.095398 178.63132 
L 317.109943 178.63132 
L 317.109943 180.483422 
L 318.124489 180.483422 
L 318.124489 182.031448 
L 319.139034 182.031448 
L 319.139034 185.155144 
L 320.15358 185.155144 
L 320.15358 188.77642 
L 321.168125 188.77642 
L 321.168125 193.614001 
L 322.18267 193.614001 
L 322.18267 201.934642 
L 323.197216 201.934642 
L 323.197216 208.23732 
L 324.211761 208.23732 
L 324.211761 212.273246 
L 325.226307 212.273246 
L 325.226307 218.88 
L 326.240852 218.88 
L 326.240852 212.107386 
L 327.255398 212.107386 
L 327.255398 201.022412 
L 328.269943 201.022412 
L 328.269943 196.378334 
L 329.284489 196.378334 
L 329.284489 189.992726 
L 330.299034 189.992726 
L 330.299034 187.725973 
L 331.31358 187.725973 
L 331.31358 184.464061 
L 332.328125 184.464061 
L 332.328125 190.269159 
L 333.34267 190.269159 
L 333.34267 187.36661 
L 334.357216 187.36661 
L 334.357216 186.758457 
L 335.371761 186.758457 
L 335.371761 187.173107 
L 336.386307 187.173107 
L 336.386307 185.846227 
L 337.400852 185.846227 
L 337.400852 186.12266 
L 338.415398 186.12266 
L 338.415398 184.270558 
L 339.429943 184.270558 
L 339.429943 188.057693 
L 340.444489 188.057693 
L 340.444489 184.242914 
L 341.459034 184.242914 
L 341.459034 186.039731 
L 342.47358 186.039731 
L 342.47358 187.311323 
L 343.488125 187.311323 
L 343.488125 187.062534 
L 344.50267 187.062534 
L 344.50267 186.20559 
L 345.517216 186.20559 
L 345.517216 185.459221 
L 346.531761 185.459221 
L 346.531761 187.256037 
L 347.546307 187.256037 
L 347.546307 184.215271 
L 348.560852 184.215271 
L 348.560852 186.20559 
L 349.575398 186.20559 
L 349.575398 185.929157 
L 350.589943 185.929157 
L 350.589943 190.075656 
L 351.604489 190.075656 
L 351.604489 188.057693 
L 352.619034 188.057693 
L 352.619034 188.69349 
L 353.63358 188.69349 
L 353.63358 187.6154 
L 354.648125 187.6154 
L 354.648125 189.274 
L 355.66267 189.274 
L 355.66267 186.896674 
L 356.677216 186.896674 
L 356.677216 188.168267 
L 357.691761 188.168267 
L 357.691761 190.075656 
L 358.706307 190.075656 
L 358.706307 192.148905 
L 359.720852 192.148905 
L 359.720852 189.661006 
L 360.735398 189.661006 
L 360.735398 191.264319 
L 361.749943 191.264319 
L 361.749943 194.139225 
L 362.764489 194.139225 
L 362.764489 195.023811 
L 363.779034 195.023811 
L 363.779034 195.327888 
L 364.79358 195.327888 
L 364.79358 194.305085 
L 365.808125 194.305085 
L 365.808125 196.682411 
L 366.82267 196.682411 
L 366.82267 197.069417 
L 367.837216 197.069417 
L 367.837216 199.446743 
L 368.851761 199.446743 
L 368.851761 202.902159 
L 369.866307 202.902159 
L 369.866307 205.777064 
L 370.880852 205.777064 
L 370.880852 208.873117 
L 371.895398 208.873117 
L 371.895398 213.296049 
L 372.909943 213.296049 
L 372.909943 213.296049 
" clip-path="url(#pcdfa33ee5e)" style="fill: none; stroke: #1f77b4; stroke-width: 1.5; stroke-linecap: square"/>
   </g>
   <g id="LineCollection_1">
    <path d="M 69.05358 187.237697 
L 69.05358 185.339343 
" clip-path="url(#pcdfa33ee5e)" style="fill: none; stroke: #1f77b4; stroke-width: 1.5"/>
    <path d="M 70.068125 174.118356 
L 70.068125 171.865807 
" clip-path="url(#pcdfa33ee5e)" style="fill: none; stroke: #1f77b4; stroke-width: 1.5"/>
    <path d="M 71.08267 169.393295 
L 71.08267 167.026277 
" clip-path="url(#pcdfa33ee5e)" style="fill: none; stroke: #1f77b4; stroke-width: 1.5"/>
    <path d="M 72.097216 158.239923 
L 72.097216 155.622697 
" clip-path="url(#pcdfa33ee5e)" style="fill: none; stroke: #1f77b4; stroke-width: 1.5"/>
    <path d="M 73.111761 143.927164 
L 73.111761 141.020537 
" clip-path="url(#pcdfa33ee5e)" style="fill: none; stroke: #1f77b4; stroke-width: 1.5"/>
    <path d="M 74.126307 138.970553 
L 74.126307 135.970265 
" clip-path="url(#pcdfa33ee5e)" style="fill: none; stroke: #1f77b4; stroke-width: 1.5"/>
    <path d="M 75.140852 138.367993 
L 75.140852 135.356519 
" clip-path="url(#pcdfa33ee5e)" style="fill: none; stroke: #1f77b4; stroke-width: 1.5"/>
    <path d="M 76.155398 132.286491 
L 76.155398 129.164385 
" clip-path="url(#pcdfa33ee5e)" style="fill: none; stroke: #1f77b4; stroke-width: 1.5"/>
    <path d="M 77.169943 130.313695 
L 77.169943 127.156542 
" clip-path="url(#pcdfa33ee5e)" style="fill: none; stroke: #1f77b4; stroke-width: 1.5"/>
    <path d="M 78.184489 126.806032 
L 78.184489 123.587514 
" clip-path="url(#pcdfa33ee5e)" style="fill: none; stroke: #1f77b4; stroke-width: 1.5"/>
    <path d="M 79.199034 126.559378 
L 79.199034 123.336588 
" clip-path="url(#pcdfa33ee5e)" style="fill: none; stroke: #1f77b4; stroke-width: 1.5"/>
    <path d="M 80.21358 129.327225 
L 80.21358 126.152693 
" clip-path="url(#pcdfa33ee5e)" style="fill: none; stroke: #1f77b4; stroke-width: 1.5"/>
    <path d="M 81.228125 124.284543 
L 81.228125 121.022631 
" clip-path="url(#pcdfa33ee5e)" style="fill: none; stroke: #1f77b4; stroke-width: 1.5"/>
    <path d="M 82.24267 123.489667 
L 82.24267 120.214195 
" clip-path="url(#pcdfa33ee5e)" style="fill: none; stroke: #1f77b4; stroke-width: 1.5"/>
    <path d="M 83.257216 121.762769 
L 83.257216 118.458033 
" clip-path="url(#pcdfa33ee5e)" style="fill: none; stroke: #1f77b4; stroke-width: 1.5"/>
    <path d="M 84.271761 122.886638 
L 84.271761 119.600917 
" clip-path="url(#pcdfa33ee5e)" style="fill: none; stroke: #1f77b4; stroke-width: 1.5"/>
    <path d="M 85.286307 123.845994 
L 85.286307 120.576594 
" clip-path="url(#pcdfa33ee5e)" style="fill: none; stroke: #1f77b4; stroke-width: 1.5"/>
    <path d="M 86.300852 121.899829 
L 86.300852 118.597406 
" clip-path="url(#pcdfa33ee5e)" style="fill: none; stroke: #1f77b4; stroke-width: 1.5"/>
    <path d="M 87.315398 122.831816 
L 87.315398 119.545166 
" clip-path="url(#pcdfa33ee5e)" style="fill: none; stroke: #1f77b4; stroke-width: 1.5"/>
    <path d="M 88.329943 124.394179 
L 88.329943 121.134142 
" clip-path="url(#pcdfa33ee5e)" style="fill: none; stroke: #1f77b4; stroke-width: 1.5"/>
    <path d="M 89.344489 126.504565 
L 89.344489 123.280827 
" clip-path="url(#pcdfa33ee5e)" style="fill: none; stroke: #1f77b4; stroke-width: 1.5"/>
    <path d="M 90.359034 124.695675 
L 90.359034 121.440799 
" clip-path="url(#pcdfa33ee5e)" style="fill: none; stroke: #1f77b4; stroke-width: 1.5"/>
    <path d="M 91.37358 128.368111 
L 91.37358 125.176774 
" clip-path="url(#pcdfa33ee5e)" style="fill: none; stroke: #1f77b4; stroke-width: 1.5"/>
    <path d="M 92.388125 124.805309 
L 92.388125 121.552311 
" clip-path="url(#pcdfa33ee5e)" style="fill: none; stroke: #1f77b4; stroke-width: 1.5"/>
    <path d="M 93.40267 126.833438 
L 93.40267 123.615394 
" clip-path="url(#pcdfa33ee5e)" style="fill: none; stroke: #1f77b4; stroke-width: 1.5"/>
    <path d="M 94.417216 129.628652 
L 94.417216 126.459419 
" clip-path="url(#pcdfa33ee5e)" style="fill: none; stroke: #1f77b4; stroke-width: 1.5"/>
    <path d="M 95.431761 130.669909 
L 95.431761 127.519055 
" clip-path="url(#pcdfa33ee5e)" style="fill: none; stroke: #1f77b4; stroke-width: 1.5"/>
    <path d="M 96.446307 127.600789 
L 96.446307 124.39607 
" clip-path="url(#pcdfa33ee5e)" style="fill: none; stroke: #1f77b4; stroke-width: 1.5"/>
    <path d="M 97.460852 128.943585 
L 97.460852 125.76232 
" clip-path="url(#pcdfa33ee5e)" style="fill: none; stroke: #1f77b4; stroke-width: 1.5"/>
    <path d="M 98.475398 133.10843 
L 98.475398 130.001045 
" clip-path="url(#pcdfa33ee5e)" style="fill: none; stroke: #1f77b4; stroke-width: 1.5"/>
    <path d="M 99.489943 130.752111 
L 99.489943 127.602712 
" clip-path="url(#pcdfa33ee5e)" style="fill: none; stroke: #1f77b4; stroke-width: 1.5"/>
    <path d="M 100.504489 130.861714 
L 100.504489 127.714257 
" clip-path="url(#pcdfa33ee5e)" style="fill: none; stroke: #1f77b4; stroke-width: 1.5"/>
    <path d="M 101.519034 131.930306 
L 101.519034 128.801844 
" clip-path="url(#pcdfa33ee5e)" style="fill: none; stroke: #1f77b4; stroke-width: 1.5"/>
    <path d="M 102.53358 132.067301 
L 102.53358 128.941282 
" clip-path="url(#pcdfa33ee5e)" style="fill: none; stroke: #1f77b4; stroke-width: 1.5"/>
    <path d="M 103.548125 133.683767 
L 103.548125 130.586728 
" clip-path="url(#pcdfa33ee5e)" style="fill: none; stroke: #1f77b4; stroke-width: 1.5"/>
    <path d="M 104.56267 133.081033 
L 104.56267 129.973156 
" clip-path="url(#pcdfa33ee5e)" style="fill: none; stroke: #1f77b4; stroke-width: 1.5"/>
    <path d="M 105.577216 137.327158 
L 105.577216 134.296461 
" clip-path="url(#pcdfa33ee5e)" style="fill: none; stroke: #1f77b4; stroke-width: 1.5"/>
    <path d="M 106.591761 133.793353 
L 106.591761 130.698288 
" clip-path="url(#pcdfa33ee5e)" style="fill: none; stroke: #1f77b4; stroke-width: 1.5"/>
    <path d="M 107.606307 131.409717 
L 107.606307 128.271986 
" clip-path="url(#pcdfa33ee5e)" style="fill: none; stroke: #1f77b4; stroke-width: 1.5"/>
    <path d="M 108.620852 131.765911 
L 108.620852 128.634519 
" clip-path="url(#pcdfa33ee5e)" style="fill: none; stroke: #1f77b4; stroke-width: 1.5"/>
    <path d="M 109.635398 133.49199 
L 109.635398 130.391498 
" clip-path="url(#pcdfa33ee5e)" style="fill: none; stroke: #1f77b4; stroke-width: 1.5"/>
    <path d="M 110.649943 131.628914 
L 110.649943 128.495082 
" clip-path="url(#pcdfa33ee5e)" style="fill: none; stroke: #1f77b4; stroke-width: 1.5"/>
    <path d="M 111.664489 126.970467 
L 111.664489 123.754799 
" clip-path="url(#pcdfa33ee5e)" style="fill: none; stroke: #1f77b4; stroke-width: 1.5"/>
    <path d="M 112.679034 126.422346 
L 112.679034 123.197186 
" clip-path="url(#pcdfa33ee5e)" style="fill: none; stroke: #1f77b4; stroke-width: 1.5"/>
    <path d="M 113.69358 125.380879 
L 113.69358 122.137762 
" clip-path="url(#pcdfa33ee5e)" style="fill: none; stroke: #1f77b4; stroke-width: 1.5"/>
    <path d="M 114.708125 127.765217 
L 114.708125 124.563361 
" clip-path="url(#pcdfa33ee5e)" style="fill: none; stroke: #1f77b4; stroke-width: 1.5"/>
    <path d="M 115.72267 126.970467 
L 115.72267 123.754799 
" clip-path="url(#pcdfa33ee5e)" style="fill: none; stroke: #1f77b4; stroke-width: 1.5"/>
    <path d="M 116.737216 126.449753 
L 116.737216 123.225067 
" clip-path="url(#pcdfa33ee5e)" style="fill: none; stroke: #1f77b4; stroke-width: 1.5"/>
    <path d="M 117.751761 128.422919 
L 117.751761 125.232539 
" clip-path="url(#pcdfa33ee5e)" style="fill: none; stroke: #1f77b4; stroke-width: 1.5"/>
    <path d="M 118.766307 128.422919 
L 118.766307 125.232539 
" clip-path="url(#pcdfa33ee5e)" style="fill: none; stroke: #1f77b4; stroke-width: 1.5"/>
    <path d="M 119.780852 131.026116 
L 119.780852 127.881574 
" clip-path="url(#pcdfa33ee5e)" style="fill: none; stroke: #1f77b4; stroke-width: 1.5"/>
    <path d="M 120.795398 140.805493 
L 120.795398 137.839531 
" clip-path="url(#pcdfa33ee5e)" style="fill: none; stroke: #1f77b4; stroke-width: 1.5"/>
    <path d="M 121.809943 160.591893 
L 121.809943 158.025378 
" clip-path="url(#pcdfa33ee5e)" style="fill: none; stroke: #1f77b4; stroke-width: 1.5"/>
    <path d="M 122.824489 166.360194 
L 122.824489 163.92256 
" clip-path="url(#pcdfa33ee5e)" style="fill: none; stroke: #1f77b4; stroke-width: 1.5"/>
    <path d="M 123.839034 128.066667 
L 123.839034 124.870065 
" clip-path="url(#pcdfa33ee5e)" style="fill: none; stroke: #1f77b4; stroke-width: 1.5"/>
    <path d="M 124.85358 114.250685 
L 124.85358 110.821576 
" clip-path="url(#pcdfa33ee5e)" style="fill: none; stroke: #1f77b4; stroke-width: 1.5"/>
    <path d="M 125.868125 105.447278 
L 125.868125 101.877969 
" clip-path="url(#pcdfa33ee5e)" style="fill: none; stroke: #1f77b4; stroke-width: 1.5"/>
    <path d="M 126.88267 84.127658 
L 126.88267 80.239862 
" clip-path="url(#pcdfa33ee5e)" style="fill: none; stroke: #1f77b4; stroke-width: 1.5"/>
    <path d="M 127.897216 57.22112 
L 127.897216 52.965484 
" clip-path="url(#pcdfa33ee5e)" style="fill: none; stroke: #1f77b4; stroke-width: 1.5"/>
    <path d="M 128.911761 48.267149 
L 128.911761 43.896006 
" clip-path="url(#pcdfa33ee5e)" style="fill: none; stroke: #1f77b4; stroke-width: 1.5"/>
    <path d="M 129.926307 44.339012 
L 129.926307 39.918153 
" clip-path="url(#pcdfa33ee5e)" style="fill: none; stroke: #1f77b4; stroke-width: 1.5"/>
    <path d="M 130.940852 42.086388 
L 130.940852 37.637272 
" clip-path="url(#pcdfa33ee5e)" style="fill: none; stroke: #1f77b4; stroke-width: 1.5"/>
    <path d="M 131.955398 45.657579 
L 131.955398 41.253346 
" clip-path="url(#pcdfa33ee5e)" style="fill: none; stroke: #1f77b4; stroke-width: 1.5"/>
    <path d="M 132.969943 38.487499 
L 132.969943 33.993609 
" clip-path="url(#pcdfa33ee5e)" style="fill: none; stroke: #1f77b4; stroke-width: 1.5"/>
    <path d="M 133.984489 39.339165 
L 133.984489 34.85583 
" clip-path="url(#pcdfa33ee5e)" style="fill: none; stroke: #1f77b4; stroke-width: 1.5"/>
    <path d="M 134.999034 40.190818 
L 134.999034 35.718063 
" clip-path="url(#pcdfa33ee5e)" style="fill: none; stroke: #1f77b4; stroke-width: 1.5"/>
    <path d="M 136.01358 35.327987 
L 136.01358 30.795157 
" clip-path="url(#pcdfa33ee5e)" style="fill: none; stroke: #1f77b4; stroke-width: 1.5"/>
    <path d="M 137.028125 33.761907 
L 137.028125 29.209898 
" clip-path="url(#pcdfa33ee5e)" style="fill: none; stroke: #1f77b4; stroke-width: 1.5"/>
    <path d="M 138.04267 35.245563 
L 138.04267 30.711721 
" clip-path="url(#pcdfa33ee5e)" style="fill: none; stroke: #1f77b4; stroke-width: 1.5"/>
    <path d="M 139.057216 34.641115 
L 139.057216 30.099863 
" clip-path="url(#pcdfa33ee5e)" style="fill: none; stroke: #1f77b4; stroke-width: 1.5"/>
    <path d="M 140.071761 26.123262 
L 140.071761 21.478854 
" clip-path="url(#pcdfa33ee5e)" style="fill: none; stroke: #1f77b4; stroke-width: 1.5"/>
    <path d="M 141.086307 22.303598 
L 141.086307 17.613674 
" clip-path="url(#pcdfa33ee5e)" style="fill: none; stroke: #1f77b4; stroke-width: 1.5"/>
    <path d="M 142.100852 29.228291 
L 142.100852 24.621217 
" clip-path="url(#pcdfa33ee5e)" style="fill: none; stroke: #1f77b4; stroke-width: 1.5"/>
    <path d="M 143.115398 25.601163 
L 143.115398 20.950507 
" clip-path="url(#pcdfa33ee5e)" style="fill: none; stroke: #1f77b4; stroke-width: 1.5"/>
    <path d="M 144.129943 29.722883 
L 144.129943 25.121785 
" clip-path="url(#pcdfa33ee5e)" style="fill: none; stroke: #1f77b4; stroke-width: 1.5"/>
    <path d="M 145.144489 30.904393 
L 145.144489 26.3176 
" clip-path="url(#pcdfa33ee5e)" style="fill: none; stroke: #1f77b4; stroke-width: 1.5"/>
    <path d="M 146.159034 27.112491 
L 146.159034 22.479945 
" clip-path="url(#pcdfa33ee5e)" style="fill: none; stroke: #1f77b4; stroke-width: 1.5"/>
    <path d="M 147.17358 24.337116 
L 147.17358 19.671368 
" clip-path="url(#pcdfa33ee5e)" style="fill: none; stroke: #1f77b4; stroke-width: 1.5"/>
    <path d="M 148.188125 21.973833 
L 148.188125 17.28 
" clip-path="url(#pcdfa33ee5e)" style="fill: none; stroke: #1f77b4; stroke-width: 1.5"/>
    <path d="M 149.20267 26.233177 
L 149.20267 21.590086 
" clip-path="url(#pcdfa33ee5e)" style="fill: none; stroke: #1f77b4; stroke-width: 1.5"/>
    <path d="M 150.217216 31.426449 
L 150.217216 26.845991 
" clip-path="url(#pcdfa33ee5e)" style="fill: none; stroke: #1f77b4; stroke-width: 1.5"/>
    <path d="M 151.231761 28.211616 
L 151.231761 23.592285 
" clip-path="url(#pcdfa33ee5e)" style="fill: none; stroke: #1f77b4; stroke-width: 1.5"/>
    <path d="M 152.246307 29.310723 
L 152.246307 24.704645 
" clip-path="url(#pcdfa33ee5e)" style="fill: none; stroke: #1f77b4; stroke-width: 1.5"/>
    <path d="M 153.260852 27.332318 
L 153.260852 22.702411 
" clip-path="url(#pcdfa33ee5e)" style="fill: none; stroke: #1f77b4; stroke-width: 1.5"/>
    <path d="M 154.275398 31.975976 
L 154.275398 27.402196 
" clip-path="url(#pcdfa33ee5e)" style="fill: none; stroke: #1f77b4; stroke-width: 1.5"/>
    <path d="M 155.289943 30.354856 
L 155.289943 25.761404 
" clip-path="url(#pcdfa33ee5e)" style="fill: none; stroke: #1f77b4; stroke-width: 1.5"/>
    <path d="M 156.304489 30.464764 
L 156.304489 25.872643 
" clip-path="url(#pcdfa33ee5e)" style="fill: none; stroke: #1f77b4; stroke-width: 1.5"/>
    <path d="M 157.319034 36.234647 
L 157.319034 31.712956 
" clip-path="url(#pcdfa33ee5e)" style="fill: none; stroke: #1f77b4; stroke-width: 1.5"/>
    <path d="M 158.33358 33.349774 
L 158.33358 28.792731 
" clip-path="url(#pcdfa33ee5e)" style="fill: none; stroke: #1f77b4; stroke-width: 1.5"/>
    <path d="M 159.348125 40.080928 
L 159.348125 35.606806 
" clip-path="url(#pcdfa33ee5e)" style="fill: none; stroke: #1f77b4; stroke-width: 1.5"/>
    <path d="M 160.36267 33.432201 
L 160.36267 28.876165 
" clip-path="url(#pcdfa33ee5e)" style="fill: none; stroke: #1f77b4; stroke-width: 1.5"/>
    <path d="M 161.377216 39.833674 
L 161.377216 35.35648 
" clip-path="url(#pcdfa33ee5e)" style="fill: none; stroke: #1f77b4; stroke-width: 1.5"/>
    <path d="M 162.391761 46.124564 
L 162.391761 41.726233 
" clip-path="url(#pcdfa33ee5e)" style="fill: none; stroke: #1f77b4; stroke-width: 1.5"/>
    <path d="M 163.406307 43.872012 
L 163.406307 39.44528 
" clip-path="url(#pcdfa33ee5e)" style="fill: none; stroke: #1f77b4; stroke-width: 1.5"/>
    <path d="M 164.420852 53.430978 
L 164.420852 49.126068 
" clip-path="url(#pcdfa33ee5e)" style="fill: none; stroke: #1f77b4; stroke-width: 1.5"/>
    <path d="M 165.435398 51.01393 
L 165.435398 46.677891 
" clip-path="url(#pcdfa33ee5e)" style="fill: none; stroke: #1f77b4; stroke-width: 1.5"/>
    <path d="M 166.449943 55.408478 
L 166.449943 51.129206 
" clip-path="url(#pcdfa33ee5e)" style="fill: none; stroke: #1f77b4; stroke-width: 1.5"/>
    <path d="M 167.464489 57.715465 
L 167.464489 53.466298 
" clip-path="url(#pcdfa33ee5e)" style="fill: none; stroke: #1f77b4; stroke-width: 1.5"/>
    <path d="M 168.479034 66.338229 
L 168.479034 62.203542 
" clip-path="url(#pcdfa33ee5e)" style="fill: none; stroke: #1f77b4; stroke-width: 1.5"/>
    <path d="M 169.49358 74.767191 
L 169.49358 70.747582 
" clip-path="url(#pcdfa33ee5e)" style="fill: none; stroke: #1f77b4; stroke-width: 1.5"/>
    <path d="M 170.508125 76.469256 
L 170.508125 72.473289 
" clip-path="url(#pcdfa33ee5e)" style="fill: none; stroke: #1f77b4; stroke-width: 1.5"/>
    <path d="M 171.52267 80.61431 
L 171.52267 76.676519 
" clip-path="url(#pcdfa33ee5e)" style="fill: none; stroke: #1f77b4; stroke-width: 1.5"/>
    <path d="M 172.537216 90.110571 
L 172.537216 86.309438 
" clip-path="url(#pcdfa33ee5e)" style="fill: none; stroke: #1f77b4; stroke-width: 1.5"/>
    <path d="M 173.551761 104.185506 
L 173.551761 100.596555 
" clip-path="url(#pcdfa33ee5e)" style="fill: none; stroke: #1f77b4; stroke-width: 1.5"/>
    <path d="M 174.566307 116.965169 
L 174.566307 113.58047 
" clip-path="url(#pcdfa33ee5e)" style="fill: none; stroke: #1f77b4; stroke-width: 1.5"/>
    <path d="M 175.580852 133.902939 
L 175.580852 130.809849 
" clip-path="url(#pcdfa33ee5e)" style="fill: none; stroke: #1f77b4; stroke-width: 1.5"/>
    <path d="M 176.595398 154.492194 
L 176.595398 151.796155 
" clip-path="url(#pcdfa33ee5e)" style="fill: none; stroke: #1f77b4; stroke-width: 1.5"/>
    <path d="M 177.609943 107.888377 
L 177.609943 104.357381 
" clip-path="url(#pcdfa33ee5e)" style="fill: none; stroke: #1f77b4; stroke-width: 1.5"/>
    <path d="M 178.624489 100.646776 
L 178.624489 97.003306 
" clip-path="url(#pcdfa33ee5e)" style="fill: none; stroke: #1f77b4; stroke-width: 1.5"/>
    <path d="M 179.639034 110.301841 
L 179.639034 106.809142 
" clip-path="url(#pcdfa33ee5e)" style="fill: none; stroke: #1f77b4; stroke-width: 1.5"/>
    <path d="M 180.65358 88.079784 
L 180.65358 84.249014 
" clip-path="url(#pcdfa33ee5e)" style="fill: none; stroke: #1f77b4; stroke-width: 1.5"/>
    <path d="M 181.668125 76.66142 
L 181.668125 72.668131 
" clip-path="url(#pcdfa33ee5e)" style="fill: none; stroke: #1f77b4; stroke-width: 1.5"/>
    <path d="M 182.68267 69.13891 
L 182.68267 65.042099 
" clip-path="url(#pcdfa33ee5e)" style="fill: none; stroke: #1f77b4; stroke-width: 1.5"/>
    <path d="M 183.697216 62.411495 
L 183.697216 58.224285 
" clip-path="url(#pcdfa33ee5e)" style="fill: none; stroke: #1f77b4; stroke-width: 1.5"/>
    <path d="M 184.711761 69.440934 
L 184.711761 65.348228 
" clip-path="url(#pcdfa33ee5e)" style="fill: none; stroke: #1f77b4; stroke-width: 1.5"/>
    <path d="M 185.726307 64.141496 
L 185.726307 59.977343 
" clip-path="url(#pcdfa33ee5e)" style="fill: none; stroke: #1f77b4; stroke-width: 1.5"/>
    <path d="M 186.740852 68.864341 
L 186.740852 64.763801 
" clip-path="url(#pcdfa33ee5e)" style="fill: none; stroke: #1f77b4; stroke-width: 1.5"/>
    <path d="M 187.755398 63.729597 
L 187.755398 59.559942 
" clip-path="url(#pcdfa33ee5e)" style="fill: none; stroke: #1f77b4; stroke-width: 1.5"/>
    <path d="M 188.769943 66.96977 
L 188.769943 62.843593 
" clip-path="url(#pcdfa33ee5e)" style="fill: none; stroke: #1f77b4; stroke-width: 1.5"/>
    <path d="M 189.784489 60.763817 
L 189.784489 56.554764 
" clip-path="url(#pcdfa33ee5e)" style="fill: none; stroke: #1f77b4; stroke-width: 1.5"/>
    <path d="M 190.799034 64.086576 
L 190.799034 59.921689 
" clip-path="url(#pcdfa33ee5e)" style="fill: none; stroke: #1f77b4; stroke-width: 1.5"/>
    <path d="M 191.81358 70.70392 
L 191.81358 66.628428 
" clip-path="url(#pcdfa33ee5e)" style="fill: none; stroke: #1f77b4; stroke-width: 1.5"/>
    <path d="M 192.828125 67.299267 
L 192.828125 63.177537 
" clip-path="url(#pcdfa33ee5e)" style="fill: none; stroke: #1f77b4; stroke-width: 1.5"/>
    <path d="M 193.84267 70.017519 
L 193.84267 65.932663 
" clip-path="url(#pcdfa33ee5e)" style="fill: none; stroke: #1f77b4; stroke-width: 1.5"/>
    <path d="M 194.857216 68.644685 
L 194.857216 64.541164 
" clip-path="url(#pcdfa33ee5e)" style="fill: none; stroke: #1f77b4; stroke-width: 1.5"/>
    <path d="M 195.871761 75.288799 
L 195.871761 71.27642 
" clip-path="url(#pcdfa33ee5e)" style="fill: none; stroke: #1f77b4; stroke-width: 1.5"/>
    <path d="M 196.886307 74.053401 
L 196.886307 70.023918 
" clip-path="url(#pcdfa33ee5e)" style="fill: none; stroke: #1f77b4; stroke-width: 1.5"/>
    <path d="M 197.900852 76.496708 
L 197.900852 72.501124 
" clip-path="url(#pcdfa33ee5e)" style="fill: none; stroke: #1f77b4; stroke-width: 1.5"/>
    <path d="M 198.915398 75.371157 
L 198.915398 71.359921 
" clip-path="url(#pcdfa33ee5e)" style="fill: none; stroke: #1f77b4; stroke-width: 1.5"/>
    <path d="M 199.929943 77.183004 
L 199.929943 73.196994 
" clip-path="url(#pcdfa33ee5e)" style="fill: none; stroke: #1f77b4; stroke-width: 1.5"/>
    <path d="M 200.944489 79.241823 
L 200.944489 75.284673 
" clip-path="url(#pcdfa33ee5e)" style="fill: none; stroke: #1f77b4; stroke-width: 1.5"/>
    <path d="M 201.959034 82.590607 
L 201.959034 78.68086 
" clip-path="url(#pcdfa33ee5e)" style="fill: none; stroke: #1f77b4; stroke-width: 1.5"/>
    <path d="M 202.97358 80.61431 
L 202.97358 76.676519 
" clip-path="url(#pcdfa33ee5e)" style="fill: none; stroke: #1f77b4; stroke-width: 1.5"/>
    <path d="M 203.988125 85.44508 
L 203.988125 81.576199 
" clip-path="url(#pcdfa33ee5e)" style="fill: none; stroke: #1f77b4; stroke-width: 1.5"/>
    <path d="M 205.00267 83.962977 
L 205.00267 80.072823 
" clip-path="url(#pcdfa33ee5e)" style="fill: none; stroke: #1f77b4; stroke-width: 1.5"/>
    <path d="M 206.017216 86.076328 
L 206.017216 82.216544 
" clip-path="url(#pcdfa33ee5e)" style="fill: none; stroke: #1f77b4; stroke-width: 1.5"/>
    <path d="M 207.031761 88.848203 
L 207.031761 85.02862 
" clip-path="url(#pcdfa33ee5e)" style="fill: none; stroke: #1f77b4; stroke-width: 1.5"/>
    <path d="M 208.046307 91.674747 
L 208.046307 87.896601 
" clip-path="url(#pcdfa33ee5e)" style="fill: none; stroke: #1f77b4; stroke-width: 1.5"/>
    <path d="M 209.060852 95.543719 
L 209.060852 91.823047 
" clip-path="url(#pcdfa33ee5e)" style="fill: none; stroke: #1f77b4; stroke-width: 1.5"/>
    <path d="M 210.075398 95.818097 
L 210.075398 92.101535 
" clip-path="url(#pcdfa33ee5e)" style="fill: none; stroke: #1f77b4; stroke-width: 1.5"/>
    <path d="M 211.089943 93.677887 
L 211.089943 89.929387 
" clip-path="url(#pcdfa33ee5e)" style="fill: none; stroke: #1f77b4; stroke-width: 1.5"/>
    <path d="M 212.104489 95.680909 
L 212.104489 91.96229 
" clip-path="url(#pcdfa33ee5e)" style="fill: none; stroke: #1f77b4; stroke-width: 1.5"/>
    <path d="M 213.119034 99.576848 
L 213.119034 95.917055 
" clip-path="url(#pcdfa33ee5e)" style="fill: none; stroke: #1f77b4; stroke-width: 1.5"/>
    <path d="M 214.13358 99.083023 
L 214.13358 95.415721 
" clip-path="url(#pcdfa33ee5e)" style="fill: none; stroke: #1f77b4; stroke-width: 1.5"/>
    <path d="M 215.148125 105.69414 
L 215.148125 102.128686 
" clip-path="url(#pcdfa33ee5e)" style="fill: none; stroke: #1f77b4; stroke-width: 1.5"/>
    <path d="M 216.16267 109.204838 
L 216.16267 105.69468 
" clip-path="url(#pcdfa33ee5e)" style="fill: none; stroke: #1f77b4; stroke-width: 1.5"/>
    <path d="M 217.177216 108.958006 
L 217.177216 105.443931 
" clip-path="url(#pcdfa33ee5e)" style="fill: none; stroke: #1f77b4; stroke-width: 1.5"/>
    <path d="M 218.191761 112.221491 
L 218.191761 108.759558 
" clip-path="url(#pcdfa33ee5e)" style="fill: none; stroke: #1f77b4; stroke-width: 1.5"/>
    <path d="M 219.206307 116.499066 
L 219.206307 113.1067 
" clip-path="url(#pcdfa33ee5e)" style="fill: none; stroke: #1f77b4; stroke-width: 1.5"/>
    <path d="M 220.220852 124.311952 
L 220.220852 121.050509 
" clip-path="url(#pcdfa33ee5e)" style="fill: none; stroke: #1f77b4; stroke-width: 1.5"/>
    <path d="M 221.235398 122.036889 
L 221.235398 118.73678 
" clip-path="url(#pcdfa33ee5e)" style="fill: none; stroke: #1f77b4; stroke-width: 1.5"/>
    <path d="M 222.249943 132.861852 
L 222.249943 129.750044 
" clip-path="url(#pcdfa33ee5e)" style="fill: none; stroke: #1f77b4; stroke-width: 1.5"/>
    <path d="M 223.264489 132.231693 
L 223.264489 129.108609 
" clip-path="url(#pcdfa33ee5e)" style="fill: none; stroke: #1f77b4; stroke-width: 1.5"/>
    <path d="M 224.279034 135.847973 
L 224.279034 132.790167 
" clip-path="url(#pcdfa33ee5e)" style="fill: none; stroke: #1f77b4; stroke-width: 1.5"/>
    <path d="M 225.29358 141.955652 
L 225.29358 139.011411 
" clip-path="url(#pcdfa33ee5e)" style="fill: none; stroke: #1f77b4; stroke-width: 1.5"/>
    <path d="M 226.308125 154.273313 
L 226.308125 151.572742 
" clip-path="url(#pcdfa33ee5e)" style="fill: none; stroke: #1f77b4; stroke-width: 1.5"/>
    <path d="M 227.32267 169.666496 
L 227.32267 167.305943 
" clip-path="url(#pcdfa33ee5e)" style="fill: none; stroke: #1f77b4; stroke-width: 1.5"/>
    <path d="M 228.337216 184.567313 
L 228.337216 182.591637 
" clip-path="url(#pcdfa33ee5e)" style="fill: none; stroke: #1f77b4; stroke-width: 1.5"/>
    <path d="M 229.351761 188.681214 
L 229.351761 186.826019 
" clip-path="url(#pcdfa33ee5e)" style="fill: none; stroke: #1f77b4; stroke-width: 1.5"/>
    <path d="M 230.366307 169.529896 
L 230.366307 167.166109 
" clip-path="url(#pcdfa33ee5e)" style="fill: none; stroke: #1f77b4; stroke-width: 1.5"/>
    <path d="M 231.380852 151.01702 
L 231.380852 148.249924 
" clip-path="url(#pcdfa33ee5e)" style="fill: none; stroke: #1f77b4; stroke-width: 1.5"/>
    <path d="M 232.395398 136.888894 
L 232.395398 133.850139 
" clip-path="url(#pcdfa33ee5e)" style="fill: none; stroke: #1f77b4; stroke-width: 1.5"/>
    <path d="M 233.409943 124.61345 
L 233.409943 121.357165 
" clip-path="url(#pcdfa33ee5e)" style="fill: none; stroke: #1f77b4; stroke-width: 1.5"/>
    <path d="M 234.424489 122.091712 
L 234.424489 118.79253 
" clip-path="url(#pcdfa33ee5e)" style="fill: none; stroke: #1f77b4; stroke-width: 1.5"/>
    <path d="M 235.439034 120.940392 
L 235.439034 117.621811 
" clip-path="url(#pcdfa33ee5e)" style="fill: none; stroke: #1f77b4; stroke-width: 1.5"/>
    <path d="M 236.45358 123.873404 
L 236.45358 120.604471 
" clip-path="url(#pcdfa33ee5e)" style="fill: none; stroke: #1f77b4; stroke-width: 1.5"/>
    <path d="M 237.468125 119.295551 
L 237.468125 115.949453 
" clip-path="url(#pcdfa33ee5e)" style="fill: none; stroke: #1f77b4; stroke-width: 1.5"/>
    <path d="M 238.48267 121.10487 
L 238.48267 117.789053 
" clip-path="url(#pcdfa33ee5e)" style="fill: none; stroke: #1f77b4; stroke-width: 1.5"/>
    <path d="M 239.497216 122.201359 
L 239.497216 118.90403 
" clip-path="url(#pcdfa33ee5e)" style="fill: none; stroke: #1f77b4; stroke-width: 1.5"/>
    <path d="M 240.511761 121.653121 
L 240.511761 118.346535 
" clip-path="url(#pcdfa33ee5e)" style="fill: none; stroke: #1f77b4; stroke-width: 1.5"/>
    <path d="M 241.526307 121.817593 
L 241.526307 118.513782 
" clip-path="url(#pcdfa33ee5e)" style="fill: none; stroke: #1f77b4; stroke-width: 1.5"/>
    <path d="M 242.540852 126.778626 
L 242.540852 123.559633 
" clip-path="url(#pcdfa33ee5e)" style="fill: none; stroke: #1f77b4; stroke-width: 1.5"/>
    <path d="M 243.555398 121.159695 
L 243.555398 117.844801 
" clip-path="url(#pcdfa33ee5e)" style="fill: none; stroke: #1f77b4; stroke-width: 1.5"/>
    <path d="M 244.569943 122.091712 
L 244.569943 118.79253 
" clip-path="url(#pcdfa33ee5e)" style="fill: none; stroke: #1f77b4; stroke-width: 1.5"/>
    <path d="M 245.584489 129.49164 
L 245.584489 126.319998 
" clip-path="url(#pcdfa33ee5e)" style="fill: none; stroke: #1f77b4; stroke-width: 1.5"/>
    <path d="M 246.599034 124.284543 
L 246.599034 121.022631 
" clip-path="url(#pcdfa33ee5e)" style="fill: none; stroke: #1f77b4; stroke-width: 1.5"/>
    <path d="M 247.61358 128.970988 
L 247.61358 125.790203 
" clip-path="url(#pcdfa33ee5e)" style="fill: none; stroke: #1f77b4; stroke-width: 1.5"/>
    <path d="M 248.628125 130.779512 
L 248.628125 127.630598 
" clip-path="url(#pcdfa33ee5e)" style="fill: none; stroke: #1f77b4; stroke-width: 1.5"/>
    <path d="M 249.64267 130.971315 
L 249.64267 127.825801 
" clip-path="url(#pcdfa33ee5e)" style="fill: none; stroke: #1f77b4; stroke-width: 1.5"/>
    <path d="M 250.657216 132.944045 
L 250.657216 129.83371 
" clip-path="url(#pcdfa33ee5e)" style="fill: none; stroke: #1f77b4; stroke-width: 1.5"/>
    <path d="M 251.671761 132.916647 
L 251.671761 129.805821 
" clip-path="url(#pcdfa33ee5e)" style="fill: none; stroke: #1f77b4; stroke-width: 1.5"/>
    <path d="M 252.686307 134.587833 
L 252.686307 131.507121 
" clip-path="url(#pcdfa33ee5e)" style="fill: none; stroke: #1f77b4; stroke-width: 1.5"/>
    <path d="M 253.700852 137.190202 
L 253.700852 134.156984 
" clip-path="url(#pcdfa33ee5e)" style="fill: none; stroke: #1f77b4; stroke-width: 1.5"/>
    <path d="M 254.715398 135.98494 
L 254.715398 132.929633 
" clip-path="url(#pcdfa33ee5e)" style="fill: none; stroke: #1f77b4; stroke-width: 1.5"/>
    <path d="M 255.729943 140.175611 
L 255.729943 137.19782 
" clip-path="url(#pcdfa33ee5e)" style="fill: none; stroke: #1f77b4; stroke-width: 1.5"/>
    <path d="M 256.744489 137.025853 
L 256.744489 133.989614 
" clip-path="url(#pcdfa33ee5e)" style="fill: none; stroke: #1f77b4; stroke-width: 1.5"/>
    <path d="M 257.759034 136.806718 
L 257.759034 133.766455 
" clip-path="url(#pcdfa33ee5e)" style="fill: none; stroke: #1f77b4; stroke-width: 1.5"/>
    <path d="M 258.77358 140.88765 
L 258.77358 137.923234 
" clip-path="url(#pcdfa33ee5e)" style="fill: none; stroke: #1f77b4; stroke-width: 1.5"/>
    <path d="M 259.788125 143.625977 
L 259.788125 140.713572 
" clip-path="url(#pcdfa33ee5e)" style="fill: none; stroke: #1f77b4; stroke-width: 1.5"/>
    <path d="M 260.80267 142.941438 
L 260.80267 140.015944 
" clip-path="url(#pcdfa33ee5e)" style="fill: none; stroke: #1f77b4; stroke-width: 1.5"/>
    <path d="M 261.817216 142.037803 
L 261.817216 139.09512 
" clip-path="url(#pcdfa33ee5e)" style="fill: none; stroke: #1f77b4; stroke-width: 1.5"/>
    <path d="M 262.831761 144.474763 
L 262.831761 141.578672 
" clip-path="url(#pcdfa33ee5e)" style="fill: none; stroke: #1f77b4; stroke-width: 1.5"/>
    <path d="M 263.846307 146.007937 
L 263.846307 143.14155 
" clip-path="url(#pcdfa33ee5e)" style="fill: none; stroke: #1f77b4; stroke-width: 1.5"/>
    <path d="M 264.860852 146.719716 
L 264.860852 143.867224 
" clip-path="url(#pcdfa33ee5e)" style="fill: none; stroke: #1f77b4; stroke-width: 1.5"/>
    <path d="M 265.875398 150.55177 
L 265.875398 147.775301 
" clip-path="url(#pcdfa33ee5e)" style="fill: none; stroke: #1f77b4; stroke-width: 1.5"/>
    <path d="M 266.889943 149.675963 
L 266.889943 146.881935 
" clip-path="url(#pcdfa33ee5e)" style="fill: none; stroke: #1f77b4; stroke-width: 1.5"/>
    <path d="M 267.904489 153.452475 
L 267.904489 150.73498 
" clip-path="url(#pcdfa33ee5e)" style="fill: none; stroke: #1f77b4; stroke-width: 1.5"/>
    <path d="M 268.919034 156.325171 
L 268.919034 153.667383 
" clip-path="url(#pcdfa33ee5e)" style="fill: none; stroke: #1f77b4; stroke-width: 1.5"/>
    <path d="M 269.93358 161.713004 
L 269.93358 159.17102 
" clip-path="url(#pcdfa33ee5e)" style="fill: none; stroke: #1f77b4; stroke-width: 1.5"/>
    <path d="M 270.948125 161.986427 
L 270.948125 159.450463 
" clip-path="url(#pcdfa33ee5e)" style="fill: none; stroke: #1f77b4; stroke-width: 1.5"/>
    <path d="M 271.96267 160.591893 
L 271.96267 158.025378 
" clip-path="url(#pcdfa33ee5e)" style="fill: none; stroke: #1f77b4; stroke-width: 1.5"/>
    <path d="M 272.977216 165.540262 
L 272.977216 163.083892 
" clip-path="url(#pcdfa33ee5e)" style="fill: none; stroke: #1f77b4; stroke-width: 1.5"/>
    <path d="M 273.991761 172.916879 
L 273.991761 170.634671 
" clip-path="url(#pcdfa33ee5e)" style="fill: none; stroke: #1f77b4; stroke-width: 1.5"/>
    <path d="M 275.006307 177.585118 
L 275.006307 175.420449 
" clip-path="url(#pcdfa33ee5e)" style="fill: none; stroke: #1f77b4; stroke-width: 1.5"/>
    <path d="M 276.020852 186.175179 
L 276.020852 184.245683 
" clip-path="url(#pcdfa33ee5e)" style="fill: none; stroke: #1f77b4; stroke-width: 1.5"/>
    <path d="M 277.035398 198.850272 
L 277.035398 197.334168 
" clip-path="url(#pcdfa33ee5e)" style="fill: none; stroke: #1f77b4; stroke-width: 1.5"/>
    <path d="M 278.049943 212.941267 
L 278.049943 212.102804 
" clip-path="url(#pcdfa33ee5e)" style="fill: none; stroke: #1f77b4; stroke-width: 1.5"/>
    <path d="M 279.064489 197.139858 
L 279.064489 195.561523 
" clip-path="url(#pcdfa33ee5e)" style="fill: none; stroke: #1f77b4; stroke-width: 1.5"/>
    <path d="M 280.079034 188.681214 
L 280.079034 186.826019 
" clip-path="url(#pcdfa33ee5e)" style="fill: none; stroke: #1f77b4; stroke-width: 1.5"/>
    <path d="M 281.09358 175.619923 
L 281.09358 173.405005 
" clip-path="url(#pcdfa33ee5e)" style="fill: none; stroke: #1f77b4; stroke-width: 1.5"/>
    <path d="M 282.108125 166.114222 
L 282.108125 163.670952 
" clip-path="url(#pcdfa33ee5e)" style="fill: none; stroke: #1f77b4; stroke-width: 1.5"/>
    <path d="M 283.12267 160.318434 
L 283.12267 157.745971 
" clip-path="url(#pcdfa33ee5e)" style="fill: none; stroke: #1f77b4; stroke-width: 1.5"/>
    <path d="M 284.137216 155.36768 
L 284.137216 152.689842 
" clip-path="url(#pcdfa33ee5e)" style="fill: none; stroke: #1f77b4; stroke-width: 1.5"/>
    <path d="M 285.151761 156.84492 
L 285.151761 154.19808 
" clip-path="url(#pcdfa33ee5e)" style="fill: none; stroke: #1f77b4; stroke-width: 1.5"/>
    <path d="M 286.166307 159.853538 
L 286.166307 157.270994 
" clip-path="url(#pcdfa33ee5e)" style="fill: none; stroke: #1f77b4; stroke-width: 1.5"/>
    <path d="M 287.180852 160.127009 
L 287.180852 157.55039 
" clip-path="url(#pcdfa33ee5e)" style="fill: none; stroke: #1f77b4; stroke-width: 1.5"/>
    <path d="M 288.195398 161.740346 
L 288.195398 159.198964 
" clip-path="url(#pcdfa33ee5e)" style="fill: none; stroke: #1f77b4; stroke-width: 1.5"/>
    <path d="M 289.209943 156.899629 
L 289.209943 154.253945 
" clip-path="url(#pcdfa33ee5e)" style="fill: none; stroke: #1f77b4; stroke-width: 1.5"/>
    <path d="M 290.224489 160.67393 
L 290.224489 158.109201 
" clip-path="url(#pcdfa33ee5e)" style="fill: none; stroke: #1f77b4; stroke-width: 1.5"/>
    <path d="M 291.239034 161.439573 
L 291.239034 158.891584 
" clip-path="url(#pcdfa33ee5e)" style="fill: none; stroke: #1f77b4; stroke-width: 1.5"/>
    <path d="M 292.25358 158.349328 
L 292.25358 155.734438 
" clip-path="url(#pcdfa33ee5e)" style="fill: none; stroke: #1f77b4; stroke-width: 1.5"/>
    <path d="M 293.268125 161.986427 
L 293.268125 159.450463 
" clip-path="url(#pcdfa33ee5e)" style="fill: none; stroke: #1f77b4; stroke-width: 1.5"/>
    <path d="M 294.28267 160.94738 
L 294.28267 158.388617 
" clip-path="url(#pcdfa33ee5e)" style="fill: none; stroke: #1f77b4; stroke-width: 1.5"/>
    <path d="M 295.297216 165.922906 
L 295.297216 163.475262 
" clip-path="url(#pcdfa33ee5e)" style="fill: none; stroke: #1f77b4; stroke-width: 1.5"/>
    <path d="M 296.311761 160.810656 
L 296.311761 158.248909 
" clip-path="url(#pcdfa33ee5e)" style="fill: none; stroke: #1f77b4; stroke-width: 1.5"/>
    <path d="M 297.326307 161.111447 
L 297.326307 158.556271 
" clip-path="url(#pcdfa33ee5e)" style="fill: none; stroke: #1f77b4; stroke-width: 1.5"/>
    <path d="M 298.340852 164.665591 
L 298.340852 162.189391 
" clip-path="url(#pcdfa33ee5e)" style="fill: none; stroke: #1f77b4; stroke-width: 1.5"/>
    <path d="M 299.355398 165.594927 
L 299.355398 163.139801 
" clip-path="url(#pcdfa33ee5e)" style="fill: none; stroke: #1f77b4; stroke-width: 1.5"/>
    <path d="M 300.369943 164.692926 
L 300.369943 162.217343 
" clip-path="url(#pcdfa33ee5e)" style="fill: none; stroke: #1f77b4; stroke-width: 1.5"/>
    <path d="M 301.384489 164.774929 
L 301.384489 162.301199 
" clip-path="url(#pcdfa33ee5e)" style="fill: none; stroke: #1f77b4; stroke-width: 1.5"/>
    <path d="M 302.399034 168.218433 
L 302.399034 165.823813 
" clip-path="url(#pcdfa33ee5e)" style="fill: none; stroke: #1f77b4; stroke-width: 1.5"/>
    <path d="M 303.41358 168.573641 
L 303.41358 166.187332 
" clip-path="url(#pcdfa33ee5e)" style="fill: none; stroke: #1f77b4; stroke-width: 1.5"/>
    <path d="M 304.428125 168.13646 
L 304.428125 165.739926 
" clip-path="url(#pcdfa33ee5e)" style="fill: none; stroke: #1f77b4; stroke-width: 1.5"/>
    <path d="M 305.44267 168.600964 
L 305.44267 166.215295 
" clip-path="url(#pcdfa33ee5e)" style="fill: none; stroke: #1f77b4; stroke-width: 1.5"/>
    <path d="M 306.457216 166.059561 
L 306.457216 163.61504 
" clip-path="url(#pcdfa33ee5e)" style="fill: none; stroke: #1f77b4; stroke-width: 1.5"/>
    <path d="M 307.471761 172.45262 
L 307.471761 170.159057 
" clip-path="url(#pcdfa33ee5e)" style="fill: none; stroke: #1f77b4; stroke-width: 1.5"/>
    <path d="M 308.486307 172.862261 
L 308.486307 170.578715 
" clip-path="url(#pcdfa33ee5e)" style="fill: none; stroke: #1f77b4; stroke-width: 1.5"/>
    <path d="M 309.500852 173.381109 
L 309.500852 171.110314 
" clip-path="url(#pcdfa33ee5e)" style="fill: none; stroke: #1f77b4; stroke-width: 1.5"/>
    <path d="M 310.515398 167.016087 
L 310.515398 164.593547 
" clip-path="url(#pcdfa33ee5e)" style="fill: none; stroke: #1f77b4; stroke-width: 1.5"/>
    <path d="M 311.529943 175.783712 
L 311.529943 173.572937 
" clip-path="url(#pcdfa33ee5e)" style="fill: none; stroke: #1f77b4; stroke-width: 1.5"/>
    <path d="M 312.544489 174.063748 
L 312.544489 171.809842 
" clip-path="url(#pcdfa33ee5e)" style="fill: none; stroke: #1f77b4; stroke-width: 1.5"/>
    <path d="M 313.559034 177.421374 
L 313.559034 175.252473 
" clip-path="url(#pcdfa33ee5e)" style="fill: none; stroke: #1f77b4; stroke-width: 1.5"/>
    <path d="M 314.57358 177.994459 
L 314.57358 175.840407 
" clip-path="url(#pcdfa33ee5e)" style="fill: none; stroke: #1f77b4; stroke-width: 1.5"/>
    <path d="M 315.588125 176.684475 
L 315.588125 174.496632 
" clip-path="url(#pcdfa33ee5e)" style="fill: none; stroke: #1f77b4; stroke-width: 1.5"/>
    <path d="M 316.60267 179.686122 
L 316.60267 177.576517 
" clip-path="url(#pcdfa33ee5e)" style="fill: none; stroke: #1f77b4; stroke-width: 1.5"/>
    <path d="M 317.617216 181.513669 
L 317.617216 179.453175 
" clip-path="url(#pcdfa33ee5e)" style="fill: none; stroke: #1f77b4; stroke-width: 1.5"/>
    <path d="M 318.631761 183.040714 
L 318.631761 181.022183 
" clip-path="url(#pcdfa33ee5e)" style="fill: none; stroke: #1f77b4; stroke-width: 1.5"/>
    <path d="M 319.646307 186.120684 
L 319.646307 184.189604 
" clip-path="url(#pcdfa33ee5e)" style="fill: none; stroke: #1f77b4; stroke-width: 1.5"/>
    <path d="M 320.660852 189.688649 
L 320.660852 187.86419 
" clip-path="url(#pcdfa33ee5e)" style="fill: none; stroke: #1f77b4; stroke-width: 1.5"/>
    <path d="M 321.675398 194.449726 
L 321.675398 192.778277 
" clip-path="url(#pcdfa33ee5e)" style="fill: none; stroke: #1f77b4; stroke-width: 1.5"/>
    <path d="M 322.689943 202.619059 
L 322.689943 201.250226 
" clip-path="url(#pcdfa33ee5e)" style="fill: none; stroke: #1f77b4; stroke-width: 1.5"/>
    <path d="M 323.704489 208.779721 
L 323.704489 207.694919 
" clip-path="url(#pcdfa33ee5e)" style="fill: none; stroke: #1f77b4; stroke-width: 1.5"/>
    <path d="M 324.719034 212.700601 
L 324.719034 211.84589 
" clip-path="url(#pcdfa33ee5e)" style="fill: none; stroke: #1f77b4; stroke-width: 1.5"/>
    <path d="M 325.73358 218.88 
L 325.73358 218.88 
" clip-path="url(#pcdfa33ee5e)" style="fill: none; stroke: #1f77b4; stroke-width: 1.5"/>
    <path d="M 326.748125 212.540072 
L 326.748125 211.674699 
" clip-path="url(#pcdfa33ee5e)" style="fill: none; stroke: #1f77b4; stroke-width: 1.5"/>
    <path d="M 327.76267 201.72501 
L 327.76267 200.319815 
" clip-path="url(#pcdfa33ee5e)" style="fill: none; stroke: #1f77b4; stroke-width: 1.5"/>
    <path d="M 328.777216 197.167017 
L 328.777216 195.589651 
" clip-path="url(#pcdfa33ee5e)" style="fill: none; stroke: #1f77b4; stroke-width: 1.5"/>
    <path d="M 329.791761 190.886337 
L 329.791761 189.099115 
" clip-path="url(#pcdfa33ee5e)" style="fill: none; stroke: #1f77b4; stroke-width: 1.5"/>
    <path d="M 330.806307 188.653982 
L 330.806307 186.797964 
" clip-path="url(#pcdfa33ee5e)" style="fill: none; stroke: #1f77b4; stroke-width: 1.5"/>
    <path d="M 331.820852 185.439443 
L 331.820852 183.488679 
" clip-path="url(#pcdfa33ee5e)" style="fill: none; stroke: #1f77b4; stroke-width: 1.5"/>
    <path d="M 332.835398 191.158484 
L 332.835398 189.379834 
" clip-path="url(#pcdfa33ee5e)" style="fill: none; stroke: #1f77b4; stroke-width: 1.5"/>
    <path d="M 333.849943 188.299956 
L 333.849943 186.433264 
" clip-path="url(#pcdfa33ee5e)" style="fill: none; stroke: #1f77b4; stroke-width: 1.5"/>
    <path d="M 334.864489 187.700766 
L 334.864489 185.816148 
" clip-path="url(#pcdfa33ee5e)" style="fill: none; stroke: #1f77b4; stroke-width: 1.5"/>
    <path d="M 335.879034 188.109314 
L 335.879034 186.2369 
" clip-path="url(#pcdfa33ee5e)" style="fill: none; stroke: #1f77b4; stroke-width: 1.5"/>
    <path d="M 336.89358 186.801823 
L 336.89358 184.890631 
" clip-path="url(#pcdfa33ee5e)" style="fill: none; stroke: #1f77b4; stroke-width: 1.5"/>
    <path d="M 337.908125 187.07425 
L 337.908125 185.171071 
" clip-path="url(#pcdfa33ee5e)" style="fill: none; stroke: #1f77b4; stroke-width: 1.5"/>
    <path d="M 338.92267 185.248678 
L 338.92267 183.292437 
" clip-path="url(#pcdfa33ee5e)" style="fill: none; stroke: #1f77b4; stroke-width: 1.5"/>
    <path d="M 339.937216 188.980749 
L 339.937216 187.134638 
" clip-path="url(#pcdfa33ee5e)" style="fill: none; stroke: #1f77b4; stroke-width: 1.5"/>
    <path d="M 340.951761 185.221426 
L 340.951761 183.264403 
" clip-path="url(#pcdfa33ee5e)" style="fill: none; stroke: #1f77b4; stroke-width: 1.5"/>
    <path d="M 341.966307 186.992523 
L 341.966307 185.086938 
" clip-path="url(#pcdfa33ee5e)" style="fill: none; stroke: #1f77b4; stroke-width: 1.5"/>
    <path d="M 342.980852 188.245488 
L 342.980852 186.377159 
" clip-path="url(#pcdfa33ee5e)" style="fill: none; stroke: #1f77b4; stroke-width: 1.5"/>
    <path d="M 343.995398 188.000372 
L 343.995398 186.124695 
" clip-path="url(#pcdfa33ee5e)" style="fill: none; stroke: #1f77b4; stroke-width: 1.5"/>
    <path d="M 345.009943 187.155974 
L 345.009943 185.255207 
" clip-path="url(#pcdfa33ee5e)" style="fill: none; stroke: #1f77b4; stroke-width: 1.5"/>
    <path d="M 346.024489 186.420398 
L 346.024489 184.498044 
" clip-path="url(#pcdfa33ee5e)" style="fill: none; stroke: #1f77b4; stroke-width: 1.5"/>
    <path d="M 347.039034 188.191019 
L 347.039034 186.321055 
" clip-path="url(#pcdfa33ee5e)" style="fill: none; stroke: #1f77b4; stroke-width: 1.5"/>
    <path d="M 348.05358 185.194173 
L 348.05358 183.23637 
" clip-path="url(#pcdfa33ee5e)" style="fill: none; stroke: #1f77b4; stroke-width: 1.5"/>
    <path d="M 349.068125 187.155974 
L 349.068125 185.255207 
" clip-path="url(#pcdfa33ee5e)" style="fill: none; stroke: #1f77b4; stroke-width: 1.5"/>
    <path d="M 350.08267 186.883553 
L 350.08267 184.974762 
" clip-path="url(#pcdfa33ee5e)" style="fill: none; stroke: #1f77b4; stroke-width: 1.5"/>
    <path d="M 351.097216 190.967983 
L 351.097216 189.183329 
" clip-path="url(#pcdfa33ee5e)" style="fill: none; stroke: #1f77b4; stroke-width: 1.5"/>
    <path d="M 352.111761 188.980749 
L 352.111761 187.134638 
" clip-path="url(#pcdfa33ee5e)" style="fill: none; stroke: #1f77b4; stroke-width: 1.5"/>
    <path d="M 353.126307 189.606975 
L 353.126307 187.780004 
" clip-path="url(#pcdfa33ee5e)" style="fill: none; stroke: #1f77b4; stroke-width: 1.5"/>
    <path d="M 354.140852 188.545055 
L 354.140852 186.685746 
" clip-path="url(#pcdfa33ee5e)" style="fill: none; stroke: #1f77b4; stroke-width: 1.5"/>
    <path d="M 355.155398 190.178659 
L 355.155398 188.36934 
" clip-path="url(#pcdfa33ee5e)" style="fill: none; stroke: #1f77b4; stroke-width: 1.5"/>
    <path d="M 356.169943 187.836953 
L 356.169943 185.956394 
" clip-path="url(#pcdfa33ee5e)" style="fill: none; stroke: #1f77b4; stroke-width: 1.5"/>
    <path d="M 357.184489 189.089665 
L 357.184489 187.246868 
" clip-path="url(#pcdfa33ee5e)" style="fill: none; stroke: #1f77b4; stroke-width: 1.5"/>
    <path d="M 358.199034 190.967983 
L 358.199034 189.183329 
" clip-path="url(#pcdfa33ee5e)" style="fill: none; stroke: #1f77b4; stroke-width: 1.5"/>
    <path d="M 359.21358 193.008519 
L 359.21358 191.289291 
" clip-path="url(#pcdfa33ee5e)" style="fill: none; stroke: #1f77b4; stroke-width: 1.5"/>
    <path d="M 360.228125 190.559733 
L 360.228125 188.762279 
" clip-path="url(#pcdfa33ee5e)" style="fill: none; stroke: #1f77b4; stroke-width: 1.5"/>
    <path d="M 361.24267 192.13804 
L 361.24267 190.390597 
" clip-path="url(#pcdfa33ee5e)" style="fill: none; stroke: #1f77b4; stroke-width: 1.5"/>
    <path d="M 362.257216 194.966218 
L 362.257216 193.312232 
" clip-path="url(#pcdfa33ee5e)" style="fill: none; stroke: #1f77b4; stroke-width: 1.5"/>
    <path d="M 363.271761 195.835885 
L 363.271761 194.211737 
" clip-path="url(#pcdfa33ee5e)" style="fill: none; stroke: #1f77b4; stroke-width: 1.5"/>
    <path d="M 364.286307 196.13477 
L 364.286307 194.521006 
" clip-path="url(#pcdfa33ee5e)" style="fill: none; stroke: #1f77b4; stroke-width: 1.5"/>
    <path d="M 365.300852 195.129301 
L 365.300852 193.480868 
" clip-path="url(#pcdfa33ee5e)" style="fill: none; stroke: #1f77b4; stroke-width: 1.5"/>
    <path d="M 366.315398 197.465746 
L 366.315398 195.899075 
" clip-path="url(#pcdfa33ee5e)" style="fill: none; stroke: #1f77b4; stroke-width: 1.5"/>
    <path d="M 367.329943 197.845894 
L 367.329943 196.29294 
" clip-path="url(#pcdfa33ee5e)" style="fill: none; stroke: #1f77b4; stroke-width: 1.5"/>
    <path d="M 368.344489 200.179682 
L 368.344489 198.713804 
" clip-path="url(#pcdfa33ee5e)" style="fill: none; stroke: #1f77b4; stroke-width: 1.5"/>
    <path d="M 369.359034 203.566749 
L 369.359034 202.237568 
" clip-path="url(#pcdfa33ee5e)" style="fill: none; stroke: #1f77b4; stroke-width: 1.5"/>
    <path d="M 370.37358 206.378902 
L 370.37358 205.175227 
" clip-path="url(#pcdfa33ee5e)" style="fill: none; stroke: #1f77b4; stroke-width: 1.5"/>
    <path d="M 371.388125 209.399067 
L 371.388125 208.347167 
" clip-path="url(#pcdfa33ee5e)" style="fill: none; stroke: #1f77b4; stroke-width: 1.5"/>
    <path d="M 372.40267 213.688934 
L 372.40267 212.903163 
" clip-path="url(#pcdfa33ee5e)" style="fill: none; stroke: #1f77b4; stroke-width: 1.5"/>
   </g>
   <g id="patch_3">
    <path d="M 53.328125 228.96 
L 53.328125 7.2 
" style="fill: none; stroke: #000000; stroke-width: 0.8; stroke-linejoin: miter; stroke-linecap: square"/>
   </g>
   <g id="patch_4">
    <path d="M 388.128125 228.96 
L 388.128125 7.2 
" style="fill: none; stroke: #000000; stroke-width: 0.8; stroke-linejoin: miter; stroke-linecap: square"/>
   </g>
   <g id="patch_5">
    <path d="M 53.328125 228.96 
L 388.128125 228.96 
" style="fill: none; stroke: #000000; stroke-width: 0.8; stroke-linejoin: miter; stroke-linecap: square"/>
   </g>
   <g id="patch_6">
    <path d="M 53.328125 7.2 
L 388.128125 7.2 
" style="fill: none; stroke: #000000; stroke-width: 0.8; stroke-linejoin: miter; stroke-linecap: square"/>
   </g>
  </g>
 </g>
 <defs>
  <clipPath id="pcdfa33ee5e">
   <rect x="53.328125" y="7.2" width="334.8" height="221.76"/>
  </clipPath>
 </defs>
</svg>
