<?xml version="1.0" encoding="utf-8" standalone="no"?>
<!DOCTYPE svg PUBLIC "-//W3C//DTD SVG 1.1//EN"
  "http://www.w3.org/Graphics/SVG/1.1/DTD/svg11.dtd">
<svg xmlns:xlink="http://www.w3.org/1999/xlink" width="395.328125pt" height="268.200625pt" viewBox="0 0 395.328125 268.200625" xmlns="http://www.w3.org/2000/svg" version="1.1">
 <metadata>
  <rdf:RDF xmlns:dc="http://purl.org/dc/elements/1.1/" xmlns:cc="http://creativecommons.org/ns#" xmlns:rdf="http://www.w3.org/1999/02/22-rdf-syntax-ns#">
   <cc:Work>
    <dc:type rdf:resource="http://purl.org/dc/dcmitype/StillImage"/>
    <dc:date>2025-11-21T09:43:40.732699</dc:date>
    <dc:format>image/svg+xml</dc:format>
    <dc:creator>
     <cc:Agent>
      <dc:title>Matplotlib v3.10.7, https://matplotlib.org/</dc:title>
     </cc:Agent>
    </dc:creator>
   </cc:Work>
  </rdf:RDF>
 </metadata>
 <defs>
  <style type="text/css">*{stroke-linejoin: round; stroke-linecap: butt}</style>
 </defs>
 <g id="figure_1">
  <g id="patch_1">
   <path d="M 0 268.200625 
L 395.328125 268.200625 
L 395.328125 0 
L 0 0 
z
" style="fill: #ffffff"/>
  </g>
  <g id="axes_1">
   <g id="patch_2">
    <path d="M 53.328125 228.96 
L 388.128125 228.96 
L 388.128125 7.2 
L 53.328125 7.2 
z
" style="fill: #ffffff"/>
   </g>
   <g id="matplotlib.axis_1">
    <g id="xtick_1">
     <g id="line2d_1">
      <defs>
       <path id="m8426b857b1" d="M 0 0 
L 0 3.5 
" style="stroke: #000000; stroke-width: 0.8"/>
      </defs>
      <g>
       <use xlink:href="#m8426b857b1" x="104.795985" y="228.96" style="stroke: #000000; stroke-width: 0.8"/>
      </g>
     </g>
     <g id="text_1">
      <!-- 2 -->
      <g transform="translate(101.614735 243.558437) scale(0.1 -0.1)">
       <defs>
        <path id="DejaVuSans-32" d="M 1228 531 
L 3431 531 
L 3431 0 
L 469 0 
L 469 531 
Q 828 903 1448 1529 
Q 2069 2156 2228 2338 
Q 2531 2678 2651 2914 
Q 2772 3150 2772 3378 
Q 2772 3750 2511 3984 
Q 2250 4219 1831 4219 
Q 1534 4219 1204 4116 
Q 875 4013 500 3803 
L 500 4441 
Q 881 4594 1212 4672 
Q 1544 4750 1819 4750 
Q 2544 4750 2975 4387 
Q 3406 4025 3406 3419 
Q 3406 3131 3298 2873 
Q 3191 2616 2906 2266 
Q 2828 2175 2409 1742 
Q 1991 1309 1228 531 
z
" transform="scale(0.015625)"/>
       </defs>
       <use xlink:href="#DejaVuSans-32"/>
      </g>
     </g>
    </g>
    <g id="xtick_2">
     <g id="line2d_2">
      <g>
       <use xlink:href="#m8426b857b1" x="177.397832" y="228.96" style="stroke: #000000; stroke-width: 0.8"/>
      </g>
     </g>
     <g id="text_2">
      <!-- 4 -->
      <g transform="translate(174.216582 243.558437) scale(0.1 -0.1)">
       <defs>
        <path id="DejaVuSans-34" d="M 2419 4116 
L 825 1625 
L 2419 1625 
L 2419 4116 
z
M 2253 4666 
L 3047 4666 
L 3047 1625 
L 3713 1625 
L 3713 1100 
L 3047 1100 
L 3047 0 
L 2419 0 
L 2419 1100 
L 313 1100 
L 313 1709 
L 2253 4666 
z
" transform="scale(0.015625)"/>
       </defs>
       <use xlink:href="#DejaVuSans-34"/>
      </g>
     </g>
    </g>
    <g id="xtick_3">
     <g id="line2d_3">
      <g>
       <use xlink:href="#m8426b857b1" x="249.999679" y="228.96" style="stroke: #000000; stroke-width: 0.8"/>
      </g>
     </g>
     <g id="text_3">
      <!-- 6 -->
      <g transform="translate(246.818429 243.558437) scale(0.1 -0.1)">
       <defs>
        <path id="DejaVuSans-36" d="M 2113 2584 
Q 1688 2584 1439 2293 
Q 1191 2003 1191 1497 
Q 1191 994 1439 701 
Q 1688 409 2113 409 
Q 2538 409 2786 701 
Q 3034 994 3034 1497 
Q 3034 2003 2786 2293 
Q 2538 2584 2113 2584 
z
M 3366 4563 
L 3366 3988 
Q 3128 4100 2886 4159 
Q 2644 4219 2406 4219 
Q 1781 4219 1451 3797 
Q 1122 3375 1075 2522 
Q 1259 2794 1537 2939 
Q 1816 3084 2150 3084 
Q 2853 3084 3261 2657 
Q 3669 2231 3669 1497 
Q 3669 778 3244 343 
Q 2819 -91 2113 -91 
Q 1303 -91 875 529 
Q 447 1150 447 2328 
Q 447 3434 972 4092 
Q 1497 4750 2381 4750 
Q 2619 4750 2861 4703 
Q 3103 4656 3366 4563 
z
" transform="scale(0.015625)"/>
       </defs>
       <use xlink:href="#DejaVuSans-36"/>
      </g>
     </g>
    </g>
    <g id="xtick_4">
     <g id="line2d_4">
      <g>
       <use xlink:href="#m8426b857b1" x="322.601527" y="228.96" style="stroke: #000000; stroke-width: 0.8"/>
      </g>
     </g>
     <g id="text_4">
      <!-- 8 -->
      <g transform="translate(319.420277 243.558437) scale(0.1 -0.1)">
       <defs>
        <path id="DejaVuSans-38" d="M 2034 2216 
Q 1584 2216 1326 1975 
Q 1069 1734 1069 1313 
Q 1069 891 1326 650 
Q 1584 409 2034 409 
Q 2484 409 2743 651 
Q 3003 894 3003 1313 
Q 3003 1734 2745 1975 
Q 2488 2216 2034 2216 
z
M 1403 2484 
Q 997 2584 770 2862 
Q 544 3141 544 3541 
Q 544 4100 942 4425 
Q 1341 4750 2034 4750 
Q 2731 4750 3128 4425 
Q 3525 4100 3525 3541 
Q 3525 3141 3298 2862 
Q 3072 2584 2669 2484 
Q 3125 2378 3379 2068 
Q 3634 1759 3634 1313 
Q 3634 634 3220 271 
Q 2806 -91 2034 -91 
Q 1263 -91 848 271 
Q 434 634 434 1313 
Q 434 1759 690 2068 
Q 947 2378 1403 2484 
z
M 1172 3481 
Q 1172 3119 1398 2916 
Q 1625 2713 2034 2713 
Q 2441 2713 2670 2916 
Q 2900 3119 2900 3481 
Q 2900 3844 2670 4047 
Q 2441 4250 2034 4250 
Q 1625 4250 1398 4047 
Q 1172 3844 1172 3481 
z
" transform="scale(0.015625)"/>
       </defs>
       <use xlink:href="#DejaVuSans-38"/>
      </g>
     </g>
    </g>
    <g id="text_5">
     <!-- wavelength [Å] -->
     <g transform="translate(182.690625 258.920937) scale(0.1 -0.1)">
      <defs>
       <path id="DejaVuSans-77" d="M 269 3500 
L 844 3500 
L 1563 769 
L 2278 3500 
L 2956 3500 
L 3675 769 
L 4391 3500 
L 4966 3500 
L 4050 0 
L 3372 0 
L 2619 2869 
L 1863 0 
L 1184 0 
L 269 3500 
z
" transform="scale(0.015625)"/>
       <path id="DejaVuSans-61" d="M 2194 1759 
Q 1497 1759 1228 1600 
Q 959 1441 959 1056 
Q 959 750 1161 570 
Q 1363 391 1709 391 
Q 2188 391 2477 730 
Q 2766 1069 2766 1631 
L 2766 1759 
L 2194 1759 
z
M 3341 1997 
L 3341 0 
L 2766 0 
L 2766 531 
Q 2569 213 2275 61 
Q 1981 -91 1556 -91 
Q 1019 -91 701 211 
Q 384 513 384 1019 
Q 384 1609 779 1909 
Q 1175 2209 1959 2209 
L 2766 2209 
L 2766 2266 
Q 2766 2663 2505 2880 
Q 2244 3097 1772 3097 
Q 1472 3097 1187 3025 
Q 903 2953 641 2809 
L 641 3341 
Q 956 3463 1253 3523 
Q 1550 3584 1831 3584 
Q 2591 3584 2966 3190 
Q 3341 2797 3341 1997 
z
" transform="scale(0.015625)"/>
       <path id="DejaVuSans-76" d="M 191 3500 
L 800 3500 
L 1894 563 
L 2988 3500 
L 3597 3500 
L 2284 0 
L 1503 0 
L 191 3500 
z
" transform="scale(0.015625)"/>
       <path id="DejaVuSans-65" d="M 3597 1894 
L 3597 1613 
L 953 1613 
Q 991 1019 1311 708 
Q 1631 397 2203 397 
Q 2534 397 2845 478 
Q 3156 559 3463 722 
L 3463 178 
Q 3153 47 2828 -22 
Q 2503 -91 2169 -91 
Q 1331 -91 842 396 
Q 353 884 353 1716 
Q 353 2575 817 3079 
Q 1281 3584 2069 3584 
Q 2775 3584 3186 3129 
Q 3597 2675 3597 1894 
z
M 3022 2063 
Q 3016 2534 2758 2815 
Q 2500 3097 2075 3097 
Q 1594 3097 1305 2825 
Q 1016 2553 972 2059 
L 3022 2063 
z
" transform="scale(0.015625)"/>
       <path id="DejaVuSans-6c" d="M 603 4863 
L 1178 4863 
L 1178 0 
L 603 0 
L 603 4863 
z
" transform="scale(0.015625)"/>
       <path id="DejaVuSans-6e" d="M 3513 2113 
L 3513 0 
L 2938 0 
L 2938 2094 
Q 2938 2591 2744 2837 
Q 2550 3084 2163 3084 
Q 1697 3084 1428 2787 
Q 1159 2491 1159 1978 
L 1159 0 
L 581 0 
L 581 3500 
L 1159 3500 
L 1159 2956 
Q 1366 3272 1645 3428 
Q 1925 3584 2291 3584 
Q 2894 3584 3203 3211 
Q 3513 2838 3513 2113 
z
" transform="scale(0.015625)"/>
       <path id="DejaVuSans-67" d="M 2906 1791 
Q 2906 2416 2648 2759 
Q 2391 3103 1925 3103 
Q 1463 3103 1205 2759 
Q 947 2416 947 1791 
Q 947 1169 1205 825 
Q 1463 481 1925 481 
Q 2391 481 2648 825 
Q 2906 1169 2906 1791 
z
M 3481 434 
Q 3481 -459 3084 -895 
Q 2688 -1331 1869 -1331 
Q 1566 -1331 1297 -1286 
Q 1028 -1241 775 -1147 
L 775 -588 
Q 1028 -725 1275 -790 
Q 1522 -856 1778 -856 
Q 2344 -856 2625 -561 
Q 2906 -266 2906 331 
L 2906 616 
Q 2728 306 2450 153 
Q 2172 0 1784 0 
Q 1141 0 747 490 
Q 353 981 353 1791 
Q 353 2603 747 3093 
Q 1141 3584 1784 3584 
Q 2172 3584 2450 3431 
Q 2728 3278 2906 2969 
L 2906 3500 
L 3481 3500 
L 3481 434 
z
" transform="scale(0.015625)"/>
       <path id="DejaVuSans-74" d="M 1172 4494 
L 1172 3500 
L 2356 3500 
L 2356 3053 
L 1172 3053 
L 1172 1153 
Q 1172 725 1289 603 
Q 1406 481 1766 481 
L 2356 481 
L 2356 0 
L 1766 0 
Q 1100 0 847 248 
Q 594 497 594 1153 
L 594 3053 
L 172 3053 
L 172 3500 
L 594 3500 
L 594 4494 
L 1172 4494 
z
" transform="scale(0.015625)"/>
       <path id="DejaVuSans-68" d="M 3513 2113 
L 3513 0 
L 2938 0 
L 2938 2094 
Q 2938 2591 2744 2837 
Q 2550 3084 2163 3084 
Q 1697 3084 1428 2787 
Q 1159 2491 1159 1978 
L 1159 0 
L 581 0 
L 581 4863 
L 1159 4863 
L 1159 2956 
Q 1366 3272 1645 3428 
Q 1925 3584 2291 3584 
Q 2894 3584 3203 3211 
Q 3513 2838 3513 2113 
z
" transform="scale(0.015625)"/>
       <path id="DejaVuSans-20" transform="scale(0.015625)"/>
       <path id="DejaVuSans-5b" d="M 550 4863 
L 1875 4863 
L 1875 4416 
L 1125 4416 
L 1125 -397 
L 1875 -397 
L 1875 -844 
L 550 -844 
L 550 4863 
z
" transform="scale(0.015625)"/>
       <path id="DejaVuSans-c5" d="M 2663 5081 
Q 2663 5278 2523 5417 
Q 2384 5556 2188 5556 
Q 1988 5556 1852 5420 
Q 1716 5284 1716 5081 
Q 1716 4884 1853 4746 
Q 1991 4609 2188 4609 
Q 2384 4609 2523 4746 
Q 2663 4884 2663 5081 
z
M 2188 4044 
L 1338 1722 
L 3041 1722 
L 2188 4044 
z
M 1716 4366 
Q 1525 4494 1428 4673 
Q 1331 4853 1331 5081 
Q 1331 5441 1579 5691 
Q 1828 5941 2188 5941 
Q 2544 5941 2795 5689 
Q 3047 5438 3047 5081 
Q 3047 4863 2948 4678 
Q 2850 4494 2663 4366 
L 4325 0 
L 3669 0 
L 3244 1197 
L 1141 1197 
L 716 0 
L 50 0 
L 1716 4366 
z
" transform="scale(0.015625)"/>
       <path id="DejaVuSans-5d" d="M 1947 4863 
L 1947 -844 
L 622 -844 
L 622 -397 
L 1369 -397 
L 1369 4416 
L 622 4416 
L 622 4863 
L 1947 4863 
z
" transform="scale(0.015625)"/>
      </defs>
      <use xlink:href="#DejaVuSans-77"/>
      <use xlink:href="#DejaVuSans-61" transform="translate(81.787109 0)"/>
      <use xlink:href="#DejaVuSans-76" transform="translate(143.066406 0)"/>
      <use xlink:href="#DejaVuSans-65" transform="translate(202.246094 0)"/>
      <use xlink:href="#DejaVuSans-6c" transform="translate(263.769531 0)"/>
      <use xlink:href="#DejaVuSans-65" transform="translate(291.552734 0)"/>
      <use xlink:href="#DejaVuSans-6e" transform="translate(353.076172 0)"/>
      <use xlink:href="#DejaVuSans-67" transform="translate(416.455078 0)"/>
      <use xlink:href="#DejaVuSans-74" transform="translate(479.931641 0)"/>
      <use xlink:href="#DejaVuSans-68" transform="translate(519.140625 0)"/>
      <use xlink:href="#DejaVuSans-20" transform="translate(582.519531 0)"/>
      <use xlink:href="#DejaVuSans-5b" transform="translate(614.306641 0)"/>
      <use xlink:href="#DejaVuSans-c5" transform="translate(653.320312 0)"/>
      <use xlink:href="#DejaVuSans-5d" transform="translate(721.728516 0)"/>
     </g>
    </g>
   </g>
   <g id="matplotlib.axis_2">
    <g id="ytick_1">
     <g id="line2d_5">
      <defs>
       <path id="mbf953ba890" d="M 0 0 
L -3.5 0 
" style="stroke: #000000; stroke-width: 0.8"/>
      </defs>
      <g>
       <use xlink:href="#mbf953ba890" x="53.328125" y="218.88" style="stroke: #000000; stroke-width: 0.8"/>
      </g>
     </g>
     <g id="text_6">
      <!-- 0 -->
      <g transform="translate(39.965625 222.679219) scale(0.1 -0.1)">
       <defs>
        <path id="DejaVuSans-30" d="M 2034 4250 
Q 1547 4250 1301 3770 
Q 1056 3291 1056 2328 
Q 1056 1369 1301 889 
Q 1547 409 2034 409 
Q 2525 409 2770 889 
Q 3016 1369 3016 2328 
Q 3016 3291 2770 3770 
Q 2525 4250 2034 4250 
z
M 2034 4750 
Q 2819 4750 3233 4129 
Q 3647 3509 3647 2328 
Q 3647 1150 3233 529 
Q 2819 -91 2034 -91 
Q 1250 -91 836 529 
Q 422 1150 422 2328 
Q 422 3509 836 4129 
Q 1250 4750 2034 4750 
z
" transform="scale(0.015625)"/>
       </defs>
       <use xlink:href="#DejaVuSans-30"/>
      </g>
     </g>
    </g>
    <g id="ytick_2">
     <g id="line2d_6">
      <g>
       <use xlink:href="#mbf953ba890" x="53.328125" y="190.767487" style="stroke: #000000; stroke-width: 0.8"/>
      </g>
     </g>
     <g id="text_7">
      <!-- 1000 -->
      <g transform="translate(20.878125 194.566706) scale(0.1 -0.1)">
       <defs>
        <path id="DejaVuSans-31" d="M 794 531 
L 1825 531 
L 1825 4091 
L 703 3866 
L 703 4441 
L 1819 4666 
L 2450 4666 
L 2450 531 
L 3481 531 
L 3481 0 
L 794 0 
L 794 531 
z
" transform="scale(0.015625)"/>
       </defs>
       <use xlink:href="#DejaVuSans-31"/>
       <use xlink:href="#DejaVuSans-30" transform="translate(63.623047 0)"/>
       <use xlink:href="#DejaVuSans-30" transform="translate(127.246094 0)"/>
       <use xlink:href="#DejaVuSans-30" transform="translate(190.869141 0)"/>
      </g>
     </g>
    </g>
    <g id="ytick_3">
     <g id="line2d_7">
      <g>
       <use xlink:href="#mbf953ba890" x="53.328125" y="162.654975" style="stroke: #000000; stroke-width: 0.8"/>
      </g>
     </g>
     <g id="text_8">
      <!-- 2000 -->
      <g transform="translate(20.878125 166.454193) scale(0.1 -0.1)">
       <use xlink:href="#DejaVuSans-32"/>
       <use xlink:href="#DejaVuSans-30" transform="translate(63.623047 0)"/>
       <use xlink:href="#DejaVuSans-30" transform="translate(127.246094 0)"/>
       <use xlink:href="#DejaVuSans-30" transform="translate(190.869141 0)"/>
      </g>
     </g>
    </g>
    <g id="ytick_4">
     <g id="line2d_8">
      <g>
       <use xlink:href="#mbf953ba890" x="53.328125" y="134.542462" style="stroke: #000000; stroke-width: 0.8"/>
      </g>
     </g>
     <g id="text_9">
      <!-- 3000 -->
      <g transform="translate(20.878125 138.341681) scale(0.1 -0.1)">
       <defs>
        <path id="DejaVuSans-33" d="M 2597 2516 
Q 3050 2419 3304 2112 
Q 3559 1806 3559 1356 
Q 3559 666 3084 287 
Q 2609 -91 1734 -91 
Q 1441 -91 1130 -33 
Q 819 25 488 141 
L 488 750 
Q 750 597 1062 519 
Q 1375 441 1716 441 
Q 2309 441 2620 675 
Q 2931 909 2931 1356 
Q 2931 1769 2642 2001 
Q 2353 2234 1838 2234 
L 1294 2234 
L 1294 2753 
L 1863 2753 
Q 2328 2753 2575 2939 
Q 2822 3125 2822 3475 
Q 2822 3834 2567 4026 
Q 2313 4219 1838 4219 
Q 1578 4219 1281 4162 
Q 984 4106 628 3988 
L 628 4550 
Q 988 4650 1302 4700 
Q 1616 4750 1894 4750 
Q 2613 4750 3031 4423 
Q 3450 4097 3450 3541 
Q 3450 3153 3228 2886 
Q 3006 2619 2597 2516 
z
" transform="scale(0.015625)"/>
       </defs>
       <use xlink:href="#DejaVuSans-33"/>
       <use xlink:href="#DejaVuSans-30" transform="translate(63.623047 0)"/>
       <use xlink:href="#DejaVuSans-30" transform="translate(127.246094 0)"/>
       <use xlink:href="#DejaVuSans-30" transform="translate(190.869141 0)"/>
      </g>
     </g>
    </g>
    <g id="ytick_5">
     <g id="line2d_9">
      <g>
       <use xlink:href="#mbf953ba890" x="53.328125" y="106.429949" style="stroke: #000000; stroke-width: 0.8"/>
      </g>
     </g>
     <g id="text_10">
      <!-- 4000 -->
      <g transform="translate(20.878125 110.229168) scale(0.1 -0.1)">
       <use xlink:href="#DejaVuSans-34"/>
       <use xlink:href="#DejaVuSans-30" transform="translate(63.623047 0)"/>
       <use xlink:href="#DejaVuSans-30" transform="translate(127.246094 0)"/>
       <use xlink:href="#DejaVuSans-30" transform="translate(190.869141 0)"/>
      </g>
     </g>
    </g>
    <g id="ytick_6">
     <g id="line2d_10">
      <g>
       <use xlink:href="#mbf953ba890" x="53.328125" y="78.317437" style="stroke: #000000; stroke-width: 0.8"/>
      </g>
     </g>
     <g id="text_11">
      <!-- 5000 -->
      <g transform="translate(20.878125 82.116655) scale(0.1 -0.1)">
       <defs>
        <path id="DejaVuSans-35" d="M 691 4666 
L 3169 4666 
L 3169 4134 
L 1269 4134 
L 1269 2991 
Q 1406 3038 1543 3061 
Q 1681 3084 1819 3084 
Q 2600 3084 3056 2656 
Q 3513 2228 3513 1497 
Q 3513 744 3044 326 
Q 2575 -91 1722 -91 
Q 1428 -91 1123 -41 
Q 819 9 494 109 
L 494 744 
Q 775 591 1075 516 
Q 1375 441 1709 441 
Q 2250 441 2565 725 
Q 2881 1009 2881 1497 
Q 2881 1984 2565 2268 
Q 2250 2553 1709 2553 
Q 1456 2553 1204 2497 
Q 953 2441 691 2322 
L 691 4666 
z
" transform="scale(0.015625)"/>
       </defs>
       <use xlink:href="#DejaVuSans-35"/>
       <use xlink:href="#DejaVuSans-30" transform="translate(63.623047 0)"/>
       <use xlink:href="#DejaVuSans-30" transform="translate(127.246094 0)"/>
       <use xlink:href="#DejaVuSans-30" transform="translate(190.869141 0)"/>
      </g>
     </g>
    </g>
    <g id="ytick_7">
     <g id="line2d_11">
      <g>
       <use xlink:href="#mbf953ba890" x="53.328125" y="50.204924" style="stroke: #000000; stroke-width: 0.8"/>
      </g>
     </g>
     <g id="text_12">
      <!-- 6000 -->
      <g transform="translate(20.878125 54.004143) scale(0.1 -0.1)">
       <use xlink:href="#DejaVuSans-36"/>
       <use xlink:href="#DejaVuSans-30" transform="translate(63.623047 0)"/>
       <use xlink:href="#DejaVuSans-30" transform="translate(127.246094 0)"/>
       <use xlink:href="#DejaVuSans-30" transform="translate(190.869141 0)"/>
      </g>
     </g>
    </g>
    <g id="ytick_8">
     <g id="line2d_12">
      <g>
       <use xlink:href="#mbf953ba890" x="53.328125" y="22.092411" style="stroke: #000000; stroke-width: 0.8"/>
      </g>
     </g>
     <g id="text_13">
      <!-- 7000 -->
      <g transform="translate(20.878125 25.89163) scale(0.1 -0.1)">
       <defs>
        <path id="DejaVuSans-37" d="M 525 4666 
L 3525 4666 
L 3525 4397 
L 1831 0 
L 1172 0 
L 2766 4134 
L 525 4134 
L 525 4666 
z
" transform="scale(0.015625)"/>
       </defs>
       <use xlink:href="#DejaVuSans-37"/>
       <use xlink:href="#DejaVuSans-30" transform="translate(63.623047 0)"/>
       <use xlink:href="#DejaVuSans-30" transform="translate(127.246094 0)"/>
       <use xlink:href="#DejaVuSans-30" transform="translate(190.869141 0)"/>
      </g>
     </g>
    </g>
    <g id="text_14">
     <!-- [counts] -->
     <g transform="translate(14.798438 138.6925) rotate(-90) scale(0.1 -0.1)">
      <defs>
       <path id="DejaVuSans-63" d="M 3122 3366 
L 3122 2828 
Q 2878 2963 2633 3030 
Q 2388 3097 2138 3097 
Q 1578 3097 1268 2742 
Q 959 2388 959 1747 
Q 959 1106 1268 751 
Q 1578 397 2138 397 
Q 2388 397 2633 464 
Q 2878 531 3122 666 
L 3122 134 
Q 2881 22 2623 -34 
Q 2366 -91 2075 -91 
Q 1284 -91 818 406 
Q 353 903 353 1747 
Q 353 2603 823 3093 
Q 1294 3584 2113 3584 
Q 2378 3584 2631 3529 
Q 2884 3475 3122 3366 
z
" transform="scale(0.015625)"/>
       <path id="DejaVuSans-6f" d="M 1959 3097 
Q 1497 3097 1228 2736 
Q 959 2375 959 1747 
Q 959 1119 1226 758 
Q 1494 397 1959 397 
Q 2419 397 2687 759 
Q 2956 1122 2956 1747 
Q 2956 2369 2687 2733 
Q 2419 3097 1959 3097 
z
M 1959 3584 
Q 2709 3584 3137 3096 
Q 3566 2609 3566 1747 
Q 3566 888 3137 398 
Q 2709 -91 1959 -91 
Q 1206 -91 779 398 
Q 353 888 353 1747 
Q 353 2609 779 3096 
Q 1206 3584 1959 3584 
z
" transform="scale(0.015625)"/>
       <path id="DejaVuSans-75" d="M 544 1381 
L 544 3500 
L 1119 3500 
L 1119 1403 
Q 1119 906 1312 657 
Q 1506 409 1894 409 
Q 2359 409 2629 706 
Q 2900 1003 2900 1516 
L 2900 3500 
L 3475 3500 
L 3475 0 
L 2900 0 
L 2900 538 
Q 2691 219 2414 64 
Q 2138 -91 1772 -91 
Q 1169 -91 856 284 
Q 544 659 544 1381 
z
M 1991 3584 
L 1991 3584 
z
" transform="scale(0.015625)"/>
       <path id="DejaVuSans-73" d="M 2834 3397 
L 2834 2853 
Q 2591 2978 2328 3040 
Q 2066 3103 1784 3103 
Q 1356 3103 1142 2972 
Q 928 2841 928 2578 
Q 928 2378 1081 2264 
Q 1234 2150 1697 2047 
L 1894 2003 
Q 2506 1872 2764 1633 
Q 3022 1394 3022 966 
Q 3022 478 2636 193 
Q 2250 -91 1575 -91 
Q 1294 -91 989 -36 
Q 684 19 347 128 
L 347 722 
Q 666 556 975 473 
Q 1284 391 1588 391 
Q 1994 391 2212 530 
Q 2431 669 2431 922 
Q 2431 1156 2273 1281 
Q 2116 1406 1581 1522 
L 1381 1569 
Q 847 1681 609 1914 
Q 372 2147 372 2553 
Q 372 3047 722 3315 
Q 1072 3584 1716 3584 
Q 2034 3584 2315 3537 
Q 2597 3491 2834 3397 
z
" transform="scale(0.015625)"/>
      </defs>
      <use xlink:href="#DejaVuSans-5b"/>
      <use xlink:href="#DejaVuSans-63" transform="translate(39.013672 0)"/>
      <use xlink:href="#DejaVuSans-6f" transform="translate(93.994141 0)"/>
      <use xlink:href="#DejaVuSans-75" transform="translate(155.175781 0)"/>
      <use xlink:href="#DejaVuSans-6e" transform="translate(218.554688 0)"/>
      <use xlink:href="#DejaVuSans-74" transform="translate(281.933594 0)"/>
      <use xlink:href="#DejaVuSans-73" transform="translate(321.142578 0)"/>
      <use xlink:href="#DejaVuSans-5d" transform="translate(373.242188 0)"/>
     </g>
    </g>
   </g>
   <g id="line2d_13">
    <path d="M 68.546307 178.313644 
L 69.560852 178.313644 
L 69.560852 167.462214 
L 70.575398 167.462214 
L 70.575398 158.747335 
L 71.589943 158.747335 
L 71.589943 148.964181 
L 72.604489 148.964181 
L 72.604489 128.695059 
L 73.619034 128.695059 
L 73.619034 126.333608 
L 74.63358 126.333608 
L 74.63358 124.815533 
L 75.648125 124.815533 
L 75.648125 122.847657 
L 76.66267 122.847657 
L 76.66267 123.831595 
L 77.677216 123.831595 
L 77.677216 118.237205 
L 78.691761 118.237205 
L 78.691761 118.433992 
L 79.706307 118.433992 
L 79.706307 115.594628 
L 80.720852 115.594628 
L 80.720852 111.827552 
L 81.735398 111.827552 
L 81.735398 119.53038 
L 82.749943 119.53038 
L 82.749943 110.168913 
L 83.764489 110.168913 
L 83.764489 117.843629 
L 84.779034 117.843629 
L 84.779034 117.984192 
L 86.808125 117.927967 
L 86.808125 118.827567 
L 87.82267 118.827567 
L 87.82267 116.297441 
L 88.837216 116.297441 
L 88.837216 112.670927 
L 89.851761 112.670927 
L 89.851761 119.474155 
L 90.866307 119.474155 
L 90.866307 115.622741 
L 91.880852 115.622741 
L 91.880852 120.542431 
L 92.895398 120.542431 
L 92.895398 122.538419 
L 93.909943 122.538419 
L 93.909943 125.180995 
L 94.924489 125.180995 
L 94.924489 128.610722 
L 95.939034 128.610722 
L 95.939034 126.980196 
L 96.95358 126.980196 
L 96.95358 130.803498 
L 97.968125 130.803498 
L 97.968125 130.128797 
L 98.98267 130.128797 
L 98.98267 131.562536 
L 101.011761 131.506311 
L 101.011761 129.763335 
L 102.026307 129.763335 
L 102.026307 132.096673 
L 103.040852 132.096673 
L 103.040852 134.598687 
L 104.055398 134.598687 
L 104.055398 133.389849 
L 105.069943 133.389849 
L 105.069943 135.160937 
L 106.084489 135.160937 
L 106.084489 131.562536 
L 107.099034 131.562536 
L 107.099034 134.430012 
L 108.11358 134.430012 
L 108.11358 129.088634 
L 109.128125 129.088634 
L 109.128125 131.927998 
L 111.157216 132.012336 
L 111.157216 130.634823 
L 112.171761 130.634823 
L 112.171761 132.068561 
L 113.186307 132.068561 
L 113.186307 130.016347 
L 114.200852 130.016347 
L 114.200852 132.602699 
L 115.215398 132.602699 
L 115.215398 133.558524 
L 116.229943 133.558524 
L 116.229943 134.289449 
L 117.244489 134.289449 
L 117.244489 128.385822 
L 118.259034 128.385822 
L 118.259034 124.956095 
L 119.27358 124.956095 
L 119.27358 127.739234 
L 120.288125 127.739234 
L 120.288125 136.735238 
L 121.30267 136.735238 
L 121.30267 155.907972 
L 122.317216 155.907972 
L 122.317216 162.907987 
L 123.331761 162.907987 
L 123.331761 133.249286 
L 124.346307 133.249286 
L 124.346307 113.289402 
L 125.360852 113.289402 
L 125.360852 105.952037 
L 126.375398 105.952037 
L 126.375398 87.988141 
L 127.389943 87.988141 
L 127.389943 59.538278 
L 128.404489 59.538278 
L 128.404489 39.690844 
L 129.419034 39.690844 
L 129.419034 40.98402 
L 130.43358 40.98402 
L 130.43358 44.498084 
L 131.448125 44.498084 
L 131.448125 48.658736 
L 132.46267 48.658736 
L 132.46267 45.79126 
L 133.477216 45.79126 
L 133.477216 44.582422 
L 134.491761 44.582422 
L 134.491761 48.686848 
L 135.506307 48.686848 
L 135.506307 41.405708 
L 136.520852 41.405708 
L 136.520852 39.747069 
L 137.535398 39.747069 
L 137.535398 19.646623 
L 138.549943 19.646623 
L 138.549943 31.622553 
L 139.564489 31.622553 
L 139.564489 26.871539 
L 140.579034 26.871539 
L 140.579034 25.409688 
L 141.59358 25.409688 
L 141.59358 30.216928 
L 142.608125 30.216928 
L 142.608125 27.433789 
L 143.62267 27.433789 
L 143.62267 31.172753 
L 144.637216 31.172753 
L 144.637216 33.309304 
L 145.651761 33.309304 
L 145.651761 34.686817 
L 146.666307 34.686817 
L 146.666307 34.180792 
L 147.680852 34.180792 
L 147.680852 35.445855 
L 148.695398 35.445855 
L 148.695398 37.216943 
L 149.709943 37.216943 
L 149.709943 42.980008 
L 150.724489 42.980008 
L 150.724489 40.75912 
L 151.739034 40.75912 
L 151.739034 41.743058 
L 152.75358 41.743058 
L 152.75358 40.843457 
L 153.768125 40.843457 
L 153.768125 48.939861 
L 154.78267 48.939861 
L 154.78267 50.710949 
L 155.797216 50.710949 
L 155.797216 50.233037 
L 156.811761 50.233037 
L 156.811761 56.727027 
L 157.826307 56.727027 
L 157.826307 58.863578 
L 158.840852 58.863578 
L 158.840852 61.000129 
L 159.855398 61.000129 
L 159.855398 63.839493 
L 160.869943 63.839493 
L 160.869943 60.100528 
L 161.884489 60.100528 
L 161.884489 67.915807 
L 162.899034 67.915807 
L 162.899034 70.417821 
L 163.91358 70.417821 
L 163.91358 74.156785 
L 164.928125 74.156785 
L 164.928125 76.293336 
L 165.94267 76.293336 
L 165.94267 80.397763 
L 166.957216 80.397763 
L 166.957216 88.353604 
L 167.971761 88.353604 
L 167.971761 92.542368 
L 168.986307 92.542368 
L 168.986307 92.823493 
L 170.000852 92.823493 
L 170.000852 103.646811 
L 171.015398 103.646811 
L 171.015398 106.711074 
L 172.029943 106.711074 
L 172.029943 112.783377 
L 173.044489 112.783377 
L 173.044489 124.956095 
L 174.059034 124.956095 
L 174.059034 136.622788 
L 175.07358 136.622788 
L 175.07358 152.928045 
L 176.088125 152.928045 
L 176.088125 168.136915 
L 177.10267 168.136915 
L 177.10267 133.305511 
L 178.117216 133.305511 
L 178.117216 126.024371 
L 179.131761 126.024371 
L 179.131761 130.072572 
L 180.146307 130.072572 
L 180.146307 74.353572 
L 181.160852 74.353572 
L 181.160852 36.429793 
L 182.175398 36.429793 
L 182.175398 30.048252 
L 183.189943 30.048252 
L 183.189943 28.277164 
L 184.204489 28.277164 
L 184.204489 27.293226 
L 185.219034 27.293226 
L 185.219034 28.895639 
L 186.23358 28.895639 
L 186.23358 35.923768 
L 187.248125 35.923768 
L 187.248125 31.819341 
L 188.26267 31.819341 
L 188.26267 28.783189 
L 189.277216 28.783189 
L 189.277216 33.056291 
L 190.291761 33.056291 
L 190.291761 31.03219 
L 191.306307 31.03219 
L 191.306307 36.429793 
L 192.320852 36.429793 
L 192.320852 43.710934 
L 193.335398 43.710934 
L 193.335398 40.506107 
L 194.349943 40.506107 
L 194.349943 39.606507 
L 195.364489 39.606507 
L 195.364489 35.783205 
L 196.379034 35.783205 
L 196.379034 43.036233 
L 197.39358 43.036233 
L 197.39358 48.967973 
L 198.408125 48.967973 
L 198.408125 45.819372 
L 199.42267 45.819372 
L 199.42267 50.739062 
L 200.437216 50.739062 
L 200.437216 54.731039 
L 201.451761 54.731039 
L 201.451761 47.25311 
L 202.466307 47.25311 
L 202.466307 53.241075 
L 203.480852 53.241075 
L 203.480852 56.951927 
L 204.495398 56.951927 
L 204.495398 62.293304 
L 205.509943 62.293304 
L 205.509943 64.767206 
L 206.524489 64.767206 
L 206.524489 66.791306 
L 207.539034 66.791306 
L 207.539034 74.156785 
L 208.55358 74.156785 
L 208.55358 73.341522 
L 209.568125 73.341522 
L 209.568125 73.088509 
L 210.58267 73.088509 
L 210.58267 75.309398 
L 211.597216 75.309398 
L 211.597216 71.879671 
L 212.611761 71.879671 
L 212.611761 79.863625 
L 213.626307 79.863625 
L 213.626307 82.618651 
L 214.640852 82.618651 
L 214.640852 94.369681 
L 215.655398 94.369681 
L 215.655398 88.719066 
L 216.669943 88.719066 
L 216.669943 92.00823 
L 217.684489 92.00823 
L 217.684489 98.108646 
L 218.699034 98.108646 
L 218.699034 103.056448 
L 219.71358 103.056448 
L 219.71358 108.032363 
L 220.728125 108.032363 
L 220.728125 106.261274 
L 221.74267 106.261274 
L 221.74267 114.779366 
L 222.757216 114.779366 
L 222.757216 120.20508 
L 223.771761 120.20508 
L 223.771761 122.931994 
L 224.786307 122.931994 
L 224.786307 128.723172 
L 225.800852 128.723172 
L 225.800852 144.859754 
L 226.815398 144.859754 
L 226.815398 165.381888 
L 227.829943 165.381888 
L 227.829943 179.83172 
L 228.844489 179.83172 
L 228.844489 183.655022 
L 229.859034 183.655022 
L 229.859034 162.992325 
L 230.87358 162.992325 
L 230.87358 142.413965 
L 231.888125 142.413965 
L 231.888125 124.028382 
L 232.90267 124.028382 
L 232.90267 109.213088 
L 233.917216 109.213088 
L 233.917216 106.654849 
L 234.931761 106.654849 
L 234.931761 111.012289 
L 235.946307 111.012289 
L 235.946307 111.799439 
L 236.960852 111.799439 
L 236.960852 104.068498 
L 237.975398 104.068498 
L 237.975398 114.61069 
L 238.989943 114.61069 
L 238.989943 108.90385 
L 240.004489 108.90385 
L 240.004489 111.883777 
L 241.019034 111.883777 
L 241.019034 111.209076 
L 242.03358 111.209076 
L 242.03358 119.839618 
L 243.048125 119.839618 
L 243.048125 113.401852 
L 244.06267 113.401852 
L 244.06267 116.606679 
L 245.077216 116.606679 
L 245.077216 122.622757 
L 246.091761 122.622757 
L 246.091761 115.116716 
L 247.106307 115.116716 
L 247.106307 118.321542 
L 248.120852 118.321542 
L 248.120852 120.514318 
L 249.135398 120.514318 
L 249.135398 121.357694 
L 250.149943 121.357694 
L 250.149943 124.618745 
L 251.164489 124.618745 
L 251.164489 126.446058 
L 252.179034 126.446058 
L 252.179034 123.859707 
L 253.19358 123.859707 
L 253.19358 131.871773 
L 254.208125 131.871773 
L 254.208125 128.385822 
L 255.22267 128.385822 
L 255.22267 131.956111 
L 256.237216 131.956111 
L 256.237216 131.421973 
L 257.251761 131.421973 
L 257.251761 133.727199 
L 258.266307 133.727199 
L 258.266307 133.586637 
L 259.280852 133.586637 
L 259.280852 136.257325 
L 260.295398 136.257325 
L 260.295398 134.430012 
L 261.309943 134.430012 
L 261.309943 140.164964 
L 262.324489 140.164964 
L 262.324489 141.23324 
L 263.339034 141.23324 
L 263.339034 143.060553 
L 264.35358 143.060553 
L 264.35358 144.269391 
L 265.368125 144.269391 
L 265.368125 149.470206 
L 266.38267 149.470206 
L 266.38267 149.835669 
L 267.397216 149.835669 
L 267.397216 150.369807 
L 268.411761 150.369807 
L 268.411761 152.337682 
L 269.426307 152.337682 
L 269.426307 154.867809 
L 270.440852 154.867809 
L 270.440852 155.767409 
L 271.455398 155.767409 
L 271.455398 157.313597 
L 272.469943 157.313597 
L 272.469943 162.767425 
L 273.484489 162.767425 
L 273.484489 165.663013 
L 274.499034 165.663013 
L 274.499034 175.13693 
L 275.51358 175.13693 
L 275.51358 183.233334 
L 276.528125 183.233334 
L 276.528125 196.980353 
L 277.54267 196.980353 
L 277.54267 212.161109 
L 278.557216 212.161109 
L 278.557216 195.827739 
L 279.571761 195.827739 
L 279.571761 188.630936 
L 280.586307 188.630936 
L 280.586307 174.968255 
L 281.600852 174.968255 
L 281.600852 165.691126 
L 282.615398 165.691126 
L 282.615398 158.325648 
L 283.629943 158.325648 
L 283.629943 154.783471 
L 284.644489 154.783471 
L 284.644489 153.068608 
L 285.659034 153.068608 
L 285.659034 156.217209 
L 286.67358 156.217209 
L 286.67358 157.960185 
L 287.688125 157.960185 
L 287.688125 159.703161 
L 288.70267 159.703161 
L 288.70267 155.205159 
L 289.717216 155.205159 
L 289.717216 160.096736 
L 290.731761 160.096736 
L 290.731761 162.177062 
L 291.746307 162.177062 
L 291.746307 158.213198 
L 292.760852 158.213198 
L 292.760852 155.430059 
L 293.775398 155.430059 
L 293.775398 159.843723 
L 294.789943 159.843723 
L 294.789943 162.317624 
L 295.804489 162.317624 
L 295.804489 159.000348 
L 296.819034 159.000348 
L 296.819034 160.940111 
L 297.83358 160.940111 
L 297.83358 162.879875 
L 298.848125 162.879875 
L 298.848125 164.791526 
L 299.86267 164.791526 
L 299.86267 162.542525 
L 300.877216 162.542525 
L 300.877216 168.389927 
L 301.891761 168.389927 
L 301.891761 168.783502 
L 302.906307 168.783502 
L 302.906307 164.144938 
L 303.920852 164.144938 
L 303.920852 167.968239 
L 304.935398 167.968239 
L 304.935398 167.209202 
L 305.949943 167.209202 
L 305.949943 168.249365 
L 306.964489 168.249365 
L 306.964489 170.189128 
L 307.979034 170.189128 
L 307.979034 175.052593 
L 308.99358 175.052593 
L 308.99358 174.377892 
L 310.008125 174.377892 
L 310.008125 170.835716 
L 311.02267 170.835716 
L 311.02267 176.205206 
L 312.037216 176.205206 
L 312.037216 175.193155 
L 313.051761 175.193155 
L 313.051761 177.132919 
L 314.066307 177.132919 
L 314.066307 175.642955 
L 315.080852 175.642955 
L 315.080852 178.904007 
L 316.095398 178.904007 
L 316.095398 179.634932 
L 317.109943 179.634932 
L 317.109943 181.996383 
L 318.124489 181.996383 
L 318.124489 182.333733 
L 319.139034 182.333733 
L 319.139034 186.88796 
L 320.15358 186.88796 
L 320.15358 190.064674 
L 321.168125 190.064674 
L 321.168125 193.438176 
L 322.18267 193.438176 
L 322.18267 202.068717 
L 323.197216 202.068717 
L 323.197216 208.112908 
L 324.211761 208.112908 
L 324.211761 212.779585 
L 325.226307 212.779585 
L 325.226307 218.88 
L 326.240852 218.88 
L 326.240852 214.044648 
L 327.255398 214.044648 
L 327.255398 202.630968 
L 328.269943 202.630968 
L 328.269943 197.06469 
L 329.284489 197.06469 
L 329.284489 192.594801 
L 330.299034 192.594801 
L 330.299034 191.526525 
L 331.31358 191.526525 
L 331.31358 187.337761 
L 332.328125 187.337761 
L 332.328125 190.626925 
L 333.34267 190.626925 
L 333.34267 189.165074 
L 334.357216 189.165074 
L 334.357216 187.112861 
L 335.371761 187.112861 
L 335.371761 189.558649 
L 336.386307 189.558649 
L 336.386307 186.916073 
L 337.400852 186.916073 
L 337.400852 188.827724 
L 339.429943 188.883949 
L 339.429943 189.558649 
L 340.444489 189.558649 
L 340.444489 187.928123 
L 341.459034 187.928123 
L 341.459034 186.803623 
L 342.47358 186.803623 
L 342.47358 189.136961 
L 343.488125 189.136961 
L 343.488125 190.739375 
L 344.50267 190.739375 
L 344.50267 188.124911 
L 345.517216 188.124911 
L 345.517216 188.687161 
L 346.531761 188.687161 
L 346.531761 191.301625 
L 347.546307 191.301625 
L 347.546307 188.265474 
L 348.560852 188.265474 
L 348.560852 187.309648 
L 349.575398 187.309648 
L 349.575398 188.012461 
L 350.589943 188.012461 
L 350.589943 191.863875 
L 351.604489 191.863875 
L 351.604489 191.610863 
L 352.619034 191.610863 
L 352.619034 191.835763 
L 353.63358 191.835763 
L 353.63358 190.233349 
L 354.648125 190.233349 
L 354.648125 191.526525 
L 355.66267 191.526525 
L 355.66267 189.867887 
L 356.677216 189.867887 
L 356.677216 189.474312 
L 357.691761 189.474312 
L 357.691761 193.887976 
L 358.706307 193.887976 
L 358.706307 195.237377 
L 359.720852 195.237377 
L 359.720852 194.843802 
L 360.735398 194.843802 
L 360.735398 193.410063 
L 361.749943 193.410063 
L 361.749943 196.05264 
L 362.764489 196.05264 
L 362.764489 198.132966 
L 363.779034 198.132966 
L 363.779034 198.245416 
L 364.79358 198.245416 
L 364.79358 196.418102 
L 365.808125 196.418102 
L 365.808125 198.835778 
L 366.82267 198.835778 
L 366.82267 199.088791 
L 367.837216 199.088791 
L 367.837216 201.365904 
L 368.851761 201.365904 
L 368.851761 205.132981 
L 369.866307 205.132981 
L 369.866307 207.634995 
L 370.880852 207.634995 
L 370.880852 210.867934 
L 371.895398 210.867934 
L 371.895398 214.241435 
L 372.909943 214.241435 
L 372.909943 214.241435 
" clip-path="url(#p4fa25d00c0)" style="fill: none; stroke: #1f77b4; stroke-width: 1.5; stroke-linecap: square"/>
   </g>
   <g id="LineCollection_1">
    <path d="M 69.05358 179.38155 
L 69.05358 177.245739 
" clip-path="url(#p4fa25d00c0)" style="fill: none; stroke: #1f77b4; stroke-width: 1.5"/>
    <path d="M 70.068125 168.664497 
L 70.068125 166.259932 
" clip-path="url(#p4fa25d00c0)" style="fill: none; stroke: #1f77b4; stroke-width: 1.5"/>
    <path d="M 71.08267 160.04752 
L 71.08267 157.447151 
" clip-path="url(#p4fa25d00c0)" style="fill: none; stroke: #1f77b4; stroke-width: 1.5"/>
    <path d="M 72.097216 150.366147 
L 72.097216 147.562215 
" clip-path="url(#p4fa25d00c0)" style="fill: none; stroke: #1f77b4; stroke-width: 1.5"/>
    <path d="M 73.111761 130.28733 
L 73.111761 127.102789 
" clip-path="url(#p4fa25d00c0)" style="fill: none; stroke: #1f77b4; stroke-width: 1.5"/>
    <path d="M 74.126307 127.94659 
L 74.126307 124.720626 
" clip-path="url(#p4fa25d00c0)" style="fill: none; stroke: #1f77b4; stroke-width: 1.5"/>
    <path d="M 75.140852 126.44169 
L 75.140852 123.189375 
" clip-path="url(#p4fa25d00c0)" style="fill: none; stroke: #1f77b4; stroke-width: 1.5"/>
    <path d="M 76.155398 124.490736 
L 76.155398 121.204577 
" clip-path="url(#p4fa25d00c0)" style="fill: none; stroke: #1f77b4; stroke-width: 1.5"/>
    <path d="M 77.169943 125.466235 
L 77.169943 122.196954 
" clip-path="url(#p4fa25d00c0)" style="fill: none; stroke: #1f77b4; stroke-width: 1.5"/>
    <path d="M 78.184489 119.919263 
L 78.184489 116.555146 
" clip-path="url(#p4fa25d00c0)" style="fill: none; stroke: #1f77b4; stroke-width: 1.5"/>
    <path d="M 79.199034 120.114406 
L 79.199034 116.753579 
" clip-path="url(#p4fa25d00c0)" style="fill: none; stroke: #1f77b4; stroke-width: 1.5"/>
    <path d="M 80.21358 117.298627 
L 80.21358 113.89063 
" clip-path="url(#p4fa25d00c0)" style="fill: none; stroke: #1f77b4; stroke-width: 1.5"/>
    <path d="M 81.228125 113.562347 
L 81.228125 110.092757 
" clip-path="url(#p4fa25d00c0)" style="fill: none; stroke: #1f77b4; stroke-width: 1.5"/>
    <path d="M 82.24267 121.201598 
L 82.24267 117.859163 
" clip-path="url(#p4fa25d00c0)" style="fill: none; stroke: #1f77b4; stroke-width: 1.5"/>
    <path d="M 83.257216 111.917096 
L 83.257216 108.420731 
" clip-path="url(#p4fa25d00c0)" style="fill: none; stroke: #1f77b4; stroke-width: 1.5"/>
    <path d="M 84.271761 119.528974 
L 84.271761 116.158285 
" clip-path="url(#p4fa25d00c0)" style="fill: none; stroke: #1f77b4; stroke-width: 1.5"/>
    <path d="M 85.286307 119.668364 
L 85.286307 116.30002 
" clip-path="url(#p4fa25d00c0)" style="fill: none; stroke: #1f77b4; stroke-width: 1.5"/>
    <path d="M 86.300852 119.612608 
L 86.300852 116.243326 
" clip-path="url(#p4fa25d00c0)" style="fill: none; stroke: #1f77b4; stroke-width: 1.5"/>
    <path d="M 87.315398 120.504686 
L 87.315398 117.150449 
" clip-path="url(#p4fa25d00c0)" style="fill: none; stroke: #1f77b4; stroke-width: 1.5"/>
    <path d="M 88.329943 117.995632 
L 88.329943 114.59925 
" clip-path="url(#p4fa25d00c0)" style="fill: none; stroke: #1f77b4; stroke-width: 1.5"/>
    <path d="M 89.344489 114.398875 
L 89.344489 110.942979 
" clip-path="url(#p4fa25d00c0)" style="fill: none; stroke: #1f77b4; stroke-width: 1.5"/>
    <path d="M 90.359034 121.145845 
L 90.359034 117.802465 
" clip-path="url(#p4fa25d00c0)" style="fill: none; stroke: #1f77b4; stroke-width: 1.5"/>
    <path d="M 91.37358 117.326508 
L 91.37358 113.918974 
" clip-path="url(#p4fa25d00c0)" style="fill: none; stroke: #1f77b4; stroke-width: 1.5"/>
    <path d="M 92.388125 122.205114 
L 92.388125 118.879747 
" clip-path="url(#p4fa25d00c0)" style="fill: none; stroke: #1f77b4; stroke-width: 1.5"/>
    <path d="M 93.40267 124.184142 
L 93.40267 120.892696 
" clip-path="url(#p4fa25d00c0)" style="fill: none; stroke: #1f77b4; stroke-width: 1.5"/>
    <path d="M 94.417216 126.803991 
L 94.417216 123.558 
" clip-path="url(#p4fa25d00c0)" style="fill: none; stroke: #1f77b4; stroke-width: 1.5"/>
    <path d="M 95.431761 130.203737 
L 95.431761 127.017707 
" clip-path="url(#p4fa25d00c0)" style="fill: none; stroke: #1f77b4; stroke-width: 1.5"/>
    <path d="M 96.446307 128.587534 
L 96.446307 125.372858 
" clip-path="url(#p4fa25d00c0)" style="fill: none; stroke: #1f77b4; stroke-width: 1.5"/>
    <path d="M 97.460852 132.377045 
L 97.460852 129.22995 
" clip-path="url(#p4fa25d00c0)" style="fill: none; stroke: #1f77b4; stroke-width: 1.5"/>
    <path d="M 98.475398 131.70836 
L 98.475398 128.549234 
" clip-path="url(#p4fa25d00c0)" style="fill: none; stroke: #1f77b4; stroke-width: 1.5"/>
    <path d="M 99.489943 133.129288 
L 99.489943 129.995783 
" clip-path="url(#p4fa25d00c0)" style="fill: none; stroke: #1f77b4; stroke-width: 1.5"/>
    <path d="M 100.504489 133.073567 
L 100.504489 129.939054 
" clip-path="url(#p4fa25d00c0)" style="fill: none; stroke: #1f77b4; stroke-width: 1.5"/>
    <path d="M 101.519034 131.346147 
L 101.519034 128.180523 
" clip-path="url(#p4fa25d00c0)" style="fill: none; stroke: #1f77b4; stroke-width: 1.5"/>
    <path d="M 102.53358 133.658626 
L 102.53358 130.53472 
" clip-path="url(#p4fa25d00c0)" style="fill: none; stroke: #1f77b4; stroke-width: 1.5"/>
    <path d="M 103.548125 136.137959 
L 103.548125 133.059415 
" clip-path="url(#p4fa25d00c0)" style="fill: none; stroke: #1f77b4; stroke-width: 1.5"/>
    <path d="M 104.56267 134.940121 
L 104.56267 131.839577 
" clip-path="url(#p4fa25d00c0)" style="fill: none; stroke: #1f77b4; stroke-width: 1.5"/>
    <path d="M 105.577216 136.695067 
L 105.577216 133.626808 
" clip-path="url(#p4fa25d00c0)" style="fill: none; stroke: #1f77b4; stroke-width: 1.5"/>
    <path d="M 106.591761 133.129288 
L 106.591761 129.995783 
" clip-path="url(#p4fa25d00c0)" style="fill: none; stroke: #1f77b4; stroke-width: 1.5"/>
    <path d="M 107.606307 135.970824 
L 107.606307 132.8892 
" clip-path="url(#p4fa25d00c0)" style="fill: none; stroke: #1f77b4; stroke-width: 1.5"/>
    <path d="M 108.620852 130.677427 
L 108.620852 127.499842 
" clip-path="url(#p4fa25d00c0)" style="fill: none; stroke: #1f77b4; stroke-width: 1.5"/>
    <path d="M 109.635398 133.491469 
L 109.635398 130.364528 
" clip-path="url(#p4fa25d00c0)" style="fill: none; stroke: #1f77b4; stroke-width: 1.5"/>
    <path d="M 110.649943 133.575048 
L 110.649943 130.449624 
" clip-path="url(#p4fa25d00c0)" style="fill: none; stroke: #1f77b4; stroke-width: 1.5"/>
    <path d="M 111.664489 132.209876 
L 111.664489 129.059769 
" clip-path="url(#p4fa25d00c0)" style="fill: none; stroke: #1f77b4; stroke-width: 1.5"/>
    <path d="M 112.679034 133.630767 
L 112.679034 130.506355 
" clip-path="url(#p4fa25d00c0)" style="fill: none; stroke: #1f77b4; stroke-width: 1.5"/>
    <path d="M 113.69358 131.596911 
L 113.69358 128.435784 
" clip-path="url(#p4fa25d00c0)" style="fill: none; stroke: #1f77b4; stroke-width: 1.5"/>
    <path d="M 114.708125 134.160091 
L 114.708125 131.045306 
" clip-path="url(#p4fa25d00c0)" style="fill: none; stroke: #1f77b4; stroke-width: 1.5"/>
    <path d="M 115.72267 135.107266 
L 115.72267 132.009782 
" clip-path="url(#p4fa25d00c0)" style="fill: none; stroke: #1f77b4; stroke-width: 1.5"/>
    <path d="M 116.737216 135.831543 
L 116.737216 132.747356 
" clip-path="url(#p4fa25d00c0)" style="fill: none; stroke: #1f77b4; stroke-width: 1.5"/>
    <path d="M 117.751761 129.98082 
L 117.751761 126.790824 
" clip-path="url(#p4fa25d00c0)" style="fill: none; stroke: #1f77b4; stroke-width: 1.5"/>
    <path d="M 118.766307 126.581037 
L 118.766307 123.331153 
" clip-path="url(#p4fa25d00c0)" style="fill: none; stroke: #1f77b4; stroke-width: 1.5"/>
    <path d="M 119.780852 129.33992 
L 119.780852 126.138548 
" clip-path="url(#p4fa25d00c0)" style="fill: none; stroke: #1f77b4; stroke-width: 1.5"/>
    <path d="M 120.795398 138.254875 
L 120.795398 135.215601 
" clip-path="url(#p4fa25d00c0)" style="fill: none; stroke: #1f77b4; stroke-width: 1.5"/>
    <path d="M 121.809943 157.238499 
L 121.809943 154.577445 
" clip-path="url(#p4fa25d00c0)" style="fill: none; stroke: #1f77b4; stroke-width: 1.5"/>
    <path d="M 122.824489 164.162385 
L 122.824489 161.653589 
" clip-path="url(#p4fa25d00c0)" style="fill: none; stroke: #1f77b4; stroke-width: 1.5"/>
    <path d="M 123.839034 134.800832 
L 123.839034 131.697741 
" clip-path="url(#p4fa25d00c0)" style="fill: none; stroke: #1f77b4; stroke-width: 1.5"/>
    <path d="M 124.85358 115.012312 
L 124.85358 111.566493 
" clip-path="url(#p4fa25d00c0)" style="fill: none; stroke: #1f77b4; stroke-width: 1.5"/>
    <path d="M 125.868125 107.733802 
L 125.868125 104.170271 
" clip-path="url(#p4fa25d00c0)" style="fill: none; stroke: #1f77b4; stroke-width: 1.5"/>
    <path d="M 126.88267 89.906395 
L 126.88267 86.069887 
" clip-path="url(#p4fa25d00c0)" style="fill: none; stroke: #1f77b4; stroke-width: 1.5"/>
    <path d="M 127.897216 61.65476 
L 127.897216 57.421796 
" clip-path="url(#p4fa25d00c0)" style="fill: none; stroke: #1f77b4; stroke-width: 1.5"/>
    <path d="M 128.911761 41.935272 
L 128.911761 37.446416 
" clip-path="url(#p4fa25d00c0)" style="fill: none; stroke: #1f77b4; stroke-width: 1.5"/>
    <path d="M 129.926307 43.220335 
L 129.926307 38.747705 
" clip-path="url(#p4fa25d00c0)" style="fill: none; stroke: #1f77b4; stroke-width: 1.5"/>
    <path d="M 130.940852 46.712201 
L 130.940852 42.283967 
" clip-path="url(#p4fa25d00c0)" style="fill: none; stroke: #1f77b4; stroke-width: 1.5"/>
    <path d="M 131.955398 50.84628 
L 131.955398 46.471192 
" clip-path="url(#p4fa25d00c0)" style="fill: none; stroke: #1f77b4; stroke-width: 1.5"/>
    <path d="M 132.969943 47.997152 
L 132.969943 43.585368 
" clip-path="url(#p4fa25d00c0)" style="fill: none; stroke: #1f77b4; stroke-width: 1.5"/>
    <path d="M 133.984489 46.796003 
L 133.984489 42.36884 
" clip-path="url(#p4fa25d00c0)" style="fill: none; stroke: #1f77b4; stroke-width: 1.5"/>
    <path d="M 134.999034 50.874211 
L 134.999034 46.499485 
" clip-path="url(#p4fa25d00c0)" style="fill: none; stroke: #1f77b4; stroke-width: 1.5"/>
    <path d="M 136.01358 43.63937 
L 136.01358 39.172045 
" clip-path="url(#p4fa25d00c0)" style="fill: none; stroke: #1f77b4; stroke-width: 1.5"/>
    <path d="M 137.028125 41.991145 
L 137.028125 37.502993 
" clip-path="url(#p4fa25d00c0)" style="fill: none; stroke: #1f77b4; stroke-width: 1.5"/>
    <path d="M 138.04267 22.013256 
L 138.04267 17.27999 
" clip-path="url(#p4fa25d00c0)" style="fill: none; stroke: #1f77b4; stroke-width: 1.5"/>
    <path d="M 139.057216 33.916955 
L 139.057216 29.328152 
" clip-path="url(#p4fa25d00c0)" style="fill: none; stroke: #1f77b4; stroke-width: 1.5"/>
    <path d="M 140.071761 29.194864 
L 140.071761 24.548213 
" clip-path="url(#p4fa25d00c0)" style="fill: none; stroke: #1f77b4; stroke-width: 1.5"/>
    <path d="M 141.086307 27.741841 
L 141.086307 23.077535 
" clip-path="url(#p4fa25d00c0)" style="fill: none; stroke: #1f77b4; stroke-width: 1.5"/>
    <path d="M 142.100852 32.519924 
L 142.100852 27.913931 
" clip-path="url(#p4fa25d00c0)" style="fill: none; stroke: #1f77b4; stroke-width: 1.5"/>
    <path d="M 143.115398 29.75371 
L 143.115398 25.113868 
" clip-path="url(#p4fa25d00c0)" style="fill: none; stroke: #1f77b4; stroke-width: 1.5"/>
    <path d="M 144.129943 33.469908 
L 144.129943 28.875598 
" clip-path="url(#p4fa25d00c0)" style="fill: none; stroke: #1f77b4; stroke-width: 1.5"/>
    <path d="M 145.144489 35.593348 
L 145.144489 31.02526 
" clip-path="url(#p4fa25d00c0)" style="fill: none; stroke: #1f77b4; stroke-width: 1.5"/>
    <path d="M 146.159034 36.962368 
L 146.159034 32.411266 
" clip-path="url(#p4fa25d00c0)" style="fill: none; stroke: #1f77b4; stroke-width: 1.5"/>
    <path d="M 147.17358 36.459467 
L 147.17358 31.902117 
" clip-path="url(#p4fa25d00c0)" style="fill: none; stroke: #1f77b4; stroke-width: 1.5"/>
    <path d="M 148.188125 37.716713 
L 148.188125 33.174997 
" clip-path="url(#p4fa25d00c0)" style="fill: none; stroke: #1f77b4; stroke-width: 1.5"/>
    <path d="M 149.20267 39.476812 
L 149.20267 34.957075 
" clip-path="url(#p4fa25d00c0)" style="fill: none; stroke: #1f77b4; stroke-width: 1.5"/>
    <path d="M 150.217216 45.203742 
L 150.217216 40.756275 
" clip-path="url(#p4fa25d00c0)" style="fill: none; stroke: #1f77b4; stroke-width: 1.5"/>
    <path d="M 151.231761 42.996847 
L 151.231761 38.521392 
" clip-path="url(#p4fa25d00c0)" style="fill: none; stroke: #1f77b4; stroke-width: 1.5"/>
    <path d="M 152.246307 43.974596 
L 152.246307 39.511519 
" clip-path="url(#p4fa25d00c0)" style="fill: none; stroke: #1f77b4; stroke-width: 1.5"/>
    <path d="M 153.260852 43.080655 
L 153.260852 38.606259 
" clip-path="url(#p4fa25d00c0)" style="fill: none; stroke: #1f77b4; stroke-width: 1.5"/>
    <path d="M 154.275398 51.125597 
L 154.275398 46.754124 
" clip-path="url(#p4fa25d00c0)" style="fill: none; stroke: #1f77b4; stroke-width: 1.5"/>
    <path d="M 155.289943 52.885266 
L 155.289943 48.536632 
" clip-path="url(#p4fa25d00c0)" style="fill: none; stroke: #1f77b4; stroke-width: 1.5"/>
    <path d="M 156.304489 52.410441 
L 156.304489 48.055632 
" clip-path="url(#p4fa25d00c0)" style="fill: none; stroke: #1f77b4; stroke-width: 1.5"/>
    <path d="M 157.319034 58.862098 
L 157.319034 54.591956 
" clip-path="url(#p4fa25d00c0)" style="fill: none; stroke: #1f77b4; stroke-width: 1.5"/>
    <path d="M 158.33358 60.984536 
L 158.33358 56.74262 
" clip-path="url(#p4fa25d00c0)" style="fill: none; stroke: #1f77b4; stroke-width: 1.5"/>
    <path d="M 159.348125 63.10688 
L 159.348125 58.893378 
" clip-path="url(#p4fa25d00c0)" style="fill: none; stroke: #1f77b4; stroke-width: 1.5"/>
    <path d="M 160.36267 65.927213 
L 160.36267 61.751772 
" clip-path="url(#p4fa25d00c0)" style="fill: none; stroke: #1f77b4; stroke-width: 1.5"/>
    <path d="M 161.377216 62.213273 
L 161.377216 57.987784 
" clip-path="url(#p4fa25d00c0)" style="fill: none; stroke: #1f77b4; stroke-width: 1.5"/>
    <path d="M 162.391761 69.9759 
L 162.391761 65.855714 
" clip-path="url(#p4fa25d00c0)" style="fill: none; stroke: #1f77b4; stroke-width: 1.5"/>
    <path d="M 163.406307 72.460771 
L 163.406307 68.374871 
" clip-path="url(#p4fa25d00c0)" style="fill: none; stroke: #1f77b4; stroke-width: 1.5"/>
    <path d="M 164.420852 76.173845 
L 164.420852 72.139724 
" clip-path="url(#p4fa25d00c0)" style="fill: none; stroke: #1f77b4; stroke-width: 1.5"/>
    <path d="M 165.435398 78.295452 
L 165.435398 74.29122 
" clip-path="url(#p4fa25d00c0)" style="fill: none; stroke: #1f77b4; stroke-width: 1.5"/>
    <path d="M 166.449943 82.370853 
L 166.449943 78.424673 
" clip-path="url(#p4fa25d00c0)" style="fill: none; stroke: #1f77b4; stroke-width: 1.5"/>
    <path d="M 167.464489 90.269178 
L 167.464489 86.438029 
" clip-path="url(#p4fa25d00c0)" style="fill: none; stroke: #1f77b4; stroke-width: 1.5"/>
    <path d="M 168.479034 94.426955 
L 168.479034 90.657781 
" clip-path="url(#p4fa25d00c0)" style="fill: none; stroke: #1f77b4; stroke-width: 1.5"/>
    <path d="M 169.49358 94.705982 
L 169.49358 90.941004 
" clip-path="url(#p4fa25d00c0)" style="fill: none; stroke: #1f77b4; stroke-width: 1.5"/>
    <path d="M 170.508125 105.44667 
L 170.508125 101.846951 
" clip-path="url(#p4fa25d00c0)" style="fill: none; stroke: #1f77b4; stroke-width: 1.5"/>
    <path d="M 171.52267 108.486842 
L 171.52267 104.935307 
" clip-path="url(#p4fa25d00c0)" style="fill: none; stroke: #1f77b4; stroke-width: 1.5"/>
    <path d="M 172.537216 114.51041 
L 172.537216 111.056344 
" clip-path="url(#p4fa25d00c0)" style="fill: none; stroke: #1f77b4; stroke-width: 1.5"/>
    <path d="M 173.551761 126.581037 
L 173.551761 123.331153 
" clip-path="url(#p4fa25d00c0)" style="fill: none; stroke: #1f77b4; stroke-width: 1.5"/>
    <path d="M 174.566307 138.143464 
L 174.566307 135.102111 
" clip-path="url(#p4fa25d00c0)" style="fill: none; stroke: #1f77b4; stroke-width: 1.5"/>
    <path d="M 175.580852 154.289689 
L 175.580852 151.566401 
" clip-path="url(#p4fa25d00c0)" style="fill: none; stroke: #1f77b4; stroke-width: 1.5"/>
    <path d="M 176.595398 169.331283 
L 176.595398 166.942546 
" clip-path="url(#p4fa25d00c0)" style="fill: none; stroke: #1f77b4; stroke-width: 1.5"/>
    <path d="M 177.609943 134.856548 
L 177.609943 131.754475 
" clip-path="url(#p4fa25d00c0)" style="fill: none; stroke: #1f77b4; stroke-width: 1.5"/>
    <path d="M 178.624489 127.640045 
L 178.624489 124.408696 
" clip-path="url(#p4fa25d00c0)" style="fill: none; stroke: #1f77b4; stroke-width: 1.5"/>
    <path d="M 179.639034 131.652636 
L 179.639034 128.492509 
" clip-path="url(#p4fa25d00c0)" style="fill: none; stroke: #1f77b4; stroke-width: 1.5"/>
    <path d="M 180.65358 76.369261 
L 180.65358 72.337884 
" clip-path="url(#p4fa25d00c0)" style="fill: none; stroke: #1f77b4; stroke-width: 1.5"/>
    <path d="M 181.668125 38.694552 
L 181.668125 34.165034 
" clip-path="url(#p4fa25d00c0)" style="fill: none; stroke: #1f77b4; stroke-width: 1.5"/>
    <path d="M 182.68267 32.352278 
L 182.68267 27.744227 
" clip-path="url(#p4fa25d00c0)" style="fill: none; stroke: #1f77b4; stroke-width: 1.5"/>
    <path d="M 183.697216 30.59197 
L 183.697216 25.962359 
" clip-path="url(#p4fa25d00c0)" style="fill: none; stroke: #1f77b4; stroke-width: 1.5"/>
    <path d="M 184.711761 29.613999 
L 184.711761 24.972454 
" clip-path="url(#p4fa25d00c0)" style="fill: none; stroke: #1f77b4; stroke-width: 1.5"/>
    <path d="M 185.726307 31.206686 
L 185.726307 26.584593 
" clip-path="url(#p4fa25d00c0)" style="fill: none; stroke: #1f77b4; stroke-width: 1.5"/>
    <path d="M 186.740852 38.191665 
L 186.740852 33.65587 
" clip-path="url(#p4fa25d00c0)" style="fill: none; stroke: #1f77b4; stroke-width: 1.5"/>
    <path d="M 187.755398 34.112536 
L 187.755398 29.526145 
" clip-path="url(#p4fa25d00c0)" style="fill: none; stroke: #1f77b4; stroke-width: 1.5"/>
    <path d="M 188.769943 31.09492 
L 188.769943 26.471459 
" clip-path="url(#p4fa25d00c0)" style="fill: none; stroke: #1f77b4; stroke-width: 1.5"/>
    <path d="M 189.784489 35.341892 
L 189.784489 30.770691 
" clip-path="url(#p4fa25d00c0)" style="fill: none; stroke: #1f77b4; stroke-width: 1.5"/>
    <path d="M 190.799034 33.330206 
L 190.799034 28.734175 
" clip-path="url(#p4fa25d00c0)" style="fill: none; stroke: #1f77b4; stroke-width: 1.5"/>
    <path d="M 191.81358 38.694552 
L 191.81358 34.165034 
" clip-path="url(#p4fa25d00c0)" style="fill: none; stroke: #1f77b4; stroke-width: 1.5"/>
    <path d="M 192.828125 45.930042 
L 192.828125 41.491825 
" clip-path="url(#p4fa25d00c0)" style="fill: none; stroke: #1f77b4; stroke-width: 1.5"/>
    <path d="M 193.84267 42.745424 
L 193.84267 38.266791 
" clip-path="url(#p4fa25d00c0)" style="fill: none; stroke: #1f77b4; stroke-width: 1.5"/>
    <path d="M 194.857216 41.851463 
L 194.857216 37.361551 
" clip-path="url(#p4fa25d00c0)" style="fill: none; stroke: #1f77b4; stroke-width: 1.5"/>
    <path d="M 195.871761 38.051974 
L 195.871761 33.514436 
" clip-path="url(#p4fa25d00c0)" style="fill: none; stroke: #1f77b4; stroke-width: 1.5"/>
    <path d="M 196.886307 45.259611 
L 196.886307 40.812855 
" clip-path="url(#p4fa25d00c0)" style="fill: none; stroke: #1f77b4; stroke-width: 1.5"/>
    <path d="M 197.900852 51.153529 
L 197.900852 46.782418 
" clip-path="url(#p4fa25d00c0)" style="fill: none; stroke: #1f77b4; stroke-width: 1.5"/>
    <path d="M 198.915398 48.025085 
L 198.915398 43.613659 
" clip-path="url(#p4fa25d00c0)" style="fill: none; stroke: #1f77b4; stroke-width: 1.5"/>
    <path d="M 199.929943 52.913197 
L 199.929943 48.564927 
" clip-path="url(#p4fa25d00c0)" style="fill: none; stroke: #1f77b4; stroke-width: 1.5"/>
    <path d="M 200.944489 56.87921 
L 200.944489 52.582867 
" clip-path="url(#p4fa25d00c0)" style="fill: none; stroke: #1f77b4; stroke-width: 1.5"/>
    <path d="M 201.959034 49.449667 
L 201.959034 45.056553 
" clip-path="url(#p4fa25d00c0)" style="fill: none; stroke: #1f77b4; stroke-width: 1.5"/>
    <path d="M 202.97358 55.398974 
L 202.97358 51.083177 
" clip-path="url(#p4fa25d00c0)" style="fill: none; stroke: #1f77b4; stroke-width: 1.5"/>
    <path d="M 203.988125 59.085517 
L 203.988125 54.818337 
" clip-path="url(#p4fa25d00c0)" style="fill: none; stroke: #1f77b4; stroke-width: 1.5"/>
    <path d="M 205.00267 64.39141 
L 205.00267 60.195199 
" clip-path="url(#p4fa25d00c0)" style="fill: none; stroke: #1f77b4; stroke-width: 1.5"/>
    <path d="M 206.017216 66.848671 
L 206.017216 62.68574 
" clip-path="url(#p4fa25d00c0)" style="fill: none; stroke: #1f77b4; stroke-width: 1.5"/>
    <path d="M 207.031761 68.859058 
L 207.031761 64.723555 
" clip-path="url(#p4fa25d00c0)" style="fill: none; stroke: #1f77b4; stroke-width: 1.5"/>
    <path d="M 208.046307 76.173845 
L 208.046307 72.139724 
" clip-path="url(#p4fa25d00c0)" style="fill: none; stroke: #1f77b4; stroke-width: 1.5"/>
    <path d="M 209.060852 75.364256 
L 209.060852 71.318788 
" clip-path="url(#p4fa25d00c0)" style="fill: none; stroke: #1f77b4; stroke-width: 1.5"/>
    <path d="M 210.075398 75.113001 
L 210.075398 71.064018 
" clip-path="url(#p4fa25d00c0)" style="fill: none; stroke: #1f77b4; stroke-width: 1.5"/>
    <path d="M 211.089943 77.31841 
L 211.089943 73.300385 
" clip-path="url(#p4fa25d00c0)" style="fill: none; stroke: #1f77b4; stroke-width: 1.5"/>
    <path d="M 212.104489 73.912538 
L 212.104489 69.846804 
" clip-path="url(#p4fa25d00c0)" style="fill: none; stroke: #1f77b4; stroke-width: 1.5"/>
    <path d="M 213.119034 81.840516 
L 213.119034 77.886733 
" clip-path="url(#p4fa25d00c0)" style="fill: none; stroke: #1f77b4; stroke-width: 1.5"/>
    <path d="M 214.13358 84.575855 
L 214.13358 80.661447 
" clip-path="url(#p4fa25d00c0)" style="fill: none; stroke: #1f77b4; stroke-width: 1.5"/>
    <path d="M 215.148125 96.24059 
L 215.148125 92.498773 
" clip-path="url(#p4fa25d00c0)" style="fill: none; stroke: #1f77b4; stroke-width: 1.5"/>
    <path d="M 216.16267 90.631957 
L 216.16267 86.806176 
" clip-path="url(#p4fa25d00c0)" style="fill: none; stroke: #1f77b4; stroke-width: 1.5"/>
    <path d="M 217.177216 93.896797 
L 217.177216 90.119664 
" clip-path="url(#p4fa25d00c0)" style="fill: none; stroke: #1f77b4; stroke-width: 1.5"/>
    <path d="M 218.191761 99.951249 
L 218.191761 96.266043 
" clip-path="url(#p4fa25d00c0)" style="fill: none; stroke: #1f77b4; stroke-width: 1.5"/>
    <path d="M 219.206307 104.860912 
L 219.206307 101.251984 
" clip-path="url(#p4fa25d00c0)" style="fill: none; stroke: #1f77b4; stroke-width: 1.5"/>
    <path d="M 220.220852 109.79764 
L 220.220852 106.267085 
" clip-path="url(#p4fa25d00c0)" style="fill: none; stroke: #1f77b4; stroke-width: 1.5"/>
    <path d="M 221.235398 108.040599 
L 221.235398 104.48195 
" clip-path="url(#p4fa25d00c0)" style="fill: none; stroke: #1f77b4; stroke-width: 1.5"/>
    <path d="M 222.249943 116.490076 
L 222.249943 113.068655 
" clip-path="url(#p4fa25d00c0)" style="fill: none; stroke: #1f77b4; stroke-width: 1.5"/>
    <path d="M 223.264489 121.870613 
L 223.264489 118.539548 
" clip-path="url(#p4fa25d00c0)" style="fill: none; stroke: #1f77b4; stroke-width: 1.5"/>
    <path d="M 224.279034 124.574352 
L 224.279034 121.289636 
" clip-path="url(#p4fa25d00c0)" style="fill: none; stroke: #1f77b4; stroke-width: 1.5"/>
    <path d="M 225.29358 130.315194 
L 225.29358 127.13115 
" clip-path="url(#p4fa25d00c0)" style="fill: none; stroke: #1f77b4; stroke-width: 1.5"/>
    <path d="M 226.308125 146.302285 
L 226.308125 143.417223 
" clip-path="url(#p4fa25d00c0)" style="fill: none; stroke: #1f77b4; stroke-width: 1.5"/>
    <path d="M 227.32267 166.608251 
L 227.32267 164.155525 
" clip-path="url(#p4fa25d00c0)" style="fill: none; stroke: #1f77b4; stroke-width: 1.5"/>
    <path d="M 228.337216 180.879453 
L 228.337216 178.783986 
" clip-path="url(#p4fa25d00c0)" style="fill: none; stroke: #1f77b4; stroke-width: 1.5"/>
    <path d="M 229.351761 184.650141 
L 229.351761 182.659902 
" clip-path="url(#p4fa25d00c0)" style="fill: none; stroke: #1f77b4; stroke-width: 1.5"/>
    <path d="M 230.366307 164.245777 
L 230.366307 161.738872 
" clip-path="url(#p4fa25d00c0)" style="fill: none; stroke: #1f77b4; stroke-width: 1.5"/>
    <path d="M 231.380852 143.880135 
L 231.380852 140.947796 
" clip-path="url(#p4fa25d00c0)" style="fill: none; stroke: #1f77b4; stroke-width: 1.5"/>
    <path d="M 232.395398 125.66133 
L 232.395398 122.395435 
" clip-path="url(#p4fa25d00c0)" style="fill: none; stroke: #1f77b4; stroke-width: 1.5"/>
    <path d="M 233.409943 110.968939 
L 233.409943 107.457237 
" clip-path="url(#p4fa25d00c0)" style="fill: none; stroke: #1f77b4; stroke-width: 1.5"/>
    <path d="M 234.424489 108.431062 
L 234.424489 104.878637 
" clip-path="url(#p4fa25d00c0)" style="fill: none; stroke: #1f77b4; stroke-width: 1.5"/>
    <path d="M 235.439034 112.753677 
L 235.439034 109.270901 
" clip-path="url(#p4fa25d00c0)" style="fill: none; stroke: #1f77b4; stroke-width: 1.5"/>
    <path d="M 236.45358 113.534462 
L 236.45358 110.064417 
" clip-path="url(#p4fa25d00c0)" style="fill: none; stroke: #1f77b4; stroke-width: 1.5"/>
    <path d="M 237.468125 105.865062 
L 237.468125 102.271935 
" clip-path="url(#p4fa25d00c0)" style="fill: none; stroke: #1f77b4; stroke-width: 1.5"/>
    <path d="M 238.48267 116.322786 
L 238.48267 112.898595 
" clip-path="url(#p4fa25d00c0)" style="fill: none; stroke: #1f77b4; stroke-width: 1.5"/>
    <path d="M 239.497216 110.662175 
L 239.497216 107.145526 
" clip-path="url(#p4fa25d00c0)" style="fill: none; stroke: #1f77b4; stroke-width: 1.5"/>
    <path d="M 240.511761 113.618116 
L 240.511761 110.149437 
" clip-path="url(#p4fa25d00c0)" style="fill: none; stroke: #1f77b4; stroke-width: 1.5"/>
    <path d="M 241.526307 112.948875 
L 241.526307 109.469278 
" clip-path="url(#p4fa25d00c0)" style="fill: none; stroke: #1f77b4; stroke-width: 1.5"/>
    <path d="M 242.540852 121.508232 
L 242.540852 118.171003 
" clip-path="url(#p4fa25d00c0)" style="fill: none; stroke: #1f77b4; stroke-width: 1.5"/>
    <path d="M 243.555398 115.123844 
L 243.555398 111.679861 
" clip-path="url(#p4fa25d00c0)" style="fill: none; stroke: #1f77b4; stroke-width: 1.5"/>
    <path d="M 244.569943 118.302309 
L 244.569943 114.911049 
" clip-path="url(#p4fa25d00c0)" style="fill: none; stroke: #1f77b4; stroke-width: 1.5"/>
    <path d="M 245.584489 124.267759 
L 245.584489 120.977754 
" clip-path="url(#p4fa25d00c0)" style="fill: none; stroke: #1f77b4; stroke-width: 1.5"/>
    <path d="M 246.599034 116.824652 
L 246.599034 113.408779 
" clip-path="url(#p4fa25d00c0)" style="fill: none; stroke: #1f77b4; stroke-width: 1.5"/>
    <path d="M 247.61358 120.002896 
L 247.61358 116.640188 
" clip-path="url(#p4fa25d00c0)" style="fill: none; stroke: #1f77b4; stroke-width: 1.5"/>
    <path d="M 248.628125 122.177239 
L 248.628125 118.851397 
" clip-path="url(#p4fa25d00c0)" style="fill: none; stroke: #1f77b4; stroke-width: 1.5"/>
    <path d="M 249.64267 123.01347 
L 249.64267 119.701917 
" clip-path="url(#p4fa25d00c0)" style="fill: none; stroke: #1f77b4; stroke-width: 1.5"/>
    <path d="M 250.657216 126.246603 
L 250.657216 122.990887 
" clip-path="url(#p4fa25d00c0)" style="fill: none; stroke: #1f77b4; stroke-width: 1.5"/>
    <path d="M 251.671761 128.05806 
L 251.671761 124.834056 
" clip-path="url(#p4fa25d00c0)" style="fill: none; stroke: #1f77b4; stroke-width: 1.5"/>
    <path d="M 252.686307 125.494106 
L 252.686307 122.225308 
" clip-path="url(#p4fa25d00c0)" style="fill: none; stroke: #1f77b4; stroke-width: 1.5"/>
    <path d="M 253.700852 133.435749 
L 253.700852 130.307798 
" clip-path="url(#p4fa25d00c0)" style="fill: none; stroke: #1f77b4; stroke-width: 1.5"/>
    <path d="M 254.715398 129.98082 
L 254.715398 126.790824 
" clip-path="url(#p4fa25d00c0)" style="fill: none; stroke: #1f77b4; stroke-width: 1.5"/>
    <path d="M 255.729943 133.519328 
L 255.729943 130.392893 
" clip-path="url(#p4fa25d00c0)" style="fill: none; stroke: #1f77b4; stroke-width: 1.5"/>
    <path d="M 256.744489 132.989986 
L 256.744489 129.85396 
" clip-path="url(#p4fa25d00c0)" style="fill: none; stroke: #1f77b4; stroke-width: 1.5"/>
    <path d="M 257.759034 135.274409 
L 257.759034 132.179989 
" clip-path="url(#p4fa25d00c0)" style="fill: none; stroke: #1f77b4; stroke-width: 1.5"/>
    <path d="M 258.77358 135.135123 
L 258.77358 132.03815 
" clip-path="url(#p4fa25d00c0)" style="fill: none; stroke: #1f77b4; stroke-width: 1.5"/>
    <path d="M 259.788125 137.781376 
L 259.788125 134.733274 
" clip-path="url(#p4fa25d00c0)" style="fill: none; stroke: #1f77b4; stroke-width: 1.5"/>
    <path d="M 260.80267 135.970824 
L 260.80267 132.8892 
" clip-path="url(#p4fa25d00c0)" style="fill: none; stroke: #1f77b4; stroke-width: 1.5"/>
    <path d="M 261.817216 141.652539 
L 261.817216 138.67739 
" clip-path="url(#p4fa25d00c0)" style="fill: none; stroke: #1f77b4; stroke-width: 1.5"/>
    <path d="M 262.831761 142.710686 
L 262.831761 139.755794 
" clip-path="url(#p4fa25d00c0)" style="fill: none; stroke: #1f77b4; stroke-width: 1.5"/>
    <path d="M 263.846307 144.52051 
L 263.846307 141.600596 
" clip-path="url(#p4fa25d00c0)" style="fill: none; stroke: #1f77b4; stroke-width: 1.5"/>
    <path d="M 264.860852 145.717663 
L 264.860852 142.821119 
" clip-path="url(#p4fa25d00c0)" style="fill: none; stroke: #1f77b4; stroke-width: 1.5"/>
    <path d="M 265.875398 150.86709 
L 265.875398 148.073323 
" clip-path="url(#p4fa25d00c0)" style="fill: none; stroke: #1f77b4; stroke-width: 1.5"/>
    <path d="M 266.889943 151.22887 
L 266.889943 148.442468 
" clip-path="url(#p4fa25d00c0)" style="fill: none; stroke: #1f77b4; stroke-width: 1.5"/>
    <path d="M 267.904489 151.757608 
L 267.904489 148.982005 
" clip-path="url(#p4fa25d00c0)" style="fill: none; stroke: #1f77b4; stroke-width: 1.5"/>
    <path d="M 268.919034 153.705407 
L 268.919034 150.969957 
" clip-path="url(#p4fa25d00c0)" style="fill: none; stroke: #1f77b4; stroke-width: 1.5"/>
    <path d="M 269.93358 156.209279 
L 269.93358 153.526338 
" clip-path="url(#p4fa25d00c0)" style="fill: none; stroke: #1f77b4; stroke-width: 1.5"/>
    <path d="M 270.948125 157.09942 
L 270.948125 154.435398 
" clip-path="url(#p4fa25d00c0)" style="fill: none; stroke: #1f77b4; stroke-width: 1.5"/>
    <path d="M 271.96267 158.629191 
L 271.96267 155.998004 
" clip-path="url(#p4fa25d00c0)" style="fill: none; stroke: #1f77b4; stroke-width: 1.5"/>
    <path d="M 272.977216 164.023397 
L 272.977216 161.511453 
" clip-path="url(#p4fa25d00c0)" style="fill: none; stroke: #1f77b4; stroke-width: 1.5"/>
    <path d="M 273.991761 166.88615 
L 273.991761 164.439877 
" clip-path="url(#p4fa25d00c0)" style="fill: none; stroke: #1f77b4; stroke-width: 1.5"/>
    <path d="M 275.006307 176.245861 
L 275.006307 174.027999 
" clip-path="url(#p4fa25d00c0)" style="fill: none; stroke: #1f77b4; stroke-width: 1.5"/>
    <path d="M 276.020852 184.234392 
L 276.020852 182.232276 
" clip-path="url(#p4fa25d00c0)" style="fill: none; stroke: #1f77b4; stroke-width: 1.5"/>
    <path d="M 277.035398 197.764989 
L 277.035398 196.195716 
" clip-path="url(#p4fa25d00c0)" style="fill: none; stroke: #1f77b4; stroke-width: 1.5"/>
    <path d="M 278.049943 212.595718 
L 278.049943 211.7265 
" clip-path="url(#p4fa25d00c0)" style="fill: none; stroke: #1f77b4; stroke-width: 1.5"/>
    <path d="M 279.064489 196.632759 
L 279.064489 195.02272 
" clip-path="url(#p4fa25d00c0)" style="fill: none; stroke: #1f77b4; stroke-width: 1.5"/>
    <path d="M 280.079034 189.553095 
L 280.079034 187.708777 
" clip-path="url(#p4fa25d00c0)" style="fill: none; stroke: #1f77b4; stroke-width: 1.5"/>
    <path d="M 281.09358 176.079322 
L 281.09358 173.857188 
" clip-path="url(#p4fa25d00c0)" style="fill: none; stroke: #1f77b4; stroke-width: 1.5"/>
    <path d="M 282.108125 166.913939 
L 282.108125 164.468312 
" clip-path="url(#p4fa25d00c0)" style="fill: none; stroke: #1f77b4; stroke-width: 1.5"/>
    <path d="M 283.12267 159.630383 
L 283.12267 157.020912 
" clip-path="url(#p4fa25d00c0)" style="fill: none; stroke: #1f77b4; stroke-width: 1.5"/>
    <path d="M 284.137216 156.125825 
L 284.137216 153.441117 
" clip-path="url(#p4fa25d00c0)" style="fill: none; stroke: #1f77b4; stroke-width: 1.5"/>
    <path d="M 285.151761 154.4288 
L 285.151761 151.708415 
" clip-path="url(#p4fa25d00c0)" style="fill: none; stroke: #1f77b4; stroke-width: 1.5"/>
    <path d="M 286.166307 157.544465 
L 286.166307 154.889953 
" clip-path="url(#p4fa25d00c0)" style="fill: none; stroke: #1f77b4; stroke-width: 1.5"/>
    <path d="M 287.180852 159.268852 
L 287.180852 156.651518 
" clip-path="url(#p4fa25d00c0)" style="fill: none; stroke: #1f77b4; stroke-width: 1.5"/>
    <path d="M 288.195398 160.992971 
L 288.195398 158.413351 
" clip-path="url(#p4fa25d00c0)" style="fill: none; stroke: #1f77b4; stroke-width: 1.5"/>
    <path d="M 289.209943 156.54309 
L 289.209943 153.867228 
" clip-path="url(#p4fa25d00c0)" style="fill: none; stroke: #1f77b4; stroke-width: 1.5"/>
    <path d="M 290.224489 161.38225 
L 290.224489 158.811222 
" clip-path="url(#p4fa25d00c0)" style="fill: none; stroke: #1f77b4; stroke-width: 1.5"/>
    <path d="M 291.239034 163.439624 
L 291.239034 160.9145 
" clip-path="url(#p4fa25d00c0)" style="fill: none; stroke: #1f77b4; stroke-width: 1.5"/>
    <path d="M 292.25358 159.519144 
L 292.25358 156.907251 
" clip-path="url(#p4fa25d00c0)" style="fill: none; stroke: #1f77b4; stroke-width: 1.5"/>
    <path d="M 293.268125 156.765625 
L 293.268125 154.094493 
" clip-path="url(#p4fa25d00c0)" style="fill: none; stroke: #1f77b4; stroke-width: 1.5"/>
    <path d="M 294.28267 161.132 
L 294.28267 158.555446 
" clip-path="url(#p4fa25d00c0)" style="fill: none; stroke: #1f77b4; stroke-width: 1.5"/>
    <path d="M 295.297216 163.57862 
L 295.297216 161.056629 
" clip-path="url(#p4fa25d00c0)" style="fill: none; stroke: #1f77b4; stroke-width: 1.5"/>
    <path d="M 296.311761 160.297794 
L 296.311761 157.702901 
" clip-path="url(#p4fa25d00c0)" style="fill: none; stroke: #1f77b4; stroke-width: 1.5"/>
    <path d="M 297.326307 162.21637 
L 297.326307 159.663853 
" clip-path="url(#p4fa25d00c0)" style="fill: none; stroke: #1f77b4; stroke-width: 1.5"/>
    <path d="M 298.340852 164.134588 
L 298.340852 161.625162 
" clip-path="url(#p4fa25d00c0)" style="fill: none; stroke: #1f77b4; stroke-width: 1.5"/>
    <path d="M 299.355398 166.024637 
L 299.355398 163.558414 
" clip-path="url(#p4fa25d00c0)" style="fill: none; stroke: #1f77b4; stroke-width: 1.5"/>
    <path d="M 300.369943 163.801011 
L 300.369943 161.284038 
" clip-path="url(#p4fa25d00c0)" style="fill: none; stroke: #1f77b4; stroke-width: 1.5"/>
    <path d="M 301.384489 169.581314 
L 301.384489 167.19854 
" clip-path="url(#p4fa25d00c0)" style="fill: none; stroke: #1f77b4; stroke-width: 1.5"/>
    <path d="M 302.399034 169.970237 
L 302.399034 167.596768 
" clip-path="url(#p4fa25d00c0)" style="fill: none; stroke: #1f77b4; stroke-width: 1.5"/>
    <path d="M 303.41358 165.385397 
L 303.41358 162.904478 
" clip-path="url(#p4fa25d00c0)" style="fill: none; stroke: #1f77b4; stroke-width: 1.5"/>
    <path d="M 304.428125 169.164591 
L 304.428125 166.771888 
" clip-path="url(#p4fa25d00c0)" style="fill: none; stroke: #1f77b4; stroke-width: 1.5"/>
    <path d="M 305.44267 168.414439 
L 305.44267 166.003965 
" clip-path="url(#p4fa25d00c0)" style="fill: none; stroke: #1f77b4; stroke-width: 1.5"/>
    <path d="M 306.457216 169.442409 
L 306.457216 167.05632 
" clip-path="url(#p4fa25d00c0)" style="fill: none; stroke: #1f77b4; stroke-width: 1.5"/>
    <path d="M 307.471761 171.359095 
L 307.471761 169.019161 
" clip-path="url(#p4fa25d00c0)" style="fill: none; stroke: #1f77b4; stroke-width: 1.5"/>
    <path d="M 308.486307 176.162592 
L 308.486307 173.942593 
" clip-path="url(#p4fa25d00c0)" style="fill: none; stroke: #1f77b4; stroke-width: 1.5"/>
    <path d="M 309.500852 175.496403 
L 309.500852 173.259382 
" clip-path="url(#p4fa25d00c0)" style="fill: none; stroke: #1f77b4; stroke-width: 1.5"/>
    <path d="M 310.515398 171.997889 
L 310.515398 169.673543 
" clip-path="url(#p4fa25d00c0)" style="fill: none; stroke: #1f77b4; stroke-width: 1.5"/>
    <path d="M 311.529943 177.300512 
L 311.529943 175.109899 
" clip-path="url(#p4fa25d00c0)" style="fill: none; stroke: #1f77b4; stroke-width: 1.5"/>
    <path d="M 312.544489 176.301373 
L 312.544489 174.084937 
" clip-path="url(#p4fa25d00c0)" style="fill: none; stroke: #1f77b4; stroke-width: 1.5"/>
    <path d="M 313.559034 178.216254 
L 313.559034 176.049583 
" clip-path="url(#p4fa25d00c0)" style="fill: none; stroke: #1f77b4; stroke-width: 1.5"/>
    <path d="M 314.57358 176.745453 
L 314.57358 174.540457 
" clip-path="url(#p4fa25d00c0)" style="fill: none; stroke: #1f77b4; stroke-width: 1.5"/>
    <path d="M 315.588125 179.964113 
L 315.588125 177.8439 
" clip-path="url(#p4fa25d00c0)" style="fill: none; stroke: #1f77b4; stroke-width: 1.5"/>
    <path d="M 316.60267 180.685302 
L 316.60267 178.584562 
" clip-path="url(#p4fa25d00c0)" style="fill: none; stroke: #1f77b4; stroke-width: 1.5"/>
    <path d="M 317.617216 183.014662 
L 317.617216 180.978105 
" clip-path="url(#p4fa25d00c0)" style="fill: none; stroke: #1f77b4; stroke-width: 1.5"/>
    <path d="M 318.631761 183.347344 
L 318.631761 181.320122 
" clip-path="url(#p4fa25d00c0)" style="fill: none; stroke: #1f77b4; stroke-width: 1.5"/>
    <path d="M 319.646307 187.836315 
L 319.646307 185.939606 
" clip-path="url(#p4fa25d00c0)" style="fill: none; stroke: #1f77b4; stroke-width: 1.5"/>
    <path d="M 320.660852 190.964714 
L 320.660852 189.164635 
" clip-path="url(#p4fa25d00c0)" style="fill: none; stroke: #1f77b4; stroke-width: 1.5"/>
    <path d="M 321.675398 194.283891 
L 321.675398 192.592461 
" clip-path="url(#p4fa25d00c0)" style="fill: none; stroke: #1f77b4; stroke-width: 1.5"/>
    <path d="M 322.689943 202.756182 
L 322.689943 201.381253 
" clip-path="url(#p4fa25d00c0)" style="fill: none; stroke: #1f77b4; stroke-width: 1.5"/>
    <path d="M 323.704489 208.66308 
L 323.704489 207.562735 
" clip-path="url(#p4fa25d00c0)" style="fill: none; stroke: #1f77b4; stroke-width: 1.5"/>
    <path d="M 324.719034 213.193708 
L 324.719034 212.365461 
" clip-path="url(#p4fa25d00c0)" style="fill: none; stroke: #1f77b4; stroke-width: 1.5"/>
    <path d="M 325.73358 218.88 
L 325.73358 218.88 
" clip-path="url(#p4fa25d00c0)" style="fill: none; stroke: #1f77b4; stroke-width: 1.5"/>
    <path d="M 326.748125 214.41334 
L 326.748125 213.675956 
" clip-path="url(#p4fa25d00c0)" style="fill: none; stroke: #1f77b4; stroke-width: 1.5"/>
    <path d="M 327.76267 203.306838 
L 327.76267 201.955097 
" clip-path="url(#p4fa25d00c0)" style="fill: none; stroke: #1f77b4; stroke-width: 1.5"/>
    <path d="M 328.777216 197.847814 
L 328.777216 196.281566 
" clip-path="url(#p4fa25d00c0)" style="fill: none; stroke: #1f77b4; stroke-width: 1.5"/>
    <path d="M 329.791761 193.454418 
L 329.791761 191.735183 
" clip-path="url(#p4fa25d00c0)" style="fill: none; stroke: #1f77b4; stroke-width: 1.5"/>
    <path d="M 330.806307 192.403437 
L 330.806307 190.649613 
" clip-path="url(#p4fa25d00c0)" style="fill: none; stroke: #1f77b4; stroke-width: 1.5"/>
    <path d="M 331.820852 188.279425 
L 331.820852 186.396096 
" clip-path="url(#p4fa25d00c0)" style="fill: none; stroke: #1f77b4; stroke-width: 1.5"/>
    <path d="M 332.835398 191.51814 
L 332.835398 189.735709 
" clip-path="url(#p4fa25d00c0)" style="fill: none; stroke: #1f77b4; stroke-width: 1.5"/>
    <path d="M 333.849943 190.079055 
L 333.849943 188.251093 
" clip-path="url(#p4fa25d00c0)" style="fill: none; stroke: #1f77b4; stroke-width: 1.5"/>
    <path d="M 334.864489 188.057876 
L 334.864489 186.167845 
" clip-path="url(#p4fa25d00c0)" style="fill: none; stroke: #1f77b4; stroke-width: 1.5"/>
    <path d="M 335.879034 190.466557 
L 335.879034 188.650741 
" clip-path="url(#p4fa25d00c0)" style="fill: none; stroke: #1f77b4; stroke-width: 1.5"/>
    <path d="M 336.89358 187.864011 
L 336.89358 185.968135 
" clip-path="url(#p4fa25d00c0)" style="fill: none; stroke: #1f77b4; stroke-width: 1.5"/>
    <path d="M 337.908125 189.746878 
L 337.908125 187.908569 
" clip-path="url(#p4fa25d00c0)" style="fill: none; stroke: #1f77b4; stroke-width: 1.5"/>
    <path d="M 338.92267 189.802243 
L 338.92267 187.965655 
" clip-path="url(#p4fa25d00c0)" style="fill: none; stroke: #1f77b4; stroke-width: 1.5"/>
    <path d="M 339.937216 190.466557 
L 339.937216 188.650741 
" clip-path="url(#p4fa25d00c0)" style="fill: none; stroke: #1f77b4; stroke-width: 1.5"/>
    <path d="M 340.951761 188.860934 
L 340.951761 186.995313 
" clip-path="url(#p4fa25d00c0)" style="fill: none; stroke: #1f77b4; stroke-width: 1.5"/>
    <path d="M 341.966307 187.753227 
L 341.966307 185.854019 
" clip-path="url(#p4fa25d00c0)" style="fill: none; stroke: #1f77b4; stroke-width: 1.5"/>
    <path d="M 342.980852 190.051375 
L 342.980852 188.222548 
" clip-path="url(#p4fa25d00c0)" style="fill: none; stroke: #1f77b4; stroke-width: 1.5"/>
    <path d="M 343.995398 191.628815 
L 343.995398 189.849935 
" clip-path="url(#p4fa25d00c0)" style="fill: none; stroke: #1f77b4; stroke-width: 1.5"/>
    <path d="M 345.009943 189.054751 
L 345.009943 187.195071 
" clip-path="url(#p4fa25d00c0)" style="fill: none; stroke: #1f77b4; stroke-width: 1.5"/>
    <path d="M 346.024489 189.608463 
L 346.024489 187.76586 
" clip-path="url(#p4fa25d00c0)" style="fill: none; stroke: #1f77b4; stroke-width: 1.5"/>
    <path d="M 347.039034 192.182135 
L 347.039034 190.421115 
" clip-path="url(#p4fa25d00c0)" style="fill: none; stroke: #1f77b4; stroke-width: 1.5"/>
    <path d="M 348.05358 189.193187 
L 348.05358 187.337761 
" clip-path="url(#p4fa25d00c0)" style="fill: none; stroke: #1f77b4; stroke-width: 1.5"/>
    <path d="M 349.068125 188.251732 
L 349.068125 186.367564 
" clip-path="url(#p4fa25d00c0)" style="fill: none; stroke: #1f77b4; stroke-width: 1.5"/>
    <path d="M 350.08267 188.943999 
L 350.08267 187.080922 
" clip-path="url(#p4fa25d00c0)" style="fill: none; stroke: #1f77b4; stroke-width: 1.5"/>
    <path d="M 351.097216 192.735363 
L 351.097216 190.992387 
" clip-path="url(#p4fa25d00c0)" style="fill: none; stroke: #1f77b4; stroke-width: 1.5"/>
    <path d="M 352.111761 192.486422 
L 352.111761 190.735303 
" clip-path="url(#p4fa25d00c0)" style="fill: none; stroke: #1f77b4; stroke-width: 1.5"/>
    <path d="M 353.126307 192.707704 
L 353.126307 190.963821 
" clip-path="url(#p4fa25d00c0)" style="fill: none; stroke: #1f77b4; stroke-width: 1.5"/>
    <path d="M 354.140852 191.130751 
L 354.140852 189.335948 
" clip-path="url(#p4fa25d00c0)" style="fill: none; stroke: #1f77b4; stroke-width: 1.5"/>
    <path d="M 355.155398 192.403437 
L 355.155398 190.649613 
" clip-path="url(#p4fa25d00c0)" style="fill: none; stroke: #1f77b4; stroke-width: 1.5"/>
    <path d="M 356.169943 190.770994 
L 356.169943 188.964779 
" clip-path="url(#p4fa25d00c0)" style="fill: none; stroke: #1f77b4; stroke-width: 1.5"/>
    <path d="M 357.184489 190.383524 
L 357.184489 188.565099 
" clip-path="url(#p4fa25d00c0)" style="fill: none; stroke: #1f77b4; stroke-width: 1.5"/>
    <path d="M 358.199034 194.726182 
L 358.199034 193.049771 
" clip-path="url(#p4fa25d00c0)" style="fill: none; stroke: #1f77b4; stroke-width: 1.5"/>
    <path d="M 359.21358 196.05264 
L 359.21358 194.422114 
" clip-path="url(#p4fa25d00c0)" style="fill: none; stroke: #1f77b4; stroke-width: 1.5"/>
    <path d="M 360.228125 195.665822 
L 360.228125 194.021781 
" clip-path="url(#p4fa25d00c0)" style="fill: none; stroke: #1f77b4; stroke-width: 1.5"/>
    <path d="M 361.24267 194.256245 
L 361.24267 192.563881 
" clip-path="url(#p4fa25d00c0)" style="fill: none; stroke: #1f77b4; stroke-width: 1.5"/>
    <path d="M 362.257216 196.853723 
L 362.257216 195.251556 
" clip-path="url(#p4fa25d00c0)" style="fill: none; stroke: #1f77b4; stroke-width: 1.5"/>
    <path d="M 363.271761 198.896674 
L 363.271761 197.369257 
" clip-path="url(#p4fa25d00c0)" style="fill: none; stroke: #1f77b4; stroke-width: 1.5"/>
    <path d="M 364.286307 199.007052 
L 364.286307 197.483779 
" clip-path="url(#p4fa25d00c0)" style="fill: none; stroke: #1f77b4; stroke-width: 1.5"/>
    <path d="M 365.300852 197.212747 
L 365.300852 195.623457 
" clip-path="url(#p4fa25d00c0)" style="fill: none; stroke: #1f77b4; stroke-width: 1.5"/>
    <path d="M 366.315398 199.58644 
L 366.315398 198.085116 
" clip-path="url(#p4fa25d00c0)" style="fill: none; stroke: #1f77b4; stroke-width: 1.5"/>
    <path d="M 367.329943 199.8347 
L 367.329943 198.342882 
" clip-path="url(#p4fa25d00c0)" style="fill: none; stroke: #1f77b4; stroke-width: 1.5"/>
    <path d="M 368.344489 202.067592 
L 368.344489 200.664217 
" clip-path="url(#p4fa25d00c0)" style="fill: none; stroke: #1f77b4; stroke-width: 1.5"/>
    <path d="M 369.359034 205.754643 
L 369.359034 204.511319 
" clip-path="url(#p4fa25d00c0)" style="fill: none; stroke: #1f77b4; stroke-width: 1.5"/>
    <path d="M 370.37358 208.197245 
L 370.37358 207.072745 
" clip-path="url(#p4fa25d00c0)" style="fill: none; stroke: #1f77b4; stroke-width: 1.5"/>
    <path d="M 371.388125 211.342528 
L 371.388125 210.39334 
" clip-path="url(#p4fa25d00c0)" style="fill: none; stroke: #1f77b4; stroke-width: 1.5"/>
    <path d="M 372.40267 214.602547 
L 372.40267 213.880323 
" clip-path="url(#p4fa25d00c0)" style="fill: none; stroke: #1f77b4; stroke-width: 1.5"/>
   </g>
   <g id="patch_3">
    <path d="M 53.328125 228.96 
L 53.328125 7.2 
" style="fill: none; stroke: #000000; stroke-width: 0.8; stroke-linejoin: miter; stroke-linecap: square"/>
   </g>
   <g id="patch_4">
    <path d="M 388.128125 228.96 
L 388.128125 7.2 
" style="fill: none; stroke: #000000; stroke-width: 0.8; stroke-linejoin: miter; stroke-linecap: square"/>
   </g>
   <g id="patch_5">
    <path d="M 53.328125 228.96 
L 388.128125 228.96 
" style="fill: none; stroke: #000000; stroke-width: 0.8; stroke-linejoin: miter; stroke-linecap: square"/>
   </g>
   <g id="patch_6">
    <path d="M 53.328125 7.2 
L 388.128125 7.2 
" style="fill: none; stroke: #000000; stroke-width: 0.8; stroke-linejoin: miter; stroke-linecap: square"/>
   </g>
  </g>
 </g>
 <defs>
  <clipPath id="p4fa25d00c0">
   <rect x="53.328125" y="7.2" width="334.8" height="221.76"/>
  </clipPath>
 </defs>
</svg>
