<?xml version="1.0" encoding="UTF-8" standalone="no"?>
<!DOCTYPE svg PUBLIC "-//W3C//DTD SVG 1.1//EN"
 "http://www.w3.org/Graphics/SVG/1.1/DTD/svg11.dtd">
<!-- Generated by graphviz version 2.43.0 (0)
 -->
<!-- Title: %3 Pages: 1 -->
<svg width="3117pt" height="343pt"
 viewBox="0.00 0.00 3117.00 343.05" xmlns="http://www.w3.org/2000/svg" xmlns:xlink="http://www.w3.org/1999/xlink">
<g id="graph0" class="graph" transform="scale(1 1) rotate(0) translate(4 339.05)">
<title>%3</title>
<polygon fill="white" stroke="transparent" points="-4,4 -4,-339.05 3113,-339.05 3113,4 -4,4"/>
<g id="clust10" class="cluster">
<title>cluster_NeXusClass</title>
<polygon fill="#f0f0ff" stroke="#f0f0ff" points="561,-221.05 561,-327.05 735,-327.05 735,-221.05 561,-221.05"/>
<text text-anchor="middle" x="648" y="-311.85" font-family="Times,serif" font-size="14.00">NeXusClass</text>
</g>
<g id="clust19" class="cluster">
<title>cluster_Position</title>
<polygon fill="#f0f0ff" stroke="#f0f0ff" points="1856,-106.05 1856,-202.05 2036,-202.05 2036,-106.05 1856,-106.05"/>
<text text-anchor="start" x="1917" y="-187.85" font-family="Times,serif" font-size="14.00">Position</text>
<text text-anchor="start" x="1886" y="-176.25" font-family="Times,serif" font-size="11.00">via:</text>
<text text-anchor="start" x="1907" y="-176.25" font-family="Times,serif" font-style="italic" font-size="11.00">compute_position</text>
</g>
<g id="clust11" class="cluster">
<title>cluster_NeXusComponentLocationSpec</title>
<polygon fill="#f0f0ff" stroke="#f0f0ff" points="528,-72.05 528,-213.05 768,-213.05 768,-72.05 528,-72.05"/>
<text text-anchor="middle" x="648" y="-197.85" font-family="Times,serif" font-size="14.00">NeXusComponentLocationSpec</text>
</g>
<g id="clust12" class="cluster">
<title>cluster_NeXusComponent</title>
<polygon fill="#f0f0ff" stroke="#f0f0ff" points="824,-95.05 824,-236.05 1010,-236.05 1010,-95.05 824,-95.05"/>
<text text-anchor="middle" x="917" y="-220.85" font-family="Times,serif" font-size="14.00">NeXusComponent</text>
</g>
<g id="clust17" class="cluster">
<title>cluster_NeXusTransformationChain</title>
<polygon fill="#f0f0ff" stroke="#f0f0ff" points="1074,-110.05 1074,-231.05 1289,-231.05 1289,-110.05 1074,-110.05"/>
<text text-anchor="start" x="1082" y="-216.85" font-family="Times,serif" font-size="14.00">NeXusTransformationChain</text>
<text text-anchor="start" x="1099.5" y="-205.25" font-family="Times,serif" font-size="11.00">via:</text>
<text text-anchor="start" x="1120.5" y="-205.25" font-family="Times,serif" font-style="italic" font-size="11.00">get_transformation_chain</text>
</g>
<g id="clust18" class="cluster">
<title>cluster_NeXusTransformation</title>
<polygon fill="#f0f0ff" stroke="#f0f0ff" points="1455,-93.05 1455,-214.05 1641,-214.05 1641,-93.05 1455,-93.05"/>
<text text-anchor="start" x="1469.5" y="-199.85" font-family="Times,serif" font-size="14.00">NeXusTransformation</text>
<text text-anchor="start" x="1487" y="-188.25" font-family="Times,serif" font-size="11.00">via:</text>
<text text-anchor="start" x="1508" y="-188.25" font-family="Times,serif" font-style="italic" font-size="11.00">to_transformation</text>
</g>
<!-- CalibratedDetector[SampleRun] -->
<g id="node1" class="node">
<title>CalibratedDetector[SampleRun]</title>
<polygon fill="none" stroke="black" points="2069,-255.55 1823,-255.55 1823,-222.55 2069,-222.55 2069,-255.55"/>
<text text-anchor="start" x="1831" y="-241.35" font-family="Times,serif" font-size="14.00">CalibratedDetector[SampleRun]</text>
<text text-anchor="start" x="1869" y="-229.75" font-family="Times,serif" font-size="11.00">via:</text>
<text text-anchor="start" x="1890" y="-229.75" font-family="Times,serif" font-style="italic" font-size="11.00">get_calibrated_detector</text>
</g>
<!-- CalibratedBeamline[SampleRun] -->
<g id="node2" class="node">
<title>CalibratedBeamline[SampleRun]</title>
<polygon fill="none" stroke="black" points="2416,-141.55 2165,-141.55 2165,-108.55 2416,-108.55 2416,-141.55"/>
<text text-anchor="start" x="2173" y="-127.35" font-family="Times,serif" font-size="14.00">CalibratedBeamline[SampleRun]</text>
<text text-anchor="start" x="2224.5" y="-115.75" font-family="Times,serif" font-size="11.00">via:</text>
<text text-anchor="start" x="2245.5" y="-115.75" font-family="Times,serif" font-style="italic" font-size="11.00">assemble_beamline</text>
</g>
<!-- CalibratedDetector[SampleRun]&#45;&gt;CalibratedBeamline[SampleRun] -->
<g id="edge1" class="edge">
<title>CalibratedDetector[SampleRun]:e&#45;&gt;CalibratedBeamline[SampleRun]:w</title>
<path fill="none" stroke="black" d="M2070,-239.05C2132.08,-239.05 2102.56,-137.6 2154.27,-126.11"/>
<polygon fill="black" stroke="black" points="2154.91,-129.56 2164.5,-125.05 2154.19,-122.6 2154.91,-129.56"/>
</g>
<!-- DetectorData[SampleRun] -->
<g id="node10" class="node">
<title>DetectorData[SampleRun]</title>
<polygon fill="none" stroke="black" points="2755.5,-104.55 2550.5,-104.55 2550.5,-71.55 2755.5,-71.55 2755.5,-104.55"/>
<text text-anchor="start" x="2558.5" y="-90.35" font-family="Times,serif" font-size="14.00">DetectorData[SampleRun]</text>
<text text-anchor="start" x="2574.5" y="-78.75" font-family="Times,serif" font-size="11.00">via:</text>
<text text-anchor="start" x="2595.5" y="-78.75" font-family="Times,serif" font-style="italic" font-size="11.00">assemble_detector_data</text>
</g>
<!-- CalibratedBeamline[SampleRun]&#45;&gt;DetectorData[SampleRun] -->
<g id="edge9" class="edge">
<title>CalibratedBeamline[SampleRun]:e&#45;&gt;DetectorData[SampleRun]:w</title>
<path fill="none" stroke="black" d="M2416.5,-125.05C2474.46,-125.05 2487.04,-92.26 2539.68,-88.42"/>
<polygon fill="black" stroke="black" points="2540.13,-91.9 2550,-88.05 2539.88,-84.91 2540.13,-91.9"/>
</g>
<!-- DetectorLtotal[SampleRun] -->
<g id="node12" class="node">
<title>DetectorLtotal[SampleRun]</title>
<polygon fill="none" stroke="black" points="2810,-141.55 2496,-141.55 2496,-108.55 2810,-108.55 2810,-141.55"/>
<text text-anchor="start" x="2554.5" y="-127.35" font-family="Times,serif" font-size="14.00">DetectorLtotal[SampleRun]</text>
<text text-anchor="start" x="2504" y="-115.75" font-family="Times,serif" font-size="11.00">via:</text>
<text text-anchor="start" x="2525" y="-115.75" font-family="Times,serif" font-style="italic" font-size="11.00">detector_ltotal_from_straight_line_approximation</text>
</g>
<!-- CalibratedBeamline[SampleRun]&#45;&gt;DetectorLtotal[SampleRun] -->
<g id="edge11" class="edge">
<title>CalibratedBeamline[SampleRun]:e&#45;&gt;DetectorLtotal[SampleRun]:w</title>
<path fill="none" stroke="black" d="M2416.5,-125.05C2448.24,-125.05 2458.6,-125.05 2486,-125.05"/>
<polygon fill="black" stroke="black" points="2486,-128.55 2496,-125.05 2486,-121.55 2486,-128.55"/>
</g>
<!-- Position[NXsource, SampleRun] -->
<g id="node3" class="node">
<title>Position[NXsource, SampleRun]</title>
<polygon fill="none" stroke="black" points="2026.5,-160.55 1865.5,-160.55 1865.5,-139.55 2026.5,-139.55 2026.5,-160.55"/>
<text text-anchor="start" x="1873.5" y="-146.95" font-family="Times,serif" font-size="12.00">[NXsource, SampleRun]</text>
</g>
<!-- Position[NXsource, SampleRun]&#45;&gt;CalibratedBeamline[SampleRun] -->
<g id="edge2" class="edge">
<title>Position[NXsource, SampleRun]:e&#45;&gt;CalibratedBeamline[SampleRun]:w</title>
<path fill="none" stroke="black" d="M2028,-150.05C2086.18,-150.05 2101.18,-127.8 2154.47,-125.28"/>
<polygon fill="black" stroke="black" points="2154.58,-128.78 2164.5,-125.05 2154.42,-121.78 2154.58,-128.78"/>
</g>
<!-- Position[NXsample, SampleRun] -->
<g id="node4" class="node">
<title>Position[NXsample, SampleRun]</title>
<polygon fill="none" stroke="black" points="2028,-135.55 1864,-135.55 1864,-114.55 2028,-114.55 2028,-135.55"/>
<text text-anchor="start" x="1872" y="-121.95" font-family="Times,serif" font-size="12.00">[NXsample, SampleRun]</text>
</g>
<!-- Position[NXsample, SampleRun]&#45;&gt;CalibratedBeamline[SampleRun] -->
<g id="edge3" class="edge">
<title>Position[NXsample, SampleRun]:e&#45;&gt;CalibratedBeamline[SampleRun]:w</title>
<path fill="none" stroke="black" d="M2029,-125.05C2085.69,-125.05 2102.36,-125.05 2154.36,-125.05"/>
<polygon fill="black" stroke="black" points="2154.5,-128.55 2164.5,-125.05 2154.5,-121.55 2154.5,-128.55"/>
</g>
<!-- GravityVector -->
<g id="node5" class="node">
<title>GravityVector</title>
<polygon fill="none" stroke="black" points="2023,-97.55 1869,-97.55 1869,-64.55 2023,-64.55 2023,-97.55"/>
<text text-anchor="start" x="1896" y="-83.35" font-family="Times,serif" font-size="14.00">GravityVector</text>
<text text-anchor="start" x="1877" y="-71.75" font-family="Times,serif" font-size="11.00">via:</text>
<text text-anchor="start" x="1898" y="-71.75" font-family="Times,serif" font-style="italic" font-size="11.00">gravity_vector_neg_y</text>
</g>
<!-- GravityVector&#45;&gt;CalibratedBeamline[SampleRun] -->
<g id="edge4" class="edge">
<title>GravityVector:e&#45;&gt;CalibratedBeamline[SampleRun]:w</title>
<path fill="none" stroke="black" d="M2024,-81.05C2085.86,-81.05 2097.84,-120.37 2154.25,-124.67"/>
<polygon fill="black" stroke="black" points="2154.38,-128.18 2164.5,-125.05 2154.64,-121.18 2154.38,-128.18"/>
</g>
<!-- NeXusComponent[NXdetector, SampleRun] -->
<g id="node6" class="node">
<title>NeXusComponent[NXdetector, SampleRun]</title>
<polygon fill="none" stroke="black" points="1002,-204.55 832,-204.55 832,-173.55 1002,-173.55 1002,-204.55"/>
<text text-anchor="start" x="840" y="-191.95" font-family="Times,serif" font-size="12.00">[NXdetector, SampleRun]</text>
<text text-anchor="start" x="842" y="-180.75" font-family="Times,serif" font-size="11.00">via:</text>
<text text-anchor="start" x="863" y="-180.75" font-family="Times,serif" font-style="italic" font-size="11.00">load_nexus_component</text>
</g>
<!-- NeXusComponent[NXdetector, SampleRun]&#45;&gt;CalibratedDetector[SampleRun] -->
<g id="edge5" class="edge">
<title>NeXusComponent[NXdetector, SampleRun]:e&#45;&gt;CalibratedDetector[SampleRun]:w</title>
<path fill="none" stroke="black" d="M1003,-189.05C1039.89,-189.05 1038.91,-220.66 1074,-232.05 1213.8,-277.45 1588.7,-270.21 1735,-256.05 1770.54,-252.61 1780.76,-241.44 1811.69,-239.38"/>
<polygon fill="black" stroke="black" points="1812.12,-242.87 1822,-239.05 1811.89,-235.87 1812.12,-242.87"/>
</g>
<!-- NeXusTransformationChain[NXdetector, SampleRun] -->
<g id="node29" class="node">
<title>NeXusTransformationChain[NXdetector, SampleRun]</title>
<polygon fill="none" stroke="black" points="1266,-189.55 1096,-189.55 1096,-168.55 1266,-168.55 1266,-189.55"/>
<text text-anchor="start" x="1104" y="-175.95" font-family="Times,serif" font-size="12.00">[NXdetector, SampleRun]</text>
</g>
<!-- NeXusComponent[NXdetector, SampleRun]&#45;&gt;NeXusTransformationChain[NXdetector, SampleRun] -->
<g id="edge31" class="edge">
<title>NeXusComponent[NXdetector, SampleRun]:e&#45;&gt;NeXusTransformationChain[NXdetector, SampleRun]:w</title>
<path fill="none" stroke="black" d="M1003,-189.05C1040.43,-189.05 1051.87,-180.77 1084.63,-179.28"/>
<polygon fill="black" stroke="black" points="1085.08,-182.77 1095,-179.05 1084.93,-175.77 1085.08,-182.77"/>
</g>
<!-- NeXusTransformation[NXdetector, SampleRun] -->
<g id="node7" class="node">
<title>NeXusTransformation[NXdetector, SampleRun]</title>
<polygon fill="none" stroke="black" points="1633,-172.55 1463,-172.55 1463,-151.55 1633,-151.55 1633,-172.55"/>
<text text-anchor="start" x="1471" y="-158.95" font-family="Times,serif" font-size="12.00">[NXdetector, SampleRun]</text>
</g>
<!-- NeXusTransformation[NXdetector, SampleRun]&#45;&gt;CalibratedDetector[SampleRun] -->
<g id="edge6" class="edge">
<title>NeXusTransformation[NXdetector, SampleRun]:e&#45;&gt;CalibratedDetector[SampleRun]:w</title>
<path fill="none" stroke="black" d="M1634,-162.05C1720.77,-162.05 1731,-233.15 1811.79,-238.71"/>
<polygon fill="black" stroke="black" points="1811.89,-242.21 1822,-239.05 1812.12,-235.22 1811.89,-242.21"/>
</g>
<!-- DetectorPositionOffset[SampleRun] -->
<g id="node8" class="node">
<title>DetectorPositionOffset[SampleRun]</title>
<polygon fill="none" stroke="black" points="1683.5,-255.55 1412.5,-255.55 1412.5,-222.55 1683.5,-222.55 1683.5,-255.55"/>
<text text-anchor="start" x="1420.5" y="-241.35" font-family="Times,serif" font-size="14.00">DetectorPositionOffset[SampleRun]</text>
<text text-anchor="start" x="1460.5" y="-229.75" font-family="Times,serif" font-size="11.00">via:</text>
<text text-anchor="start" x="1481.5" y="-229.75" font-family="Times,serif" font-style="italic" font-size="11.00">no_detector_position_offset</text>
</g>
<!-- DetectorPositionOffset[SampleRun]&#45;&gt;CalibratedDetector[SampleRun] -->
<g id="edge7" class="edge">
<title>DetectorPositionOffset[SampleRun]:e&#45;&gt;CalibratedDetector[SampleRun]:w</title>
<path fill="none" stroke="black" d="M1685,-239.05C1742.32,-239.05 1759.17,-239.05 1811.75,-239.05"/>
<polygon fill="black" stroke="black" points="1812,-242.55 1822,-239.05 1812,-235.55 1812,-242.55"/>
</g>
<!-- DetectorBankSizes -->
<g id="node9" class="node">
<title>DetectorBankSizes</title>
<polygon fill="none" stroke="black" points="1624,-293.55 1472,-293.55 1472,-270.55 1624,-270.55 1624,-293.55"/>
<text text-anchor="middle" x="1548" y="-278.35" font-family="Times,serif" font-size="14.00">DetectorBankSizes</text>
</g>
<!-- DetectorBankSizes&#45;&gt;CalibratedDetector[SampleRun] -->
<g id="edge8" class="edge">
<title>DetectorBankSizes:e&#45;&gt;CalibratedDetector[SampleRun]:w</title>
<path fill="none" stroke="black" d="M1625,-282.05C1674.34,-282.05 1686.89,-277.98 1735,-267.05 1771.05,-258.86 1779.9,-242.38 1811.82,-239.49"/>
<polygon fill="black" stroke="black" points="1812.16,-242.98 1822,-239.05 1811.86,-235.99 1812.16,-242.98"/>
</g>
<!-- DetectorTofData[SampleRun] -->
<g id="node13" class="node">
<title>DetectorTofData[SampleRun]</title>
<polygon fill="none" stroke="black" points="3109,-85.55 2882,-85.55 2882,-52.55 3109,-52.55 3109,-85.55"/>
<text text-anchor="start" x="2890" y="-71.35" font-family="Times,serif" font-size="14.00">DetectorTofData[SampleRun]</text>
<text text-anchor="start" x="2905.5" y="-59.75" font-family="Times,serif" font-size="11.00">via:</text>
<text text-anchor="start" x="2926.5" y="-59.75" font-family="Times,serif" font-style="italic" font-size="11.00">detector_time_of_flight_data</text>
</g>
<!-- DetectorData[SampleRun]&#45;&gt;DetectorTofData[SampleRun] -->
<g id="edge12" class="edge">
<title>DetectorData[SampleRun]:e&#45;&gt;DetectorTofData[SampleRun]:w</title>
<path fill="none" stroke="black" d="M2756,-88.05C2809.09,-88.05 2823.6,-71.35 2871.87,-69.26"/>
<polygon fill="black" stroke="black" points="2872.08,-72.76 2882,-69.05 2871.93,-65.76 2872.08,-72.76"/>
</g>
<!-- NeXusData[NXdetector, SampleRun] -->
<g id="node11" class="node">
<title>NeXusData[NXdetector, SampleRun]</title>
<polygon fill="none" stroke="black" points="2085,-60.55 1807,-60.55 1807,-27.55 2085,-27.55 2085,-60.55"/>
<text text-anchor="start" x="1815" y="-46.35" font-family="Times,serif" font-size="14.00">NeXusData[NXdetector, SampleRun]</text>
<text text-anchor="start" x="1889.5" y="-34.75" font-family="Times,serif" font-size="11.00">via:</text>
<text text-anchor="start" x="1910.5" y="-34.75" font-family="Times,serif" font-style="italic" font-size="11.00">load_nexus_data</text>
</g>
<!-- NeXusData[NXdetector, SampleRun]&#45;&gt;DetectorData[SampleRun] -->
<g id="edge10" class="edge">
<title>NeXusData[NXdetector, SampleRun]:e&#45;&gt;DetectorData[SampleRun]:w</title>
<path fill="none" stroke="black" d="M2085,-44.05C2118.33,-44.05 2124.15,-59.37 2157,-65.05 2326.04,-94.26 2373.2,-88.3 2539.89,-88.06"/>
<polygon fill="black" stroke="black" points="2540,-91.56 2550,-88.05 2540,-84.56 2540,-91.56"/>
</g>
<!-- DetectorLtotal[SampleRun]&#45;&gt;DetectorTofData[SampleRun] -->
<g id="edge14" class="edge">
<title>DetectorLtotal[SampleRun]:e&#45;&gt;DetectorTofData[SampleRun]:w</title>
<path fill="none" stroke="black" d="M2810,-125.05C2846.74,-125.05 2842.73,-79.06 2871.82,-70.44"/>
<polygon fill="black" stroke="black" points="2872.56,-73.87 2882,-69.05 2871.62,-66.93 2872.56,-73.87"/>
</g>
<!-- TimeOfFlightLookupTable -->
<g id="node14" class="node">
<title>TimeOfFlightLookupTable</title>
<polygon fill="none" stroke="black" points="2753.5,-67.55 2552.5,-67.55 2552.5,-34.55 2753.5,-34.55 2753.5,-67.55"/>
<text text-anchor="start" x="2560.5" y="-53.35" font-family="Times,serif" font-size="14.00">TimeOfFlightLookupTable</text>
<text text-anchor="start" x="2582" y="-41.75" font-family="Times,serif" font-size="11.00">via:</text>
<text text-anchor="start" x="2603" y="-41.75" font-family="Times,serif" font-style="italic" font-size="11.00">load_tof_lookup_table</text>
</g>
<!-- TimeOfFlightLookupTable&#45;&gt;DetectorTofData[SampleRun] -->
<g id="edge13" class="edge">
<title>TimeOfFlightLookupTable:e&#45;&gt;DetectorTofData[SampleRun]:w</title>
<path fill="none" stroke="black" d="M2755,-51.05C2808.45,-51.05 2823.2,-66.87 2871.81,-68.85"/>
<polygon fill="black" stroke="black" points="2871.93,-72.35 2882,-69.05 2872.07,-65.35 2871.93,-72.35"/>
</g>
<!-- PulseStrideOffset -->
<g id="node15" class="node">
<title>PulseStrideOffset</title>
<polygon fill="none" stroke="black" points="2724.5,-30.55 2581.5,-30.55 2581.5,-7.55 2724.5,-7.55 2724.5,-30.55"/>
<text text-anchor="middle" x="2653" y="-15.35" font-family="Times,serif" font-size="14.00">PulseStrideOffset</text>
</g>
<!-- PulseStrideOffset&#45;&gt;DetectorTofData[SampleRun] -->
<g id="edge15" class="edge">
<title>PulseStrideOffset:e&#45;&gt;DetectorTofData[SampleRun]:w</title>
<path fill="none" stroke="black" d="M2726,-19.05C2763.92,-19.05 2773.94,-22.32 2810,-34.05 2840.27,-43.9 2845.53,-64.14 2871.77,-68.29"/>
<polygon fill="black" stroke="black" points="2871.77,-71.8 2882,-69.05 2872.29,-64.82 2871.77,-71.8"/>
</g>
<!-- Filename[SampleRun] -->
<g id="node16" class="node">
<title>Filename[SampleRun]</title>
<polygon fill="none" stroke="black" points="175,-138.55 0,-138.55 0,-115.55 175,-115.55 175,-138.55"/>
<text text-anchor="middle" x="87.5" y="-123.35" font-family="Times,serif" font-size="14.00">Filename[SampleRun]</text>
</g>
<!-- NeXusFileSpec[SampleRun] -->
<g id="node19" class="node">
<title>NeXusFileSpec[SampleRun]</title>
<polygon fill="none" stroke="black" points="464,-129.55 247,-129.55 247,-96.55 464,-96.55 464,-129.55"/>
<text text-anchor="start" x="255" y="-115.35" font-family="Times,serif" font-size="14.00">NeXusFileSpec[SampleRun]</text>
<text text-anchor="start" x="285.5" y="-103.75" font-family="Times,serif" font-size="11.00">via:</text>
<text text-anchor="start" x="306.5" y="-103.75" font-family="Times,serif" font-style="italic" font-size="11.00">file_path_to_file_spec</text>
</g>
<!-- Filename[SampleRun]&#45;&gt;NeXusFileSpec[SampleRun] -->
<g id="edge29" class="edge">
<title>Filename[SampleRun]:e&#45;&gt;NeXusFileSpec[SampleRun]:w</title>
<path fill="none" stroke="black" d="M175,-127.05C203.91,-127.05 212.53,-116.04 236.84,-113.55"/>
<polygon fill="black" stroke="black" points="237.18,-117.04 247,-113.05 236.84,-110.05 237.18,-117.04"/>
</g>
<!-- NeXusClass[NXdetector] -->
<g id="node17" class="node">
<title>NeXusClass[NXdetector]</title>
<polygon fill="none" stroke="black" points="727,-295.55 569,-295.55 569,-264.55 727,-264.55 727,-295.55"/>
<text text-anchor="start" x="608.5" y="-282.95" font-family="Times,serif" font-size="12.00">[NXdetector]</text>
<text text-anchor="start" x="577" y="-271.75" font-family="Times,serif" font-size="11.00">via:</text>
<text text-anchor="start" x="598" y="-271.75" font-family="Times,serif" font-style="italic" font-size="11.00">nx_class_for_detector</text>
</g>
<!-- NeXusClass[NXdetector]&#45;&gt;NeXusComponent[NXdetector, SampleRun] -->
<g id="edge21" class="edge">
<title>NeXusClass[NXdetector]:e&#45;&gt;NeXusComponent[NXdetector, SampleRun]:w</title>
<path fill="none" stroke="black" d="M728,-280.05C747.68,-280.05 752.3,-272.93 768,-261.05 798.86,-237.7 790.51,-197.21 820.82,-190.12"/>
<polygon fill="black" stroke="black" points="821.42,-193.58 831,-189.05 820.69,-186.62 821.42,-193.58"/>
</g>
<!-- NeXusClass[NXsource] -->
<g id="node18" class="node">
<title>NeXusClass[NXsource]</title>
<polygon fill="none" stroke="black" points="722,-260.55 574,-260.55 574,-229.55 722,-229.55 722,-260.55"/>
<text text-anchor="start" x="613.5" y="-247.95" font-family="Times,serif" font-size="12.00">[NXsource]</text>
<text text-anchor="start" x="582" y="-236.75" font-family="Times,serif" font-size="11.00">via:</text>
<text text-anchor="start" x="603" y="-236.75" font-family="Times,serif" font-style="italic" font-size="11.00">nx_class_for_source</text>
</g>
<!-- NeXusComponent[NXsource, SampleRun] -->
<g id="node25" class="node">
<title>NeXusComponent[NXsource, SampleRun]</title>
<polygon fill="none" stroke="black" points="1000,-169.55 834,-169.55 834,-138.55 1000,-138.55 1000,-169.55"/>
<text text-anchor="start" x="844.5" y="-156.95" font-family="Times,serif" font-size="12.00">[NXsource, SampleRun]</text>
<text text-anchor="start" x="842" y="-145.75" font-family="Times,serif" font-size="11.00">via:</text>
<text text-anchor="start" x="863" y="-145.75" font-family="Times,serif" font-style="italic" font-size="11.00">load_nexus_component</text>
</g>
<!-- NeXusClass[NXsource]&#45;&gt;NeXusComponent[NXsource, SampleRun] -->
<g id="edge24" class="edge">
<title>NeXusClass[NXsource]:e&#45;&gt;NeXusComponent[NXsource, SampleRun]:w</title>
<path fill="none" stroke="black" d="M723,-245.05C782.86,-245.05 771.21,-164.07 822.96,-154.89"/>
<polygon fill="black" stroke="black" points="823.33,-158.38 833,-154.05 822.74,-151.4 823.33,-158.38"/>
</g>
<!-- NeXusComponentLocationSpec[NXdetector, SampleRun] -->
<g id="node20" class="node">
<title>NeXusComponentLocationSpec[NXdetector, SampleRun]</title>
<polygon fill="none" stroke="black" points="740,-181.55 556,-181.55 556,-150.55 740,-150.55 740,-181.55"/>
<text text-anchor="start" x="571" y="-168.95" font-family="Times,serif" font-size="12.00">[NXdetector, SampleRun]</text>
<text text-anchor="start" x="564" y="-157.75" font-family="Times,serif" font-size="11.00">via:</text>
<text text-anchor="start" x="585" y="-157.75" font-family="Times,serif" font-style="italic" font-size="11.00">component_spec_by_name</text>
</g>
<!-- NeXusFileSpec[SampleRun]&#45;&gt;NeXusComponentLocationSpec[NXdetector, SampleRun] -->
<g id="edge16" class="edge">
<title>NeXusFileSpec[SampleRun]:e&#45;&gt;NeXusComponentLocationSpec[NXdetector, SampleRun]:w</title>
<path fill="none" stroke="black" d="M464,-113.05C507.15,-113.05 508.3,-158.09 544.89,-165.13"/>
<polygon fill="black" stroke="black" points="544.72,-168.63 555,-166.05 545.36,-161.66 544.72,-168.63"/>
</g>
<!-- NeXusComponentLocationSpec[NXsample, SampleRun] -->
<g id="node22" class="node">
<title>NeXusComponentLocationSpec[NXsample, SampleRun]</title>
<polygon fill="none" stroke="black" points="734.5,-111.55 561.5,-111.55 561.5,-80.55 734.5,-80.55 734.5,-111.55"/>
<text text-anchor="start" x="574" y="-98.95" font-family="Times,serif" font-size="12.00">[NXsample, SampleRun]</text>
<text text-anchor="start" x="569.5" y="-87.75" font-family="Times,serif" font-size="11.00">via:</text>
<text text-anchor="start" x="590.5" y="-87.75" font-family="Times,serif" font-style="italic" font-size="11.00">unique_component_spec</text>
</g>
<!-- NeXusFileSpec[SampleRun]&#45;&gt;NeXusComponentLocationSpec[NXsample, SampleRun] -->
<g id="edge18" class="edge">
<title>NeXusFileSpec[SampleRun]:e&#45;&gt;NeXusComponentLocationSpec[NXsample, SampleRun]:w</title>
<path fill="none" stroke="black" d="M464,-113.05C503.78,-113.05 514.91,-98.73 549.99,-96.38"/>
<polygon fill="black" stroke="black" points="550.12,-99.87 560,-96.05 549.89,-92.88 550.12,-99.87"/>
</g>
<!-- NeXusComponentLocationSpec[NXsource, SampleRun] -->
<g id="node23" class="node">
<title>NeXusComponentLocationSpec[NXsource, SampleRun]</title>
<polygon fill="none" stroke="black" points="734.5,-146.55 561.5,-146.55 561.5,-115.55 734.5,-115.55 734.5,-146.55"/>
<text text-anchor="start" x="575.5" y="-133.95" font-family="Times,serif" font-size="12.00">[NXsource, SampleRun]</text>
<text text-anchor="start" x="569.5" y="-122.75" font-family="Times,serif" font-size="11.00">via:</text>
<text text-anchor="start" x="590.5" y="-122.75" font-family="Times,serif" font-style="italic" font-size="11.00">unique_component_spec</text>
</g>
<!-- NeXusFileSpec[SampleRun]&#45;&gt;NeXusComponentLocationSpec[NXsource, SampleRun] -->
<g id="edge19" class="edge">
<title>NeXusFileSpec[SampleRun]:e&#45;&gt;NeXusComponentLocationSpec[NXsource, SampleRun]:w</title>
<path fill="none" stroke="black" d="M464,-113.05C503.85,-113.05 514.85,-128.22 549.97,-130.71"/>
<polygon fill="black" stroke="black" points="549.89,-134.21 560,-131.05 550.13,-127.21 549.89,-134.21"/>
</g>
<!-- NeXusDataLocationSpec[NXdetector, SampleRun] -->
<g id="node26" class="node">
<title>NeXusDataLocationSpec[NXdetector, SampleRun]</title>
<polygon fill="none" stroke="black" points="1735,-72.55 1361,-72.55 1361,-39.55 1735,-39.55 1735,-72.55"/>
<text text-anchor="start" x="1369" y="-58.35" font-family="Times,serif" font-size="14.00">NeXusDataLocationSpec[NXdetector, SampleRun]</text>
<text text-anchor="start" x="1498" y="-46.75" font-family="Times,serif" font-size="11.00">via:</text>
<text text-anchor="start" x="1519" y="-46.75" font-family="Times,serif" font-style="italic" font-size="11.00">data_by_name</text>
</g>
<!-- NeXusFileSpec[SampleRun]&#45;&gt;NeXusDataLocationSpec[NXdetector, SampleRun] -->
<g id="edge25" class="edge">
<title>NeXusFileSpec[SampleRun]:e&#45;&gt;NeXusDataLocationSpec[NXdetector, SampleRun]:w</title>
<path fill="none" stroke="black" d="M464,-113.05C501.5,-113.05 492.85,-71.13 528,-58.05 871.77,69.84 988.61,-53.72 1350.76,-56.02"/>
<polygon fill="black" stroke="black" points="1350.99,-59.52 1361,-56.05 1351.01,-52.52 1350.99,-59.52"/>
</g>
<!-- NeXusComponentLocationSpec[NXdetector, SampleRun]&#45;&gt;NeXusComponent[NXdetector, SampleRun] -->
<g id="edge20" class="edge">
<title>NeXusComponentLocationSpec[NXdetector, SampleRun]:e&#45;&gt;NeXusComponent[NXdetector, SampleRun]:w</title>
<path fill="none" stroke="black" d="M741,-166.05C778.58,-166.05 788.11,-185.1 820.64,-188.53"/>
<polygon fill="black" stroke="black" points="820.84,-192.04 831,-189.05 821.19,-185.05 820.84,-192.04"/>
</g>
<!-- NeXusName[NXdetector] -->
<g id="node21" class="node">
<title>NeXusName[NXdetector]</title>
<polygon fill="none" stroke="black" points="454,-166.55 257,-166.55 257,-143.55 454,-143.55 454,-166.55"/>
<text text-anchor="middle" x="355.5" y="-151.35" font-family="Times,serif" font-size="14.00">NeXusName[NXdetector]</text>
</g>
<!-- NeXusName[NXdetector]&#45;&gt;NeXusComponentLocationSpec[NXdetector, SampleRun] -->
<g id="edge17" class="edge">
<title>NeXusName[NXdetector]:e&#45;&gt;NeXusComponentLocationSpec[NXdetector, SampleRun]:w</title>
<path fill="none" stroke="black" d="M455.5,-155.05C496.34,-155.05 508.55,-164.32 544.7,-165.84"/>
<polygon fill="black" stroke="black" points="544.93,-169.35 555,-166.05 545.07,-162.35 544.93,-169.35"/>
</g>
<!-- NeXusName[NXdetector]&#45;&gt;NeXusDataLocationSpec[NXdetector, SampleRun] -->
<g id="edge26" class="edge">
<title>NeXusName[NXdetector]:e&#45;&gt;NeXusDataLocationSpec[NXdetector, SampleRun]:w</title>
<path fill="none" stroke="black" d="M455.5,-155.05C504.82,-155.05 483.35,-91.98 528,-71.05 609.2,-32.99 1227.95,-54.59 1350.7,-55.98"/>
<polygon fill="black" stroke="black" points="1350.98,-59.48 1361,-56.05 1351.02,-52.48 1350.98,-59.48"/>
</g>
<!-- NeXusComponent[NXsample, SampleRun] -->
<g id="node24" class="node">
<title>NeXusComponent[NXsample, SampleRun]</title>
<polygon fill="none" stroke="black" points="999,-134.55 835,-134.55 835,-103.55 999,-103.55 999,-134.55"/>
<text text-anchor="start" x="843" y="-121.95" font-family="Times,serif" font-size="12.00">[NXsample, SampleRun]</text>
<text text-anchor="start" x="852.5" y="-110.75" font-family="Times,serif" font-size="11.00">via:</text>
<text text-anchor="start" x="873.5" y="-110.75" font-family="Times,serif" font-style="italic" font-size="11.00">load_nexus_sample</text>
</g>
<!-- NeXusComponentLocationSpec[NXsample, SampleRun]&#45;&gt;NeXusComponent[NXsample, SampleRun] -->
<g id="edge22" class="edge">
<title>NeXusComponentLocationSpec[NXsample, SampleRun]:e&#45;&gt;NeXusComponent[NXsample, SampleRun]:w</title>
<path fill="none" stroke="black" d="M736,-96.05C777.07,-96.05 787.62,-115.43 823.68,-118.61"/>
<polygon fill="black" stroke="black" points="823.86,-122.12 834,-119.05 824.16,-115.13 823.86,-122.12"/>
</g>
<!-- NeXusComponentLocationSpec[NXsource, SampleRun]&#45;&gt;NeXusComponent[NXsource, SampleRun] -->
<g id="edge23" class="edge">
<title>NeXusComponentLocationSpec[NXsource, SampleRun]:e&#45;&gt;NeXusComponent[NXsource, SampleRun]:w</title>
<path fill="none" stroke="black" d="M736,-131.05C776.67,-131.05 787.08,-150.43 822.78,-153.61"/>
<polygon fill="black" stroke="black" points="822.86,-157.12 833,-154.05 823.16,-150.13 822.86,-157.12"/>
</g>
<!-- NeXusTransformationChain[NXsample, SampleRun] -->
<g id="node30" class="node">
<title>NeXusTransformationChain[NXsample, SampleRun]</title>
<polygon fill="none" stroke="black" points="1263,-139.55 1099,-139.55 1099,-118.55 1263,-118.55 1263,-139.55"/>
<text text-anchor="start" x="1107" y="-125.95" font-family="Times,serif" font-size="12.00">[NXsample, SampleRun]</text>
</g>
<!-- NeXusComponent[NXsample, SampleRun]&#45;&gt;NeXusTransformationChain[NXsample, SampleRun] -->
<g id="edge32" class="edge">
<title>NeXusComponent[NXsample, SampleRun]:e&#45;&gt;NeXusTransformationChain[NXsample, SampleRun]:w</title>
<path fill="none" stroke="black" d="M1000,-119.05C1040.19,-119.05 1052.28,-127.48 1087.86,-128.86"/>
<polygon fill="black" stroke="black" points="1087.94,-132.36 1098,-129.05 1088.07,-125.36 1087.94,-132.36"/>
</g>
<!-- NeXusTransformationChain[NXsource, SampleRun] -->
<g id="node31" class="node">
<title>NeXusTransformationChain[NXsource, SampleRun]</title>
<polygon fill="none" stroke="black" points="1261.5,-164.55 1100.5,-164.55 1100.5,-143.55 1261.5,-143.55 1261.5,-164.55"/>
<text text-anchor="start" x="1108.5" y="-150.95" font-family="Times,serif" font-size="12.00">[NXsource, SampleRun]</text>
</g>
<!-- NeXusComponent[NXsource, SampleRun]&#45;&gt;NeXusTransformationChain[NXsource, SampleRun] -->
<g id="edge33" class="edge">
<title>NeXusComponent[NXsource, SampleRun]:e&#45;&gt;NeXusTransformationChain[NXsource, SampleRun]:w</title>
<path fill="none" stroke="black" d="M1001,-154.05C1040.98,-154.05 1053.44,-154.05 1088.9,-154.05"/>
<polygon fill="black" stroke="black" points="1089,-157.55 1099,-154.05 1089,-150.55 1089,-157.55"/>
</g>
<!-- NeXusDataLocationSpec[NXdetector, SampleRun]&#45;&gt;NeXusData[NXdetector, SampleRun] -->
<g id="edge28" class="edge">
<title>NeXusDataLocationSpec[NXdetector, SampleRun]:e&#45;&gt;NeXusData[NXdetector, SampleRun]:w</title>
<path fill="none" stroke="black" d="M1735,-56.05C1763.77,-56.05 1772.62,-46.62 1796.88,-44.48"/>
<polygon fill="black" stroke="black" points="1797.16,-47.97 1807,-44.05 1796.86,-40.98 1797.16,-47.97"/>
</g>
<!-- TimeInterval[SampleRun] -->
<g id="node27" class="node">
<title>TimeInterval[SampleRun]</title>
<polygon fill="none" stroke="black" points="1281,-101.55 1081,-101.55 1081,-68.55 1281,-68.55 1281,-101.55"/>
<text text-anchor="start" x="1089" y="-87.35" font-family="Times,serif" font-size="14.00">TimeInterval[SampleRun]</text>
<text text-anchor="start" x="1121.5" y="-75.75" font-family="Times,serif" font-size="11.00">via:</text>
<text text-anchor="start" x="1142.5" y="-75.75" font-family="Times,serif" font-style="italic" font-size="11.00">full_time_interval</text>
</g>
<!-- TimeInterval[SampleRun]&#45;&gt;NeXusTransformation[NXdetector, SampleRun] -->
<g id="edge35" class="edge">
<title>TimeInterval[SampleRun]:e&#45;&gt;NeXusTransformation[NXdetector, SampleRun]:w</title>
<path fill="none" stroke="black" d="M1282,-85.05C1326.91,-85.05 1319.73,-130.34 1361,-148.05 1399.39,-164.53 1414.32,-162.52 1451.92,-162.11"/>
<polygon fill="black" stroke="black" points="1452.02,-165.61 1462,-162.05 1451.98,-158.61 1452.02,-165.61"/>
</g>
<!-- TimeInterval[SampleRun]&#45;&gt;NeXusDataLocationSpec[NXdetector, SampleRun] -->
<g id="edge27" class="edge">
<title>TimeInterval[SampleRun]:e&#45;&gt;NeXusDataLocationSpec[NXdetector, SampleRun]:w</title>
<path fill="none" stroke="black" d="M1282,-85.05C1315.75,-85.05 1322.46,-61.44 1350.93,-56.83"/>
<polygon fill="black" stroke="black" points="1351.3,-60.31 1361,-56.05 1350.76,-53.33 1351.3,-60.31"/>
</g>
<!-- NeXusTransformation[NXsample, SampleRun] -->
<g id="node32" class="node">
<title>NeXusTransformation[NXsample, SampleRun]</title>
<polygon fill="none" stroke="black" points="1630,-122.55 1466,-122.55 1466,-101.55 1630,-101.55 1630,-122.55"/>
<text text-anchor="start" x="1474" y="-108.95" font-family="Times,serif" font-size="12.00">[NXsample, SampleRun]</text>
</g>
<!-- TimeInterval[SampleRun]&#45;&gt;NeXusTransformation[NXsample, SampleRun] -->
<g id="edge37" class="edge">
<title>TimeInterval[SampleRun]:e&#45;&gt;NeXusTransformation[NXsample, SampleRun]:w</title>
<path fill="none" stroke="black" d="M1282,-85.05C1360.68,-85.05 1381.07,-109.78 1454.74,-111.91"/>
<polygon fill="black" stroke="black" points="1454.95,-115.41 1465,-112.05 1455.05,-108.41 1454.95,-115.41"/>
</g>
<!-- NeXusTransformation[NXsource, SampleRun] -->
<g id="node33" class="node">
<title>NeXusTransformation[NXsource, SampleRun]</title>
<polygon fill="none" stroke="black" points="1628.5,-147.55 1467.5,-147.55 1467.5,-126.55 1628.5,-126.55 1628.5,-147.55"/>
<text text-anchor="start" x="1475.5" y="-133.95" font-family="Times,serif" font-size="12.00">[NXsource, SampleRun]</text>
</g>
<!-- TimeInterval[SampleRun]&#45;&gt;NeXusTransformation[NXsource, SampleRun] -->
<g id="edge39" class="edge">
<title>TimeInterval[SampleRun]:e&#45;&gt;NeXusTransformation[NXsource, SampleRun]:w</title>
<path fill="none" stroke="black" d="M1282,-85.05C1320.96,-85.05 1323.67,-111.89 1361,-123.05 1402.58,-135.48 1416.72,-136.89 1455.56,-137.04"/>
<polygon fill="black" stroke="black" points="1455.99,-140.54 1466,-137.05 1456.01,-133.54 1455.99,-140.54"/>
</g>
<!-- PreopenNeXusFile -->
<g id="node28" class="node">
<title>PreopenNeXusFile</title>
<polygon fill="none" stroke="black" points="162,-111.55 13,-111.55 13,-88.55 162,-88.55 162,-111.55"/>
<text text-anchor="middle" x="87.5" y="-96.35" font-family="Times,serif" font-size="14.00">PreopenNeXusFile</text>
</g>
<!-- PreopenNeXusFile&#45;&gt;NeXusFileSpec[SampleRun] -->
<g id="edge30" class="edge">
<title>PreopenNeXusFile:e&#45;&gt;NeXusFileSpec[SampleRun]:w</title>
<path fill="none" stroke="black" d="M162.5,-100.05C196.79,-100.05 207.06,-110.64 236.66,-112.7"/>
<polygon fill="black" stroke="black" points="236.89,-116.21 247,-113.05 237.12,-109.22 236.89,-116.21"/>
</g>
<!-- NeXusTransformationChain[NXdetector, SampleRun]&#45;&gt;NeXusTransformation[NXdetector, SampleRun] -->
<g id="edge34" class="edge">
<title>NeXusTransformationChain[NXdetector, SampleRun]:e&#45;&gt;NeXusTransformation[NXdetector, SampleRun]:w</title>
<path fill="none" stroke="black" d="M1267,-179.05C1350.43,-179.05 1373.17,-163.42 1451.62,-162.13"/>
<polygon fill="black" stroke="black" points="1452.03,-165.63 1462,-162.05 1451.97,-158.63 1452.03,-165.63"/>
</g>
<!-- NeXusTransformationChain[NXsample, SampleRun]&#45;&gt;NeXusTransformation[NXsample, SampleRun] -->
<g id="edge36" class="edge">
<title>NeXusTransformationChain[NXsample, SampleRun]:e&#45;&gt;NeXusTransformation[NXsample, SampleRun]:w</title>
<path fill="none" stroke="black" d="M1264,-129.05C1350.15,-129.05 1373.55,-113.35 1454.8,-112.13"/>
<polygon fill="black" stroke="black" points="1455.03,-115.63 1465,-112.05 1454.97,-108.63 1455.03,-115.63"/>
</g>
<!-- NeXusTransformationChain[NXsource, SampleRun]&#45;&gt;NeXusTransformation[NXsource, SampleRun] -->
<g id="edge38" class="edge">
<title>NeXusTransformationChain[NXsource, SampleRun]:e&#45;&gt;NeXusTransformation[NXsource, SampleRun]:w</title>
<path fill="none" stroke="black" d="M1263,-154.05C1350.09,-154.05 1373.69,-138.32 1455.95,-137.12"/>
<polygon fill="black" stroke="black" points="1456.03,-140.62 1466,-137.05 1455.98,-133.62 1456.03,-140.62"/>
</g>
<!-- NeXusTransformation[NXsample, SampleRun]&#45;&gt;Position[NXsample, SampleRun] -->
<g id="edge40" class="edge">
<title>NeXusTransformation[NXsample, SampleRun]:e&#45;&gt;Position[NXsample, SampleRun]:w</title>
<path fill="none" stroke="black" d="M1631,-112.05C1730.84,-112.05 1757.95,-124.2 1852.96,-125.01"/>
<polygon fill="black" stroke="black" points="1852.99,-128.51 1863,-125.05 1853.01,-121.51 1852.99,-128.51"/>
</g>
<!-- NeXusTransformation[NXsource, SampleRun]&#45;&gt;Position[NXsource, SampleRun] -->
<g id="edge41" class="edge">
<title>NeXusTransformation[NXsource, SampleRun]:e&#45;&gt;Position[NXsource, SampleRun]:w</title>
<path fill="none" stroke="black" d="M1630,-137.05C1730.7,-137.05 1758.05,-149.2 1853.88,-150.01"/>
<polygon fill="black" stroke="black" points="1853.99,-153.51 1864,-150.05 1854.01,-146.51 1853.99,-153.51"/>
</g>
<!-- TimeOfFlightLookupTableFilename -->
<g id="node34" class="node">
<title>TimeOfFlightLookupTableFilename</title>
<polygon fill="none" stroke="black" points="2424,-62.55 2157,-62.55 2157,-39.55 2424,-39.55 2424,-62.55"/>
<text text-anchor="middle" x="2290.5" y="-47.35" font-family="Times,serif" font-size="14.00">TimeOfFlightLookupTableFilename</text>
</g>
<!-- TimeOfFlightLookupTableFilename&#45;&gt;TimeOfFlightLookupTable -->
<g id="edge42" class="edge">
<title>TimeOfFlightLookupTableFilename:e&#45;&gt;TimeOfFlightLookupTable:w</title>
<path fill="none" stroke="black" d="M2424,-51.05C2476.92,-51.05 2492.63,-51.05 2540.89,-51.05"/>
<polygon fill="black" stroke="black" points="2541,-54.55 2551,-51.05 2541,-47.55 2541,-54.55"/>
</g>
</g>
</svg>
