<?xml version="1.0" encoding="UTF-8" standalone="no"?>
<!DOCTYPE svg PUBLIC "-//W3C//DTD SVG 1.1//EN"
 "http://www.w3.org/Graphics/SVG/1.1/DTD/svg11.dtd">
<!-- Generated by graphviz version 2.43.0 (0)
 -->
<!-- Title: %3 Pages: 1 -->
<svg width="2747pt" height="345pt"
 viewBox="0.00 0.00 2747.00 344.98" xmlns="http://www.w3.org/2000/svg" xmlns:xlink="http://www.w3.org/1999/xlink">
<g id="graph0" class="graph" transform="scale(1 1) rotate(0) translate(4 340.98)">
<title>%3</title>
<polygon fill="white" stroke="transparent" points="-4,4 -4,-340.98 2743,-340.98 2743,4 -4,4"/>
<g id="clust7" class="cluster">
<title>cluster_NeXusClass</title>
<polygon fill="#f0f0ff" stroke="#f0f0ff" points="561,-73.98 561,-179.98 735,-179.98 735,-73.98 561,-73.98"/>
<text text-anchor="middle" x="648" y="-164.78" font-family="Times,serif" font-size="14.00">NeXusClass</text>
</g>
<g id="clust16" class="cluster">
<title>cluster_Position</title>
<polygon fill="#f0f0ff" stroke="#f0f0ff" points="1856,-190.98 1856,-286.98 2036,-286.98 2036,-190.98 1856,-190.98"/>
<text text-anchor="start" x="1917" y="-272.78" font-family="Times,serif" font-size="14.00">Position</text>
<text text-anchor="start" x="1886" y="-261.18" font-family="Times,serif" font-size="11.00">via:</text>
<text text-anchor="start" x="1907" y="-261.18" font-family="Times,serif" font-style="italic" font-size="11.00">compute_position</text>
</g>
<g id="clust8" class="cluster">
<title>cluster_NeXusComponentLocationSpec</title>
<polygon fill="#f0f0ff" stroke="#f0f0ff" points="528,-187.98 528,-328.98 768,-328.98 768,-187.98 528,-187.98"/>
<text text-anchor="middle" x="648" y="-313.78" font-family="Times,serif" font-size="14.00">NeXusComponentLocationSpec</text>
</g>
<g id="clust9" class="cluster">
<title>cluster_NeXusComponent</title>
<polygon fill="#f0f0ff" stroke="#f0f0ff" points="824,-184.98 824,-325.98 1010,-325.98 1010,-184.98 824,-184.98"/>
<text text-anchor="middle" x="917" y="-310.78" font-family="Times,serif" font-size="14.00">NeXusComponent</text>
</g>
<g id="clust14" class="cluster">
<title>cluster_NeXusTransformationChain</title>
<polygon fill="#f0f0ff" stroke="#f0f0ff" points="1074,-199.98 1074,-320.98 1289,-320.98 1289,-199.98 1074,-199.98"/>
<text text-anchor="start" x="1082" y="-306.78" font-family="Times,serif" font-size="14.00">NeXusTransformationChain</text>
<text text-anchor="start" x="1099.5" y="-295.18" font-family="Times,serif" font-size="11.00">via:</text>
<text text-anchor="start" x="1120.5" y="-295.18" font-family="Times,serif" font-style="italic" font-size="11.00">get_transformation_chain</text>
</g>
<g id="clust15" class="cluster">
<title>cluster_NeXusTransformation</title>
<polygon fill="#f0f0ff" stroke="#f0f0ff" points="1455,-165.98 1455,-286.98 1641,-286.98 1641,-165.98 1455,-165.98"/>
<text text-anchor="start" x="1469.5" y="-272.78" font-family="Times,serif" font-size="14.00">NeXusTransformation</text>
<text text-anchor="start" x="1487" y="-261.18" font-family="Times,serif" font-size="11.00">via:</text>
<text text-anchor="start" x="1508" y="-261.18" font-family="Times,serif" font-style="italic" font-size="11.00">to_transformation</text>
</g>
<!-- DetectorBankSizes -->
<g id="node1" class="node">
<title>DetectorBankSizes</title>
<polygon fill="none" stroke="black" points="1624,-143.48 1472,-143.48 1472,-120.48 1624,-120.48 1624,-143.48"/>
<text text-anchor="middle" x="1548" y="-128.28" font-family="Times,serif" font-size="14.00">DetectorBankSizes</text>
</g>
<!-- EmptyDetector[SampleRun] -->
<g id="node2" class="node">
<title>EmptyDetector[SampleRun]</title>
<polygon fill="none" stroke="black" points="2055,-145.48 1837,-145.48 1837,-112.48 2055,-112.48 2055,-145.48"/>
<text text-anchor="start" x="1845" y="-131.28" font-family="Times,serif" font-size="14.00">EmptyDetector[SampleRun]</text>
<text text-anchor="start" x="1869" y="-119.68" font-family="Times,serif" font-size="11.00">via:</text>
<text text-anchor="start" x="1890" y="-119.68" font-family="Times,serif" font-style="italic" font-size="11.00">get_calibrated_detector</text>
</g>
<!-- DetectorBankSizes&#45;&gt;EmptyDetector[SampleRun] -->
<g id="edge8" class="edge">
<title>DetectorBankSizes:e&#45;&gt;EmptyDetector[SampleRun]:w</title>
<path fill="none" stroke="black" d="M1625,-131.98C1715.31,-131.98 1740.38,-129.2 1825.84,-128.99"/>
<polygon fill="black" stroke="black" points="1826,-132.49 1836,-128.98 1826,-125.49 1826,-132.49"/>
</g>
<!-- DetectorLtotal[SampleRun] -->
<g id="node3" class="node">
<title>DetectorLtotal[SampleRun]</title>
<polygon fill="none" stroke="black" points="2471,-182.48 2157,-182.48 2157,-149.48 2471,-149.48 2471,-182.48"/>
<text text-anchor="start" x="2215.5" y="-168.28" font-family="Times,serif" font-size="14.00">DetectorLtotal[SampleRun]</text>
<text text-anchor="start" x="2165" y="-156.68" font-family="Times,serif" font-size="11.00">via:</text>
<text text-anchor="start" x="2186" y="-156.68" font-family="Times,serif" font-style="italic" font-size="11.00">detector_ltotal_from_straight_line_approximation</text>
</g>
<!-- EmptyDetector[SampleRun]&#45;&gt;DetectorLtotal[SampleRun] -->
<g id="edge1" class="edge">
<title>EmptyDetector[SampleRun]:e&#45;&gt;DetectorLtotal[SampleRun]:w</title>
<path fill="none" stroke="black" d="M2056,-128.98C2100.07,-128.98 2108.09,-160.42 2146.53,-165.34"/>
<polygon fill="black" stroke="black" points="2146.8,-168.86 2157,-165.98 2147.23,-161.87 2146.8,-168.86"/>
</g>
<!-- RawDetector[SampleRun] -->
<g id="node30" class="node">
<title>RawDetector[SampleRun]</title>
<polygon fill="none" stroke="black" points="2415,-117.48 2213,-117.48 2213,-84.48 2415,-84.48 2415,-117.48"/>
<text text-anchor="start" x="2221" y="-103.28" font-family="Times,serif" font-size="14.00">RawDetector[SampleRun]</text>
<text text-anchor="start" x="2235.5" y="-91.68" font-family="Times,serif" font-size="11.00">via:</text>
<text text-anchor="start" x="2256.5" y="-91.68" font-family="Times,serif" font-style="italic" font-size="11.00">assemble_detector_data</text>
</g>
<!-- EmptyDetector[SampleRun]&#45;&gt;RawDetector[SampleRun] -->
<g id="edge35" class="edge">
<title>EmptyDetector[SampleRun]:e&#45;&gt;RawDetector[SampleRun]:w</title>
<path fill="none" stroke="black" d="M2056,-128.98C2122.86,-128.98 2139.88,-103.75 2201.68,-101.19"/>
<polygon fill="black" stroke="black" points="2202.07,-104.68 2212,-100.98 2201.93,-97.68 2202.07,-104.68"/>
</g>
<!-- TofDetector[SampleRun] -->
<g id="node33" class="node">
<title>TofDetector[SampleRun]</title>
<polygon fill="none" stroke="black" points="2739,-133.48 2543,-133.48 2543,-100.48 2739,-100.48 2739,-133.48"/>
<text text-anchor="start" x="2552.5" y="-119.28" font-family="Times,serif" font-size="14.00">TofDetector[SampleRun]</text>
<text text-anchor="start" x="2551" y="-107.68" font-family="Times,serif" font-size="11.00">via:</text>
<text text-anchor="start" x="2572" y="-107.68" font-family="Times,serif" font-style="italic" font-size="11.00">detector_time_of_flight_data</text>
</g>
<!-- DetectorLtotal[SampleRun]&#45;&gt;TofDetector[SampleRun] -->
<g id="edge40" class="edge">
<title>DetectorLtotal[SampleRun]:e&#45;&gt;TofDetector[SampleRun]:w</title>
<path fill="none" stroke="black" d="M2471,-165.98C2505.93,-165.98 2504.93,-126.08 2532.84,-118.29"/>
<polygon fill="black" stroke="black" points="2533.53,-121.73 2543,-116.98 2532.63,-114.79 2533.53,-121.73"/>
</g>
<!-- Position[NXsource, SampleRun] -->
<g id="node4" class="node">
<title>Position[NXsource, SampleRun]</title>
<polygon fill="none" stroke="black" points="2026.5,-220.48 1865.5,-220.48 1865.5,-199.48 2026.5,-199.48 2026.5,-220.48"/>
<text text-anchor="start" x="1873.5" y="-206.88" font-family="Times,serif" font-size="12.00">[NXsource, SampleRun]</text>
</g>
<!-- Position[NXsource, SampleRun]&#45;&gt;DetectorLtotal[SampleRun] -->
<g id="edge2" class="edge">
<title>Position[NXsource, SampleRun]:e&#45;&gt;DetectorLtotal[SampleRun]:w</title>
<path fill="none" stroke="black" d="M2028,-209.98C2085.03,-209.98 2095.32,-170.98 2146.87,-166.41"/>
<polygon fill="black" stroke="black" points="2147.16,-169.9 2157,-165.98 2146.86,-162.91 2147.16,-169.9"/>
</g>
<!-- Position[NXsample, SampleRun] -->
<g id="node5" class="node">
<title>Position[NXsample, SampleRun]</title>
<polygon fill="none" stroke="black" points="2028,-245.48 1864,-245.48 1864,-224.48 2028,-224.48 2028,-245.48"/>
<text text-anchor="start" x="1872" y="-231.88" font-family="Times,serif" font-size="12.00">[NXsample, SampleRun]</text>
</g>
<!-- Position[NXsample, SampleRun]&#45;&gt;DetectorLtotal[SampleRun] -->
<g id="edge3" class="edge">
<title>Position[NXsample, SampleRun]:e&#45;&gt;DetectorLtotal[SampleRun]:w</title>
<path fill="none" stroke="black" d="M2029,-234.98C2054.65,-234.98 2061.88,-232.11 2085,-220.98 2117.88,-205.15 2117.23,-172.84 2146.79,-166.92"/>
<polygon fill="black" stroke="black" points="2147.36,-170.38 2157,-165.98 2146.72,-163.41 2147.36,-170.38"/>
</g>
<!-- GravityVector -->
<g id="node6" class="node">
<title>GravityVector</title>
<polygon fill="none" stroke="black" points="2023,-182.48 1869,-182.48 1869,-149.48 2023,-149.48 2023,-182.48"/>
<text text-anchor="start" x="1896" y="-168.28" font-family="Times,serif" font-size="14.00">GravityVector</text>
<text text-anchor="start" x="1877" y="-156.68" font-family="Times,serif" font-size="11.00">via:</text>
<text text-anchor="start" x="1898" y="-156.68" font-family="Times,serif" font-style="italic" font-size="11.00">gravity_vector_neg_y</text>
</g>
<!-- GravityVector&#45;&gt;DetectorLtotal[SampleRun] -->
<g id="edge4" class="edge">
<title>GravityVector:e&#45;&gt;DetectorLtotal[SampleRun]:w</title>
<path fill="none" stroke="black" d="M2024,-165.98C2079.53,-165.98 2095.94,-165.98 2146.73,-165.98"/>
<polygon fill="black" stroke="black" points="2147,-169.48 2157,-165.98 2147,-162.48 2147,-169.48"/>
</g>
<!-- DetectorPositionOffset[SampleRun] -->
<g id="node7" class="node">
<title>DetectorPositionOffset[SampleRun]</title>
<polygon fill="none" stroke="black" points="1683.5,-116.48 1412.5,-116.48 1412.5,-83.48 1683.5,-83.48 1683.5,-116.48"/>
<text text-anchor="start" x="1420.5" y="-102.28" font-family="Times,serif" font-size="14.00">DetectorPositionOffset[SampleRun]</text>
<text text-anchor="start" x="1460.5" y="-90.68" font-family="Times,serif" font-size="11.00">via:</text>
<text text-anchor="start" x="1481.5" y="-90.68" font-family="Times,serif" font-style="italic" font-size="11.00">no_detector_position_offset</text>
</g>
<!-- DetectorPositionOffset[SampleRun]&#45;&gt;EmptyDetector[SampleRun] -->
<g id="edge7" class="edge">
<title>DetectorPositionOffset[SampleRun]:e&#45;&gt;EmptyDetector[SampleRun]:w</title>
<path fill="none" stroke="black" d="M1685,-99.98C1749.87,-99.98 1766.07,-126.11 1825.99,-128.76"/>
<polygon fill="black" stroke="black" points="1825.93,-132.26 1836,-128.98 1826.08,-125.26 1825.93,-132.26"/>
</g>
<!-- NeXusComponent[NXdetector, SampleRun] -->
<g id="node8" class="node">
<title>NeXusComponent[NXdetector, SampleRun]</title>
<polygon fill="none" stroke="black" points="1002,-224.48 832,-224.48 832,-193.48 1002,-193.48 1002,-224.48"/>
<text text-anchor="start" x="840" y="-211.88" font-family="Times,serif" font-size="12.00">[NXdetector, SampleRun]</text>
<text text-anchor="start" x="842" y="-200.68" font-family="Times,serif" font-size="11.00">via:</text>
<text text-anchor="start" x="863" y="-200.68" font-family="Times,serif" font-style="italic" font-size="11.00">load_nexus_component</text>
</g>
<!-- NeXusComponent[NXdetector, SampleRun]&#45;&gt;EmptyDetector[SampleRun] -->
<g id="edge5" class="edge">
<title>NeXusComponent[NXdetector, SampleRun]:e&#45;&gt;EmptyDetector[SampleRun]:w</title>
<path fill="none" stroke="black" d="M1003,-208.98C1041.85,-208.98 1037.14,-170.27 1074,-157.98 1143.68,-134.73 1661.8,-150.16 1735,-143.98 1776.69,-140.45 1788.78,-130.68 1825.97,-129.17"/>
<polygon fill="black" stroke="black" points="1826.07,-132.67 1836,-128.98 1825.93,-125.67 1826.07,-132.67"/>
</g>
<!-- NeXusTransformationChain[NXdetector, SampleRun] -->
<g id="node24" class="node">
<title>NeXusTransformationChain[NXdetector, SampleRun]</title>
<polygon fill="none" stroke="black" points="1266,-229.48 1096,-229.48 1096,-208.48 1266,-208.48 1266,-229.48"/>
<text text-anchor="start" x="1104" y="-215.88" font-family="Times,serif" font-size="12.00">[NXdetector, SampleRun]</text>
</g>
<!-- NeXusComponent[NXdetector, SampleRun]&#45;&gt;NeXusTransformationChain[NXdetector, SampleRun] -->
<g id="edge24" class="edge">
<title>NeXusComponent[NXdetector, SampleRun]:e&#45;&gt;NeXusTransformationChain[NXdetector, SampleRun]:w</title>
<path fill="none" stroke="black" d="M1003,-208.98C1040.43,-208.98 1051.87,-217.26 1084.63,-218.75"/>
<polygon fill="black" stroke="black" points="1084.93,-222.26 1095,-218.98 1085.08,-215.26 1084.93,-222.26"/>
</g>
<!-- NeXusTransformation[NXdetector, SampleRun] -->
<g id="node9" class="node">
<title>NeXusTransformation[NXdetector, SampleRun]</title>
<polygon fill="none" stroke="black" points="1633,-195.48 1463,-195.48 1463,-174.48 1633,-174.48 1633,-195.48"/>
<text text-anchor="start" x="1471" y="-181.88" font-family="Times,serif" font-size="12.00">[NXdetector, SampleRun]</text>
</g>
<!-- NeXusTransformation[NXdetector, SampleRun]&#45;&gt;EmptyDetector[SampleRun] -->
<g id="edge6" class="edge">
<title>NeXusTransformation[NXdetector, SampleRun]:e&#45;&gt;EmptyDetector[SampleRun]:w</title>
<path fill="none" stroke="black" d="M1634,-184.98C1723.71,-184.98 1741.57,-133.06 1825.94,-129.2"/>
<polygon fill="black" stroke="black" points="1826.08,-132.7 1836,-128.98 1825.92,-125.7 1826.08,-132.7"/>
</g>
<!-- Filename[SampleRun] -->
<g id="node10" class="node">
<title>Filename[SampleRun]</title>
<polygon fill="none" stroke="black" points="175,-253.48 0,-253.48 0,-230.48 175,-230.48 175,-253.48"/>
<text text-anchor="middle" x="87.5" y="-238.28" font-family="Times,serif" font-size="14.00">Filename[SampleRun]</text>
</g>
<!-- NeXusFileSpec[SampleRun] -->
<g id="node13" class="node">
<title>NeXusFileSpec[SampleRun]</title>
<polygon fill="none" stroke="black" points="464,-245.48 247,-245.48 247,-212.48 464,-212.48 464,-245.48"/>
<text text-anchor="start" x="255" y="-231.28" font-family="Times,serif" font-size="14.00">NeXusFileSpec[SampleRun]</text>
<text text-anchor="start" x="285.5" y="-219.68" font-family="Times,serif" font-size="11.00">via:</text>
<text text-anchor="start" x="306.5" y="-219.68" font-family="Times,serif" font-style="italic" font-size="11.00">file_path_to_file_spec</text>
</g>
<!-- Filename[SampleRun]&#45;&gt;NeXusFileSpec[SampleRun] -->
<g id="edge22" class="edge">
<title>Filename[SampleRun]:e&#45;&gt;NeXusFileSpec[SampleRun]:w</title>
<path fill="none" stroke="black" d="M175,-241.98C203.83,-241.98 212.58,-231.76 236.86,-229.44"/>
<polygon fill="black" stroke="black" points="237.17,-232.93 247,-228.98 236.85,-225.94 237.17,-232.93"/>
</g>
<!-- NeXusClass[NXdetector] -->
<g id="node11" class="node">
<title>NeXusClass[NXdetector]</title>
<polygon fill="none" stroke="black" points="727,-113.48 569,-113.48 569,-82.48 727,-82.48 727,-113.48"/>
<text text-anchor="start" x="608.5" y="-100.88" font-family="Times,serif" font-size="12.00">[NXdetector]</text>
<text text-anchor="start" x="577" y="-89.68" font-family="Times,serif" font-size="11.00">via:</text>
<text text-anchor="start" x="598" y="-89.68" font-family="Times,serif" font-style="italic" font-size="11.00">nx_class_for_detector</text>
</g>
<!-- NeXusClass[NXdetector]&#45;&gt;NeXusComponent[NXdetector, SampleRun] -->
<g id="edge14" class="edge">
<title>NeXusClass[NXdetector]:e&#45;&gt;NeXusComponent[NXdetector, SampleRun]:w</title>
<path fill="none" stroke="black" d="M728,-97.98C747.88,-97.98 752.98,-104.95 768,-117.98 802.26,-147.69 785.09,-199.96 820.74,-207.94"/>
<polygon fill="black" stroke="black" points="820.7,-211.46 831,-208.98 821.4,-204.49 820.7,-211.46"/>
</g>
<!-- NeXusClass[NXsource] -->
<g id="node12" class="node">
<title>NeXusClass[NXsource]</title>
<polygon fill="none" stroke="black" points="722,-148.48 574,-148.48 574,-117.48 722,-117.48 722,-148.48"/>
<text text-anchor="start" x="613.5" y="-135.88" font-family="Times,serif" font-size="12.00">[NXsource]</text>
<text text-anchor="start" x="582" y="-124.68" font-family="Times,serif" font-size="11.00">via:</text>
<text text-anchor="start" x="603" y="-124.68" font-family="Times,serif" font-style="italic" font-size="11.00">nx_class_for_source</text>
</g>
<!-- NeXusComponent[NXsource, SampleRun] -->
<g id="node19" class="node">
<title>NeXusComponent[NXsource, SampleRun]</title>
<polygon fill="none" stroke="black" points="1000,-259.48 834,-259.48 834,-228.48 1000,-228.48 1000,-259.48"/>
<text text-anchor="start" x="844.5" y="-246.88" font-family="Times,serif" font-size="12.00">[NXsource, SampleRun]</text>
<text text-anchor="start" x="842" y="-235.68" font-family="Times,serif" font-size="11.00">via:</text>
<text text-anchor="start" x="863" y="-235.68" font-family="Times,serif" font-style="italic" font-size="11.00">load_nexus_component</text>
</g>
<!-- NeXusClass[NXsource]&#45;&gt;NeXusComponent[NXsource, SampleRun] -->
<g id="edge17" class="edge">
<title>NeXusClass[NXsource]:e&#45;&gt;NeXusComponent[NXsource, SampleRun]:w</title>
<path fill="none" stroke="black" d="M723,-132.98C788.79,-132.98 766.32,-232.58 822.8,-243.08"/>
<polygon fill="black" stroke="black" points="822.73,-246.59 833,-243.98 823.34,-239.62 822.73,-246.59"/>
</g>
<!-- NeXusComponentLocationSpec[NXdetector, SampleRun] -->
<g id="node14" class="node">
<title>NeXusComponentLocationSpec[NXdetector, SampleRun]</title>
<polygon fill="none" stroke="black" points="740,-227.48 556,-227.48 556,-196.48 740,-196.48 740,-227.48"/>
<text text-anchor="start" x="571" y="-214.88" font-family="Times,serif" font-size="12.00">[NXdetector, SampleRun]</text>
<text text-anchor="start" x="564" y="-203.68" font-family="Times,serif" font-size="11.00">via:</text>
<text text-anchor="start" x="585" y="-203.68" font-family="Times,serif" font-style="italic" font-size="11.00">component_spec_by_name</text>
</g>
<!-- NeXusFileSpec[SampleRun]&#45;&gt;NeXusComponentLocationSpec[NXdetector, SampleRun] -->
<g id="edge9" class="edge">
<title>NeXusFileSpec[SampleRun]:e&#45;&gt;NeXusComponentLocationSpec[NXdetector, SampleRun]:w</title>
<path fill="none" stroke="black" d="M464,-228.98C501.45,-228.98 512.03,-214.9 544.65,-212.36"/>
<polygon fill="black" stroke="black" points="545.14,-215.85 555,-211.98 544.88,-208.85 545.14,-215.85"/>
</g>
<!-- NeXusComponentLocationSpec[NXsample, SampleRun] -->
<g id="node16" class="node">
<title>NeXusComponentLocationSpec[NXsample, SampleRun]</title>
<polygon fill="none" stroke="black" points="734.5,-297.48 561.5,-297.48 561.5,-266.48 734.5,-266.48 734.5,-297.48"/>
<text text-anchor="start" x="574" y="-284.88" font-family="Times,serif" font-size="12.00">[NXsample, SampleRun]</text>
<text text-anchor="start" x="569.5" y="-273.68" font-family="Times,serif" font-size="11.00">via:</text>
<text text-anchor="start" x="590.5" y="-273.68" font-family="Times,serif" font-style="italic" font-size="11.00">unique_component_spec</text>
</g>
<!-- NeXusFileSpec[SampleRun]&#45;&gt;NeXusComponentLocationSpec[NXsample, SampleRun] -->
<g id="edge11" class="edge">
<title>NeXusFileSpec[SampleRun]:e&#45;&gt;NeXusComponentLocationSpec[NXsample, SampleRun]:w</title>
<path fill="none" stroke="black" d="M464,-228.98C509.12,-228.98 511.21,-274.4 549.94,-281.15"/>
<polygon fill="black" stroke="black" points="549.75,-284.64 560,-281.98 550.32,-277.67 549.75,-284.64"/>
</g>
<!-- NeXusComponentLocationSpec[NXsource, SampleRun] -->
<g id="node17" class="node">
<title>NeXusComponentLocationSpec[NXsource, SampleRun]</title>
<polygon fill="none" stroke="black" points="734.5,-262.48 561.5,-262.48 561.5,-231.48 734.5,-231.48 734.5,-262.48"/>
<text text-anchor="start" x="575.5" y="-249.88" font-family="Times,serif" font-size="12.00">[NXsource, SampleRun]</text>
<text text-anchor="start" x="569.5" y="-238.68" font-family="Times,serif" font-size="11.00">via:</text>
<text text-anchor="start" x="590.5" y="-238.68" font-family="Times,serif" font-style="italic" font-size="11.00">unique_component_spec</text>
</g>
<!-- NeXusFileSpec[SampleRun]&#45;&gt;NeXusComponentLocationSpec[NXsource, SampleRun] -->
<g id="edge12" class="edge">
<title>NeXusFileSpec[SampleRun]:e&#45;&gt;NeXusComponentLocationSpec[NXsource, SampleRun]:w</title>
<path fill="none" stroke="black" d="M464,-228.98C503.85,-228.98 514.85,-244.15 549.97,-246.63"/>
<polygon fill="black" stroke="black" points="549.89,-250.13 560,-246.98 550.13,-243.14 549.89,-250.13"/>
</g>
<!-- NeXusDataLocationSpec[NXdetector, SampleRun] -->
<g id="node20" class="node">
<title>NeXusDataLocationSpec[NXdetector, SampleRun]</title>
<polygon fill="none" stroke="black" points="1735,-79.48 1361,-79.48 1361,-46.48 1735,-46.48 1735,-79.48"/>
<text text-anchor="start" x="1369" y="-65.28" font-family="Times,serif" font-size="14.00">NeXusDataLocationSpec[NXdetector, SampleRun]</text>
<text text-anchor="start" x="1498" y="-53.68" font-family="Times,serif" font-size="11.00">via:</text>
<text text-anchor="start" x="1519" y="-53.68" font-family="Times,serif" font-style="italic" font-size="11.00">data_by_name</text>
</g>
<!-- NeXusFileSpec[SampleRun]&#45;&gt;NeXusDataLocationSpec[NXdetector, SampleRun] -->
<g id="edge18" class="edge">
<title>NeXusFileSpec[SampleRun]:e&#45;&gt;NeXusDataLocationSpec[NXdetector, SampleRun]:w</title>
<path fill="none" stroke="black" d="M464,-228.98C538.94,-228.98 466.01,-115.09 528,-72.98 564.6,-48.11 1250.31,-61.65 1350.95,-62.89"/>
<polygon fill="black" stroke="black" points="1350.97,-66.39 1361,-62.98 1351.03,-59.39 1350.97,-66.39"/>
</g>
<!-- NeXusComponentLocationSpec[NXdetector, SampleRun]&#45;&gt;NeXusComponent[NXdetector, SampleRun] -->
<g id="edge13" class="edge">
<title>NeXusComponentLocationSpec[NXdetector, SampleRun]:e&#45;&gt;NeXusComponent[NXdetector, SampleRun]:w</title>
<path fill="none" stroke="black" d="M741,-211.98C777.43,-211.98 788.95,-209.49 820.9,-209.05"/>
<polygon fill="black" stroke="black" points="821.02,-212.55 831,-208.98 820.98,-205.55 821.02,-212.55"/>
</g>
<!-- NeXusName[NXdetector] -->
<g id="node15" class="node">
<title>NeXusName[NXdetector]</title>
<polygon fill="none" stroke="black" points="454,-145.48 257,-145.48 257,-122.48 454,-122.48 454,-145.48"/>
<text text-anchor="middle" x="355.5" y="-130.28" font-family="Times,serif" font-size="14.00">NeXusName[NXdetector]</text>
</g>
<!-- NeXusName[NXdetector]&#45;&gt;NeXusComponentLocationSpec[NXdetector, SampleRun] -->
<g id="edge10" class="edge">
<title>NeXusName[NXdetector]:e&#45;&gt;NeXusComponentLocationSpec[NXdetector, SampleRun]:w</title>
<path fill="none" stroke="black" d="M455.5,-133.98C508.07,-133.98 500.18,-202.25 544.96,-211.05"/>
<polygon fill="black" stroke="black" points="544.72,-214.54 555,-211.98 545.37,-207.57 544.72,-214.54"/>
</g>
<!-- NeXusName[NXdetector]&#45;&gt;NeXusDataLocationSpec[NXdetector, SampleRun] -->
<g id="edge19" class="edge">
<title>NeXusName[NXdetector]:e&#45;&gt;NeXusDataLocationSpec[NXdetector, SampleRun]:w</title>
<path fill="none" stroke="black" d="M455.5,-133.98C501.54,-133.98 485.55,-77.82 528,-59.98 839.81,71.05 950.85,-52.94 1289,-59.98 1317.39,-60.57 1326.86,-62.47 1350.97,-62.89"/>
<polygon fill="black" stroke="black" points="1350.97,-66.39 1361,-62.98 1351.03,-59.39 1350.97,-66.39"/>
</g>
<!-- NeXusComponent[NXsample, SampleRun] -->
<g id="node18" class="node">
<title>NeXusComponent[NXsample, SampleRun]</title>
<polygon fill="none" stroke="black" points="999,-294.48 835,-294.48 835,-263.48 999,-263.48 999,-294.48"/>
<text text-anchor="start" x="843" y="-281.88" font-family="Times,serif" font-size="12.00">[NXsample, SampleRun]</text>
<text text-anchor="start" x="852.5" y="-270.68" font-family="Times,serif" font-size="11.00">via:</text>
<text text-anchor="start" x="873.5" y="-270.68" font-family="Times,serif" font-style="italic" font-size="11.00">load_nexus_sample</text>
</g>
<!-- NeXusComponentLocationSpec[NXsample, SampleRun]&#45;&gt;NeXusComponent[NXsample, SampleRun] -->
<g id="edge15" class="edge">
<title>NeXusComponentLocationSpec[NXsample, SampleRun]:e&#45;&gt;NeXusComponent[NXsample, SampleRun]:w</title>
<path fill="none" stroke="black" d="M736,-281.98C776,-281.98 788.42,-279.45 823.9,-279.03"/>
<polygon fill="black" stroke="black" points="824.02,-282.53 834,-278.98 823.98,-275.53 824.02,-282.53"/>
</g>
<!-- NeXusComponentLocationSpec[NXsource, SampleRun]&#45;&gt;NeXusComponent[NXsource, SampleRun] -->
<g id="edge16" class="edge">
<title>NeXusComponentLocationSpec[NXsource, SampleRun]:e&#45;&gt;NeXusComponent[NXsource, SampleRun]:w</title>
<path fill="none" stroke="black" d="M736,-246.98C775.43,-246.98 787.78,-244.47 822.56,-244.04"/>
<polygon fill="black" stroke="black" points="823.02,-247.54 833,-243.98 822.98,-240.54 823.02,-247.54"/>
</g>
<!-- NeXusTransformationChain[NXsample, SampleRun] -->
<g id="node25" class="node">
<title>NeXusTransformationChain[NXsample, SampleRun]</title>
<polygon fill="none" stroke="black" points="1263,-279.48 1099,-279.48 1099,-258.48 1263,-258.48 1263,-279.48"/>
<text text-anchor="start" x="1107" y="-265.88" font-family="Times,serif" font-size="12.00">[NXsample, SampleRun]</text>
</g>
<!-- NeXusComponent[NXsample, SampleRun]&#45;&gt;NeXusTransformationChain[NXsample, SampleRun] -->
<g id="edge25" class="edge">
<title>NeXusComponent[NXsample, SampleRun]:e&#45;&gt;NeXusTransformationChain[NXsample, SampleRun]:w</title>
<path fill="none" stroke="black" d="M1000,-278.98C1040.19,-278.98 1052.28,-270.55 1087.86,-269.17"/>
<polygon fill="black" stroke="black" points="1088.07,-272.67 1098,-268.98 1087.94,-265.67 1088.07,-272.67"/>
</g>
<!-- NeXusTransformationChain[NXsource, SampleRun] -->
<g id="node26" class="node">
<title>NeXusTransformationChain[NXsource, SampleRun]</title>
<polygon fill="none" stroke="black" points="1261.5,-254.48 1100.5,-254.48 1100.5,-233.48 1261.5,-233.48 1261.5,-254.48"/>
<text text-anchor="start" x="1108.5" y="-240.88" font-family="Times,serif" font-size="12.00">[NXsource, SampleRun]</text>
</g>
<!-- NeXusComponent[NXsource, SampleRun]&#45;&gt;NeXusTransformationChain[NXsource, SampleRun] -->
<g id="edge26" class="edge">
<title>NeXusComponent[NXsource, SampleRun]:e&#45;&gt;NeXusTransformationChain[NXsource, SampleRun]:w</title>
<path fill="none" stroke="black" d="M1001,-243.98C1040.98,-243.98 1053.44,-243.98 1088.9,-243.98"/>
<polygon fill="black" stroke="black" points="1089,-247.48 1099,-243.98 1089,-240.48 1089,-247.48"/>
</g>
<!-- NeXusData[NXdetector, SampleRun] -->
<g id="node22" class="node">
<title>NeXusData[NXdetector, SampleRun]</title>
<polygon fill="none" stroke="black" points="2085,-108.48 1807,-108.48 1807,-75.48 2085,-75.48 2085,-108.48"/>
<text text-anchor="start" x="1815" y="-94.28" font-family="Times,serif" font-size="14.00">NeXusData[NXdetector, SampleRun]</text>
<text text-anchor="start" x="1889.5" y="-82.68" font-family="Times,serif" font-size="11.00">via:</text>
<text text-anchor="start" x="1910.5" y="-82.68" font-family="Times,serif" font-style="italic" font-size="11.00">load_nexus_data</text>
</g>
<!-- NeXusDataLocationSpec[NXdetector, SampleRun]&#45;&gt;NeXusData[NXdetector, SampleRun] -->
<g id="edge21" class="edge">
<title>NeXusDataLocationSpec[NXdetector, SampleRun]:e&#45;&gt;NeXusData[NXdetector, SampleRun]:w</title>
<path fill="none" stroke="black" d="M1735,-62.98C1765.72,-62.98 1771.47,-85.98 1796.73,-91.01"/>
<polygon fill="black" stroke="black" points="1796.72,-94.53 1807,-91.98 1797.37,-87.56 1796.72,-94.53"/>
</g>
<!-- TimeInterval[SampleRun] -->
<g id="node21" class="node">
<title>TimeInterval[SampleRun]</title>
<polygon fill="none" stroke="black" points="1281,-191.48 1081,-191.48 1081,-158.48 1281,-158.48 1281,-191.48"/>
<text text-anchor="start" x="1089" y="-177.28" font-family="Times,serif" font-size="14.00">TimeInterval[SampleRun]</text>
<text text-anchor="start" x="1121.5" y="-165.68" font-family="Times,serif" font-size="11.00">via:</text>
<text text-anchor="start" x="1142.5" y="-165.68" font-family="Times,serif" font-style="italic" font-size="11.00">full_time_interval</text>
</g>
<!-- TimeInterval[SampleRun]&#45;&gt;NeXusTransformation[NXdetector, SampleRun] -->
<g id="edge28" class="edge">
<title>TimeInterval[SampleRun]:e&#45;&gt;NeXusTransformation[NXdetector, SampleRun]:w</title>
<path fill="none" stroke="black" d="M1282,-174.98C1358.68,-174.98 1380.07,-184.14 1452,-184.92"/>
<polygon fill="black" stroke="black" points="1451.98,-188.42 1462,-184.98 1452.02,-181.42 1451.98,-188.42"/>
</g>
<!-- TimeInterval[SampleRun]&#45;&gt;NeXusDataLocationSpec[NXdetector, SampleRun] -->
<g id="edge20" class="edge">
<title>TimeInterval[SampleRun]:e&#45;&gt;NeXusDataLocationSpec[NXdetector, SampleRun]:w</title>
<path fill="none" stroke="black" d="M1282,-174.98C1339.23,-174.98 1304.89,-76.13 1351.03,-64.16"/>
<polygon fill="black" stroke="black" points="1351.48,-67.63 1361,-62.98 1350.66,-60.68 1351.48,-67.63"/>
</g>
<!-- NeXusTransformation[NXsample, SampleRun] -->
<g id="node27" class="node">
<title>NeXusTransformation[NXsample, SampleRun]</title>
<polygon fill="none" stroke="black" points="1630,-245.48 1466,-245.48 1466,-224.48 1630,-224.48 1630,-245.48"/>
<text text-anchor="start" x="1474" y="-231.88" font-family="Times,serif" font-size="12.00">[NXsample, SampleRun]</text>
</g>
<!-- TimeInterval[SampleRun]&#45;&gt;NeXusTransformation[NXsample, SampleRun] -->
<g id="edge30" class="edge">
<title>TimeInterval[SampleRun]:e&#45;&gt;NeXusTransformation[NXsample, SampleRun]:w</title>
<path fill="none" stroke="black" d="M1282,-174.98C1322.63,-174.98 1322.57,-207.79 1361,-220.98 1401.67,-234.93 1416.1,-235.06 1454.65,-234.99"/>
<polygon fill="black" stroke="black" points="1455,-238.49 1465,-234.98 1455,-231.49 1455,-238.49"/>
</g>
<!-- NeXusTransformation[NXsource, SampleRun] -->
<g id="node28" class="node">
<title>NeXusTransformation[NXsource, SampleRun]</title>
<polygon fill="none" stroke="black" points="1628.5,-220.48 1467.5,-220.48 1467.5,-199.48 1628.5,-199.48 1628.5,-220.48"/>
<text text-anchor="start" x="1475.5" y="-206.88" font-family="Times,serif" font-size="12.00">[NXsource, SampleRun]</text>
</g>
<!-- TimeInterval[SampleRun]&#45;&gt;NeXusTransformation[NXsource, SampleRun] -->
<g id="edge32" class="edge">
<title>TimeInterval[SampleRun]:e&#45;&gt;NeXusTransformation[NXsource, SampleRun]:w</title>
<path fill="none" stroke="black" d="M1282,-174.98C1318.33,-174.98 1325.37,-188.9 1361,-195.98 1403.57,-204.44 1416.88,-209.2 1455.58,-209.89"/>
<polygon fill="black" stroke="black" points="1455.97,-213.39 1466,-209.98 1456.03,-206.39 1455.97,-213.39"/>
</g>
<!-- NeXusData[NXdetector, SampleRun]&#45;&gt;RawDetector[SampleRun] -->
<g id="edge36" class="edge">
<title>NeXusData[NXdetector, SampleRun]:e&#45;&gt;RawDetector[SampleRun]:w</title>
<path fill="none" stroke="black" d="M2085,-91.98C2138.05,-91.98 2153.52,-99.89 2201.87,-100.88"/>
<polygon fill="black" stroke="black" points="2201.97,-104.38 2212,-100.98 2202.04,-97.38 2201.97,-104.38"/>
</g>
<!-- PreopenNeXusFile -->
<g id="node23" class="node">
<title>PreopenNeXusFile</title>
<polygon fill="none" stroke="black" points="162,-226.48 13,-226.48 13,-203.48 162,-203.48 162,-226.48"/>
<text text-anchor="middle" x="87.5" y="-211.28" font-family="Times,serif" font-size="14.00">PreopenNeXusFile</text>
</g>
<!-- PreopenNeXusFile&#45;&gt;NeXusFileSpec[SampleRun] -->
<g id="edge23" class="edge">
<title>PreopenNeXusFile:e&#45;&gt;NeXusFileSpec[SampleRun]:w</title>
<path fill="none" stroke="black" d="M162.5,-214.98C196.85,-214.98 207.02,-226.38 236.64,-228.6"/>
<polygon fill="black" stroke="black" points="236.88,-232.11 247,-228.98 237.13,-225.12 236.88,-232.11"/>
</g>
<!-- NeXusTransformationChain[NXdetector, SampleRun]&#45;&gt;NeXusTransformation[NXdetector, SampleRun] -->
<g id="edge27" class="edge">
<title>NeXusTransformationChain[NXdetector, SampleRun]:e&#45;&gt;NeXusTransformation[NXdetector, SampleRun]:w</title>
<path fill="none" stroke="black" d="M1267,-218.98C1309.62,-218.98 1319.02,-207.33 1361,-199.98 1402.21,-192.76 1414.71,-186.1 1451.96,-185.11"/>
<polygon fill="black" stroke="black" points="1452.05,-188.61 1462,-184.98 1451.96,-181.61 1452.05,-188.61"/>
</g>
<!-- NeXusTransformationChain[NXsample, SampleRun]&#45;&gt;NeXusTransformation[NXsample, SampleRun] -->
<g id="edge29" class="edge">
<title>NeXusTransformationChain[NXsample, SampleRun]:e&#45;&gt;NeXusTransformation[NXsample, SampleRun]:w</title>
<path fill="none" stroke="black" d="M1264,-268.98C1351.15,-268.98 1372.79,-237.52 1454.95,-235.12"/>
<polygon fill="black" stroke="black" points="1455.05,-238.62 1465,-234.98 1454.95,-231.62 1455.05,-238.62"/>
</g>
<!-- NeXusTransformationChain[NXsource, SampleRun]&#45;&gt;NeXusTransformation[NXsource, SampleRun] -->
<g id="edge31" class="edge">
<title>NeXusTransformationChain[NXsource, SampleRun]:e&#45;&gt;NeXusTransformation[NXsource, SampleRun]:w</title>
<path fill="none" stroke="black" d="M1263,-243.98C1307.37,-243.98 1317.25,-232.34 1361,-224.98 1403.86,-217.77 1416.87,-211.1 1455.57,-210.11"/>
<polygon fill="black" stroke="black" points="1456.04,-213.6 1466,-209.98 1455.96,-206.6 1456.04,-213.6"/>
</g>
<!-- NeXusTransformation[NXsample, SampleRun]&#45;&gt;Position[NXsample, SampleRun] -->
<g id="edge33" class="edge">
<title>NeXusTransformation[NXsample, SampleRun]:e&#45;&gt;Position[NXsample, SampleRun]:w</title>
<path fill="none" stroke="black" d="M1631,-234.98C1730.69,-234.98 1758.09,-234.98 1852.98,-234.98"/>
<polygon fill="black" stroke="black" points="1853,-238.48 1863,-234.98 1853,-231.48 1853,-238.48"/>
</g>
<!-- NeXusTransformation[NXsource, SampleRun]&#45;&gt;Position[NXsource, SampleRun] -->
<g id="edge34" class="edge">
<title>NeXusTransformation[NXsource, SampleRun]:e&#45;&gt;Position[NXsource, SampleRun]:w</title>
<path fill="none" stroke="black" d="M1630,-209.98C1730.55,-209.98 1758.19,-209.98 1853.89,-209.98"/>
<polygon fill="black" stroke="black" points="1854,-213.48 1864,-209.98 1854,-206.48 1854,-213.48"/>
</g>
<!-- PulseStrideOffset -->
<g id="node29" class="node">
<title>PulseStrideOffset</title>
<polygon fill="none" stroke="black" points="2385.5,-144.48 2242.5,-144.48 2242.5,-121.48 2385.5,-121.48 2385.5,-144.48"/>
<text text-anchor="middle" x="2314" y="-129.28" font-family="Times,serif" font-size="14.00">PulseStrideOffset</text>
</g>
<!-- PulseStrideOffset&#45;&gt;TofDetector[SampleRun] -->
<g id="edge41" class="edge">
<title>PulseStrideOffset:e&#45;&gt;TofDetector[SampleRun]:w</title>
<path fill="none" stroke="black" d="M2387,-132.98C2453.16,-132.98 2471.48,-118.56 2532.78,-117.1"/>
<polygon fill="black" stroke="black" points="2533.04,-120.59 2543,-116.98 2532.96,-113.6 2533.04,-120.59"/>
</g>
<!-- RawDetector[SampleRun]&#45;&gt;TofDetector[SampleRun] -->
<g id="edge38" class="edge">
<title>RawDetector[SampleRun]:e&#45;&gt;TofDetector[SampleRun]:w</title>
<path fill="none" stroke="black" d="M2416,-100.98C2469.33,-100.98 2484.29,-115.04 2532.82,-116.8"/>
<polygon fill="black" stroke="black" points="2532.94,-120.3 2543,-116.98 2533.06,-113.3 2532.94,-120.3"/>
</g>
<!-- TimeOfFlightLookupTableFilename -->
<g id="node31" class="node">
<title>TimeOfFlightLookupTableFilename</title>
<polygon fill="none" stroke="black" points="2079.5,-71.48 1812.5,-71.48 1812.5,-48.48 2079.5,-48.48 2079.5,-71.48"/>
<text text-anchor="middle" x="1946" y="-56.28" font-family="Times,serif" font-size="14.00">TimeOfFlightLookupTableFilename</text>
</g>
<!-- TimeOfFlightLookupTable -->
<g id="node32" class="node">
<title>TimeOfFlightLookupTable</title>
<polygon fill="none" stroke="black" points="2414.5,-78.48 2213.5,-78.48 2213.5,-45.48 2414.5,-45.48 2414.5,-78.48"/>
<text text-anchor="start" x="2221.5" y="-64.28" font-family="Times,serif" font-size="14.00">TimeOfFlightLookupTable</text>
<text text-anchor="start" x="2243" y="-52.68" font-family="Times,serif" font-size="11.00">via:</text>
<text text-anchor="start" x="2264" y="-52.68" font-family="Times,serif" font-style="italic" font-size="11.00">load_tof_lookup_table</text>
</g>
<!-- TimeOfFlightLookupTableFilename&#45;&gt;TimeOfFlightLookupTable -->
<g id="edge37" class="edge">
<title>TimeOfFlightLookupTableFilename:e&#45;&gt;TimeOfFlightLookupTable:w</title>
<path fill="none" stroke="black" d="M2081,-59.98C2135.7,-59.98 2151.85,-61.74 2201.88,-61.96"/>
<polygon fill="black" stroke="black" points="2201.99,-65.46 2212,-61.98 2202.01,-58.46 2201.99,-65.46"/>
</g>
<!-- TimeOfFlightLookupTable&#45;&gt;TofDetector[SampleRun] -->
<g id="edge39" class="edge">
<title>TimeOfFlightLookupTable:e&#45;&gt;TofDetector[SampleRun]:w</title>
<path fill="none" stroke="black" d="M2416,-61.98C2473.91,-61.98 2480.83,-110.72 2532.76,-116.43"/>
<polygon fill="black" stroke="black" points="2532.83,-119.94 2543,-116.98 2533.2,-112.95 2532.83,-119.94"/>
</g>
</g>
</svg>
