<?xml version="1.0" encoding="utf-8" standalone="no"?>
<!DOCTYPE svg PUBLIC "-//W3C//DTD SVG 1.1//EN"
  "http://www.w3.org/Graphics/SVG/1.1/DTD/svg11.dtd">
<svg xmlns:xlink="http://www.w3.org/1999/xlink" width="872.39952pt" height="296.39952pt" viewBox="0 0 872.39952 296.39952" xmlns="http://www.w3.org/2000/svg" version="1.1">
 <metadata>
  <rdf:RDF xmlns:dc="http://purl.org/dc/elements/1.1/" xmlns:cc="http://creativecommons.org/ns#" xmlns:rdf="http://www.w3.org/1999/02/22-rdf-syntax-ns#">
   <cc:Work>
    <dc:type rdf:resource="http://purl.org/dc/dcmitype/StillImage"/>
    <dc:date>2025-09-04T13:39:12.549153</dc:date>
    <dc:format>image/svg+xml</dc:format>
    <dc:creator>
     <cc:Agent>
      <dc:title>Matplotlib v3.10.5, https://matplotlib.org/</dc:title>
     </cc:Agent>
    </dc:creator>
   </cc:Work>
  </rdf:RDF>
 </metadata>
 <defs>
  <style type="text/css">*{stroke-linejoin: round; stroke-linecap: butt}</style>
 </defs>
 <g id="figure_1">
  <g id="patch_1">
   <path d="M 0 296.39952 
L 872.39952 296.39952 
L 872.39952 0 
L 0 0 
z
" style="fill: #ffffff"/>
  </g>
  <g id="axes_1">
   <g id="patch_2">
    <path d="M 53.328125 257.158895 
L 431.87976 257.158895 
L 431.87976 7.2 
L 53.328125 7.2 
z
" style="fill: #ffffff"/>
   </g>
   <g id="matplotlib.axis_1">
    <g id="xtick_1">
     <g id="line2d_1">
      <defs>
       <path id="ma1c54c7a3c" d="M 0 0 
L 0 3.5 
" style="stroke: #000000; stroke-width: 0.8"/>
      </defs>
      <g>
       <use xlink:href="#ma1c54c7a3c" x="78.352498" y="257.158895" style="stroke: #000000; stroke-width: 0.8"/>
      </g>
     </g>
     <g id="text_1">
      <!-- 1 -->
      <g transform="translate(75.171248 271.757332) scale(0.1 -0.1)">
       <defs>
        <path id="DejaVuSans-31" d="M 794 531 
L 1825 531 
L 1825 4091 
L 703 3866 
L 703 4441 
L 1819 4666 
L 2450 4666 
L 2450 531 
L 3481 531 
L 3481 0 
L 794 0 
L 794 531 
z
" transform="scale(0.015625)"/>
       </defs>
       <use xlink:href="#DejaVuSans-31"/>
      </g>
     </g>
    </g>
    <g id="xtick_2">
     <g id="line2d_2">
      <g>
       <use xlink:href="#ma1c54c7a3c" x="131.153533" y="257.158895" style="stroke: #000000; stroke-width: 0.8"/>
      </g>
     </g>
     <g id="text_2">
      <!-- 2 -->
      <g transform="translate(127.972283 271.757332) scale(0.1 -0.1)">
       <defs>
        <path id="DejaVuSans-32" d="M 1228 531 
L 3431 531 
L 3431 0 
L 469 0 
L 469 531 
Q 828 903 1448 1529 
Q 2069 2156 2228 2338 
Q 2531 2678 2651 2914 
Q 2772 3150 2772 3378 
Q 2772 3750 2511 3984 
Q 2250 4219 1831 4219 
Q 1534 4219 1204 4116 
Q 875 4013 500 3803 
L 500 4441 
Q 881 4594 1212 4672 
Q 1544 4750 1819 4750 
Q 2544 4750 2975 4387 
Q 3406 4025 3406 3419 
Q 3406 3131 3298 2873 
Q 3191 2616 2906 2266 
Q 2828 2175 2409 1742 
Q 1991 1309 1228 531 
z
" transform="scale(0.015625)"/>
       </defs>
       <use xlink:href="#DejaVuSans-32"/>
      </g>
     </g>
    </g>
    <g id="xtick_3">
     <g id="line2d_3">
      <g>
       <use xlink:href="#ma1c54c7a3c" x="183.954569" y="257.158895" style="stroke: #000000; stroke-width: 0.8"/>
      </g>
     </g>
     <g id="text_3">
      <!-- 3 -->
      <g transform="translate(180.773319 271.757332) scale(0.1 -0.1)">
       <defs>
        <path id="DejaVuSans-33" d="M 2597 2516 
Q 3050 2419 3304 2112 
Q 3559 1806 3559 1356 
Q 3559 666 3084 287 
Q 2609 -91 1734 -91 
Q 1441 -91 1130 -33 
Q 819 25 488 141 
L 488 750 
Q 750 597 1062 519 
Q 1375 441 1716 441 
Q 2309 441 2620 675 
Q 2931 909 2931 1356 
Q 2931 1769 2642 2001 
Q 2353 2234 1838 2234 
L 1294 2234 
L 1294 2753 
L 1863 2753 
Q 2328 2753 2575 2939 
Q 2822 3125 2822 3475 
Q 2822 3834 2567 4026 
Q 2313 4219 1838 4219 
Q 1578 4219 1281 4162 
Q 984 4106 628 3988 
L 628 4550 
Q 988 4650 1302 4700 
Q 1616 4750 1894 4750 
Q 2613 4750 3031 4423 
Q 3450 4097 3450 3541 
Q 3450 3153 3228 2886 
Q 3006 2619 2597 2516 
z
" transform="scale(0.015625)"/>
       </defs>
       <use xlink:href="#DejaVuSans-33"/>
      </g>
     </g>
    </g>
    <g id="xtick_4">
     <g id="line2d_4">
      <g>
       <use xlink:href="#ma1c54c7a3c" x="236.755605" y="257.158895" style="stroke: #000000; stroke-width: 0.8"/>
      </g>
     </g>
     <g id="text_4">
      <!-- 4 -->
      <g transform="translate(233.574355 271.757332) scale(0.1 -0.1)">
       <defs>
        <path id="DejaVuSans-34" d="M 2419 4116 
L 825 1625 
L 2419 1625 
L 2419 4116 
z
M 2253 4666 
L 3047 4666 
L 3047 1625 
L 3713 1625 
L 3713 1100 
L 3047 1100 
L 3047 0 
L 2419 0 
L 2419 1100 
L 313 1100 
L 313 1709 
L 2253 4666 
z
" transform="scale(0.015625)"/>
       </defs>
       <use xlink:href="#DejaVuSans-34"/>
      </g>
     </g>
    </g>
    <g id="xtick_5">
     <g id="line2d_5">
      <g>
       <use xlink:href="#ma1c54c7a3c" x="289.55664" y="257.158895" style="stroke: #000000; stroke-width: 0.8"/>
      </g>
     </g>
     <g id="text_5">
      <!-- 5 -->
      <g transform="translate(286.37539 271.757332) scale(0.1 -0.1)">
       <defs>
        <path id="DejaVuSans-35" d="M 691 4666 
L 3169 4666 
L 3169 4134 
L 1269 4134 
L 1269 2991 
Q 1406 3038 1543 3061 
Q 1681 3084 1819 3084 
Q 2600 3084 3056 2656 
Q 3513 2228 3513 1497 
Q 3513 744 3044 326 
Q 2575 -91 1722 -91 
Q 1428 -91 1123 -41 
Q 819 9 494 109 
L 494 744 
Q 775 591 1075 516 
Q 1375 441 1709 441 
Q 2250 441 2565 725 
Q 2881 1009 2881 1497 
Q 2881 1984 2565 2268 
Q 2250 2553 1709 2553 
Q 1456 2553 1204 2497 
Q 953 2441 691 2322 
L 691 4666 
z
" transform="scale(0.015625)"/>
       </defs>
       <use xlink:href="#DejaVuSans-35"/>
      </g>
     </g>
    </g>
    <g id="xtick_6">
     <g id="line2d_6">
      <g>
       <use xlink:href="#ma1c54c7a3c" x="342.357676" y="257.158895" style="stroke: #000000; stroke-width: 0.8"/>
      </g>
     </g>
     <g id="text_6">
      <!-- 6 -->
      <g transform="translate(339.176426 271.757332) scale(0.1 -0.1)">
       <defs>
        <path id="DejaVuSans-36" d="M 2113 2584 
Q 1688 2584 1439 2293 
Q 1191 2003 1191 1497 
Q 1191 994 1439 701 
Q 1688 409 2113 409 
Q 2538 409 2786 701 
Q 3034 994 3034 1497 
Q 3034 2003 2786 2293 
Q 2538 2584 2113 2584 
z
M 3366 4563 
L 3366 3988 
Q 3128 4100 2886 4159 
Q 2644 4219 2406 4219 
Q 1781 4219 1451 3797 
Q 1122 3375 1075 2522 
Q 1259 2794 1537 2939 
Q 1816 3084 2150 3084 
Q 2853 3084 3261 2657 
Q 3669 2231 3669 1497 
Q 3669 778 3244 343 
Q 2819 -91 2113 -91 
Q 1303 -91 875 529 
Q 447 1150 447 2328 
Q 447 3434 972 4092 
Q 1497 4750 2381 4750 
Q 2619 4750 2861 4703 
Q 3103 4656 3366 4563 
z
" transform="scale(0.015625)"/>
       </defs>
       <use xlink:href="#DejaVuSans-36"/>
      </g>
     </g>
    </g>
    <g id="xtick_7">
     <g id="line2d_7">
      <g>
       <use xlink:href="#ma1c54c7a3c" x="395.158712" y="257.158895" style="stroke: #000000; stroke-width: 0.8"/>
      </g>
     </g>
     <g id="text_7">
      <!-- 7 -->
      <g transform="translate(391.977462 271.757332) scale(0.1 -0.1)">
       <defs>
        <path id="DejaVuSans-37" d="M 525 4666 
L 3525 4666 
L 3525 4397 
L 1831 0 
L 1172 0 
L 2766 4134 
L 525 4134 
L 525 4666 
z
" transform="scale(0.015625)"/>
       </defs>
       <use xlink:href="#DejaVuSans-37"/>
      </g>
     </g>
    </g>
    <g id="text_8">
     <!-- tof [ns] -->
     <g transform="translate(224.560192 285.435457) scale(0.1 -0.1)">
      <defs>
       <path id="DejaVuSans-74" d="M 1172 4494 
L 1172 3500 
L 2356 3500 
L 2356 3053 
L 1172 3053 
L 1172 1153 
Q 1172 725 1289 603 
Q 1406 481 1766 481 
L 2356 481 
L 2356 0 
L 1766 0 
Q 1100 0 847 248 
Q 594 497 594 1153 
L 594 3053 
L 172 3053 
L 172 3500 
L 594 3500 
L 594 4494 
L 1172 4494 
z
" transform="scale(0.015625)"/>
       <path id="DejaVuSans-6f" d="M 1959 3097 
Q 1497 3097 1228 2736 
Q 959 2375 959 1747 
Q 959 1119 1226 758 
Q 1494 397 1959 397 
Q 2419 397 2687 759 
Q 2956 1122 2956 1747 
Q 2956 2369 2687 2733 
Q 2419 3097 1959 3097 
z
M 1959 3584 
Q 2709 3584 3137 3096 
Q 3566 2609 3566 1747 
Q 3566 888 3137 398 
Q 2709 -91 1959 -91 
Q 1206 -91 779 398 
Q 353 888 353 1747 
Q 353 2609 779 3096 
Q 1206 3584 1959 3584 
z
" transform="scale(0.015625)"/>
       <path id="DejaVuSans-66" d="M 2375 4863 
L 2375 4384 
L 1825 4384 
Q 1516 4384 1395 4259 
Q 1275 4134 1275 3809 
L 1275 3500 
L 2222 3500 
L 2222 3053 
L 1275 3053 
L 1275 0 
L 697 0 
L 697 3053 
L 147 3053 
L 147 3500 
L 697 3500 
L 697 3744 
Q 697 4328 969 4595 
Q 1241 4863 1831 4863 
L 2375 4863 
z
" transform="scale(0.015625)"/>
       <path id="DejaVuSans-20" transform="scale(0.015625)"/>
       <path id="DejaVuSans-5b" d="M 550 4863 
L 1875 4863 
L 1875 4416 
L 1125 4416 
L 1125 -397 
L 1875 -397 
L 1875 -844 
L 550 -844 
L 550 4863 
z
" transform="scale(0.015625)"/>
       <path id="DejaVuSans-6e" d="M 3513 2113 
L 3513 0 
L 2938 0 
L 2938 2094 
Q 2938 2591 2744 2837 
Q 2550 3084 2163 3084 
Q 1697 3084 1428 2787 
Q 1159 2491 1159 1978 
L 1159 0 
L 581 0 
L 581 3500 
L 1159 3500 
L 1159 2956 
Q 1366 3272 1645 3428 
Q 1925 3584 2291 3584 
Q 2894 3584 3203 3211 
Q 3513 2838 3513 2113 
z
" transform="scale(0.015625)"/>
       <path id="DejaVuSans-73" d="M 2834 3397 
L 2834 2853 
Q 2591 2978 2328 3040 
Q 2066 3103 1784 3103 
Q 1356 3103 1142 2972 
Q 928 2841 928 2578 
Q 928 2378 1081 2264 
Q 1234 2150 1697 2047 
L 1894 2003 
Q 2506 1872 2764 1633 
Q 3022 1394 3022 966 
Q 3022 478 2636 193 
Q 2250 -91 1575 -91 
Q 1294 -91 989 -36 
Q 684 19 347 128 
L 347 722 
Q 666 556 975 473 
Q 1284 391 1588 391 
Q 1994 391 2212 530 
Q 2431 669 2431 922 
Q 2431 1156 2273 1281 
Q 2116 1406 1581 1522 
L 1381 1569 
Q 847 1681 609 1914 
Q 372 2147 372 2553 
Q 372 3047 722 3315 
Q 1072 3584 1716 3584 
Q 2034 3584 2315 3537 
Q 2597 3491 2834 3397 
z
" transform="scale(0.015625)"/>
       <path id="DejaVuSans-5d" d="M 1947 4863 
L 1947 -844 
L 622 -844 
L 622 -397 
L 1369 -397 
L 1369 4416 
L 622 4416 
L 622 4863 
L 1947 4863 
z
" transform="scale(0.015625)"/>
      </defs>
      <use xlink:href="#DejaVuSans-74"/>
      <use xlink:href="#DejaVuSans-6f" transform="translate(39.208984 0)"/>
      <use xlink:href="#DejaVuSans-66" transform="translate(100.390625 0)"/>
      <use xlink:href="#DejaVuSans-20" transform="translate(135.595703 0)"/>
      <use xlink:href="#DejaVuSans-5b" transform="translate(167.382812 0)"/>
      <use xlink:href="#DejaVuSans-6e" transform="translate(206.396484 0)"/>
      <use xlink:href="#DejaVuSans-73" transform="translate(269.775391 0)"/>
      <use xlink:href="#DejaVuSans-5d" transform="translate(321.875 0)"/>
     </g>
    </g>
    <g id="text_9">
     <!-- 1e7 -->
     <g transform="translate(413.001635 284.435457) scale(0.1 -0.1)">
      <defs>
       <path id="DejaVuSans-65" d="M 3597 1894 
L 3597 1613 
L 953 1613 
Q 991 1019 1311 708 
Q 1631 397 2203 397 
Q 2534 397 2845 478 
Q 3156 559 3463 722 
L 3463 178 
Q 3153 47 2828 -22 
Q 2503 -91 2169 -91 
Q 1331 -91 842 396 
Q 353 884 353 1716 
Q 353 2575 817 3079 
Q 1281 3584 2069 3584 
Q 2775 3584 3186 3129 
Q 3597 2675 3597 1894 
z
M 3022 2063 
Q 3016 2534 2758 2815 
Q 2500 3097 2075 3097 
Q 1594 3097 1305 2825 
Q 1016 2553 972 2059 
L 3022 2063 
z
" transform="scale(0.015625)"/>
      </defs>
      <use xlink:href="#DejaVuSans-31"/>
      <use xlink:href="#DejaVuSans-65" transform="translate(63.623047 0)"/>
      <use xlink:href="#DejaVuSans-37" transform="translate(125.146484 0)"/>
     </g>
    </g>
   </g>
   <g id="matplotlib.axis_2">
    <g id="ytick_1">
     <g id="line2d_8">
      <defs>
       <path id="m3b1de947de" d="M 0 0 
L -3.5 0 
" style="stroke: #000000; stroke-width: 0.8"/>
      </defs>
      <g>
       <use xlink:href="#m3b1de947de" x="53.328125" y="234.888211" style="stroke: #000000; stroke-width: 0.8"/>
      </g>
     </g>
     <g id="text_10">
      <!-- 1000 -->
      <g transform="translate(20.878125 238.687429) scale(0.1 -0.1)">
       <defs>
        <path id="DejaVuSans-30" d="M 2034 4250 
Q 1547 4250 1301 3770 
Q 1056 3291 1056 2328 
Q 1056 1369 1301 889 
Q 1547 409 2034 409 
Q 2525 409 2770 889 
Q 3016 1369 3016 2328 
Q 3016 3291 2770 3770 
Q 2525 4250 2034 4250 
z
M 2034 4750 
Q 2819 4750 3233 4129 
Q 3647 3509 3647 2328 
Q 3647 1150 3233 529 
Q 2819 -91 2034 -91 
Q 1250 -91 836 529 
Q 422 1150 422 2328 
Q 422 3509 836 4129 
Q 1250 4750 2034 4750 
z
" transform="scale(0.015625)"/>
       </defs>
       <use xlink:href="#DejaVuSans-31"/>
       <use xlink:href="#DejaVuSans-30" transform="translate(63.623047 0)"/>
       <use xlink:href="#DejaVuSans-30" transform="translate(127.246094 0)"/>
       <use xlink:href="#DejaVuSans-30" transform="translate(190.869141 0)"/>
      </g>
     </g>
    </g>
    <g id="ytick_2">
     <g id="line2d_9">
      <g>
       <use xlink:href="#m3b1de947de" x="53.328125" y="200.329646" style="stroke: #000000; stroke-width: 0.8"/>
      </g>
     </g>
     <g id="text_11">
      <!-- 2000 -->
      <g transform="translate(20.878125 204.128864) scale(0.1 -0.1)">
       <use xlink:href="#DejaVuSans-32"/>
       <use xlink:href="#DejaVuSans-30" transform="translate(63.623047 0)"/>
       <use xlink:href="#DejaVuSans-30" transform="translate(127.246094 0)"/>
       <use xlink:href="#DejaVuSans-30" transform="translate(190.869141 0)"/>
      </g>
     </g>
    </g>
    <g id="ytick_3">
     <g id="line2d_10">
      <g>
       <use xlink:href="#m3b1de947de" x="53.328125" y="165.771081" style="stroke: #000000; stroke-width: 0.8"/>
      </g>
     </g>
     <g id="text_12">
      <!-- 3000 -->
      <g transform="translate(20.878125 169.5703) scale(0.1 -0.1)">
       <use xlink:href="#DejaVuSans-33"/>
       <use xlink:href="#DejaVuSans-30" transform="translate(63.623047 0)"/>
       <use xlink:href="#DejaVuSans-30" transform="translate(127.246094 0)"/>
       <use xlink:href="#DejaVuSans-30" transform="translate(190.869141 0)"/>
      </g>
     </g>
    </g>
    <g id="ytick_4">
     <g id="line2d_11">
      <g>
       <use xlink:href="#m3b1de947de" x="53.328125" y="131.212516" style="stroke: #000000; stroke-width: 0.8"/>
      </g>
     </g>
     <g id="text_13">
      <!-- 4000 -->
      <g transform="translate(20.878125 135.011735) scale(0.1 -0.1)">
       <use xlink:href="#DejaVuSans-34"/>
       <use xlink:href="#DejaVuSans-30" transform="translate(63.623047 0)"/>
       <use xlink:href="#DejaVuSans-30" transform="translate(127.246094 0)"/>
       <use xlink:href="#DejaVuSans-30" transform="translate(190.869141 0)"/>
      </g>
     </g>
    </g>
    <g id="ytick_5">
     <g id="line2d_12">
      <g>
       <use xlink:href="#m3b1de947de" x="53.328125" y="96.653951" style="stroke: #000000; stroke-width: 0.8"/>
      </g>
     </g>
     <g id="text_14">
      <!-- 5000 -->
      <g transform="translate(20.878125 100.45317) scale(0.1 -0.1)">
       <use xlink:href="#DejaVuSans-35"/>
       <use xlink:href="#DejaVuSans-30" transform="translate(63.623047 0)"/>
       <use xlink:href="#DejaVuSans-30" transform="translate(127.246094 0)"/>
       <use xlink:href="#DejaVuSans-30" transform="translate(190.869141 0)"/>
      </g>
     </g>
    </g>
    <g id="ytick_6">
     <g id="line2d_13">
      <g>
       <use xlink:href="#m3b1de947de" x="53.328125" y="62.095386" style="stroke: #000000; stroke-width: 0.8"/>
      </g>
     </g>
     <g id="text_15">
      <!-- 6000 -->
      <g transform="translate(20.878125 65.894605) scale(0.1 -0.1)">
       <use xlink:href="#DejaVuSans-36"/>
       <use xlink:href="#DejaVuSans-30" transform="translate(63.623047 0)"/>
       <use xlink:href="#DejaVuSans-30" transform="translate(127.246094 0)"/>
       <use xlink:href="#DejaVuSans-30" transform="translate(190.869141 0)"/>
      </g>
     </g>
    </g>
    <g id="ytick_7">
     <g id="line2d_14">
      <g>
       <use xlink:href="#m3b1de947de" x="53.328125" y="27.536821" style="stroke: #000000; stroke-width: 0.8"/>
      </g>
     </g>
     <g id="text_16">
      <!-- 7000 -->
      <g transform="translate(20.878125 31.33604) scale(0.1 -0.1)">
       <use xlink:href="#DejaVuSans-37"/>
       <use xlink:href="#DejaVuSans-30" transform="translate(63.623047 0)"/>
       <use xlink:href="#DejaVuSans-30" transform="translate(127.246094 0)"/>
       <use xlink:href="#DejaVuSans-30" transform="translate(190.869141 0)"/>
      </g>
     </g>
    </g>
    <g id="text_17">
     <!-- [counts] -->
     <g transform="translate(14.798438 152.791947) rotate(-90) scale(0.1 -0.1)">
      <defs>
       <path id="DejaVuSans-63" d="M 3122 3366 
L 3122 2828 
Q 2878 2963 2633 3030 
Q 2388 3097 2138 3097 
Q 1578 3097 1268 2742 
Q 959 2388 959 1747 
Q 959 1106 1268 751 
Q 1578 397 2138 397 
Q 2388 397 2633 464 
Q 2878 531 3122 666 
L 3122 134 
Q 2881 22 2623 -34 
Q 2366 -91 2075 -91 
Q 1284 -91 818 406 
Q 353 903 353 1747 
Q 353 2603 823 3093 
Q 1294 3584 2113 3584 
Q 2378 3584 2631 3529 
Q 2884 3475 3122 3366 
z
" transform="scale(0.015625)"/>
       <path id="DejaVuSans-75" d="M 544 1381 
L 544 3500 
L 1119 3500 
L 1119 1403 
Q 1119 906 1312 657 
Q 1506 409 1894 409 
Q 2359 409 2629 706 
Q 2900 1003 2900 1516 
L 2900 3500 
L 3475 3500 
L 3475 0 
L 2900 0 
L 2900 538 
Q 2691 219 2414 64 
Q 2138 -91 1772 -91 
Q 1169 -91 856 284 
Q 544 659 544 1381 
z
M 1991 3584 
L 1991 3584 
z
" transform="scale(0.015625)"/>
      </defs>
      <use xlink:href="#DejaVuSans-5b"/>
      <use xlink:href="#DejaVuSans-63" transform="translate(39.013672 0)"/>
      <use xlink:href="#DejaVuSans-6f" transform="translate(93.994141 0)"/>
      <use xlink:href="#DejaVuSans-75" transform="translate(155.175781 0)"/>
      <use xlink:href="#DejaVuSans-6e" transform="translate(218.554688 0)"/>
      <use xlink:href="#DejaVuSans-74" transform="translate(281.933594 0)"/>
      <use xlink:href="#DejaVuSans-73" transform="translate(321.142578 0)"/>
      <use xlink:href="#DejaVuSans-5d" transform="translate(373.242188 0)"/>
     </g>
    </g>
   </g>
   <g id="line2d_15">
    <path d="M 70.535017 129.41547 
L 73.976396 129.41547 
L 73.976396 149.459438 
L 77.417774 149.459438 
L 77.417774 139.54113 
L 80.859153 139.54113 
L 80.859153 156.440268 
L 84.300531 156.440268 
L 84.300531 174.099695 
L 87.74191 174.099695 
L 87.74191 165.736522 
L 91.183288 165.736522 
L 91.183288 151.083691 
L 94.624667 151.083691 
L 94.624667 164.734324 
L 98.066045 164.734324 
L 98.066045 148.388123 
L 101.507424 148.388123 
L 101.507424 160.48362 
L 104.948802 160.48362 
L 104.948802 156.993205 
L 108.390181 156.993205 
L 108.390181 157.615259 
L 111.831559 157.615259 
L 111.831559 158.652016 
L 115.272938 158.652016 
L 115.272938 163.663008 
L 118.714316 163.663008 
L 118.714316 125.130208 
L 122.155695 125.130208 
L 122.155695 151.913096 
L 125.597073 151.913096 
L 125.597073 145.969023 
L 129.038452 145.969023 
L 129.038452 151.636628 
L 132.47983 151.636628 
L 132.47983 151.843979 
L 135.921209 151.843979 
L 135.921209 138.919076 
L 139.362587 138.919076 
L 139.362587 163.040954 
L 142.803966 163.040954 
L 142.803966 160.207152 
L 146.245344 160.207152 
L 146.245344 162.453459 
L 149.686723 162.453459 
L 149.686723 156.578503 
L 153.128101 156.578503 
L 153.128101 162.764486 
L 156.56948 162.764486 
L 156.56948 161.796846 
L 160.010858 161.796846 
L 160.010858 173.339407 
L 163.452237 173.339407 
L 163.452237 161.762287 
L 166.893615 161.762287 
L 166.893615 164.768882 
L 170.334994 164.768882 
L 170.334994 145.623437 
L 173.776372 145.623437 
L 173.776372 164.561531 
L 177.217751 164.561531 
L 177.217751 175.309245 
L 180.659129 175.309245 
L 180.659129 149.66679 
L 184.100508 149.66679 
L 184.100508 160.207152 
L 187.541886 160.207152 
L 187.541886 158.375548 
L 190.983265 158.375548 
L 190.983265 170.816631 
L 194.424643 170.816631 
L 194.424643 153.779259 
L 197.866022 153.779259 
L 197.866022 139.29922 
L 201.3074 139.29922 
L 201.3074 185.711373 
L 204.748779 185.711373 
L 204.748779 192.03559 
L 208.190157 192.03559 
L 208.190157 142.167581 
L 211.631536 142.167581 
L 211.631536 171.162217 
L 215.072914 171.162217 
L 215.072914 148.21533 
L 218.514293 148.21533 
L 218.514293 179.456273 
L 221.955671 179.456273 
L 221.955671 157.442467 
L 225.39705 157.442467 
L 225.39705 165.840198 
L 228.838428 165.840198 
L 228.838428 175.793065 
L 232.279807 175.793065 
L 232.279807 175.205569 
L 235.721185 175.205569 
L 235.721185 171.887947 
L 239.162564 171.887947 
L 239.162564 129.242678 
L 242.603942 129.242678 
L 242.603942 154.539547 
L 246.045321 154.539547 
L 246.045321 162.142431 
L 249.486699 162.142431 
L 249.486699 158.340989 
L 252.928078 158.340989 
L 252.928078 190.10031 
L 256.369456 190.10031 
L 256.369456 179.076128 
L 259.810835 179.076128 
L 259.810835 143.515365 
L 263.252213 143.515365 
L 263.252213 149.839582 
L 266.693592 149.839582 
L 266.693592 198.083339 
L 270.13497 198.083339 
L 270.13497 146.76387 
L 273.576349 146.76387 
L 273.576349 178.246723 
L 277.017727 178.246723 
L 277.017727 155.265277 
L 280.459106 155.265277 
L 280.459106 151.843979 
L 283.900484 151.843979 
L 283.900484 153.191763 
L 287.341863 153.191763 
L 287.341863 153.7447 
L 290.783241 153.7447 
L 290.783241 131.177957 
L 294.22462 131.177957 
L 294.22462 197.910546 
L 297.665998 197.910546 
L 297.665998 229.151489 
L 301.107377 229.151489 
L 301.107377 107.98916 
L 304.548755 107.98916 
L 304.548755 176.104092 
L 307.990134 176.104092 
L 307.990134 174.479839 
L 311.431512 174.479839 
L 311.431512 177.175407 
L 314.872891 177.175407 
L 314.872891 156.1638 
L 318.314269 156.1638 
L 318.314269 220.269938 
L 321.755648 220.269938 
L 321.755648 54.04324 
L 325.197026 54.04324 
L 325.197026 211.146477 
L 328.638405 211.146477 
L 328.638405 174.168812 
L 332.079783 174.168812 
L 332.079783 189.374581 
L 335.521162 189.374581 
L 335.521162 65.516684 
L 338.96254 65.516684 
L 338.96254 162.17699 
L 342.403919 162.17699 
L 342.403919 154.988809 
L 345.845297 154.988809 
L 345.845297 191.862797 
L 349.286676 191.862797 
L 349.286676 244.875636 
L 352.728054 244.875636 
L 352.728054 93.681914 
L 356.169433 93.681914 
L 356.169433 194.45469 
L 359.610811 194.45469 
L 359.610811 208.831053 
L 363.05219 208.831053 
L 363.05219 21.489072 
L 366.493568 21.489072 
L 366.493568 217.608928 
L 369.934947 217.608928 
L 369.934947 165.321819 
L 373.376325 165.321819 
L 373.376325 182.87757 
L 376.817704 182.87757 
L 376.817704 158.444665 
L 380.259082 158.444665 
L 380.259082 196.493645 
L 383.700461 196.493645 
L 383.700461 175.793065 
L 387.141839 175.793065 
L 387.141839 194.834834 
L 390.583218 194.834834 
L 390.583218 201.262727 
L 394.024596 201.262727 
L 394.024596 103.980367 
L 397.465975 103.980367 
L 397.465975 136.188949 
L 400.907353 136.188949 
L 400.907353 75.642343 
L 404.348732 75.642343 
L 404.348732 173.996019 
L 407.79011 173.996019 
L 407.79011 163.213747 
L 411.231489 163.213747 
L 411.231489 154.297637 
L 414.672867 154.297637 
L 414.672867 154.297637 
" clip-path="url(#p7f8d382da3)" style="fill: none; stroke: #1f77b4; stroke-width: 1.5; stroke-linecap: square"/>
   </g>
   <g id="LineCollection_1">
    <path d="M 72.255707 131.615307 
L 72.255707 127.215634 
" clip-path="url(#p7f8d382da3)" style="fill: none; stroke: #1f77b4; stroke-width: 1.5"/>
    <path d="M 75.697085 151.495756 
L 75.697085 147.42312 
" clip-path="url(#p7f8d382da3)" style="fill: none; stroke: #1f77b4; stroke-width: 1.5"/>
    <path d="M 79.138464 141.659939 
L 79.138464 137.422321 
" clip-path="url(#p7f8d382da3)" style="fill: none; stroke: #1f77b4; stroke-width: 1.5"/>
    <path d="M 82.579842 158.416462 
L 82.579842 154.464074 
" clip-path="url(#p7f8d382da3)" style="fill: none; stroke: #1f77b4; stroke-width: 1.5"/>
    <path d="M 86.021221 175.914924 
L 86.021221 172.284465 
" clip-path="url(#p7f8d382da3)" style="fill: none; stroke: #1f77b4; stroke-width: 1.5"/>
    <path d="M 89.462599 167.629688 
L 89.462599 163.843356 
" clip-path="url(#p7f8d382da3)" style="fill: none; stroke: #1f77b4; stroke-width: 1.5"/>
    <path d="M 92.903978 153.106179 
L 92.903978 149.061203 
" clip-path="url(#p7f8d382da3)" style="fill: none; stroke: #1f77b4; stroke-width: 1.5"/>
    <path d="M 96.345356 166.636615 
L 96.345356 162.832033 
" clip-path="url(#p7f8d382da3)" style="fill: none; stroke: #1f77b4; stroke-width: 1.5"/>
    <path d="M 99.786735 150.433511 
L 99.786735 146.342734 
" clip-path="url(#p7f8d382da3)" style="fill: none; stroke: #1f77b4; stroke-width: 1.5"/>
    <path d="M 103.228113 162.424138 
L 103.228113 158.543102 
" clip-path="url(#p7f8d382da3)" style="fill: none; stroke: #1f77b4; stroke-width: 1.5"/>
    <path d="M 106.669492 158.964559 
L 106.669492 155.021852 
" clip-path="url(#p7f8d382da3)" style="fill: none; stroke: #1f77b4; stroke-width: 1.5"/>
    <path d="M 110.11087 159.581153 
L 110.11087 155.649366 
" clip-path="url(#p7f8d382da3)" style="fill: none; stroke: #1f77b4; stroke-width: 1.5"/>
    <path d="M 113.552249 160.608776 
L 113.552249 156.695257 
" clip-path="url(#p7f8d382da3)" style="fill: none; stroke: #1f77b4; stroke-width: 1.5"/>
    <path d="M 116.993627 165.575006 
L 116.993627 161.751011 
" clip-path="url(#p7f8d382da3)" style="fill: none; stroke: #1f77b4; stroke-width: 1.5"/>
    <path d="M 120.435006 127.363451 
L 120.435006 122.896966 
" clip-path="url(#p7f8d382da3)" style="fill: none; stroke: #1f77b4; stroke-width: 1.5"/>
    <path d="M 123.876384 153.928486 
L 123.876384 149.897707 
" clip-path="url(#p7f8d382da3)" style="fill: none; stroke: #1f77b4; stroke-width: 1.5"/>
    <path d="M 127.317763 148.034747 
L 127.317763 143.903299 
" clip-path="url(#p7f8d382da3)" style="fill: none; stroke: #1f77b4; stroke-width: 1.5"/>
    <path d="M 130.759141 153.654386 
L 130.759141 149.618869 
" clip-path="url(#p7f8d382da3)" style="fill: none; stroke: #1f77b4; stroke-width: 1.5"/>
    <path d="M 134.20052 153.859961 
L 134.20052 149.827997 
" clip-path="url(#p7f8d382da3)" style="fill: none; stroke: #1f77b4; stroke-width: 1.5"/>
    <path d="M 137.641898 141.042952 
L 137.641898 136.7952 
" clip-path="url(#p7f8d382da3)" style="fill: none; stroke: #1f77b4; stroke-width: 1.5"/>
    <path d="M 141.083277 164.958565 
L 141.083277 161.123343 
" clip-path="url(#p7f8d382da3)" style="fill: none; stroke: #1f77b4; stroke-width: 1.5"/>
    <path d="M 144.524655 162.15013 
L 144.524655 158.264174 
" clip-path="url(#p7f8d382da3)" style="fill: none; stroke: #1f77b4; stroke-width: 1.5"/>
    <path d="M 147.966034 164.376356 
L 147.966034 160.530561 
" clip-path="url(#p7f8d382da3)" style="fill: none; stroke: #1f77b4; stroke-width: 1.5"/>
    <path d="M 151.407412 158.553488 
L 151.407412 154.603518 
" clip-path="url(#p7f8d382da3)" style="fill: none; stroke: #1f77b4; stroke-width: 1.5"/>
    <path d="M 154.848791 164.684586 
L 154.848791 160.844385 
" clip-path="url(#p7f8d382da3)" style="fill: none; stroke: #1f77b4; stroke-width: 1.5"/>
    <path d="M 158.290169 163.725635 
L 158.290169 159.868057 
" clip-path="url(#p7f8d382da3)" style="fill: none; stroke: #1f77b4; stroke-width: 1.5"/>
    <path d="M 161.731548 175.161859 
L 161.731548 171.516954 
" clip-path="url(#p7f8d382da3)" style="fill: none; stroke: #1f77b4; stroke-width: 1.5"/>
    <path d="M 165.172926 163.691386 
L 165.172926 159.833189 
" clip-path="url(#p7f8d382da3)" style="fill: none; stroke: #1f77b4; stroke-width: 1.5"/>
    <path d="M 168.614305 166.67086 
L 168.614305 162.866905 
" clip-path="url(#p7f8d382da3)" style="fill: none; stroke: #1f77b4; stroke-width: 1.5"/>
    <path d="M 172.055683 147.69205 
L 172.055683 143.554825 
" clip-path="url(#p7f8d382da3)" style="fill: none; stroke: #1f77b4; stroke-width: 1.5"/>
    <path d="M 175.497062 166.465391 
L 175.497062 162.657671 
" clip-path="url(#p7f8d382da3)" style="fill: none; stroke: #1f77b4; stroke-width: 1.5"/>
    <path d="M 178.93844 177.112924 
L 178.93844 173.505566 
" clip-path="url(#p7f8d382da3)" style="fill: none; stroke: #1f77b4; stroke-width: 1.5"/>
    <path d="M 182.379819 151.701347 
L 182.379819 147.632232 
" clip-path="url(#p7f8d382da3)" style="fill: none; stroke: #1f77b4; stroke-width: 1.5"/>
    <path d="M 185.821197 162.15013 
L 185.821197 158.264174 
" clip-path="url(#p7f8d382da3)" style="fill: none; stroke: #1f77b4; stroke-width: 1.5"/>
    <path d="M 189.262576 160.334747 
L 189.262576 156.416349 
" clip-path="url(#p7f8d382da3)" style="fill: none; stroke: #1f77b4; stroke-width: 1.5"/>
    <path d="M 192.703954 172.662848 
L 192.703954 168.970415 
" clip-path="url(#p7f8d382da3)" style="fill: none; stroke: #1f77b4; stroke-width: 1.5"/>
    <path d="M 196.145333 155.778585 
L 196.145333 151.779933 
" clip-path="url(#p7f8d382da3)" style="fill: none; stroke: #1f77b4; stroke-width: 1.5"/>
    <path d="M 199.586711 141.420001 
L 199.586711 137.178439 
" clip-path="url(#p7f8d382da3)" style="fill: none; stroke: #1f77b4; stroke-width: 1.5"/>
    <path d="M 203.02809 187.412483 
L 203.02809 184.010263 
" clip-path="url(#p7f8d382da3)" style="fill: none; stroke: #1f77b4; stroke-width: 1.5"/>
    <path d="M 206.469468 193.6712 
L 206.469468 190.39998 
" clip-path="url(#p7f8d382da3)" style="fill: none; stroke: #1f77b4; stroke-width: 1.5"/>
    <path d="M 209.910847 144.264862 
L 209.910847 140.0703 
" clip-path="url(#p7f8d382da3)" style="fill: none; stroke: #1f77b4; stroke-width: 1.5"/>
    <path d="M 213.352225 173.005196 
L 213.352225 169.319237 
" clip-path="url(#p7f8d382da3)" style="fill: none; stroke: #1f77b4; stroke-width: 1.5"/>
    <path d="M 216.793604 150.262177 
L 216.793604 146.168482 
" clip-path="url(#p7f8d382da3)" style="fill: none; stroke: #1f77b4; stroke-width: 1.5"/>
    <path d="M 220.234982 181.219775 
L 220.234982 177.69277 
" clip-path="url(#p7f8d382da3)" style="fill: none; stroke: #1f77b4; stroke-width: 1.5"/>
    <path d="M 223.676361 159.409878 
L 223.676361 155.475055 
" clip-path="url(#p7f8d382da3)" style="fill: none; stroke: #1f77b4; stroke-width: 1.5"/>
    <path d="M 227.117739 167.732417 
L 227.117739 163.947978 
" clip-path="url(#p7f8d382da3)" style="fill: none; stroke: #1f77b4; stroke-width: 1.5"/>
    <path d="M 230.559118 177.592103 
L 230.559118 173.994027 
" clip-path="url(#p7f8d382da3)" style="fill: none; stroke: #1f77b4; stroke-width: 1.5"/>
    <path d="M 234.000496 177.010241 
L 234.000496 173.400897 
" clip-path="url(#p7f8d382da3)" style="fill: none; stroke: #1f77b4; stroke-width: 1.5"/>
    <path d="M 237.441875 173.724109 
L 237.441875 170.051784 
" clip-path="url(#p7f8d382da3)" style="fill: none; stroke: #1f77b4; stroke-width: 1.5"/>
    <path d="M 240.883253 131.443871 
L 240.883253 127.041484 
" clip-path="url(#p7f8d382da3)" style="fill: none; stroke: #1f77b4; stroke-width: 1.5"/>
    <path d="M 244.324632 156.532291 
L 244.324632 152.546803 
" clip-path="url(#p7f8d382da3)" style="fill: none; stroke: #1f77b4; stroke-width: 1.5"/>
    <path d="M 247.76601 164.068122 
L 247.76601 160.216741 
" clip-path="url(#p7f8d382da3)" style="fill: none; stroke: #1f77b4; stroke-width: 1.5"/>
    <path d="M 251.207389 160.300493 
L 251.207389 156.381485 
" clip-path="url(#p7f8d382da3)" style="fill: none; stroke: #1f77b4; stroke-width: 1.5"/>
    <path d="M 254.648767 191.756239 
L 254.648767 188.444382 
" clip-path="url(#p7f8d382da3)" style="fill: none; stroke: #1f77b4; stroke-width: 1.5"/>
    <path d="M 258.090146 180.843352 
L 258.090146 177.308905 
" clip-path="url(#p7f8d382da3)" style="fill: none; stroke: #1f77b4; stroke-width: 1.5"/>
    <path d="M 261.531524 145.601512 
L 261.531524 141.429218 
" clip-path="url(#p7f8d382da3)" style="fill: none; stroke: #1f77b4; stroke-width: 1.5"/>
    <path d="M 264.972903 151.872672 
L 264.972903 147.806493 
" clip-path="url(#p7f8d382da3)" style="fill: none; stroke: #1f77b4; stroke-width: 1.5"/>
    <path d="M 268.414281 199.653759 
L 268.414281 196.512919 
" clip-path="url(#p7f8d382da3)" style="fill: none; stroke: #1f77b4; stroke-width: 1.5"/>
    <path d="M 271.85566 148.822934 
L 271.85566 144.704806 
" clip-path="url(#p7f8d382da3)" style="fill: none; stroke: #1f77b4; stroke-width: 1.5"/>
    <path d="M 275.297038 180.022038 
L 275.297038 176.471408 
" clip-path="url(#p7f8d382da3)" style="fill: none; stroke: #1f77b4; stroke-width: 1.5"/>
    <path d="M 278.738417 157.251718 
L 278.738417 153.278836 
" clip-path="url(#p7f8d382da3)" style="fill: none; stroke: #1f77b4; stroke-width: 1.5"/>
    <path d="M 282.179795 153.859961 
L 282.179795 149.827997 
" clip-path="url(#p7f8d382da3)" style="fill: none; stroke: #1f77b4; stroke-width: 1.5"/>
    <path d="M 285.621174 155.19616 
L 285.621174 151.187366 
" clip-path="url(#p7f8d382da3)" style="fill: none; stroke: #1f77b4; stroke-width: 1.5"/>
    <path d="M 289.062552 155.744325 
L 289.062552 151.745076 
" clip-path="url(#p7f8d382da3)" style="fill: none; stroke: #1f77b4; stroke-width: 1.5"/>
    <path d="M 292.503931 133.363906 
L 292.503931 128.992009 
" clip-path="url(#p7f8d382da3)" style="fill: none; stroke: #1f77b4; stroke-width: 1.5"/>
    <path d="M 295.945309 199.482866 
L 295.945309 196.338226 
" clip-path="url(#p7f8d382da3)" style="fill: none; stroke: #1f77b4; stroke-width: 1.5"/>
    <path d="M 299.386688 230.331551 
L 299.386688 227.971426 
" clip-path="url(#p7f8d382da3)" style="fill: none; stroke: #1f77b4; stroke-width: 1.5"/>
    <path d="M 302.828066 110.351308 
L 302.828066 105.627012 
" clip-path="url(#p7f8d382da3)" style="fill: none; stroke: #1f77b4; stroke-width: 1.5"/>
    <path d="M 306.269445 177.90014 
L 306.269445 174.308043 
" clip-path="url(#p7f8d382da3)" style="fill: none; stroke: #1f77b4; stroke-width: 1.5"/>
    <path d="M 309.710823 176.291447 
L 309.710823 172.668232 
" clip-path="url(#p7f8d382da3)" style="fill: none; stroke: #1f77b4; stroke-width: 1.5"/>
    <path d="M 313.152202 178.961119 
L 313.152202 175.389696 
" clip-path="url(#p7f8d382da3)" style="fill: none; stroke: #1f77b4; stroke-width: 1.5"/>
    <path d="M 316.59358 158.14241 
L 316.59358 154.18519 
" clip-path="url(#p7f8d382da3)" style="fill: none; stroke: #1f77b4; stroke-width: 1.5"/>
    <path d="M 320.034959 221.573579 
L 320.034959 218.966296 
" clip-path="url(#p7f8d382da3)" style="fill: none; stroke: #1f77b4; stroke-width: 1.5"/>
    <path d="M 323.476337 56.771617 
L 323.476337 51.314864 
" clip-path="url(#p7f8d382da3)" style="fill: none; stroke: #1f77b4; stroke-width: 1.5"/>
    <path d="M 326.917716 212.565904 
L 326.917716 209.727049 
" clip-path="url(#p7f8d382da3)" style="fill: none; stroke: #1f77b4; stroke-width: 1.5"/>
    <path d="M 330.359094 175.983384 
L 330.359094 172.354241 
" clip-path="url(#p7f8d382da3)" style="fill: none; stroke: #1f77b4; stroke-width: 1.5"/>
    <path d="M 333.800473 191.038065 
L 333.800473 187.711096 
" clip-path="url(#p7f8d382da3)" style="fill: none; stroke: #1f77b4; stroke-width: 1.5"/>
    <path d="M 337.241851 68.171403 
L 337.241851 62.861965 
" clip-path="url(#p7f8d382da3)" style="fill: none; stroke: #1f77b4; stroke-width: 1.5"/>
    <path d="M 340.68323 164.102371 
L 340.68323 160.25161 
" clip-path="url(#p7f8d382da3)" style="fill: none; stroke: #1f77b4; stroke-width: 1.5"/>
    <path d="M 344.124608 156.977653 
L 344.124608 152.999964 
" clip-path="url(#p7f8d382da3)" style="fill: none; stroke: #1f77b4; stroke-width: 1.5"/>
    <path d="M 347.565987 193.500232 
L 347.565987 190.225363 
" clip-path="url(#p7f8d382da3)" style="fill: none; stroke: #1f77b4; stroke-width: 1.5"/>
    <path d="M 351.007365 245.797126 
L 351.007365 243.954146 
" clip-path="url(#p7f8d382da3)" style="fill: none; stroke: #1f77b4; stroke-width: 1.5"/>
    <path d="M 354.448744 96.1465 
L 354.448744 91.217329 
" clip-path="url(#p7f8d382da3)" style="fill: none; stroke: #1f77b4; stroke-width: 1.5"/>
    <path d="M 357.890122 196.06454 
L 357.890122 192.844839 
" clip-path="url(#p7f8d382da3)" style="fill: none; stroke: #1f77b4; stroke-width: 1.5"/>
    <path d="M 361.331501 210.278392 
L 361.331501 207.383713 
" clip-path="url(#p7f8d382da3)" style="fill: none; stroke: #1f77b4; stroke-width: 1.5"/>
    <path d="M 364.772879 24.416368 
L 364.772879 18.561776 
" clip-path="url(#p7f8d382da3)" style="fill: none; stroke: #1f77b4; stroke-width: 1.5"/>
    <path d="M 368.214258 218.947376 
L 368.214258 216.270481 
" clip-path="url(#p7f8d382da3)" style="fill: none; stroke: #1f77b4; stroke-width: 1.5"/>
    <path d="M 371.655636 167.218767 
L 371.655636 163.424872 
" clip-path="url(#p7f8d382da3)" style="fill: none; stroke: #1f77b4; stroke-width: 1.5"/>
    <path d="M 375.097015 184.607226 
L 375.097015 181.147915 
" clip-path="url(#p7f8d382da3)" style="fill: none; stroke: #1f77b4; stroke-width: 1.5"/>
    <path d="M 378.538393 160.403255 
L 378.538393 156.486075 
" clip-path="url(#p7f8d382da3)" style="fill: none; stroke: #1f77b4; stroke-width: 1.5"/>
    <path d="M 381.979772 198.08146 
L 381.979772 194.90583 
" clip-path="url(#p7f8d382da3)" style="fill: none; stroke: #1f77b4; stroke-width: 1.5"/>
    <path d="M 385.42115 177.592103 
L 385.42115 173.994027 
" clip-path="url(#p7f8d382da3)" style="fill: none; stroke: #1f77b4; stroke-width: 1.5"/>
    <path d="M 388.862529 196.440599 
L 388.862529 193.229069 
" clip-path="url(#p7f8d382da3)" style="fill: none; stroke: #1f77b4; stroke-width: 1.5"/>
    <path d="M 392.303907 202.797765 
L 392.303907 199.727689 
" clip-path="url(#p7f8d382da3)" style="fill: none; stroke: #1f77b4; stroke-width: 1.5"/>
    <path d="M 395.745286 106.37166 
L 395.745286 101.589074 
" clip-path="url(#p7f8d382da3)" style="fill: none; stroke: #1f77b4; stroke-width: 1.5"/>
    <path d="M 399.186664 138.334922 
L 399.186664 134.042976 
" clip-path="url(#p7f8d382da3)" style="fill: none; stroke: #1f77b4; stroke-width: 1.5"/>
    <path d="M 402.628043 78.230316 
L 402.628043 73.054371 
" clip-path="url(#p7f8d382da3)" style="fill: none; stroke: #1f77b4; stroke-width: 1.5"/>
    <path d="M 406.069421 175.812235 
L 406.069421 172.179803 
" clip-path="url(#p7f8d382da3)" style="fill: none; stroke: #1f77b4; stroke-width: 1.5"/>
    <path d="M 409.5108 165.1298 
L 409.5108 161.297694 
" clip-path="url(#p7f8d382da3)" style="fill: none; stroke: #1f77b4; stroke-width: 1.5"/>
    <path d="M 412.952178 156.292478 
L 412.952178 152.302797 
" clip-path="url(#p7f8d382da3)" style="fill: none; stroke: #1f77b4; stroke-width: 1.5"/>
   </g>
   <g id="patch_3">
    <path d="M 53.328125 257.158895 
L 53.328125 7.2 
" style="fill: none; stroke: #000000; stroke-width: 0.8; stroke-linejoin: miter; stroke-linecap: square"/>
   </g>
   <g id="patch_4">
    <path d="M 431.87976 257.158895 
L 431.87976 7.2 
" style="fill: none; stroke: #000000; stroke-width: 0.8; stroke-linejoin: miter; stroke-linecap: square"/>
   </g>
   <g id="patch_5">
    <path d="M 53.328125 257.158895 
L 431.87976 257.158895 
" style="fill: none; stroke: #000000; stroke-width: 0.8; stroke-linejoin: miter; stroke-linecap: square"/>
   </g>
   <g id="patch_6">
    <path d="M 53.328125 7.2 
L 431.87976 7.2 
" style="fill: none; stroke: #000000; stroke-width: 0.8; stroke-linejoin: miter; stroke-linecap: square"/>
   </g>
  </g>
  <g id="axes_2">
   <g id="patch_7">
    <path d="M 486.647885 257.158895 
L 865.19952 257.158895 
L 865.19952 7.2 
L 486.647885 7.2 
z
" style="fill: #ffffff"/>
   </g>
   <g id="matplotlib.axis_3">
    <g id="xtick_8">
     <g id="line2d_16">
      <g>
       <use xlink:href="#ma1c54c7a3c" x="541.609114" y="257.158895" style="stroke: #000000; stroke-width: 0.8"/>
      </g>
     </g>
     <g id="text_18">
      <!-- 2 -->
      <g transform="translate(538.427864 271.757332) scale(0.1 -0.1)">
       <use xlink:href="#DejaVuSans-32"/>
      </g>
     </g>
    </g>
    <g id="xtick_9">
     <g id="line2d_17">
      <g>
       <use xlink:href="#ma1c54c7a3c" x="624.346919" y="257.158895" style="stroke: #000000; stroke-width: 0.8"/>
      </g>
     </g>
     <g id="text_19">
      <!-- 4 -->
      <g transform="translate(621.165669 271.757332) scale(0.1 -0.1)">
       <use xlink:href="#DejaVuSans-34"/>
      </g>
     </g>
    </g>
    <g id="xtick_10">
     <g id="line2d_18">
      <g>
       <use xlink:href="#ma1c54c7a3c" x="707.084725" y="257.158895" style="stroke: #000000; stroke-width: 0.8"/>
      </g>
     </g>
     <g id="text_20">
      <!-- 6 -->
      <g transform="translate(703.903475 271.757332) scale(0.1 -0.1)">
       <use xlink:href="#DejaVuSans-36"/>
      </g>
     </g>
    </g>
    <g id="xtick_11">
     <g id="line2d_19">
      <g>
       <use xlink:href="#ma1c54c7a3c" x="789.82253" y="257.158895" style="stroke: #000000; stroke-width: 0.8"/>
      </g>
     </g>
     <g id="text_21">
      <!-- 8 -->
      <g transform="translate(786.64128 271.757332) scale(0.1 -0.1)">
       <defs>
        <path id="DejaVuSans-38" d="M 2034 2216 
Q 1584 2216 1326 1975 
Q 1069 1734 1069 1313 
Q 1069 891 1326 650 
Q 1584 409 2034 409 
Q 2484 409 2743 651 
Q 3003 894 3003 1313 
Q 3003 1734 2745 1975 
Q 2488 2216 2034 2216 
z
M 1403 2484 
Q 997 2584 770 2862 
Q 544 3141 544 3541 
Q 544 4100 942 4425 
Q 1341 4750 2034 4750 
Q 2731 4750 3128 4425 
Q 3525 4100 3525 3541 
Q 3525 3141 3298 2862 
Q 3072 2584 2669 2484 
Q 3125 2378 3379 2068 
Q 3634 1759 3634 1313 
Q 3634 634 3220 271 
Q 2806 -91 2034 -91 
Q 1263 -91 848 271 
Q 434 634 434 1313 
Q 434 1759 690 2068 
Q 947 2378 1403 2484 
z
M 1172 3481 
Q 1172 3119 1398 2916 
Q 1625 2713 2034 2713 
Q 2441 2713 2670 2916 
Q 2900 3119 2900 3481 
Q 2900 3844 2670 4047 
Q 2441 4250 2034 4250 
Q 1625 4250 1398 4047 
Q 1172 3844 1172 3481 
z
" transform="scale(0.015625)"/>
       </defs>
       <use xlink:href="#DejaVuSans-38"/>
      </g>
     </g>
    </g>
    <g id="text_22">
     <!-- wavelength [Å] -->
     <g transform="translate(637.886202 287.119832) scale(0.1 -0.1)">
      <defs>
       <path id="DejaVuSans-77" d="M 269 3500 
L 844 3500 
L 1563 769 
L 2278 3500 
L 2956 3500 
L 3675 769 
L 4391 3500 
L 4966 3500 
L 4050 0 
L 3372 0 
L 2619 2869 
L 1863 0 
L 1184 0 
L 269 3500 
z
" transform="scale(0.015625)"/>
       <path id="DejaVuSans-61" d="M 2194 1759 
Q 1497 1759 1228 1600 
Q 959 1441 959 1056 
Q 959 750 1161 570 
Q 1363 391 1709 391 
Q 2188 391 2477 730 
Q 2766 1069 2766 1631 
L 2766 1759 
L 2194 1759 
z
M 3341 1997 
L 3341 0 
L 2766 0 
L 2766 531 
Q 2569 213 2275 61 
Q 1981 -91 1556 -91 
Q 1019 -91 701 211 
Q 384 513 384 1019 
Q 384 1609 779 1909 
Q 1175 2209 1959 2209 
L 2766 2209 
L 2766 2266 
Q 2766 2663 2505 2880 
Q 2244 3097 1772 3097 
Q 1472 3097 1187 3025 
Q 903 2953 641 2809 
L 641 3341 
Q 956 3463 1253 3523 
Q 1550 3584 1831 3584 
Q 2591 3584 2966 3190 
Q 3341 2797 3341 1997 
z
" transform="scale(0.015625)"/>
       <path id="DejaVuSans-76" d="M 191 3500 
L 800 3500 
L 1894 563 
L 2988 3500 
L 3597 3500 
L 2284 0 
L 1503 0 
L 191 3500 
z
" transform="scale(0.015625)"/>
       <path id="DejaVuSans-6c" d="M 603 4863 
L 1178 4863 
L 1178 0 
L 603 0 
L 603 4863 
z
" transform="scale(0.015625)"/>
       <path id="DejaVuSans-67" d="M 2906 1791 
Q 2906 2416 2648 2759 
Q 2391 3103 1925 3103 
Q 1463 3103 1205 2759 
Q 947 2416 947 1791 
Q 947 1169 1205 825 
Q 1463 481 1925 481 
Q 2391 481 2648 825 
Q 2906 1169 2906 1791 
z
M 3481 434 
Q 3481 -459 3084 -895 
Q 2688 -1331 1869 -1331 
Q 1566 -1331 1297 -1286 
Q 1028 -1241 775 -1147 
L 775 -588 
Q 1028 -725 1275 -790 
Q 1522 -856 1778 -856 
Q 2344 -856 2625 -561 
Q 2906 -266 2906 331 
L 2906 616 
Q 2728 306 2450 153 
Q 2172 0 1784 0 
Q 1141 0 747 490 
Q 353 981 353 1791 
Q 353 2603 747 3093 
Q 1141 3584 1784 3584 
Q 2172 3584 2450 3431 
Q 2728 3278 2906 2969 
L 2906 3500 
L 3481 3500 
L 3481 434 
z
" transform="scale(0.015625)"/>
       <path id="DejaVuSans-68" d="M 3513 2113 
L 3513 0 
L 2938 0 
L 2938 2094 
Q 2938 2591 2744 2837 
Q 2550 3084 2163 3084 
Q 1697 3084 1428 2787 
Q 1159 2491 1159 1978 
L 1159 0 
L 581 0 
L 581 4863 
L 1159 4863 
L 1159 2956 
Q 1366 3272 1645 3428 
Q 1925 3584 2291 3584 
Q 2894 3584 3203 3211 
Q 3513 2838 3513 2113 
z
" transform="scale(0.015625)"/>
       <path id="DejaVuSans-c5" d="M 2663 5081 
Q 2663 5278 2523 5417 
Q 2384 5556 2188 5556 
Q 1988 5556 1852 5420 
Q 1716 5284 1716 5081 
Q 1716 4884 1853 4746 
Q 1991 4609 2188 4609 
Q 2384 4609 2523 4746 
Q 2663 4884 2663 5081 
z
M 2188 4044 
L 1338 1722 
L 3041 1722 
L 2188 4044 
z
M 1716 4366 
Q 1525 4494 1428 4673 
Q 1331 4853 1331 5081 
Q 1331 5441 1579 5691 
Q 1828 5941 2188 5941 
Q 2544 5941 2795 5689 
Q 3047 5438 3047 5081 
Q 3047 4863 2948 4678 
Q 2850 4494 2663 4366 
L 4325 0 
L 3669 0 
L 3244 1197 
L 1141 1197 
L 716 0 
L 50 0 
L 1716 4366 
z
" transform="scale(0.015625)"/>
      </defs>
      <use xlink:href="#DejaVuSans-77"/>
      <use xlink:href="#DejaVuSans-61" transform="translate(81.787109 0)"/>
      <use xlink:href="#DejaVuSans-76" transform="translate(143.066406 0)"/>
      <use xlink:href="#DejaVuSans-65" transform="translate(202.246094 0)"/>
      <use xlink:href="#DejaVuSans-6c" transform="translate(263.769531 0)"/>
      <use xlink:href="#DejaVuSans-65" transform="translate(291.552734 0)"/>
      <use xlink:href="#DejaVuSans-6e" transform="translate(353.076172 0)"/>
      <use xlink:href="#DejaVuSans-67" transform="translate(416.455078 0)"/>
      <use xlink:href="#DejaVuSans-74" transform="translate(479.931641 0)"/>
      <use xlink:href="#DejaVuSans-68" transform="translate(519.140625 0)"/>
      <use xlink:href="#DejaVuSans-20" transform="translate(582.519531 0)"/>
      <use xlink:href="#DejaVuSans-5b" transform="translate(614.306641 0)"/>
      <use xlink:href="#DejaVuSans-c5" transform="translate(653.320312 0)"/>
      <use xlink:href="#DejaVuSans-5d" transform="translate(721.728516 0)"/>
     </g>
    </g>
   </g>
   <g id="matplotlib.axis_4">
    <g id="ytick_8">
     <g id="line2d_20">
      <g>
       <use xlink:href="#m3b1de947de" x="486.647885" y="234.937113" style="stroke: #000000; stroke-width: 0.8"/>
      </g>
     </g>
     <g id="text_23">
      <!-- 1000 -->
      <g transform="translate(454.197885 238.736332) scale(0.1 -0.1)">
       <use xlink:href="#DejaVuSans-31"/>
       <use xlink:href="#DejaVuSans-30" transform="translate(63.623047 0)"/>
       <use xlink:href="#DejaVuSans-30" transform="translate(127.246094 0)"/>
       <use xlink:href="#DejaVuSans-30" transform="translate(190.869141 0)"/>
      </g>
     </g>
    </g>
    <g id="ytick_9">
     <g id="line2d_21">
      <g>
       <use xlink:href="#m3b1de947de" x="486.647885" y="200.42619" style="stroke: #000000; stroke-width: 0.8"/>
      </g>
     </g>
     <g id="text_24">
      <!-- 2000 -->
      <g transform="translate(454.197885 204.225409) scale(0.1 -0.1)">
       <use xlink:href="#DejaVuSans-32"/>
       <use xlink:href="#DejaVuSans-30" transform="translate(63.623047 0)"/>
       <use xlink:href="#DejaVuSans-30" transform="translate(127.246094 0)"/>
       <use xlink:href="#DejaVuSans-30" transform="translate(190.869141 0)"/>
      </g>
     </g>
    </g>
    <g id="ytick_10">
     <g id="line2d_22">
      <g>
       <use xlink:href="#m3b1de947de" x="486.647885" y="165.915266" style="stroke: #000000; stroke-width: 0.8"/>
      </g>
     </g>
     <g id="text_25">
      <!-- 3000 -->
      <g transform="translate(454.197885 169.714485) scale(0.1 -0.1)">
       <use xlink:href="#DejaVuSans-33"/>
       <use xlink:href="#DejaVuSans-30" transform="translate(63.623047 0)"/>
       <use xlink:href="#DejaVuSans-30" transform="translate(127.246094 0)"/>
       <use xlink:href="#DejaVuSans-30" transform="translate(190.869141 0)"/>
      </g>
     </g>
    </g>
    <g id="ytick_11">
     <g id="line2d_23">
      <g>
       <use xlink:href="#m3b1de947de" x="486.647885" y="131.404342" style="stroke: #000000; stroke-width: 0.8"/>
      </g>
     </g>
     <g id="text_26">
      <!-- 4000 -->
      <g transform="translate(454.197885 135.203561) scale(0.1 -0.1)">
       <use xlink:href="#DejaVuSans-34"/>
       <use xlink:href="#DejaVuSans-30" transform="translate(63.623047 0)"/>
       <use xlink:href="#DejaVuSans-30" transform="translate(127.246094 0)"/>
       <use xlink:href="#DejaVuSans-30" transform="translate(190.869141 0)"/>
      </g>
     </g>
    </g>
    <g id="ytick_12">
     <g id="line2d_24">
      <g>
       <use xlink:href="#m3b1de947de" x="486.647885" y="96.893419" style="stroke: #000000; stroke-width: 0.8"/>
      </g>
     </g>
     <g id="text_27">
      <!-- 5000 -->
      <g transform="translate(454.197885 100.692638) scale(0.1 -0.1)">
       <use xlink:href="#DejaVuSans-35"/>
       <use xlink:href="#DejaVuSans-30" transform="translate(63.623047 0)"/>
       <use xlink:href="#DejaVuSans-30" transform="translate(127.246094 0)"/>
       <use xlink:href="#DejaVuSans-30" transform="translate(190.869141 0)"/>
      </g>
     </g>
    </g>
    <g id="ytick_13">
     <g id="line2d_25">
      <g>
       <use xlink:href="#m3b1de947de" x="486.647885" y="62.382495" style="stroke: #000000; stroke-width: 0.8"/>
      </g>
     </g>
     <g id="text_28">
      <!-- 6000 -->
      <g transform="translate(454.197885 66.181714) scale(0.1 -0.1)">
       <use xlink:href="#DejaVuSans-36"/>
       <use xlink:href="#DejaVuSans-30" transform="translate(63.623047 0)"/>
       <use xlink:href="#DejaVuSans-30" transform="translate(127.246094 0)"/>
       <use xlink:href="#DejaVuSans-30" transform="translate(190.869141 0)"/>
      </g>
     </g>
    </g>
    <g id="ytick_14">
     <g id="line2d_26">
      <g>
       <use xlink:href="#m3b1de947de" x="486.647885" y="27.871571" style="stroke: #000000; stroke-width: 0.8"/>
      </g>
     </g>
     <g id="text_29">
      <!-- 7000 -->
      <g transform="translate(454.197885 31.67079) scale(0.1 -0.1)">
       <use xlink:href="#DejaVuSans-37"/>
       <use xlink:href="#DejaVuSans-30" transform="translate(63.623047 0)"/>
       <use xlink:href="#DejaVuSans-30" transform="translate(127.246094 0)"/>
       <use xlink:href="#DejaVuSans-30" transform="translate(190.869141 0)"/>
      </g>
     </g>
    </g>
    <g id="text_30">
     <!-- [counts] -->
     <g transform="translate(448.118197 152.791947) rotate(-90) scale(0.1 -0.1)">
      <use xlink:href="#DejaVuSans-5b"/>
      <use xlink:href="#DejaVuSans-63" transform="translate(39.013672 0)"/>
      <use xlink:href="#DejaVuSans-6f" transform="translate(93.994141 0)"/>
      <use xlink:href="#DejaVuSans-75" transform="translate(155.175781 0)"/>
      <use xlink:href="#DejaVuSans-6e" transform="translate(218.554688 0)"/>
      <use xlink:href="#DejaVuSans-74" transform="translate(281.933594 0)"/>
      <use xlink:href="#DejaVuSans-73" transform="translate(321.142578 0)"/>
      <use xlink:href="#DejaVuSans-5d" transform="translate(373.242188 0)"/>
     </g>
    </g>
   </g>
   <g id="line2d_27">
    <path d="M 503.854777 129.126621 
L 507.296156 129.126621 
L 507.296156 149.833176 
L 510.737534 149.833176 
L 510.737534 139.583431 
L 514.178913 139.583431 
L 514.178913 156.769871 
L 517.620291 156.769871 
L 517.620291 174.094355 
L 521.06167 174.094355 
L 521.06167 165.432113 
L 524.503048 165.432113 
L 524.503048 151.662255 
L 527.944427 151.662255 
L 527.944427 164.776406 
L 531.385805 164.776406 
L 531.385805 147.900564 
L 534.827184 147.900564 
L 534.827184 161.256291 
L 538.268562 161.256291 
L 538.268562 157.287535 
L 541.709941 157.287535 
L 541.709941 157.598134 
L 545.151319 157.598134 
L 545.151319 159.082103 
L 548.592698 159.082103 
L 548.592698 163.361458 
L 552.034076 163.361458 
L 552.034076 125.675529 
L 555.475455 125.675529 
L 555.475455 151.972853 
L 558.916833 151.972853 
L 558.916833 145.864419 
L 562.358212 145.864419 
L 562.358212 152.076386 
L 565.79959 152.076386 
L 565.79959 151.731276 
L 569.240969 151.731276 
L 569.240969 139.065768 
L 572.682347 139.065768 
L 572.682347 163.741078 
L 576.123726 163.741078 
L 576.123726 159.668789 
L 579.565104 159.668789 
L 579.565104 162.947327 
L 583.006483 162.947327 
L 583.006483 156.666339 
L 586.447861 156.666339 
L 586.447861 162.671239 
L 589.88924 162.671239 
L 589.88924 162.464174 
L 593.330618 162.464174 
L 593.330618 172.748429 
L 596.771997 172.748429 
L 596.771997 162.395152 
L 600.213375 162.395152 
L 600.213375 165.087004 
L 603.654754 165.087004 
L 603.654754 145.553821 
L 607.096132 145.553821 
L 607.096132 164.879938 
L 610.537511 164.879938 
L 610.537511 175.543814 
L 613.978889 175.543814 
L 613.978889 148.901381 
L 617.420268 148.901381 
L 617.420268 161.118248 
L 620.861647 161.118248 
L 620.861647 158.564439 
L 624.303025 158.564439 
L 624.303025 170.953861 
L 627.744403 170.953861 
L 627.744403 153.767421 
L 631.185782 153.767421 
L 631.185782 139.54892 
L 634.62716 139.54892 
L 634.62716 186.000624 
L 638.068539 186.000624 
L 638.068539 191.660415 
L 641.509918 191.660415 
L 641.509918 142.378816 
L 644.951296 142.378816 
L 644.951296 171.126416 
L 648.392674 171.126416 
L 648.392674 148.073119 
L 651.834053 148.073119 
L 651.834053 180.340832 
L 655.275431 180.340832 
L 655.275431 157.322046 
L 658.71681 157.322046 
L 658.71681 165.67369 
L 662.158188 165.67369 
L 662.158188 176.061478 
L 665.599567 176.061478 
L 665.599567 175.336748 
L 669.040945 175.336748 
L 669.040945 172.679407 
L 672.482324 172.679407 
L 672.482324 128.677979 
L 675.923702 128.677979 
L 675.923702 154.181552 
L 679.365081 154.181552 
L 679.365081 163.568523 
L 682.806459 163.568523 
L 682.806459 157.736177 
L 686.247838 157.736177 
L 686.247838 189.417205 
L 689.689217 189.417205 
L 689.689217 180.651431 
L 693.130595 180.651431 
L 693.130595 142.413327 
L 696.571974 142.413327 
L 696.571974 151.179102 
L 700.013352 151.179102 
L 700.013352 198.355534 
L 703.45473 198.355534 
L 703.45473 145.312245 
L 706.896109 145.312245 
L 706.896109 179.926701 
L 710.337487 179.926701 
L 710.337487 154.733727 
L 713.778866 154.733727 
L 713.778866 152.904648 
L 717.220245 152.904648 
L 717.220245 153.042692 
L 720.661623 153.042692 
L 720.661623 149.281001 
L 724.103002 149.281001 
L 724.103002 135.821741 
L 727.54438 135.821741 
L 727.54438 198.390045 
L 730.985758 198.390045 
L 730.985758 227.482754 
L 734.427137 227.482754 
L 734.427137 109.558928 
L 737.868516 109.558928 
L 737.868516 176.544631 
L 741.309894 176.544631 
L 741.309894 173.438647 
L 744.751272 173.438647 
L 744.751272 178.339199 
L 748.192651 178.339199 
L 748.192651 156.35574 
L 751.634029 156.35574 
L 751.634029 219.47622 
L 755.075408 219.47622 
L 755.075408 53.789275 
L 758.516786 53.789275 
L 758.516786 212.435991 
L 761.958165 212.435991 
L 761.958165 174.335931 
L 765.399544 174.335931 
L 765.399544 189.58976 
L 768.840922 189.58976 
L 768.840922 65.108858 
L 772.282301 65.108858 
L 772.282301 161.497868 
L 775.723679 161.497868 
L 775.723679 156.73536 
L 779.165058 156.73536 
L 779.165058 192.21259 
L 782.606436 192.21259 
L 782.606436 244.876259 
L 786.047814 244.876259 
L 786.047814 92.027379 
L 789.489193 92.027379 
L 789.489193 196.457434 
L 792.930572 196.457434 
L 792.930572 207.673484 
L 796.37195 207.673484 
L 796.37195 21.487051 
L 799.813329 21.487051 
L 799.813329 219.096599 
L 803.254707 219.096599 
L 803.254707 164.051676 
L 806.696085 164.051676 
L 806.696085 181.410671 
L 810.137464 181.410671 
L 810.137464 161.670423 
L 813.578843 161.670423 
L 813.578843 195.974281 
L 817.020221 195.974281 
L 817.020221 175.440281 
L 820.4616 175.440281 
L 820.4616 195.007975 
L 823.902978 195.007975 
L 823.902978 201.56505 
L 827.344357 201.56505 
L 827.344357 103.105385 
L 830.785735 103.105385 
L 830.785735 135.373099 
L 834.227114 135.373099 
L 834.227114 77.11866 
L 837.668492 77.11866 
L 837.668492 175.095172 
L 841.109871 175.095172 
L 841.109871 162.533196 
L 844.551249 162.533196 
L 844.551249 156.597317 
L 847.992628 156.597317 
L 847.992628 156.597317 
" clip-path="url(#p1514338a9d)" style="fill: none; stroke: #1f77b4; stroke-width: 1.5; stroke-linecap: square"/>
   </g>
   <g id="LineCollection_2">
    <path d="M 505.575467 131.327217 
L 505.575467 126.926026 
" clip-path="url(#p1514338a9d)" style="fill: none; stroke: #1f77b4; stroke-width: 1.5"/>
    <path d="M 509.016845 151.864929 
L 509.016845 147.801423 
" clip-path="url(#p1514338a9d)" style="fill: none; stroke: #1f77b4; stroke-width: 1.5"/>
    <path d="M 512.458224 141.700445 
L 512.458224 137.466418 
" clip-path="url(#p1514338a9d)" style="fill: none; stroke: #1f77b4; stroke-width: 1.5"/>
    <path d="M 515.899602 158.741832 
L 515.899602 154.797911 
" clip-path="url(#p1514338a9d)" style="fill: none; stroke: #1f77b4; stroke-width: 1.5"/>
    <path d="M 519.340981 175.908396 
L 519.340981 172.280314 
" clip-path="url(#p1514338a9d)" style="fill: none; stroke: #1f77b4; stroke-width: 1.5"/>
    <path d="M 522.782359 167.32676 
L 522.782359 163.537467 
" clip-path="url(#p1514338a9d)" style="fill: none; stroke: #1f77b4; stroke-width: 1.5"/>
    <path d="M 526.223738 153.678413 
L 526.223738 149.646096 
" clip-path="url(#p1514338a9d)" style="fill: none; stroke: #1f77b4; stroke-width: 1.5"/>
    <path d="M 529.665116 166.677015 
L 529.665116 162.875797 
" clip-path="url(#p1514338a9d)" style="fill: none; stroke: #1f77b4; stroke-width: 1.5"/>
    <path d="M 533.106495 149.948664 
L 533.106495 145.852464 
" clip-path="url(#p1514338a9d)" style="fill: none; stroke: #1f77b4; stroke-width: 1.5"/>
    <path d="M 536.547873 163.188595 
L 536.547873 159.323988 
" clip-path="url(#p1514338a9d)" style="fill: none; stroke: #1f77b4; stroke-width: 1.5"/>
    <path d="M 539.989252 159.254961 
L 539.989252 155.32011 
" clip-path="url(#p1514338a9d)" style="fill: none; stroke: #1f77b4; stroke-width: 1.5"/>
    <path d="M 543.43063 159.562833 
L 543.43063 155.633434 
" clip-path="url(#p1514338a9d)" style="fill: none; stroke: #1f77b4; stroke-width: 1.5"/>
    <path d="M 546.872009 161.033726 
L 546.872009 157.130481 
" clip-path="url(#p1514338a9d)" style="fill: none; stroke: #1f77b4; stroke-width: 1.5"/>
    <path d="M 550.313387 165.27487 
L 550.313387 161.448046 
" clip-path="url(#p1514338a9d)" style="fill: none; stroke: #1f77b4; stroke-width: 1.5"/>
    <path d="M 553.754766 127.903021 
L 553.754766 123.448037 
" clip-path="url(#p1514338a9d)" style="fill: none; stroke: #1f77b4; stroke-width: 1.5"/>
    <path d="M 557.196144 153.986352 
L 557.196144 149.959354 
" clip-path="url(#p1514338a9d)" style="fill: none; stroke: #1f77b4; stroke-width: 1.5"/>
    <path d="M 560.637523 147.929603 
L 560.637523 143.799236 
" clip-path="url(#p1514338a9d)" style="fill: none; stroke: #1f77b4; stroke-width: 1.5"/>
    <path d="M 564.078901 154.088997 
L 564.078901 150.063774 
" clip-path="url(#p1514338a9d)" style="fill: none; stroke: #1f77b4; stroke-width: 1.5"/>
    <path d="M 567.52028 153.746844 
L 567.52028 149.715709 
" clip-path="url(#p1514338a9d)" style="fill: none; stroke: #1f77b4; stroke-width: 1.5"/>
    <path d="M 570.961658 141.186997 
L 570.961658 136.944538 
" clip-path="url(#p1514338a9d)" style="fill: none; stroke: #1f77b4; stroke-width: 1.5"/>
    <path d="M 574.403037 165.651063 
L 574.403037 161.831092 
" clip-path="url(#p1514338a9d)" style="fill: none; stroke: #1f77b4; stroke-width: 1.5"/>
    <path d="M 577.844415 161.615217 
L 577.844415 157.722361 
" clip-path="url(#p1514338a9d)" style="fill: none; stroke: #1f77b4; stroke-width: 1.5"/>
    <path d="M 581.285794 164.86447 
L 581.285794 161.030184 
" clip-path="url(#p1514338a9d)" style="fill: none; stroke: #1f77b4; stroke-width: 1.5"/>
    <path d="M 584.727172 158.639205 
L 584.727172 154.693472 
" clip-path="url(#p1514338a9d)" style="fill: none; stroke: #1f77b4; stroke-width: 1.5"/>
    <path d="M 588.168551 164.590866 
L 588.168551 160.751613 
" clip-path="url(#p1514338a9d)" style="fill: none; stroke: #1f77b4; stroke-width: 1.5"/>
    <path d="M 591.609929 164.385661 
L 591.609929 160.542687 
" clip-path="url(#p1514338a9d)" style="fill: none; stroke: #1f77b4; stroke-width: 1.5"/>
    <path d="M 595.051308 174.575228 
L 595.051308 170.92163 
" clip-path="url(#p1514338a9d)" style="fill: none; stroke: #1f77b4; stroke-width: 1.5"/>
    <path d="M 598.492686 164.317259 
L 598.492686 160.473045 
" clip-path="url(#p1514338a9d)" style="fill: none; stroke: #1f77b4; stroke-width: 1.5"/>
    <path d="M 601.934065 166.984791 
L 601.934065 163.189217 
" clip-path="url(#p1514338a9d)" style="fill: none; stroke: #1f77b4; stroke-width: 1.5"/>
    <path d="M 605.375443 147.621599 
L 605.375443 143.486044 
" clip-path="url(#p1514338a9d)" style="fill: none; stroke: #1f77b4; stroke-width: 1.5"/>
    <path d="M 608.816822 166.779607 
L 608.816822 162.98027 
" clip-path="url(#p1514338a9d)" style="fill: none; stroke: #1f77b4; stroke-width: 1.5"/>
    <path d="M 612.2582 177.344014 
L 612.2582 173.743613 
" clip-path="url(#p1514338a9d)" style="fill: none; stroke: #1f77b4; stroke-width: 1.5"/>
    <path d="M 615.699579 150.941032 
L 615.699579 146.86173 
" clip-path="url(#p1514338a9d)" style="fill: none; stroke: #1f77b4; stroke-width: 1.5"/>
    <path d="M 619.140957 163.051784 
L 619.140957 159.184712 
" clip-path="url(#p1514338a9d)" style="fill: none; stroke: #1f77b4; stroke-width: 1.5"/>
    <path d="M 622.582336 160.520633 
L 622.582336 156.608245 
" clip-path="url(#p1514338a9d)" style="fill: none; stroke: #1f77b4; stroke-width: 1.5"/>
    <path d="M 626.023714 172.797533 
L 626.023714 169.110189 
" clip-path="url(#p1514338a9d)" style="fill: none; stroke: #1f77b4; stroke-width: 1.5"/>
    <path d="M 629.465093 155.765481 
L 629.465093 151.769361 
" clip-path="url(#p1514338a9d)" style="fill: none; stroke: #1f77b4; stroke-width: 1.5"/>
    <path d="M 632.906471 141.666216 
L 632.906471 137.431625 
" clip-path="url(#p1514338a9d)" style="fill: none; stroke: #1f77b4; stroke-width: 1.5"/>
    <path d="M 636.34785 187.697635 
L 636.34785 184.303612 
" clip-path="url(#p1514338a9d)" style="fill: none; stroke: #1f77b4; stroke-width: 1.5"/>
    <path d="M 639.789228 193.298867 
L 639.789228 190.021964 
" clip-path="url(#p1514338a9d)" style="fill: none; stroke: #1f77b4; stroke-width: 1.5"/>
    <path d="M 643.230607 144.472921 
L 643.230607 140.284711 
" clip-path="url(#p1514338a9d)" style="fill: none; stroke: #1f77b4; stroke-width: 1.5"/>
    <path d="M 646.671985 172.968472 
L 646.671985 169.28436 
" clip-path="url(#p1514338a9d)" style="fill: none; stroke: #1f77b4; stroke-width: 1.5"/>
    <path d="M 650.113364 150.119765 
L 650.113364 146.026472 
" clip-path="url(#p1514338a9d)" style="fill: none; stroke: #1f77b4; stroke-width: 1.5"/>
    <path d="M 653.554742 182.094449 
L 653.554742 178.587215 
" clip-path="url(#p1514338a9d)" style="fill: none; stroke: #1f77b4; stroke-width: 1.5"/>
    <path d="M 656.996121 159.289169 
L 656.996121 155.354923 
" clip-path="url(#p1514338a9d)" style="fill: none; stroke: #1f77b4; stroke-width: 1.5"/>
    <path d="M 660.437499 167.566135 
L 660.437499 163.781244 
" clip-path="url(#p1514338a9d)" style="fill: none; stroke: #1f77b4; stroke-width: 1.5"/>
    <path d="M 663.878878 177.856709 
L 663.878878 174.266246 
" clip-path="url(#p1514338a9d)" style="fill: none; stroke: #1f77b4; stroke-width: 1.5"/>
    <path d="M 667.320256 177.138932 
L 667.320256 173.534564 
" clip-path="url(#p1514338a9d)" style="fill: none; stroke: #1f77b4; stroke-width: 1.5"/>
    <path d="M 670.761635 174.506857 
L 670.761635 170.851957 
" clip-path="url(#p1514338a9d)" style="fill: none; stroke: #1f77b4; stroke-width: 1.5"/>
    <path d="M 674.203013 130.88209 
L 674.203013 126.473869 
" clip-path="url(#p1514338a9d)" style="fill: none; stroke: #1f77b4; stroke-width: 1.5"/>
    <path d="M 677.644392 156.176033 
L 677.644392 152.187072 
" clip-path="url(#p1514338a9d)" style="fill: none; stroke: #1f77b4; stroke-width: 1.5"/>
    <path d="M 681.08577 165.480067 
L 681.08577 161.656979 
" clip-path="url(#p1514338a9d)" style="fill: none; stroke: #1f77b4; stroke-width: 1.5"/>
    <path d="M 684.527149 159.699664 
L 684.527149 155.772691 
" clip-path="url(#p1514338a9d)" style="fill: none; stroke: #1f77b4; stroke-width: 1.5"/>
    <path d="M 687.968527 191.079113 
L 687.968527 187.755297 
" clip-path="url(#p1514338a9d)" style="fill: none; stroke: #1f77b4; stroke-width: 1.5"/>
    <path d="M 691.409906 182.401988 
L 691.409906 178.900873 
" clip-path="url(#p1514338a9d)" style="fill: none; stroke: #1f77b4; stroke-width: 1.5"/>
    <path d="M 694.851284 144.507148 
L 694.851284 140.319506 
" clip-path="url(#p1514338a9d)" style="fill: none; stroke: #1f77b4; stroke-width: 1.5"/>
    <path d="M 698.292663 153.199391 
L 698.292663 149.158812 
" clip-path="url(#p1514338a9d)" style="fill: none; stroke: #1f77b4; stroke-width: 1.5"/>
    <path d="M 701.734041 199.921889 
L 701.734041 196.789179 
" clip-path="url(#p1514338a9d)" style="fill: none; stroke: #1f77b4; stroke-width: 1.5"/>
    <path d="M 705.17542 147.382037 
L 705.17542 143.242452 
" clip-path="url(#p1514338a9d)" style="fill: none; stroke: #1f77b4; stroke-width: 1.5"/>
    <path d="M 708.616798 181.684388 
L 708.616798 178.169014 
" clip-path="url(#p1514338a9d)" style="fill: none; stroke: #1f77b4; stroke-width: 1.5"/>
    <path d="M 712.058177 156.723424 
L 712.058177 152.744029 
" clip-path="url(#p1514338a9d)" style="fill: none; stroke: #1f77b4; stroke-width: 1.5"/>
    <path d="M 715.499555 154.910145 
L 715.499555 150.89915 
" clip-path="url(#p1514338a9d)" style="fill: none; stroke: #1f77b4; stroke-width: 1.5"/>
    <path d="M 718.940934 155.047001 
L 718.940934 151.038382 
" clip-path="url(#p1514338a9d)" style="fill: none; stroke: #1f77b4; stroke-width: 1.5"/>
    <path d="M 722.382312 151.317438 
L 722.382312 147.244564 
" clip-path="url(#p1514338a9d)" style="fill: none; stroke: #1f77b4; stroke-width: 1.5"/>
    <path d="M 725.823691 137.969197 
L 725.823691 133.674285 
" clip-path="url(#p1514338a9d)" style="fill: none; stroke: #1f77b4; stroke-width: 1.5"/>
    <path d="M 729.265069 199.95602 
L 729.265069 196.824071 
" clip-path="url(#p1514338a9d)" style="fill: none; stroke: #1f77b4; stroke-width: 1.5"/>
    <path d="M 732.706448 228.686191 
L 732.706448 226.279317 
" clip-path="url(#p1514338a9d)" style="fill: none; stroke: #1f77b4; stroke-width: 1.5"/>
    <path d="M 736.147826 111.907953 
L 736.147826 107.209902 
" clip-path="url(#p1514338a9d)" style="fill: none; stroke: #1f77b4; stroke-width: 1.5"/>
    <path d="M 739.589205 178.335212 
L 739.589205 174.754049 
" clip-path="url(#p1514338a9d)" style="fill: none; stroke: #1f77b4; stroke-width: 1.5"/>
    <path d="M 743.030583 175.258915 
L 743.030583 171.61838 
" clip-path="url(#p1514338a9d)" style="fill: none; stroke: #1f77b4; stroke-width: 1.5"/>
    <path d="M 746.471962 180.112402 
L 746.471962 176.565995 
" clip-path="url(#p1514338a9d)" style="fill: none; stroke: #1f77b4; stroke-width: 1.5"/>
    <path d="M 749.91334 158.331321 
L 749.91334 154.380159 
" clip-path="url(#p1514338a9d)" style="fill: none; stroke: #1f77b4; stroke-width: 1.5"/>
    <path d="M 753.354719 220.78945 
L 753.354719 218.162989 
" clip-path="url(#p1514338a9d)" style="fill: none; stroke: #1f77b4; stroke-width: 1.5"/>
    <path d="M 756.796097 56.517385 
L 756.796097 51.061165 
" clip-path="url(#p1514338a9d)" style="fill: none; stroke: #1f77b4; stroke-width: 1.5"/>
    <path d="M 760.237476 213.838681 
L 760.237476 211.033302 
" clip-path="url(#p1514338a9d)" style="fill: none; stroke: #1f77b4; stroke-width: 1.5"/>
    <path d="M 763.678854 176.147673 
L 763.678854 172.52419 
" clip-path="url(#p1514338a9d)" style="fill: none; stroke: #1f77b4; stroke-width: 1.5"/>
    <path d="M 767.120233 191.249875 
L 767.120233 187.929644 
" clip-path="url(#p1514338a9d)" style="fill: none; stroke: #1f77b4; stroke-width: 1.5"/>
    <path d="M 770.561611 67.764406 
L 770.561611 62.45331 
" clip-path="url(#p1514338a9d)" style="fill: none; stroke: #1f77b4; stroke-width: 1.5"/>
    <path d="M 774.00299 163.428013 
L 774.00299 159.567723 
" clip-path="url(#p1514338a9d)" style="fill: none; stroke: #1f77b4; stroke-width: 1.5"/>
    <path d="M 777.444368 158.707623 
L 777.444368 154.763098 
" clip-path="url(#p1514338a9d)" style="fill: none; stroke: #1f77b4; stroke-width: 1.5"/>
    <path d="M 780.885747 193.845216 
L 780.885747 190.579964 
" clip-path="url(#p1514338a9d)" style="fill: none; stroke: #1f77b4; stroke-width: 1.5"/>
    <path d="M 784.327125 245.797126 
L 784.327125 243.955393 
" clip-path="url(#p1514338a9d)" style="fill: none; stroke: #1f77b4; stroke-width: 1.5"/>
    <path d="M 787.768504 94.501838 
L 787.768504 89.552919 
" clip-path="url(#p1514338a9d)" style="fill: none; stroke: #1f77b4; stroke-width: 1.5"/>
    <path d="M 791.209882 198.044561 
L 791.209882 194.870306 
" clip-path="url(#p1514338a9d)" style="fill: none; stroke: #1f77b4; stroke-width: 1.5"/>
    <path d="M 794.651261 209.133585 
L 794.651261 206.213382 
" clip-path="url(#p1514338a9d)" style="fill: none; stroke: #1f77b4; stroke-width: 1.5"/>
    <path d="M 798.092639 24.412348 
L 798.092639 18.561753 
" clip-path="url(#p1514338a9d)" style="fill: none; stroke: #1f77b4; stroke-width: 1.5"/>
    <path d="M 801.534018 220.414808 
L 801.534018 217.778391 
" clip-path="url(#p1514338a9d)" style="fill: none; stroke: #1f77b4; stroke-width: 1.5"/>
    <path d="M 804.975396 165.958854 
L 804.975396 162.144499 
" clip-path="url(#p1514338a9d)" style="fill: none; stroke: #1f77b4; stroke-width: 1.5"/>
    <path d="M 808.416775 183.153729 
L 808.416775 179.667613 
" clip-path="url(#p1514338a9d)" style="fill: none; stroke: #1f77b4; stroke-width: 1.5"/>
    <path d="M 811.858153 163.599024 
L 811.858153 159.741821 
" clip-path="url(#p1514338a9d)" style="fill: none; stroke: #1f77b4; stroke-width: 1.5"/>
    <path d="M 815.299532 197.566652 
L 815.299532 194.381909 
" clip-path="url(#p1514338a9d)" style="fill: none; stroke: #1f77b4; stroke-width: 1.5"/>
    <path d="M 818.74091 177.241474 
L 818.74091 173.639089 
" clip-path="url(#p1514338a9d)" style="fill: none; stroke: #1f77b4; stroke-width: 1.5"/>
    <path d="M 822.182289 196.610783 
L 822.182289 193.405166 
" clip-path="url(#p1514338a9d)" style="fill: none; stroke: #1f77b4; stroke-width: 1.5"/>
    <path d="M 825.623667 203.09564 
L 825.623667 200.034461 
" clip-path="url(#p1514338a9d)" style="fill: none; stroke: #1f77b4; stroke-width: 1.5"/>
    <path d="M 829.065046 105.501348 
L 829.065046 100.709422 
" clip-path="url(#p1514338a9d)" style="fill: none; stroke: #1f77b4; stroke-width: 1.5"/>
    <path d="M 832.506424 137.524157 
L 832.506424 133.222041 
" clip-path="url(#p1514338a9d)" style="fill: none; stroke: #1f77b4; stroke-width: 1.5"/>
    <path d="M 835.947803 79.694987 
L 835.947803 74.542332 
" clip-path="url(#p1514338a9d)" style="fill: none; stroke: #1f77b4; stroke-width: 1.5"/>
    <path d="M 839.389181 176.899667 
L 839.389181 173.290676 
" clip-path="url(#p1514338a9d)" style="fill: none; stroke: #1f77b4; stroke-width: 1.5"/>
    <path d="M 842.83056 164.454063 
L 842.83056 160.612329 
" clip-path="url(#p1514338a9d)" style="fill: none; stroke: #1f77b4; stroke-width: 1.5"/>
    <path d="M 846.271938 158.570786 
L 846.271938 154.623847 
" clip-path="url(#p1514338a9d)" style="fill: none; stroke: #1f77b4; stroke-width: 1.5"/>
   </g>
   <g id="patch_8">
    <path d="M 486.647885 257.158895 
L 486.647885 7.2 
" style="fill: none; stroke: #000000; stroke-width: 0.8; stroke-linejoin: miter; stroke-linecap: square"/>
   </g>
   <g id="patch_9">
    <path d="M 865.19952 257.158895 
L 865.19952 7.2 
" style="fill: none; stroke: #000000; stroke-width: 0.8; stroke-linejoin: miter; stroke-linecap: square"/>
   </g>
   <g id="patch_10">
    <path d="M 486.647885 257.158895 
L 865.19952 257.158895 
" style="fill: none; stroke: #000000; stroke-width: 0.8; stroke-linejoin: miter; stroke-linecap: square"/>
   </g>
   <g id="patch_11">
    <path d="M 486.647885 7.2 
L 865.19952 7.2 
" style="fill: none; stroke: #000000; stroke-width: 0.8; stroke-linejoin: miter; stroke-linecap: square"/>
   </g>
  </g>
 </g>
 <defs>
  <clipPath id="p7f8d382da3">
   <rect x="53.328125" y="7.2" width="378.551635" height="249.958895"/>
  </clipPath>
  <clipPath id="p1514338a9d">
   <rect x="486.647885" y="7.2" width="378.551635" height="249.958895"/>
  </clipPath>
 </defs>
</svg>
