<?xml version="1.0" encoding="UTF-8" standalone="no"?>
<!DOCTYPE svg PUBLIC "-//W3C//DTD SVG 1.1//EN"
 "http://www.w3.org/Graphics/SVG/1.1/DTD/svg11.dtd">
<!-- Generated by graphviz version 2.43.0 (0)
 -->
<!-- Title: %3 Pages: 1 -->
<svg width="2823pt" height="170pt"
 viewBox="0.00 0.00 2823.00 170.00" xmlns="http://www.w3.org/2000/svg" xmlns:xlink="http://www.w3.org/1999/xlink">
<g id="graph0" class="graph" transform="scale(1 1) rotate(0) translate(4 166)">
<title>%3</title>
<polygon fill="white" stroke="transparent" points="-4,4 -4,-166 2819,-166 2819,4 -4,4"/>
<!-- DetectorBankSizes -->
<g id="node1" class="node">
<title>DetectorBankSizes</title>
<polygon fill="none" stroke="black" points="2149.5,-60 1997.5,-60 1997.5,-37 2149.5,-37 2149.5,-60"/>
<text text-anchor="middle" x="2073.5" y="-44.8" font-family="Times,serif" font-size="14.00">DetectorBankSizes</text>
</g>
<!-- EmptyDetector[SampleRun] -->
<g id="node4" class="node">
<title>EmptyDetector[SampleRun]</title>
<polygon fill="none" stroke="black" points="2541,-84 2323,-84 2323,-51 2541,-51 2541,-84"/>
<text text-anchor="start" x="2331" y="-69.8" font-family="Times,serif" font-size="14.00">EmptyDetector[SampleRun]</text>
<text text-anchor="start" x="2355" y="-58.2" font-family="Times,serif" font-size="11.00">via:</text>
<text text-anchor="start" x="2376" y="-58.2" font-family="Times,serif" font-style="italic" font-size="11.00">get_calibrated_detector</text>
</g>
<!-- DetectorBankSizes&#45;&gt;EmptyDetector[SampleRun] -->
<g id="edge4" class="edge">
<title>DetectorBankSizes:e&#45;&gt;EmptyDetector[SampleRun]:w</title>
<path fill="none" stroke="black" d="M2150.5,-48.5C2224.17,-48.5 2244.11,-65.83 2312.95,-67.39"/>
<polygon fill="black" stroke="black" points="2312.96,-70.89 2323,-67.5 2313.04,-63.89 2312.96,-70.89"/>
</g>
<!-- DetectorPositionOffset[SampleRun] -->
<g id="node2" class="node">
<title>DetectorPositionOffset[SampleRun]</title>
<polygon fill="none" stroke="black" points="2209,-33 1938,-33 1938,0 2209,0 2209,-33"/>
<text text-anchor="start" x="1946" y="-18.8" font-family="Times,serif" font-size="14.00">DetectorPositionOffset[SampleRun]</text>
<text text-anchor="start" x="1986" y="-7.2" font-family="Times,serif" font-size="11.00">via:</text>
<text text-anchor="start" x="2007" y="-7.2" font-family="Times,serif" font-style="italic" font-size="11.00">no_detector_position_offset</text>
</g>
<!-- DetectorPositionOffset[SampleRun]&#45;&gt;EmptyDetector[SampleRun] -->
<g id="edge3" class="edge">
<title>DetectorPositionOffset[SampleRun]:e&#45;&gt;EmptyDetector[SampleRun]:w</title>
<path fill="none" stroke="black" d="M2210.5,-16.5C2261.86,-16.5 2267.54,-61.14 2313.01,-66.89"/>
<polygon fill="black" stroke="black" points="2312.81,-70.39 2323,-67.5 2313.23,-63.4 2312.81,-70.39"/>
</g>
<!-- NeXusComponent[NXdetector, SampleRun] -->
<g id="node3" class="node">
<title>NeXusComponent[NXdetector, SampleRun]</title>
<polygon fill="none" stroke="black" points="1356,-80 1030,-80 1030,-47 1356,-47 1356,-80"/>
<text text-anchor="start" x="1038" y="-65.8" font-family="Times,serif" font-size="14.00">NeXusComponent[NXdetector, SampleRun]</text>
<text text-anchor="start" x="1118" y="-54.2" font-family="Times,serif" font-size="11.00">via:</text>
<text text-anchor="start" x="1139" y="-54.2" font-family="Times,serif" font-style="italic" font-size="11.00">load_nexus_component</text>
</g>
<!-- NeXusComponent[NXdetector, SampleRun]&#45;&gt;EmptyDetector[SampleRun] -->
<g id="edge1" class="edge">
<title>NeXusComponent[NXdetector, SampleRun]:e&#45;&gt;EmptyDetector[SampleRun]:w</title>
<path fill="none" stroke="black" d="M1356,-63.5C1782.42,-63.5 1891.52,-67.44 2312.99,-67.5"/>
<polygon fill="black" stroke="black" points="2313,-71 2323,-67.5 2313,-64 2313,-71"/>
</g>
<!-- NeXusTransformationChain[NXdetector, SampleRun] -->
<g id="node15" class="node">
<title>NeXusTransformationChain[NXdetector, SampleRun]</title>
<polygon fill="none" stroke="black" points="1824,-108 1428,-108 1428,-75 1824,-75 1824,-108"/>
<text text-anchor="start" x="1436" y="-93.8" font-family="Times,serif" font-size="14.00">NeXusTransformationChain[NXdetector, SampleRun]</text>
<text text-anchor="start" x="1544" y="-82.2" font-family="Times,serif" font-size="11.00">via:</text>
<text text-anchor="start" x="1565" y="-82.2" font-family="Times,serif" font-style="italic" font-size="11.00">get_transformation_chain</text>
</g>
<!-- NeXusComponent[NXdetector, SampleRun]&#45;&gt;NeXusTransformationChain[NXdetector, SampleRun] -->
<g id="edge15" class="edge">
<title>NeXusComponent[NXdetector, SampleRun]:e&#45;&gt;NeXusTransformationChain[NXdetector, SampleRun]:w</title>
<path fill="none" stroke="black" d="M1356,-63.5C1386.58,-63.5 1392.57,-85.71 1417.77,-90.57"/>
<polygon fill="black" stroke="black" points="1417.72,-94.08 1428,-91.5 1418.36,-87.11 1417.72,-94.08"/>
</g>
<!-- RawDetector[SampleRun] -->
<g id="node16" class="node">
<title>RawDetector[SampleRun]</title>
<polygon fill="none" stroke="black" points="2815,-114 2613,-114 2613,-81 2815,-81 2815,-114"/>
<text text-anchor="start" x="2621" y="-99.8" font-family="Times,serif" font-size="14.00">RawDetector[SampleRun]</text>
<text text-anchor="start" x="2635.5" y="-88.2" font-family="Times,serif" font-size="11.00">via:</text>
<text text-anchor="start" x="2656.5" y="-88.2" font-family="Times,serif" font-style="italic" font-size="11.00">assemble_detector_data</text>
</g>
<!-- EmptyDetector[SampleRun]&#45;&gt;RawDetector[SampleRun] -->
<g id="edge18" class="edge">
<title>EmptyDetector[SampleRun]:e&#45;&gt;RawDetector[SampleRun]:w</title>
<path fill="none" stroke="black" d="M2541,-67.5C2572.01,-67.5 2577.41,-91.51 2603.02,-96.57"/>
<polygon fill="black" stroke="black" points="2602.72,-100.06 2613,-97.5 2603.37,-93.09 2602.72,-100.06"/>
</g>
<!-- NeXusTransformation[NXdetector, SampleRun] -->
<g id="node5" class="node">
<title>NeXusTransformation[NXdetector, SampleRun]</title>
<polygon fill="none" stroke="black" points="2251,-108 1896,-108 1896,-75 2251,-75 2251,-108"/>
<text text-anchor="start" x="1904" y="-93.8" font-family="Times,serif" font-size="14.00">NeXusTransformation[NXdetector, SampleRun]</text>
<text text-anchor="start" x="2012.5" y="-82.2" font-family="Times,serif" font-size="11.00">via:</text>
<text text-anchor="start" x="2033.5" y="-82.2" font-family="Times,serif" font-style="italic" font-size="11.00">to_transformation</text>
</g>
<!-- NeXusTransformation[NXdetector, SampleRun]&#45;&gt;EmptyDetector[SampleRun] -->
<g id="edge2" class="edge">
<title>NeXusTransformation[NXdetector, SampleRun]:e&#45;&gt;EmptyDetector[SampleRun]:w</title>
<path fill="none" stroke="black" d="M2251,-91.5C2281.04,-91.5 2287.93,-72.46 2312.9,-68.3"/>
<polygon fill="black" stroke="black" points="2313.31,-71.78 2323,-67.5 2312.76,-64.8 2313.31,-71.78"/>
</g>
<!-- Filename[SampleRun] -->
<g id="node6" class="node">
<title>Filename[SampleRun]</title>
<polygon fill="none" stroke="black" points="175,-64 0,-64 0,-41 175,-41 175,-64"/>
<text text-anchor="middle" x="87.5" y="-48.8" font-family="Times,serif" font-size="14.00">Filename[SampleRun]</text>
</g>
<!-- NeXusFileSpec[SampleRun] -->
<g id="node8" class="node">
<title>NeXusFileSpec[SampleRun]</title>
<polygon fill="none" stroke="black" points="464,-55 247,-55 247,-22 464,-22 464,-55"/>
<text text-anchor="start" x="255" y="-40.8" font-family="Times,serif" font-size="14.00">NeXusFileSpec[SampleRun]</text>
<text text-anchor="start" x="285.5" y="-29.2" font-family="Times,serif" font-size="11.00">via:</text>
<text text-anchor="start" x="306.5" y="-29.2" font-family="Times,serif" font-style="italic" font-size="11.00">file_path_to_file_spec</text>
</g>
<!-- Filename[SampleRun]&#45;&gt;NeXusFileSpec[SampleRun] -->
<g id="edge13" class="edge">
<title>Filename[SampleRun]:e&#45;&gt;NeXusFileSpec[SampleRun]:w</title>
<path fill="none" stroke="black" d="M175,-52.5C203.91,-52.5 212.53,-41.49 236.84,-39"/>
<polygon fill="black" stroke="black" points="237.18,-42.49 247,-38.5 236.84,-35.49 237.18,-42.49"/>
</g>
<!-- NeXusClass[NXdetector] -->
<g id="node7" class="node">
<title>NeXusClass[NXdetector]</title>
<polygon fill="none" stroke="black" points="844,-77 650,-77 650,-44 844,-44 844,-77"/>
<text text-anchor="start" x="658" y="-62.8" font-family="Times,serif" font-size="14.00">NeXusClass[NXdetector]</text>
<text text-anchor="start" x="676" y="-51.2" font-family="Times,serif" font-size="11.00">via:</text>
<text text-anchor="start" x="697" y="-51.2" font-family="Times,serif" font-style="italic" font-size="11.00">nx_class_for_detector</text>
</g>
<!-- NeXusClass[NXdetector]&#45;&gt;NeXusComponent[NXdetector, SampleRun] -->
<g id="edge8" class="edge">
<title>NeXusClass[NXdetector]:e&#45;&gt;NeXusComponent[NXdetector, SampleRun]:w</title>
<path fill="none" stroke="black" d="M845,-60.5C923.7,-60.5 945.89,-63.25 1019.73,-63.48"/>
<polygon fill="black" stroke="black" points="1019.99,-66.98 1030,-63.5 1020.01,-59.98 1019.99,-66.98"/>
</g>
<!-- NeXusComponentLocationSpec[NXdetector, SampleRun] -->
<g id="node9" class="node">
<title>NeXusComponentLocationSpec[NXdetector, SampleRun]</title>
<polygon fill="none" stroke="black" points="958,-40 536,-40 536,-7 958,-7 958,-40"/>
<text text-anchor="start" x="544" y="-25.8" font-family="Times,serif" font-size="14.00">NeXusComponentLocationSpec[NXdetector, SampleRun]</text>
<text text-anchor="start" x="663" y="-14.2" font-family="Times,serif" font-size="11.00">via:</text>
<text text-anchor="start" x="684" y="-14.2" font-family="Times,serif" font-style="italic" font-size="11.00">component_spec_by_name</text>
</g>
<!-- NeXusFileSpec[SampleRun]&#45;&gt;NeXusComponentLocationSpec[NXdetector, SampleRun] -->
<g id="edge5" class="edge">
<title>NeXusFileSpec[SampleRun]:e&#45;&gt;NeXusComponentLocationSpec[NXdetector, SampleRun]:w</title>
<path fill="none" stroke="black" d="M464,-38.5C492.98,-38.5 501.48,-26.71 525.82,-24.03"/>
<polygon fill="black" stroke="black" points="526.2,-27.52 536,-23.5 525.83,-20.53 526.2,-27.52"/>
</g>
<!-- NeXusDataLocationSpec[NXdetector, SampleRun] -->
<g id="node11" class="node">
<title>NeXusDataLocationSpec[NXdetector, SampleRun]</title>
<polygon fill="none" stroke="black" points="934,-114 560,-114 560,-81 934,-81 934,-114"/>
<text text-anchor="start" x="568" y="-99.8" font-family="Times,serif" font-size="14.00">NeXusDataLocationSpec[NXdetector, SampleRun]</text>
<text text-anchor="start" x="697" y="-88.2" font-family="Times,serif" font-size="11.00">via:</text>
<text text-anchor="start" x="718" y="-88.2" font-family="Times,serif" font-style="italic" font-size="11.00">data_by_name</text>
</g>
<!-- NeXusFileSpec[SampleRun]&#45;&gt;NeXusDataLocationSpec[NXdetector, SampleRun] -->
<g id="edge9" class="edge">
<title>NeXusFileSpec[SampleRun]:e&#45;&gt;NeXusDataLocationSpec[NXdetector, SampleRun]:w</title>
<path fill="none" stroke="black" d="M464,-38.5C510.01,-38.5 509.65,-89.07 548.78,-96.57"/>
<polygon fill="black" stroke="black" points="548.72,-100.08 559,-97.5 549.36,-93.11 548.72,-100.08"/>
</g>
<!-- NeXusComponentLocationSpec[NXdetector, SampleRun]&#45;&gt;NeXusComponent[NXdetector, SampleRun] -->
<g id="edge7" class="edge">
<title>NeXusComponentLocationSpec[NXdetector, SampleRun]:e&#45;&gt;NeXusComponent[NXdetector, SampleRun]:w</title>
<path fill="none" stroke="black" d="M958,-23.5C990.89,-23.5 993.25,-55.79 1019.94,-62.35"/>
<polygon fill="black" stroke="black" points="1019.67,-65.84 1030,-63.5 1020.46,-58.88 1019.67,-65.84"/>
</g>
<!-- NeXusName[NXdetector] -->
<g id="node10" class="node">
<title>NeXusName[NXdetector]</title>
<polygon fill="none" stroke="black" points="454,-87 257,-87 257,-64 454,-64 454,-87"/>
<text text-anchor="middle" x="355.5" y="-71.8" font-family="Times,serif" font-size="14.00">NeXusName[NXdetector]</text>
</g>
<!-- NeXusName[NXdetector]&#45;&gt;NeXusComponentLocationSpec[NXdetector, SampleRun] -->
<g id="edge6" class="edge">
<title>NeXusName[NXdetector]:e&#45;&gt;NeXusComponentLocationSpec[NXdetector, SampleRun]:w</title>
<path fill="none" stroke="black" d="M455.5,-75.5C494.43,-75.5 493.86,-32.05 526.01,-24.59"/>
<polygon fill="black" stroke="black" points="526.44,-28.06 536,-23.5 525.68,-21.1 526.44,-28.06"/>
</g>
<!-- NeXusName[NXdetector]&#45;&gt;NeXusDataLocationSpec[NXdetector, SampleRun] -->
<g id="edge10" class="edge">
<title>NeXusName[NXdetector]:e&#45;&gt;NeXusDataLocationSpec[NXdetector, SampleRun]:w</title>
<path fill="none" stroke="black" d="M455.5,-75.5C498.85,-75.5 510.27,-94.2 548.63,-97.12"/>
<polygon fill="black" stroke="black" points="548.88,-100.63 559,-97.5 549.14,-93.63 548.88,-100.63"/>
</g>
<!-- NeXusData[NXdetector, SampleRun] -->
<g id="node13" class="node">
<title>NeXusData[NXdetector, SampleRun]</title>
<polygon fill="none" stroke="black" points="1765,-162 1487,-162 1487,-129 1765,-129 1765,-162"/>
<text text-anchor="start" x="1495" y="-147.8" font-family="Times,serif" font-size="14.00">NeXusData[NXdetector, SampleRun]</text>
<text text-anchor="start" x="1569.5" y="-136.2" font-family="Times,serif" font-size="11.00">via:</text>
<text text-anchor="start" x="1590.5" y="-136.2" font-family="Times,serif" font-style="italic" font-size="11.00">load_nexus_data</text>
</g>
<!-- NeXusDataLocationSpec[NXdetector, SampleRun]&#45;&gt;NeXusData[NXdetector, SampleRun] -->
<g id="edge12" class="edge">
<title>NeXusDataLocationSpec[NXdetector, SampleRun]:e&#45;&gt;NeXusData[NXdetector, SampleRun]:w</title>
<path fill="none" stroke="black" d="M935,-97.5C1177.34,-97.5 1238.46,-144.15 1475.67,-145.47"/>
<polygon fill="black" stroke="black" points="1475.99,-148.97 1486,-145.5 1476.01,-141.97 1475.99,-148.97"/>
</g>
<!-- TimeInterval[SampleRun] -->
<g id="node12" class="node">
<title>TimeInterval[SampleRun]</title>
<polygon fill="none" stroke="black" points="455.5,-126 255.5,-126 255.5,-93 455.5,-93 455.5,-126"/>
<text text-anchor="start" x="263.5" y="-111.8" font-family="Times,serif" font-size="14.00">TimeInterval[SampleRun]</text>
<text text-anchor="start" x="296" y="-100.2" font-family="Times,serif" font-size="11.00">via:</text>
<text text-anchor="start" x="317" y="-100.2" font-family="Times,serif" font-style="italic" font-size="11.00">full_time_interval</text>
</g>
<!-- TimeInterval[SampleRun]&#45;&gt;NeXusTransformation[NXdetector, SampleRun] -->
<g id="edge17" class="edge">
<title>TimeInterval[SampleRun]:e&#45;&gt;NeXusTransformation[NXdetector, SampleRun]:w</title>
<path fill="none" stroke="black" d="M456.5,-109.5C491.9,-109.5 500.61,-113.39 536,-114.5 723.46,-120.39 770.44,-114.93 958,-114.5 1150.45,-114.06 1633.21,-135.7 1824,-110.5 1853.09,-106.66 1861.18,-94.69 1885.71,-92.03"/>
<polygon fill="black" stroke="black" points="1886.19,-95.51 1896,-91.5 1885.83,-88.52 1886.19,-95.51"/>
</g>
<!-- TimeInterval[SampleRun]&#45;&gt;NeXusDataLocationSpec[NXdetector, SampleRun] -->
<g id="edge11" class="edge">
<title>TimeInterval[SampleRun]:e&#45;&gt;NeXusDataLocationSpec[NXdetector, SampleRun]:w</title>
<path fill="none" stroke="black" d="M456.5,-109.5C498.78,-109.5 511.24,-99.3 548.86,-97.71"/>
<polygon fill="black" stroke="black" points="549.07,-101.2 559,-97.5 548.93,-94.21 549.07,-101.2"/>
</g>
<!-- NeXusData[NXdetector, SampleRun]&#45;&gt;RawDetector[SampleRun] -->
<g id="edge19" class="edge">
<title>NeXusData[NXdetector, SampleRun]:e&#45;&gt;RawDetector[SampleRun]:w</title>
<path fill="none" stroke="black" d="M1766,-145.5C2139.64,-145.5 2234.25,-98.36 2602.85,-97.51"/>
<polygon fill="black" stroke="black" points="2603,-101.01 2613,-97.5 2603,-94.01 2603,-101.01"/>
</g>
<!-- PreopenNeXusFile -->
<g id="node14" class="node">
<title>PreopenNeXusFile</title>
<polygon fill="none" stroke="black" points="162,-37 13,-37 13,-14 162,-14 162,-37"/>
<text text-anchor="middle" x="87.5" y="-21.8" font-family="Times,serif" font-size="14.00">PreopenNeXusFile</text>
</g>
<!-- PreopenNeXusFile&#45;&gt;NeXusFileSpec[SampleRun] -->
<g id="edge14" class="edge">
<title>PreopenNeXusFile:e&#45;&gt;NeXusFileSpec[SampleRun]:w</title>
<path fill="none" stroke="black" d="M162.5,-25.5C196.79,-25.5 207.06,-36.08 236.66,-38.15"/>
<polygon fill="black" stroke="black" points="236.89,-41.66 247,-38.5 237.12,-34.67 236.89,-41.66"/>
</g>
<!-- NeXusTransformationChain[NXdetector, SampleRun]&#45;&gt;NeXusTransformation[NXdetector, SampleRun] -->
<g id="edge16" class="edge">
<title>NeXusTransformationChain[NXdetector, SampleRun]:e&#45;&gt;NeXusTransformation[NXdetector, SampleRun]:w</title>
<path fill="none" stroke="black" d="M1824,-91.5C1852.38,-91.5 1861.88,-91.5 1885.98,-91.5"/>
<polygon fill="black" stroke="black" points="1886,-95 1896,-91.5 1886,-88 1886,-95"/>
</g>
</g>
</svg>
