<?xml version="1.0" encoding="UTF-8" standalone="no"?>
<!DOCTYPE svg PUBLIC "-//W3C//DTD SVG 1.1//EN"
 "http://www.w3.org/Graphics/SVG/1.1/DTD/svg11.dtd">
<!-- Generated by graphviz version 2.43.0 (0)
 -->
<!-- Title: %3 Pages: 1 -->
<svg width="1282pt" height="620pt"
 viewBox="0.00 0.00 1282.29 620.00" xmlns="http://www.w3.org/2000/svg" xmlns:xlink="http://www.w3.org/1999/xlink">
<g id="graph0" class="graph" transform="scale(1 1) rotate(0) translate(4 616)">
<title>%3</title>
<polygon fill="white" stroke="transparent" points="-4,4 -4,-616 1278.29,-616 1278.29,4 -4,4"/>
<!-- ess.imaging.io.separate_image_by_keys_AllImageStacks -->
<g id="node1" class="node">
<title>ess.imaging.io.separate_image_by_keys_AllImageStacks</title>
<ellipse fill="none" stroke="black" cx="124.79" cy="-234" rx="124.58" ry="18"/>
<text text-anchor="middle" x="124.79" y="-230.3" font-family="Times,serif" font-size="14.00">separate_image_by_keys</text>
</g>
<!-- AllImageStacks -->
<g id="node4" class="node">
<title>AllImageStacks</title>
<polygon fill="none" stroke="black" points="188.29,-180 61.29,-180 61.29,-144 188.29,-144 188.29,-180"/>
<text text-anchor="middle" x="124.79" y="-158.3" font-family="Times,serif" font-size="14.00">AllImageStacks</text>
</g>
<!-- ess.imaging.io.separate_image_by_keys_AllImageStacks&#45;&gt;AllImageStacks -->
<g id="edge3" class="edge">
<title>ess.imaging.io.separate_image_by_keys_AllImageStacks&#45;&gt;AllImageStacks</title>
<path fill="none" stroke="black" d="M124.79,-215.7C124.79,-207.98 124.79,-198.71 124.79,-190.11"/>
<polygon fill="black" stroke="black" points="128.29,-190.1 124.79,-180.1 121.29,-190.1 128.29,-190.1"/>
</g>
<!-- HistogramModeDetectorData -->
<g id="node2" class="node">
<title>HistogramModeDetectorData</title>
<polygon fill="none" stroke="black" points="595.79,-324 367.79,-324 367.79,-288 595.79,-288 595.79,-324"/>
<text text-anchor="middle" x="481.79" y="-302.3" font-family="Times,serif" font-size="14.00">HistogramModeDetectorData</text>
</g>
<!-- HistogramModeDetectorData&#45;&gt;ess.imaging.io.separate_image_by_keys_AllImageStacks -->
<g id="edge1" class="edge">
<title>HistogramModeDetectorData&#45;&gt;ess.imaging.io.separate_image_by_keys_AllImageStacks</title>
<path fill="none" stroke="black" d="M394.91,-287.97C337.18,-276.65 261.91,-261.89 205.49,-250.82"/>
<polygon fill="black" stroke="black" points="206.03,-247.36 195.54,-248.87 204.68,-254.23 206.03,-247.36"/>
</g>
<!-- ess.imaging.io.retrieve_dark_current_images_DarkCurrentImageStacks -->
<g id="node5" class="node">
<title>ess.imaging.io.retrieve_dark_current_images_DarkCurrentImageStacks</title>
<ellipse fill="none" stroke="black" cx="416.79" cy="-234" rx="149.47" ry="18"/>
<text text-anchor="middle" x="416.79" y="-230.3" font-family="Times,serif" font-size="14.00">retrieve_dark_current_images</text>
</g>
<!-- HistogramModeDetectorData&#45;&gt;ess.imaging.io.retrieve_dark_current_images_DarkCurrentImageStacks -->
<g id="edge4" class="edge">
<title>HistogramModeDetectorData&#45;&gt;ess.imaging.io.retrieve_dark_current_images_DarkCurrentImageStacks</title>
<path fill="none" stroke="black" d="M465.72,-287.7C457.85,-279.22 448.23,-268.86 439.62,-259.58"/>
<polygon fill="black" stroke="black" points="442.04,-257.05 432.67,-252.1 436.91,-261.81 442.04,-257.05"/>
</g>
<!-- ess.imaging.io.retrieve_open_beam_images_OpenBeamImageStacks -->
<g id="node19" class="node">
<title>ess.imaging.io.retrieve_open_beam_images_OpenBeamImageStacks</title>
<ellipse fill="none" stroke="black" cx="725.79" cy="-234" rx="141.88" ry="18"/>
<text text-anchor="middle" x="725.79" y="-230.3" font-family="Times,serif" font-size="14.00">retrieve_open_beam_images</text>
</g>
<!-- HistogramModeDetectorData&#45;&gt;ess.imaging.io.retrieve_open_beam_images_OpenBeamImageStacks -->
<g id="edge20" class="edge">
<title>HistogramModeDetectorData&#45;&gt;ess.imaging.io.retrieve_open_beam_images_OpenBeamImageStacks</title>
<path fill="none" stroke="black" d="M541.17,-287.97C577.55,-277.53 624.14,-264.16 661.41,-253.47"/>
<polygon fill="black" stroke="black" points="662.52,-256.79 671.16,-250.67 660.59,-250.06 662.52,-256.79"/>
</g>
<!-- ess.imaging.io.retrieve_sample_images_RawSampleImageStacks -->
<g id="node21" class="node">
<title>ess.imaging.io.retrieve_sample_images_RawSampleImageStacks</title>
<ellipse fill="none" stroke="black" cx="1008.79" cy="-234" rx="122.68" ry="18"/>
<text text-anchor="middle" x="1008.79" y="-230.3" font-family="Times,serif" font-size="14.00">retrieve_sample_images</text>
</g>
<!-- HistogramModeDetectorData&#45;&gt;ess.imaging.io.retrieve_sample_images_RawSampleImageStacks -->
<g id="edge23" class="edge">
<title>HistogramModeDetectorData&#45;&gt;ess.imaging.io.retrieve_sample_images_RawSampleImageStacks</title>
<path fill="none" stroke="black" d="M595.82,-289.85C689.8,-277.37 821.69,-259.85 910.94,-248"/>
<polygon fill="black" stroke="black" points="911.61,-251.44 921.06,-246.65 910.69,-244.5 911.61,-251.44"/>
</g>
<!-- ImageKeyLogs -->
<g id="node3" class="node">
<title>ImageKeyLogs</title>
<polygon fill="none" stroke="black" points="786.29,-324 665.29,-324 665.29,-288 786.29,-288 786.29,-324"/>
<text text-anchor="middle" x="725.79" y="-302.3" font-family="Times,serif" font-size="14.00">ImageKeyLogs</text>
</g>
<!-- ImageKeyLogs&#45;&gt;ess.imaging.io.separate_image_by_keys_AllImageStacks -->
<g id="edge2" class="edge">
<title>ImageKeyLogs&#45;&gt;ess.imaging.io.separate_image_by_keys_AllImageStacks</title>
<path fill="none" stroke="black" d="M665.22,-296.06C645.92,-293.32 624.48,-290.41 604.79,-288 451.32,-269.24 412.38,-269.73 258.79,-252 247.62,-250.71 235.93,-249.31 224.31,-247.88"/>
<polygon fill="black" stroke="black" points="224.49,-244.37 214.13,-246.62 223.63,-251.32 224.49,-244.37"/>
</g>
<!-- ImageKeyLogs&#45;&gt;ess.imaging.io.retrieve_dark_current_images_DarkCurrentImageStacks -->
<g id="edge5" class="edge">
<title>ImageKeyLogs&#45;&gt;ess.imaging.io.retrieve_dark_current_images_DarkCurrentImageStacks</title>
<path fill="none" stroke="black" d="M665.11,-291.25C615.99,-280.13 546.5,-264.38 493.52,-252.38"/>
<polygon fill="black" stroke="black" points="494.02,-248.91 483.49,-250.11 492.47,-255.73 494.02,-248.91"/>
</g>
<!-- ImageKeyLogs&#45;&gt;ess.imaging.io.retrieve_open_beam_images_OpenBeamImageStacks -->
<g id="edge21" class="edge">
<title>ImageKeyLogs&#45;&gt;ess.imaging.io.retrieve_open_beam_images_OpenBeamImageStacks</title>
<path fill="none" stroke="black" d="M725.79,-287.7C725.79,-279.98 725.79,-270.71 725.79,-262.11"/>
<polygon fill="black" stroke="black" points="729.29,-262.1 725.79,-252.1 722.29,-262.1 729.29,-262.1"/>
</g>
<!-- ImageKeyLogs&#45;&gt;ess.imaging.io.retrieve_sample_images_RawSampleImageStacks -->
<g id="edge24" class="edge">
<title>ImageKeyLogs&#45;&gt;ess.imaging.io.retrieve_sample_images_RawSampleImageStacks</title>
<path fill="none" stroke="black" d="M786.5,-289.98C831.38,-278.88 892.57,-263.75 939.39,-252.17"/>
<polygon fill="black" stroke="black" points="940.28,-255.55 949.15,-249.75 938.6,-248.76 940.28,-255.55"/>
</g>
<!-- DarkCurrentImageStacks -->
<g id="node6" class="node">
<title>DarkCurrentImageStacks</title>
<polygon fill="none" stroke="black" points="516.29,-180 317.29,-180 317.29,-144 516.29,-144 516.29,-180"/>
<text text-anchor="middle" x="416.79" y="-158.3" font-family="Times,serif" font-size="14.00">DarkCurrentImageStacks</text>
</g>
<!-- ess.imaging.io.retrieve_dark_current_images_DarkCurrentImageStacks&#45;&gt;DarkCurrentImageStacks -->
<g id="edge6" class="edge">
<title>ess.imaging.io.retrieve_dark_current_images_DarkCurrentImageStacks&#45;&gt;DarkCurrentImageStacks</title>
<path fill="none" stroke="black" d="M416.79,-215.7C416.79,-207.98 416.79,-198.71 416.79,-190.11"/>
<polygon fill="black" stroke="black" points="420.29,-190.1 416.79,-180.1 413.29,-190.1 420.29,-190.1"/>
</g>
<!-- FileLock -->
<g id="node7" class="node">
<title>FileLock</title>
<polygon fill="none" stroke="black" points="1037.29,-612 960.29,-612 960.29,-576 1037.29,-576 1037.29,-612"/>
<text text-anchor="middle" x="998.79" y="-590.3" font-family="Times,serif" font-size="14.00">FileLock</text>
</g>
<!-- ess.imaging.io.load_nexus_histogram_mode_detector_HistogramModeDetector -->
<g id="node9" class="node">
<title>ess.imaging.io.load_nexus_histogram_mode_detector_HistogramModeDetector</title>
<ellipse fill="none" stroke="black" cx="764.79" cy="-522" rx="186.57" ry="18"/>
<text text-anchor="middle" x="764.79" y="-518.3" font-family="Times,serif" font-size="14.00">load_nexus_histogram_mode_detector</text>
</g>
<!-- FileLock&#45;&gt;ess.imaging.io.load_nexus_histogram_mode_detector_HistogramModeDetector -->
<g id="edge10" class="edge">
<title>FileLock&#45;&gt;ess.imaging.io.load_nexus_histogram_mode_detector_HistogramModeDetector</title>
<path fill="none" stroke="black" d="M960.09,-579.06C956.95,-578 953.82,-576.97 950.79,-576 912.63,-563.82 869.65,-551.48 834.63,-541.78"/>
<polygon fill="black" stroke="black" points="835.54,-538.4 824.97,-539.12 833.68,-545.15 835.54,-538.4"/>
</g>
<!-- ess.imaging.io.load_nexus_rotation_logs_RotationLogs -->
<g id="node23" class="node">
<title>ess.imaging.io.load_nexus_rotation_logs_RotationLogs</title>
<ellipse fill="none" stroke="black" cx="1129.79" cy="-522" rx="126.98" ry="18"/>
<text text-anchor="middle" x="1129.79" y="-518.3" font-family="Times,serif" font-size="14.00">load_nexus_rotation_logs</text>
</g>
<!-- FileLock&#45;&gt;ess.imaging.io.load_nexus_rotation_logs_RotationLogs -->
<g id="edge28" class="edge">
<title>FileLock&#45;&gt;ess.imaging.io.load_nexus_rotation_logs_RotationLogs</title>
<path fill="none" stroke="black" d="M1030.84,-575.88C1048.67,-566.35 1071.03,-554.4 1089.98,-544.27"/>
<polygon fill="black" stroke="black" points="1091.81,-547.26 1098.98,-539.47 1088.51,-541.09 1091.81,-547.26"/>
</g>
<!-- FilePath -->
<g id="node8" class="node">
<title>FilePath</title>
<polygon fill="none" stroke="black" points="941.79,-612 865.79,-612 865.79,-576 941.79,-576 941.79,-612"/>
<text text-anchor="middle" x="903.79" y="-590.3" font-family="Times,serif" font-size="14.00">FilePath</text>
</g>
<!-- FilePath&#45;&gt;ess.imaging.io.load_nexus_histogram_mode_detector_HistogramModeDetector -->
<g id="edge7" class="edge">
<title>FilePath&#45;&gt;ess.imaging.io.load_nexus_histogram_mode_detector_HistogramModeDetector</title>
<path fill="none" stroke="black" d="M869.79,-575.88C851.05,-566.44 827.61,-554.64 807.64,-544.58"/>
<polygon fill="black" stroke="black" points="808.95,-541.32 798.44,-539.95 805.8,-547.57 808.95,-541.32"/>
</g>
<!-- FilePath&#45;&gt;ess.imaging.io.load_nexus_rotation_logs_RotationLogs -->
<g id="edge26" class="edge">
<title>FilePath&#45;&gt;ess.imaging.io.load_nexus_rotation_logs_RotationLogs</title>
<path fill="none" stroke="black" d="M941.98,-579.28C945.29,-578.15 948.59,-577.04 951.79,-576 989.46,-563.73 1031.97,-551.03 1066,-541.14"/>
<polygon fill="black" stroke="black" points="1067.19,-544.44 1075.82,-538.29 1065.24,-537.71 1067.19,-544.44"/>
</g>
<!-- HistogramModeDetector -->
<g id="node12" class="node">
<title>HistogramModeDetector</title>
<polygon fill="none" stroke="black" points="856.79,-468 662.79,-468 662.79,-432 856.79,-432 856.79,-468"/>
<text text-anchor="middle" x="759.79" y="-446.3" font-family="Times,serif" font-size="14.00">HistogramModeDetector</text>
</g>
<!-- ess.imaging.io.load_nexus_histogram_mode_detector_HistogramModeDetector&#45;&gt;HistogramModeDetector -->
<g id="edge11" class="edge">
<title>ess.imaging.io.load_nexus_histogram_mode_detector_HistogramModeDetector&#45;&gt;HistogramModeDetector</title>
<path fill="none" stroke="black" d="M763.55,-503.7C763,-495.98 762.34,-486.71 761.73,-478.11"/>
<polygon fill="black" stroke="black" points="765.21,-477.83 761.01,-468.1 758.23,-478.33 765.21,-477.83"/>
</g>
<!-- ImageDetectorName -->
<g id="node10" class="node">
<title>ImageDetectorName</title>
<polygon fill="none" stroke="black" points="847.29,-612 682.29,-612 682.29,-576 847.29,-576 847.29,-612"/>
<text text-anchor="middle" x="764.79" y="-590.3" font-family="Times,serif" font-size="14.00">ImageDetectorName</text>
</g>
<!-- ImageDetectorName&#45;&gt;ess.imaging.io.load_nexus_histogram_mode_detector_HistogramModeDetector -->
<g id="edge8" class="edge">
<title>ImageDetectorName&#45;&gt;ess.imaging.io.load_nexus_histogram_mode_detector_HistogramModeDetector</title>
<path fill="none" stroke="black" d="M764.79,-575.7C764.79,-567.98 764.79,-558.71 764.79,-550.11"/>
<polygon fill="black" stroke="black" points="768.29,-550.1 764.79,-540.1 761.29,-550.1 768.29,-550.1"/>
</g>
<!-- HistogramModeDetectorsPath -->
<g id="node11" class="node">
<title>HistogramModeDetectorsPath</title>
<polygon fill="none" stroke="black" points="663.79,-612 429.79,-612 429.79,-576 663.79,-576 663.79,-612"/>
<text text-anchor="middle" x="546.79" y="-590.3" font-family="Times,serif" font-size="14.00">HistogramModeDetectorsPath</text>
</g>
<!-- HistogramModeDetectorsPath&#45;&gt;ess.imaging.io.load_nexus_histogram_mode_detector_HistogramModeDetector -->
<g id="edge9" class="edge">
<title>HistogramModeDetectorsPath&#45;&gt;ess.imaging.io.load_nexus_histogram_mode_detector_HistogramModeDetector</title>
<path fill="none" stroke="black" d="M599.84,-575.97C631.25,-565.88 671.16,-553.06 703.86,-542.56"/>
<polygon fill="black" stroke="black" points="705.31,-545.78 713.76,-539.39 703.17,-539.11 705.31,-545.78"/>
</g>
<!-- ess.imaging.io.separate_detector_images_HistogramModeDetectorData -->
<g id="node13" class="node">
<title>ess.imaging.io.separate_detector_images_HistogramModeDetectorData</title>
<ellipse fill="none" stroke="black" cx="481.79" cy="-378" rx="131.88" ry="18"/>
<text text-anchor="middle" x="481.79" y="-374.3" font-family="Times,serif" font-size="14.00">separate_detector_images</text>
</g>
<!-- HistogramModeDetector&#45;&gt;ess.imaging.io.separate_detector_images_HistogramModeDetectorData -->
<g id="edge12" class="edge">
<title>HistogramModeDetector&#45;&gt;ess.imaging.io.separate_detector_images_HistogramModeDetectorData</title>
<path fill="none" stroke="black" d="M692.14,-431.97C649.49,-421.23 594.56,-407.39 551.52,-396.56"/>
<polygon fill="black" stroke="black" points="552.24,-393.13 541.69,-394.08 550.54,-399.92 552.24,-393.13"/>
</g>
<!-- ess.imaging.io.separate_image_key_logs_ImageKeyLogs -->
<g id="node18" class="node">
<title>ess.imaging.io.separate_image_key_logs_ImageKeyLogs</title>
<ellipse fill="none" stroke="black" cx="759.79" cy="-378" rx="128.08" ry="18"/>
<text text-anchor="middle" x="759.79" y="-374.3" font-family="Times,serif" font-size="14.00">separate_image_key_logs</text>
</g>
<!-- HistogramModeDetector&#45;&gt;ess.imaging.io.separate_image_key_logs_ImageKeyLogs -->
<g id="edge18" class="edge">
<title>HistogramModeDetector&#45;&gt;ess.imaging.io.separate_image_key_logs_ImageKeyLogs</title>
<path fill="none" stroke="black" d="M759.79,-431.7C759.79,-423.98 759.79,-414.71 759.79,-406.11"/>
<polygon fill="black" stroke="black" points="763.29,-406.1 759.79,-396.1 756.29,-406.1 763.29,-406.1"/>
</g>
<!-- ess.imaging.io.separate_detector_images_HistogramModeDetectorData&#45;&gt;HistogramModeDetectorData -->
<g id="edge17" class="edge">
<title>ess.imaging.io.separate_detector_images_HistogramModeDetectorData&#45;&gt;HistogramModeDetectorData</title>
<path fill="none" stroke="black" d="M481.79,-359.7C481.79,-351.98 481.79,-342.71 481.79,-334.11"/>
<polygon fill="black" stroke="black" points="485.29,-334.1 481.79,-324.1 478.29,-334.1 485.29,-334.1"/>
</g>
<!-- MinDim1 -->
<g id="node14" class="node">
<title>MinDim1</title>
<polygon fill="none" stroke="black" points="532.29,-468 449.29,-468 449.29,-432 532.29,-432 532.29,-468"/>
<text text-anchor="middle" x="490.79" y="-446.3" font-family="Times,serif" font-size="14.00">MinDim1</text>
</g>
<!-- MinDim1&#45;&gt;ess.imaging.io.separate_detector_images_HistogramModeDetectorData -->
<g id="edge13" class="edge">
<title>MinDim1&#45;&gt;ess.imaging.io.separate_detector_images_HistogramModeDetectorData</title>
<path fill="none" stroke="black" d="M488.56,-431.7C487.57,-423.98 486.38,-414.71 485.27,-406.11"/>
<polygon fill="black" stroke="black" points="488.73,-405.58 483.99,-396.1 481.79,-406.47 488.73,-405.58"/>
</g>
<!-- MaxDim1 -->
<g id="node15" class="node">
<title>MaxDim1</title>
<polygon fill="none" stroke="black" points="636.79,-468 550.79,-468 550.79,-432 636.79,-432 636.79,-468"/>
<text text-anchor="middle" x="593.79" y="-446.3" font-family="Times,serif" font-size="14.00">MaxDim1</text>
</g>
<!-- MaxDim1&#45;&gt;ess.imaging.io.separate_detector_images_HistogramModeDetectorData -->
<g id="edge14" class="edge">
<title>MaxDim1&#45;&gt;ess.imaging.io.separate_detector_images_HistogramModeDetectorData</title>
<path fill="none" stroke="black" d="M566.39,-431.88C551.53,-422.59 532.99,-411 517.06,-401.04"/>
<polygon fill="black" stroke="black" points="518.85,-398.04 508.52,-395.71 515.14,-403.97 518.85,-398.04"/>
</g>
<!-- MinDim2 -->
<g id="node16" class="node">
<title>MinDim2</title>
<polygon fill="none" stroke="black" points="326.29,-468 243.29,-468 243.29,-432 326.29,-432 326.29,-468"/>
<text text-anchor="middle" x="284.79" y="-446.3" font-family="Times,serif" font-size="14.00">MinDim2</text>
</g>
<!-- MinDim2&#45;&gt;ess.imaging.io.separate_detector_images_HistogramModeDetectorData -->
<g id="edge15" class="edge">
<title>MinDim2&#45;&gt;ess.imaging.io.separate_detector_images_HistogramModeDetectorData</title>
<path fill="none" stroke="black" d="M326.57,-434.15C355.84,-423.75 395.25,-409.75 427.04,-398.45"/>
<polygon fill="black" stroke="black" points="428.39,-401.69 436.64,-395.04 426.04,-395.09 428.39,-401.69"/>
</g>
<!-- MaxDim2 -->
<g id="node17" class="node">
<title>MaxDim2</title>
<polygon fill="none" stroke="black" points="430.79,-468 344.79,-468 344.79,-432 430.79,-432 430.79,-468"/>
<text text-anchor="middle" x="387.79" y="-446.3" font-family="Times,serif" font-size="14.00">MaxDim2</text>
</g>
<!-- MaxDim2&#45;&gt;ess.imaging.io.separate_detector_images_HistogramModeDetectorData -->
<g id="edge16" class="edge">
<title>MaxDim2&#45;&gt;ess.imaging.io.separate_detector_images_HistogramModeDetectorData</title>
<path fill="none" stroke="black" d="M411.02,-431.7C423.07,-422.73 437.93,-411.66 450.93,-401.98"/>
<polygon fill="black" stroke="black" points="453.21,-404.64 459.14,-395.86 449.03,-399.03 453.21,-404.64"/>
</g>
<!-- ess.imaging.io.separate_image_key_logs_ImageKeyLogs&#45;&gt;ImageKeyLogs -->
<g id="edge19" class="edge">
<title>ess.imaging.io.separate_image_key_logs_ImageKeyLogs&#45;&gt;ImageKeyLogs</title>
<path fill="none" stroke="black" d="M751.38,-359.7C747.51,-351.73 742.84,-342.1 738.55,-333.26"/>
<polygon fill="black" stroke="black" points="741.61,-331.57 734.1,-324.1 735.32,-334.63 741.61,-331.57"/>
</g>
<!-- OpenBeamImageStacks -->
<g id="node20" class="node">
<title>OpenBeamImageStacks</title>
<polygon fill="none" stroke="black" points="818.79,-180 632.79,-180 632.79,-144 818.79,-144 818.79,-180"/>
<text text-anchor="middle" x="725.79" y="-158.3" font-family="Times,serif" font-size="14.00">OpenBeamImageStacks</text>
</g>
<!-- ess.imaging.io.retrieve_open_beam_images_OpenBeamImageStacks&#45;&gt;OpenBeamImageStacks -->
<g id="edge22" class="edge">
<title>ess.imaging.io.retrieve_open_beam_images_OpenBeamImageStacks&#45;&gt;OpenBeamImageStacks</title>
<path fill="none" stroke="black" d="M725.79,-215.7C725.79,-207.98 725.79,-198.71 725.79,-190.11"/>
<polygon fill="black" stroke="black" points="729.29,-190.1 725.79,-180.1 722.29,-190.1 729.29,-190.1"/>
</g>
<!-- RawSampleImageStacks -->
<g id="node22" class="node">
<title>RawSampleImageStacks</title>
<polygon fill="none" stroke="black" points="1117.79,-180 925.79,-180 925.79,-144 1117.79,-144 1117.79,-180"/>
<text text-anchor="middle" x="1021.79" y="-158.3" font-family="Times,serif" font-size="14.00">RawSampleImageStacks</text>
</g>
<!-- ess.imaging.io.retrieve_sample_images_RawSampleImageStacks&#45;&gt;RawSampleImageStacks -->
<g id="edge25" class="edge">
<title>ess.imaging.io.retrieve_sample_images_RawSampleImageStacks&#45;&gt;RawSampleImageStacks</title>
<path fill="none" stroke="black" d="M1012,-215.7C1013.43,-207.98 1015.16,-198.71 1016.75,-190.11"/>
<polygon fill="black" stroke="black" points="1020.23,-190.58 1018.61,-180.1 1013.35,-189.3 1020.23,-190.58"/>
</g>
<!-- ess.imaging.io.apply_logs_as_coords_SampleImageStacksWithLogs -->
<g id="node26" class="node">
<title>ess.imaging.io.apply_logs_as_coords_SampleImageStacksWithLogs</title>
<ellipse fill="none" stroke="black" cx="1096.79" cy="-90" rx="109.38" ry="18"/>
<text text-anchor="middle" x="1096.79" y="-86.3" font-family="Times,serif" font-size="14.00">apply_logs_as_coords</text>
</g>
<!-- RawSampleImageStacks&#45;&gt;ess.imaging.io.apply_logs_as_coords_SampleImageStacksWithLogs -->
<g id="edge30" class="edge">
<title>RawSampleImageStacks&#45;&gt;ess.imaging.io.apply_logs_as_coords_SampleImageStacksWithLogs</title>
<path fill="none" stroke="black" d="M1040.33,-143.7C1049.66,-134.99 1061.12,-124.29 1071.27,-114.82"/>
<polygon fill="black" stroke="black" points="1073.8,-117.24 1078.72,-107.86 1069.02,-112.13 1073.8,-117.24"/>
</g>
<!-- RotationLogs -->
<g id="node25" class="node">
<title>RotationLogs</title>
<polygon fill="none" stroke="black" points="1198.29,-396 1087.29,-396 1087.29,-360 1198.29,-360 1198.29,-396"/>
<text text-anchor="middle" x="1142.79" y="-374.3" font-family="Times,serif" font-size="14.00">RotationLogs</text>
</g>
<!-- ess.imaging.io.load_nexus_rotation_logs_RotationLogs&#45;&gt;RotationLogs -->
<g id="edge29" class="edge">
<title>ess.imaging.io.load_nexus_rotation_logs_RotationLogs&#45;&gt;RotationLogs</title>
<path fill="none" stroke="black" d="M1131.36,-503.87C1133.57,-479.67 1137.64,-435.21 1140.28,-406.39"/>
<polygon fill="black" stroke="black" points="1143.79,-406.47 1141.22,-396.19 1136.82,-405.83 1143.79,-406.47"/>
</g>
<!-- RotationMotionSensorName -->
<g id="node24" class="node">
<title>RotationMotionSensorName</title>
<polygon fill="none" stroke="black" points="1274.29,-612 1055.29,-612 1055.29,-576 1274.29,-576 1274.29,-612"/>
<text text-anchor="middle" x="1164.79" y="-590.3" font-family="Times,serif" font-size="14.00">RotationMotionSensorName</text>
</g>
<!-- RotationMotionSensorName&#45;&gt;ess.imaging.io.load_nexus_rotation_logs_RotationLogs -->
<g id="edge27" class="edge">
<title>RotationMotionSensorName&#45;&gt;ess.imaging.io.load_nexus_rotation_logs_RotationLogs</title>
<path fill="none" stroke="black" d="M1156.14,-575.7C1152.15,-567.73 1147.34,-558.1 1142.92,-549.26"/>
<polygon fill="black" stroke="black" points="1145.94,-547.48 1138.34,-540.1 1139.68,-550.61 1145.94,-547.48"/>
</g>
<!-- RotationLogs&#45;&gt;ess.imaging.io.apply_logs_as_coords_SampleImageStacksWithLogs -->
<g id="edge31" class="edge">
<title>RotationLogs&#45;&gt;ess.imaging.io.apply_logs_as_coords_SampleImageStacksWithLogs</title>
<path fill="none" stroke="black" d="M1144.8,-359.94C1148.78,-320.49 1155.01,-220.46 1126.79,-144 1123.35,-134.68 1118.39,-125.05 1113.49,-116.61"/>
<polygon fill="black" stroke="black" points="1116.44,-114.73 1108.27,-107.98 1110.45,-118.35 1116.44,-114.73"/>
</g>
<!-- SampleImageStacksWithLogs -->
<g id="node27" class="node">
<title>SampleImageStacksWithLogs</title>
<polygon fill="none" stroke="black" points="1211.29,-36 982.29,-36 982.29,0 1211.29,0 1211.29,-36"/>
<text text-anchor="middle" x="1096.79" y="-14.3" font-family="Times,serif" font-size="14.00">SampleImageStacksWithLogs</text>
</g>
<!-- ess.imaging.io.apply_logs_as_coords_SampleImageStacksWithLogs&#45;&gt;SampleImageStacksWithLogs -->
<g id="edge32" class="edge">
<title>ess.imaging.io.apply_logs_as_coords_SampleImageStacksWithLogs&#45;&gt;SampleImageStacksWithLogs</title>
<path fill="none" stroke="black" d="M1096.79,-71.7C1096.79,-63.98 1096.79,-54.71 1096.79,-46.11"/>
<polygon fill="black" stroke="black" points="1100.29,-46.1 1096.79,-36.1 1093.29,-46.1 1100.29,-46.1"/>
</g>
</g>
</svg>
