<?xml version="1.0" encoding="utf-8" standalone="no"?>
<!DOCTYPE svg PUBLIC "-//W3C//DTD SVG 1.1//EN"
  "http://www.w3.org/Graphics/SVG/1.1/DTD/svg11.dtd">
<svg xmlns:xlink="http://www.w3.org/1999/xlink" width="401.690625pt" height="266.51625pt" viewBox="0 0 401.690625 266.51625" xmlns="http://www.w3.org/2000/svg" version="1.1">
 <metadata>
  <rdf:RDF xmlns:dc="http://purl.org/dc/elements/1.1/" xmlns:cc="http://creativecommons.org/ns#" xmlns:rdf="http://www.w3.org/1999/02/22-rdf-syntax-ns#">
   <cc:Work>
    <dc:type rdf:resource="http://purl.org/dc/dcmitype/StillImage"/>
    <dc:date>2024-12-13T13:31:49.292682</dc:date>
    <dc:format>image/svg+xml</dc:format>
    <dc:creator>
     <cc:Agent>
      <dc:title>Matplotlib v3.9.4, https://matplotlib.org/</dc:title>
     </cc:Agent>
    </dc:creator>
   </cc:Work>
  </rdf:RDF>
 </metadata>
 <defs>
  <style type="text/css">*{stroke-linejoin: round; stroke-linecap: butt}</style>
 </defs>
 <g id="figure_1">
  <g id="patch_1">
   <path d="M 0 266.51625 
L 401.690625 266.51625 
L 401.690625 0 
L 0 0 
z
" style="fill: #ffffff"/>
  </g>
  <g id="axes_1">
   <g id="patch_2">
    <path d="M 59.690625 228.96 
L 394.490625 228.96 
L 394.490625 7.2 
L 59.690625 7.2 
z
" style="fill: #ffffff"/>
   </g>
   <g id="matplotlib.axis_1">
    <g id="xtick_1">
     <g id="line2d_1">
      <defs>
       <path id="mf3765ce765" d="M 0 0 
L 0 3.5 
" style="stroke: #000000; stroke-width: 0.8"/>
      </defs>
      <g>
       <use xlink:href="#mf3765ce765" x="81.768646" y="228.96" style="stroke: #000000; stroke-width: 0.8"/>
      </g>
     </g>
     <g id="text_1">
      <!-- 20000 -->
      <g transform="translate(65.862396 243.558437) scale(0.1 -0.1)">
       <defs>
        <path id="DejaVuSans-32" d="M 1228 531 
L 3431 531 
L 3431 0 
L 469 0 
L 469 531 
Q 828 903 1448 1529 
Q 2069 2156 2228 2338 
Q 2531 2678 2651 2914 
Q 2772 3150 2772 3378 
Q 2772 3750 2511 3984 
Q 2250 4219 1831 4219 
Q 1534 4219 1204 4116 
Q 875 4013 500 3803 
L 500 4441 
Q 881 4594 1212 4672 
Q 1544 4750 1819 4750 
Q 2544 4750 2975 4387 
Q 3406 4025 3406 3419 
Q 3406 3131 3298 2873 
Q 3191 2616 2906 2266 
Q 2828 2175 2409 1742 
Q 1991 1309 1228 531 
z
" transform="scale(0.015625)"/>
        <path id="DejaVuSans-30" d="M 2034 4250 
Q 1547 4250 1301 3770 
Q 1056 3291 1056 2328 
Q 1056 1369 1301 889 
Q 1547 409 2034 409 
Q 2525 409 2770 889 
Q 3016 1369 3016 2328 
Q 3016 3291 2770 3770 
Q 2525 4250 2034 4250 
z
M 2034 4750 
Q 2819 4750 3233 4129 
Q 3647 3509 3647 2328 
Q 3647 1150 3233 529 
Q 2819 -91 2034 -91 
Q 1250 -91 836 529 
Q 422 1150 422 2328 
Q 422 3509 836 4129 
Q 1250 4750 2034 4750 
z
" transform="scale(0.015625)"/>
       </defs>
       <use xlink:href="#DejaVuSans-32"/>
       <use xlink:href="#DejaVuSans-30" x="63.623047"/>
       <use xlink:href="#DejaVuSans-30" x="127.246094"/>
       <use xlink:href="#DejaVuSans-30" x="190.869141"/>
       <use xlink:href="#DejaVuSans-30" x="254.492188"/>
      </g>
     </g>
    </g>
    <g id="xtick_2">
     <g id="line2d_2">
      <g>
       <use xlink:href="#mf3765ce765" x="129.274423" y="228.96" style="stroke: #000000; stroke-width: 0.8"/>
      </g>
     </g>
     <g id="text_2">
      <!-- 40000 -->
      <g transform="translate(113.368173 243.558437) scale(0.1 -0.1)">
       <defs>
        <path id="DejaVuSans-34" d="M 2419 4116 
L 825 1625 
L 2419 1625 
L 2419 4116 
z
M 2253 4666 
L 3047 4666 
L 3047 1625 
L 3713 1625 
L 3713 1100 
L 3047 1100 
L 3047 0 
L 2419 0 
L 2419 1100 
L 313 1100 
L 313 1709 
L 2253 4666 
z
" transform="scale(0.015625)"/>
       </defs>
       <use xlink:href="#DejaVuSans-34"/>
       <use xlink:href="#DejaVuSans-30" x="63.623047"/>
       <use xlink:href="#DejaVuSans-30" x="127.246094"/>
       <use xlink:href="#DejaVuSans-30" x="190.869141"/>
       <use xlink:href="#DejaVuSans-30" x="254.492188"/>
      </g>
     </g>
    </g>
    <g id="xtick_3">
     <g id="line2d_3">
      <g>
       <use xlink:href="#mf3765ce765" x="176.780201" y="228.96" style="stroke: #000000; stroke-width: 0.8"/>
      </g>
     </g>
     <g id="text_3">
      <!-- 60000 -->
      <g transform="translate(160.873951 243.558437) scale(0.1 -0.1)">
       <defs>
        <path id="DejaVuSans-36" d="M 2113 2584 
Q 1688 2584 1439 2293 
Q 1191 2003 1191 1497 
Q 1191 994 1439 701 
Q 1688 409 2113 409 
Q 2538 409 2786 701 
Q 3034 994 3034 1497 
Q 3034 2003 2786 2293 
Q 2538 2584 2113 2584 
z
M 3366 4563 
L 3366 3988 
Q 3128 4100 2886 4159 
Q 2644 4219 2406 4219 
Q 1781 4219 1451 3797 
Q 1122 3375 1075 2522 
Q 1259 2794 1537 2939 
Q 1816 3084 2150 3084 
Q 2853 3084 3261 2657 
Q 3669 2231 3669 1497 
Q 3669 778 3244 343 
Q 2819 -91 2113 -91 
Q 1303 -91 875 529 
Q 447 1150 447 2328 
Q 447 3434 972 4092 
Q 1497 4750 2381 4750 
Q 2619 4750 2861 4703 
Q 3103 4656 3366 4563 
z
" transform="scale(0.015625)"/>
       </defs>
       <use xlink:href="#DejaVuSans-36"/>
       <use xlink:href="#DejaVuSans-30" x="63.623047"/>
       <use xlink:href="#DejaVuSans-30" x="127.246094"/>
       <use xlink:href="#DejaVuSans-30" x="190.869141"/>
       <use xlink:href="#DejaVuSans-30" x="254.492188"/>
      </g>
     </g>
    </g>
    <g id="xtick_4">
     <g id="line2d_4">
      <g>
       <use xlink:href="#mf3765ce765" x="224.285979" y="228.96" style="stroke: #000000; stroke-width: 0.8"/>
      </g>
     </g>
     <g id="text_4">
      <!-- 80000 -->
      <g transform="translate(208.379729 243.558437) scale(0.1 -0.1)">
       <defs>
        <path id="DejaVuSans-38" d="M 2034 2216 
Q 1584 2216 1326 1975 
Q 1069 1734 1069 1313 
Q 1069 891 1326 650 
Q 1584 409 2034 409 
Q 2484 409 2743 651 
Q 3003 894 3003 1313 
Q 3003 1734 2745 1975 
Q 2488 2216 2034 2216 
z
M 1403 2484 
Q 997 2584 770 2862 
Q 544 3141 544 3541 
Q 544 4100 942 4425 
Q 1341 4750 2034 4750 
Q 2731 4750 3128 4425 
Q 3525 4100 3525 3541 
Q 3525 3141 3298 2862 
Q 3072 2584 2669 2484 
Q 3125 2378 3379 2068 
Q 3634 1759 3634 1313 
Q 3634 634 3220 271 
Q 2806 -91 2034 -91 
Q 1263 -91 848 271 
Q 434 634 434 1313 
Q 434 1759 690 2068 
Q 947 2378 1403 2484 
z
M 1172 3481 
Q 1172 3119 1398 2916 
Q 1625 2713 2034 2713 
Q 2441 2713 2670 2916 
Q 2900 3119 2900 3481 
Q 2900 3844 2670 4047 
Q 2441 4250 2034 4250 
Q 1625 4250 1398 4047 
Q 1172 3844 1172 3481 
z
" transform="scale(0.015625)"/>
       </defs>
       <use xlink:href="#DejaVuSans-38"/>
       <use xlink:href="#DejaVuSans-30" x="63.623047"/>
       <use xlink:href="#DejaVuSans-30" x="127.246094"/>
       <use xlink:href="#DejaVuSans-30" x="190.869141"/>
       <use xlink:href="#DejaVuSans-30" x="254.492188"/>
      </g>
     </g>
    </g>
    <g id="xtick_5">
     <g id="line2d_5">
      <g>
       <use xlink:href="#mf3765ce765" x="271.791757" y="228.96" style="stroke: #000000; stroke-width: 0.8"/>
      </g>
     </g>
     <g id="text_5">
      <!-- 100000 -->
      <g transform="translate(252.704257 243.558437) scale(0.1 -0.1)">
       <defs>
        <path id="DejaVuSans-31" d="M 794 531 
L 1825 531 
L 1825 4091 
L 703 3866 
L 703 4441 
L 1819 4666 
L 2450 4666 
L 2450 531 
L 3481 531 
L 3481 0 
L 794 0 
L 794 531 
z
" transform="scale(0.015625)"/>
       </defs>
       <use xlink:href="#DejaVuSans-31"/>
       <use xlink:href="#DejaVuSans-30" x="63.623047"/>
       <use xlink:href="#DejaVuSans-30" x="127.246094"/>
       <use xlink:href="#DejaVuSans-30" x="190.869141"/>
       <use xlink:href="#DejaVuSans-30" x="254.492188"/>
       <use xlink:href="#DejaVuSans-30" x="318.115234"/>
      </g>
     </g>
    </g>
    <g id="xtick_6">
     <g id="line2d_6">
      <g>
       <use xlink:href="#mf3765ce765" x="319.297534" y="228.96" style="stroke: #000000; stroke-width: 0.8"/>
      </g>
     </g>
     <g id="text_6">
      <!-- 120000 -->
      <g transform="translate(300.210034 243.558437) scale(0.1 -0.1)">
       <use xlink:href="#DejaVuSans-31"/>
       <use xlink:href="#DejaVuSans-32" x="63.623047"/>
       <use xlink:href="#DejaVuSans-30" x="127.246094"/>
       <use xlink:href="#DejaVuSans-30" x="190.869141"/>
       <use xlink:href="#DejaVuSans-30" x="254.492188"/>
       <use xlink:href="#DejaVuSans-30" x="318.115234"/>
      </g>
     </g>
    </g>
    <g id="xtick_7">
     <g id="line2d_7">
      <g>
       <use xlink:href="#mf3765ce765" x="366.803312" y="228.96" style="stroke: #000000; stroke-width: 0.8"/>
      </g>
     </g>
     <g id="text_7">
      <!-- 140000 -->
      <g transform="translate(347.715812 243.558437) scale(0.1 -0.1)">
       <use xlink:href="#DejaVuSans-31"/>
       <use xlink:href="#DejaVuSans-34" x="63.623047"/>
       <use xlink:href="#DejaVuSans-30" x="127.246094"/>
       <use xlink:href="#DejaVuSans-30" x="190.869141"/>
       <use xlink:href="#DejaVuSans-30" x="254.492188"/>
       <use xlink:href="#DejaVuSans-30" x="318.115234"/>
      </g>
     </g>
    </g>
    <g id="text_8">
     <!-- tof [µs] -->
     <g transform="translate(209.034375 257.236562) scale(0.1 -0.1)">
      <defs>
       <path id="DejaVuSans-74" d="M 1172 4494 
L 1172 3500 
L 2356 3500 
L 2356 3053 
L 1172 3053 
L 1172 1153 
Q 1172 725 1289 603 
Q 1406 481 1766 481 
L 2356 481 
L 2356 0 
L 1766 0 
Q 1100 0 847 248 
Q 594 497 594 1153 
L 594 3053 
L 172 3053 
L 172 3500 
L 594 3500 
L 594 4494 
L 1172 4494 
z
" transform="scale(0.015625)"/>
       <path id="DejaVuSans-6f" d="M 1959 3097 
Q 1497 3097 1228 2736 
Q 959 2375 959 1747 
Q 959 1119 1226 758 
Q 1494 397 1959 397 
Q 2419 397 2687 759 
Q 2956 1122 2956 1747 
Q 2956 2369 2687 2733 
Q 2419 3097 1959 3097 
z
M 1959 3584 
Q 2709 3584 3137 3096 
Q 3566 2609 3566 1747 
Q 3566 888 3137 398 
Q 2709 -91 1959 -91 
Q 1206 -91 779 398 
Q 353 888 353 1747 
Q 353 2609 779 3096 
Q 1206 3584 1959 3584 
z
" transform="scale(0.015625)"/>
       <path id="DejaVuSans-66" d="M 2375 4863 
L 2375 4384 
L 1825 4384 
Q 1516 4384 1395 4259 
Q 1275 4134 1275 3809 
L 1275 3500 
L 2222 3500 
L 2222 3053 
L 1275 3053 
L 1275 0 
L 697 0 
L 697 3053 
L 147 3053 
L 147 3500 
L 697 3500 
L 697 3744 
Q 697 4328 969 4595 
Q 1241 4863 1831 4863 
L 2375 4863 
z
" transform="scale(0.015625)"/>
       <path id="DejaVuSans-20" transform="scale(0.015625)"/>
       <path id="DejaVuSans-5b" d="M 550 4863 
L 1875 4863 
L 1875 4416 
L 1125 4416 
L 1125 -397 
L 1875 -397 
L 1875 -844 
L 550 -844 
L 550 4863 
z
" transform="scale(0.015625)"/>
       <path id="DejaVuSans-b5" d="M 544 -1331 
L 544 3500 
L 1119 3500 
L 1119 1325 
Q 1119 872 1334 640 
Q 1550 409 1972 409 
Q 2434 409 2667 671 
Q 2900 934 2900 1459 
L 2900 3500 
L 3475 3500 
L 3475 806 
Q 3475 619 3529 530 
Q 3584 441 3700 441 
Q 3728 441 3778 458 
Q 3828 475 3916 513 
L 3916 50 
Q 3788 -22 3673 -56 
Q 3559 -91 3450 -91 
Q 3234 -91 3106 31 
Q 2978 153 2931 403 
Q 2775 156 2548 32 
Q 2322 -91 2016 -91 
Q 1697 -91 1473 31 
Q 1250 153 1119 397 
L 1119 -1331 
L 544 -1331 
z
" transform="scale(0.015625)"/>
       <path id="DejaVuSans-73" d="M 2834 3397 
L 2834 2853 
Q 2591 2978 2328 3040 
Q 2066 3103 1784 3103 
Q 1356 3103 1142 2972 
Q 928 2841 928 2578 
Q 928 2378 1081 2264 
Q 1234 2150 1697 2047 
L 1894 2003 
Q 2506 1872 2764 1633 
Q 3022 1394 3022 966 
Q 3022 478 2636 193 
Q 2250 -91 1575 -91 
Q 1294 -91 989 -36 
Q 684 19 347 128 
L 347 722 
Q 666 556 975 473 
Q 1284 391 1588 391 
Q 1994 391 2212 530 
Q 2431 669 2431 922 
Q 2431 1156 2273 1281 
Q 2116 1406 1581 1522 
L 1381 1569 
Q 847 1681 609 1914 
Q 372 2147 372 2553 
Q 372 3047 722 3315 
Q 1072 3584 1716 3584 
Q 2034 3584 2315 3537 
Q 2597 3491 2834 3397 
z
" transform="scale(0.015625)"/>
       <path id="DejaVuSans-5d" d="M 1947 4863 
L 1947 -844 
L 622 -844 
L 622 -397 
L 1369 -397 
L 1369 4416 
L 622 4416 
L 622 4863 
L 1947 4863 
z
" transform="scale(0.015625)"/>
      </defs>
      <use xlink:href="#DejaVuSans-74"/>
      <use xlink:href="#DejaVuSans-6f" x="39.208984"/>
      <use xlink:href="#DejaVuSans-66" x="100.390625"/>
      <use xlink:href="#DejaVuSans-20" x="135.595703"/>
      <use xlink:href="#DejaVuSans-5b" x="167.382812"/>
      <use xlink:href="#DejaVuSans-b5" x="206.396484"/>
      <use xlink:href="#DejaVuSans-73" x="270.019531"/>
      <use xlink:href="#DejaVuSans-5d" x="322.119141"/>
     </g>
    </g>
   </g>
   <g id="matplotlib.axis_2">
    <g id="ytick_1">
     <g id="line2d_8">
      <defs>
       <path id="m1e48c723f6" d="M 0 0 
L -3.5 0 
" style="stroke: #000000; stroke-width: 0.8"/>
      </defs>
      <g>
       <use xlink:href="#m1e48c723f6" x="59.690625" y="218.928525" style="stroke: #000000; stroke-width: 0.8"/>
      </g>
     </g>
     <g id="text_9">
      <!-- 0 -->
      <g transform="translate(46.328125 222.727744) scale(0.1 -0.1)">
       <use xlink:href="#DejaVuSans-30"/>
      </g>
     </g>
    </g>
    <g id="ytick_2">
     <g id="line2d_9">
      <g>
       <use xlink:href="#m1e48c723f6" x="59.690625" y="170.403414" style="stroke: #000000; stroke-width: 0.8"/>
      </g>
     </g>
     <g id="text_10">
      <!-- 20000 -->
      <g transform="translate(20.878125 174.202633) scale(0.1 -0.1)">
       <use xlink:href="#DejaVuSans-32"/>
       <use xlink:href="#DejaVuSans-30" x="63.623047"/>
       <use xlink:href="#DejaVuSans-30" x="127.246094"/>
       <use xlink:href="#DejaVuSans-30" x="190.869141"/>
       <use xlink:href="#DejaVuSans-30" x="254.492188"/>
      </g>
     </g>
    </g>
    <g id="ytick_3">
     <g id="line2d_10">
      <g>
       <use xlink:href="#m1e48c723f6" x="59.690625" y="121.878303" style="stroke: #000000; stroke-width: 0.8"/>
      </g>
     </g>
     <g id="text_11">
      <!-- 40000 -->
      <g transform="translate(20.878125 125.677522) scale(0.1 -0.1)">
       <use xlink:href="#DejaVuSans-34"/>
       <use xlink:href="#DejaVuSans-30" x="63.623047"/>
       <use xlink:href="#DejaVuSans-30" x="127.246094"/>
       <use xlink:href="#DejaVuSans-30" x="190.869141"/>
       <use xlink:href="#DejaVuSans-30" x="254.492188"/>
      </g>
     </g>
    </g>
    <g id="ytick_4">
     <g id="line2d_11">
      <g>
       <use xlink:href="#m1e48c723f6" x="59.690625" y="73.353192" style="stroke: #000000; stroke-width: 0.8"/>
      </g>
     </g>
     <g id="text_12">
      <!-- 60000 -->
      <g transform="translate(20.878125 77.152411) scale(0.1 -0.1)">
       <use xlink:href="#DejaVuSans-36"/>
       <use xlink:href="#DejaVuSans-30" x="63.623047"/>
       <use xlink:href="#DejaVuSans-30" x="127.246094"/>
       <use xlink:href="#DejaVuSans-30" x="190.869141"/>
       <use xlink:href="#DejaVuSans-30" x="254.492188"/>
      </g>
     </g>
    </g>
    <g id="ytick_5">
     <g id="line2d_12">
      <g>
       <use xlink:href="#m1e48c723f6" x="59.690625" y="24.828081" style="stroke: #000000; stroke-width: 0.8"/>
      </g>
     </g>
     <g id="text_13">
      <!-- 80000 -->
      <g transform="translate(20.878125 28.6273) scale(0.1 -0.1)">
       <use xlink:href="#DejaVuSans-38"/>
       <use xlink:href="#DejaVuSans-30" x="63.623047"/>
       <use xlink:href="#DejaVuSans-30" x="127.246094"/>
       <use xlink:href="#DejaVuSans-30" x="190.869141"/>
       <use xlink:href="#DejaVuSans-30" x="254.492188"/>
      </g>
     </g>
    </g>
    <g id="text_14">
     <!-- [counts] -->
     <g transform="translate(14.798438 138.6925) rotate(-90) scale(0.1 -0.1)">
      <defs>
       <path id="DejaVuSans-63" d="M 3122 3366 
L 3122 2828 
Q 2878 2963 2633 3030 
Q 2388 3097 2138 3097 
Q 1578 3097 1268 2742 
Q 959 2388 959 1747 
Q 959 1106 1268 751 
Q 1578 397 2138 397 
Q 2388 397 2633 464 
Q 2878 531 3122 666 
L 3122 134 
Q 2881 22 2623 -34 
Q 2366 -91 2075 -91 
Q 1284 -91 818 406 
Q 353 903 353 1747 
Q 353 2603 823 3093 
Q 1294 3584 2113 3584 
Q 2378 3584 2631 3529 
Q 2884 3475 3122 3366 
z
" transform="scale(0.015625)"/>
       <path id="DejaVuSans-75" d="M 544 1381 
L 544 3500 
L 1119 3500 
L 1119 1403 
Q 1119 906 1312 657 
Q 1506 409 1894 409 
Q 2359 409 2629 706 
Q 2900 1003 2900 1516 
L 2900 3500 
L 3475 3500 
L 3475 0 
L 2900 0 
L 2900 538 
Q 2691 219 2414 64 
Q 2138 -91 1772 -91 
Q 1169 -91 856 284 
Q 544 659 544 1381 
z
M 1991 3584 
L 1991 3584 
z
" transform="scale(0.015625)"/>
       <path id="DejaVuSans-6e" d="M 3513 2113 
L 3513 0 
L 2938 0 
L 2938 2094 
Q 2938 2591 2744 2837 
Q 2550 3084 2163 3084 
Q 1697 3084 1428 2787 
Q 1159 2491 1159 1978 
L 1159 0 
L 581 0 
L 581 3500 
L 1159 3500 
L 1159 2956 
Q 1366 3272 1645 3428 
Q 1925 3584 2291 3584 
Q 2894 3584 3203 3211 
Q 3513 2838 3513 2113 
z
" transform="scale(0.015625)"/>
      </defs>
      <use xlink:href="#DejaVuSans-5b"/>
      <use xlink:href="#DejaVuSans-63" x="39.013672"/>
      <use xlink:href="#DejaVuSans-6f" x="93.994141"/>
      <use xlink:href="#DejaVuSans-75" x="155.175781"/>
      <use xlink:href="#DejaVuSans-6e" x="218.554688"/>
      <use xlink:href="#DejaVuSans-74" x="281.933594"/>
      <use xlink:href="#DejaVuSans-73" x="321.142578"/>
      <use xlink:href="#DejaVuSans-5d" x="373.242188"/>
     </g>
    </g>
   </g>
   <g id="patch_3">
    <path d="M 59.690625 228.96 
L 59.690625 7.2 
" style="fill: none; stroke: #000000; stroke-width: 0.8; stroke-linejoin: miter; stroke-linecap: square"/>
   </g>
   <g id="patch_4">
    <path d="M 394.490625 228.96 
L 394.490625 7.2 
" style="fill: none; stroke: #000000; stroke-width: 0.8; stroke-linejoin: miter; stroke-linecap: square"/>
   </g>
   <g id="patch_5">
    <path d="M 59.690625 228.96 
L 394.490625 228.96 
" style="fill: none; stroke: #000000; stroke-width: 0.8; stroke-linejoin: miter; stroke-linecap: square"/>
   </g>
   <g id="patch_6">
    <path d="M 59.690625 7.2 
L 394.490625 7.2 
" style="fill: none; stroke: #000000; stroke-width: 0.8; stroke-linejoin: miter; stroke-linecap: square"/>
   </g>
   <g id="line2d_13">
    <path d="M 74.908807 214.677725 
L 75.923352 214.677725 
L 75.923352 205.906812 
L 76.937898 205.906812 
L 76.937898 191.997088 
L 77.952443 191.997088 
L 77.952443 172.917015 
L 78.966989 172.917015 
L 78.966989 161.06233 
L 79.981534 161.06233 
L 79.981534 151.980856 
L 80.99608 151.980856 
L 80.99608 143.474404 
L 82.010625 143.474404 
L 82.010625 131.45716 
L 83.02517 131.45716 
L 83.02517 121.985058 
L 84.039716 121.985058 
L 84.039716 119.714083 
L 85.054261 119.714083 
L 85.054261 125.221683 
L 86.068807 125.221683 
L 86.068807 117.37032 
L 87.083352 117.37032 
L 87.083352 122.739624 
L 88.097898 122.739624 
L 88.097898 120.65547 
L 90.126989 120.711274 
L 90.126989 125.79428 
L 91.141534 125.79428 
L 91.141534 122.482441 
L 92.15608 122.482441 
L 92.15608 122.118502 
L 93.170625 122.118502 
L 93.170625 116.006765 
L 94.18517 116.006765 
L 94.18517 116.433786 
L 95.199716 116.433786 
L 95.199716 104.212736 
L 96.214261 104.212736 
L 96.214261 123.038053 
L 97.228807 123.038053 
L 97.228807 116.68369 
L 98.243352 116.68369 
L 98.243352 128.56749 
L 99.257898 128.56749 
L 99.257898 130.671053 
L 100.272443 130.671053 
L 100.272443 130.108162 
L 101.286989 130.108162 
L 101.286989 128.848935 
L 102.301534 128.848935 
L 102.301534 131.709491 
L 103.31608 131.709491 
L 103.31608 140.26932 
L 104.330625 140.26932 
L 104.330625 132.726092 
L 105.34517 132.726092 
L 105.34517 123.462648 
L 106.359716 123.462648 
L 106.359716 123.702847 
L 107.374261 123.702847 
L 107.374261 135.44835 
L 108.388807 135.44835 
L 108.388807 130.33623 
L 109.403352 130.33623 
L 109.403352 129.491893 
L 110.417898 129.491893 
L 110.417898 136.8483 
L 111.432443 136.8483 
L 111.432443 130.185802 
L 112.446989 130.185802 
L 112.446989 134.89759 
L 113.461534 134.89759 
L 113.461534 124.384625 
L 114.47608 124.384625 
L 114.47608 128.81982 
L 115.490625 128.81982 
L 115.490625 137.192828 
L 116.50517 137.192828 
L 116.50517 132.747928 
L 117.519716 132.747928 
L 117.519716 130.207638 
L 118.534261 130.207638 
L 118.534261 123.909079 
L 119.548807 123.909079 
L 119.548807 131.966674 
L 120.563352 131.966674 
L 120.563352 122.560081 
L 121.577898 122.560081 
L 121.577898 133.735414 
L 122.592443 133.735414 
L 122.592443 131.498406 
L 123.606989 131.498406 
L 123.606989 147.764024 
L 124.621534 147.764024 
L 124.621534 171.832479 
L 125.63608 171.832479 
L 125.63608 169.289763 
L 126.650625 169.289763 
L 126.650625 193.663926 
L 127.66517 193.663926 
L 127.66517 204.548108 
L 128.679716 204.548108 
L 128.679716 212.654228 
L 129.694261 212.654228 
L 129.694261 215.839902 
L 130.708807 215.839902 
L 130.708807 197.985087 
L 131.723352 197.985087 
L 131.723352 172.439042 
L 132.737898 172.439042 
L 132.737898 143.571454 
L 133.752443 143.571454 
L 133.752443 114.71357 
L 134.766989 114.71357 
L 134.766989 112.119903 
L 135.781534 112.119903 
L 135.781534 56.160745 
L 136.79608 56.160745 
L 136.79608 44.274519 
L 137.810625 44.274519 
L 137.810625 35.668591 
L 138.82517 35.668591 
L 138.82517 20.611249 
L 139.839716 20.611249 
L 139.839716 40.620578 
L 140.854261 40.620578 
L 140.854261 55.964219 
L 141.868807 55.964219 
L 141.868807 41.217437 
L 142.883352 41.217437 
L 142.883352 46.06267 
L 143.897898 46.06267 
L 143.897898 29.418557 
L 144.912443 29.418557 
L 144.912443 17.28 
L 145.926989 17.28 
L 145.926989 22.913765 
L 146.941534 22.913765 
L 146.941534 27.635259 
L 147.95608 27.635259 
L 147.95608 35.688001 
L 148.970625 35.688001 
L 148.970625 24.794113 
L 149.98517 24.794113 
L 149.98517 41.496457 
L 150.999716 41.496457 
L 150.999716 43.209393 
L 152.014261 43.209393 
L 152.014261 33.552896 
L 153.028807 33.552896 
L 153.028807 33.147711 
L 155.057898 33.247188 
L 155.057898 37.379101 
L 156.072443 37.379101 
L 156.072443 51.169938 
L 157.086989 51.169938 
L 157.086989 32.293669 
L 158.101534 32.293669 
L 158.101534 57.747516 
L 159.11608 57.747516 
L 159.11608 35.819019 
L 160.130625 35.819019 
L 160.130625 42.976473 
L 161.14517 42.976473 
L 161.14517 45.713289 
L 162.159716 45.713289 
L 162.159716 52.128308 
L 163.174261 52.128308 
L 163.174261 69.408101 
L 164.188807 69.408101 
L 164.188807 52.327261 
L 165.203352 52.327261 
L 165.203352 68.942259 
L 166.217898 68.942259 
L 166.217898 66.853253 
L 167.232443 66.853253 
L 167.232443 79.081581 
L 168.246989 79.081581 
L 168.246989 69.796301 
L 169.261534 69.796301 
L 169.261534 72.591348 
L 170.27608 72.591348 
L 170.27608 68.942259 
L 171.290625 68.942259 
L 171.290625 98.899237 
L 172.30517 98.899237 
L 172.30517 89.696449 
L 173.319716 89.696449 
L 173.319716 97.055283 
L 174.334261 97.055283 
L 174.334261 117.676028 
L 175.348807 117.676028 
L 175.348807 111.605537 
L 176.363352 111.605537 
L 176.363352 124.532627 
L 177.377898 124.532627 
L 177.377898 139.002815 
L 178.392443 139.002815 
L 178.392443 160.130648 
L 179.406989 160.130648 
L 179.406989 170.80132 
L 180.421534 170.80132 
L 180.421534 183.820607 
L 181.43608 183.820607 
L 181.43608 201.918047 
L 182.450625 201.918047 
L 182.450625 209.133731 
L 183.46517 209.133731 
L 183.46517 207.544534 
L 184.479716 207.544534 
L 184.479716 195.19732 
L 185.494261 195.19732 
L 185.494261 177.626377 
L 186.508807 177.626377 
L 186.508807 162.966941 
L 187.523352 162.966941 
L 187.523352 138.847534 
L 188.537898 138.847534 
L 188.537898 82.623915 
L 189.552443 82.623915 
L 189.552443 44.68213 
L 190.566989 44.68213 
L 190.566989 37.63871 
L 191.581534 37.63871 
L 191.581534 25.648155 
L 192.59608 25.648155 
L 192.59608 39.982473 
L 193.610625 39.982473 
L 193.610625 31.015033 
L 194.62517 31.015033 
L 194.62517 38.813018 
L 195.639716 38.813018 
L 195.639716 38.116683 
L 196.654261 38.116683 
L 196.654261 34.625301 
L 197.668807 34.625301 
L 197.668807 36.44014 
L 198.683352 36.44014 
L 198.683352 31.798713 
L 199.697898 31.798713 
L 199.697898 43.192409 
L 200.712443 43.192409 
L 200.712443 42.386892 
L 201.726989 42.386892 
L 201.726989 35.576393 
L 202.741534 35.576393 
L 202.741534 37.163164 
L 203.75608 37.163164 
L 203.75608 42.318957 
L 204.770625 42.318957 
L 204.770625 43.954254 
L 205.78517 43.954254 
L 205.78517 48.481646 
L 206.799716 48.481646 
L 206.799716 58.111455 
L 207.814261 58.111455 
L 207.814261 50.121795 
L 208.828807 50.121795 
L 208.828807 54.869977 
L 209.843352 54.869977 
L 209.843352 65.989506 
L 210.857898 65.989506 
L 210.857898 58.109028 
L 211.872443 58.109028 
L 211.872443 59.610881 
L 212.886989 59.610881 
L 212.886989 74.995767 
L 214.91608 75.080686 
L 214.91608 76.543718 
L 215.930625 76.543718 
L 215.930625 78.210556 
L 216.94517 78.210556 
L 216.94517 86.666056 
L 217.959716 86.666056 
L 217.959716 81.037143 
L 218.974261 81.037143 
L 218.974261 77.926684 
L 219.988807 77.926684 
L 219.988807 82.37401 
L 221.003352 82.37401 
L 221.003352 96.497244 
L 222.017898 96.497244 
L 222.017898 94.2384 
L 223.032443 94.2384 
L 223.032443 105.62967 
L 224.046989 105.62967 
L 224.046989 108.89541 
L 225.061534 108.89541 
L 225.061534 108.59698 
L 226.07608 108.59698 
L 226.07608 116.91661 
L 227.090625 116.91661 
L 227.090625 132.842552 
L 228.10517 132.842552 
L 228.10517 131.551784 
L 229.119716 131.551784 
L 229.119716 147.90232 
L 230.134261 147.90232 
L 230.134261 166.363699 
L 231.148807 166.363699 
L 231.148807 178.11648 
L 232.163352 178.11648 
L 232.163352 197.914726 
L 233.177898 197.914726 
L 233.177898 205.785499 
L 234.192443 205.785499 
L 234.192443 214.779628 
L 235.206989 214.779628 
L 235.206989 214.306508 
L 236.221534 214.306508 
L 236.221534 204.215711 
L 237.23608 204.215711 
L 237.23608 188.476592 
L 238.250625 188.476592 
L 238.250625 167.838862 
L 239.26517 167.838862 
L 239.26517 144.947141 
L 240.279716 144.947141 
L 240.279716 125.922871 
L 241.294261 125.922871 
L 241.294261 111.049925 
L 242.308807 111.049925 
L 242.308807 107.660446 
L 243.323352 107.660446 
L 243.323352 112.406201 
L 244.337898 112.406201 
L 244.337898 113.245686 
L 245.352443 113.245686 
L 245.352443 113.524705 
L 246.366989 113.524705 
L 246.366989 119.139061 
L 247.381534 119.139061 
L 247.381534 109.266627 
L 248.39608 109.266627 
L 248.39608 115.016852 
L 249.410625 115.016852 
L 249.410625 115.4463 
L 250.42517 115.4463 
L 250.42517 119.112372 
L 251.439716 119.112372 
L 251.439716 117.773079 
L 252.454261 117.773079 
L 252.454261 118.442725 
L 253.468807 118.442725 
L 253.468807 119.830543 
L 254.483352 119.830543 
L 254.483352 124.370068 
L 255.497898 124.370068 
L 255.497898 125.406079 
L 256.512443 125.406079 
L 256.512443 122.045715 
L 257.526989 122.045715 
L 257.526989 127.441707 
L 258.541534 127.441707 
L 258.541534 122.632869 
L 259.55608 122.632869 
L 259.55608 132.50045 
L 260.570625 132.50045 
L 260.570625 126.318351 
L 261.58517 126.318351 
L 261.58517 134.844213 
L 262.599716 134.844213 
L 262.599716 138.947011 
L 263.614261 138.947011 
L 263.614261 136.578985 
L 264.628807 136.578985 
L 264.628807 135.754059 
L 265.643352 135.754059 
L 265.643352 142.127832 
L 266.657898 142.127832 
L 266.657898 139.64092 
L 267.672443 139.64092 
L 267.672443 144.127066 
L 268.686989 144.127066 
L 268.686989 147.6694 
L 269.701534 147.6694 
L 269.701534 148.035764 
L 270.71608 148.035764 
L 270.71608 151.22629 
L 271.730625 151.22629 
L 271.730625 151.046747 
L 272.74517 151.046747 
L 272.74517 153.218246 
L 273.759716 153.218246 
L 273.759716 158.306104 
L 274.774261 158.306104 
L 274.774261 160.465471 
L 275.788807 160.465471 
L 275.788807 165.832349 
L 276.803352 165.832349 
L 276.803352 165.276736 
L 277.817898 165.276736 
L 277.817898 171.298702 
L 278.832443 171.298702 
L 278.832443 185.802858 
L 279.846989 185.802858 
L 279.846989 194.881906 
L 280.861534 194.881906 
L 280.861534 204.865948 
L 281.87608 204.865948 
L 281.87608 211.368313 
L 282.890625 211.368313 
L 282.890625 216.00974 
L 283.90517 216.00974 
L 283.90517 218.535472 
L 284.919716 218.535472 
L 284.919716 214.964024 
L 285.934261 214.964024 
L 285.934261 208.735826 
L 286.948807 208.735826 
L 286.948807 198.749358 
L 287.963352 198.749358 
L 287.963352 188.988532 
L 288.977898 188.988532 
L 288.977898 175.156449 
L 289.992443 175.156449 
L 289.992443 165.140866 
L 291.006989 165.140866 
L 291.006989 159.198966 
L 292.021534 159.198966 
L 292.021534 158.655485 
L 293.03608 158.655485 
L 293.03608 158.810765 
L 294.050625 158.810765 
L 294.050625 157.888788 
L 295.06517 157.888788 
L 295.06517 161.217611 
L 296.079716 161.217611 
L 296.079716 162.700053 
L 297.094261 162.700053 
L 297.094261 159.839497 
L 298.108807 159.839497 
L 298.108807 159.672086 
L 299.123352 159.672086 
L 299.123352 163.592915 
L 300.137898 163.592915 
L 300.137898 160.22042 
L 301.152443 160.22042 
L 301.152443 165.298572 
L 302.166989 165.298572 
L 302.166989 163.369699 
L 303.181534 163.369699 
L 303.181534 165.630969 
L 304.19608 165.630969 
L 304.19608 164.459088 
L 305.210625 164.459088 
L 305.210625 164.672598 
L 306.22517 164.672598 
L 306.22517 168.957366 
L 307.239716 168.957366 
L 307.239716 169.998229 
L 308.254261 169.998229 
L 308.254261 171.570443 
L 309.268807 171.570443 
L 309.268807 170.104985 
L 310.283352 170.104985 
L 310.283352 170.536858 
L 311.297898 170.536858 
L 311.297898 173.625481 
L 312.312443 173.625481 
L 312.312443 172.514256 
L 313.326989 172.514256 
L 313.326989 173.278527 
L 315.35608 173.336757 
L 315.35608 176.291936 
L 316.370625 176.291936 
L 316.370625 176.866959 
L 317.38517 176.866959 
L 317.38517 177.808346 
L 318.399716 177.808346 
L 318.399716 180.06719 
L 319.414261 180.06719 
L 319.414261 180.613097 
L 320.428807 180.613097 
L 320.428807 182.619611 
L 321.443352 182.619611 
L 321.443352 185.71066 
L 322.457898 185.71066 
L 322.457898 184.541205 
L 323.472443 184.541205 
L 323.472443 189.066172 
L 324.486989 189.066172 
L 324.486989 192.589095 
L 325.501534 192.589095 
L 325.501534 199.685892 
L 326.51608 199.685892 
L 326.51608 206.712328 
L 327.530625 206.712328 
L 327.530625 210.75447 
L 328.54517 210.75447 
L 328.54517 215.177534 
L 329.559716 215.177534 
L 329.559716 218.025958 
L 330.574261 218.025958 
L 330.574261 218.867869 
L 332.603352 218.88 
L 332.603352 217.429099 
L 333.617898 217.429099 
L 333.617898 214.197327 
L 334.632443 214.197327 
L 334.632443 209.085206 
L 335.646989 209.085206 
L 335.646989 202.37661 
L 336.661534 202.37661 
L 336.661534 198.628045 
L 337.67608 198.628045 
L 337.67608 194.151603 
L 338.690625 194.151603 
L 338.690625 189.774638 
L 339.70517 189.774638 
L 339.70517 190.407891 
L 340.719716 190.407891 
L 340.719716 189.905656 
L 341.734261 189.905656 
L 341.734261 189.602374 
L 343.763352 189.616932 
L 343.763352 189.286961 
L 345.792443 189.354896 
L 345.792443 189.993001 
L 346.806989 189.993001 
L 346.806989 188.935154 
L 347.821534 188.935154 
L 347.821534 190.577729 
L 348.83608 190.577729 
L 348.83608 189.978444 
L 349.850625 189.978444 
L 349.850625 189.777065 
L 350.86517 189.777065 
L 350.86517 192.310075 
L 351.879716 192.310075 
L 351.879716 190.652943 
L 352.894261 190.652943 
L 352.894261 191.965547 
L 353.908807 191.965547 
L 353.908807 191.002324 
L 354.923352 191.002324 
L 354.923352 191.9704 
L 355.937898 191.9704 
L 355.937898 190.410317 
L 356.952443 190.410317 
L 356.952443 193.283004 
L 357.966989 193.283004 
L 357.966989 193.632385 
L 358.981534 193.632385 
L 358.981534 193.292709 
L 359.99608 193.292709 
L 359.99608 193.814354 
L 361.010625 193.814354 
L 361.010625 194.889185 
L 362.02517 194.889185 
L 362.02517 195.107548 
L 363.039716 195.107548 
L 363.039716 194.304458 
L 364.054261 194.304458 
L 364.054261 196.303692 
L 365.068807 196.303692 
L 365.068807 196.674909 
L 366.083352 196.674909 
L 366.083352 197.701215 
L 367.097898 197.701215 
L 367.097898 198.14522 
L 368.112443 198.14522 
L 368.112443 198.654734 
L 369.126989 198.654734 
L 369.126989 200.600591 
L 370.141534 200.600591 
L 370.141534 201.178039 
L 371.15608 201.178039 
L 371.15608 202.238313 
L 372.170625 202.238313 
L 372.170625 205.004245 
L 373.18517 205.004245 
L 373.18517 208.641202 
L 374.199716 208.641202 
L 374.199716 211.695857 
L 375.214261 211.695857 
L 375.214261 214.015358 
L 376.228807 214.015358 
L 376.228807 216.135905 
L 377.243352 216.135905 
L 377.243352 217.83671 
L 378.257898 217.83671 
L 378.257898 218.736851 
L 379.272443 218.736851 
L 379.272443 218.736851 
" clip-path="url(#p6e80a51101)" style="fill: none; stroke: #1f77b4; stroke-width: 1.5; stroke-linecap: square"/>
   </g>
  </g>
 </g>
 <defs>
  <clipPath id="p6e80a51101">
   <rect x="59.690625" y="7.2" width="334.8" height="221.76"/>
  </clipPath>
 </defs>
</svg>
