<?xml version="1.0" encoding="utf-8" standalone="no"?>
<!DOCTYPE svg PUBLIC "-//W3C//DTD SVG 1.1//EN"
  "http://www.w3.org/Graphics/SVG/1.1/DTD/svg11.dtd">
<svg xmlns:xlink="http://www.w3.org/1999/xlink" width="872.39952pt" height="296.39952pt" viewBox="0 0 872.39952 296.39952" xmlns="http://www.w3.org/2000/svg" version="1.1">
 <metadata>
  <rdf:RDF xmlns:dc="http://purl.org/dc/elements/1.1/" xmlns:cc="http://creativecommons.org/ns#" xmlns:rdf="http://www.w3.org/1999/02/22-rdf-syntax-ns#">
   <cc:Work>
    <dc:type rdf:resource="http://purl.org/dc/dcmitype/StillImage"/>
    <dc:date>2025-04-22T14:39:48.800129</dc:date>
    <dc:format>image/svg+xml</dc:format>
    <dc:creator>
     <cc:Agent>
      <dc:title>Matplotlib v3.10.1, https://matplotlib.org/</dc:title>
     </cc:Agent>
    </dc:creator>
   </cc:Work>
  </rdf:RDF>
 </metadata>
 <defs>
  <style type="text/css">*{stroke-linejoin: round; stroke-linecap: butt}</style>
 </defs>
 <g id="figure_1">
  <g id="patch_1">
   <path d="M 0 296.39952 
L 872.39952 296.39952 
L 872.39952 0 
L 0 0 
z
" style="fill: #ffffff"/>
  </g>
  <g id="axes_1">
   <g id="patch_2">
    <path d="M 53.328125 257.158895 
L 431.87976 257.158895 
L 431.87976 7.2 
L 53.328125 7.2 
z
" style="fill: #ffffff"/>
   </g>
   <g id="matplotlib.axis_1">
    <g id="xtick_1">
     <g id="line2d_1">
      <defs>
       <path id="mda867a8fde" d="M 0 0 
L 0 3.5 
" style="stroke: #000000; stroke-width: 0.8"/>
      </defs>
      <g>
       <use xlink:href="#mda867a8fde" x="76.805966" y="257.158895" style="stroke: #000000; stroke-width: 0.8"/>
      </g>
     </g>
     <g id="text_1">
      <!-- 1 -->
      <g transform="translate(73.624716 271.757332) scale(0.1 -0.1)">
       <defs>
        <path id="DejaVuSans-31" d="M 794 531 
L 1825 531 
L 1825 4091 
L 703 3866 
L 703 4441 
L 1819 4666 
L 2450 4666 
L 2450 531 
L 3481 531 
L 3481 0 
L 794 0 
L 794 531 
z
" transform="scale(0.015625)"/>
       </defs>
       <use xlink:href="#DejaVuSans-31"/>
      </g>
     </g>
    </g>
    <g id="xtick_2">
     <g id="line2d_2">
      <g>
       <use xlink:href="#mda867a8fde" x="130.402148" y="257.158895" style="stroke: #000000; stroke-width: 0.8"/>
      </g>
     </g>
     <g id="text_2">
      <!-- 2 -->
      <g transform="translate(127.220898 271.757332) scale(0.1 -0.1)">
       <defs>
        <path id="DejaVuSans-32" d="M 1228 531 
L 3431 531 
L 3431 0 
L 469 0 
L 469 531 
Q 828 903 1448 1529 
Q 2069 2156 2228 2338 
Q 2531 2678 2651 2914 
Q 2772 3150 2772 3378 
Q 2772 3750 2511 3984 
Q 2250 4219 1831 4219 
Q 1534 4219 1204 4116 
Q 875 4013 500 3803 
L 500 4441 
Q 881 4594 1212 4672 
Q 1544 4750 1819 4750 
Q 2544 4750 2975 4387 
Q 3406 4025 3406 3419 
Q 3406 3131 3298 2873 
Q 3191 2616 2906 2266 
Q 2828 2175 2409 1742 
Q 1991 1309 1228 531 
z
" transform="scale(0.015625)"/>
       </defs>
       <use xlink:href="#DejaVuSans-32"/>
      </g>
     </g>
    </g>
    <g id="xtick_3">
     <g id="line2d_3">
      <g>
       <use xlink:href="#mda867a8fde" x="183.998329" y="257.158895" style="stroke: #000000; stroke-width: 0.8"/>
      </g>
     </g>
     <g id="text_3">
      <!-- 3 -->
      <g transform="translate(180.817079 271.757332) scale(0.1 -0.1)">
       <defs>
        <path id="DejaVuSans-33" d="M 2597 2516 
Q 3050 2419 3304 2112 
Q 3559 1806 3559 1356 
Q 3559 666 3084 287 
Q 2609 -91 1734 -91 
Q 1441 -91 1130 -33 
Q 819 25 488 141 
L 488 750 
Q 750 597 1062 519 
Q 1375 441 1716 441 
Q 2309 441 2620 675 
Q 2931 909 2931 1356 
Q 2931 1769 2642 2001 
Q 2353 2234 1838 2234 
L 1294 2234 
L 1294 2753 
L 1863 2753 
Q 2328 2753 2575 2939 
Q 2822 3125 2822 3475 
Q 2822 3834 2567 4026 
Q 2313 4219 1838 4219 
Q 1578 4219 1281 4162 
Q 984 4106 628 3988 
L 628 4550 
Q 988 4650 1302 4700 
Q 1616 4750 1894 4750 
Q 2613 4750 3031 4423 
Q 3450 4097 3450 3541 
Q 3450 3153 3228 2886 
Q 3006 2619 2597 2516 
z
" transform="scale(0.015625)"/>
       </defs>
       <use xlink:href="#DejaVuSans-33"/>
      </g>
     </g>
    </g>
    <g id="xtick_4">
     <g id="line2d_4">
      <g>
       <use xlink:href="#mda867a8fde" x="237.59451" y="257.158895" style="stroke: #000000; stroke-width: 0.8"/>
      </g>
     </g>
     <g id="text_4">
      <!-- 4 -->
      <g transform="translate(234.41326 271.757332) scale(0.1 -0.1)">
       <defs>
        <path id="DejaVuSans-34" d="M 2419 4116 
L 825 1625 
L 2419 1625 
L 2419 4116 
z
M 2253 4666 
L 3047 4666 
L 3047 1625 
L 3713 1625 
L 3713 1100 
L 3047 1100 
L 3047 0 
L 2419 0 
L 2419 1100 
L 313 1100 
L 313 1709 
L 2253 4666 
z
" transform="scale(0.015625)"/>
       </defs>
       <use xlink:href="#DejaVuSans-34"/>
      </g>
     </g>
    </g>
    <g id="xtick_5">
     <g id="line2d_5">
      <g>
       <use xlink:href="#mda867a8fde" x="291.190692" y="257.158895" style="stroke: #000000; stroke-width: 0.8"/>
      </g>
     </g>
     <g id="text_5">
      <!-- 5 -->
      <g transform="translate(288.009442 271.757332) scale(0.1 -0.1)">
       <defs>
        <path id="DejaVuSans-35" d="M 691 4666 
L 3169 4666 
L 3169 4134 
L 1269 4134 
L 1269 2991 
Q 1406 3038 1543 3061 
Q 1681 3084 1819 3084 
Q 2600 3084 3056 2656 
Q 3513 2228 3513 1497 
Q 3513 744 3044 326 
Q 2575 -91 1722 -91 
Q 1428 -91 1123 -41 
Q 819 9 494 109 
L 494 744 
Q 775 591 1075 516 
Q 1375 441 1709 441 
Q 2250 441 2565 725 
Q 2881 1009 2881 1497 
Q 2881 1984 2565 2268 
Q 2250 2553 1709 2553 
Q 1456 2553 1204 2497 
Q 953 2441 691 2322 
L 691 4666 
z
" transform="scale(0.015625)"/>
       </defs>
       <use xlink:href="#DejaVuSans-35"/>
      </g>
     </g>
    </g>
    <g id="xtick_6">
     <g id="line2d_6">
      <g>
       <use xlink:href="#mda867a8fde" x="344.786873" y="257.158895" style="stroke: #000000; stroke-width: 0.8"/>
      </g>
     </g>
     <g id="text_6">
      <!-- 6 -->
      <g transform="translate(341.605623 271.757332) scale(0.1 -0.1)">
       <defs>
        <path id="DejaVuSans-36" d="M 2113 2584 
Q 1688 2584 1439 2293 
Q 1191 2003 1191 1497 
Q 1191 994 1439 701 
Q 1688 409 2113 409 
Q 2538 409 2786 701 
Q 3034 994 3034 1497 
Q 3034 2003 2786 2293 
Q 2538 2584 2113 2584 
z
M 3366 4563 
L 3366 3988 
Q 3128 4100 2886 4159 
Q 2644 4219 2406 4219 
Q 1781 4219 1451 3797 
Q 1122 3375 1075 2522 
Q 1259 2794 1537 2939 
Q 1816 3084 2150 3084 
Q 2853 3084 3261 2657 
Q 3669 2231 3669 1497 
Q 3669 778 3244 343 
Q 2819 -91 2113 -91 
Q 1303 -91 875 529 
Q 447 1150 447 2328 
Q 447 3434 972 4092 
Q 1497 4750 2381 4750 
Q 2619 4750 2861 4703 
Q 3103 4656 3366 4563 
z
" transform="scale(0.015625)"/>
       </defs>
       <use xlink:href="#DejaVuSans-36"/>
      </g>
     </g>
    </g>
    <g id="xtick_7">
     <g id="line2d_7">
      <g>
       <use xlink:href="#mda867a8fde" x="398.383054" y="257.158895" style="stroke: #000000; stroke-width: 0.8"/>
      </g>
     </g>
     <g id="text_7">
      <!-- 7 -->
      <g transform="translate(395.201804 271.757332) scale(0.1 -0.1)">
       <defs>
        <path id="DejaVuSans-37" d="M 525 4666 
L 3525 4666 
L 3525 4397 
L 1831 0 
L 1172 0 
L 2766 4134 
L 525 4134 
L 525 4666 
z
" transform="scale(0.015625)"/>
       </defs>
       <use xlink:href="#DejaVuSans-37"/>
      </g>
     </g>
    </g>
    <g id="text_8">
     <!-- tof [ns] -->
     <g transform="translate(224.560192 285.435457) scale(0.1 -0.1)">
      <defs>
       <path id="DejaVuSans-74" d="M 1172 4494 
L 1172 3500 
L 2356 3500 
L 2356 3053 
L 1172 3053 
L 1172 1153 
Q 1172 725 1289 603 
Q 1406 481 1766 481 
L 2356 481 
L 2356 0 
L 1766 0 
Q 1100 0 847 248 
Q 594 497 594 1153 
L 594 3053 
L 172 3053 
L 172 3500 
L 594 3500 
L 594 4494 
L 1172 4494 
z
" transform="scale(0.015625)"/>
       <path id="DejaVuSans-6f" d="M 1959 3097 
Q 1497 3097 1228 2736 
Q 959 2375 959 1747 
Q 959 1119 1226 758 
Q 1494 397 1959 397 
Q 2419 397 2687 759 
Q 2956 1122 2956 1747 
Q 2956 2369 2687 2733 
Q 2419 3097 1959 3097 
z
M 1959 3584 
Q 2709 3584 3137 3096 
Q 3566 2609 3566 1747 
Q 3566 888 3137 398 
Q 2709 -91 1959 -91 
Q 1206 -91 779 398 
Q 353 888 353 1747 
Q 353 2609 779 3096 
Q 1206 3584 1959 3584 
z
" transform="scale(0.015625)"/>
       <path id="DejaVuSans-66" d="M 2375 4863 
L 2375 4384 
L 1825 4384 
Q 1516 4384 1395 4259 
Q 1275 4134 1275 3809 
L 1275 3500 
L 2222 3500 
L 2222 3053 
L 1275 3053 
L 1275 0 
L 697 0 
L 697 3053 
L 147 3053 
L 147 3500 
L 697 3500 
L 697 3744 
Q 697 4328 969 4595 
Q 1241 4863 1831 4863 
L 2375 4863 
z
" transform="scale(0.015625)"/>
       <path id="DejaVuSans-20" transform="scale(0.015625)"/>
       <path id="DejaVuSans-5b" d="M 550 4863 
L 1875 4863 
L 1875 4416 
L 1125 4416 
L 1125 -397 
L 1875 -397 
L 1875 -844 
L 550 -844 
L 550 4863 
z
" transform="scale(0.015625)"/>
       <path id="DejaVuSans-6e" d="M 3513 2113 
L 3513 0 
L 2938 0 
L 2938 2094 
Q 2938 2591 2744 2837 
Q 2550 3084 2163 3084 
Q 1697 3084 1428 2787 
Q 1159 2491 1159 1978 
L 1159 0 
L 581 0 
L 581 3500 
L 1159 3500 
L 1159 2956 
Q 1366 3272 1645 3428 
Q 1925 3584 2291 3584 
Q 2894 3584 3203 3211 
Q 3513 2838 3513 2113 
z
" transform="scale(0.015625)"/>
       <path id="DejaVuSans-73" d="M 2834 3397 
L 2834 2853 
Q 2591 2978 2328 3040 
Q 2066 3103 1784 3103 
Q 1356 3103 1142 2972 
Q 928 2841 928 2578 
Q 928 2378 1081 2264 
Q 1234 2150 1697 2047 
L 1894 2003 
Q 2506 1872 2764 1633 
Q 3022 1394 3022 966 
Q 3022 478 2636 193 
Q 2250 -91 1575 -91 
Q 1294 -91 989 -36 
Q 684 19 347 128 
L 347 722 
Q 666 556 975 473 
Q 1284 391 1588 391 
Q 1994 391 2212 530 
Q 2431 669 2431 922 
Q 2431 1156 2273 1281 
Q 2116 1406 1581 1522 
L 1381 1569 
Q 847 1681 609 1914 
Q 372 2147 372 2553 
Q 372 3047 722 3315 
Q 1072 3584 1716 3584 
Q 2034 3584 2315 3537 
Q 2597 3491 2834 3397 
z
" transform="scale(0.015625)"/>
       <path id="DejaVuSans-5d" d="M 1947 4863 
L 1947 -844 
L 622 -844 
L 622 -397 
L 1369 -397 
L 1369 4416 
L 622 4416 
L 622 4863 
L 1947 4863 
z
" transform="scale(0.015625)"/>
      </defs>
      <use xlink:href="#DejaVuSans-74"/>
      <use xlink:href="#DejaVuSans-6f" transform="translate(39.208984 0)"/>
      <use xlink:href="#DejaVuSans-66" transform="translate(100.390625 0)"/>
      <use xlink:href="#DejaVuSans-20" transform="translate(135.595703 0)"/>
      <use xlink:href="#DejaVuSans-5b" transform="translate(167.382812 0)"/>
      <use xlink:href="#DejaVuSans-6e" transform="translate(206.396484 0)"/>
      <use xlink:href="#DejaVuSans-73" transform="translate(269.775391 0)"/>
      <use xlink:href="#DejaVuSans-5d" transform="translate(321.875 0)"/>
     </g>
    </g>
    <g id="text_9">
     <!-- 1e7 -->
     <g transform="translate(413.001635 284.435457) scale(0.1 -0.1)">
      <defs>
       <path id="DejaVuSans-65" d="M 3597 1894 
L 3597 1613 
L 953 1613 
Q 991 1019 1311 708 
Q 1631 397 2203 397 
Q 2534 397 2845 478 
Q 3156 559 3463 722 
L 3463 178 
Q 3153 47 2828 -22 
Q 2503 -91 2169 -91 
Q 1331 -91 842 396 
Q 353 884 353 1716 
Q 353 2575 817 3079 
Q 1281 3584 2069 3584 
Q 2775 3584 3186 3129 
Q 3597 2675 3597 1894 
z
M 3022 2063 
Q 3016 2534 2758 2815 
Q 2500 3097 2075 3097 
Q 1594 3097 1305 2825 
Q 1016 2553 972 2059 
L 3022 2063 
z
" transform="scale(0.015625)"/>
      </defs>
      <use xlink:href="#DejaVuSans-31"/>
      <use xlink:href="#DejaVuSans-65" transform="translate(63.623047 0)"/>
      <use xlink:href="#DejaVuSans-37" transform="translate(125.146484 0)"/>
     </g>
    </g>
   </g>
   <g id="matplotlib.axis_2">
    <g id="ytick_1">
     <g id="line2d_8">
      <defs>
       <path id="mc84307bc2c" d="M 0 0 
L -3.5 0 
" style="stroke: #000000; stroke-width: 0.8"/>
      </defs>
      <g>
       <use xlink:href="#mc84307bc2c" x="53.328125" y="225.516497" style="stroke: #000000; stroke-width: 0.8"/>
      </g>
     </g>
     <g id="text_10">
      <!-- 1000 -->
      <g transform="translate(20.878125 229.315716) scale(0.1 -0.1)">
       <defs>
        <path id="DejaVuSans-30" d="M 2034 4250 
Q 1547 4250 1301 3770 
Q 1056 3291 1056 2328 
Q 1056 1369 1301 889 
Q 1547 409 2034 409 
Q 2525 409 2770 889 
Q 3016 1369 3016 2328 
Q 3016 3291 2770 3770 
Q 2525 4250 2034 4250 
z
M 2034 4750 
Q 2819 4750 3233 4129 
Q 3647 3509 3647 2328 
Q 3647 1150 3233 529 
Q 2819 -91 2034 -91 
Q 1250 -91 836 529 
Q 422 1150 422 2328 
Q 422 3509 836 4129 
Q 1250 4750 2034 4750 
z
" transform="scale(0.015625)"/>
       </defs>
       <use xlink:href="#DejaVuSans-31"/>
       <use xlink:href="#DejaVuSans-30" transform="translate(63.623047 0)"/>
       <use xlink:href="#DejaVuSans-30" transform="translate(127.246094 0)"/>
       <use xlink:href="#DejaVuSans-30" transform="translate(190.869141 0)"/>
      </g>
     </g>
    </g>
    <g id="ytick_2">
     <g id="line2d_9">
      <g>
       <use xlink:href="#mc84307bc2c" x="53.328125" y="185.259709" style="stroke: #000000; stroke-width: 0.8"/>
      </g>
     </g>
     <g id="text_11">
      <!-- 2000 -->
      <g transform="translate(20.878125 189.058927) scale(0.1 -0.1)">
       <use xlink:href="#DejaVuSans-32"/>
       <use xlink:href="#DejaVuSans-30" transform="translate(63.623047 0)"/>
       <use xlink:href="#DejaVuSans-30" transform="translate(127.246094 0)"/>
       <use xlink:href="#DejaVuSans-30" transform="translate(190.869141 0)"/>
      </g>
     </g>
    </g>
    <g id="ytick_3">
     <g id="line2d_10">
      <g>
       <use xlink:href="#mc84307bc2c" x="53.328125" y="145.00292" style="stroke: #000000; stroke-width: 0.8"/>
      </g>
     </g>
     <g id="text_12">
      <!-- 3000 -->
      <g transform="translate(20.878125 148.802138) scale(0.1 -0.1)">
       <use xlink:href="#DejaVuSans-33"/>
       <use xlink:href="#DejaVuSans-30" transform="translate(63.623047 0)"/>
       <use xlink:href="#DejaVuSans-30" transform="translate(127.246094 0)"/>
       <use xlink:href="#DejaVuSans-30" transform="translate(190.869141 0)"/>
      </g>
     </g>
    </g>
    <g id="ytick_4">
     <g id="line2d_11">
      <g>
       <use xlink:href="#mc84307bc2c" x="53.328125" y="104.746131" style="stroke: #000000; stroke-width: 0.8"/>
      </g>
     </g>
     <g id="text_13">
      <!-- 4000 -->
      <g transform="translate(20.878125 108.54535) scale(0.1 -0.1)">
       <use xlink:href="#DejaVuSans-34"/>
       <use xlink:href="#DejaVuSans-30" transform="translate(63.623047 0)"/>
       <use xlink:href="#DejaVuSans-30" transform="translate(127.246094 0)"/>
       <use xlink:href="#DejaVuSans-30" transform="translate(190.869141 0)"/>
      </g>
     </g>
    </g>
    <g id="ytick_5">
     <g id="line2d_12">
      <g>
       <use xlink:href="#mc84307bc2c" x="53.328125" y="64.489342" style="stroke: #000000; stroke-width: 0.8"/>
      </g>
     </g>
     <g id="text_14">
      <!-- 5000 -->
      <g transform="translate(20.878125 68.288561) scale(0.1 -0.1)">
       <use xlink:href="#DejaVuSans-35"/>
       <use xlink:href="#DejaVuSans-30" transform="translate(63.623047 0)"/>
       <use xlink:href="#DejaVuSans-30" transform="translate(127.246094 0)"/>
       <use xlink:href="#DejaVuSans-30" transform="translate(190.869141 0)"/>
      </g>
     </g>
    </g>
    <g id="ytick_6">
     <g id="line2d_13">
      <g>
       <use xlink:href="#mc84307bc2c" x="53.328125" y="24.232553" style="stroke: #000000; stroke-width: 0.8"/>
      </g>
     </g>
     <g id="text_15">
      <!-- 6000 -->
      <g transform="translate(20.878125 28.031772) scale(0.1 -0.1)">
       <use xlink:href="#DejaVuSans-36"/>
       <use xlink:href="#DejaVuSans-30" transform="translate(63.623047 0)"/>
       <use xlink:href="#DejaVuSans-30" transform="translate(127.246094 0)"/>
       <use xlink:href="#DejaVuSans-30" transform="translate(190.869141 0)"/>
      </g>
     </g>
    </g>
    <g id="text_16">
     <!-- [counts] -->
     <g transform="translate(14.798438 152.791947) rotate(-90) scale(0.1 -0.1)">
      <defs>
       <path id="DejaVuSans-63" d="M 3122 3366 
L 3122 2828 
Q 2878 2963 2633 3030 
Q 2388 3097 2138 3097 
Q 1578 3097 1268 2742 
Q 959 2388 959 1747 
Q 959 1106 1268 751 
Q 1578 397 2138 397 
Q 2388 397 2633 464 
Q 2878 531 3122 666 
L 3122 134 
Q 2881 22 2623 -34 
Q 2366 -91 2075 -91 
Q 1284 -91 818 406 
Q 353 903 353 1747 
Q 353 2603 823 3093 
Q 1294 3584 2113 3584 
Q 2378 3584 2631 3529 
Q 2884 3475 3122 3366 
z
" transform="scale(0.015625)"/>
       <path id="DejaVuSans-75" d="M 544 1381 
L 544 3500 
L 1119 3500 
L 1119 1403 
Q 1119 906 1312 657 
Q 1506 409 1894 409 
Q 2359 409 2629 706 
Q 2900 1003 2900 1516 
L 2900 3500 
L 3475 3500 
L 3475 0 
L 2900 0 
L 2900 538 
Q 2691 219 2414 64 
Q 2138 -91 1772 -91 
Q 1169 -91 856 284 
Q 544 659 544 1381 
z
M 1991 3584 
L 1991 3584 
z
" transform="scale(0.015625)"/>
      </defs>
      <use xlink:href="#DejaVuSans-5b"/>
      <use xlink:href="#DejaVuSans-63" transform="translate(39.013672 0)"/>
      <use xlink:href="#DejaVuSans-6f" transform="translate(93.994141 0)"/>
      <use xlink:href="#DejaVuSans-75" transform="translate(155.175781 0)"/>
      <use xlink:href="#DejaVuSans-6e" transform="translate(218.554688 0)"/>
      <use xlink:href="#DejaVuSans-74" transform="translate(281.933594 0)"/>
      <use xlink:href="#DejaVuSans-73" transform="translate(321.142578 0)"/>
      <use xlink:href="#DejaVuSans-5d" transform="translate(373.242188 0)"/>
     </g>
    </g>
   </g>
   <g id="patch_3">
    <path d="M 53.328125 257.158895 
L 53.328125 7.2 
" style="fill: none; stroke: #000000; stroke-width: 0.8; stroke-linejoin: miter; stroke-linecap: square"/>
   </g>
   <g id="patch_4">
    <path d="M 431.87976 257.158895 
L 431.87976 7.2 
" style="fill: none; stroke: #000000; stroke-width: 0.8; stroke-linejoin: miter; stroke-linecap: square"/>
   </g>
   <g id="patch_5">
    <path d="M 53.328125 257.158895 
L 431.87976 257.158895 
" style="fill: none; stroke: #000000; stroke-width: 0.8; stroke-linejoin: miter; stroke-linecap: square"/>
   </g>
   <g id="patch_6">
    <path d="M 53.328125 7.2 
L 431.87976 7.2 
" style="fill: none; stroke: #000000; stroke-width: 0.8; stroke-linejoin: miter; stroke-linecap: square"/>
   </g>
   <g id="line2d_14">
    <path d="M 70.535018 167.546721 
L 73.976396 167.546721 
L 73.976396 77.854596 
L 77.417774 77.854596 
L 77.417774 167.989546 
L 80.859153 167.989546 
L 80.859153 101.284047 
L 84.300531 101.284047 
L 84.300531 142.345972 
L 87.74191 142.345972 
L 87.74191 131.798693 
L 91.183288 131.798693 
L 91.183288 166.902613 
L 94.624667 166.902613 
L 94.624667 195.243392 
L 98.066045 195.243392 
L 98.066045 103.820225 
L 101.507424 103.820225 
L 101.507424 122.821429 
L 104.948802 122.821429 
L 104.948802 162.152312 
L 108.390181 162.152312 
L 108.390181 86.147494 
L 111.831559 86.147494 
L 111.831559 196.893921 
L 115.272938 196.893921 
L 115.272938 84.69825 
L 118.714316 84.69825 
L 118.714316 151.76606 
L 122.155695 151.76606 
L 122.155695 81.397193 
L 125.597073 81.397193 
L 125.597073 134.616668 
L 129.038452 134.616668 
L 129.038452 145.727542 
L 132.47983 145.727542 
L 132.47983 114.045449 
L 135.921209 114.045449 
L 135.921209 127.330189 
L 139.362587 127.330189 
L 139.362587 136.428224 
L 142.803966 136.428224 
L 142.803966 137.434643 
L 146.245344 137.434643 
L 146.245344 161.387433 
L 149.686723 161.387433 
L 149.686723 105.551267 
L 153.128101 105.551267 
L 153.128101 151.927087 
L 156.56948 151.927087 
L 156.56948 181.596341 
L 160.010858 181.596341 
L 160.010858 144.600352 
L 163.452237 144.600352 
L 163.452237 85.94621 
L 166.893615 85.94621 
L 166.893615 165.493625 
L 170.334994 165.493625 
L 170.334994 203.616804 
L 173.776372 203.616804 
L 173.776372 87.516225 
L 177.217751 87.516225 
L 177.217751 132.201261 
L 180.659129 132.201261 
L 180.659129 212.795352 
L 184.100508 212.795352 
L 184.100508 65.89833 
L 187.541886 65.89833 
L 187.541886 177.208351 
L 190.983265 177.208351 
L 190.983265 147.981922 
L 194.424643 147.981922 
L 194.424643 65.334734 
L 197.866022 65.334734 
L 197.866022 135.140006 
L 201.3074 135.140006 
L 201.3074 153.134791 
L 204.748779 153.134791 
L 204.748779 199.349585 
L 208.190157 199.349585 
L 208.190157 199.148301 
L 211.631536 199.148301 
L 211.631536 52.895387 
L 215.072914 52.895387 
L 215.072914 202.248074 
L 218.514293 202.248074 
L 218.514293 217.787194 
L 221.955671 217.787194 
L 221.955671 105.027928 
L 225.39705 105.027928 
L 225.39705 130.671503 
L 228.838428 130.671503 
L 228.838428 78.498704 
L 232.279807 78.498704 
L 232.279807 167.949289 
L 235.721185 167.949289 
L 235.721185 60.906488 
L 239.162564 60.906488 
L 239.162564 185.662276 
L 242.603942 185.662276 
L 242.603942 208.68916 
L 246.045321 208.68916 
L 246.045321 101.525588 
L 249.486699 101.525588 
L 249.486699 209.81635 
L 252.928078 209.81635 
L 252.928078 88.039563 
L 256.369456 88.039563 
L 256.369456 242.223065 
L 259.810835 242.223065 
L 259.810835 24.031269 
L 263.252213 24.031269 
L 263.252213 107.845904 
L 266.693592 107.845904 
L 266.693592 153.134791 
L 270.13497 153.134791 
L 270.13497 156.113793 
L 273.576349 156.113793 
L 273.576349 165.413112 
L 277.017727 165.413112 
L 277.017727 168.432371 
L 280.459106 168.432371 
L 280.459106 232.440665 
L 283.900484 232.440665 
L 283.900484 32.847506 
L 287.341863 32.847506 
L 287.341863 171.532144 
L 290.783241 171.532144 
L 290.783241 219.59875 
L 294.22462 219.59875 
L 294.22462 65.576275 
L 297.665998 65.576275 
L 297.665998 175.759106 
L 301.107377 175.759106 
L 301.107377 228.576013 
L 304.548755 228.576013 
L 304.548755 48.34637 
L 307.990134 48.34637 
L 307.990134 76.606635 
L 311.431512 76.606635 
L 311.431512 243.511282 
L 314.872891 243.511282 
L 314.872891 175.477309 
L 318.314269 175.477309 
L 318.314269 175.598079 
L 321.755648 175.598079 
L 321.755648 71.816077 
L 325.197026 71.816077 
L 325.197026 162.273082 
L 328.638405 162.273082 
L 328.638405 191.459254 
L 332.079783 191.459254 
L 332.079783 99.633519 
L 335.521162 99.633519 
L 335.521162 130.83253 
L 338.96254 130.83253 
L 338.96254 134.133587 
L 342.403919 134.133587 
L 342.403919 193.552607 
L 345.845297 193.552607 
L 345.845297 93.433973 
L 349.286676 93.433973 
L 349.286676 40.617066 
L 352.728054 40.617066 
L 352.728054 50.238439 
L 356.169433 50.238439 
L 356.169433 166.580559 
L 359.610811 166.580559 
L 359.610811 164.004124 
L 363.05219 164.004124 
L 363.05219 174.390376 
L 366.493568 174.390376 
L 366.493568 203.616804 
L 369.934947 203.616804 
L 369.934947 67.226804 
L 373.376325 67.226804 
L 373.376325 178.335541 
L 376.817704 178.335541 
L 376.817704 116.058288 
L 380.259082 116.058288 
L 380.259082 151.403749 
L 383.700461 151.403749 
L 383.700461 201.080627 
L 387.141839 201.080627 
L 387.141839 187.393318 
L 390.583218 187.393318 
L 390.583218 21.696375 
L 394.024596 21.696375 
L 394.024596 123.385024 
L 397.465975 123.385024 
L 397.465975 64.851653 
L 400.907353 64.851653 
L 400.907353 97.057084 
L 404.348732 97.057084 
L 404.348732 61.349312 
L 407.79011 61.349312 
L 407.79011 189.768469 
L 411.231489 189.768469 
L 411.231489 244.880013 
L 414.672867 244.880013 
L 414.672867 244.880013 
" clip-path="url(#p026563ca6f)" style="fill: none; stroke: #1f77b4; stroke-width: 1.5; stroke-linecap: square"/>
   </g>
   <g id="LineCollection_1">
    <path d="M 72.255707 169.53526 
L 72.255707 165.558183 
" clip-path="url(#p026563ca6f)" style="fill: none; stroke: #1f77b4; stroke-width: 1.5"/>
    <path d="M 75.697085 80.605051 
L 75.697085 75.104141 
" clip-path="url(#p026563ca6f)" style="fill: none; stroke: #1f77b4; stroke-width: 1.5"/>
    <path d="M 79.138464 169.973597 
L 79.138464 166.005495 
" clip-path="url(#p026563ca6f)" style="fill: none; stroke: #1f77b4; stroke-width: 1.5"/>
    <path d="M 82.579842 103.857334 
L 82.579842 98.71076 
" clip-path="url(#p026563ca6f)" style="fill: none; stroke: #1f77b4; stroke-width: 1.5"/>
    <path d="M 86.021221 144.575049 
L 86.021221 140.116894 
" clip-path="url(#p026563ca6f)" style="fill: none; stroke: #1f77b4; stroke-width: 1.5"/>
    <path d="M 89.462599 134.12106 
L 89.462599 129.476326 
" clip-path="url(#p026563ca6f)" style="fill: none; stroke: #1f77b4; stroke-width: 1.5"/>
    <path d="M 92.903978 168.897661 
L 92.903978 164.907565 
" clip-path="url(#p026563ca6f)" style="fill: none; stroke: #1f77b4; stroke-width: 1.5"/>
    <path d="M 96.345356 196.928417 
L 96.345356 193.558368 
" clip-path="url(#p026563ca6f)" style="fill: none; stroke: #1f77b4; stroke-width: 1.5"/>
    <path d="M 99.786735 106.373597 
L 99.786735 101.266852 
" clip-path="url(#p026563ca6f)" style="fill: none; stroke: #1f77b4; stroke-width: 1.5"/>
    <path d="M 103.228113 125.220342 
L 103.228113 120.422516 
" clip-path="url(#p026563ca6f)" style="fill: none; stroke: #1f77b4; stroke-width: 1.5"/>
    <path d="M 106.669492 164.194724 
L 106.669492 160.1099 
" clip-path="url(#p026563ca6f)" style="fill: none; stroke: #1f77b4; stroke-width: 1.5"/>
    <path d="M 110.11087 88.836575 
L 110.11087 83.458413 
" clip-path="url(#p026563ca6f)" style="fill: none; stroke: #1f77b4; stroke-width: 1.5"/>
    <path d="M 113.552249 198.559112 
L 113.552249 195.228729 
" clip-path="url(#p026563ca6f)" style="fill: none; stroke: #1f77b4; stroke-width: 1.5"/>
    <path d="M 116.993627 87.398157 
L 116.993627 81.998343 
" clip-path="url(#p026563ca6f)" style="fill: none; stroke: #1f77b4; stroke-width: 1.5"/>
    <path d="M 120.435006 153.908387 
L 120.435006 149.623733 
" clip-path="url(#p026563ca6f)" style="fill: none; stroke: #1f77b4; stroke-width: 1.5"/>
    <path d="M 123.876384 84.1216 
L 123.876384 78.672787 
" clip-path="url(#p026563ca6f)" style="fill: none; stroke: #1f77b4; stroke-width: 1.5"/>
    <path d="M 127.317763 136.914481 
L 127.317763 132.318855 
" clip-path="url(#p026563ca6f)" style="fill: none; stroke: #1f77b4; stroke-width: 1.5"/>
    <path d="M 130.759141 147.925872 
L 130.759141 143.529212 
" clip-path="url(#p026563ca6f)" style="fill: none; stroke: #1f77b4; stroke-width: 1.5"/>
    <path d="M 134.20052 116.516901 
L 134.20052 111.573997 
" clip-path="url(#p026563ca6f)" style="fill: none; stroke: #1f77b4; stroke-width: 1.5"/>
    <path d="M 137.641898 129.690968 
L 137.641898 124.969411 
" clip-path="url(#p026563ca6f)" style="fill: none; stroke: #1f77b4; stroke-width: 1.5"/>
    <path d="M 141.083277 138.710113 
L 141.083277 134.146335 
" clip-path="url(#p026563ca6f)" style="fill: none; stroke: #1f77b4; stroke-width: 1.5"/>
    <path d="M 144.524655 139.707637 
L 144.524655 135.161649 
" clip-path="url(#p026563ca6f)" style="fill: none; stroke: #1f77b4; stroke-width: 1.5"/>
    <path d="M 147.966034 163.437369 
L 147.966034 159.337496 
" clip-path="url(#p026563ca6f)" style="fill: none; stroke: #1f77b4; stroke-width: 1.5"/>
    <path d="M 151.407412 108.090956 
L 151.407412 103.011577 
" clip-path="url(#p026563ca6f)" style="fill: none; stroke: #1f77b4; stroke-width: 1.5"/>
    <path d="M 154.848791 154.067901 
L 154.848791 149.786274 
" clip-path="url(#p026563ca6f)" style="fill: none; stroke: #1f77b4; stroke-width: 1.5"/>
    <path d="M 158.290169 183.437181 
L 158.290169 179.7555 
" clip-path="url(#p026563ca6f)" style="fill: none; stroke: #1f77b4; stroke-width: 1.5"/>
    <path d="M 161.731548 146.808979 
L 161.731548 142.391725 
" clip-path="url(#p026563ca6f)" style="fill: none; stroke: #1f77b4; stroke-width: 1.5"/>
    <path d="M 165.172926 88.636798 
L 165.172926 83.255623 
" clip-path="url(#p026563ca6f)" style="fill: none; stroke: #1f77b4; stroke-width: 1.5"/>
    <path d="M 168.614305 167.502838 
L 168.614305 163.484412 
" clip-path="url(#p026563ca6f)" style="fill: none; stroke: #1f77b4; stroke-width: 1.5"/>
    <path d="M 172.055683 205.198645 
L 172.055683 202.034963 
" clip-path="url(#p026563ca6f)" style="fill: none; stroke: #1f77b4; stroke-width: 1.5"/>
    <path d="M 175.497062 90.195042 
L 175.497062 84.837409 
" clip-path="url(#p026563ca6f)" style="fill: none; stroke: #1f77b4; stroke-width: 1.5"/>
    <path d="M 178.93844 134.520136 
L 178.93844 129.882386 
" clip-path="url(#p026563ca6f)" style="fill: none; stroke: #1f77b4; stroke-width: 1.5"/>
    <path d="M 182.379819 214.255736 
L 182.379819 211.334968 
" clip-path="url(#p026563ca6f)" style="fill: none; stroke: #1f77b4; stroke-width: 1.5"/>
    <path d="M 185.821197 68.734934 
L 185.821197 63.061725 
" clip-path="url(#p026563ca6f)" style="fill: none; stroke: #1f77b4; stroke-width: 1.5"/>
    <path d="M 189.262576 179.096562 
L 189.262576 175.32014 
" clip-path="url(#p026563ca6f)" style="fill: none; stroke: #1f77b4; stroke-width: 1.5"/>
    <path d="M 192.703954 150.159513 
L 192.703954 145.804331 
" clip-path="url(#p026563ca6f)" style="fill: none; stroke: #1f77b4; stroke-width: 1.5"/>
    <path d="M 196.145333 68.175335 
L 196.145333 62.494134 
" clip-path="url(#p026563ca6f)" style="fill: none; stroke: #1f77b4; stroke-width: 1.5"/>
    <path d="M 199.586711 137.43323 
L 199.586711 132.846782 
" clip-path="url(#p026563ca6f)" style="fill: none; stroke: #1f77b4; stroke-width: 1.5"/>
    <path d="M 203.02809 155.264219 
L 203.02809 151.005363 
" clip-path="url(#p026563ca6f)" style="fill: none; stroke: #1f77b4; stroke-width: 1.5"/>
    <path d="M 206.469468 200.984823 
L 206.469468 197.714346 
" clip-path="url(#p026563ca6f)" style="fill: none; stroke: #1f77b4; stroke-width: 1.5"/>
    <path d="M 209.910847 200.786015 
L 209.910847 197.510587 
" clip-path="url(#p026563ca6f)" style="fill: none; stroke: #1f77b4; stroke-width: 1.5"/>
    <path d="M 213.352225 55.822805 
L 213.352225 49.967968 
" clip-path="url(#p026563ca6f)" style="fill: none; stroke: #1f77b4; stroke-width: 1.5"/>
    <path d="M 216.793604 203.847236 
L 216.793604 200.648911 
" clip-path="url(#p026563ca6f)" style="fill: none; stroke: #1f77b4; stroke-width: 1.5"/>
    <path d="M 220.234982 219.177074 
L 220.234982 216.397314 
" clip-path="url(#p026563ca6f)" style="fill: none; stroke: #1f77b4; stroke-width: 1.5"/>
    <path d="M 223.676361 107.571762 
L 223.676361 102.484094 
" clip-path="url(#p026563ca6f)" style="fill: none; stroke: #1f77b4; stroke-width: 1.5"/>
    <path d="M 227.117739 133.003619 
L 227.117739 128.339387 
" clip-path="url(#p026563ca6f)" style="fill: none; stroke: #1f77b4; stroke-width: 1.5"/>
    <path d="M 230.559118 81.244442 
L 230.559118 75.752967 
" clip-path="url(#p026563ca6f)" style="fill: none; stroke: #1f77b4; stroke-width: 1.5"/>
    <path d="M 234.000496 169.933749 
L 234.000496 165.96483 
" clip-path="url(#p026563ca6f)" style="fill: none; stroke: #1f77b4; stroke-width: 1.5"/>
    <path d="M 237.441875 63.778295 
L 237.441875 58.03468 
" clip-path="url(#p026563ca6f)" style="fill: none; stroke: #1f77b4; stroke-width: 1.5"/>
    <path d="M 240.883253 187.458108 
L 240.883253 183.866445 
" clip-path="url(#p026563ca6f)" style="fill: none; stroke: #1f77b4; stroke-width: 1.5"/>
    <path d="M 244.324632 210.205083 
L 244.324632 207.173236 
" clip-path="url(#p026563ca6f)" style="fill: none; stroke: #1f77b4; stroke-width: 1.5"/>
    <path d="M 247.76601 104.096985 
L 247.76601 98.95419 
" clip-path="url(#p026563ca6f)" style="fill: none; stroke: #1f77b4; stroke-width: 1.5"/>
    <path d="M 251.207389 211.317232 
L 251.207389 208.315468 
" clip-path="url(#p026563ca6f)" style="fill: none; stroke: #1f77b4; stroke-width: 1.5"/>
    <path d="M 254.648767 90.714444 
L 254.648767 85.364682 
" clip-path="url(#p026563ca6f)" style="fill: none; stroke: #1f77b4; stroke-width: 1.5"/>
    <path d="M 258.090146 243.196747 
L 258.090146 241.249383 
" clip-path="url(#p026563ca6f)" style="fill: none; stroke: #1f77b4; stroke-width: 1.5"/>
    <path d="M 261.531524 27.150846 
L 261.531524 20.911693 
" clip-path="url(#p026563ca6f)" style="fill: none; stroke: #1f77b4; stroke-width: 1.5"/>
    <path d="M 264.972903 110.367342 
L 264.972903 105.324466 
" clip-path="url(#p026563ca6f)" style="fill: none; stroke: #1f77b4; stroke-width: 1.5"/>
    <path d="M 268.414281 155.264219 
L 268.414281 151.005363 
" clip-path="url(#p026563ca6f)" style="fill: none; stroke: #1f77b4; stroke-width: 1.5"/>
    <path d="M 271.85566 158.214874 
L 271.85566 154.012713 
" clip-path="url(#p026563ca6f)" style="fill: none; stroke: #1f77b4; stroke-width: 1.5"/>
    <path d="M 275.297038 167.423131 
L 275.297038 163.403092 
" clip-path="url(#p026563ca6f)" style="fill: none; stroke: #1f77b4; stroke-width: 1.5"/>
    <path d="M 278.738417 170.411925 
L 278.738417 166.452817 
" clip-path="url(#p026563ca6f)" style="fill: none; stroke: #1f77b4; stroke-width: 1.5"/>
    <path d="M 282.179795 233.599054 
L 282.179795 231.282276 
" clip-path="url(#p026563ca6f)" style="fill: none; stroke: #1f77b4; stroke-width: 1.5"/>
    <path d="M 285.621174 35.909669 
L 285.621174 29.785343 
" clip-path="url(#p026563ca6f)" style="fill: none; stroke: #1f77b4; stroke-width: 1.5"/>
    <path d="M 289.062552 173.479923 
L 289.062552 169.584364 
" clip-path="url(#p026563ca6f)" style="fill: none; stroke: #1f77b4; stroke-width: 1.5"/>
    <path d="M 292.503931 220.962142 
L 292.503931 218.235357 
" clip-path="url(#p026563ca6f)" style="fill: none; stroke: #1f77b4; stroke-width: 1.5"/>
    <path d="M 295.945309 68.415164 
L 295.945309 62.737387 
" clip-path="url(#p026563ca6f)" style="fill: none; stroke: #1f77b4; stroke-width: 1.5"/>
    <path d="M 299.386688 177.662703 
L 299.386688 173.855509 
" clip-path="url(#p026563ca6f)" style="fill: none; stroke: #1f77b4; stroke-width: 1.5"/>
    <path d="M 302.828066 229.799714 
L 302.828066 227.352313 
" clip-path="url(#p026563ca6f)" style="fill: none; stroke: #1f77b4; stroke-width: 1.5"/>
    <path d="M 306.269445 51.304901 
L 306.269445 45.387838 
" clip-path="url(#p026563ca6f)" style="fill: none; stroke: #1f77b4; stroke-width: 1.5"/>
    <path d="M 309.710823 79.366208 
L 309.710823 73.847062 
" clip-path="url(#p026563ca6f)" style="fill: none; stroke: #1f77b4; stroke-width: 1.5"/>
    <path d="M 313.152202 244.457959 
L 313.152202 242.564605 
" clip-path="url(#p026563ca6f)" style="fill: none; stroke: #1f77b4; stroke-width: 1.5"/>
    <path d="M 316.59358 177.383883 
L 316.59358 173.570734 
" clip-path="url(#p026563ca6f)" style="fill: none; stroke: #1f77b4; stroke-width: 1.5"/>
    <path d="M 320.034959 177.503378 
L 320.034959 173.69278 
" clip-path="url(#p026563ca6f)" style="fill: none; stroke: #1f77b4; stroke-width: 1.5"/>
    <path d="M 323.476337 74.610374 
L 323.476337 69.021781 
" clip-path="url(#p026563ca6f)" style="fill: none; stroke: #1f77b4; stroke-width: 1.5"/>
    <path d="M 326.917716 164.314304 
L 326.917716 160.231861 
" clip-path="url(#p026563ca6f)" style="fill: none; stroke: #1f77b4; stroke-width: 1.5"/>
    <path d="M 330.359094 193.188891 
L 330.359094 189.729617 
" clip-path="url(#p026563ca6f)" style="fill: none; stroke: #1f77b4; stroke-width: 1.5"/>
    <path d="M 333.800473 102.219684 
L 333.800473 97.047353 
" clip-path="url(#p026563ca6f)" style="fill: none; stroke: #1f77b4; stroke-width: 1.5"/>
    <path d="M 337.241851 133.163255 
L 337.241851 128.501805 
" clip-path="url(#p026563ca6f)" style="fill: none; stroke: #1f77b4; stroke-width: 1.5"/>
    <path d="M 340.68323 136.435627 
L 340.68323 131.831546 
" clip-path="url(#p026563ca6f)" style="fill: none; stroke: #1f77b4; stroke-width: 1.5"/>
    <path d="M 344.124608 195.257709 
L 344.124608 191.847505 
" clip-path="url(#p026563ca6f)" style="fill: none; stroke: #1f77b4; stroke-width: 1.5"/>
    <path d="M 347.565987 96.067949 
L 347.565987 90.799998 
" clip-path="url(#p026563ca6f)" style="fill: none; stroke: #1f77b4; stroke-width: 1.5"/>
    <path d="M 351.007365 43.627725 
L 351.007365 37.606407 
" clip-path="url(#p026563ca6f)" style="fill: none; stroke: #1f77b4; stroke-width: 1.5"/>
    <path d="M 354.448744 53.18407 
L 354.448744 47.292808 
" clip-path="url(#p026563ca6f)" style="fill: none; stroke: #1f77b4; stroke-width: 1.5"/>
    <path d="M 357.890122 168.578853 
L 357.890122 164.582264 
" clip-path="url(#p026563ca6f)" style="fill: none; stroke: #1f77b4; stroke-width: 1.5"/>
    <path d="M 361.331501 166.028204 
L 361.331501 161.980044 
" clip-path="url(#p026563ca6f)" style="fill: none; stroke: #1f77b4; stroke-width: 1.5"/>
    <path d="M 364.772879 176.308391 
L 364.772879 172.47236 
" clip-path="url(#p026563ca6f)" style="fill: none; stroke: #1f77b4; stroke-width: 1.5"/>
    <path d="M 368.214258 205.198645 
L 368.214258 202.034963 
" clip-path="url(#p026563ca6f)" style="fill: none; stroke: #1f77b4; stroke-width: 1.5"/>
    <path d="M 371.655636 70.053966 
L 371.655636 64.399642 
" clip-path="url(#p026563ca6f)" style="fill: none; stroke: #1f77b4; stroke-width: 1.5"/>
    <path d="M 375.097015 180.211697 
L 375.097015 176.459384 
" clip-path="url(#p026563ca6f)" style="fill: none; stroke: #1f77b4; stroke-width: 1.5"/>
    <path d="M 378.538393 118.513293 
L 378.538393 113.603284 
" clip-path="url(#p026563ca6f)" style="fill: none; stroke: #1f77b4; stroke-width: 1.5"/>
    <path d="M 381.979772 153.549478 
L 381.979772 149.258021 
" clip-path="url(#p026563ca6f)" style="fill: none; stroke: #1f77b4; stroke-width: 1.5"/>
    <path d="M 385.42115 202.694417 
L 385.42115 199.466836 
" clip-path="url(#p026563ca6f)" style="fill: none; stroke: #1f77b4; stroke-width: 1.5"/>
    <path d="M 388.862529 189.169642 
L 388.862529 185.616995 
" clip-path="url(#p026563ca6f)" style="fill: none; stroke: #1f77b4; stroke-width: 1.5"/>
    <path d="M 392.303907 24.830981 
L 392.303907 18.56177 
" clip-path="url(#p026563ca6f)" style="fill: none; stroke: #1f77b4; stroke-width: 1.5"/>
    <path d="M 395.745286 125.779203 
L 395.745286 120.990845 
" clip-path="url(#p026563ca6f)" style="fill: none; stroke: #1f77b4; stroke-width: 1.5"/>
    <path d="M 399.186664 67.695675 
L 399.186664 62.007631 
" clip-path="url(#p026563ca6f)" style="fill: none; stroke: #1f77b4; stroke-width: 1.5"/>
    <path d="M 402.628043 99.663225 
L 402.628043 94.450943 
" clip-path="url(#p026563ca6f)" style="fill: none; stroke: #1f77b4; stroke-width: 1.5"/>
    <path d="M 406.069421 64.218015 
L 406.069421 58.48061 
" clip-path="url(#p026563ca6f)" style="fill: none; stroke: #1f77b4; stroke-width: 1.5"/>
    <path d="M 409.5108 191.517672 
L 409.5108 188.019266 
" clip-path="url(#p026563ca6f)" style="fill: none; stroke: #1f77b4; stroke-width: 1.5"/>
    <path d="M 412.952178 245.797126 
L 412.952178 243.9629 
" clip-path="url(#p026563ca6f)" style="fill: none; stroke: #1f77b4; stroke-width: 1.5"/>
   </g>
  </g>
  <g id="axes_2">
   <g id="patch_7">
    <path d="M 486.647885 257.158895 
L 865.19952 257.158895 
L 865.19952 7.2 
L 486.647885 7.2 
z
" style="fill: #ffffff"/>
   </g>
   <g id="matplotlib.axis_3">
    <g id="xtick_8">
     <g id="line2d_15">
      <g>
       <use xlink:href="#mda867a8fde" x="540.521599" y="257.158895" style="stroke: #000000; stroke-width: 0.8"/>
      </g>
     </g>
     <g id="text_17">
      <!-- 2 -->
      <g transform="translate(537.340349 271.757332) scale(0.1 -0.1)">
       <use xlink:href="#DejaVuSans-32"/>
      </g>
     </g>
    </g>
    <g id="xtick_9">
     <g id="line2d_16">
      <g>
       <use xlink:href="#mda867a8fde" x="624.524104" y="257.158895" style="stroke: #000000; stroke-width: 0.8"/>
      </g>
     </g>
     <g id="text_18">
      <!-- 4 -->
      <g transform="translate(621.342854 271.757332) scale(0.1 -0.1)">
       <use xlink:href="#DejaVuSans-34"/>
      </g>
     </g>
    </g>
    <g id="xtick_10">
     <g id="line2d_17">
      <g>
       <use xlink:href="#mda867a8fde" x="708.526608" y="257.158895" style="stroke: #000000; stroke-width: 0.8"/>
      </g>
     </g>
     <g id="text_19">
      <!-- 6 -->
      <g transform="translate(705.345358 271.757332) scale(0.1 -0.1)">
       <use xlink:href="#DejaVuSans-36"/>
      </g>
     </g>
    </g>
    <g id="xtick_11">
     <g id="line2d_18">
      <g>
       <use xlink:href="#mda867a8fde" x="792.529113" y="257.158895" style="stroke: #000000; stroke-width: 0.8"/>
      </g>
     </g>
     <g id="text_20">
      <!-- 8 -->
      <g transform="translate(789.347863 271.757332) scale(0.1 -0.1)">
       <defs>
        <path id="DejaVuSans-38" d="M 2034 2216 
Q 1584 2216 1326 1975 
Q 1069 1734 1069 1313 
Q 1069 891 1326 650 
Q 1584 409 2034 409 
Q 2484 409 2743 651 
Q 3003 894 3003 1313 
Q 3003 1734 2745 1975 
Q 2488 2216 2034 2216 
z
M 1403 2484 
Q 997 2584 770 2862 
Q 544 3141 544 3541 
Q 544 4100 942 4425 
Q 1341 4750 2034 4750 
Q 2731 4750 3128 4425 
Q 3525 4100 3525 3541 
Q 3525 3141 3298 2862 
Q 3072 2584 2669 2484 
Q 3125 2378 3379 2068 
Q 3634 1759 3634 1313 
Q 3634 634 3220 271 
Q 2806 -91 2034 -91 
Q 1263 -91 848 271 
Q 434 634 434 1313 
Q 434 1759 690 2068 
Q 947 2378 1403 2484 
z
M 1172 3481 
Q 1172 3119 1398 2916 
Q 1625 2713 2034 2713 
Q 2441 2713 2670 2916 
Q 2900 3119 2900 3481 
Q 2900 3844 2670 4047 
Q 2441 4250 2034 4250 
Q 1625 4250 1398 4047 
Q 1172 3844 1172 3481 
z
" transform="scale(0.015625)"/>
       </defs>
       <use xlink:href="#DejaVuSans-38"/>
      </g>
     </g>
    </g>
    <g id="text_21">
     <!-- wavelength [Å] -->
     <g transform="translate(637.886202 287.119832) scale(0.1 -0.1)">
      <defs>
       <path id="DejaVuSans-77" d="M 269 3500 
L 844 3500 
L 1563 769 
L 2278 3500 
L 2956 3500 
L 3675 769 
L 4391 3500 
L 4966 3500 
L 4050 0 
L 3372 0 
L 2619 2869 
L 1863 0 
L 1184 0 
L 269 3500 
z
" transform="scale(0.015625)"/>
       <path id="DejaVuSans-61" d="M 2194 1759 
Q 1497 1759 1228 1600 
Q 959 1441 959 1056 
Q 959 750 1161 570 
Q 1363 391 1709 391 
Q 2188 391 2477 730 
Q 2766 1069 2766 1631 
L 2766 1759 
L 2194 1759 
z
M 3341 1997 
L 3341 0 
L 2766 0 
L 2766 531 
Q 2569 213 2275 61 
Q 1981 -91 1556 -91 
Q 1019 -91 701 211 
Q 384 513 384 1019 
Q 384 1609 779 1909 
Q 1175 2209 1959 2209 
L 2766 2209 
L 2766 2266 
Q 2766 2663 2505 2880 
Q 2244 3097 1772 3097 
Q 1472 3097 1187 3025 
Q 903 2953 641 2809 
L 641 3341 
Q 956 3463 1253 3523 
Q 1550 3584 1831 3584 
Q 2591 3584 2966 3190 
Q 3341 2797 3341 1997 
z
" transform="scale(0.015625)"/>
       <path id="DejaVuSans-76" d="M 191 3500 
L 800 3500 
L 1894 563 
L 2988 3500 
L 3597 3500 
L 2284 0 
L 1503 0 
L 191 3500 
z
" transform="scale(0.015625)"/>
       <path id="DejaVuSans-6c" d="M 603 4863 
L 1178 4863 
L 1178 0 
L 603 0 
L 603 4863 
z
" transform="scale(0.015625)"/>
       <path id="DejaVuSans-67" d="M 2906 1791 
Q 2906 2416 2648 2759 
Q 2391 3103 1925 3103 
Q 1463 3103 1205 2759 
Q 947 2416 947 1791 
Q 947 1169 1205 825 
Q 1463 481 1925 481 
Q 2391 481 2648 825 
Q 2906 1169 2906 1791 
z
M 3481 434 
Q 3481 -459 3084 -895 
Q 2688 -1331 1869 -1331 
Q 1566 -1331 1297 -1286 
Q 1028 -1241 775 -1147 
L 775 -588 
Q 1028 -725 1275 -790 
Q 1522 -856 1778 -856 
Q 2344 -856 2625 -561 
Q 2906 -266 2906 331 
L 2906 616 
Q 2728 306 2450 153 
Q 2172 0 1784 0 
Q 1141 0 747 490 
Q 353 981 353 1791 
Q 353 2603 747 3093 
Q 1141 3584 1784 3584 
Q 2172 3584 2450 3431 
Q 2728 3278 2906 2969 
L 2906 3500 
L 3481 3500 
L 3481 434 
z
" transform="scale(0.015625)"/>
       <path id="DejaVuSans-68" d="M 3513 2113 
L 3513 0 
L 2938 0 
L 2938 2094 
Q 2938 2591 2744 2837 
Q 2550 3084 2163 3084 
Q 1697 3084 1428 2787 
Q 1159 2491 1159 1978 
L 1159 0 
L 581 0 
L 581 4863 
L 1159 4863 
L 1159 2956 
Q 1366 3272 1645 3428 
Q 1925 3584 2291 3584 
Q 2894 3584 3203 3211 
Q 3513 2838 3513 2113 
z
" transform="scale(0.015625)"/>
       <path id="DejaVuSans-c5" d="M 2663 5081 
Q 2663 5278 2523 5417 
Q 2384 5556 2188 5556 
Q 1988 5556 1852 5420 
Q 1716 5284 1716 5081 
Q 1716 4884 1853 4746 
Q 1991 4609 2188 4609 
Q 2384 4609 2523 4746 
Q 2663 4884 2663 5081 
z
M 2188 4044 
L 1338 1722 
L 3041 1722 
L 2188 4044 
z
M 1716 4366 
Q 1525 4494 1428 4673 
Q 1331 4853 1331 5081 
Q 1331 5441 1579 5691 
Q 1828 5941 2188 5941 
Q 2544 5941 2795 5689 
Q 3047 5438 3047 5081 
Q 3047 4863 2948 4678 
Q 2850 4494 2663 4366 
L 4325 0 
L 3669 0 
L 3244 1197 
L 1141 1197 
L 716 0 
L 50 0 
L 1716 4366 
z
" transform="scale(0.015625)"/>
      </defs>
      <use xlink:href="#DejaVuSans-77"/>
      <use xlink:href="#DejaVuSans-61" transform="translate(81.787109 0)"/>
      <use xlink:href="#DejaVuSans-76" transform="translate(143.066406 0)"/>
      <use xlink:href="#DejaVuSans-65" transform="translate(202.246094 0)"/>
      <use xlink:href="#DejaVuSans-6c" transform="translate(263.769531 0)"/>
      <use xlink:href="#DejaVuSans-65" transform="translate(291.552734 0)"/>
      <use xlink:href="#DejaVuSans-6e" transform="translate(353.076172 0)"/>
      <use xlink:href="#DejaVuSans-67" transform="translate(416.455078 0)"/>
      <use xlink:href="#DejaVuSans-74" transform="translate(479.931641 0)"/>
      <use xlink:href="#DejaVuSans-68" transform="translate(519.140625 0)"/>
      <use xlink:href="#DejaVuSans-20" transform="translate(582.519531 0)"/>
      <use xlink:href="#DejaVuSans-5b" transform="translate(614.306641 0)"/>
      <use xlink:href="#DejaVuSans-c5" transform="translate(653.320312 0)"/>
      <use xlink:href="#DejaVuSans-5d" transform="translate(721.728516 0)"/>
     </g>
    </g>
   </g>
   <g id="matplotlib.axis_4">
    <g id="ytick_7">
     <g id="line2d_19">
      <g>
       <use xlink:href="#mc84307bc2c" x="486.647885" y="225.878894" style="stroke: #000000; stroke-width: 0.8"/>
      </g>
     </g>
     <g id="text_22">
      <!-- 1000 -->
      <g transform="translate(454.197885 229.678112) scale(0.1 -0.1)">
       <use xlink:href="#DejaVuSans-31"/>
       <use xlink:href="#DejaVuSans-30" transform="translate(63.623047 0)"/>
       <use xlink:href="#DejaVuSans-30" transform="translate(127.246094 0)"/>
       <use xlink:href="#DejaVuSans-30" transform="translate(190.869141 0)"/>
      </g>
     </g>
    </g>
    <g id="ytick_8">
     <g id="line2d_20">
      <g>
       <use xlink:href="#mc84307bc2c" x="486.647885" y="185.638269" style="stroke: #000000; stroke-width: 0.8"/>
      </g>
     </g>
     <g id="text_23">
      <!-- 2000 -->
      <g transform="translate(454.197885 189.437487) scale(0.1 -0.1)">
       <use xlink:href="#DejaVuSans-32"/>
       <use xlink:href="#DejaVuSans-30" transform="translate(63.623047 0)"/>
       <use xlink:href="#DejaVuSans-30" transform="translate(127.246094 0)"/>
       <use xlink:href="#DejaVuSans-30" transform="translate(190.869141 0)"/>
      </g>
     </g>
    </g>
    <g id="ytick_9">
     <g id="line2d_21">
      <g>
       <use xlink:href="#mc84307bc2c" x="486.647885" y="145.397644" style="stroke: #000000; stroke-width: 0.8"/>
      </g>
     </g>
     <g id="text_24">
      <!-- 3000 -->
      <g transform="translate(454.197885 149.196862) scale(0.1 -0.1)">
       <use xlink:href="#DejaVuSans-33"/>
       <use xlink:href="#DejaVuSans-30" transform="translate(63.623047 0)"/>
       <use xlink:href="#DejaVuSans-30" transform="translate(127.246094 0)"/>
       <use xlink:href="#DejaVuSans-30" transform="translate(190.869141 0)"/>
      </g>
     </g>
    </g>
    <g id="ytick_10">
     <g id="line2d_22">
      <g>
       <use xlink:href="#mc84307bc2c" x="486.647885" y="105.157019" style="stroke: #000000; stroke-width: 0.8"/>
      </g>
     </g>
     <g id="text_25">
      <!-- 4000 -->
      <g transform="translate(454.197885 108.956237) scale(0.1 -0.1)">
       <use xlink:href="#DejaVuSans-34"/>
       <use xlink:href="#DejaVuSans-30" transform="translate(63.623047 0)"/>
       <use xlink:href="#DejaVuSans-30" transform="translate(127.246094 0)"/>
       <use xlink:href="#DejaVuSans-30" transform="translate(190.869141 0)"/>
      </g>
     </g>
    </g>
    <g id="ytick_11">
     <g id="line2d_23">
      <g>
       <use xlink:href="#mc84307bc2c" x="486.647885" y="64.916394" style="stroke: #000000; stroke-width: 0.8"/>
      </g>
     </g>
     <g id="text_26">
      <!-- 5000 -->
      <g transform="translate(454.197885 68.715612) scale(0.1 -0.1)">
       <use xlink:href="#DejaVuSans-35"/>
       <use xlink:href="#DejaVuSans-30" transform="translate(63.623047 0)"/>
       <use xlink:href="#DejaVuSans-30" transform="translate(127.246094 0)"/>
       <use xlink:href="#DejaVuSans-30" transform="translate(190.869141 0)"/>
      </g>
     </g>
    </g>
    <g id="ytick_12">
     <g id="line2d_24">
      <g>
       <use xlink:href="#mc84307bc2c" x="486.647885" y="24.675769" style="stroke: #000000; stroke-width: 0.8"/>
      </g>
     </g>
     <g id="text_27">
      <!-- 6000 -->
      <g transform="translate(454.197885 28.474987) scale(0.1 -0.1)">
       <use xlink:href="#DejaVuSans-36"/>
       <use xlink:href="#DejaVuSans-30" transform="translate(63.623047 0)"/>
       <use xlink:href="#DejaVuSans-30" transform="translate(127.246094 0)"/>
       <use xlink:href="#DejaVuSans-30" transform="translate(190.869141 0)"/>
      </g>
     </g>
    </g>
    <g id="text_28">
     <!-- [counts] -->
     <g transform="translate(448.118197 152.791947) rotate(-90) scale(0.1 -0.1)">
      <use xlink:href="#DejaVuSans-5b"/>
      <use xlink:href="#DejaVuSans-63" transform="translate(39.013672 0)"/>
      <use xlink:href="#DejaVuSans-6f" transform="translate(93.994141 0)"/>
      <use xlink:href="#DejaVuSans-75" transform="translate(155.175781 0)"/>
      <use xlink:href="#DejaVuSans-6e" transform="translate(218.554688 0)"/>
      <use xlink:href="#DejaVuSans-74" transform="translate(281.933594 0)"/>
      <use xlink:href="#DejaVuSans-73" transform="translate(321.142578 0)"/>
      <use xlink:href="#DejaVuSans-5d" transform="translate(373.242188 0)"/>
     </g>
    </g>
   </g>
   <g id="patch_8">
    <path d="M 486.647885 257.158895 
L 486.647885 7.2 
" style="fill: none; stroke: #000000; stroke-width: 0.8; stroke-linejoin: miter; stroke-linecap: square"/>
   </g>
   <g id="patch_9">
    <path d="M 865.19952 257.158895 
L 865.19952 7.2 
" style="fill: none; stroke: #000000; stroke-width: 0.8; stroke-linejoin: miter; stroke-linecap: square"/>
   </g>
   <g id="patch_10">
    <path d="M 486.647885 257.158895 
L 865.19952 257.158895 
" style="fill: none; stroke: #000000; stroke-width: 0.8; stroke-linejoin: miter; stroke-linecap: square"/>
   </g>
   <g id="patch_11">
    <path d="M 486.647885 7.2 
L 865.19952 7.2 
" style="fill: none; stroke: #000000; stroke-width: 0.8; stroke-linejoin: miter; stroke-linecap: square"/>
   </g>
   <g id="line2d_25">
    <path d="M 503.854777 167.851912 
L 507.296156 167.851912 
L 507.296156 78.075078 
L 510.737534 78.075078 
L 510.737534 168.133597 
L 514.178913 168.133597 
L 514.178913 102.179212 
L 517.620291 102.179212 
L 517.620291 142.62104 
L 521.06167 142.62104 
L 521.06167 132.238959 
L 524.503048 132.238959 
L 524.503048 167.409266 
L 527.944427 167.409266 
L 527.944427 195.537462 
L 531.385805 195.537462 
L 531.385805 104.030281 
L 534.827184 104.030281 
L 534.827184 123.466503 
L 538.268562 123.466503 
L 538.268562 162.298706 
L 541.709941 162.298706 
L 541.709941 86.646331 
L 545.151319 86.646331 
L 545.151319 197.428772 
L 548.592698 197.428772 
L 548.592698 84.996465 
L 552.034076 84.996465 
L 552.034076 152.278791 
L 555.475455 152.278791 
L 555.475455 81.656494 
L 558.916833 81.656494 
L 558.916833 134.733878 
L 562.358212 134.733878 
L 562.358212 146.363419 
L 565.79959 146.363419 
L 565.79959 114.774528 
L 569.240969 114.774528 
L 569.240969 127.450325 
L 572.682347 127.450325 
L 572.682347 136.947112 
L 576.123726 136.947112 
L 576.123726 137.792165 
L 579.565104 137.792165 
L 579.565104 161.534134 
L 583.006483 161.534134 
L 583.006483 105.519184 
L 586.447861 105.519184 
L 586.447861 153.325047 
L 589.88924 153.325047 
L 589.88924 181.85565 
L 593.330618 181.85565 
L 593.330618 145.1562 
L 596.771997 145.1562 
L 596.771997 85.881759 
L 600.213375 85.881759 
L 600.213375 165.839881 
L 603.654754 165.839881 
L 603.654754 204.148956 
L 607.096132 204.148956 
L 607.096132 88.014512 
L 610.537511 88.014512 
L 610.537511 132.520644 
L 613.978889 132.520644 
L 613.978889 213.4043 
L 617.420268 213.4043 
L 617.420268 64.513987 
L 620.861646 64.513987 
L 620.861646 178.998566 
L 624.303025 178.998566 
L 624.303025 149.70339 
L 627.744403 149.70339 
L 627.744403 64.71519 
L 631.185782 64.71519 
L 631.185782 135.458209 
L 634.62716 135.458209 
L 634.62716 153.687212 
L 638.068539 153.687212 
L 638.068539 199.923691 
L 641.509917 199.923691 
L 641.509917 199.601766 
L 644.951296 199.601766 
L 644.951296 52.602762 
L 648.392674 52.602762 
L 648.392674 203.022219 
L 651.834053 203.022219 
L 651.834053 218.072212 
L 655.275431 218.072212 
L 655.275431 105.358222 
L 658.71681 105.358222 
L 658.71681 131.152462 
L 662.158188 131.152462 
L 662.158188 79.081094 
L 665.599567 79.081094 
L 665.599567 167.449506 
L 669.040945 167.449506 
L 669.040945 62.019069 
L 672.482324 62.019069 
L 672.482324 186.241878 
L 675.923702 186.241878 
L 675.923702 207.247484 
L 679.365081 207.247484 
L 679.365081 103.386431 
L 682.806459 103.386431 
L 682.806459 211.794675 
L 686.247838 211.794675 
L 686.247838 87.410903 
L 689.689216 87.410903 
L 689.689216 242.216587 
L 693.130595 242.216587 
L 693.130595 24.75625 
L 696.571973 24.75625 
L 696.571973 107.85314 
L 700.013352 107.85314 
L 700.013352 154.331062 
L 703.45473 154.331062 
L 703.45473 156.061409 
L 706.896109 156.061409 
L 706.896109 165.678919 
L 710.337487 165.678919 
L 710.337487 169.743222 
L 713.778866 169.743222 
L 713.778866 233.484372 
L 717.220244 233.484372 
L 717.220244 32.844615 
L 720.661623 32.844615 
L 720.661623 170.829719 
L 724.103001 170.829719 
L 724.103001 219.762319 
L 727.54438 219.762319 
L 727.54438 66.123612 
L 730.985758 66.123612 
L 730.985758 176.101241 
L 734.427137 176.101241 
L 734.427137 228.776219 
L 737.868515 228.776219 
L 737.868515 48.417737 
L 741.309894 48.417737 
L 741.309894 77.55195 
L 744.751272 77.55195 
L 744.751272 243.946934 
L 748.192651 243.946934 
L 748.192651 175.336669 
L 751.634029 175.336669 
L 751.634029 176.70485 
L 755.075408 176.70485 
L 755.075408 72.119465 
L 758.516786 72.119465 
L 758.516786 162.902316 
L 761.958165 162.902316 
L 761.958165 192.277972 
L 765.399543 192.277972 
L 765.399543 100.690309 
L 768.840922 100.690309 
L 768.840922 130.267169 
L 772.2823 130.267169 
L 772.2823 134.170509 
L 775.723679 134.170509 
L 775.723679 194.209522 
L 779.165057 194.209522 
L 779.165057 93.809162 
L 782.606436 93.809162 
L 782.606436 40.047687 
L 786.047814 40.047687 
L 786.047814 51.1541 
L 789.489193 51.1541 
L 789.489193 167.851912 
L 792.930571 167.851912 
L 792.930571 164.190016 
L 796.37195 164.190016 
L 796.37195 174.008728 
L 799.813328 174.008728 
L 799.813328 207.690131 
L 803.254707 207.690131 
L 803.254707 64.312784 
L 806.696085 64.312784 
L 806.696085 177.590144 
L 810.137464 177.590144 
L 810.137464 119.603403 
L 813.578842 119.603403 
L 813.578842 149.743631 
L 817.020221 149.743631 
L 817.020221 201.251631 
L 820.461599 201.251631 
L 820.461599 189.259925 
L 823.902978 189.259925 
L 823.902978 21.697962 
L 827.344356 21.697962 
L 827.344356 122.701931 
L 830.785735 122.701931 
L 830.785735 67.049147 
L 834.227113 67.049147 
L 834.227113 96.706487 
L 837.668492 96.706487 
L 837.668492 62.542197 
L 841.10987 62.542197 
L 841.10987 188.817278 
L 844.551249 188.817278 
L 844.551249 244.872469 
L 847.992627 244.872469 
L 847.992627 244.872469 
" clip-path="url(#p2dfdb85175)" style="fill: none; stroke: #1f77b4; stroke-width: 1.5; stroke-linecap: square"/>
   </g>
   <g id="LineCollection_2">
    <path d="M 505.575467 169.840467 
L 505.575467 165.863358 
" clip-path="url(#p2dfdb85175)" style="fill: none; stroke: #1f77b4; stroke-width: 1.5"/>
    <path d="M 509.016845 80.825901 
L 509.016845 75.324255 
" clip-path="url(#p2dfdb85175)" style="fill: none; stroke: #1f77b4; stroke-width: 1.5"/>
    <path d="M 512.458224 170.119299 
L 512.458224 166.147894 
" clip-path="url(#p2dfdb85175)" style="fill: none; stroke: #1f77b4; stroke-width: 1.5"/>
    <path d="M 515.899602 104.747687 
L 515.899602 99.610738 
" clip-path="url(#p2dfdb85175)" style="fill: none; stroke: #1f77b4; stroke-width: 1.5"/>
    <path d="M 519.340981 144.850313 
L 519.340981 140.391768 
" clip-path="url(#p2dfdb85175)" style="fill: none; stroke: #1f77b4; stroke-width: 1.5"/>
    <path d="M 522.782359 134.560045 
L 522.782359 129.917874 
" clip-path="url(#p2dfdb85175)" style="fill: none; stroke: #1f77b4; stroke-width: 1.5"/>
    <path d="M 526.223738 169.402294 
L 526.223738 165.416237 
" clip-path="url(#p2dfdb85175)" style="fill: none; stroke: #1f77b4; stroke-width: 1.5"/>
    <path d="M 529.665116 197.222771 
L 529.665116 193.852154 
" clip-path="url(#p2dfdb85175)" style="fill: none; stroke: #1f77b4; stroke-width: 1.5"/>
    <path d="M 533.106495 106.584214 
L 533.106495 101.476348 
" clip-path="url(#p2dfdb85175)" style="fill: none; stroke: #1f77b4; stroke-width: 1.5"/>
    <path d="M 536.547873 125.862426 
L 536.547873 121.07058 
" clip-path="url(#p2dfdb85175)" style="fill: none; stroke: #1f77b4; stroke-width: 1.5"/>
    <path d="M 539.989252 164.342676 
L 539.989252 160.254736 
" clip-path="url(#p2dfdb85175)" style="fill: none; stroke: #1f77b4; stroke-width: 1.5"/>
    <path d="M 543.43063 89.33373 
L 543.43063 83.958932 
" clip-path="url(#p2dfdb85175)" style="fill: none; stroke: #1f77b4; stroke-width: 1.5"/>
    <path d="M 546.872009 199.091348 
L 546.872009 195.766196 
" clip-path="url(#p2dfdb85175)" style="fill: none; stroke: #1f77b4; stroke-width: 1.5"/>
    <path d="M 550.313387 87.696189 
L 550.313387 82.296742 
" clip-path="url(#p2dfdb85175)" style="fill: none; stroke: #1f77b4; stroke-width: 1.5"/>
    <path d="M 553.754766 154.419123 
L 553.754766 150.138458 
" clip-path="url(#p2dfdb85175)" style="fill: none; stroke: #1f77b4; stroke-width: 1.5"/>
    <path d="M 557.196144 84.380995 
L 557.196144 78.931992 
" clip-path="url(#p2dfdb85175)" style="fill: none; stroke: #1f77b4; stroke-width: 1.5"/>
    <path d="M 560.637523 137.033234 
L 560.637523 132.434521 
" clip-path="url(#p2dfdb85175)" style="fill: none; stroke: #1f77b4; stroke-width: 1.5"/>
    <path d="M 564.078901 148.558654 
L 564.078901 144.168183 
" clip-path="url(#p2dfdb85175)" style="fill: none; stroke: #1f77b4; stroke-width: 1.5"/>
    <path d="M 567.52028 117.242364 
L 567.52028 112.306691 
" clip-path="url(#p2dfdb85175)" style="fill: none; stroke: #1f77b4; stroke-width: 1.5"/>
    <path d="M 570.961658 129.812556 
L 570.961658 125.088094 
" clip-path="url(#p2dfdb85175)" style="fill: none; stroke: #1f77b4; stroke-width: 1.5"/>
    <path d="M 574.403037 139.22702 
L 574.403037 134.667205 
" clip-path="url(#p2dfdb85175)" style="fill: none; stroke: #1f77b4; stroke-width: 1.5"/>
    <path d="M 577.844415 140.064603 
L 577.844415 135.519728 
" clip-path="url(#p2dfdb85175)" style="fill: none; stroke: #1f77b4; stroke-width: 1.5"/>
    <path d="M 581.285794 163.585617 
L 581.285794 159.482652 
" clip-path="url(#p2dfdb85175)" style="fill: none; stroke: #1f77b4; stroke-width: 1.5"/>
    <path d="M 584.727172 108.06136 
L 584.727172 102.977008 
" clip-path="url(#p2dfdb85175)" style="fill: none; stroke: #1f77b4; stroke-width: 1.5"/>
    <path d="M 588.168551 155.455521 
L 588.168551 151.194573 
" clip-path="url(#p2dfdb85175)" style="fill: none; stroke: #1f77b4; stroke-width: 1.5"/>
    <path d="M 591.609929 183.697071 
L 591.609929 180.014229 
" clip-path="url(#p2dfdb85175)" style="fill: none; stroke: #1f77b4; stroke-width: 1.5"/>
    <path d="M 595.051308 147.362473 
L 595.051308 142.949927 
" clip-path="url(#p2dfdb85175)" style="fill: none; stroke: #1f77b4; stroke-width: 1.5"/>
    <path d="M 598.492686 88.574876 
L 598.492686 83.188642 
" clip-path="url(#p2dfdb85175)" style="fill: none; stroke: #1f77b4; stroke-width: 1.5"/>
    <path d="M 601.934065 167.848691 
L 601.934065 163.831072 
" clip-path="url(#p2dfdb85175)" style="fill: none; stroke: #1f77b4; stroke-width: 1.5"/>
    <path d="M 605.375443 205.728112 
L 605.375443 202.5698 
" clip-path="url(#p2dfdb85175)" style="fill: none; stroke: #1f77b4; stroke-width: 1.5"/>
    <path d="M 608.816822 90.691648 
L 608.816822 85.337376 
" clip-path="url(#p2dfdb85175)" style="fill: none; stroke: #1f77b4; stroke-width: 1.5"/>
    <path d="M 612.2582 134.839286 
L 612.2582 130.202001 
" clip-path="url(#p2dfdb85175)" style="fill: none; stroke: #1f77b4; stroke-width: 1.5"/>
    <path d="M 615.699579 214.860766 
L 615.699579 211.947834 
" clip-path="url(#p2dfdb85175)" style="fill: none; stroke: #1f77b4; stroke-width: 1.5"/>
    <path d="M 619.140957 67.362273 
L 619.140957 61.665701 
" clip-path="url(#p2dfdb85175)" style="fill: none; stroke: #1f77b4; stroke-width: 1.5"/>
    <path d="M 622.582336 180.870944 
L 622.582336 177.126187 
" clip-path="url(#p2dfdb85175)" style="fill: none; stroke: #1f77b4; stroke-width: 1.5"/>
    <path d="M 626.023714 151.867798 
L 626.023714 147.538983 
" clip-path="url(#p2dfdb85175)" style="fill: none; stroke: #1f77b4; stroke-width: 1.5"/>
    <path d="M 629.465093 67.562055 
L 629.465093 61.868326 
" clip-path="url(#p2dfdb85175)" style="fill: none; stroke: #1f77b4; stroke-width: 1.5"/>
    <path d="M 632.906471 137.751219 
L 632.906471 133.1652 
" clip-path="url(#p2dfdb85175)" style="fill: none; stroke: #1f77b4; stroke-width: 1.5"/>
    <path d="M 636.34785 155.814263 
L 636.34785 151.560161 
" clip-path="url(#p2dfdb85175)" style="fill: none; stroke: #1f77b4; stroke-width: 1.5"/>
    <path d="M 639.789228 201.555794 
L 639.789228 198.291587 
" clip-path="url(#p2dfdb85175)" style="fill: none; stroke: #1f77b4; stroke-width: 1.5"/>
    <path d="M 643.230607 201.237833 
L 643.230607 197.965698 
" clip-path="url(#p2dfdb85175)" style="fill: none; stroke: #1f77b4; stroke-width: 1.5"/>
    <path d="M 646.671985 55.533982 
L 646.671985 49.671543 
" clip-path="url(#p2dfdb85175)" style="fill: none; stroke: #1f77b4; stroke-width: 1.5"/>
    <path d="M 650.113364 204.615666 
L 650.113364 201.428771 
" clip-path="url(#p2dfdb85175)" style="fill: none; stroke: #1f77b4; stroke-width: 1.5"/>
    <path d="M 653.554742 219.462699 
L 653.554742 216.681726 
" clip-path="url(#p2dfdb85175)" style="fill: none; stroke: #1f77b4; stroke-width: 1.5"/>
    <path d="M 656.996121 107.901671 
L 656.996121 102.814772 
" clip-path="url(#p2dfdb85175)" style="fill: none; stroke: #1f77b4; stroke-width: 1.5"/>
    <path d="M 660.437499 133.482947 
L 660.437499 128.821978 
" clip-path="url(#p2dfdb85175)" style="fill: none; stroke: #1f77b4; stroke-width: 1.5"/>
    <path d="M 663.878878 81.824548 
L 663.878878 76.337639 
" clip-path="url(#p2dfdb85175)" style="fill: none; stroke: #1f77b4; stroke-width: 1.5"/>
    <path d="M 667.320256 169.442128 
L 667.320256 165.456884 
" clip-path="url(#p2dfdb85175)" style="fill: none; stroke: #1f77b4; stroke-width: 1.5"/>
    <path d="M 670.761635 64.884924 
L 670.761635 59.153213 
" clip-path="url(#p2dfdb85175)" style="fill: none; stroke: #1f77b4; stroke-width: 1.5"/>
    <path d="M 674.203013 188.034732 
L 674.203013 184.449024 
" clip-path="url(#p2dfdb85175)" style="fill: none; stroke: #1f77b4; stroke-width: 1.5"/>
    <path d="M 677.644392 208.786655 
L 677.644392 205.708313 
" clip-path="url(#p2dfdb85175)" style="fill: none; stroke: #1f77b4; stroke-width: 1.5"/>
    <path d="M 681.08577 105.945431 
L 681.08577 100.827431 
" clip-path="url(#p2dfdb85175)" style="fill: none; stroke: #1f77b4; stroke-width: 1.5"/>
    <path d="M 684.527149 213.27321 
L 684.527149 210.31614 
" clip-path="url(#p2dfdb85175)" style="fill: none; stroke: #1f77b4; stroke-width: 1.5"/>
    <path d="M 687.968527 90.092572 
L 687.968527 84.729234 
" clip-path="url(#p2dfdb85175)" style="fill: none; stroke: #1f77b4; stroke-width: 1.5"/>
    <path d="M 691.409906 243.197337 
L 691.409906 241.235838 
" clip-path="url(#p2dfdb85175)" style="fill: none; stroke: #1f77b4; stroke-width: 1.5"/>
    <path d="M 694.851284 27.872756 
L 694.851284 21.639744 
" clip-path="url(#p2dfdb85175)" style="fill: none; stroke: #1f77b4; stroke-width: 1.5"/>
    <path d="M 698.292663 110.376776 
L 698.292663 105.329505 
" clip-path="url(#p2dfdb85175)" style="fill: none; stroke: #1f77b4; stroke-width: 1.5"/>
    <path d="M 701.734041 156.452014 
L 701.734041 152.21011 
" clip-path="url(#p2dfdb85175)" style="fill: none; stroke: #1f77b4; stroke-width: 1.5"/>
    <path d="M 705.17542 158.165882 
L 705.17542 153.956936 
" clip-path="url(#p2dfdb85175)" style="fill: none; stroke: #1f77b4; stroke-width: 1.5"/>
    <path d="M 708.616798 167.68934 
L 708.616798 163.668498 
" clip-path="url(#p2dfdb85175)" style="fill: none; stroke: #1f77b4; stroke-width: 1.5"/>
    <path d="M 712.058177 171.712547 
L 712.058177 167.773896 
" clip-path="url(#p2dfdb85175)" style="fill: none; stroke: #1f77b4; stroke-width: 1.5"/>
    <path d="M 715.499555 234.630347 
L 715.499555 232.338397 
" clip-path="url(#p2dfdb85175)" style="fill: none; stroke: #1f77b4; stroke-width: 1.5"/>
    <path d="M 718.940934 35.908457 
L 718.940934 29.780774 
" clip-path="url(#p2dfdb85175)" style="fill: none; stroke: #1f77b4; stroke-width: 1.5"/>
    <path d="M 722.382312 172.787912 
L 722.382312 168.871525 
" clip-path="url(#p2dfdb85175)" style="fill: none; stroke: #1f77b4; stroke-width: 1.5"/>
    <path d="M 725.823691 221.128131 
L 725.823691 218.396507 
" clip-path="url(#p2dfdb85175)" style="fill: none; stroke: #1f77b4; stroke-width: 1.5"/>
    <path d="M 729.265069 68.960505 
L 729.265069 63.28672 
" clip-path="url(#p2dfdb85175)" style="fill: none; stroke: #1f77b4; stroke-width: 1.5"/>
    <path d="M 732.706448 178.004499 
L 732.706448 174.197982 
" clip-path="url(#p2dfdb85175)" style="fill: none; stroke: #1f77b4; stroke-width: 1.5"/>
    <path d="M 736.147826 230.002073 
L 736.147826 227.550365 
" clip-path="url(#p2dfdb85175)" style="fill: none; stroke: #1f77b4; stroke-width: 1.5"/>
    <path d="M 739.589205 51.377544 
L 739.589205 45.457931 
" clip-path="url(#p2dfdb85175)" style="fill: none; stroke: #1f77b4; stroke-width: 1.5"/>
    <path d="M 743.030583 80.306596 
L 743.030583 74.797304 
" clip-path="url(#p2dfdb85175)" style="fill: none; stroke: #1f77b4; stroke-width: 1.5"/>
    <path d="M 746.471962 244.891518 
L 746.471962 243.00235 
" clip-path="url(#p2dfdb85175)" style="fill: none; stroke: #1f77b4; stroke-width: 1.5"/>
    <path d="M 749.91334 177.247992 
L 749.91334 173.425345 
" clip-path="url(#p2dfdb85175)" style="fill: none; stroke: #1f77b4; stroke-width: 1.5"/>
    <path d="M 753.354719 178.601716 
L 753.354719 174.807983 
" clip-path="url(#p2dfdb85175)" style="fill: none; stroke: #1f77b4; stroke-width: 1.5"/>
    <path d="M 756.796097 74.91351 
L 756.796097 69.325421 
" clip-path="url(#p2dfdb85175)" style="fill: none; stroke: #1f77b4; stroke-width: 1.5"/>
    <path d="M 760.237476 164.940335 
L 760.237476 160.864296 
" clip-path="url(#p2dfdb85175)" style="fill: none; stroke: #1f77b4; stroke-width: 1.5"/>
    <path d="M 763.678854 194.001755 
L 763.678854 190.554188 
" clip-path="url(#p2dfdb85175)" style="fill: none; stroke: #1f77b4; stroke-width: 1.5"/>
    <path d="M 767.120233 103.270421 
L 767.120233 98.110198 
" clip-path="url(#p2dfdb85175)" style="fill: none; stroke: #1f77b4; stroke-width: 1.5"/>
    <path d="M 770.561611 132.605284 
L 770.561611 127.929053 
" clip-path="url(#p2dfdb85175)" style="fill: none; stroke: #1f77b4; stroke-width: 1.5"/>
    <path d="M 774.00299 136.47479 
L 774.00299 131.866228 
" clip-path="url(#p2dfdb85175)" style="fill: none; stroke: #1f77b4; stroke-width: 1.5"/>
    <path d="M 777.444368 195.910611 
L 777.444368 192.508433 
" clip-path="url(#p2dfdb85175)" style="fill: none; stroke: #1f77b4; stroke-width: 1.5"/>
    <path d="M 780.885747 96.442388 
L 780.885747 91.175937 
" clip-path="url(#p2dfdb85175)" style="fill: none; stroke: #1f77b4; stroke-width: 1.5"/>
    <path d="M 784.327125 43.063856 
L 784.327125 37.031519 
" clip-path="url(#p2dfdb85175)" style="fill: none; stroke: #1f77b4; stroke-width: 1.5"/>
    <path d="M 787.768504 54.095246 
L 787.768504 48.212953 
" clip-path="url(#p2dfdb85175)" style="fill: none; stroke: #1f77b4; stroke-width: 1.5"/>
    <path d="M 791.209882 169.840467 
L 791.209882 165.863358 
" clip-path="url(#p2dfdb85175)" style="fill: none; stroke: #1f77b4; stroke-width: 1.5"/>
    <path d="M 794.651261 166.215283 
L 794.651261 162.164748 
" clip-path="url(#p2dfdb85175)" style="fill: none; stroke: #1f77b4; stroke-width: 1.5"/>
    <path d="M 798.092639 175.93398 
L 798.092639 172.083476 
" clip-path="url(#p2dfdb85175)" style="fill: none; stroke: #1f77b4; stroke-width: 1.5"/>
    <path d="M 801.534018 209.223505 
L 801.534018 206.156757 
" clip-path="url(#p2dfdb85175)" style="fill: none; stroke: #1f77b4; stroke-width: 1.5"/>
    <path d="M 804.975396 67.162491 
L 804.975396 61.463077 
" clip-path="url(#p2dfdb85175)" style="fill: none; stroke: #1f77b4; stroke-width: 1.5"/>
    <path d="M 808.416775 179.477596 
L 808.416775 175.702691 
" clip-path="url(#p2dfdb85175)" style="fill: none; stroke: #1f77b4; stroke-width: 1.5"/>
    <path d="M 811.858153 122.03155 
L 811.858153 117.175256 
" clip-path="url(#p2dfdb85175)" style="fill: none; stroke: #1f77b4; stroke-width: 1.5"/>
    <path d="M 815.299532 151.907664 
L 815.299532 147.579598 
" clip-path="url(#p2dfdb85175)" style="fill: none; stroke: #1f77b4; stroke-width: 1.5"/>
    <path d="M 818.74091 202.867281 
L 818.74091 199.635981 
" clip-path="url(#p2dfdb85175)" style="fill: none; stroke: #1f77b4; stroke-width: 1.5"/>
    <path d="M 822.182289 191.018583 
L 822.182289 187.501267 
" clip-path="url(#p2dfdb85175)" style="fill: none; stroke: #1f77b4; stroke-width: 1.5"/>
    <path d="M 825.623667 24.83415 
L 825.623667 18.561774 
" clip-path="url(#p2dfdb85175)" style="fill: none; stroke: #1f77b4; stroke-width: 1.5"/>
    <path d="M 829.065046 125.104266 
L 829.065046 120.299596 
" clip-path="url(#p2dfdb85175)" style="fill: none; stroke: #1f77b4; stroke-width: 1.5"/>
    <path d="M 832.506424 69.879468 
L 832.506424 64.218826 
" clip-path="url(#p2dfdb85175)" style="fill: none; stroke: #1f77b4; stroke-width: 1.5"/>
    <path d="M 835.947803 99.317481 
L 835.947803 94.095494 
" clip-path="url(#p2dfdb85175)" style="fill: none; stroke: #1f77b4; stroke-width: 1.5"/>
    <path d="M 839.389181 65.404377 
L 839.389181 59.680016 
" clip-path="url(#p2dfdb85175)" style="fill: none; stroke: #1f77b4; stroke-width: 1.5"/>
    <path d="M 842.83056 190.580993 
L 842.83056 187.053563 
" clip-path="url(#p2dfdb85175)" style="fill: none; stroke: #1f77b4; stroke-width: 1.5"/>
    <path d="M 846.271938 245.797128 
L 846.271938 243.947809 
" clip-path="url(#p2dfdb85175)" style="fill: none; stroke: #1f77b4; stroke-width: 1.5"/>
   </g>
  </g>
 </g>
 <defs>
  <clipPath id="p026563ca6f">
   <rect x="53.328125" y="7.2" width="378.551635" height="249.958895"/>
  </clipPath>
  <clipPath id="p2dfdb85175">
   <rect x="486.647885" y="7.2" width="378.551635" height="249.958895"/>
  </clipPath>
 </defs>
</svg>
