<?xml version="1.0" encoding="UTF-8" standalone="no"?>
<!DOCTYPE svg PUBLIC "-//W3C//DTD SVG 1.1//EN"
 "http://www.w3.org/Graphics/SVG/1.1/DTD/svg11.dtd">
<!-- Generated by graphviz version 2.43.0 (0)
 -->
<!-- Title: %3 Pages: 1 -->
<svg width="396pt" height="267pt"
 viewBox="0.00 0.00 395.50 267.00" xmlns="http://www.w3.org/2000/svg" xmlns:xlink="http://www.w3.org/1999/xlink">
<g id="graph0" class="graph" transform="scale(1 1) rotate(0) translate(4 263)">
<title>%3</title>
<polygon fill="white" stroke="transparent" points="-4,4 -4,-263 391.5,-263 391.5,4 -4,4"/>
<!-- source_position -->
<g id="node1" class="node">
<title>source_position</title>
<polygon fill="none" stroke="black" points="246,-141 118,-141 118,-118 246,-118 246,-141"/>
<text text-anchor="middle" x="182" y="-125.8" font-family="Times,serif" font-size="14.00">source_position</text>
</g>
<!-- Ltotal -->
<g id="node2" class="node">
<title>Ltotal</title>
<polygon fill="none" stroke="black" points="211.5,-82 152.5,-82 152.5,-59 211.5,-59 211.5,-82"/>
<text text-anchor="middle" x="182" y="-66.8" font-family="Times,serif" font-size="14.00">Ltotal</text>
</g>
<!-- source_position&#45;&gt;Ltotal -->
<g id="edge1" class="edge">
<title>source_position&#45;&gt;Ltotal</title>
<path fill="none" stroke="black" d="M182,-117.78C182,-110.61 182,-100.95 182,-92.31"/>
<polygon fill="black" stroke="black" points="185.5,-92.17 182,-82.17 178.5,-92.17 185.5,-92.17"/>
</g>
<!-- wavelength -->
<g id="node5" class="node">
<title>wavelength</title>
<polygon fill="none" stroke="black" points="231.5,-23 132.5,-23 132.5,0 231.5,0 231.5,-23"/>
<text text-anchor="middle" x="182" y="-7.8" font-family="Times,serif" font-size="14.00">wavelength</text>
</g>
<!-- Ltotal&#45;&gt;wavelength -->
<g id="edge4" class="edge">
<title>Ltotal&#45;&gt;wavelength</title>
<path fill="none" stroke="black" d="M182,-58.78C182,-51.61 182,-41.95 182,-33.31"/>
<polygon fill="black" stroke="black" points="185.5,-33.17 182,-23.17 178.5,-33.17 185.5,-33.17"/>
</g>
<!-- energy -->
<g id="node6" class="node">
<title>energy</title>
<polygon fill="none" stroke="black" points="316,-23 250,-23 250,0 316,0 316,-23"/>
<text text-anchor="middle" x="283" y="-7.8" font-family="Times,serif" font-size="14.00">energy</text>
</g>
<!-- Ltotal&#45;&gt;energy -->
<g id="edge6" class="edge">
<title>Ltotal&#45;&gt;energy</title>
<path fill="none" stroke="black" d="M201,-58.78C216.23,-50.18 237.84,-37.99 255.05,-28.28"/>
<polygon fill="black" stroke="black" points="257.1,-31.14 264.09,-23.17 253.66,-25.04 257.1,-31.14"/>
</g>
<!-- position -->
<g id="node3" class="node">
<title>position</title>
<polygon fill="none" stroke="black" points="100,-141 26,-141 26,-118 100,-118 100,-141"/>
<text text-anchor="middle" x="63" y="-125.8" font-family="Times,serif" font-size="14.00">position</text>
</g>
<!-- position&#45;&gt;Ltotal -->
<g id="edge2" class="edge">
<title>position&#45;&gt;Ltotal</title>
<path fill="none" stroke="black" d="M85.1,-117.91C103.64,-109.03 130.32,-96.26 150.99,-86.35"/>
<polygon fill="black" stroke="black" points="152.51,-89.51 160.01,-82.03 149.48,-83.19 152.51,-89.51"/>
</g>
<!-- tof -->
<g id="node4" class="node">
<title>tof</title>
<polygon fill="none" stroke="black" points="310,-82 256,-82 256,-59 310,-59 310,-82"/>
<text text-anchor="middle" x="283" y="-66.8" font-family="Times,serif" font-size="14.00">tof</text>
</g>
<!-- tof&#45;&gt;wavelength -->
<g id="edge3" class="edge">
<title>tof&#45;&gt;wavelength</title>
<path fill="none" stroke="black" d="M264,-58.78C248.77,-50.18 227.16,-37.99 209.95,-28.28"/>
<polygon fill="black" stroke="black" points="211.34,-25.04 200.91,-23.17 207.9,-31.14 211.34,-25.04"/>
</g>
<!-- tof&#45;&gt;energy -->
<g id="edge5" class="edge">
<title>tof&#45;&gt;energy</title>
<path fill="none" stroke="black" d="M283,-58.78C283,-51.61 283,-41.95 283,-33.31"/>
<polygon fill="black" stroke="black" points="286.5,-33.17 283,-23.17 279.5,-33.17 286.5,-33.17"/>
</g>
<!-- time_of_arrival -->
<g id="node7" class="node">
<title>time_of_arrival</title>
<polygon fill="none" stroke="black" points="387.5,-141 264.5,-141 264.5,-118 387.5,-118 387.5,-141"/>
<text text-anchor="middle" x="326" y="-125.8" font-family="Times,serif" font-size="14.00">time_of_arrival</text>
</g>
<!-- time_of_arrival&#45;&gt;tof -->
<g id="edge7" class="edge">
<title>time_of_arrival&#45;&gt;tof</title>
<path fill="none" stroke="black" d="M317.91,-117.78C312.09,-110.06 304.07,-99.43 297.19,-90.31"/>
<polygon fill="black" stroke="black" points="299.87,-88.05 291.05,-82.17 294.28,-92.26 299.87,-88.05"/>
</g>
<!-- pixel_id -->
<g id="node8" class="node">
<title>pixel_id</title>
<polygon fill="none" stroke="black" points="98.5,-259 27.5,-259 27.5,-236 98.5,-236 98.5,-259"/>
<text text-anchor="middle" x="63" y="-243.8" font-family="Times,serif" font-size="14.00">pixel_id</text>
</g>
<!-- x -->
<g id="node9" class="node">
<title>x</title>
<polygon fill="none" stroke="black" points="54,-200 0,-200 0,-177 54,-177 54,-200"/>
<text text-anchor="middle" x="27" y="-184.8" font-family="Times,serif" font-size="14.00">x</text>
</g>
<!-- pixel_id&#45;&gt;x -->
<g id="edge8" class="edge">
<title>pixel_id&#45;&gt;x</title>
<path fill="none" stroke="black" d="M56.23,-235.78C51.45,-228.22 44.92,-217.87 39.24,-208.88"/>
<polygon fill="black" stroke="black" points="42.04,-206.76 33.74,-200.17 36.12,-210.5 42.04,-206.76"/>
</g>
<!-- y -->
<g id="node10" class="node">
<title>y</title>
<polygon fill="none" stroke="black" points="126,-200 72,-200 72,-177 126,-177 126,-200"/>
<text text-anchor="middle" x="99" y="-184.8" font-family="Times,serif" font-size="14.00">y</text>
</g>
<!-- pixel_id&#45;&gt;y -->
<g id="edge9" class="edge">
<title>pixel_id&#45;&gt;y</title>
<path fill="none" stroke="black" d="M69.77,-235.78C74.55,-228.22 81.08,-217.87 86.76,-208.88"/>
<polygon fill="black" stroke="black" points="89.88,-210.5 92.26,-200.17 83.96,-206.76 89.88,-210.5"/>
</g>
<!-- x&#45;&gt;position -->
<g id="edge10" class="edge">
<title>x&#45;&gt;position</title>
<path fill="none" stroke="black" d="M33.77,-176.78C38.55,-169.22 45.08,-158.87 50.76,-149.88"/>
<polygon fill="black" stroke="black" points="53.88,-151.5 56.26,-141.17 47.96,-147.76 53.88,-151.5"/>
</g>
<!-- y&#45;&gt;position -->
<g id="edge11" class="edge">
<title>y&#45;&gt;position</title>
<path fill="none" stroke="black" d="M92.23,-176.78C87.45,-169.22 80.92,-158.87 75.24,-149.88"/>
<polygon fill="black" stroke="black" points="78.04,-147.76 69.74,-141.17 72.12,-151.5 78.04,-147.76"/>
</g>
</g>
</svg>
