<?xml version="1.0" encoding="utf-8" standalone="no"?>
<!DOCTYPE svg PUBLIC "-//W3C//DTD SVG 1.1//EN"
  "http://www.w3.org/Graphics/SVG/1.1/DTD/svg11.dtd">
<svg xmlns:xlink="http://www.w3.org/1999/xlink" width="392.14375pt" height="268.200625pt" viewBox="0 0 392.14375 268.200625" xmlns="http://www.w3.org/2000/svg" version="1.1">
 <metadata>
  <rdf:RDF xmlns:dc="http://purl.org/dc/elements/1.1/" xmlns:cc="http://creativecommons.org/ns#" xmlns:rdf="http://www.w3.org/1999/02/22-rdf-syntax-ns#">
   <cc:Work>
    <dc:type rdf:resource="http://purl.org/dc/dcmitype/StillImage"/>
    <dc:date>2024-12-13T13:31:56.496123</dc:date>
    <dc:format>image/svg+xml</dc:format>
    <dc:creator>
     <cc:Agent>
      <dc:title>Matplotlib v3.9.4, https://matplotlib.org/</dc:title>
     </cc:Agent>
    </dc:creator>
   </cc:Work>
  </rdf:RDF>
 </metadata>
 <defs>
  <style type="text/css">*{stroke-linejoin: round; stroke-linecap: butt}</style>
 </defs>
 <g id="figure_1">
  <g id="patch_1">
   <path d="M 0 268.200625 
L 392.14375 268.200625 
L 392.14375 0 
L 0 0 
z
" style="fill: #ffffff"/>
  </g>
  <g id="axes_1">
   <g id="patch_2">
    <path d="M 50.14375 228.96 
L 384.94375 228.96 
L 384.94375 7.2 
L 50.14375 7.2 
z
" style="fill: #ffffff"/>
   </g>
   <g id="matplotlib.axis_1">
    <g id="xtick_1">
     <g id="line2d_1">
      <defs>
       <path id="m7e462a9674" d="M 0 0 
L 0 3.5 
" style="stroke: #000000; stroke-width: 0.8"/>
      </defs>
      <g>
       <use xlink:href="#m7e462a9674" x="97.972321" y="228.96" style="stroke: #000000; stroke-width: 0.8"/>
      </g>
     </g>
     <g id="text_1">
      <!-- 2 -->
      <g transform="translate(94.791071 243.558438) scale(0.1 -0.1)">
       <defs>
        <path id="DejaVuSans-32" d="M 1228 531 
L 3431 531 
L 3431 0 
L 469 0 
L 469 531 
Q 828 903 1448 1529 
Q 2069 2156 2228 2338 
Q 2531 2678 2651 2914 
Q 2772 3150 2772 3378 
Q 2772 3750 2511 3984 
Q 2250 4219 1831 4219 
Q 1534 4219 1204 4116 
Q 875 4013 500 3803 
L 500 4441 
Q 881 4594 1212 4672 
Q 1544 4750 1819 4750 
Q 2544 4750 2975 4387 
Q 3406 4025 3406 3419 
Q 3406 3131 3298 2873 
Q 3191 2616 2906 2266 
Q 2828 2175 2409 1742 
Q 1991 1309 1228 531 
z
" transform="scale(0.015625)"/>
       </defs>
       <use xlink:href="#DejaVuSans-32"/>
      </g>
     </g>
    </g>
    <g id="xtick_2">
     <g id="line2d_2">
      <g>
       <use xlink:href="#m7e462a9674" x="170.439854" y="228.96" style="stroke: #000000; stroke-width: 0.8"/>
      </g>
     </g>
     <g id="text_2">
      <!-- 4 -->
      <g transform="translate(167.258604 243.558438) scale(0.1 -0.1)">
       <defs>
        <path id="DejaVuSans-34" d="M 2419 4116 
L 825 1625 
L 2419 1625 
L 2419 4116 
z
M 2253 4666 
L 3047 4666 
L 3047 1625 
L 3713 1625 
L 3713 1100 
L 3047 1100 
L 3047 0 
L 2419 0 
L 2419 1100 
L 313 1100 
L 313 1709 
L 2253 4666 
z
" transform="scale(0.015625)"/>
       </defs>
       <use xlink:href="#DejaVuSans-34"/>
      </g>
     </g>
    </g>
    <g id="xtick_3">
     <g id="line2d_3">
      <g>
       <use xlink:href="#m7e462a9674" x="242.907386" y="228.96" style="stroke: #000000; stroke-width: 0.8"/>
      </g>
     </g>
     <g id="text_3">
      <!-- 6 -->
      <g transform="translate(239.726136 243.558438) scale(0.1 -0.1)">
       <defs>
        <path id="DejaVuSans-36" d="M 2113 2584 
Q 1688 2584 1439 2293 
Q 1191 2003 1191 1497 
Q 1191 994 1439 701 
Q 1688 409 2113 409 
Q 2538 409 2786 701 
Q 3034 994 3034 1497 
Q 3034 2003 2786 2293 
Q 2538 2584 2113 2584 
z
M 3366 4563 
L 3366 3988 
Q 3128 4100 2886 4159 
Q 2644 4219 2406 4219 
Q 1781 4219 1451 3797 
Q 1122 3375 1075 2522 
Q 1259 2794 1537 2939 
Q 1816 3084 2150 3084 
Q 2853 3084 3261 2657 
Q 3669 2231 3669 1497 
Q 3669 778 3244 343 
Q 2819 -91 2113 -91 
Q 1303 -91 875 529 
Q 447 1150 447 2328 
Q 447 3434 972 4092 
Q 1497 4750 2381 4750 
Q 2619 4750 2861 4703 
Q 3103 4656 3366 4563 
z
" transform="scale(0.015625)"/>
       </defs>
       <use xlink:href="#DejaVuSans-36"/>
      </g>
     </g>
    </g>
    <g id="xtick_4">
     <g id="line2d_4">
      <g>
       <use xlink:href="#m7e462a9674" x="315.374919" y="228.96" style="stroke: #000000; stroke-width: 0.8"/>
      </g>
     </g>
     <g id="text_4">
      <!-- 8 -->
      <g transform="translate(312.193669 243.558438) scale(0.1 -0.1)">
       <defs>
        <path id="DejaVuSans-38" d="M 2034 2216 
Q 1584 2216 1326 1975 
Q 1069 1734 1069 1313 
Q 1069 891 1326 650 
Q 1584 409 2034 409 
Q 2484 409 2743 651 
Q 3003 894 3003 1313 
Q 3003 1734 2745 1975 
Q 2488 2216 2034 2216 
z
M 1403 2484 
Q 997 2584 770 2862 
Q 544 3141 544 3541 
Q 544 4100 942 4425 
Q 1341 4750 2034 4750 
Q 2731 4750 3128 4425 
Q 3525 4100 3525 3541 
Q 3525 3141 3298 2862 
Q 3072 2584 2669 2484 
Q 3125 2378 3379 2068 
Q 3634 1759 3634 1313 
Q 3634 634 3220 271 
Q 2806 -91 2034 -91 
Q 1263 -91 848 271 
Q 434 634 434 1313 
Q 434 1759 690 2068 
Q 947 2378 1403 2484 
z
M 1172 3481 
Q 1172 3119 1398 2916 
Q 1625 2713 2034 2713 
Q 2441 2713 2670 2916 
Q 2900 3119 2900 3481 
Q 2900 3844 2670 4047 
Q 2441 4250 2034 4250 
Q 1625 4250 1398 4047 
Q 1172 3844 1172 3481 
z
" transform="scale(0.015625)"/>
       </defs>
       <use xlink:href="#DejaVuSans-38"/>
      </g>
     </g>
    </g>
    <g id="text_5">
     <!-- wavelength [Å] -->
     <g transform="translate(179.50625 258.920938) scale(0.1 -0.1)">
      <defs>
       <path id="DejaVuSans-77" d="M 269 3500 
L 844 3500 
L 1563 769 
L 2278 3500 
L 2956 3500 
L 3675 769 
L 4391 3500 
L 4966 3500 
L 4050 0 
L 3372 0 
L 2619 2869 
L 1863 0 
L 1184 0 
L 269 3500 
z
" transform="scale(0.015625)"/>
       <path id="DejaVuSans-61" d="M 2194 1759 
Q 1497 1759 1228 1600 
Q 959 1441 959 1056 
Q 959 750 1161 570 
Q 1363 391 1709 391 
Q 2188 391 2477 730 
Q 2766 1069 2766 1631 
L 2766 1759 
L 2194 1759 
z
M 3341 1997 
L 3341 0 
L 2766 0 
L 2766 531 
Q 2569 213 2275 61 
Q 1981 -91 1556 -91 
Q 1019 -91 701 211 
Q 384 513 384 1019 
Q 384 1609 779 1909 
Q 1175 2209 1959 2209 
L 2766 2209 
L 2766 2266 
Q 2766 2663 2505 2880 
Q 2244 3097 1772 3097 
Q 1472 3097 1187 3025 
Q 903 2953 641 2809 
L 641 3341 
Q 956 3463 1253 3523 
Q 1550 3584 1831 3584 
Q 2591 3584 2966 3190 
Q 3341 2797 3341 1997 
z
" transform="scale(0.015625)"/>
       <path id="DejaVuSans-76" d="M 191 3500 
L 800 3500 
L 1894 563 
L 2988 3500 
L 3597 3500 
L 2284 0 
L 1503 0 
L 191 3500 
z
" transform="scale(0.015625)"/>
       <path id="DejaVuSans-65" d="M 3597 1894 
L 3597 1613 
L 953 1613 
Q 991 1019 1311 708 
Q 1631 397 2203 397 
Q 2534 397 2845 478 
Q 3156 559 3463 722 
L 3463 178 
Q 3153 47 2828 -22 
Q 2503 -91 2169 -91 
Q 1331 -91 842 396 
Q 353 884 353 1716 
Q 353 2575 817 3079 
Q 1281 3584 2069 3584 
Q 2775 3584 3186 3129 
Q 3597 2675 3597 1894 
z
M 3022 2063 
Q 3016 2534 2758 2815 
Q 2500 3097 2075 3097 
Q 1594 3097 1305 2825 
Q 1016 2553 972 2059 
L 3022 2063 
z
" transform="scale(0.015625)"/>
       <path id="DejaVuSans-6c" d="M 603 4863 
L 1178 4863 
L 1178 0 
L 603 0 
L 603 4863 
z
" transform="scale(0.015625)"/>
       <path id="DejaVuSans-6e" d="M 3513 2113 
L 3513 0 
L 2938 0 
L 2938 2094 
Q 2938 2591 2744 2837 
Q 2550 3084 2163 3084 
Q 1697 3084 1428 2787 
Q 1159 2491 1159 1978 
L 1159 0 
L 581 0 
L 581 3500 
L 1159 3500 
L 1159 2956 
Q 1366 3272 1645 3428 
Q 1925 3584 2291 3584 
Q 2894 3584 3203 3211 
Q 3513 2838 3513 2113 
z
" transform="scale(0.015625)"/>
       <path id="DejaVuSans-67" d="M 2906 1791 
Q 2906 2416 2648 2759 
Q 2391 3103 1925 3103 
Q 1463 3103 1205 2759 
Q 947 2416 947 1791 
Q 947 1169 1205 825 
Q 1463 481 1925 481 
Q 2391 481 2648 825 
Q 2906 1169 2906 1791 
z
M 3481 434 
Q 3481 -459 3084 -895 
Q 2688 -1331 1869 -1331 
Q 1566 -1331 1297 -1286 
Q 1028 -1241 775 -1147 
L 775 -588 
Q 1028 -725 1275 -790 
Q 1522 -856 1778 -856 
Q 2344 -856 2625 -561 
Q 2906 -266 2906 331 
L 2906 616 
Q 2728 306 2450 153 
Q 2172 0 1784 0 
Q 1141 0 747 490 
Q 353 981 353 1791 
Q 353 2603 747 3093 
Q 1141 3584 1784 3584 
Q 2172 3584 2450 3431 
Q 2728 3278 2906 2969 
L 2906 3500 
L 3481 3500 
L 3481 434 
z
" transform="scale(0.015625)"/>
       <path id="DejaVuSans-74" d="M 1172 4494 
L 1172 3500 
L 2356 3500 
L 2356 3053 
L 1172 3053 
L 1172 1153 
Q 1172 725 1289 603 
Q 1406 481 1766 481 
L 2356 481 
L 2356 0 
L 1766 0 
Q 1100 0 847 248 
Q 594 497 594 1153 
L 594 3053 
L 172 3053 
L 172 3500 
L 594 3500 
L 594 4494 
L 1172 4494 
z
" transform="scale(0.015625)"/>
       <path id="DejaVuSans-68" d="M 3513 2113 
L 3513 0 
L 2938 0 
L 2938 2094 
Q 2938 2591 2744 2837 
Q 2550 3084 2163 3084 
Q 1697 3084 1428 2787 
Q 1159 2491 1159 1978 
L 1159 0 
L 581 0 
L 581 4863 
L 1159 4863 
L 1159 2956 
Q 1366 3272 1645 3428 
Q 1925 3584 2291 3584 
Q 2894 3584 3203 3211 
Q 3513 2838 3513 2113 
z
" transform="scale(0.015625)"/>
       <path id="DejaVuSans-20" transform="scale(0.015625)"/>
       <path id="DejaVuSans-5b" d="M 550 4863 
L 1875 4863 
L 1875 4416 
L 1125 4416 
L 1125 -397 
L 1875 -397 
L 1875 -844 
L 550 -844 
L 550 4863 
z
" transform="scale(0.015625)"/>
       <path id="DejaVuSans-c5" d="M 2663 5081 
Q 2663 5278 2523 5417 
Q 2384 5556 2188 5556 
Q 1988 5556 1852 5420 
Q 1716 5284 1716 5081 
Q 1716 4884 1853 4746 
Q 1991 4609 2188 4609 
Q 2384 4609 2523 4746 
Q 2663 4884 2663 5081 
z
M 2188 4044 
L 1338 1722 
L 3041 1722 
L 2188 4044 
z
M 1716 4366 
Q 1525 4494 1428 4673 
Q 1331 4853 1331 5081 
Q 1331 5441 1579 5691 
Q 1828 5941 2188 5941 
Q 2544 5941 2795 5689 
Q 3047 5438 3047 5081 
Q 3047 4863 2948 4678 
Q 2850 4494 2663 4366 
L 4325 0 
L 3669 0 
L 3244 1197 
L 1141 1197 
L 716 0 
L 50 0 
L 1716 4366 
z
" transform="scale(0.015625)"/>
       <path id="DejaVuSans-5d" d="M 1947 4863 
L 1947 -844 
L 622 -844 
L 622 -397 
L 1369 -397 
L 1369 4416 
L 622 4416 
L 622 4863 
L 1947 4863 
z
" transform="scale(0.015625)"/>
      </defs>
      <use xlink:href="#DejaVuSans-77"/>
      <use xlink:href="#DejaVuSans-61" x="81.787109"/>
      <use xlink:href="#DejaVuSans-76" x="143.066406"/>
      <use xlink:href="#DejaVuSans-65" x="202.246094"/>
      <use xlink:href="#DejaVuSans-6c" x="263.769531"/>
      <use xlink:href="#DejaVuSans-65" x="291.552734"/>
      <use xlink:href="#DejaVuSans-6e" x="353.076172"/>
      <use xlink:href="#DejaVuSans-67" x="416.455078"/>
      <use xlink:href="#DejaVuSans-74" x="479.931641"/>
      <use xlink:href="#DejaVuSans-68" x="519.140625"/>
      <use xlink:href="#DejaVuSans-20" x="582.519531"/>
      <use xlink:href="#DejaVuSans-5b" x="614.306641"/>
      <use xlink:href="#DejaVuSans-c5" x="653.320312"/>
      <use xlink:href="#DejaVuSans-5d" x="721.728516"/>
     </g>
    </g>
   </g>
   <g id="matplotlib.axis_2">
    <g id="ytick_1">
     <g id="line2d_5">
      <defs>
       <path id="m80afb0976d" d="M 0 0 
L -3.5 0 
" style="stroke: #000000; stroke-width: 0.8"/>
      </defs>
      <g>
       <use xlink:href="#m80afb0976d" x="50.14375" y="218.988147" style="stroke: #000000; stroke-width: 0.8"/>
      </g>
     </g>
     <g id="text_6">
      <!-- 0.10 -->
      <g transform="translate(20.878125 222.787365) scale(0.1 -0.1)">
       <defs>
        <path id="DejaVuSans-30" d="M 2034 4250 
Q 1547 4250 1301 3770 
Q 1056 3291 1056 2328 
Q 1056 1369 1301 889 
Q 1547 409 2034 409 
Q 2525 409 2770 889 
Q 3016 1369 3016 2328 
Q 3016 3291 2770 3770 
Q 2525 4250 2034 4250 
z
M 2034 4750 
Q 2819 4750 3233 4129 
Q 3647 3509 3647 2328 
Q 3647 1150 3233 529 
Q 2819 -91 2034 -91 
Q 1250 -91 836 529 
Q 422 1150 422 2328 
Q 422 3509 836 4129 
Q 1250 4750 2034 4750 
z
" transform="scale(0.015625)"/>
        <path id="DejaVuSans-2e" d="M 684 794 
L 1344 794 
L 1344 0 
L 684 0 
L 684 794 
z
" transform="scale(0.015625)"/>
        <path id="DejaVuSans-31" d="M 794 531 
L 1825 531 
L 1825 4091 
L 703 3866 
L 703 4441 
L 1819 4666 
L 2450 4666 
L 2450 531 
L 3481 531 
L 3481 0 
L 794 0 
L 794 531 
z
" transform="scale(0.015625)"/>
       </defs>
       <use xlink:href="#DejaVuSans-30"/>
       <use xlink:href="#DejaVuSans-2e" x="63.623047"/>
       <use xlink:href="#DejaVuSans-31" x="95.410156"/>
       <use xlink:href="#DejaVuSans-30" x="159.033203"/>
      </g>
     </g>
    </g>
    <g id="ytick_2">
     <g id="line2d_6">
      <g>
       <use xlink:href="#m80afb0976d" x="50.14375" y="175.545668" style="stroke: #000000; stroke-width: 0.8"/>
      </g>
     </g>
     <g id="text_7">
      <!-- 0.15 -->
      <g transform="translate(20.878125 179.344887) scale(0.1 -0.1)">
       <defs>
        <path id="DejaVuSans-35" d="M 691 4666 
L 3169 4666 
L 3169 4134 
L 1269 4134 
L 1269 2991 
Q 1406 3038 1543 3061 
Q 1681 3084 1819 3084 
Q 2600 3084 3056 2656 
Q 3513 2228 3513 1497 
Q 3513 744 3044 326 
Q 2575 -91 1722 -91 
Q 1428 -91 1123 -41 
Q 819 9 494 109 
L 494 744 
Q 775 591 1075 516 
Q 1375 441 1709 441 
Q 2250 441 2565 725 
Q 2881 1009 2881 1497 
Q 2881 1984 2565 2268 
Q 2250 2553 1709 2553 
Q 1456 2553 1204 2497 
Q 953 2441 691 2322 
L 691 4666 
z
" transform="scale(0.015625)"/>
       </defs>
       <use xlink:href="#DejaVuSans-30"/>
       <use xlink:href="#DejaVuSans-2e" x="63.623047"/>
       <use xlink:href="#DejaVuSans-31" x="95.410156"/>
       <use xlink:href="#DejaVuSans-35" x="159.033203"/>
      </g>
     </g>
    </g>
    <g id="ytick_3">
     <g id="line2d_7">
      <g>
       <use xlink:href="#m80afb0976d" x="50.14375" y="132.103189" style="stroke: #000000; stroke-width: 0.8"/>
      </g>
     </g>
     <g id="text_8">
      <!-- 0.20 -->
      <g transform="translate(20.878125 135.902408) scale(0.1 -0.1)">
       <use xlink:href="#DejaVuSans-30"/>
       <use xlink:href="#DejaVuSans-2e" x="63.623047"/>
       <use xlink:href="#DejaVuSans-32" x="95.410156"/>
       <use xlink:href="#DejaVuSans-30" x="159.033203"/>
      </g>
     </g>
    </g>
    <g id="ytick_4">
     <g id="line2d_8">
      <g>
       <use xlink:href="#m80afb0976d" x="50.14375" y="88.660711" style="stroke: #000000; stroke-width: 0.8"/>
      </g>
     </g>
     <g id="text_9">
      <!-- 0.25 -->
      <g transform="translate(20.878125 92.45993) scale(0.1 -0.1)">
       <use xlink:href="#DejaVuSans-30"/>
       <use xlink:href="#DejaVuSans-2e" x="63.623047"/>
       <use xlink:href="#DejaVuSans-32" x="95.410156"/>
       <use xlink:href="#DejaVuSans-35" x="159.033203"/>
      </g>
     </g>
    </g>
    <g id="ytick_5">
     <g id="line2d_9">
      <g>
       <use xlink:href="#m80afb0976d" x="50.14375" y="45.218232" style="stroke: #000000; stroke-width: 0.8"/>
      </g>
     </g>
     <g id="text_10">
      <!-- 0.30 -->
      <g transform="translate(20.878125 49.017451) scale(0.1 -0.1)">
       <defs>
        <path id="DejaVuSans-33" d="M 2597 2516 
Q 3050 2419 3304 2112 
Q 3559 1806 3559 1356 
Q 3559 666 3084 287 
Q 2609 -91 1734 -91 
Q 1441 -91 1130 -33 
Q 819 25 488 141 
L 488 750 
Q 750 597 1062 519 
Q 1375 441 1716 441 
Q 2309 441 2620 675 
Q 2931 909 2931 1356 
Q 2931 1769 2642 2001 
Q 2353 2234 1838 2234 
L 1294 2234 
L 1294 2753 
L 1863 2753 
Q 2328 2753 2575 2939 
Q 2822 3125 2822 3475 
Q 2822 3834 2567 4026 
Q 2313 4219 1838 4219 
Q 1578 4219 1281 4162 
Q 984 4106 628 3988 
L 628 4550 
Q 988 4650 1302 4700 
Q 1616 4750 1894 4750 
Q 2613 4750 3031 4423 
Q 3450 4097 3450 3541 
Q 3450 3153 3228 2886 
Q 3006 2619 2597 2516 
z
" transform="scale(0.015625)"/>
       </defs>
       <use xlink:href="#DejaVuSans-30"/>
       <use xlink:href="#DejaVuSans-2e" x="63.623047"/>
       <use xlink:href="#DejaVuSans-33" x="95.410156"/>
       <use xlink:href="#DejaVuSans-30" x="159.033203"/>
      </g>
     </g>
    </g>
    <g id="text_11">
     <!-- [dimensionless] -->
     <g transform="translate(14.798438 157.557344) rotate(-90) scale(0.1 -0.1)">
      <defs>
       <path id="DejaVuSans-64" d="M 2906 2969 
L 2906 4863 
L 3481 4863 
L 3481 0 
L 2906 0 
L 2906 525 
Q 2725 213 2448 61 
Q 2172 -91 1784 -91 
Q 1150 -91 751 415 
Q 353 922 353 1747 
Q 353 2572 751 3078 
Q 1150 3584 1784 3584 
Q 2172 3584 2448 3432 
Q 2725 3281 2906 2969 
z
M 947 1747 
Q 947 1113 1208 752 
Q 1469 391 1925 391 
Q 2381 391 2643 752 
Q 2906 1113 2906 1747 
Q 2906 2381 2643 2742 
Q 2381 3103 1925 3103 
Q 1469 3103 1208 2742 
Q 947 2381 947 1747 
z
" transform="scale(0.015625)"/>
       <path id="DejaVuSans-69" d="M 603 3500 
L 1178 3500 
L 1178 0 
L 603 0 
L 603 3500 
z
M 603 4863 
L 1178 4863 
L 1178 4134 
L 603 4134 
L 603 4863 
z
" transform="scale(0.015625)"/>
       <path id="DejaVuSans-6d" d="M 3328 2828 
Q 3544 3216 3844 3400 
Q 4144 3584 4550 3584 
Q 5097 3584 5394 3201 
Q 5691 2819 5691 2113 
L 5691 0 
L 5113 0 
L 5113 2094 
Q 5113 2597 4934 2840 
Q 4756 3084 4391 3084 
Q 3944 3084 3684 2787 
Q 3425 2491 3425 1978 
L 3425 0 
L 2847 0 
L 2847 2094 
Q 2847 2600 2669 2842 
Q 2491 3084 2119 3084 
Q 1678 3084 1418 2786 
Q 1159 2488 1159 1978 
L 1159 0 
L 581 0 
L 581 3500 
L 1159 3500 
L 1159 2956 
Q 1356 3278 1631 3431 
Q 1906 3584 2284 3584 
Q 2666 3584 2933 3390 
Q 3200 3197 3328 2828 
z
" transform="scale(0.015625)"/>
       <path id="DejaVuSans-73" d="M 2834 3397 
L 2834 2853 
Q 2591 2978 2328 3040 
Q 2066 3103 1784 3103 
Q 1356 3103 1142 2972 
Q 928 2841 928 2578 
Q 928 2378 1081 2264 
Q 1234 2150 1697 2047 
L 1894 2003 
Q 2506 1872 2764 1633 
Q 3022 1394 3022 966 
Q 3022 478 2636 193 
Q 2250 -91 1575 -91 
Q 1294 -91 989 -36 
Q 684 19 347 128 
L 347 722 
Q 666 556 975 473 
Q 1284 391 1588 391 
Q 1994 391 2212 530 
Q 2431 669 2431 922 
Q 2431 1156 2273 1281 
Q 2116 1406 1581 1522 
L 1381 1569 
Q 847 1681 609 1914 
Q 372 2147 372 2553 
Q 372 3047 722 3315 
Q 1072 3584 1716 3584 
Q 2034 3584 2315 3537 
Q 2597 3491 2834 3397 
z
" transform="scale(0.015625)"/>
       <path id="DejaVuSans-6f" d="M 1959 3097 
Q 1497 3097 1228 2736 
Q 959 2375 959 1747 
Q 959 1119 1226 758 
Q 1494 397 1959 397 
Q 2419 397 2687 759 
Q 2956 1122 2956 1747 
Q 2956 2369 2687 2733 
Q 2419 3097 1959 3097 
z
M 1959 3584 
Q 2709 3584 3137 3096 
Q 3566 2609 3566 1747 
Q 3566 888 3137 398 
Q 2709 -91 1959 -91 
Q 1206 -91 779 398 
Q 353 888 353 1747 
Q 353 2609 779 3096 
Q 1206 3584 1959 3584 
z
" transform="scale(0.015625)"/>
      </defs>
      <use xlink:href="#DejaVuSans-5b"/>
      <use xlink:href="#DejaVuSans-64" x="39.013672"/>
      <use xlink:href="#DejaVuSans-69" x="102.490234"/>
      <use xlink:href="#DejaVuSans-6d" x="130.273438"/>
      <use xlink:href="#DejaVuSans-65" x="227.685547"/>
      <use xlink:href="#DejaVuSans-6e" x="289.208984"/>
      <use xlink:href="#DejaVuSans-73" x="352.587891"/>
      <use xlink:href="#DejaVuSans-69" x="404.6875"/>
      <use xlink:href="#DejaVuSans-6f" x="432.470703"/>
      <use xlink:href="#DejaVuSans-6e" x="493.652344"/>
      <use xlink:href="#DejaVuSans-6c" x="557.03125"/>
      <use xlink:href="#DejaVuSans-65" x="584.814453"/>
      <use xlink:href="#DejaVuSans-73" x="646.337891"/>
      <use xlink:href="#DejaVuSans-73" x="698.4375"/>
      <use xlink:href="#DejaVuSans-5d" x="750.537109"/>
     </g>
    </g>
   </g>
   <g id="patch_3">
    <path d="M 50.14375 228.96 
L 50.14375 7.2 
" style="fill: none; stroke: #000000; stroke-width: 0.8; stroke-linejoin: miter; stroke-linecap: square"/>
   </g>
   <g id="patch_4">
    <path d="M 384.94375 228.96 
L 384.94375 7.2 
" style="fill: none; stroke: #000000; stroke-width: 0.8; stroke-linejoin: miter; stroke-linecap: square"/>
   </g>
   <g id="patch_5">
    <path d="M 50.14375 228.96 
L 384.94375 228.96 
" style="fill: none; stroke: #000000; stroke-width: 0.8; stroke-linejoin: miter; stroke-linecap: square"/>
   </g>
   <g id="patch_6">
    <path d="M 50.14375 7.2 
L 384.94375 7.2 
" style="fill: none; stroke: #000000; stroke-width: 0.8; stroke-linejoin: miter; stroke-linecap: square"/>
   </g>
   <g id="line2d_10">
    <path d="M 65.361932 129.445511 
L 66.376477 129.445511 
L 66.376477 46.50674 
L 67.391023 46.50674 
L 67.391023 74.261509 
L 68.405568 74.261509 
L 68.405568 101.966107 
L 69.420114 101.966107 
L 69.420114 68.595513 
L 70.434659 68.595513 
L 70.434659 81.189807 
L 71.449205 81.189807 
L 71.449205 124.186625 
L 72.46375 124.186625 
L 72.46375 138.297669 
L 73.478295 138.297669 
L 73.478295 112.442027 
L 74.492841 112.442027 
L 74.492841 118.377818 
L 75.507386 118.377818 
L 75.507386 114.144269 
L 76.521932 114.144269 
L 76.521932 124.274355 
L 77.536477 124.274355 
L 77.536477 81.897425 
L 78.551023 81.897425 
L 78.551023 101.762374 
L 79.565568 101.762374 
L 79.565568 71.466743 
L 80.580114 71.466743 
L 80.580114 43.705464 
L 81.594659 43.705464 
L 81.594659 81.805011 
L 82.609205 81.805011 
L 82.609205 136.74364 
L 83.62375 136.74364 
L 83.62375 108.271159 
L 84.638295 108.271159 
L 84.638295 137.424688 
L 85.652841 137.424688 
L 85.652841 99.941127 
L 86.667386 99.941127 
L 86.667386 96.137734 
L 87.681932 96.137734 
L 87.681932 151.860663 
L 88.696477 151.860663 
L 88.696477 98.636284 
L 89.711023 98.636284 
L 89.711023 121.553745 
L 90.725568 121.553745 
L 90.725568 131.596684 
L 91.740114 131.596684 
L 91.740114 99.945396 
L 92.754659 99.945396 
L 92.754659 114.958465 
L 93.769205 114.958465 
L 93.769205 110.656598 
L 94.78375 110.656598 
L 94.78375 108.872883 
L 95.798295 108.872883 
L 95.798295 100.399004 
L 96.812841 100.399004 
L 96.812841 126.754692 
L 97.827386 126.754692 
L 97.827386 133.750989 
L 98.841932 133.750989 
L 98.841932 139.533017 
L 99.856477 139.533017 
L 99.856477 101.32281 
L 100.871023 101.32281 
L 100.871023 135.266652 
L 101.885568 135.266652 
L 101.885568 132.295519 
L 102.900114 132.295519 
L 102.900114 112.399304 
L 103.914659 112.399304 
L 103.914659 104.099843 
L 104.929205 104.099843 
L 104.929205 108.85632 
L 105.94375 108.85632 
L 105.94375 187.723128 
L 106.958295 187.723128 
L 106.958295 167.17616 
L 107.972841 167.17616 
L 107.972841 165.760074 
L 108.987386 165.760074 
L 108.987386 153.70599 
L 110.001932 153.70599 
L 110.001932 146.68159 
L 111.016477 146.68159 
L 111.016477 55.854952 
L 112.031023 55.854952 
L 112.031023 71.101538 
L 113.045568 71.101538 
L 113.045568 145.011785 
L 114.060114 145.011785 
L 114.060114 156.45264 
L 115.074659 156.45264 
L 115.074659 135.660334 
L 116.089205 135.660334 
L 116.089205 112.36728 
L 117.10375 112.36728 
L 117.10375 104.336399 
L 118.118295 104.336399 
L 118.118295 116.429798 
L 119.132841 116.429798 
L 119.132841 138.200518 
L 120.147386 138.200518 
L 120.147386 125.875808 
L 121.161932 125.875808 
L 121.161932 89.129274 
L 122.176477 89.129274 
L 122.176477 92.597432 
L 123.191023 92.597432 
L 123.191023 140.225925 
L 124.205568 140.225925 
L 124.205568 150.219557 
L 125.220114 150.219557 
L 125.220114 143.514742 
L 126.234659 143.514742 
L 126.234659 153.7755 
L 127.249205 153.7755 
L 127.249205 146.808729 
L 128.26375 146.808729 
L 128.26375 148.977226 
L 129.278295 148.977226 
L 129.278295 133.407442 
L 130.292841 133.407442 
L 130.292841 146.146951 
L 131.307386 146.146951 
L 131.307386 98.323423 
L 132.321932 98.323423 
L 132.321932 102.105348 
L 133.336477 102.105348 
L 133.336477 139.154429 
L 134.351023 139.154429 
L 134.351023 150.300957 
L 135.365568 150.300957 
L 135.365568 139.849766 
L 136.380114 139.849766 
L 136.380114 133.28276 
L 137.394659 133.28276 
L 137.394659 140.703511 
L 138.409205 140.703511 
L 138.409205 151.308975 
L 139.42375 151.308975 
L 139.42375 144.237009 
L 140.438295 144.237009 
L 140.438295 147.101207 
L 141.452841 147.101207 
L 141.452841 131.439967 
L 142.467386 131.439967 
L 142.467386 152.327353 
L 143.481932 152.327353 
L 143.481932 139.69012 
L 144.496477 139.69012 
L 144.496477 165.43588 
L 145.511023 165.43588 
L 145.511023 158.809295 
L 146.525568 158.809295 
L 146.525568 120.444364 
L 147.540114 120.444364 
L 147.540114 147.481008 
L 148.554659 147.481008 
L 148.554659 163.166451 
L 149.569205 163.166451 
L 149.569205 160.939565 
L 150.58375 160.939565 
L 150.58375 172.162787 
L 151.598295 172.162787 
L 151.598295 171.432384 
L 152.612841 171.432384 
L 152.612841 176.21259 
L 153.627386 176.21259 
L 153.627386 169.103375 
L 154.641932 169.103375 
L 154.641932 164.142988 
L 155.656477 164.142988 
L 155.656477 166.109248 
L 156.671023 166.109248 
L 156.671023 195.822385 
L 157.685568 195.822385 
L 157.685568 158.906187 
L 158.700114 158.906187 
L 158.700114 173.604692 
L 159.714659 173.604692 
L 159.714659 181.624848 
L 160.729205 181.624848 
L 160.729205 194.45319 
L 161.74375 194.45319 
L 161.74375 186.00145 
L 162.758295 186.00145 
L 162.758295 178.377341 
L 163.772841 178.377341 
L 163.772841 202.588513 
L 164.787386 202.588513 
L 164.787386 180.726977 
L 165.801932 180.726977 
L 165.801932 217.319975 
L 166.816477 217.319975 
L 166.816477 200.564401 
L 167.831023 200.564401 
L 167.831023 217.847254 
L 168.845568 217.847254 
L 168.845568 192.33813 
L 169.860114 192.33813 
L 169.860114 190.048418 
L 170.874659 190.048418 
L 170.874659 202.768117 
L 171.889205 202.768117 
L 171.889205 189.784951 
L 172.90375 189.784951 
L 172.90375 97.140934 
L 173.918295 97.140934 
L 173.918295 19.44944 
L 174.932841 19.44944 
L 174.932841 41.262862 
L 175.947386 41.262862 
L 175.947386 33.468237 
L 176.961932 33.468237 
L 176.961932 19.911974 
L 177.976477 19.911974 
L 177.976477 81.876988 
L 178.991023 81.876988 
L 178.991023 51.646768 
L 180.005568 51.646768 
L 180.005568 57.532332 
L 181.020114 57.532332 
L 181.020114 35.916708 
L 182.034659 35.916708 
L 182.034659 53.142332 
L 183.049205 53.142332 
L 183.049205 57.918231 
L 184.06375 57.918231 
L 184.06375 23.470807 
L 185.078295 23.470807 
L 185.078295 64.746763 
L 186.092841 64.746763 
L 186.092841 61.829516 
L 187.107386 61.829516 
L 187.107386 35.823294 
L 188.121932 35.823294 
L 188.121932 18.965224 
L 189.136477 18.965224 
L 189.136477 39.607281 
L 190.151023 39.607281 
L 190.151023 50.970731 
L 191.165568 50.970731 
L 191.165568 48.717336 
L 192.180114 48.717336 
L 192.180114 56.059615 
L 193.194659 56.059615 
L 193.194659 54.910075 
L 194.209205 54.910075 
L 194.209205 73.987489 
L 195.22375 73.987489 
L 195.22375 33.383611 
L 196.238295 33.383611 
L 196.238295 68.340191 
L 197.252841 68.340191 
L 197.252841 49.320241 
L 198.267386 49.320241 
L 198.267386 54.660297 
L 199.281932 54.660297 
L 199.281932 37.310131 
L 200.296477 37.310131 
L 200.296477 46.61163 
L 201.311023 46.61163 
L 201.311023 50.043961 
L 202.325568 50.043961 
L 202.325568 79.72801 
L 203.340114 79.72801 
L 203.340114 79.862812 
L 204.354659 79.862812 
L 204.354659 66.594305 
L 205.369205 66.594305 
L 205.369205 79.156152 
L 206.38375 79.156152 
L 206.38375 56.298371 
L 207.398295 56.298371 
L 207.398295 42.985048 
L 208.412841 42.985048 
L 208.412841 54.842597 
L 209.427386 54.842597 
L 209.427386 86.454322 
L 210.441932 86.454322 
L 210.441932 84.263028 
L 211.456477 84.263028 
L 211.456477 63.835284 
L 212.471023 63.835284 
L 212.471023 71.238701 
L 213.485568 71.238701 
L 213.485568 67.055701 
L 214.500114 67.055701 
L 214.500114 33.820781 
L 215.514659 33.820781 
L 215.514659 85.672104 
L 216.529205 85.672104 
L 216.529205 89.89323 
L 217.54375 89.89323 
L 217.54375 86.129319 
L 218.558295 86.129319 
L 218.558295 43.097657 
L 219.572841 43.097657 
L 219.572841 64.25315 
L 220.587386 64.25315 
L 220.587386 68.131851 
L 221.601932 68.131851 
L 221.601932 96.85865 
L 222.616477 96.85865 
L 222.616477 96.38464 
L 223.631023 96.38464 
L 223.631023 56.459861 
L 224.645568 56.459861 
L 224.645568 79.936604 
L 225.660114 79.936604 
L 225.660114 39.816908 
L 226.674659 39.816908 
L 226.674659 81.306056 
L 227.689205 81.306056 
L 227.689205 86.548105 
L 228.70375 86.548105 
L 228.70375 88.489526 
L 229.718295 88.489526 
L 229.718295 86.536519 
L 230.732841 86.536519 
L 230.732841 72.748407 
L 231.747386 72.748407 
L 231.747386 106.817784 
L 232.761932 106.817784 
L 232.761932 58.085453 
L 233.776477 58.085453 
L 233.776477 88.41046 
L 234.791023 88.41046 
L 234.791023 95.678014 
L 235.805568 95.678014 
L 235.805568 101.273357 
L 236.820114 101.273357 
L 236.820114 103.142646 
L 237.834659 103.142646 
L 237.834659 94.05769 
L 238.849205 94.05769 
L 238.849205 89.855904 
L 239.86375 89.855904 
L 239.86375 93.976506 
L 240.878295 93.976506 
L 240.878295 82.081303 
L 241.892841 82.081303 
L 241.892841 92.050257 
L 242.907386 92.050257 
L 242.907386 88.144635 
L 243.921932 88.144635 
L 243.921932 87.934819 
L 244.936477 87.934819 
L 244.936477 73.161585 
L 245.951023 73.161585 
L 245.951023 84.153569 
L 246.965568 84.153569 
L 246.965568 95.909568 
L 247.980114 95.909568 
L 247.980114 82.672416 
L 248.994659 82.672416 
L 248.994659 106.60326 
L 250.009205 106.60326 
L 250.009205 125.952195 
L 251.02375 125.952195 
L 251.02375 101.75345 
L 252.038295 101.75345 
L 252.038295 99.091146 
L 253.052841 99.091146 
L 253.052841 95.597585 
L 254.067386 95.597585 
L 254.067386 96.312987 
L 255.081932 96.312987 
L 255.081932 113.868528 
L 256.096477 113.868528 
L 256.096477 106.811878 
L 257.111023 106.811878 
L 257.111023 106.102748 
L 258.125568 106.102748 
L 258.125568 113.031995 
L 259.140114 113.031995 
L 259.140114 100.101556 
L 260.154659 100.101556 
L 260.154659 111.80792 
L 261.169205 111.80792 
L 261.169205 91.37138 
L 262.18375 91.37138 
L 262.18375 103.733597 
L 263.198295 103.733597 
L 263.198295 104.76714 
L 264.212841 104.76714 
L 264.212841 108.853332 
L 265.227386 108.853332 
L 265.227386 121.906604 
L 266.241932 121.906604 
L 266.241932 100.404846 
L 267.256477 100.404846 
L 267.256477 115.353129 
L 268.271023 115.353129 
L 268.271023 119.293527 
L 269.285568 119.293527 
L 269.285568 120.652446 
L 270.300114 120.652446 
L 270.300114 149.762823 
L 271.314659 149.762823 
L 271.314659 126.065365 
L 272.329205 126.065365 
L 272.329205 127.413109 
L 273.34375 127.413109 
L 273.34375 119.514811 
L 274.358295 119.514811 
L 274.358295 121.043951 
L 275.372841 121.043951 
L 275.372841 129.188961 
L 276.387386 129.188961 
L 276.387386 118.247665 
L 277.401932 118.247665 
L 277.401932 112.732082 
L 278.416477 112.732082 
L 278.416477 124.588705 
L 279.431023 124.588705 
L 279.431023 116.734101 
L 280.445568 116.734101 
L 280.445568 123.880055 
L 281.460114 123.880055 
L 281.460114 137.552935 
L 282.474659 137.552935 
L 282.474659 126.227308 
L 283.489205 126.227308 
L 283.489205 118.680424 
L 284.50375 118.680424 
L 284.50375 115.784912 
L 285.518295 115.784912 
L 285.518295 105.150306 
L 286.532841 105.150306 
L 286.532841 122.781309 
L 287.547386 122.781309 
L 287.547386 127.192548 
L 288.561932 127.192548 
L 288.561932 118.577082 
L 289.576477 118.577082 
L 289.576477 131.044761 
L 290.591023 131.044761 
L 290.591023 122.217817 
L 291.605568 122.217817 
L 291.605568 112.614782 
L 292.620114 112.614782 
L 292.620114 128.900896 
L 293.634659 128.900896 
L 293.634659 131.779126 
L 294.649205 131.779126 
L 294.649205 133.593966 
L 295.66375 133.593966 
L 295.66375 123.40793 
L 296.678295 123.40793 
L 296.678295 132.215294 
L 297.692841 132.215294 
L 297.692841 127.395345 
L 298.707386 127.395345 
L 298.707386 145.569828 
L 299.721932 145.569828 
L 299.721932 149.132892 
L 300.736477 149.132892 
L 300.736477 124.355543 
L 301.751023 124.355543 
L 301.751023 138.59491 
L 302.765568 138.59491 
L 302.765568 136.258614 
L 303.780114 136.258614 
L 303.780114 155.207757 
L 304.794659 155.207757 
L 304.794659 132.577904 
L 305.809205 132.577904 
L 305.809205 134.148544 
L 306.82375 134.148544 
L 306.82375 136.370009 
L 307.838295 136.370009 
L 307.838295 145.005944 
L 308.852841 145.005944 
L 308.852841 149.534285 
L 309.867386 149.534285 
L 309.867386 146.978012 
L 310.881932 146.978012 
L 310.881932 142.391833 
L 311.896477 142.391833 
L 311.896477 140.135751 
L 312.911023 140.135751 
L 312.911023 134.772117 
L 313.925568 134.772117 
L 313.925568 143.850369 
L 314.940114 143.850369 
L 314.940114 150.060669 
L 315.954659 150.060669 
L 315.954659 171.062448 
L 316.969205 171.062448 
L 316.969205 132.940316 
L 317.98375 132.940316 
M 318.998295 139.157768 
L 320.012841 139.157768 
L 320.012841 135.664964 
L 321.027386 135.664964 
L 321.027386 164.695375 
L 322.041932 164.695375 
L 322.041932 145.768741 
L 324.071023 145.709117 
L 324.071023 152.497875 
L 325.085568 152.497875 
L 325.085568 144.815749 
L 326.100114 144.815749 
L 326.100114 140.463984 
L 327.114659 140.463984 
L 327.114659 155.478347 
L 328.129205 155.478347 
L 328.129205 142.739563 
L 329.14375 142.739563 
L 329.14375 140.788967 
L 330.158295 140.788967 
L 330.158295 152.286818 
L 331.172841 152.286818 
L 331.172841 155.328061 
L 332.187386 155.328061 
L 332.187386 150.907418 
L 333.201932 150.907418 
L 333.201932 149.116613 
L 334.216477 149.116613 
L 334.216477 167.128678 
L 335.231023 167.128678 
L 335.231023 157.016108 
L 336.245568 157.016108 
L 336.245568 165.697575 
L 337.260114 165.697575 
L 337.260114 170.463861 
L 338.274659 170.463861 
L 338.274659 162.03581 
L 339.289205 162.03581 
L 339.289205 151.845056 
L 340.30375 151.845056 
L 340.30375 157.577487 
L 341.318295 157.577487 
L 341.318295 171.58 
L 342.332841 171.58 
L 342.332841 157.044367 
L 343.347386 157.044367 
L 343.347386 153.131932 
L 344.361932 153.131932 
L 344.361932 170.266629 
L 345.376477 170.266629 
L 345.376477 160.58736 
L 346.391023 160.58736 
L 346.391023 157.722256 
L 347.405568 157.722256 
L 347.405568 171.592019 
L 348.420114 171.592019 
L 348.420114 166.423961 
L 349.434659 166.423961 
L 349.434659 161.875638 
L 350.449205 161.875638 
L 350.449205 165.361073 
L 351.46375 165.361073 
L 351.46375 156.785401 
L 352.478295 156.785401 
L 352.478295 157.95365 
L 353.492841 157.95365 
L 353.492841 174.157096 
L 354.507386 174.157096 
L 354.507386 162.241449 
L 355.521932 162.241449 
L 355.521932 170.11 
L 356.536477 170.11 
L 356.536477 160.796708 
L 357.551023 160.796708 
L 357.551023 171.328377 
L 358.565568 171.328377 
L 358.565568 169.302364 
L 359.580114 169.302364 
L 359.580114 175.029111 
L 360.594659 175.029111 
L 360.594659 166.526635 
L 361.609205 166.526635 
L 361.609205 178.156574 
L 362.62375 178.156574 
L 362.62375 171.170254 
L 363.638295 171.170254 
L 363.638295 186.135748 
L 364.652841 186.135748 
L 364.652841 176.38467 
L 365.667386 176.38467 
L 365.667386 191.789721 
L 366.681932 191.789721 
L 366.681932 191.789721 
" clip-path="url(#pee98ffb65d)" style="fill: none; stroke: #1f77b4; stroke-width: 1.5; stroke-linecap: square"/>
   </g>
   <g id="LineCollection_1">
    <path d="M 65.869205 131.089173 
L 65.869205 127.801848 
" clip-path="url(#pee98ffb65d)" style="fill: none; stroke: #1f77b4; stroke-width: 1.5"/>
    <path d="M 66.88375 48.641779 
L 66.88375 44.371702 
" clip-path="url(#pee98ffb65d)" style="fill: none; stroke: #1f77b4; stroke-width: 1.5"/>
    <path d="M 67.898295 76.205925 
L 67.898295 72.317093 
" clip-path="url(#pee98ffb65d)" style="fill: none; stroke: #1f77b4; stroke-width: 1.5"/>
    <path d="M 68.912841 103.781433 
L 68.912841 100.150781 
" clip-path="url(#pee98ffb65d)" style="fill: none; stroke: #1f77b4; stroke-width: 1.5"/>
    <path d="M 69.927386 70.440568 
L 69.927386 66.750457 
" clip-path="url(#pee98ffb65d)" style="fill: none; stroke: #1f77b4; stroke-width: 1.5"/>
    <path d="M 70.941932 83.069798 
L 70.941932 79.309816 
" clip-path="url(#pee98ffb65d)" style="fill: none; stroke: #1f77b4; stroke-width: 1.5"/>
    <path d="M 71.956477 125.681158 
L 71.956477 122.692091 
" clip-path="url(#pee98ffb65d)" style="fill: none; stroke: #1f77b4; stroke-width: 1.5"/>
    <path d="M 72.971023 139.699624 
L 72.971023 136.895715 
" clip-path="url(#pee98ffb65d)" style="fill: none; stroke: #1f77b4; stroke-width: 1.5"/>
    <path d="M 73.985568 114.009863 
L 73.985568 110.874192 
" clip-path="url(#pee98ffb65d)" style="fill: none; stroke: #1f77b4; stroke-width: 1.5"/>
    <path d="M 75.000114 119.900755 
L 75.000114 116.854882 
" clip-path="url(#pee98ffb65d)" style="fill: none; stroke: #1f77b4; stroke-width: 1.5"/>
    <path d="M 76.014659 115.688128 
L 76.014659 112.600411 
" clip-path="url(#pee98ffb65d)" style="fill: none; stroke: #1f77b4; stroke-width: 1.5"/>
    <path d="M 77.029205 125.802351 
L 77.029205 122.74636 
" clip-path="url(#pee98ffb65d)" style="fill: none; stroke: #1f77b4; stroke-width: 1.5"/>
    <path d="M 78.04375 83.713411 
L 78.04375 80.081439 
" clip-path="url(#pee98ffb65d)" style="fill: none; stroke: #1f77b4; stroke-width: 1.5"/>
    <path d="M 79.058295 103.480476 
L 79.058295 100.044271 
" clip-path="url(#pee98ffb65d)" style="fill: none; stroke: #1f77b4; stroke-width: 1.5"/>
    <path d="M 80.072841 73.306205 
L 80.072841 69.62728 
" clip-path="url(#pee98ffb65d)" style="fill: none; stroke: #1f77b4; stroke-width: 1.5"/>
    <path d="M 81.087386 45.762577 
L 81.087386 41.648352 
" clip-path="url(#pee98ffb65d)" style="fill: none; stroke: #1f77b4; stroke-width: 1.5"/>
    <path d="M 82.101932 83.56368 
L 82.101932 80.046341 
" clip-path="url(#pee98ffb65d)" style="fill: none; stroke: #1f77b4; stroke-width: 1.5"/>
    <path d="M 83.116477 138.191614 
L 83.116477 135.295665 
" clip-path="url(#pee98ffb65d)" style="fill: none; stroke: #1f77b4; stroke-width: 1.5"/>
    <path d="M 84.131023 109.876114 
L 84.131023 106.666203 
" clip-path="url(#pee98ffb65d)" style="fill: none; stroke: #1f77b4; stroke-width: 1.5"/>
    <path d="M 85.145568 138.908612 
L 85.145568 135.940763 
" clip-path="url(#pee98ffb65d)" style="fill: none; stroke: #1f77b4; stroke-width: 1.5"/>
    <path d="M 86.160114 101.648718 
L 86.160114 98.233535 
" clip-path="url(#pee98ffb65d)" style="fill: none; stroke: #1f77b4; stroke-width: 1.5"/>
    <path d="M 87.174659 97.866347 
L 87.174659 94.40912 
" clip-path="url(#pee98ffb65d)" style="fill: none; stroke: #1f77b4; stroke-width: 1.5"/>
    <path d="M 88.189205 153.272412 
L 88.189205 150.448914 
" clip-path="url(#pee98ffb65d)" style="fill: none; stroke: #1f77b4; stroke-width: 1.5"/>
    <path d="M 89.20375 100.393708 
L 89.20375 96.878861 
" clip-path="url(#pee98ffb65d)" style="fill: none; stroke: #1f77b4; stroke-width: 1.5"/>
    <path d="M 90.218295 123.196491 
L 90.218295 119.910999 
" clip-path="url(#pee98ffb65d)" style="fill: none; stroke: #1f77b4; stroke-width: 1.5"/>
    <path d="M 91.232841 133.181399 
L 91.232841 130.011968 
" clip-path="url(#pee98ffb65d)" style="fill: none; stroke: #1f77b4; stroke-width: 1.5"/>
    <path d="M 92.247386 101.72102 
L 92.247386 98.169771 
" clip-path="url(#pee98ffb65d)" style="fill: none; stroke: #1f77b4; stroke-width: 1.5"/>
    <path d="M 93.261932 116.599674 
L 93.261932 113.317256 
" clip-path="url(#pee98ffb65d)" style="fill: none; stroke: #1f77b4; stroke-width: 1.5"/>
    <path d="M 94.276477 112.353632 
L 94.276477 108.959563 
" clip-path="url(#pee98ffb65d)" style="fill: none; stroke: #1f77b4; stroke-width: 1.5"/>
    <path d="M 95.291023 110.578407 
L 95.291023 107.167359 
" clip-path="url(#pee98ffb65d)" style="fill: none; stroke: #1f77b4; stroke-width: 1.5"/>
    <path d="M 96.305568 102.222142 
L 96.305568 98.575866 
" clip-path="url(#pee98ffb65d)" style="fill: none; stroke: #1f77b4; stroke-width: 1.5"/>
    <path d="M 97.320114 128.416542 
L 97.320114 125.092842 
" clip-path="url(#pee98ffb65d)" style="fill: none; stroke: #1f77b4; stroke-width: 1.5"/>
    <path d="M 98.334659 135.321327 
L 98.334659 132.180651 
" clip-path="url(#pee98ffb65d)" style="fill: none; stroke: #1f77b4; stroke-width: 1.5"/>
    <path d="M 99.349205 141.024876 
L 99.349205 138.041158 
" clip-path="url(#pee98ffb65d)" style="fill: none; stroke: #1f77b4; stroke-width: 1.5"/>
    <path d="M 100.36375 103.103172 
L 100.36375 99.542449 
" clip-path="url(#pee98ffb65d)" style="fill: none; stroke: #1f77b4; stroke-width: 1.5"/>
    <path d="M 101.378295 136.759311 
L 101.378295 133.773992 
" clip-path="url(#pee98ffb65d)" style="fill: none; stroke: #1f77b4; stroke-width: 1.5"/>
    <path d="M 102.392841 133.787229 
L 102.392841 130.803809 
" clip-path="url(#pee98ffb65d)" style="fill: none; stroke: #1f77b4; stroke-width: 1.5"/>
    <path d="M 103.407386 113.988316 
L 103.407386 110.810291 
" clip-path="url(#pee98ffb65d)" style="fill: none; stroke: #1f77b4; stroke-width: 1.5"/>
    <path d="M 104.421932 105.890996 
L 104.421932 102.308689 
" clip-path="url(#pee98ffb65d)" style="fill: none; stroke: #1f77b4; stroke-width: 1.5"/>
    <path d="M 105.436477 110.583883 
L 105.436477 107.128757 
" clip-path="url(#pee98ffb65d)" style="fill: none; stroke: #1f77b4; stroke-width: 1.5"/>
    <path d="M 106.451023 188.876823 
L 106.451023 186.569433 
" clip-path="url(#pee98ffb65d)" style="fill: none; stroke: #1f77b4; stroke-width: 1.5"/>
    <path d="M 107.465568 168.429893 
L 107.465568 165.922426 
" clip-path="url(#pee98ffb65d)" style="fill: none; stroke: #1f77b4; stroke-width: 1.5"/>
    <path d="M 108.480114 167.094272 
L 108.480114 164.425877 
" clip-path="url(#pee98ffb65d)" style="fill: none; stroke: #1f77b4; stroke-width: 1.5"/>
    <path d="M 109.494659 155.127908 
L 109.494659 152.284071 
" clip-path="url(#pee98ffb65d)" style="fill: none; stroke: #1f77b4; stroke-width: 1.5"/>
    <path d="M 110.509205 148.187917 
L 110.509205 145.175263 
" clip-path="url(#pee98ffb65d)" style="fill: none; stroke: #1f77b4; stroke-width: 1.5"/>
    <path d="M 111.52375 57.912671 
L 111.52375 53.797233 
" clip-path="url(#pee98ffb65d)" style="fill: none; stroke: #1f77b4; stroke-width: 1.5"/>
    <path d="M 112.538295 73.069351 
L 112.538295 69.133724 
" clip-path="url(#pee98ffb65d)" style="fill: none; stroke: #1f77b4; stroke-width: 1.5"/>
    <path d="M 113.552841 146.512438 
L 113.552841 143.511131 
" clip-path="url(#pee98ffb65d)" style="fill: none; stroke: #1f77b4; stroke-width: 1.5"/>
    <path d="M 114.567386 158.066766 
L 114.567386 154.838513 
" clip-path="url(#pee98ffb65d)" style="fill: none; stroke: #1f77b4; stroke-width: 1.5"/>
    <path d="M 115.581932 137.526127 
L 115.581932 133.79454 
" clip-path="url(#pee98ffb65d)" style="fill: none; stroke: #1f77b4; stroke-width: 1.5"/>
    <path d="M 116.596477 114.174963 
L 116.596477 110.559598 
" clip-path="url(#pee98ffb65d)" style="fill: none; stroke: #1f77b4; stroke-width: 1.5"/>
    <path d="M 117.611023 105.845497 
L 117.611023 102.827302 
" clip-path="url(#pee98ffb65d)" style="fill: none; stroke: #1f77b4; stroke-width: 1.5"/>
    <path d="M 118.625568 117.828138 
L 118.625568 115.031458 
" clip-path="url(#pee98ffb65d)" style="fill: none; stroke: #1f77b4; stroke-width: 1.5"/>
    <path d="M 119.640114 139.457931 
L 119.640114 136.943105 
" clip-path="url(#pee98ffb65d)" style="fill: none; stroke: #1f77b4; stroke-width: 1.5"/>
    <path d="M 120.654659 127.121216 
L 120.654659 124.6304 
" clip-path="url(#pee98ffb65d)" style="fill: none; stroke: #1f77b4; stroke-width: 1.5"/>
    <path d="M 121.669205 90.47566 
L 121.669205 87.782888 
" clip-path="url(#pee98ffb65d)" style="fill: none; stroke: #1f77b4; stroke-width: 1.5"/>
    <path d="M 122.68375 93.848836 
L 122.68375 91.346028 
" clip-path="url(#pee98ffb65d)" style="fill: none; stroke: #1f77b4; stroke-width: 1.5"/>
    <path d="M 123.698295 141.289137 
L 123.698295 139.162713 
" clip-path="url(#pee98ffb65d)" style="fill: none; stroke: #1f77b4; stroke-width: 1.5"/>
    <path d="M 124.712841 151.258342 
L 124.712841 149.180773 
" clip-path="url(#pee98ffb65d)" style="fill: none; stroke: #1f77b4; stroke-width: 1.5"/>
    <path d="M 125.727386 144.55029 
L 125.727386 142.479195 
" clip-path="url(#pee98ffb65d)" style="fill: none; stroke: #1f77b4; stroke-width: 1.5"/>
    <path d="M 126.741932 154.789787 
L 126.741932 152.761214 
" clip-path="url(#pee98ffb65d)" style="fill: none; stroke: #1f77b4; stroke-width: 1.5"/>
    <path d="M 127.756477 147.835644 
L 127.756477 145.781814 
" clip-path="url(#pee98ffb65d)" style="fill: none; stroke: #1f77b4; stroke-width: 1.5"/>
    <path d="M 128.771023 150.051796 
L 128.771023 147.902656 
" clip-path="url(#pee98ffb65d)" style="fill: none; stroke: #1f77b4; stroke-width: 1.5"/>
    <path d="M 129.785568 134.447129 
L 129.785568 132.367754 
" clip-path="url(#pee98ffb65d)" style="fill: none; stroke: #1f77b4; stroke-width: 1.5"/>
    <path d="M 130.800114 147.128199 
L 130.800114 145.165704 
" clip-path="url(#pee98ffb65d)" style="fill: none; stroke: #1f77b4; stroke-width: 1.5"/>
    <path d="M 131.814659 99.535743 
L 131.814659 97.111103 
" clip-path="url(#pee98ffb65d)" style="fill: none; stroke: #1f77b4; stroke-width: 1.5"/>
    <path d="M 132.829205 103.289367 
L 132.829205 100.921329 
" clip-path="url(#pee98ffb65d)" style="fill: none; stroke: #1f77b4; stroke-width: 1.5"/>
    <path d="M 133.84375 140.204877 
L 133.84375 138.103982 
" clip-path="url(#pee98ffb65d)" style="fill: none; stroke: #1f77b4; stroke-width: 1.5"/>
    <path d="M 134.858295 151.270745 
L 134.858295 149.331169 
" clip-path="url(#pee98ffb65d)" style="fill: none; stroke: #1f77b4; stroke-width: 1.5"/>
    <path d="M 135.872841 140.835353 
L 135.872841 138.864179 
" clip-path="url(#pee98ffb65d)" style="fill: none; stroke: #1f77b4; stroke-width: 1.5"/>
    <path d="M 136.887386 134.338826 
L 136.887386 132.226693 
" clip-path="url(#pee98ffb65d)" style="fill: none; stroke: #1f77b4; stroke-width: 1.5"/>
    <path d="M 137.901932 141.752206 
L 137.901932 139.654816 
" clip-path="url(#pee98ffb65d)" style="fill: none; stroke: #1f77b4; stroke-width: 1.5"/>
    <path d="M 138.916477 152.291784 
L 138.916477 150.326165 
" clip-path="url(#pee98ffb65d)" style="fill: none; stroke: #1f77b4; stroke-width: 1.5"/>
    <path d="M 139.931023 145.256416 
L 139.931023 143.217602 
" clip-path="url(#pee98ffb65d)" style="fill: none; stroke: #1f77b4; stroke-width: 1.5"/>
    <path d="M 140.945568 148.100287 
L 140.945568 146.102127 
" clip-path="url(#pee98ffb65d)" style="fill: none; stroke: #1f77b4; stroke-width: 1.5"/>
    <path d="M 141.960114 132.539033 
L 141.960114 130.340902 
" clip-path="url(#pee98ffb65d)" style="fill: none; stroke: #1f77b4; stroke-width: 1.5"/>
    <path d="M 142.974659 153.333167 
L 142.974659 151.32154 
" clip-path="url(#pee98ffb65d)" style="fill: none; stroke: #1f77b4; stroke-width: 1.5"/>
    <path d="M 143.989205 140.763266 
L 143.989205 138.616974 
" clip-path="url(#pee98ffb65d)" style="fill: none; stroke: #1f77b4; stroke-width: 1.5"/>
    <path d="M 145.00375 166.323944 
L 145.00375 164.547816 
" clip-path="url(#pee98ffb65d)" style="fill: none; stroke: #1f77b4; stroke-width: 1.5"/>
    <path d="M 146.018295 159.775456 
L 146.018295 157.843135 
" clip-path="url(#pee98ffb65d)" style="fill: none; stroke: #1f77b4; stroke-width: 1.5"/>
    <path d="M 147.032841 121.602558 
L 147.032841 119.28617 
" clip-path="url(#pee98ffb65d)" style="fill: none; stroke: #1f77b4; stroke-width: 1.5"/>
    <path d="M 148.047386 148.505634 
L 148.047386 146.456383 
" clip-path="url(#pee98ffb65d)" style="fill: none; stroke: #1f77b4; stroke-width: 1.5"/>
    <path d="M 149.061932 164.11226 
L 149.061932 162.220643 
" clip-path="url(#pee98ffb65d)" style="fill: none; stroke: #1f77b4; stroke-width: 1.5"/>
    <path d="M 150.076477 161.92088 
L 150.076477 159.958251 
" clip-path="url(#pee98ffb65d)" style="fill: none; stroke: #1f77b4; stroke-width: 1.5"/>
    <path d="M 151.091023 173.090036 
L 151.091023 171.235538 
" clip-path="url(#pee98ffb65d)" style="fill: none; stroke: #1f77b4; stroke-width: 1.5"/>
    <path d="M 152.105568 172.36533 
L 152.105568 170.499439 
" clip-path="url(#pee98ffb65d)" style="fill: none; stroke: #1f77b4; stroke-width: 1.5"/>
    <path d="M 153.120114 177.121294 
L 153.120114 175.303886 
" clip-path="url(#pee98ffb65d)" style="fill: none; stroke: #1f77b4; stroke-width: 1.5"/>
    <path d="M 154.134659 170.064098 
L 154.134659 168.142652 
" clip-path="url(#pee98ffb65d)" style="fill: none; stroke: #1f77b4; stroke-width: 1.5"/>
    <path d="M 155.149205 165.173854 
L 155.149205 163.112123 
" clip-path="url(#pee98ffb65d)" style="fill: none; stroke: #1f77b4; stroke-width: 1.5"/>
    <path d="M 156.16375 167.126443 
L 156.16375 165.092053 
" clip-path="url(#pee98ffb65d)" style="fill: none; stroke: #1f77b4; stroke-width: 1.5"/>
    <path d="M 157.178295 196.68988 
L 157.178295 194.95489 
" clip-path="url(#pee98ffb65d)" style="fill: none; stroke: #1f77b4; stroke-width: 1.5"/>
    <path d="M 158.192841 159.978347 
L 158.192841 157.834027 
" clip-path="url(#pee98ffb65d)" style="fill: none; stroke: #1f77b4; stroke-width: 1.5"/>
    <path d="M 159.207386 174.575609 
L 159.207386 172.633775 
" clip-path="url(#pee98ffb65d)" style="fill: none; stroke: #1f77b4; stroke-width: 1.5"/>
    <path d="M 160.221932 182.609896 
L 160.221932 180.6398 
" clip-path="url(#pee98ffb65d)" style="fill: none; stroke: #1f77b4; stroke-width: 1.5"/>
    <path d="M 161.236477 195.361471 
L 161.236477 193.54491 
" clip-path="url(#pee98ffb65d)" style="fill: none; stroke: #1f77b4; stroke-width: 1.5"/>
    <path d="M 162.251023 187.00144 
L 162.251023 185.001459 
" clip-path="url(#pee98ffb65d)" style="fill: none; stroke: #1f77b4; stroke-width: 1.5"/>
    <path d="M 163.265568 179.418797 
L 163.265568 177.335885 
" clip-path="url(#pee98ffb65d)" style="fill: none; stroke: #1f77b4; stroke-width: 1.5"/>
    <path d="M 164.280114 203.512548 
L 164.280114 201.664478 
" clip-path="url(#pee98ffb65d)" style="fill: none; stroke: #1f77b4; stroke-width: 1.5"/>
    <path d="M 165.294659 181.801198 
L 165.294659 179.652756 
" clip-path="url(#pee98ffb65d)" style="fill: none; stroke: #1f77b4; stroke-width: 1.5"/>
    <path d="M 166.309205 218.203551 
L 166.309205 216.436398 
" clip-path="url(#pee98ffb65d)" style="fill: none; stroke: #1f77b4; stroke-width: 1.5"/>
    <path d="M 167.32375 201.605443 
L 167.32375 199.52336 
" clip-path="url(#pee98ffb65d)" style="fill: none; stroke: #1f77b4; stroke-width: 1.5"/>
    <path d="M 168.338295 218.88 
L 168.338295 216.814508 
" clip-path="url(#pee98ffb65d)" style="fill: none; stroke: #1f77b4; stroke-width: 1.5"/>
    <path d="M 169.352841 193.678116 
L 169.352841 190.998144 
" clip-path="url(#pee98ffb65d)" style="fill: none; stroke: #1f77b4; stroke-width: 1.5"/>
    <path d="M 170.367386 191.087262 
L 170.367386 189.009574 
" clip-path="url(#pee98ffb65d)" style="fill: none; stroke: #1f77b4; stroke-width: 1.5"/>
    <path d="M 171.381932 203.725333 
L 171.381932 201.810902 
" clip-path="url(#pee98ffb65d)" style="fill: none; stroke: #1f77b4; stroke-width: 1.5"/>
    <path d="M 172.396477 190.921678 
L 172.396477 188.648224 
" clip-path="url(#pee98ffb65d)" style="fill: none; stroke: #1f77b4; stroke-width: 1.5"/>
    <path d="M 173.411023 98.625016 
L 173.411023 95.656851 
" clip-path="url(#pee98ffb65d)" style="fill: none; stroke: #1f77b4; stroke-width: 1.5"/>
    <path d="M 174.425568 21.142926 
L 174.425568 17.755954 
" clip-path="url(#pee98ffb65d)" style="fill: none; stroke: #1f77b4; stroke-width: 1.5"/>
    <path d="M 175.440114 42.835037 
L 175.440114 39.690688 
" clip-path="url(#pee98ffb65d)" style="fill: none; stroke: #1f77b4; stroke-width: 1.5"/>
    <path d="M 176.454659 35.018351 
L 176.454659 31.918124 
" clip-path="url(#pee98ffb65d)" style="fill: none; stroke: #1f77b4; stroke-width: 1.5"/>
    <path d="M 177.469205 21.523461 
L 177.469205 18.300487 
" clip-path="url(#pee98ffb65d)" style="fill: none; stroke: #1f77b4; stroke-width: 1.5"/>
    <path d="M 178.48375 83.2472 
L 178.48375 80.506777 
" clip-path="url(#pee98ffb65d)" style="fill: none; stroke: #1f77b4; stroke-width: 1.5"/>
    <path d="M 179.498295 53.127333 
L 179.498295 50.166202 
" clip-path="url(#pee98ffb65d)" style="fill: none; stroke: #1f77b4; stroke-width: 1.5"/>
    <path d="M 180.512841 59.027691 
L 180.512841 56.036973 
" clip-path="url(#pee98ffb65d)" style="fill: none; stroke: #1f77b4; stroke-width: 1.5"/>
    <path d="M 181.527386 37.509305 
L 181.527386 34.32411 
" clip-path="url(#pee98ffb65d)" style="fill: none; stroke: #1f77b4; stroke-width: 1.5"/>
    <path d="M 182.541932 54.642709 
L 182.541932 51.641956 
" clip-path="url(#pee98ffb65d)" style="fill: none; stroke: #1f77b4; stroke-width: 1.5"/>
    <path d="M 183.556477 59.369319 
L 183.556477 56.467143 
" clip-path="url(#pee98ffb65d)" style="fill: none; stroke: #1f77b4; stroke-width: 1.5"/>
    <path d="M 184.571023 25.081917 
L 184.571023 21.859697 
" clip-path="url(#pee98ffb65d)" style="fill: none; stroke: #1f77b4; stroke-width: 1.5"/>
    <path d="M 185.585568 66.178684 
L 185.585568 63.314843 
" clip-path="url(#pee98ffb65d)" style="fill: none; stroke: #1f77b4; stroke-width: 1.5"/>
    <path d="M 186.600114 63.298492 
L 186.600114 60.360539 
" clip-path="url(#pee98ffb65d)" style="fill: none; stroke: #1f77b4; stroke-width: 1.5"/>
    <path d="M 187.614659 37.390688 
L 187.614659 34.255901 
" clip-path="url(#pee98ffb65d)" style="fill: none; stroke: #1f77b4; stroke-width: 1.5"/>
    <path d="M 188.629205 20.650447 
L 188.629205 17.28 
" clip-path="url(#pee98ffb65d)" style="fill: none; stroke: #1f77b4; stroke-width: 1.5"/>
    <path d="M 189.64375 41.244693 
L 189.64375 37.969869 
" clip-path="url(#pee98ffb65d)" style="fill: none; stroke: #1f77b4; stroke-width: 1.5"/>
    <path d="M 190.658295 52.484163 
L 190.658295 49.457298 
" clip-path="url(#pee98ffb65d)" style="fill: none; stroke: #1f77b4; stroke-width: 1.5"/>
    <path d="M 191.672841 50.294514 
L 191.672841 47.140158 
" clip-path="url(#pee98ffb65d)" style="fill: none; stroke: #1f77b4; stroke-width: 1.5"/>
    <path d="M 192.687386 57.556186 
L 192.687386 54.563045 
" clip-path="url(#pee98ffb65d)" style="fill: none; stroke: #1f77b4; stroke-width: 1.5"/>
    <path d="M 193.701932 56.459973 
L 193.701932 53.360177 
" clip-path="url(#pee98ffb65d)" style="fill: none; stroke: #1f77b4; stroke-width: 1.5"/>
    <path d="M 194.716477 75.448839 
L 194.716477 72.526138 
" clip-path="url(#pee98ffb65d)" style="fill: none; stroke: #1f77b4; stroke-width: 1.5"/>
    <path d="M 195.731023 35.072361 
L 195.731023 31.694861 
" clip-path="url(#pee98ffb65d)" style="fill: none; stroke: #1f77b4; stroke-width: 1.5"/>
    <path d="M 196.745568 69.894931 
L 196.745568 66.785451 
" clip-path="url(#pee98ffb65d)" style="fill: none; stroke: #1f77b4; stroke-width: 1.5"/>
    <path d="M 197.760114 50.947629 
L 197.760114 47.692852 
" clip-path="url(#pee98ffb65d)" style="fill: none; stroke: #1f77b4; stroke-width: 1.5"/>
    <path d="M 198.774659 56.243841 
L 198.774659 53.076753 
" clip-path="url(#pee98ffb65d)" style="fill: none; stroke: #1f77b4; stroke-width: 1.5"/>
    <path d="M 199.789205 39.014871 
L 199.789205 35.605392 
" clip-path="url(#pee98ffb65d)" style="fill: none; stroke: #1f77b4; stroke-width: 1.5"/>
    <path d="M 200.80375 48.298182 
L 200.80375 44.925077 
" clip-path="url(#pee98ffb65d)" style="fill: none; stroke: #1f77b4; stroke-width: 1.5"/>
    <path d="M 201.818295 51.744679 
L 201.818295 48.343243 
" clip-path="url(#pee98ffb65d)" style="fill: none; stroke: #1f77b4; stroke-width: 1.5"/>
    <path d="M 202.832841 81.298468 
L 202.832841 78.157552 
" clip-path="url(#pee98ffb65d)" style="fill: none; stroke: #1f77b4; stroke-width: 1.5"/>
    <path d="M 203.847386 81.407406 
L 203.847386 78.318219 
" clip-path="url(#pee98ffb65d)" style="fill: none; stroke: #1f77b4; stroke-width: 1.5"/>
    <path d="M 204.861932 68.206538 
L 204.861932 64.982071 
" clip-path="url(#pee98ffb65d)" style="fill: none; stroke: #1f77b4; stroke-width: 1.5"/>
    <path d="M 205.876477 80.709389 
L 205.876477 77.602916 
" clip-path="url(#pee98ffb65d)" style="fill: none; stroke: #1f77b4; stroke-width: 1.5"/>
    <path d="M 206.891023 57.989819 
L 206.891023 54.606922 
" clip-path="url(#pee98ffb65d)" style="fill: none; stroke: #1f77b4; stroke-width: 1.5"/>
    <path d="M 207.905568 44.749958 
L 207.905568 41.220138 
" clip-path="url(#pee98ffb65d)" style="fill: none; stroke: #1f77b4; stroke-width: 1.5"/>
    <path d="M 208.920114 56.601033 
L 208.920114 53.084162 
" clip-path="url(#pee98ffb65d)" style="fill: none; stroke: #1f77b4; stroke-width: 1.5"/>
    <path d="M 209.934659 88.018791 
L 209.934659 84.889854 
" clip-path="url(#pee98ffb65d)" style="fill: none; stroke: #1f77b4; stroke-width: 1.5"/>
    <path d="M 210.949205 85.863098 
L 210.949205 82.662958 
" clip-path="url(#pee98ffb65d)" style="fill: none; stroke: #1f77b4; stroke-width: 1.5"/>
    <path d="M 211.96375 65.660438 
L 211.96375 62.01013 
" clip-path="url(#pee98ffb65d)" style="fill: none; stroke: #1f77b4; stroke-width: 1.5"/>
    <path d="M 212.978295 72.96531 
L 212.978295 69.512093 
" clip-path="url(#pee98ffb65d)" style="fill: none; stroke: #1f77b4; stroke-width: 1.5"/>
    <path d="M 213.992841 68.918317 
L 213.992841 65.193085 
" clip-path="url(#pee98ffb65d)" style="fill: none; stroke: #1f77b4; stroke-width: 1.5"/>
    <path d="M 215.007386 35.917448 
L 215.007386 31.724113 
" clip-path="url(#pee98ffb65d)" style="fill: none; stroke: #1f77b4; stroke-width: 1.5"/>
    <path d="M 216.021932 87.455005 
L 216.021932 83.889204 
" clip-path="url(#pee98ffb65d)" style="fill: none; stroke: #1f77b4; stroke-width: 1.5"/>
    <path d="M 217.036477 91.786249 
L 217.036477 88.000211 
" clip-path="url(#pee98ffb65d)" style="fill: none; stroke: #1f77b4; stroke-width: 1.5"/>
    <path d="M 218.051023 88.059854 
L 218.051023 84.198783 
" clip-path="url(#pee98ffb65d)" style="fill: none; stroke: #1f77b4; stroke-width: 1.5"/>
    <path d="M 219.065568 45.458639 
L 219.065568 40.736675 
" clip-path="url(#pee98ffb65d)" style="fill: none; stroke: #1f77b4; stroke-width: 1.5"/>
    <path d="M 220.080114 66.77226 
L 220.080114 61.73404 
" clip-path="url(#pee98ffb65d)" style="fill: none; stroke: #1f77b4; stroke-width: 1.5"/>
    <path d="M 221.094659 70.950323 
L 221.094659 65.313379 
" clip-path="url(#pee98ffb65d)" style="fill: none; stroke: #1f77b4; stroke-width: 1.5"/>
    <path d="M 222.109205 99.153181 
L 222.109205 94.564119 
" clip-path="url(#pee98ffb65d)" style="fill: none; stroke: #1f77b4; stroke-width: 1.5"/>
    <path d="M 223.12375 98.550127 
L 223.12375 94.219152 
" clip-path="url(#pee98ffb65d)" style="fill: none; stroke: #1f77b4; stroke-width: 1.5"/>
    <path d="M 224.138295 58.769649 
L 224.138295 54.150072 
" clip-path="url(#pee98ffb65d)" style="fill: none; stroke: #1f77b4; stroke-width: 1.5"/>
    <path d="M 225.152841 81.934457 
L 225.152841 77.93875 
" clip-path="url(#pee98ffb65d)" style="fill: none; stroke: #1f77b4; stroke-width: 1.5"/>
    <path d="M 226.167386 41.826732 
L 226.167386 37.807084 
" clip-path="url(#pee98ffb65d)" style="fill: none; stroke: #1f77b4; stroke-width: 1.5"/>
    <path d="M 227.181932 83.031065 
L 227.181932 79.581046 
" clip-path="url(#pee98ffb65d)" style="fill: none; stroke: #1f77b4; stroke-width: 1.5"/>
    <path d="M 228.196477 88.26442 
L 228.196477 84.831789 
" clip-path="url(#pee98ffb65d)" style="fill: none; stroke: #1f77b4; stroke-width: 1.5"/>
    <path d="M 229.211023 90.168689 
L 229.211023 86.810363 
" clip-path="url(#pee98ffb65d)" style="fill: none; stroke: #1f77b4; stroke-width: 1.5"/>
    <path d="M 230.225568 88.237208 
L 230.225568 84.83583 
" clip-path="url(#pee98ffb65d)" style="fill: none; stroke: #1f77b4; stroke-width: 1.5"/>
    <path d="M 231.240114 74.561643 
L 231.240114 70.935172 
" clip-path="url(#pee98ffb65d)" style="fill: none; stroke: #1f77b4; stroke-width: 1.5"/>
    <path d="M 232.254659 108.430625 
L 232.254659 105.204943 
" clip-path="url(#pee98ffb65d)" style="fill: none; stroke: #1f77b4; stroke-width: 1.5"/>
    <path d="M 233.269205 60.013144 
L 233.269205 56.157763 
" clip-path="url(#pee98ffb65d)" style="fill: none; stroke: #1f77b4; stroke-width: 1.5"/>
    <path d="M 234.28375 90.112035 
L 234.28375 86.708885 
" clip-path="url(#pee98ffb65d)" style="fill: none; stroke: #1f77b4; stroke-width: 1.5"/>
    <path d="M 235.298295 97.400728 
L 235.298295 93.9553 
" clip-path="url(#pee98ffb65d)" style="fill: none; stroke: #1f77b4; stroke-width: 1.5"/>
    <path d="M 236.312841 102.925696 
L 236.312841 99.621018 
" clip-path="url(#pee98ffb65d)" style="fill: none; stroke: #1f77b4; stroke-width: 1.5"/>
    <path d="M 237.327386 104.807909 
L 237.327386 101.477383 
" clip-path="url(#pee98ffb65d)" style="fill: none; stroke: #1f77b4; stroke-width: 1.5"/>
    <path d="M 238.341932 95.770339 
L 238.341932 92.34504 
" clip-path="url(#pee98ffb65d)" style="fill: none; stroke: #1f77b4; stroke-width: 1.5"/>
    <path d="M 239.356477 91.591654 
L 239.356477 88.120154 
" clip-path="url(#pee98ffb65d)" style="fill: none; stroke: #1f77b4; stroke-width: 1.5"/>
    <path d="M 240.371023 95.716558 
L 240.371023 92.236453 
" clip-path="url(#pee98ffb65d)" style="fill: none; stroke: #1f77b4; stroke-width: 1.5"/>
    <path d="M 241.385568 83.938663 
L 241.385568 80.223943 
" clip-path="url(#pee98ffb65d)" style="fill: none; stroke: #1f77b4; stroke-width: 1.5"/>
    <path d="M 242.400114 93.855909 
L 242.400114 90.244604 
" clip-path="url(#pee98ffb65d)" style="fill: none; stroke: #1f77b4; stroke-width: 1.5"/>
    <path d="M 243.414659 89.979247 
L 243.414659 86.310022 
" clip-path="url(#pee98ffb65d)" style="fill: none; stroke: #1f77b4; stroke-width: 1.5"/>
    <path d="M 244.429205 89.758481 
L 244.429205 86.111158 
" clip-path="url(#pee98ffb65d)" style="fill: none; stroke: #1f77b4; stroke-width: 1.5"/>
    <path d="M 245.44375 75.093868 
L 245.44375 71.229301 
" clip-path="url(#pee98ffb65d)" style="fill: none; stroke: #1f77b4; stroke-width: 1.5"/>
    <path d="M 246.458295 85.999787 
L 246.458295 82.307351 
" clip-path="url(#pee98ffb65d)" style="fill: none; stroke: #1f77b4; stroke-width: 1.5"/>
    <path d="M 247.472841 97.693613 
L 247.472841 94.125524 
" clip-path="url(#pee98ffb65d)" style="fill: none; stroke: #1f77b4; stroke-width: 1.5"/>
    <path d="M 248.487386 84.612673 
L 248.487386 80.732159 
" clip-path="url(#pee98ffb65d)" style="fill: none; stroke: #1f77b4; stroke-width: 1.5"/>
    <path d="M 249.501932 108.395753 
L 249.501932 104.810767 
" clip-path="url(#pee98ffb65d)" style="fill: none; stroke: #1f77b4; stroke-width: 1.5"/>
    <path d="M 250.516477 127.590346 
L 250.516477 124.314044 
" clip-path="url(#pee98ffb65d)" style="fill: none; stroke: #1f77b4; stroke-width: 1.5"/>
    <path d="M 251.531023 103.589748 
L 251.531023 99.917152 
" clip-path="url(#pee98ffb65d)" style="fill: none; stroke: #1f77b4; stroke-width: 1.5"/>
    <path d="M 252.545568 100.938687 
L 252.545568 97.243604 
" clip-path="url(#pee98ffb65d)" style="fill: none; stroke: #1f77b4; stroke-width: 1.5"/>
    <path d="M 253.560114 97.50635 
L 253.560114 93.68882 
" clip-path="url(#pee98ffb65d)" style="fill: none; stroke: #1f77b4; stroke-width: 1.5"/>
    <path d="M 254.574659 98.235532 
L 254.574659 94.390443 
" clip-path="url(#pee98ffb65d)" style="fill: none; stroke: #1f77b4; stroke-width: 1.5"/>
    <path d="M 255.589205 115.653039 
L 255.589205 112.084017 
" clip-path="url(#pee98ffb65d)" style="fill: none; stroke: #1f77b4; stroke-width: 1.5"/>
    <path d="M 256.60375 108.706646 
L 256.60375 104.917111 
" clip-path="url(#pee98ffb65d)" style="fill: none; stroke: #1f77b4; stroke-width: 1.5"/>
    <path d="M 257.618295 108.01294 
L 257.618295 104.192556 
" clip-path="url(#pee98ffb65d)" style="fill: none; stroke: #1f77b4; stroke-width: 1.5"/>
    <path d="M 258.632841 114.925065 
L 258.632841 111.138924 
" clip-path="url(#pee98ffb65d)" style="fill: none; stroke: #1f77b4; stroke-width: 1.5"/>
    <path d="M 259.647386 102.142535 
L 259.647386 98.060578 
" clip-path="url(#pee98ffb65d)" style="fill: none; stroke: #1f77b4; stroke-width: 1.5"/>
    <path d="M 260.661932 113.749015 
L 260.661932 109.866825 
" clip-path="url(#pee98ffb65d)" style="fill: none; stroke: #1f77b4; stroke-width: 1.5"/>
    <path d="M 261.676477 93.521993 
L 261.676477 89.220767 
" clip-path="url(#pee98ffb65d)" style="fill: none; stroke: #1f77b4; stroke-width: 1.5"/>
    <path d="M 262.691023 105.82792 
L 262.691023 101.639274 
" clip-path="url(#pee98ffb65d)" style="fill: none; stroke: #1f77b4; stroke-width: 1.5"/>
    <path d="M 263.705568 106.908062 
L 263.705568 102.626219 
" clip-path="url(#pee98ffb65d)" style="fill: none; stroke: #1f77b4; stroke-width: 1.5"/>
    <path d="M 264.720114 110.99933 
L 264.720114 106.707334 
" clip-path="url(#pee98ffb65d)" style="fill: none; stroke: #1f77b4; stroke-width: 1.5"/>
    <path d="M 265.734659 123.998547 
L 265.734659 119.814662 
" clip-path="url(#pee98ffb65d)" style="fill: none; stroke: #1f77b4; stroke-width: 1.5"/>
    <path d="M 266.749205 102.693261 
L 266.749205 98.116431 
" clip-path="url(#pee98ffb65d)" style="fill: none; stroke: #1f77b4; stroke-width: 1.5"/>
    <path d="M 267.76375 117.710787 
L 267.76375 112.99547 
" clip-path="url(#pee98ffb65d)" style="fill: none; stroke: #1f77b4; stroke-width: 1.5"/>
    <path d="M 268.778295 121.948099 
L 268.778295 116.638955 
" clip-path="url(#pee98ffb65d)" style="fill: none; stroke: #1f77b4; stroke-width: 1.5"/>
    <path d="M 269.792841 123.675234 
L 269.792841 117.629658 
" clip-path="url(#pee98ffb65d)" style="fill: none; stroke: #1f77b4; stroke-width: 1.5"/>
    <path d="M 270.807386 152.938894 
L 270.807386 146.586752 
" clip-path="url(#pee98ffb65d)" style="fill: none; stroke: #1f77b4; stroke-width: 1.5"/>
    <path d="M 271.821932 129.529363 
L 271.821932 122.601367 
" clip-path="url(#pee98ffb65d)" style="fill: none; stroke: #1f77b4; stroke-width: 1.5"/>
    <path d="M 272.836477 129.969352 
L 272.836477 124.856866 
" clip-path="url(#pee98ffb65d)" style="fill: none; stroke: #1f77b4; stroke-width: 1.5"/>
    <path d="M 273.851023 121.832058 
L 273.851023 117.197564 
" clip-path="url(#pee98ffb65d)" style="fill: none; stroke: #1f77b4; stroke-width: 1.5"/>
    <path d="M 274.865568 123.151292 
L 274.865568 118.936611 
" clip-path="url(#pee98ffb65d)" style="fill: none; stroke: #1f77b4; stroke-width: 1.5"/>
    <path d="M 275.880114 131.151934 
L 275.880114 127.225989 
" clip-path="url(#pee98ffb65d)" style="fill: none; stroke: #1f77b4; stroke-width: 1.5"/>
    <path d="M 276.894659 120.242948 
L 276.894659 116.252382 
" clip-path="url(#pee98ffb65d)" style="fill: none; stroke: #1f77b4; stroke-width: 1.5"/>
    <path d="M 277.909205 114.782809 
L 277.909205 110.681355 
" clip-path="url(#pee98ffb65d)" style="fill: none; stroke: #1f77b4; stroke-width: 1.5"/>
    <path d="M 278.92375 126.513537 
L 278.92375 122.663873 
" clip-path="url(#pee98ffb65d)" style="fill: none; stroke: #1f77b4; stroke-width: 1.5"/>
    <path d="M 279.938295 118.750486 
L 279.938295 114.717716 
" clip-path="url(#pee98ffb65d)" style="fill: none; stroke: #1f77b4; stroke-width: 1.5"/>
    <path d="M 280.952841 125.877644 
L 280.952841 121.882466 
" clip-path="url(#pee98ffb65d)" style="fill: none; stroke: #1f77b4; stroke-width: 1.5"/>
    <path d="M 281.967386 139.41092 
L 281.967386 135.69495 
" clip-path="url(#pee98ffb65d)" style="fill: none; stroke: #1f77b4; stroke-width: 1.5"/>
    <path d="M 282.981932 128.193213 
L 282.981932 124.261404 
" clip-path="url(#pee98ffb65d)" style="fill: none; stroke: #1f77b4; stroke-width: 1.5"/>
    <path d="M 283.996477 120.687664 
L 283.996477 116.673185 
" clip-path="url(#pee98ffb65d)" style="fill: none; stroke: #1f77b4; stroke-width: 1.5"/>
    <path d="M 285.011023 117.861864 
L 285.011023 113.70796 
" clip-path="url(#pee98ffb65d)" style="fill: none; stroke: #1f77b4; stroke-width: 1.5"/>
    <path d="M 286.025568 107.287848 
L 286.025568 103.012764 
" clip-path="url(#pee98ffb65d)" style="fill: none; stroke: #1f77b4; stroke-width: 1.5"/>
    <path d="M 287.040114 124.851861 
L 287.040114 120.710757 
" clip-path="url(#pee98ffb65d)" style="fill: none; stroke: #1f77b4; stroke-width: 1.5"/>
    <path d="M 288.054659 129.180819 
L 288.054659 125.204276 
" clip-path="url(#pee98ffb65d)" style="fill: none; stroke: #1f77b4; stroke-width: 1.5"/>
    <path d="M 289.069205 120.635496 
L 289.069205 116.518667 
" clip-path="url(#pee98ffb65d)" style="fill: none; stroke: #1f77b4; stroke-width: 1.5"/>
    <path d="M 290.08375 133.029978 
L 290.08375 129.059544 
" clip-path="url(#pee98ffb65d)" style="fill: none; stroke: #1f77b4; stroke-width: 1.5"/>
    <path d="M 291.098295 124.303021 
L 291.098295 120.132613 
" clip-path="url(#pee98ffb65d)" style="fill: none; stroke: #1f77b4; stroke-width: 1.5"/>
    <path d="M 292.112841 114.81971 
L 292.112841 110.409855 
" clip-path="url(#pee98ffb65d)" style="fill: none; stroke: #1f77b4; stroke-width: 1.5"/>
    <path d="M 293.127386 131.023537 
L 293.127386 126.778254 
" clip-path="url(#pee98ffb65d)" style="fill: none; stroke: #1f77b4; stroke-width: 1.5"/>
    <path d="M 294.141932 133.823721 
L 294.141932 129.734531 
" clip-path="url(#pee98ffb65d)" style="fill: none; stroke: #1f77b4; stroke-width: 1.5"/>
    <path d="M 295.156477 135.67593 
L 295.156477 131.512001 
" clip-path="url(#pee98ffb65d)" style="fill: none; stroke: #1f77b4; stroke-width: 1.5"/>
    <path d="M 296.171023 125.568126 
L 296.171023 121.247734 
" clip-path="url(#pee98ffb65d)" style="fill: none; stroke: #1f77b4; stroke-width: 1.5"/>
    <path d="M 297.185568 134.295127 
L 297.185568 130.13546 
" clip-path="url(#pee98ffb65d)" style="fill: none; stroke: #1f77b4; stroke-width: 1.5"/>
    <path d="M 298.200114 129.52176 
L 298.200114 125.26893 
" clip-path="url(#pee98ffb65d)" style="fill: none; stroke: #1f77b4; stroke-width: 1.5"/>
    <path d="M 299.214659 147.555987 
L 299.214659 143.583669 
" clip-path="url(#pee98ffb65d)" style="fill: none; stroke: #1f77b4; stroke-width: 1.5"/>
    <path d="M 300.229205 151.100308 
L 300.229205 147.165477 
" clip-path="url(#pee98ffb65d)" style="fill: none; stroke: #1f77b4; stroke-width: 1.5"/>
    <path d="M 301.24375 126.561418 
L 301.24375 122.149667 
" clip-path="url(#pee98ffb65d)" style="fill: none; stroke: #1f77b4; stroke-width: 1.5"/>
    <path d="M 302.258295 140.68797 
L 302.258295 136.50185 
" clip-path="url(#pee98ffb65d)" style="fill: none; stroke: #1f77b4; stroke-width: 1.5"/>
    <path d="M 303.272841 138.359843 
L 303.272841 134.157385 
" clip-path="url(#pee98ffb65d)" style="fill: none; stroke: #1f77b4; stroke-width: 1.5"/>
    <path d="M 304.287386 157.201495 
L 304.287386 153.214019 
" clip-path="url(#pee98ffb65d)" style="fill: none; stroke: #1f77b4; stroke-width: 1.5"/>
    <path d="M 305.301932 134.833183 
L 305.301932 130.322625 
" clip-path="url(#pee98ffb65d)" style="fill: none; stroke: #1f77b4; stroke-width: 1.5"/>
    <path d="M 306.316477 136.419034 
L 306.316477 131.878054 
" clip-path="url(#pee98ffb65d)" style="fill: none; stroke: #1f77b4; stroke-width: 1.5"/>
    <path d="M 307.331023 138.639587 
L 307.331023 134.100431 
" clip-path="url(#pee98ffb65d)" style="fill: none; stroke: #1f77b4; stroke-width: 1.5"/>
    <path d="M 308.345568 147.201737 
L 308.345568 142.810152 
" clip-path="url(#pee98ffb65d)" style="fill: none; stroke: #1f77b4; stroke-width: 1.5"/>
    <path d="M 309.360114 151.757091 
L 309.360114 147.311479 
" clip-path="url(#pee98ffb65d)" style="fill: none; stroke: #1f77b4; stroke-width: 1.5"/>
    <path d="M 310.374659 149.239202 
L 310.374659 144.716821 
" clip-path="url(#pee98ffb65d)" style="fill: none; stroke: #1f77b4; stroke-width: 1.5"/>
    <path d="M 311.389205 144.712769 
L 311.389205 140.070896 
" clip-path="url(#pee98ffb65d)" style="fill: none; stroke: #1f77b4; stroke-width: 1.5"/>
    <path d="M 312.40375 142.537569 
L 312.40375 137.733933 
" clip-path="url(#pee98ffb65d)" style="fill: none; stroke: #1f77b4; stroke-width: 1.5"/>
    <path d="M 313.418295 137.429524 
L 313.418295 132.114709 
" clip-path="url(#pee98ffb65d)" style="fill: none; stroke: #1f77b4; stroke-width: 1.5"/>
    <path d="M 314.432841 146.707688 
L 314.432841 140.993049 
" clip-path="url(#pee98ffb65d)" style="fill: none; stroke: #1f77b4; stroke-width: 1.5"/>
    <path d="M 315.447386 153.250997 
L 315.447386 146.870342 
" clip-path="url(#pee98ffb65d)" style="fill: none; stroke: #1f77b4; stroke-width: 1.5"/>
    <path d="M 316.461932 174.559162 
L 316.461932 167.565734 
" clip-path="url(#pee98ffb65d)" style="fill: none; stroke: #1f77b4; stroke-width: 1.5"/>
    <path d="M 317.476477 139.698947 
L 317.476477 126.181686 
" clip-path="url(#pee98ffb65d)" style="fill: none; stroke: #1f77b4; stroke-width: 1.5"/>
    <path clip-path="url(#pee98ffb65d)" style="fill: none; stroke: #1f77b4; stroke-width: 1.5"/>
    <path d="M 319.505568 143.773352 
L 319.505568 134.542183 
" clip-path="url(#pee98ffb65d)" style="fill: none; stroke: #1f77b4; stroke-width: 1.5"/>
    <path d="M 320.520114 139.218944 
L 320.520114 132.110984 
" clip-path="url(#pee98ffb65d)" style="fill: none; stroke: #1f77b4; stroke-width: 1.5"/>
    <path d="M 321.534659 167.366654 
L 321.534659 162.024095 
" clip-path="url(#pee98ffb65d)" style="fill: none; stroke: #1f77b4; stroke-width: 1.5"/>
    <path d="M 322.549205 148.481864 
L 322.549205 143.055618 
" clip-path="url(#pee98ffb65d)" style="fill: none; stroke: #1f77b4; stroke-width: 1.5"/>
    <path d="M 323.56375 148.279623 
L 323.56375 143.138611 
" clip-path="url(#pee98ffb65d)" style="fill: none; stroke: #1f77b4; stroke-width: 1.5"/>
    <path d="M 324.578295 154.996254 
L 324.578295 149.999496 
" clip-path="url(#pee98ffb65d)" style="fill: none; stroke: #1f77b4; stroke-width: 1.5"/>
    <path d="M 325.592841 147.358397 
L 325.592841 142.2731 
" clip-path="url(#pee98ffb65d)" style="fill: none; stroke: #1f77b4; stroke-width: 1.5"/>
    <path d="M 326.607386 143.105115 
L 326.607386 137.822854 
" clip-path="url(#pee98ffb65d)" style="fill: none; stroke: #1f77b4; stroke-width: 1.5"/>
    <path d="M 327.621932 157.877971 
L 327.621932 153.078722 
" clip-path="url(#pee98ffb65d)" style="fill: none; stroke: #1f77b4; stroke-width: 1.5"/>
    <path d="M 328.636477 145.28854 
L 328.636477 140.190587 
" clip-path="url(#pee98ffb65d)" style="fill: none; stroke: #1f77b4; stroke-width: 1.5"/>
    <path d="M 329.651023 143.372717 
L 329.651023 138.205216 
" clip-path="url(#pee98ffb65d)" style="fill: none; stroke: #1f77b4; stroke-width: 1.5"/>
    <path d="M 330.665568 154.683634 
L 330.665568 149.890002 
" clip-path="url(#pee98ffb65d)" style="fill: none; stroke: #1f77b4; stroke-width: 1.5"/>
    <path d="M 331.680114 157.744726 
L 331.680114 152.911395 
" clip-path="url(#pee98ffb65d)" style="fill: none; stroke: #1f77b4; stroke-width: 1.5"/>
    <path d="M 332.694659 153.368744 
L 332.694659 148.446092 
" clip-path="url(#pee98ffb65d)" style="fill: none; stroke: #1f77b4; stroke-width: 1.5"/>
    <path d="M 333.709205 151.550129 
L 333.709205 146.683098 
" clip-path="url(#pee98ffb65d)" style="fill: none; stroke: #1f77b4; stroke-width: 1.5"/>
    <path d="M 334.72375 169.403756 
L 334.72375 164.8536 
" clip-path="url(#pee98ffb65d)" style="fill: none; stroke: #1f77b4; stroke-width: 1.5"/>
    <path d="M 335.738295 159.415051 
L 335.738295 154.617164 
" clip-path="url(#pee98ffb65d)" style="fill: none; stroke: #1f77b4; stroke-width: 1.5"/>
    <path d="M 336.752841 167.958767 
L 336.752841 163.436383 
" clip-path="url(#pee98ffb65d)" style="fill: none; stroke: #1f77b4; stroke-width: 1.5"/>
    <path d="M 337.767386 172.690663 
L 337.767386 168.237059 
" clip-path="url(#pee98ffb65d)" style="fill: none; stroke: #1f77b4; stroke-width: 1.5"/>
    <path d="M 338.781932 164.405026 
L 338.781932 159.666594 
" clip-path="url(#pee98ffb65d)" style="fill: none; stroke: #1f77b4; stroke-width: 1.5"/>
    <path d="M 339.796477 154.348947 
L 339.796477 149.341164 
" clip-path="url(#pee98ffb65d)" style="fill: none; stroke: #1f77b4; stroke-width: 1.5"/>
    <path d="M 340.811023 159.978733 
L 340.811023 155.17624 
" clip-path="url(#pee98ffb65d)" style="fill: none; stroke: #1f77b4; stroke-width: 1.5"/>
    <path d="M 341.825568 173.873928 
L 341.825568 169.286072 
" clip-path="url(#pee98ffb65d)" style="fill: none; stroke: #1f77b4; stroke-width: 1.5"/>
    <path d="M 342.840114 159.534805 
L 342.840114 154.553928 
" clip-path="url(#pee98ffb65d)" style="fill: none; stroke: #1f77b4; stroke-width: 1.5"/>
    <path d="M 343.854659 155.60558 
L 343.854659 150.658283 
" clip-path="url(#pee98ffb65d)" style="fill: none; stroke: #1f77b4; stroke-width: 1.5"/>
    <path d="M 344.869205 172.570288 
L 344.869205 167.96297 
" clip-path="url(#pee98ffb65d)" style="fill: none; stroke: #1f77b4; stroke-width: 1.5"/>
    <path d="M 345.88375 163.051675 
L 345.88375 158.123045 
" clip-path="url(#pee98ffb65d)" style="fill: none; stroke: #1f77b4; stroke-width: 1.5"/>
    <path d="M 346.898295 160.260073 
L 346.898295 155.184438 
" clip-path="url(#pee98ffb65d)" style="fill: none; stroke: #1f77b4; stroke-width: 1.5"/>
    <path d="M 347.912841 173.976001 
L 347.912841 169.208038 
" clip-path="url(#pee98ffb65d)" style="fill: none; stroke: #1f77b4; stroke-width: 1.5"/>
    <path d="M 348.927386 168.882352 
L 348.927386 163.96557 
" clip-path="url(#pee98ffb65d)" style="fill: none; stroke: #1f77b4; stroke-width: 1.5"/>
    <path d="M 349.941932 164.381961 
L 349.941932 159.369316 
" clip-path="url(#pee98ffb65d)" style="fill: none; stroke: #1f77b4; stroke-width: 1.5"/>
    <path d="M 350.956477 167.880319 
L 350.956477 162.841827 
" clip-path="url(#pee98ffb65d)" style="fill: none; stroke: #1f77b4; stroke-width: 1.5"/>
    <path d="M 351.971023 159.39022 
L 351.971023 154.180582 
" clip-path="url(#pee98ffb65d)" style="fill: none; stroke: #1f77b4; stroke-width: 1.5"/>
    <path d="M 352.985568 160.564617 
L 352.985568 155.342683 
" clip-path="url(#pee98ffb65d)" style="fill: none; stroke: #1f77b4; stroke-width: 1.5"/>
    <path d="M 354.000114 176.610222 
L 354.000114 171.703969 
" clip-path="url(#pee98ffb65d)" style="fill: none; stroke: #1f77b4; stroke-width: 1.5"/>
    <path d="M 355.014659 164.917508 
L 355.014659 159.56539 
" clip-path="url(#pee98ffb65d)" style="fill: none; stroke: #1f77b4; stroke-width: 1.5"/>
    <path d="M 356.029205 172.704088 
L 356.029205 167.515911 
" clip-path="url(#pee98ffb65d)" style="fill: none; stroke: #1f77b4; stroke-width: 1.5"/>
    <path d="M 357.04375 163.627066 
L 357.04375 157.966349 
" clip-path="url(#pee98ffb65d)" style="fill: none; stroke: #1f77b4; stroke-width: 1.5"/>
    <path d="M 358.058295 174.077563 
L 358.058295 168.579191 
" clip-path="url(#pee98ffb65d)" style="fill: none; stroke: #1f77b4; stroke-width: 1.5"/>
    <path d="M 359.072841 172.090226 
L 359.072841 166.514502 
" clip-path="url(#pee98ffb65d)" style="fill: none; stroke: #1f77b4; stroke-width: 1.5"/>
    <path d="M 360.087386 177.817782 
L 360.087386 172.240439 
" clip-path="url(#pee98ffb65d)" style="fill: none; stroke: #1f77b4; stroke-width: 1.5"/>
    <path d="M 361.101932 169.551821 
L 361.101932 163.501448 
" clip-path="url(#pee98ffb65d)" style="fill: none; stroke: #1f77b4; stroke-width: 1.5"/>
    <path d="M 362.116477 181.243009 
L 362.116477 175.070139 
" clip-path="url(#pee98ffb65d)" style="fill: none; stroke: #1f77b4; stroke-width: 1.5"/>
    <path d="M 363.131023 174.719187 
L 363.131023 167.62132 
" clip-path="url(#pee98ffb65d)" style="fill: none; stroke: #1f77b4; stroke-width: 1.5"/>
    <path d="M 364.145568 189.965868 
L 364.145568 182.305628 
" clip-path="url(#pee98ffb65d)" style="fill: none; stroke: #1f77b4; stroke-width: 1.5"/>
    <path d="M 365.160114 181.085118 
L 365.160114 171.684222 
" clip-path="url(#pee98ffb65d)" style="fill: none; stroke: #1f77b4; stroke-width: 1.5"/>
    <path d="M 366.174659 198.9275 
L 366.174659 184.651941 
" clip-path="url(#pee98ffb65d)" style="fill: none; stroke: #1f77b4; stroke-width: 1.5"/>
    <path clip-path="url(#pee98ffb65d)" style="fill: none; stroke: #1f77b4; stroke-width: 1.5"/>
    <path clip-path="url(#pee98ffb65d)" style="fill: none; stroke: #1f77b4; stroke-width: 1.5"/>
    <path clip-path="url(#pee98ffb65d)" style="fill: none; stroke: #1f77b4; stroke-width: 1.5"/>
   </g>
  </g>
 </g>
 <defs>
  <clipPath id="pee98ffb65d">
   <rect x="50.14375" y="7.2" width="334.8" height="221.76"/>
  </clipPath>
 </defs>
</svg>
