<?xml version="1.0" encoding="UTF-8" standalone="no"?>
<!DOCTYPE svg PUBLIC "-//W3C//DTD SVG 1.1//EN"
 "http://www.w3.org/Graphics/SVG/1.1/DTD/svg11.dtd">
<!-- Generated by graphviz version 2.43.0 (0)
 -->
<!-- Title: %3 Pages: 1 -->
<svg width="881pt" height="514pt"
 viewBox="0.00 0.00 880.50 514.00" xmlns="http://www.w3.org/2000/svg" xmlns:xlink="http://www.w3.org/1999/xlink">
<g id="graph0" class="graph" transform="scale(1 1) rotate(0) translate(4 510)">
<title>%3</title>
<polygon fill="white" stroke="transparent" points="-4,4 -4,-510 876.5,-510 876.5,4 -4,4"/>
<!-- SourceWavelengthRange -->
<g id="node1" class="node">
<title>SourceWavelengthRange</title>
<polygon fill="none" stroke="black" points="377.5,-506 182.5,-506 182.5,-483 377.5,-483 377.5,-506"/>
<text text-anchor="middle" x="280" y="-490.8" font-family="Times,serif" font-size="14.00">SourceWavelengthRange</text>
</g>
<!-- ChopperCascadeFrames -->
<g id="node2" class="node">
<title>ChopperCascadeFrames</title>
<polygon fill="none" stroke="black" points="534.5,-447 343.5,-447 343.5,-414 534.5,-414 534.5,-447"/>
<text text-anchor="start" x="351.5" y="-432.8" font-family="Times,serif" font-size="14.00">ChopperCascadeFrames</text>
<text text-anchor="start" x="358.5" y="-421.2" font-family="Times,serif" font-size="11.00">via:</text>
<text text-anchor="start" x="379.5" y="-421.2" font-family="Times,serif" font-style="italic" font-size="11.00">chopper_cascade_frames</text>
</g>
<!-- SourceWavelengthRange&#45;&gt;ChopperCascadeFrames -->
<g id="edge1" class="edge">
<title>SourceWavelengthRange&#45;&gt;ChopperCascadeFrames</title>
<path fill="none" stroke="black" d="M306.97,-482.98C329.56,-474.17 362.39,-461.37 389.66,-450.74"/>
<polygon fill="black" stroke="black" points="391,-453.97 399.05,-447.08 388.46,-447.45 391,-453.97"/>
</g>
<!-- FrameAtDetector -->
<g id="node7" class="node">
<title>FrameAtDetector</title>
<polygon fill="none" stroke="black" points="490.5,-378 349.5,-378 349.5,-345 490.5,-345 490.5,-378"/>
<text text-anchor="start" x="357.5" y="-363.8" font-family="Times,serif" font-size="14.00">FrameAtDetector</text>
<text text-anchor="start" x="358" y="-352.2" font-family="Times,serif" font-size="11.00">via:</text>
<text text-anchor="start" x="379" y="-352.2" font-family="Times,serif" font-style="italic" font-size="11.00">frame_at_detector</text>
</g>
<!-- ChopperCascadeFrames&#45;&gt;FrameAtDetector -->
<g id="edge6" class="edge">
<title>ChopperCascadeFrames&#45;&gt;FrameAtDetector</title>
<path fill="none" stroke="black" d="M434.59,-413.96C432.42,-406.29 429.74,-396.84 427.27,-388.14"/>
<polygon fill="black" stroke="black" points="430.61,-387.09 424.51,-378.42 423.88,-389 430.61,-387.09"/>
</g>
<!-- SourceTimeRange -->
<g id="node3" class="node">
<title>SourceTimeRange</title>
<polygon fill="none" stroke="black" points="531,-506 385,-506 385,-483 531,-483 531,-506"/>
<text text-anchor="middle" x="458" y="-490.8" font-family="Times,serif" font-size="14.00">SourceTimeRange</text>
</g>
<!-- SourceTimeRange&#45;&gt;ChopperCascadeFrames -->
<g id="edge2" class="edge">
<title>SourceTimeRange&#45;&gt;ChopperCascadeFrames</title>
<path fill="none" stroke="black" d="M454.78,-482.98C452.59,-475.85 449.61,-466.11 446.82,-457.01"/>
<polygon fill="black" stroke="black" points="450.09,-455.73 443.81,-447.2 443.39,-457.78 450.09,-455.73"/>
</g>
<!-- Choppers -->
<g id="node4" class="node">
<title>Choppers</title>
<polygon fill="none" stroke="black" points="175.5,-506 90.5,-506 90.5,-483 175.5,-483 175.5,-506"/>
<text text-anchor="middle" x="133" y="-490.8" font-family="Times,serif" font-size="14.00">Choppers</text>
</g>
<!-- Choppers&#45;&gt;ChopperCascadeFrames -->
<g id="edge3" class="edge">
<title>Choppers&#45;&gt;ChopperCascadeFrames</title>
<path fill="none" stroke="black" d="M175.52,-483.95C177.03,-483.63 178.53,-483.31 180,-483 235.81,-471.22 298.56,-458.72 348.31,-448.99"/>
<polygon fill="black" stroke="black" points="349.26,-452.37 358.4,-447.02 347.92,-445.5 349.26,-452.37"/>
</g>
<!-- PulseStride -->
<g id="node5" class="node">
<title>PulseStride</title>
<polygon fill="none" stroke="black" points="638,-506 538,-506 538,-483 638,-483 638,-506"/>
<text text-anchor="middle" x="588" y="-490.8" font-family="Times,serif" font-size="14.00">PulseStride</text>
</g>
<!-- PulseStride&#45;&gt;ChopperCascadeFrames -->
<g id="edge4" class="edge">
<title>PulseStride&#45;&gt;ChopperCascadeFrames</title>
<path fill="none" stroke="black" d="M562.72,-482.98C541.74,-474.25 511.33,-461.6 485.91,-451.02"/>
<polygon fill="black" stroke="black" points="487.02,-447.69 476.44,-447.08 484.33,-454.15 487.02,-447.69"/>
</g>
<!-- FramePeriod -->
<g id="node9" class="node">
<title>FramePeriod</title>
<polygon fill="none" stroke="black" points="663,-447 551,-447 551,-414 663,-414 663,-447"/>
<text text-anchor="start" x="560.5" y="-432.8" font-family="Times,serif" font-size="14.00">FramePeriod</text>
<text text-anchor="start" x="559" y="-421.2" font-family="Times,serif" font-size="11.00">via:</text>
<text text-anchor="start" x="580" y="-421.2" font-family="Times,serif" font-style="italic" font-size="11.00">frame_period</text>
</g>
<!-- PulseStride&#45;&gt;FramePeriod -->
<g id="edge11" class="edge">
<title>PulseStride&#45;&gt;FramePeriod</title>
<path fill="none" stroke="black" d="M591.22,-482.98C593.41,-475.85 596.39,-466.11 599.18,-457.01"/>
<polygon fill="black" stroke="black" points="602.61,-457.78 602.19,-447.2 595.91,-455.73 602.61,-457.78"/>
</g>
<!-- PulsePeriod -->
<g id="node6" class="node">
<title>PulsePeriod</title>
<polygon fill="none" stroke="black" points="746.5,-506 645.5,-506 645.5,-483 746.5,-483 746.5,-506"/>
<text text-anchor="middle" x="696" y="-490.8" font-family="Times,serif" font-size="14.00">PulsePeriod</text>
</g>
<!-- PulsePeriod&#45;&gt;ChopperCascadeFrames -->
<g id="edge5" class="edge">
<title>PulsePeriod&#45;&gt;ChopperCascadeFrames</title>
<path fill="none" stroke="black" d="M652.4,-482.98C614.38,-473.81 558.4,-460.3 513.32,-449.43"/>
<polygon fill="black" stroke="black" points="514.12,-446.02 503.58,-447.08 512.48,-452.83 514.12,-446.02"/>
</g>
<!-- PulsePeriod&#45;&gt;FramePeriod -->
<g id="edge10" class="edge">
<title>PulsePeriod&#45;&gt;FramePeriod</title>
<path fill="none" stroke="black" d="M680.9,-482.98C669.13,-474.78 652.38,-463.12 637.81,-452.96"/>
<polygon fill="black" stroke="black" points="639.74,-450.04 629.53,-447.2 635.74,-455.79 639.74,-450.04"/>
</g>
<!-- UnwrappedTimeOfArrival -->
<g id="node18" class="node">
<title>UnwrappedTimeOfArrival</title>
<polygon fill="none" stroke="black" points="823,-309 623,-309 623,-276 823,-276 823,-309"/>
<text text-anchor="start" x="631" y="-294.8" font-family="Times,serif" font-size="14.00">UnwrappedTimeOfArrival</text>
<text text-anchor="start" x="636.5" y="-283.2" font-family="Times,serif" font-size="11.00">via:</text>
<text text-anchor="start" x="657.5" y="-283.2" font-family="Times,serif" font-style="italic" font-size="11.00">unwrapped_time_of_arrival</text>
</g>
<!-- PulsePeriod&#45;&gt;UnwrappedTimeOfArrival -->
<g id="edge23" class="edge">
<title>PulsePeriod&#45;&gt;UnwrappedTimeOfArrival</title>
<path fill="none" stroke="black" d="M705.95,-482.78C723.04,-463.56 757.35,-421.2 770,-378 774.12,-363.92 775.3,-358.67 770,-345 765.85,-334.29 758.31,-324.43 750.47,-316.28"/>
<polygon fill="black" stroke="black" points="752.89,-313.75 743.27,-309.29 748.01,-318.77 752.89,-313.75"/>
</g>
<!-- FrameAtDetectorStartTime -->
<g id="node10" class="node">
<title>FrameAtDetectorStartTime</title>
<polygon fill="none" stroke="black" points="526.5,-309 313.5,-309 313.5,-276 526.5,-276 526.5,-309"/>
<text text-anchor="start" x="321.5" y="-294.8" font-family="Times,serif" font-size="14.00">FrameAtDetectorStartTime</text>
<text text-anchor="start" x="326.5" y="-283.2" font-family="Times,serif" font-size="11.00">via:</text>
<text text-anchor="start" x="347.5" y="-283.2" font-family="Times,serif" font-style="italic" font-size="11.00">frame_at_detector_start_time</text>
</g>
<!-- FrameAtDetector&#45;&gt;FrameAtDetectorStartTime -->
<g id="edge9" class="edge">
<title>FrameAtDetector&#45;&gt;FrameAtDetectorStartTime</title>
<path fill="none" stroke="black" d="M420,-344.96C420,-337.38 420,-328.05 420,-319.42"/>
<polygon fill="black" stroke="black" points="423.5,-319.42 420,-309.42 416.5,-319.42 423.5,-319.42"/>
</g>
<!-- TimeOfArrivalToTimeOfFlight -->
<g id="node15" class="node">
<title>TimeOfArrivalToTimeOfFlight</title>
<polygon fill="none" stroke="black" points="270,-240 0,-240 0,-207 270,-207 270,-240"/>
<text text-anchor="start" x="29" y="-225.8" font-family="Times,serif" font-size="14.00">TimeOfArrivalToTimeOfFlight</text>
<text text-anchor="start" x="8" y="-214.2" font-family="Times,serif" font-size="11.00">via:</text>
<text text-anchor="start" x="29" y="-214.2" font-family="Times,serif" font-style="italic" font-size="11.00">relation_between_time_of_arrival_and_tof</text>
</g>
<!-- FrameAtDetector&#45;&gt;TimeOfArrivalToTimeOfFlight -->
<g id="edge14" class="edge">
<title>FrameAtDetector&#45;&gt;TimeOfArrivalToTimeOfFlight</title>
<path fill="none" stroke="black" d="M386.25,-344.83C364.46,-334.68 335.52,-321.13 310,-309 263.99,-287.12 211.37,-261.65 175.95,-244.44"/>
<polygon fill="black" stroke="black" points="177.4,-241.26 166.88,-240.03 174.34,-247.55 177.4,-241.26"/>
</g>
<!-- Ltotal -->
<g id="node8" class="node">
<title>Ltotal</title>
<polygon fill="none" stroke="black" points="336.5,-442 277.5,-442 277.5,-419 336.5,-419 336.5,-442"/>
<text text-anchor="middle" x="307" y="-426.8" font-family="Times,serif" font-size="14.00">Ltotal</text>
</g>
<!-- Ltotal&#45;&gt;FrameAtDetector -->
<g id="edge7" class="edge">
<title>Ltotal&#45;&gt;FrameAtDetector</title>
<path fill="none" stroke="black" d="M324.91,-418.88C340.99,-409.35 365.06,-395.07 384.96,-383.27"/>
<polygon fill="black" stroke="black" points="386.95,-386.16 393.77,-378.05 383.38,-380.14 386.95,-386.16"/>
</g>
<!-- Ltotal&#45;&gt;TimeOfArrivalToTimeOfFlight -->
<g id="edge16" class="edge">
<title>Ltotal&#45;&gt;TimeOfArrivalToTimeOfFlight</title>
<path fill="none" stroke="black" d="M297.99,-418.77C271.25,-386.89 191.84,-292.25 154.64,-247.91"/>
<polygon fill="black" stroke="black" points="157.32,-245.65 148.21,-240.24 151.96,-250.15 157.32,-245.65"/>
</g>
<!-- FramePeriod&#45;&gt;FrameAtDetector -->
<g id="edge8" class="edge">
<title>FramePeriod&#45;&gt;FrameAtDetector</title>
<path fill="none" stroke="black" d="M563.63,-413.96C536.58,-404.27 501.59,-391.73 472.92,-381.46"/>
<polygon fill="black" stroke="black" points="474.05,-378.15 463.46,-378.07 471.69,-384.74 474.05,-378.15"/>
</g>
<!-- TimeOfArrivalMinusStartTimeModuloPeriod -->
<g id="node14" class="node">
<title>TimeOfArrivalMinusStartTimeModuloPeriod</title>
<polygon fill="none" stroke="black" points="695,-171 363,-171 363,-138 695,-138 695,-171"/>
<text text-anchor="start" x="371" y="-156.8" font-family="Times,serif" font-size="14.00">TimeOfArrivalMinusStartTimeModuloPeriod</text>
<text text-anchor="start" x="381.5" y="-145.2" font-family="Times,serif" font-size="11.00">via:</text>
<text text-anchor="start" x="402.5" y="-145.2" font-family="Times,serif" font-style="italic" font-size="11.00">time_of_arrival_minus_start_time_modulo_period</text>
</g>
<!-- FramePeriod&#45;&gt;TimeOfArrivalMinusStartTimeModuloPeriod -->
<g id="edge13" class="edge">
<title>FramePeriod&#45;&gt;TimeOfArrivalMinusStartTimeModuloPeriod</title>
<path fill="none" stroke="black" d="M609.05,-413.98C614.64,-369.52 628.43,-242.61 609,-207 601.93,-194.04 590.05,-183.85 577.57,-176.08"/>
<polygon fill="black" stroke="black" points="579.3,-173.04 568.89,-171.08 575.81,-179.11 579.3,-173.04"/>
</g>
<!-- UnwrappedTimeOfArrivalMinusStartTime -->
<g id="node13" class="node">
<title>UnwrappedTimeOfArrivalMinusStartTime</title>
<polygon fill="none" stroke="black" points="606.5,-240 277.5,-240 277.5,-207 606.5,-207 606.5,-240"/>
<text text-anchor="start" x="291.5" y="-225.8" font-family="Times,serif" font-size="14.00">UnwrappedTimeOfArrivalMinusStartTime</text>
<text text-anchor="start" x="285.5" y="-214.2" font-family="Times,serif" font-size="11.00">via:</text>
<text text-anchor="start" x="306.5" y="-214.2" font-family="Times,serif" font-style="italic" font-size="11.00">unwrapped_time_of_arrival_minus_frame_start_time</text>
</g>
<!-- FrameAtDetectorStartTime&#45;&gt;UnwrappedTimeOfArrivalMinusStartTime -->
<g id="edge25" class="edge">
<title>FrameAtDetectorStartTime&#45;&gt;UnwrappedTimeOfArrivalMinusStartTime</title>
<path fill="none" stroke="black" d="M425.1,-275.96C427.62,-268.29 430.72,-258.84 433.58,-250.14"/>
<polygon fill="black" stroke="black" points="436.98,-251.01 436.77,-240.42 430.33,-248.83 436.98,-251.01"/>
</g>
<!-- FrameAtDetectorStartTime&#45;&gt;TimeOfArrivalToTimeOfFlight -->
<g id="edge15" class="edge">
<title>FrameAtDetectorStartTime&#45;&gt;TimeOfArrivalToTimeOfFlight</title>
<path fill="none" stroke="black" d="M353.9,-275.96C311.25,-265.93 255.63,-252.86 211.13,-242.4"/>
<polygon fill="black" stroke="black" points="211.77,-238.95 201.24,-240.07 210.17,-245.77 211.77,-238.95"/>
</g>
<!-- PulseStrideOffset -->
<g id="node11" class="node">
<title>PulseStrideOffset</title>
<polygon fill="none" stroke="black" points="766.5,-373 623.5,-373 623.5,-350 766.5,-350 766.5,-373"/>
<text text-anchor="middle" x="695" y="-357.8" font-family="Times,serif" font-size="14.00">PulseStrideOffset</text>
</g>
<!-- PulseStrideOffset&#45;&gt;UnwrappedTimeOfArrival -->
<g id="edge22" class="edge">
<title>PulseStrideOffset&#45;&gt;UnwrappedTimeOfArrival</title>
<path fill="none" stroke="black" d="M699.5,-349.74C703,-341.35 708.01,-329.37 712.5,-318.62"/>
<polygon fill="black" stroke="black" points="715.8,-319.81 716.42,-309.23 709.34,-317.11 715.8,-319.81"/>
</g>
<!-- RawData -->
<g id="node12" class="node">
<title>RawData</title>
<polygon fill="none" stroke="black" points="872.5,-373 791.5,-373 791.5,-350 872.5,-350 872.5,-373"/>
<text text-anchor="middle" x="832" y="-357.8" font-family="Times,serif" font-size="14.00">RawData</text>
</g>
<!-- TofData -->
<g id="node17" class="node">
<title>TofData</title>
<polygon fill="none" stroke="black" points="746.5,-33 603.5,-33 603.5,0 746.5,0 746.5,-33"/>
<text text-anchor="start" x="647" y="-18.8" font-family="Times,serif" font-size="14.00">TofData</text>
<text text-anchor="start" x="611.5" y="-7.2" font-family="Times,serif" font-size="11.00">via:</text>
<text text-anchor="start" x="632.5" y="-7.2" font-family="Times,serif" font-style="italic" font-size="11.00">time_of_flight_data</text>
</g>
<!-- RawData&#45;&gt;TofData -->
<g id="edge19" class="edge">
<title>RawData&#45;&gt;TofData</title>
<path fill="none" stroke="black" d="M832.26,-349.92C832.8,-327.04 834,-271.26 834,-224.5 834,-224.5 834,-224.5 834,-153.5 834,-96.41 774.07,-58.16 727.79,-37.13"/>
<polygon fill="black" stroke="black" points="729.01,-33.84 718.45,-33.03 726.2,-40.25 729.01,-33.84"/>
</g>
<!-- RawData&#45;&gt;UnwrappedTimeOfArrival -->
<g id="edge21" class="edge">
<title>RawData&#45;&gt;UnwrappedTimeOfArrival</title>
<path fill="none" stroke="black" d="M814.49,-349.74C799.11,-340.28 776.29,-326.26 757.29,-314.58"/>
<polygon fill="black" stroke="black" points="758.95,-311.49 748.6,-309.23 755.29,-317.45 758.95,-311.49"/>
</g>
<!-- UnwrappedTimeOfArrivalMinusStartTime&#45;&gt;TimeOfArrivalMinusStartTimeModuloPeriod -->
<g id="edge12" class="edge">
<title>UnwrappedTimeOfArrivalMinusStartTime&#45;&gt;TimeOfArrivalMinusStartTimeModuloPeriod</title>
<path fill="none" stroke="black" d="M462.18,-206.96C473.63,-198.14 488.13,-186.97 500.7,-177.29"/>
<polygon fill="black" stroke="black" points="502.84,-180.06 508.63,-171.19 498.57,-174.52 502.84,-180.06"/>
</g>
<!-- TofCoord -->
<g id="node16" class="node">
<title>TofCoord</title>
<polygon fill="none" stroke="black" points="623,-102 435,-102 435,-69 623,-69 623,-102"/>
<text text-anchor="start" x="496.5" y="-87.8" font-family="Times,serif" font-size="14.00">TofCoord</text>
<text text-anchor="start" x="443" y="-76.2" font-family="Times,serif" font-size="11.00">via:</text>
<text text-anchor="start" x="464" y="-76.2" font-family="Times,serif" font-style="italic" font-size="11.00">time_of_flight_from_lookup</text>
</g>
<!-- TimeOfArrivalMinusStartTimeModuloPeriod&#45;&gt;TofCoord -->
<g id="edge17" class="edge">
<title>TimeOfArrivalMinusStartTimeModuloPeriod&#45;&gt;TofCoord</title>
<path fill="none" stroke="black" d="M529,-137.96C529,-130.38 529,-121.05 529,-112.42"/>
<polygon fill="black" stroke="black" points="532.5,-112.42 529,-102.42 525.5,-112.42 532.5,-112.42"/>
</g>
<!-- TimeOfArrivalToTimeOfFlight&#45;&gt;TofCoord -->
<g id="edge18" class="edge">
<title>TimeOfArrivalToTimeOfFlight&#45;&gt;TofCoord</title>
<path fill="none" stroke="black" d="M174.15,-206.93C218.83,-189.37 294.22,-160.35 360,-138 394.48,-126.29 433.32,-114.36 465.07,-104.94"/>
<polygon fill="black" stroke="black" points="466.08,-108.29 474.68,-102.1 464.1,-101.58 466.08,-108.29"/>
</g>
<!-- TofCoord&#45;&gt;TofData -->
<g id="edge20" class="edge">
<title>TofCoord&#45;&gt;TofData</title>
<path fill="none" stroke="black" d="M562.86,-68.96C583.43,-59.52 609.87,-47.39 631.92,-37.27"/>
<polygon fill="black" stroke="black" points="633.44,-40.42 641.07,-33.07 630.52,-34.06 633.44,-40.42"/>
</g>
<!-- UnwrappedTimeOfArrival&#45;&gt;UnwrappedTimeOfArrivalMinusStartTime -->
<g id="edge24" class="edge">
<title>UnwrappedTimeOfArrival&#45;&gt;UnwrappedTimeOfArrivalMinusStartTime</title>
<path fill="none" stroke="black" d="M657.83,-275.96C615.77,-265.93 560.94,-252.86 517.06,-242.4"/>
<polygon fill="black" stroke="black" points="517.85,-238.99 507.31,-240.07 516.22,-245.8 517.85,-238.99"/>
</g>
</g>
</svg>
