<?xml version="1.0" encoding="utf-8" standalone="no"?>
<!DOCTYPE svg PUBLIC "-//W3C//DTD SVG 1.1//EN"
  "http://www.w3.org/Graphics/SVG/1.1/DTD/svg11.dtd">
<svg xmlns:xlink="http://www.w3.org/1999/xlink" width="872.39952pt" height="296.39952pt" viewBox="0 0 872.39952 296.39952" xmlns="http://www.w3.org/2000/svg" version="1.1">
 <metadata>
  <rdf:RDF xmlns:dc="http://purl.org/dc/elements/1.1/" xmlns:cc="http://creativecommons.org/ns#" xmlns:rdf="http://www.w3.org/1999/02/22-rdf-syntax-ns#">
   <cc:Work>
    <dc:type rdf:resource="http://purl.org/dc/dcmitype/StillImage"/>
    <dc:date>2024-12-13T13:31:54.238198</dc:date>
    <dc:format>image/svg+xml</dc:format>
    <dc:creator>
     <cc:Agent>
      <dc:title>Matplotlib v3.9.4, https://matplotlib.org/</dc:title>
     </cc:Agent>
    </dc:creator>
   </cc:Work>
  </rdf:RDF>
 </metadata>
 <defs>
  <style type="text/css">*{stroke-linejoin: round; stroke-linecap: butt}</style>
 </defs>
 <g id="figure_1">
  <g id="patch_1">
   <path d="M 0 296.39952 
L 872.39952 296.39952 
L 872.39952 0 
L 0 0 
z
" style="fill: #ffffff"/>
  </g>
  <g id="axes_1">
   <g id="patch_2">
    <path d="M 59.690625 258.565145 
L 438.24226 258.565145 
L 438.24226 22.318125 
L 59.690625 22.318125 
z
" style="fill: #ffffff"/>
   </g>
   <g id="matplotlib.axis_1">
    <g id="xtick_1">
     <g id="line2d_1">
      <defs>
       <path id="m66fef7f73d" d="M 0 0 
L 0 3.5 
" style="stroke: #000000; stroke-width: 0.8"/>
      </defs>
      <g>
       <use xlink:href="#m66fef7f73d" x="76.895143" y="258.565145" style="stroke: #000000; stroke-width: 0.8"/>
      </g>
     </g>
     <g id="text_1">
      <!-- 0 -->
      <g transform="translate(73.713893 273.163582) scale(0.1 -0.1)">
       <defs>
        <path id="DejaVuSans-30" d="M 2034 4250 
Q 1547 4250 1301 3770 
Q 1056 3291 1056 2328 
Q 1056 1369 1301 889 
Q 1547 409 2034 409 
Q 2525 409 2770 889 
Q 3016 1369 3016 2328 
Q 3016 3291 2770 3770 
Q 2525 4250 2034 4250 
z
M 2034 4750 
Q 2819 4750 3233 4129 
Q 3647 3509 3647 2328 
Q 3647 1150 3233 529 
Q 2819 -91 2034 -91 
Q 1250 -91 836 529 
Q 422 1150 422 2328 
Q 422 3509 836 4129 
Q 1250 4750 2034 4750 
z
" transform="scale(0.015625)"/>
       </defs>
       <use xlink:href="#DejaVuSans-30"/>
      </g>
     </g>
    </g>
    <g id="xtick_2">
     <g id="line2d_2">
      <g>
       <use xlink:href="#m66fef7f73d" x="125.074804" y="258.565145" style="stroke: #000000; stroke-width: 0.8"/>
      </g>
     </g>
     <g id="text_2">
      <!-- 10000 -->
      <g transform="translate(109.168554 273.163582) scale(0.1 -0.1)">
       <defs>
        <path id="DejaVuSans-31" d="M 794 531 
L 1825 531 
L 1825 4091 
L 703 3866 
L 703 4441 
L 1819 4666 
L 2450 4666 
L 2450 531 
L 3481 531 
L 3481 0 
L 794 0 
L 794 531 
z
" transform="scale(0.015625)"/>
       </defs>
       <use xlink:href="#DejaVuSans-31"/>
       <use xlink:href="#DejaVuSans-30" x="63.623047"/>
       <use xlink:href="#DejaVuSans-30" x="127.246094"/>
       <use xlink:href="#DejaVuSans-30" x="190.869141"/>
       <use xlink:href="#DejaVuSans-30" x="254.492188"/>
      </g>
     </g>
    </g>
    <g id="xtick_3">
     <g id="line2d_3">
      <g>
       <use xlink:href="#m66fef7f73d" x="173.254465" y="258.565145" style="stroke: #000000; stroke-width: 0.8"/>
      </g>
     </g>
     <g id="text_3">
      <!-- 20000 -->
      <g transform="translate(157.348215 273.163582) scale(0.1 -0.1)">
       <defs>
        <path id="DejaVuSans-32" d="M 1228 531 
L 3431 531 
L 3431 0 
L 469 0 
L 469 531 
Q 828 903 1448 1529 
Q 2069 2156 2228 2338 
Q 2531 2678 2651 2914 
Q 2772 3150 2772 3378 
Q 2772 3750 2511 3984 
Q 2250 4219 1831 4219 
Q 1534 4219 1204 4116 
Q 875 4013 500 3803 
L 500 4441 
Q 881 4594 1212 4672 
Q 1544 4750 1819 4750 
Q 2544 4750 2975 4387 
Q 3406 4025 3406 3419 
Q 3406 3131 3298 2873 
Q 3191 2616 2906 2266 
Q 2828 2175 2409 1742 
Q 1991 1309 1228 531 
z
" transform="scale(0.015625)"/>
       </defs>
       <use xlink:href="#DejaVuSans-32"/>
       <use xlink:href="#DejaVuSans-30" x="63.623047"/>
       <use xlink:href="#DejaVuSans-30" x="127.246094"/>
       <use xlink:href="#DejaVuSans-30" x="190.869141"/>
       <use xlink:href="#DejaVuSans-30" x="254.492188"/>
      </g>
     </g>
    </g>
    <g id="xtick_4">
     <g id="line2d_4">
      <g>
       <use xlink:href="#m66fef7f73d" x="221.434126" y="258.565145" style="stroke: #000000; stroke-width: 0.8"/>
      </g>
     </g>
     <g id="text_4">
      <!-- 30000 -->
      <g transform="translate(205.527876 273.163582) scale(0.1 -0.1)">
       <defs>
        <path id="DejaVuSans-33" d="M 2597 2516 
Q 3050 2419 3304 2112 
Q 3559 1806 3559 1356 
Q 3559 666 3084 287 
Q 2609 -91 1734 -91 
Q 1441 -91 1130 -33 
Q 819 25 488 141 
L 488 750 
Q 750 597 1062 519 
Q 1375 441 1716 441 
Q 2309 441 2620 675 
Q 2931 909 2931 1356 
Q 2931 1769 2642 2001 
Q 2353 2234 1838 2234 
L 1294 2234 
L 1294 2753 
L 1863 2753 
Q 2328 2753 2575 2939 
Q 2822 3125 2822 3475 
Q 2822 3834 2567 4026 
Q 2313 4219 1838 4219 
Q 1578 4219 1281 4162 
Q 984 4106 628 3988 
L 628 4550 
Q 988 4650 1302 4700 
Q 1616 4750 1894 4750 
Q 2613 4750 3031 4423 
Q 3450 4097 3450 3541 
Q 3450 3153 3228 2886 
Q 3006 2619 2597 2516 
z
" transform="scale(0.015625)"/>
       </defs>
       <use xlink:href="#DejaVuSans-33"/>
       <use xlink:href="#DejaVuSans-30" x="63.623047"/>
       <use xlink:href="#DejaVuSans-30" x="127.246094"/>
       <use xlink:href="#DejaVuSans-30" x="190.869141"/>
       <use xlink:href="#DejaVuSans-30" x="254.492188"/>
      </g>
     </g>
    </g>
    <g id="xtick_5">
     <g id="line2d_5">
      <g>
       <use xlink:href="#m66fef7f73d" x="269.613787" y="258.565145" style="stroke: #000000; stroke-width: 0.8"/>
      </g>
     </g>
     <g id="text_5">
      <!-- 40000 -->
      <g transform="translate(253.707537 273.163582) scale(0.1 -0.1)">
       <defs>
        <path id="DejaVuSans-34" d="M 2419 4116 
L 825 1625 
L 2419 1625 
L 2419 4116 
z
M 2253 4666 
L 3047 4666 
L 3047 1625 
L 3713 1625 
L 3713 1100 
L 3047 1100 
L 3047 0 
L 2419 0 
L 2419 1100 
L 313 1100 
L 313 1709 
L 2253 4666 
z
" transform="scale(0.015625)"/>
       </defs>
       <use xlink:href="#DejaVuSans-34"/>
       <use xlink:href="#DejaVuSans-30" x="63.623047"/>
       <use xlink:href="#DejaVuSans-30" x="127.246094"/>
       <use xlink:href="#DejaVuSans-30" x="190.869141"/>
       <use xlink:href="#DejaVuSans-30" x="254.492188"/>
      </g>
     </g>
    </g>
    <g id="xtick_6">
     <g id="line2d_6">
      <g>
       <use xlink:href="#m66fef7f73d" x="317.793447" y="258.565145" style="stroke: #000000; stroke-width: 0.8"/>
      </g>
     </g>
     <g id="text_6">
      <!-- 50000 -->
      <g transform="translate(301.887197 273.163582) scale(0.1 -0.1)">
       <defs>
        <path id="DejaVuSans-35" d="M 691 4666 
L 3169 4666 
L 3169 4134 
L 1269 4134 
L 1269 2991 
Q 1406 3038 1543 3061 
Q 1681 3084 1819 3084 
Q 2600 3084 3056 2656 
Q 3513 2228 3513 1497 
Q 3513 744 3044 326 
Q 2575 -91 1722 -91 
Q 1428 -91 1123 -41 
Q 819 9 494 109 
L 494 744 
Q 775 591 1075 516 
Q 1375 441 1709 441 
Q 2250 441 2565 725 
Q 2881 1009 2881 1497 
Q 2881 1984 2565 2268 
Q 2250 2553 1709 2553 
Q 1456 2553 1204 2497 
Q 953 2441 691 2322 
L 691 4666 
z
" transform="scale(0.015625)"/>
       </defs>
       <use xlink:href="#DejaVuSans-35"/>
       <use xlink:href="#DejaVuSans-30" x="63.623047"/>
       <use xlink:href="#DejaVuSans-30" x="127.246094"/>
       <use xlink:href="#DejaVuSans-30" x="190.869141"/>
       <use xlink:href="#DejaVuSans-30" x="254.492188"/>
      </g>
     </g>
    </g>
    <g id="xtick_7">
     <g id="line2d_7">
      <g>
       <use xlink:href="#m66fef7f73d" x="365.973108" y="258.565145" style="stroke: #000000; stroke-width: 0.8"/>
      </g>
     </g>
     <g id="text_7">
      <!-- 60000 -->
      <g transform="translate(350.066858 273.163582) scale(0.1 -0.1)">
       <defs>
        <path id="DejaVuSans-36" d="M 2113 2584 
Q 1688 2584 1439 2293 
Q 1191 2003 1191 1497 
Q 1191 994 1439 701 
Q 1688 409 2113 409 
Q 2538 409 2786 701 
Q 3034 994 3034 1497 
Q 3034 2003 2786 2293 
Q 2538 2584 2113 2584 
z
M 3366 4563 
L 3366 3988 
Q 3128 4100 2886 4159 
Q 2644 4219 2406 4219 
Q 1781 4219 1451 3797 
Q 1122 3375 1075 2522 
Q 1259 2794 1537 2939 
Q 1816 3084 2150 3084 
Q 2853 3084 3261 2657 
Q 3669 2231 3669 1497 
Q 3669 778 3244 343 
Q 2819 -91 2113 -91 
Q 1303 -91 875 529 
Q 447 1150 447 2328 
Q 447 3434 972 4092 
Q 1497 4750 2381 4750 
Q 2619 4750 2861 4703 
Q 3103 4656 3366 4563 
z
" transform="scale(0.015625)"/>
       </defs>
       <use xlink:href="#DejaVuSans-36"/>
       <use xlink:href="#DejaVuSans-30" x="63.623047"/>
       <use xlink:href="#DejaVuSans-30" x="127.246094"/>
       <use xlink:href="#DejaVuSans-30" x="190.869141"/>
       <use xlink:href="#DejaVuSans-30" x="254.492188"/>
      </g>
     </g>
    </g>
    <g id="xtick_8">
     <g id="line2d_8">
      <g>
       <use xlink:href="#m66fef7f73d" x="414.152769" y="258.565145" style="stroke: #000000; stroke-width: 0.8"/>
      </g>
     </g>
     <g id="text_8">
      <!-- 70000 -->
      <g transform="translate(398.246519 273.163582) scale(0.1 -0.1)">
       <defs>
        <path id="DejaVuSans-37" d="M 525 4666 
L 3525 4666 
L 3525 4397 
L 1831 0 
L 1172 0 
L 2766 4134 
L 525 4134 
L 525 4666 
z
" transform="scale(0.015625)"/>
       </defs>
       <use xlink:href="#DejaVuSans-37"/>
       <use xlink:href="#DejaVuSans-30" x="63.623047"/>
       <use xlink:href="#DejaVuSans-30" x="127.246094"/>
       <use xlink:href="#DejaVuSans-30" x="190.869141"/>
       <use xlink:href="#DejaVuSans-30" x="254.492188"/>
      </g>
     </g>
    </g>
    <g id="text_9">
     <!-- event_time_offset [µs] -->
     <g transform="translate(192.931286 286.841707) scale(0.1 -0.1)">
      <defs>
       <path id="DejaVuSans-65" d="M 3597 1894 
L 3597 1613 
L 953 1613 
Q 991 1019 1311 708 
Q 1631 397 2203 397 
Q 2534 397 2845 478 
Q 3156 559 3463 722 
L 3463 178 
Q 3153 47 2828 -22 
Q 2503 -91 2169 -91 
Q 1331 -91 842 396 
Q 353 884 353 1716 
Q 353 2575 817 3079 
Q 1281 3584 2069 3584 
Q 2775 3584 3186 3129 
Q 3597 2675 3597 1894 
z
M 3022 2063 
Q 3016 2534 2758 2815 
Q 2500 3097 2075 3097 
Q 1594 3097 1305 2825 
Q 1016 2553 972 2059 
L 3022 2063 
z
" transform="scale(0.015625)"/>
       <path id="DejaVuSans-76" d="M 191 3500 
L 800 3500 
L 1894 563 
L 2988 3500 
L 3597 3500 
L 2284 0 
L 1503 0 
L 191 3500 
z
" transform="scale(0.015625)"/>
       <path id="DejaVuSans-6e" d="M 3513 2113 
L 3513 0 
L 2938 0 
L 2938 2094 
Q 2938 2591 2744 2837 
Q 2550 3084 2163 3084 
Q 1697 3084 1428 2787 
Q 1159 2491 1159 1978 
L 1159 0 
L 581 0 
L 581 3500 
L 1159 3500 
L 1159 2956 
Q 1366 3272 1645 3428 
Q 1925 3584 2291 3584 
Q 2894 3584 3203 3211 
Q 3513 2838 3513 2113 
z
" transform="scale(0.015625)"/>
       <path id="DejaVuSans-74" d="M 1172 4494 
L 1172 3500 
L 2356 3500 
L 2356 3053 
L 1172 3053 
L 1172 1153 
Q 1172 725 1289 603 
Q 1406 481 1766 481 
L 2356 481 
L 2356 0 
L 1766 0 
Q 1100 0 847 248 
Q 594 497 594 1153 
L 594 3053 
L 172 3053 
L 172 3500 
L 594 3500 
L 594 4494 
L 1172 4494 
z
" transform="scale(0.015625)"/>
       <path id="DejaVuSans-5f" d="M 3263 -1063 
L 3263 -1509 
L -63 -1509 
L -63 -1063 
L 3263 -1063 
z
" transform="scale(0.015625)"/>
       <path id="DejaVuSans-69" d="M 603 3500 
L 1178 3500 
L 1178 0 
L 603 0 
L 603 3500 
z
M 603 4863 
L 1178 4863 
L 1178 4134 
L 603 4134 
L 603 4863 
z
" transform="scale(0.015625)"/>
       <path id="DejaVuSans-6d" d="M 3328 2828 
Q 3544 3216 3844 3400 
Q 4144 3584 4550 3584 
Q 5097 3584 5394 3201 
Q 5691 2819 5691 2113 
L 5691 0 
L 5113 0 
L 5113 2094 
Q 5113 2597 4934 2840 
Q 4756 3084 4391 3084 
Q 3944 3084 3684 2787 
Q 3425 2491 3425 1978 
L 3425 0 
L 2847 0 
L 2847 2094 
Q 2847 2600 2669 2842 
Q 2491 3084 2119 3084 
Q 1678 3084 1418 2786 
Q 1159 2488 1159 1978 
L 1159 0 
L 581 0 
L 581 3500 
L 1159 3500 
L 1159 2956 
Q 1356 3278 1631 3431 
Q 1906 3584 2284 3584 
Q 2666 3584 2933 3390 
Q 3200 3197 3328 2828 
z
" transform="scale(0.015625)"/>
       <path id="DejaVuSans-6f" d="M 1959 3097 
Q 1497 3097 1228 2736 
Q 959 2375 959 1747 
Q 959 1119 1226 758 
Q 1494 397 1959 397 
Q 2419 397 2687 759 
Q 2956 1122 2956 1747 
Q 2956 2369 2687 2733 
Q 2419 3097 1959 3097 
z
M 1959 3584 
Q 2709 3584 3137 3096 
Q 3566 2609 3566 1747 
Q 3566 888 3137 398 
Q 2709 -91 1959 -91 
Q 1206 -91 779 398 
Q 353 888 353 1747 
Q 353 2609 779 3096 
Q 1206 3584 1959 3584 
z
" transform="scale(0.015625)"/>
       <path id="DejaVuSans-66" d="M 2375 4863 
L 2375 4384 
L 1825 4384 
Q 1516 4384 1395 4259 
Q 1275 4134 1275 3809 
L 1275 3500 
L 2222 3500 
L 2222 3053 
L 1275 3053 
L 1275 0 
L 697 0 
L 697 3053 
L 147 3053 
L 147 3500 
L 697 3500 
L 697 3744 
Q 697 4328 969 4595 
Q 1241 4863 1831 4863 
L 2375 4863 
z
" transform="scale(0.015625)"/>
       <path id="DejaVuSans-73" d="M 2834 3397 
L 2834 2853 
Q 2591 2978 2328 3040 
Q 2066 3103 1784 3103 
Q 1356 3103 1142 2972 
Q 928 2841 928 2578 
Q 928 2378 1081 2264 
Q 1234 2150 1697 2047 
L 1894 2003 
Q 2506 1872 2764 1633 
Q 3022 1394 3022 966 
Q 3022 478 2636 193 
Q 2250 -91 1575 -91 
Q 1294 -91 989 -36 
Q 684 19 347 128 
L 347 722 
Q 666 556 975 473 
Q 1284 391 1588 391 
Q 1994 391 2212 530 
Q 2431 669 2431 922 
Q 2431 1156 2273 1281 
Q 2116 1406 1581 1522 
L 1381 1569 
Q 847 1681 609 1914 
Q 372 2147 372 2553 
Q 372 3047 722 3315 
Q 1072 3584 1716 3584 
Q 2034 3584 2315 3537 
Q 2597 3491 2834 3397 
z
" transform="scale(0.015625)"/>
       <path id="DejaVuSans-20" transform="scale(0.015625)"/>
       <path id="DejaVuSans-5b" d="M 550 4863 
L 1875 4863 
L 1875 4416 
L 1125 4416 
L 1125 -397 
L 1875 -397 
L 1875 -844 
L 550 -844 
L 550 4863 
z
" transform="scale(0.015625)"/>
       <path id="DejaVuSans-b5" d="M 544 -1331 
L 544 3500 
L 1119 3500 
L 1119 1325 
Q 1119 872 1334 640 
Q 1550 409 1972 409 
Q 2434 409 2667 671 
Q 2900 934 2900 1459 
L 2900 3500 
L 3475 3500 
L 3475 806 
Q 3475 619 3529 530 
Q 3584 441 3700 441 
Q 3728 441 3778 458 
Q 3828 475 3916 513 
L 3916 50 
Q 3788 -22 3673 -56 
Q 3559 -91 3450 -91 
Q 3234 -91 3106 31 
Q 2978 153 2931 403 
Q 2775 156 2548 32 
Q 2322 -91 2016 -91 
Q 1697 -91 1473 31 
Q 1250 153 1119 397 
L 1119 -1331 
L 544 -1331 
z
" transform="scale(0.015625)"/>
       <path id="DejaVuSans-5d" d="M 1947 4863 
L 1947 -844 
L 622 -844 
L 622 -397 
L 1369 -397 
L 1369 4416 
L 622 4416 
L 622 4863 
L 1947 4863 
z
" transform="scale(0.015625)"/>
      </defs>
      <use xlink:href="#DejaVuSans-65"/>
      <use xlink:href="#DejaVuSans-76" x="61.523438"/>
      <use xlink:href="#DejaVuSans-65" x="120.703125"/>
      <use xlink:href="#DejaVuSans-6e" x="182.226562"/>
      <use xlink:href="#DejaVuSans-74" x="245.605469"/>
      <use xlink:href="#DejaVuSans-5f" x="284.814453"/>
      <use xlink:href="#DejaVuSans-74" x="334.814453"/>
      <use xlink:href="#DejaVuSans-69" x="374.023438"/>
      <use xlink:href="#DejaVuSans-6d" x="401.806641"/>
      <use xlink:href="#DejaVuSans-65" x="499.21875"/>
      <use xlink:href="#DejaVuSans-5f" x="560.742188"/>
      <use xlink:href="#DejaVuSans-6f" x="610.742188"/>
      <use xlink:href="#DejaVuSans-66" x="671.923828"/>
      <use xlink:href="#DejaVuSans-66" x="707.128906"/>
      <use xlink:href="#DejaVuSans-73" x="742.333984"/>
      <use xlink:href="#DejaVuSans-65" x="794.433594"/>
      <use xlink:href="#DejaVuSans-74" x="855.957031"/>
      <use xlink:href="#DejaVuSans-20" x="895.166016"/>
      <use xlink:href="#DejaVuSans-5b" x="926.953125"/>
      <use xlink:href="#DejaVuSans-b5" x="965.966797"/>
      <use xlink:href="#DejaVuSans-73" x="1029.589844"/>
      <use xlink:href="#DejaVuSans-5d" x="1081.689453"/>
     </g>
    </g>
   </g>
   <g id="matplotlib.axis_2">
    <g id="ytick_1">
     <g id="line2d_9">
      <defs>
       <path id="m07c03c67f6" d="M 0 0 
L -3.5 0 
" style="stroke: #000000; stroke-width: 0.8"/>
      </defs>
      <g>
       <use xlink:href="#m07c03c67f6" x="59.690625" y="249.754412" style="stroke: #000000; stroke-width: 0.8"/>
      </g>
     </g>
     <g id="text_10">
      <!-- 0 -->
      <g transform="translate(46.328125 253.553631) scale(0.1 -0.1)">
       <use xlink:href="#DejaVuSans-30"/>
      </g>
     </g>
    </g>
    <g id="ytick_2">
     <g id="line2d_10">
      <g>
       <use xlink:href="#m07c03c67f6" x="59.690625" y="211.880778" style="stroke: #000000; stroke-width: 0.8"/>
      </g>
     </g>
     <g id="text_11">
      <!-- 10000 -->
      <g transform="translate(20.878125 215.679997) scale(0.1 -0.1)">
       <use xlink:href="#DejaVuSans-31"/>
       <use xlink:href="#DejaVuSans-30" x="63.623047"/>
       <use xlink:href="#DejaVuSans-30" x="127.246094"/>
       <use xlink:href="#DejaVuSans-30" x="190.869141"/>
       <use xlink:href="#DejaVuSans-30" x="254.492188"/>
      </g>
     </g>
    </g>
    <g id="ytick_3">
     <g id="line2d_11">
      <g>
       <use xlink:href="#m07c03c67f6" x="59.690625" y="174.007143" style="stroke: #000000; stroke-width: 0.8"/>
      </g>
     </g>
     <g id="text_12">
      <!-- 20000 -->
      <g transform="translate(20.878125 177.806362) scale(0.1 -0.1)">
       <use xlink:href="#DejaVuSans-32"/>
       <use xlink:href="#DejaVuSans-30" x="63.623047"/>
       <use xlink:href="#DejaVuSans-30" x="127.246094"/>
       <use xlink:href="#DejaVuSans-30" x="190.869141"/>
       <use xlink:href="#DejaVuSans-30" x="254.492188"/>
      </g>
     </g>
    </g>
    <g id="ytick_4">
     <g id="line2d_12">
      <g>
       <use xlink:href="#m07c03c67f6" x="59.690625" y="136.133509" style="stroke: #000000; stroke-width: 0.8"/>
      </g>
     </g>
     <g id="text_13">
      <!-- 30000 -->
      <g transform="translate(20.878125 139.932728) scale(0.1 -0.1)">
       <use xlink:href="#DejaVuSans-33"/>
       <use xlink:href="#DejaVuSans-30" x="63.623047"/>
       <use xlink:href="#DejaVuSans-30" x="127.246094"/>
       <use xlink:href="#DejaVuSans-30" x="190.869141"/>
       <use xlink:href="#DejaVuSans-30" x="254.492188"/>
      </g>
     </g>
    </g>
    <g id="ytick_5">
     <g id="line2d_13">
      <g>
       <use xlink:href="#m07c03c67f6" x="59.690625" y="98.259875" style="stroke: #000000; stroke-width: 0.8"/>
      </g>
     </g>
     <g id="text_14">
      <!-- 40000 -->
      <g transform="translate(20.878125 102.059094) scale(0.1 -0.1)">
       <use xlink:href="#DejaVuSans-34"/>
       <use xlink:href="#DejaVuSans-30" x="63.623047"/>
       <use xlink:href="#DejaVuSans-30" x="127.246094"/>
       <use xlink:href="#DejaVuSans-30" x="190.869141"/>
       <use xlink:href="#DejaVuSans-30" x="254.492188"/>
      </g>
     </g>
    </g>
    <g id="ytick_6">
     <g id="line2d_14">
      <g>
       <use xlink:href="#m07c03c67f6" x="59.690625" y="60.38624" style="stroke: #000000; stroke-width: 0.8"/>
      </g>
     </g>
     <g id="text_15">
      <!-- 50000 -->
      <g transform="translate(20.878125 64.185459) scale(0.1 -0.1)">
       <use xlink:href="#DejaVuSans-35"/>
       <use xlink:href="#DejaVuSans-30" x="63.623047"/>
       <use xlink:href="#DejaVuSans-30" x="127.246094"/>
       <use xlink:href="#DejaVuSans-30" x="190.869141"/>
       <use xlink:href="#DejaVuSans-30" x="254.492188"/>
      </g>
     </g>
    </g>
    <g id="ytick_7">
     <g id="line2d_15">
      <g>
       <use xlink:href="#m07c03c67f6" x="59.690625" y="22.512606" style="stroke: #000000; stroke-width: 0.8"/>
      </g>
     </g>
     <g id="text_16">
      <!-- 60000 -->
      <g transform="translate(20.878125 26.311825) scale(0.1 -0.1)">
       <use xlink:href="#DejaVuSans-36"/>
       <use xlink:href="#DejaVuSans-30" x="63.623047"/>
       <use xlink:href="#DejaVuSans-30" x="127.246094"/>
       <use xlink:href="#DejaVuSans-30" x="190.869141"/>
       <use xlink:href="#DejaVuSans-30" x="254.492188"/>
      </g>
     </g>
    </g>
    <g id="text_17">
     <!-- [counts] -->
     <g transform="translate(14.798438 161.054135) rotate(-90) scale(0.1 -0.1)">
      <defs>
       <path id="DejaVuSans-63" d="M 3122 3366 
L 3122 2828 
Q 2878 2963 2633 3030 
Q 2388 3097 2138 3097 
Q 1578 3097 1268 2742 
Q 959 2388 959 1747 
Q 959 1106 1268 751 
Q 1578 397 2138 397 
Q 2388 397 2633 464 
Q 2878 531 3122 666 
L 3122 134 
Q 2881 22 2623 -34 
Q 2366 -91 2075 -91 
Q 1284 -91 818 406 
Q 353 903 353 1747 
Q 353 2603 823 3093 
Q 1294 3584 2113 3584 
Q 2378 3584 2631 3529 
Q 2884 3475 3122 3366 
z
" transform="scale(0.015625)"/>
       <path id="DejaVuSans-75" d="M 544 1381 
L 544 3500 
L 1119 3500 
L 1119 1403 
Q 1119 906 1312 657 
Q 1506 409 1894 409 
Q 2359 409 2629 706 
Q 2900 1003 2900 1516 
L 2900 3500 
L 3475 3500 
L 3475 0 
L 2900 0 
L 2900 538 
Q 2691 219 2414 64 
Q 2138 -91 1772 -91 
Q 1169 -91 856 284 
Q 544 659 544 1381 
z
M 1991 3584 
L 1991 3584 
z
" transform="scale(0.015625)"/>
      </defs>
      <use xlink:href="#DejaVuSans-5b"/>
      <use xlink:href="#DejaVuSans-63" x="39.013672"/>
      <use xlink:href="#DejaVuSans-6f" x="93.994141"/>
      <use xlink:href="#DejaVuSans-75" x="155.175781"/>
      <use xlink:href="#DejaVuSans-6e" x="218.554688"/>
      <use xlink:href="#DejaVuSans-74" x="281.933594"/>
      <use xlink:href="#DejaVuSans-73" x="321.142578"/>
      <use xlink:href="#DejaVuSans-5d" x="373.242188"/>
     </g>
    </g>
   </g>
   <g id="patch_3">
    <path d="M 59.690625 258.565145 
L 59.690625 22.318125 
" style="fill: none; stroke: #000000; stroke-width: 0.8; stroke-linejoin: miter; stroke-linecap: square"/>
   </g>
   <g id="patch_4">
    <path d="M 438.24226 258.565145 
L 438.24226 22.318125 
" style="fill: none; stroke: #000000; stroke-width: 0.8; stroke-linejoin: miter; stroke-linecap: square"/>
   </g>
   <g id="patch_5">
    <path d="M 59.690625 258.565145 
L 438.24226 258.565145 
" style="fill: none; stroke: #000000; stroke-width: 0.8; stroke-linejoin: miter; stroke-linecap: square"/>
   </g>
   <g id="patch_6">
    <path d="M 59.690625 22.318125 
L 438.24226 22.318125 
" style="fill: none; stroke: #000000; stroke-width: 0.8; stroke-linejoin: miter; stroke-linecap: square"/>
   </g>
   <g id="text_18">
    <!-- McStas simulation: sample -->
    <g transform="translate(168.60113 16.318125) scale(0.12 -0.12)">
     <defs>
      <path id="DejaVuSans-4d" d="M 628 4666 
L 1569 4666 
L 2759 1491 
L 3956 4666 
L 4897 4666 
L 4897 0 
L 4281 0 
L 4281 4097 
L 3078 897 
L 2444 897 
L 1241 4097 
L 1241 0 
L 628 0 
L 628 4666 
z
" transform="scale(0.015625)"/>
      <path id="DejaVuSans-53" d="M 3425 4513 
L 3425 3897 
Q 3066 4069 2747 4153 
Q 2428 4238 2131 4238 
Q 1616 4238 1336 4038 
Q 1056 3838 1056 3469 
Q 1056 3159 1242 3001 
Q 1428 2844 1947 2747 
L 2328 2669 
Q 3034 2534 3370 2195 
Q 3706 1856 3706 1288 
Q 3706 609 3251 259 
Q 2797 -91 1919 -91 
Q 1588 -91 1214 -16 
Q 841 59 441 206 
L 441 856 
Q 825 641 1194 531 
Q 1563 422 1919 422 
Q 2459 422 2753 634 
Q 3047 847 3047 1241 
Q 3047 1584 2836 1778 
Q 2625 1972 2144 2069 
L 1759 2144 
Q 1053 2284 737 2584 
Q 422 2884 422 3419 
Q 422 4038 858 4394 
Q 1294 4750 2059 4750 
Q 2388 4750 2728 4690 
Q 3069 4631 3425 4513 
z
" transform="scale(0.015625)"/>
      <path id="DejaVuSans-61" d="M 2194 1759 
Q 1497 1759 1228 1600 
Q 959 1441 959 1056 
Q 959 750 1161 570 
Q 1363 391 1709 391 
Q 2188 391 2477 730 
Q 2766 1069 2766 1631 
L 2766 1759 
L 2194 1759 
z
M 3341 1997 
L 3341 0 
L 2766 0 
L 2766 531 
Q 2569 213 2275 61 
Q 1981 -91 1556 -91 
Q 1019 -91 701 211 
Q 384 513 384 1019 
Q 384 1609 779 1909 
Q 1175 2209 1959 2209 
L 2766 2209 
L 2766 2266 
Q 2766 2663 2505 2880 
Q 2244 3097 1772 3097 
Q 1472 3097 1187 3025 
Q 903 2953 641 2809 
L 641 3341 
Q 956 3463 1253 3523 
Q 1550 3584 1831 3584 
Q 2591 3584 2966 3190 
Q 3341 2797 3341 1997 
z
" transform="scale(0.015625)"/>
      <path id="DejaVuSans-6c" d="M 603 4863 
L 1178 4863 
L 1178 0 
L 603 0 
L 603 4863 
z
" transform="scale(0.015625)"/>
      <path id="DejaVuSans-3a" d="M 750 794 
L 1409 794 
L 1409 0 
L 750 0 
L 750 794 
z
M 750 3309 
L 1409 3309 
L 1409 2516 
L 750 2516 
L 750 3309 
z
" transform="scale(0.015625)"/>
      <path id="DejaVuSans-70" d="M 1159 525 
L 1159 -1331 
L 581 -1331 
L 581 3500 
L 1159 3500 
L 1159 2969 
Q 1341 3281 1617 3432 
Q 1894 3584 2278 3584 
Q 2916 3584 3314 3078 
Q 3713 2572 3713 1747 
Q 3713 922 3314 415 
Q 2916 -91 2278 -91 
Q 1894 -91 1617 61 
Q 1341 213 1159 525 
z
M 3116 1747 
Q 3116 2381 2855 2742 
Q 2594 3103 2138 3103 
Q 1681 3103 1420 2742 
Q 1159 2381 1159 1747 
Q 1159 1113 1420 752 
Q 1681 391 2138 391 
Q 2594 391 2855 752 
Q 3116 1113 3116 1747 
z
" transform="scale(0.015625)"/>
     </defs>
     <use xlink:href="#DejaVuSans-4d"/>
     <use xlink:href="#DejaVuSans-63" x="86.279297"/>
     <use xlink:href="#DejaVuSans-53" x="141.259766"/>
     <use xlink:href="#DejaVuSans-74" x="204.736328"/>
     <use xlink:href="#DejaVuSans-61" x="243.945312"/>
     <use xlink:href="#DejaVuSans-73" x="305.224609"/>
     <use xlink:href="#DejaVuSans-20" x="357.324219"/>
     <use xlink:href="#DejaVuSans-73" x="389.111328"/>
     <use xlink:href="#DejaVuSans-69" x="441.210938"/>
     <use xlink:href="#DejaVuSans-6d" x="468.994141"/>
     <use xlink:href="#DejaVuSans-75" x="566.40625"/>
     <use xlink:href="#DejaVuSans-6c" x="629.785156"/>
     <use xlink:href="#DejaVuSans-61" x="657.568359"/>
     <use xlink:href="#DejaVuSans-74" x="718.847656"/>
     <use xlink:href="#DejaVuSans-69" x="758.056641"/>
     <use xlink:href="#DejaVuSans-6f" x="785.839844"/>
     <use xlink:href="#DejaVuSans-6e" x="847.021484"/>
     <use xlink:href="#DejaVuSans-3a" x="910.400391"/>
     <use xlink:href="#DejaVuSans-20" x="944.091797"/>
     <use xlink:href="#DejaVuSans-73" x="975.878906"/>
     <use xlink:href="#DejaVuSans-61" x="1027.978516"/>
     <use xlink:href="#DejaVuSans-6d" x="1089.257812"/>
     <use xlink:href="#DejaVuSans-70" x="1186.669922"/>
     <use xlink:href="#DejaVuSans-6c" x="1250.146484"/>
     <use xlink:href="#DejaVuSans-65" x="1277.929688"/>
    </g>
   </g>
   <g id="line2d_16">
    <path d="M 76.897518 82.269626 
L 78.044644 82.269626 
L 78.044644 94.271781 
L 79.19177 94.271781 
L 79.19177 89.79133 
L 80.338896 89.79133 
L 80.338896 95.487525 
L 81.486022 95.487525 
L 81.486022 100.020999 
L 82.633148 100.020999 
L 82.633148 100.255815 
L 83.780275 100.255815 
L 83.780275 110.671065 
L 84.927401 110.671065 
L 84.927401 106.565563 
L 86.074527 106.565563 
L 86.074527 103.778063 
L 87.221653 103.778063 
L 87.221653 104.607496 
L 88.368779 104.607496 
L 88.368779 114.026669 
L 89.515905 114.026669 
L 89.515905 108.656187 
L 90.663032 108.656187 
L 90.663032 113.401754 
L 91.810158 113.401754 
L 91.810158 113.09119 
L 92.957284 113.09119 
L 92.957284 115.92035 
L 94.10441 115.92035 
L 94.10441 106.92915 
L 95.251536 106.92915 
L 95.251536 125.244839 
L 97.545789 125.172879 
L 97.545789 121.817275 
L 98.692915 121.817275 
L 98.692915 125.566765 
L 99.840041 125.566765 
L 99.840041 129.414726 
L 100.987167 129.414726 
L 100.987167 130.497912 
L 102.134293 130.497912 
L 102.134293 123.578399 
L 103.281419 123.578399 
L 103.281419 132.668072 
L 104.428546 132.668072 
L 104.428546 137.633305 
L 105.575672 137.633305 
L 105.575672 127.91493 
L 106.722798 127.91493 
L 106.722798 128.941306 
L 107.869924 128.941306 
L 107.869924 125.044109 
L 109.01705 125.044109 
L 109.01705 132.050731 
L 110.164176 132.050731 
L 110.164176 131.016781 
L 111.311303 131.016781 
L 111.311303 138.898284 
L 112.458429 138.898284 
L 112.458429 144.352088 
L 113.605555 144.352088 
L 113.605555 137.830248 
L 114.752681 137.830248 
L 114.752681 142.242526 
L 115.899807 142.242526 
L 115.899807 151.3019 
L 117.046933 151.3019 
L 117.046933 156.384541 
L 118.19406 156.384541 
L 118.19406 155.99823 
L 119.341186 155.99823 
L 119.341186 150.055857 
L 120.488312 150.055857 
L 120.488312 156.543611 
L 121.635438 156.543611 
L 121.635438 154.665078 
L 122.782564 154.665078 
L 122.782564 165.864312 
L 123.92969 165.864312 
L 123.92969 173.988207 
L 125.076817 173.988207 
L 125.076817 173.242096 
L 126.223943 173.242096 
L 126.223943 170.541706 
L 127.371069 170.541706 
L 127.371069 184.748106 
L 128.518195 184.748106 
L 128.518195 185.721459 
L 129.665321 185.721459 
L 129.665321 196.62149 
L 130.812447 196.62149 
L 130.812447 207.544247 
L 131.959574 207.544247 
L 131.959574 210.00982 
L 133.1067 210.00982 
L 133.1067 219.262349 
L 134.253826 219.262349 
L 134.253826 229.927565 
L 135.400952 229.927565 
L 135.400952 233.635393 
L 136.548078 233.635393 
L 136.548078 238.388534 
L 137.695204 238.388534 
L 137.695204 242.903072 
L 138.842331 242.903072 
L 138.842331 246.186716 
L 139.989457 246.186716 
L 139.989457 247.826644 
L 141.136583 247.826644 
L 141.136583 244.580874 
L 142.283709 244.580874 
L 142.283709 240.259492 
L 143.430835 240.259492 
L 143.430835 234.563297 
L 144.577961 234.563297 
L 144.577961 226.583323 
L 145.725088 226.583323 
L 145.725088 212.94124 
L 146.872214 212.94124 
L 146.872214 210.691546 
L 148.01934 210.691546 
L 148.01934 195.701161 
L 149.166466 195.701161 
L 149.166466 182.767315 
L 150.313592 182.767315 
L 150.313592 173.397378 
L 151.460718 173.397378 
L 151.460718 167.208826 
L 152.607845 167.208826 
L 152.607845 152.960765 
L 153.754971 152.960765 
L 153.754971 159.119018 
L 154.902097 159.119018 
L 154.902097 151.748809 
L 156.049223 151.748809 
L 156.049223 155.361953 
L 157.196349 155.361953 
L 157.196349 155.676304 
L 158.343475 155.676304 
L 158.343475 160.592302 
L 159.490602 160.592302 
L 159.490602 154.888533 
L 160.637728 154.888533 
L 160.637728 149.593799 
L 161.784854 149.593799 
L 161.784854 144.988365 
L 162.93198 144.988365 
L 162.93198 148.684832 
L 164.079106 148.684832 
L 164.079106 133.050595 
L 165.226232 133.050595 
L 165.226232 122.900461 
L 166.373359 122.900461 
L 166.373359 115.439355 
L 167.520485 115.439355 
L 167.520485 114.322083 
L 168.667611 114.322083 
L 168.667611 101.244317 
L 169.814737 101.244317 
L 169.814737 109.057648 
L 170.961863 109.057648 
L 170.961863 95.1353 
L 172.108989 95.1353 
L 172.108989 103.175873 
L 173.256116 103.175873 
L 173.256116 85.894133 
L 174.403242 85.894133 
L 174.403242 81.080394 
L 175.550368 81.080394 
L 175.550368 88.61346 
L 176.697494 88.61346 
L 176.697494 66.139245 
L 177.84462 66.139245 
L 177.84462 91.726673 
L 178.991746 91.726673 
L 178.991746 70.574248 
L 180.138873 70.574248 
L 180.138873 92.737899 
L 181.285999 92.737899 
L 181.285999 77.463462 
L 182.433125 77.463462 
L 182.433125 80.319134 
L 183.580251 80.319134 
L 183.580251 83.436134 
L 184.727377 83.436134 
L 184.727377 71.149927 
L 185.874503 71.149927 
L 185.874503 87.878712 
L 187.02163 87.878712 
L 187.02163 86.799313 
L 188.168756 86.799313 
L 188.168756 74.433571 
L 189.315882 74.433571 
L 189.315882 86.519048 
L 190.463008 86.519048 
L 190.463008 104.713542 
L 191.610134 104.713542 
L 191.610134 92.957566 
L 192.75726 92.957566 
L 192.75726 77.94067 
L 193.904387 77.94067 
L 193.904387 77.103663 
L 195.051513 77.103663 
L 195.051513 104.539323 
L 196.198639 104.539323 
L 196.198639 95.237559 
L 197.345765 95.237559 
L 197.345765 82.799857 
L 198.492891 82.799857 
L 198.492891 97.119878 
L 199.640017 97.119878 
L 199.640017 86.322105 
L 200.787144 86.322105 
L 200.787144 72.543677 
L 201.93427 72.543677 
L 201.93427 91.204017 
L 203.081396 91.204017 
L 203.081396 98.729508 
L 204.228522 98.729508 
L 204.228522 92.230392 
L 205.375648 92.230392 
L 205.375648 92.737899 
L 206.522774 92.737899 
L 206.522774 111.170997 
L 207.669901 111.170997 
L 207.669901 105.387693 
L 208.817027 105.387693 
L 208.817027 122.620196 
L 209.964153 122.620196 
L 209.964153 91.143419 
L 211.111279 91.143419 
L 211.111279 115.742344 
L 212.258405 115.742344 
L 212.258405 116.848254 
L 213.405531 116.848254 
L 213.405531 115.825666 
L 214.552658 115.825666 
L 214.552658 109.606816 
L 215.699784 109.606816 
L 215.699784 114.333445 
L 216.84691 114.333445 
L 216.84691 122.006643 
L 217.994036 122.006643 
L 217.994036 123.631422 
L 219.141162 123.631422 
L 219.141162 121.324918 
L 220.288288 121.324918 
L 220.288288 122.502788 
L 221.435415 122.502788 
L 221.435415 117.628451 
L 222.582541 117.628451 
L 222.582541 119.821335 
L 223.729667 119.821335 
L 223.729667 116.681611 
L 224.876793 116.681611 
L 224.876793 131.361431 
L 226.023919 131.361431 
L 226.023919 130.475188 
L 227.171045 130.475188 
L 227.171045 132.077243 
L 228.318172 132.077243 
L 228.318172 139.394429 
L 229.465298 139.394429 
L 229.465298 147.620582 
L 230.612424 147.620582 
L 230.612424 144.916405 
L 231.75955 144.916405 
L 231.75955 160.728647 
L 232.906676 160.728647 
L 232.906676 162.785186 
L 234.053802 162.785186 
L 234.053802 161.349775 
L 235.200929 161.349775 
L 235.200929 163.49721 
L 236.348055 163.49721 
L 236.348055 175.351657 
L 237.495181 175.351657 
L 237.495181 167.045969 
L 238.642307 167.045969 
L 238.642307 166.061255 
L 239.789433 166.061255 
L 239.789433 175.238037 
L 240.936559 175.238037 
L 240.936559 170.587154 
L 242.083686 170.587154 
L 242.083686 172.124824 
L 243.230812 172.124824 
L 243.230812 168.269288 
L 244.377938 168.269288 
L 244.377938 170.78031 
L 245.525064 170.78031 
L 245.525064 150.498979 
L 246.67219 150.498979 
L 246.67219 148.31367 
L 247.819316 148.31367 
L 247.819316 141.727445 
L 248.966443 141.727445 
L 248.966443 132.240099 
L 250.113569 132.240099 
L 250.113569 136.633441 
L 251.260695 136.633441 
L 251.260695 127.486958 
L 252.407821 127.486958 
L 252.407821 124.638861 
L 253.554947 124.638861 
L 253.554947 120.169772 
L 254.702073 120.169772 
L 254.702073 110.576381 
L 255.8492 110.576381 
L 255.8492 116.314236 
L 256.996326 116.314236 
L 256.996326 131.478839 
L 258.143452 131.478839 
L 258.143452 133.209665 
L 259.290578 133.209665 
L 259.290578 143.855943 
L 260.437704 143.855943 
L 260.437704 156.808726 
L 261.58483 156.808726 
L 261.58483 154.214382 
L 262.731957 154.214382 
L 262.731957 152.60854 
L 263.879083 152.60854 
L 263.879083 177.415771 
L 265.026209 177.415771 
L 265.026209 175.370594 
L 266.173335 175.370594 
L 266.173335 184.308772 
L 267.320461 184.308772 
L 267.320461 185.694947 
L 268.467587 185.694947 
L 268.467587 194.314986 
L 269.614714 194.314986 
L 269.614714 195.125482 
L 270.76184 195.125482 
L 270.76184 201.825328 
L 271.908966 201.825328 
L 271.908966 189.667891 
L 273.056092 189.667891 
L 273.056092 181.918946 
L 274.203218 181.918946 
L 274.203218 173.412527 
L 275.350344 173.412527 
L 275.350344 154.89232 
L 276.497471 154.89232 
L 276.497471 147.306231 
L 277.644597 147.306231 
L 277.644597 127.710413 
L 278.791723 127.710413 
L 278.791723 119.874358 
L 279.938849 119.874358 
L 279.938849 98.752232 
L 281.085975 98.752232 
L 281.085975 114.132715 
L 282.233101 114.132715 
L 282.233101 68.566945 
L 283.380228 68.566945 
L 283.380228 87.329544 
L 284.527354 87.329544 
L 284.527354 49.175645 
L 285.67448 49.175645 
L 285.67448 59.189434 
L 286.821606 59.189434 
L 286.821606 35.389642 
L 287.968732 35.389642 
L 287.968732 51.508661 
L 289.115858 51.508661 
L 289.115858 48.020499 
L 290.262985 48.020499 
L 290.262985 39.991288 
L 291.410111 39.991288 
L 291.410111 47.3009 
L 292.557237 47.3009 
L 292.557237 54.258286 
L 293.704363 54.258286 
L 293.704363 63.556264 
L 294.851489 63.556264 
L 294.851489 65.427221 
L 295.998615 65.427221 
L 295.998615 54.924862 
L 297.145742 54.924862 
L 297.145742 58.132759 
L 298.292868 58.132759 
L 298.292868 56.882929 
L 299.439994 56.882929 
L 299.439994 45.816253 
L 300.58712 45.816253 
L 300.58712 33.43915 
L 301.734246 33.43915 
L 301.734246 42.191747 
L 302.881372 42.191747 
L 302.881372 42.513672 
L 304.028499 42.513672 
L 304.028499 33.056626 
L 305.175625 33.056626 
L 305.175625 57.053361 
L 306.322751 57.053361 
L 306.322751 42.604569 
L 307.469877 42.604569 
L 307.469877 63.609287 
L 308.617003 63.609287 
L 308.617003 53.031181 
L 309.764129 53.031181 
L 309.764129 35.92366 
L 310.911256 35.92366 
L 310.911256 58.572093 
L 312.058382 58.572093 
L 312.058382 63.628224 
L 313.205508 63.628224 
L 313.205508 51.626069 
L 314.352634 51.626069 
L 314.352634 66.57858 
L 315.49976 66.57858 
L 315.49976 78.410303 
L 316.646886 78.410303 
L 316.646886 47.600101 
L 317.794013 47.600101 
L 317.794013 56.45117 
L 318.941139 56.45117 
L 318.941139 62.158727 
L 321.235391 62.253411 
L 321.235391 55.386921 
L 322.382517 55.386921 
L 322.382517 73.020885 
L 323.529643 73.020885 
L 323.529643 95.919284 
L 324.67677 95.919284 
L 324.67677 77.406652 
L 325.823896 77.406652 
L 325.823896 93.61278 
L 326.971022 93.61278 
L 326.971022 69.237309 
L 328.118148 69.237309 
L 328.118148 98.040208 
L 329.265274 98.040208 
L 329.265274 111.299767 
L 330.4124 111.299767 
L 330.4124 87.371205 
L 331.559527 87.371205 
L 331.559527 79.194287 
L 332.706653 79.194287 
L 332.706653 106.550413 
L 333.853779 106.550413 
L 333.853779 102.717602 
L 335.000905 102.717602 
L 335.000905 96.805527 
L 336.148031 96.805527 
L 336.148031 96.237423 
L 337.295157 96.237423 
L 337.295157 110.19007 
L 338.442284 110.19007 
L 338.442284 103.679592 
L 339.58941 103.679592 
L 339.58941 119.461535 
L 340.736536 119.461535 
L 340.736536 99.221865 
L 341.883662 99.221865 
L 341.883662 111.049801 
L 343.030788 111.049801 
L 343.030788 116.855829 
L 344.177914 116.855829 
L 344.177914 93.484009 
L 345.325041 93.484009 
L 345.325041 102.744113 
L 346.472167 102.744113 
L 346.472167 103.020591 
L 347.619293 103.020591 
L 347.619293 116.06427 
L 348.766419 116.06427 
L 348.766419 96.631308 
L 349.913545 96.631308 
L 349.913545 99.839205 
L 351.060671 99.839205 
L 351.060671 96.267722 
L 352.207798 96.267722 
L 352.207798 102.270693 
L 353.354924 102.270693 
L 353.354924 93.010589 
L 354.50205 93.010589 
L 354.50205 103.001654 
L 355.649176 103.001654 
L 355.649176 118.378349 
L 356.796302 118.378349 
L 356.796302 119.692564 
L 357.943428 119.692564 
L 357.943428 110.905881 
L 359.090555 110.905881 
L 359.090555 115.780218 
L 360.237681 115.780218 
L 360.237681 118.696488 
L 361.384807 118.696488 
L 361.384807 137.864334 
L 362.531933 137.864334 
L 362.531933 123.972285 
L 363.679059 123.972285 
L 363.679059 140.072367 
L 364.826185 140.072367 
L 364.826185 137.542408 
L 365.973312 137.542408 
L 365.973312 145.529958 
L 367.120438 145.529958 
L 367.120438 154.695377 
L 368.267564 154.695377 
L 368.267564 156.888261 
L 369.41469 156.888261 
L 369.41469 169.628951 
L 370.561816 169.628951 
L 370.561816 180.453236 
L 371.708942 180.453236 
L 371.708942 181.286456 
L 372.856069 181.286456 
L 372.856069 186.827369 
L 374.003195 186.827369 
L 374.003195 197.147934 
L 375.150321 197.147934 
L 375.150321 208.457001 
L 376.297447 208.457001 
L 376.297447 213.183631 
L 377.444573 213.183631 
L 377.444573 216.846011 
L 378.591699 216.846011 
L 378.591699 216.970994 
L 379.738826 216.970994 
L 379.738826 217.561823 
L 380.885952 217.561823 
L 380.885952 213.706287 
L 382.033078 213.706287 
L 382.033078 203.984125 
L 383.180204 203.984125 
L 383.180204 196.36395 
L 384.32733 196.36395 
L 384.32733 193.727945 
L 385.474456 193.727945 
L 385.474456 182.805189 
L 386.621583 182.805189 
L 386.621583 166.458928 
L 387.768709 166.458928 
L 387.768709 158.887989 
L 388.915835 158.887989 
L 388.915835 153.006213 
L 390.062961 153.006213 
L 390.062961 126.755997 
L 391.210087 126.755997 
L 391.210087 71.729394 
L 392.357213 71.729394 
L 392.357213 74.566129 
L 393.50434 74.566129 
L 393.50434 74.75171 
L 394.651466 74.75171 
L 394.651466 66.786885 
L 395.798592 66.786885 
L 395.798592 57.000338 
L 396.945718 57.000338 
L 396.945718 70.468202 
L 398.092844 70.468202 
L 398.092844 53.95151 
L 399.23997 53.95151 
L 399.23997 92.457634 
L 400.387097 92.457634 
L 400.387097 65.052272 
L 401.534223 65.052272 
L 401.534223 58.86372 
L 402.681349 58.86372 
L 402.681349 78.046716 
L 403.828475 78.046716 
L 403.828475 74.088921 
L 404.975601 74.088921 
L 404.975601 73.551116 
L 406.122727 73.551116 
L 406.122727 73.039822 
L 408.41698 72.990586 
L 408.41698 66.309677 
L 409.564106 66.309677 
L 409.564106 74.918354 
L 410.711232 74.918354 
L 410.711232 61.177799 
L 411.858358 61.177799 
L 411.858358 86.893997 
L 413.005484 86.893997 
L 413.005484 80.781193 
L 414.152611 80.781193 
L 414.152611 90.946476 
L 415.299737 90.946476 
L 415.299737 74.675963 
L 416.446863 74.675963 
L 416.446863 70.684082 
L 417.593989 70.684082 
L 417.593989 74.827457 
L 418.741115 74.827457 
L 418.741115 72.104343 
L 419.888241 72.104343 
L 419.888241 94.873972 
L 421.035368 94.873972 
L 421.035368 94.873972 
" clip-path="url(#p9c273bbaae)" style="fill: none; stroke: #1f77b4; stroke-width: 1.5; stroke-linecap: square"/>
   </g>
  </g>
  <g id="axes_2">
   <g id="patch_7">
    <path d="M 486.647885 258.565145 
L 865.19952 258.565145 
L 865.19952 22.318125 
L 486.647885 22.318125 
z
" style="fill: #ffffff"/>
   </g>
   <g id="matplotlib.axis_3">
    <g id="xtick_9">
     <g id="line2d_17">
      <g>
       <use xlink:href="#m66fef7f73d" x="503.835633" y="258.565145" style="stroke: #000000; stroke-width: 0.8"/>
      </g>
     </g>
     <g id="text_19">
      <!-- 0.00 -->
      <g transform="translate(492.70282 273.163582) scale(0.1 -0.1)">
       <defs>
        <path id="DejaVuSans-2e" d="M 684 794 
L 1344 794 
L 1344 0 
L 684 0 
L 684 794 
z
" transform="scale(0.015625)"/>
       </defs>
       <use xlink:href="#DejaVuSans-30"/>
       <use xlink:href="#DejaVuSans-2e" x="63.623047"/>
       <use xlink:href="#DejaVuSans-30" x="95.410156"/>
       <use xlink:href="#DejaVuSans-30" x="159.033203"/>
      </g>
     </g>
    </g>
    <g id="xtick_10">
     <g id="line2d_18">
      <g>
       <use xlink:href="#m66fef7f73d" x="552.019297" y="258.565145" style="stroke: #000000; stroke-width: 0.8"/>
      </g>
     </g>
     <g id="text_20">
      <!-- 0.01 -->
      <g transform="translate(540.886484 273.163582) scale(0.1 -0.1)">
       <use xlink:href="#DejaVuSans-30"/>
       <use xlink:href="#DejaVuSans-2e" x="63.623047"/>
       <use xlink:href="#DejaVuSans-30" x="95.410156"/>
       <use xlink:href="#DejaVuSans-31" x="159.033203"/>
      </g>
     </g>
    </g>
    <g id="xtick_11">
     <g id="line2d_19">
      <g>
       <use xlink:href="#m66fef7f73d" x="600.202961" y="258.565145" style="stroke: #000000; stroke-width: 0.8"/>
      </g>
     </g>
     <g id="text_21">
      <!-- 0.02 -->
      <g transform="translate(589.070149 273.163582) scale(0.1 -0.1)">
       <use xlink:href="#DejaVuSans-30"/>
       <use xlink:href="#DejaVuSans-2e" x="63.623047"/>
       <use xlink:href="#DejaVuSans-30" x="95.410156"/>
       <use xlink:href="#DejaVuSans-32" x="159.033203"/>
      </g>
     </g>
    </g>
    <g id="xtick_12">
     <g id="line2d_20">
      <g>
       <use xlink:href="#m66fef7f73d" x="648.386625" y="258.565145" style="stroke: #000000; stroke-width: 0.8"/>
      </g>
     </g>
     <g id="text_22">
      <!-- 0.03 -->
      <g transform="translate(637.253813 273.163582) scale(0.1 -0.1)">
       <use xlink:href="#DejaVuSans-30"/>
       <use xlink:href="#DejaVuSans-2e" x="63.623047"/>
       <use xlink:href="#DejaVuSans-30" x="95.410156"/>
       <use xlink:href="#DejaVuSans-33" x="159.033203"/>
      </g>
     </g>
    </g>
    <g id="xtick_13">
     <g id="line2d_21">
      <g>
       <use xlink:href="#m66fef7f73d" x="696.57029" y="258.565145" style="stroke: #000000; stroke-width: 0.8"/>
      </g>
     </g>
     <g id="text_23">
      <!-- 0.04 -->
      <g transform="translate(685.437477 273.163582) scale(0.1 -0.1)">
       <use xlink:href="#DejaVuSans-30"/>
       <use xlink:href="#DejaVuSans-2e" x="63.623047"/>
       <use xlink:href="#DejaVuSans-30" x="95.410156"/>
       <use xlink:href="#DejaVuSans-34" x="159.033203"/>
      </g>
     </g>
    </g>
    <g id="xtick_14">
     <g id="line2d_22">
      <g>
       <use xlink:href="#m66fef7f73d" x="744.753954" y="258.565145" style="stroke: #000000; stroke-width: 0.8"/>
      </g>
     </g>
     <g id="text_24">
      <!-- 0.05 -->
      <g transform="translate(733.621142 273.163582) scale(0.1 -0.1)">
       <use xlink:href="#DejaVuSans-30"/>
       <use xlink:href="#DejaVuSans-2e" x="63.623047"/>
       <use xlink:href="#DejaVuSans-30" x="95.410156"/>
       <use xlink:href="#DejaVuSans-35" x="159.033203"/>
      </g>
     </g>
    </g>
    <g id="xtick_15">
     <g id="line2d_23">
      <g>
       <use xlink:href="#m66fef7f73d" x="792.937618" y="258.565145" style="stroke: #000000; stroke-width: 0.8"/>
      </g>
     </g>
     <g id="text_25">
      <!-- 0.06 -->
      <g transform="translate(781.804806 273.163582) scale(0.1 -0.1)">
       <use xlink:href="#DejaVuSans-30"/>
       <use xlink:href="#DejaVuSans-2e" x="63.623047"/>
       <use xlink:href="#DejaVuSans-30" x="95.410156"/>
       <use xlink:href="#DejaVuSans-36" x="159.033203"/>
      </g>
     </g>
    </g>
    <g id="xtick_16">
     <g id="line2d_24">
      <g>
       <use xlink:href="#m66fef7f73d" x="841.121283" y="258.565145" style="stroke: #000000; stroke-width: 0.8"/>
      </g>
     </g>
     <g id="text_26">
      <!-- 0.07 -->
      <g transform="translate(829.98847 273.163582) scale(0.1 -0.1)">
       <use xlink:href="#DejaVuSans-30"/>
       <use xlink:href="#DejaVuSans-2e" x="63.623047"/>
       <use xlink:href="#DejaVuSans-30" x="95.410156"/>
       <use xlink:href="#DejaVuSans-37" x="159.033203"/>
      </g>
     </g>
    </g>
    <g id="text_27">
     <!-- event_time_offset [s] -->
     <g transform="translate(623.069796 286.841707) scale(0.1 -0.1)">
      <use xlink:href="#DejaVuSans-65"/>
      <use xlink:href="#DejaVuSans-76" x="61.523438"/>
      <use xlink:href="#DejaVuSans-65" x="120.703125"/>
      <use xlink:href="#DejaVuSans-6e" x="182.226562"/>
      <use xlink:href="#DejaVuSans-74" x="245.605469"/>
      <use xlink:href="#DejaVuSans-5f" x="284.814453"/>
      <use xlink:href="#DejaVuSans-74" x="334.814453"/>
      <use xlink:href="#DejaVuSans-69" x="374.023438"/>
      <use xlink:href="#DejaVuSans-6d" x="401.806641"/>
      <use xlink:href="#DejaVuSans-65" x="499.21875"/>
      <use xlink:href="#DejaVuSans-5f" x="560.742188"/>
      <use xlink:href="#DejaVuSans-6f" x="610.742188"/>
      <use xlink:href="#DejaVuSans-66" x="671.923828"/>
      <use xlink:href="#DejaVuSans-66" x="707.128906"/>
      <use xlink:href="#DejaVuSans-73" x="742.333984"/>
      <use xlink:href="#DejaVuSans-65" x="794.433594"/>
      <use xlink:href="#DejaVuSans-74" x="855.957031"/>
      <use xlink:href="#DejaVuSans-20" x="895.166016"/>
      <use xlink:href="#DejaVuSans-5b" x="926.953125"/>
      <use xlink:href="#DejaVuSans-73" x="965.966797"/>
      <use xlink:href="#DejaVuSans-5d" x="1018.066406"/>
     </g>
    </g>
   </g>
   <g id="matplotlib.axis_4">
    <g id="ytick_8">
     <g id="line2d_25">
      <g>
       <use xlink:href="#m07c03c67f6" x="486.647885" y="247.826644" style="stroke: #000000; stroke-width: 0.8"/>
      </g>
     </g>
     <g id="text_28">
      <!-- 0 -->
      <g transform="translate(473.285385 251.625863) scale(0.1 -0.1)">
       <use xlink:href="#DejaVuSans-30"/>
      </g>
     </g>
    </g>
    <g id="ytick_9">
     <g id="line2d_26">
      <g>
       <use xlink:href="#m07c03c67f6" x="486.647885" y="218.959706" style="stroke: #000000; stroke-width: 0.8"/>
      </g>
     </g>
     <g id="text_29">
      <!-- 25 -->
      <g transform="translate(466.922885 222.758925) scale(0.1 -0.1)">
       <use xlink:href="#DejaVuSans-32"/>
       <use xlink:href="#DejaVuSans-35" x="63.623047"/>
      </g>
     </g>
    </g>
    <g id="ytick_10">
     <g id="line2d_27">
      <g>
       <use xlink:href="#m07c03c67f6" x="486.647885" y="190.092768" style="stroke: #000000; stroke-width: 0.8"/>
      </g>
     </g>
     <g id="text_30">
      <!-- 50 -->
      <g transform="translate(466.922885 193.891987) scale(0.1 -0.1)">
       <use xlink:href="#DejaVuSans-35"/>
       <use xlink:href="#DejaVuSans-30" x="63.623047"/>
      </g>
     </g>
    </g>
    <g id="ytick_11">
     <g id="line2d_28">
      <g>
       <use xlink:href="#m07c03c67f6" x="486.647885" y="161.22583" style="stroke: #000000; stroke-width: 0.8"/>
      </g>
     </g>
     <g id="text_31">
      <!-- 75 -->
      <g transform="translate(466.922885 165.025049) scale(0.1 -0.1)">
       <use xlink:href="#DejaVuSans-37"/>
       <use xlink:href="#DejaVuSans-35" x="63.623047"/>
      </g>
     </g>
    </g>
    <g id="ytick_12">
     <g id="line2d_29">
      <g>
       <use xlink:href="#m07c03c67f6" x="486.647885" y="132.358892" style="stroke: #000000; stroke-width: 0.8"/>
      </g>
     </g>
     <g id="text_32">
      <!-- 100 -->
      <g transform="translate(460.560385 136.158111) scale(0.1 -0.1)">
       <use xlink:href="#DejaVuSans-31"/>
       <use xlink:href="#DejaVuSans-30" x="63.623047"/>
       <use xlink:href="#DejaVuSans-30" x="127.246094"/>
      </g>
     </g>
    </g>
    <g id="ytick_13">
     <g id="line2d_30">
      <g>
       <use xlink:href="#m07c03c67f6" x="486.647885" y="103.491954" style="stroke: #000000; stroke-width: 0.8"/>
      </g>
     </g>
     <g id="text_33">
      <!-- 125 -->
      <g transform="translate(460.560385 107.291173) scale(0.1 -0.1)">
       <use xlink:href="#DejaVuSans-31"/>
       <use xlink:href="#DejaVuSans-32" x="63.623047"/>
       <use xlink:href="#DejaVuSans-35" x="127.246094"/>
      </g>
     </g>
    </g>
    <g id="ytick_14">
     <g id="line2d_31">
      <g>
       <use xlink:href="#m07c03c67f6" x="486.647885" y="74.625017" style="stroke: #000000; stroke-width: 0.8"/>
      </g>
     </g>
     <g id="text_34">
      <!-- 150 -->
      <g transform="translate(460.560385 78.424235) scale(0.1 -0.1)">
       <use xlink:href="#DejaVuSans-31"/>
       <use xlink:href="#DejaVuSans-35" x="63.623047"/>
       <use xlink:href="#DejaVuSans-30" x="127.246094"/>
      </g>
     </g>
    </g>
    <g id="ytick_15">
     <g id="line2d_32">
      <g>
       <use xlink:href="#m07c03c67f6" x="486.647885" y="45.758079" style="stroke: #000000; stroke-width: 0.8"/>
      </g>
     </g>
     <g id="text_35">
      <!-- 175 -->
      <g transform="translate(460.560385 49.557297) scale(0.1 -0.1)">
       <use xlink:href="#DejaVuSans-31"/>
       <use xlink:href="#DejaVuSans-37" x="63.623047"/>
       <use xlink:href="#DejaVuSans-35" x="127.246094"/>
      </g>
     </g>
    </g>
    <g id="text_36">
     <!-- [counts] -->
     <g transform="translate(454.480698 161.054135) rotate(-90) scale(0.1 -0.1)">
      <use xlink:href="#DejaVuSans-5b"/>
      <use xlink:href="#DejaVuSans-63" x="39.013672"/>
      <use xlink:href="#DejaVuSans-6f" x="93.994141"/>
      <use xlink:href="#DejaVuSans-75" x="155.175781"/>
      <use xlink:href="#DejaVuSans-6e" x="218.554688"/>
      <use xlink:href="#DejaVuSans-74" x="281.933594"/>
      <use xlink:href="#DejaVuSans-73" x="321.142578"/>
      <use xlink:href="#DejaVuSans-5d" x="373.242188"/>
     </g>
    </g>
   </g>
   <g id="patch_8">
    <path d="M 486.647885 258.565145 
L 486.647885 22.318125 
" style="fill: none; stroke: #000000; stroke-width: 0.8; stroke-linejoin: miter; stroke-linecap: square"/>
   </g>
   <g id="patch_9">
    <path d="M 865.19952 258.565145 
L 865.19952 22.318125 
" style="fill: none; stroke: #000000; stroke-width: 0.8; stroke-linejoin: miter; stroke-linecap: square"/>
   </g>
   <g id="patch_10">
    <path d="M 486.647885 258.565145 
L 865.19952 258.565145 
" style="fill: none; stroke: #000000; stroke-width: 0.8; stroke-linejoin: miter; stroke-linecap: square"/>
   </g>
   <g id="patch_11">
    <path d="M 486.647885 22.318125 
L 865.19952 22.318125 
" style="fill: none; stroke: #000000; stroke-width: 0.8; stroke-linejoin: miter; stroke-linecap: square"/>
   </g>
   <g id="text_37">
    <!-- Tof simulation -->
    <g transform="translate(634.312765 16.318125) scale(0.12 -0.12)">
     <defs>
      <path id="DejaVuSans-54" d="M -19 4666 
L 3928 4666 
L 3928 4134 
L 2272 4134 
L 2272 0 
L 1638 0 
L 1638 4134 
L -19 4134 
L -19 4666 
z
" transform="scale(0.015625)"/>
     </defs>
     <use xlink:href="#DejaVuSans-54"/>
     <use xlink:href="#DejaVuSans-6f" x="44.083984"/>
     <use xlink:href="#DejaVuSans-66" x="105.265625"/>
     <use xlink:href="#DejaVuSans-20" x="140.470703"/>
     <use xlink:href="#DejaVuSans-73" x="172.257812"/>
     <use xlink:href="#DejaVuSans-69" x="224.357422"/>
     <use xlink:href="#DejaVuSans-6d" x="252.140625"/>
     <use xlink:href="#DejaVuSans-75" x="349.552734"/>
     <use xlink:href="#DejaVuSans-6c" x="412.931641"/>
     <use xlink:href="#DejaVuSans-61" x="440.714844"/>
     <use xlink:href="#DejaVuSans-74" x="501.994141"/>
     <use xlink:href="#DejaVuSans-69" x="541.203125"/>
     <use xlink:href="#DejaVuSans-6f" x="568.986328"/>
     <use xlink:href="#DejaVuSans-6e" x="630.167969"/>
    </g>
   </g>
   <g id="line2d_33">
    <path d="M 503.854778 171.617928 
L 505.001904 171.617928 
L 505.001904 163.535185 
L 506.14903 163.535185 
L 506.14903 158.916475 
L 507.296156 158.916475 
L 507.296156 173.927283 
L 508.443282 173.927283 
L 508.443282 172.772605 
L 509.590408 172.772605 
L 509.590408 184.319381 
L 510.737535 184.319381 
L 510.737535 188.938091 
L 511.884661 188.938091 
L 511.884661 186.628736 
L 513.031787 186.628736 
L 513.031787 176.236638 
L 514.178913 176.236638 
L 514.178913 191.247446 
L 515.326039 191.247446 
L 515.326039 190.092768 
L 516.473165 190.092768 
L 516.473165 186.628736 
L 517.620292 186.628736 
L 517.620292 187.783413 
L 518.767418 187.783413 
L 518.767418 180.855348 
L 519.914544 180.855348 
L 519.914544 190.092768 
L 521.06167 190.092768 
L 521.06167 176.236638 
L 522.208796 176.236638 
L 522.208796 192.402123 
L 523.355922 192.402123 
L 523.355922 193.556801 
L 524.503049 193.556801 
L 524.503049 201.639543 
L 525.650175 201.639543 
L 525.650175 179.700671 
L 526.797301 179.700671 
L 526.797301 191.247446 
L 527.944427 191.247446 
L 527.944427 195.866156 
L 529.091553 195.866156 
L 529.091553 188.938091 
L 530.238679 188.938091 
L 530.238679 205.103576 
L 531.385806 205.103576 
L 531.385806 191.247446 
L 532.532932 191.247446 
L 532.532932 180.855348 
L 533.680058 180.855348 
L 533.680058 198.175511 
L 534.827184 198.175511 
L 534.827184 197.020833 
L 535.97431 197.020833 
L 535.97431 194.711478 
L 537.121436 194.711478 
L 537.121436 202.794221 
L 538.268563 202.794221 
L 538.268563 191.247446 
L 539.415689 191.247446 
L 539.415689 190.092768 
L 540.562815 190.092768 
L 540.562815 210.876964 
L 541.709941 210.876964 
L 541.709941 194.711478 
L 542.857067 194.711478 
L 542.857067 207.412931 
L 545.15132 207.412931 
L 545.15132 209.722286 
L 546.298446 209.722286 
L 546.298446 202.794221 
L 547.445572 202.794221 
L 547.445572 201.639543 
L 548.592698 201.639543 
L 548.592698 218.959706 
L 549.739824 218.959706 
L 549.739824 210.876964 
L 550.88695 210.876964 
L 550.88695 201.639543 
L 552.034077 201.639543 
L 552.034077 203.948898 
L 553.181203 203.948898 
L 553.181203 206.258253 
L 554.328329 206.258253 
L 554.328329 216.650351 
L 556.622581 216.650351 
L 556.622581 205.103576 
L 557.769707 205.103576 
L 557.769707 217.805029 
L 558.916834 217.805029 
L 558.916834 203.948898 
L 560.06396 203.948898 
L 560.06396 222.423739 
L 561.211086 222.423739 
L 561.211086 238.589224 
L 562.358212 238.589224 
L 562.358212 247.826644 
L 572.682348 247.826644 
L 572.682348 242.053257 
L 573.829474 242.053257 
L 573.829474 222.423739 
L 574.9766 222.423739 
L 574.9766 206.258253 
L 576.123726 206.258253 
L 576.123726 198.175511 
L 577.270852 198.175511 
L 577.270852 203.948898 
L 578.417978 203.948898 
L 578.417978 210.876964 
L 579.565105 210.876964 
L 579.565105 207.412931 
L 580.712231 207.412931 
L 580.712231 212.031641 
L 581.859357 212.031641 
L 581.859357 214.340996 
L 583.006483 214.340996 
L 583.006483 192.402123 
L 584.153609 192.402123 
L 584.153609 198.175511 
L 585.300735 198.175511 
L 585.300735 209.722286 
L 586.447862 209.722286 
L 586.447862 203.948898 
L 587.594988 203.948898 
L 587.594988 202.794221 
L 588.742114 202.794221 
L 588.742114 201.639543 
L 589.88924 201.639543 
L 589.88924 207.412931 
L 591.036366 207.412931 
L 591.036366 197.020833 
L 592.183492 197.020833 
L 592.183492 147.3697 
L 593.330619 147.3697 
L 593.330619 140.441635 
L 594.477745 140.441635 
L 594.477745 149.679055 
L 595.624871 149.679055 
L 595.624871 143.905668 
L 596.771997 143.905668 
L 596.771997 134.668247 
L 597.919123 134.668247 
L 597.919123 128.89486 
L 599.066249 128.89486 
L 599.066249 131.204215 
L 600.213376 131.204215 
L 600.213376 149.679055 
L 601.360502 149.679055 
L 601.360502 127.740182 
L 602.507628 127.740182 
L 602.507628 125.430827 
L 603.654754 125.430827 
L 603.654754 123.121472 
L 604.80188 123.121472 
L 604.80188 126.585505 
L 605.949006 126.585505 
L 605.949006 127.740182 
L 607.096133 127.740182 
L 607.096133 118.502762 
L 608.243259 118.502762 
L 608.243259 160.071153 
L 609.390385 160.071153 
L 609.390385 128.89486 
L 610.537511 128.89486 
L 610.537511 108.110665 
L 611.684637 108.110665 
L 611.684637 138.13228 
L 612.831763 138.13228 
L 612.831763 119.65744 
L 613.97889 119.65744 
L 613.97889 125.430827 
L 615.126016 125.430827 
L 615.126016 131.204215 
L 616.273142 131.204215 
L 616.273142 124.27615 
L 617.420268 124.27615 
L 617.420268 119.65744 
L 618.567394 119.65744 
L 618.567394 134.668247 
L 619.71452 134.668247 
L 619.71452 121.966795 
L 620.861647 121.966795 
L 620.861647 123.121472 
L 622.008773 123.121472 
L 622.008773 140.441635 
L 623.155899 140.441635 
L 623.155899 157.761798 
L 624.303025 157.761798 
L 624.303025 133.51357 
L 625.450151 133.51357 
L 625.450151 121.966795 
L 626.597277 121.966795 
L 626.597277 149.679055 
L 627.744404 149.679055 
L 627.744404 127.740182 
L 630.038656 127.740182 
L 630.038656 136.977602 
L 631.185782 136.977602 
L 631.185782 148.524378 
L 632.332908 148.524378 
L 632.332908 132.358892 
L 633.480034 132.358892 
L 633.480034 133.51357 
L 634.627161 133.51357 
L 634.627161 138.13228 
L 635.774287 138.13228 
L 635.774287 134.668247 
L 636.921413 134.668247 
L 636.921413 138.13228 
L 638.068539 138.13228 
L 638.068539 153.143088 
L 639.215665 153.143088 
L 639.215665 126.585505 
L 640.362791 126.585505 
L 640.362791 138.13228 
L 641.509918 138.13228 
L 641.509918 113.884052 
L 642.657044 113.884052 
L 642.657044 139.286957 
L 643.80417 139.286957 
L 643.80417 135.822925 
L 644.951296 135.822925 
L 644.951296 138.13228 
L 646.098422 138.13228 
L 646.098422 127.740182 
L 647.245548 127.740182 
L 647.245548 138.13228 
L 648.392675 138.13228 
L 648.392675 145.060345 
L 649.539801 145.060345 
L 649.539801 136.977602 
L 650.686927 136.977602 
L 650.686927 145.060345 
L 651.834053 145.060345 
L 651.834053 116.193407 
L 652.981179 116.193407 
L 652.981179 120.812117 
L 654.128305 120.812117 
L 654.128305 168.153895 
L 655.275432 168.153895 
L 655.275432 120.812117 
L 656.422558 120.812117 
L 656.422558 123.121472 
L 657.569684 123.121472 
L 657.569684 148.524378 
L 658.71681 148.524378 
L 658.71681 147.3697 
L 659.863936 147.3697 
L 659.863936 146.215023 
L 661.011062 146.215023 
L 661.011062 154.297765 
L 662.158189 154.297765 
L 662.158189 158.916475 
L 663.305315 158.916475 
L 663.305315 141.596313 
L 664.452441 141.596313 
L 664.452441 128.89486 
L 665.599567 128.89486 
L 665.599567 173.927283 
L 666.746693 173.927283 
L 666.746693 143.905668 
L 667.893819 143.905668 
L 667.893819 161.22583 
L 669.040946 161.22583 
L 669.040946 149.679055 
L 670.188072 149.679055 
L 670.188072 157.761798 
L 671.335198 157.761798 
L 671.335198 147.3697 
L 672.482324 147.3697 
L 672.482324 150.833733 
L 673.62945 150.833733 
L 673.62945 135.822925 
L 674.776576 135.822925 
L 674.776576 117.348085 
L 675.923703 117.348085 
L 675.923703 90.790502 
L 677.070829 90.790502 
L 677.070829 98.873244 
L 678.217955 98.873244 
L 678.217955 113.884052 
L 679.365081 113.884052 
L 679.365081 110.42002 
L 680.512207 110.42002 
L 680.512207 117.348085 
L 681.659333 117.348085 
L 681.659333 108.110665 
L 682.80646 108.110665 
L 682.80646 121.966795 
L 683.953586 121.966795 
L 683.953586 112.729375 
L 685.100712 112.729375 
L 685.100712 95.409212 
L 686.247838 95.409212 
L 686.247838 101.182599 
L 687.394964 101.182599 
L 687.394964 146.215023 
L 688.54209 146.215023 
L 688.54209 124.27615 
L 689.689217 124.27615 
L 689.689217 110.42002 
L 690.836343 110.42002 
L 690.836343 138.13228 
L 691.983469 138.13228 
L 691.983469 153.143088 
L 693.130595 153.143088 
L 693.130595 221.269061 
L 694.277721 221.269061 
L 694.277721 230.506481 
L 695.424847 230.506481 
L 695.424847 227.042449 
L 696.571974 227.042449 
L 696.571974 220.114384 
L 697.7191 220.114384 
L 697.7191 230.506481 
L 698.866226 230.506481 
L 698.866226 224.733094 
L 700.013352 224.733094 
L 700.013352 231.661159 
L 701.160478 231.661159 
L 701.160478 225.887771 
L 702.307604 225.887771 
L 702.307604 236.279869 
L 703.454731 236.279869 
L 703.454731 179.700671 
L 704.601857 179.700671 
L 704.601857 100.027922 
L 705.748983 100.027922 
L 705.748983 59.614209 
L 706.896109 59.614209 
L 706.896109 54.995499 
L 708.043235 54.995499 
L 708.043235 68.851629 
L 709.190361 68.851629 
L 709.190361 43.448724 
L 710.337488 43.448724 
L 710.337488 48.067434 
L 711.484614 48.067434 
L 711.484614 74.625017 
L 712.63174 74.625017 
L 712.63174 50.376789 
L 713.778866 50.376789 
L 713.778866 48.067434 
L 714.925992 48.067434 
L 714.925992 53.840821 
L 716.073118 53.840821 
L 716.073118 64.232919 
L 718.367371 64.232919 
L 718.367371 65.387596 
L 719.514497 65.387596 
L 719.514497 33.056626 
L 720.661623 33.056626 
L 720.661623 85.017114 
L 721.808749 85.017114 
L 721.808749 70.006306 
L 722.955875 70.006306 
L 722.955875 85.017114 
L 724.103002 85.017114 
L 724.103002 67.696951 
L 725.250128 67.696951 
L 725.250128 54.995499 
L 727.54438 54.995499 
L 727.54438 87.326469 
L 728.691506 87.326469 
L 728.691506 90.790502 
L 729.838632 90.790502 
L 729.838632 96.563889 
L 730.985759 96.563889 
L 730.985759 89.635824 
L 732.132885 89.635824 
L 732.132885 86.171792 
L 733.280011 86.171792 
L 733.280011 89.635824 
L 734.427137 89.635824 
L 734.427137 75.779694 
L 735.574263 75.779694 
L 735.574263 71.160984 
L 736.721389 71.160984 
L 736.721389 93.099857 
L 737.868516 93.099857 
L 737.868516 83.862437 
L 740.162768 83.862437 
L 740.162768 94.254534 
L 741.309894 94.254534 
L 741.309894 104.646632 
L 742.45702 104.646632 
L 742.45702 106.955987 
L 743.604146 106.955987 
L 743.604146 73.470339 
L 744.751273 73.470339 
L 744.751273 78.089049 
L 745.898399 78.089049 
L 745.898399 89.635824 
L 747.045525 89.635824 
L 747.045525 79.243727 
L 748.192651 79.243727 
L 748.192651 95.409212 
L 749.339777 95.409212 
L 749.339777 102.337277 
L 750.486903 102.337277 
L 750.486903 103.491954 
L 751.63403 103.491954 
L 751.63403 110.42002 
L 752.781156 110.42002 
L 752.781156 135.822925 
L 753.928282 135.822925 
L 753.928282 125.430827 
L 755.075408 125.430827 
L 755.075408 104.646632 
L 756.222534 104.646632 
L 756.222534 130.049537 
L 757.36966 130.049537 
L 757.36966 113.884052 
L 758.516787 113.884052 
L 758.516787 138.13228 
L 759.663913 138.13228 
L 759.663913 125.430827 
L 760.811039 125.430827 
L 760.811039 120.812117 
L 761.958165 120.812117 
L 761.958165 128.89486 
L 763.105291 128.89486 
L 763.105291 134.668247 
L 764.252417 134.668247 
L 764.252417 157.761798 
L 765.399544 157.761798 
L 765.399544 135.822925 
L 766.54667 135.822925 
L 766.54667 139.286957 
L 767.693796 139.286957 
L 767.693796 158.916475 
L 768.840922 158.916475 
L 768.840922 130.049537 
L 769.988048 130.049537 
L 769.988048 132.358892 
L 771.135174 132.358892 
L 771.135174 135.822925 
L 772.282301 135.822925 
L 772.282301 113.884052 
L 773.429427 113.884052 
L 773.429427 139.286957 
L 774.576553 139.286957 
L 774.576553 128.89486 
L 775.723679 128.89486 
L 775.723679 130.049537 
L 776.870805 130.049537 
L 776.870805 164.689863 
L 778.017931 164.689863 
L 778.017931 138.13228 
L 779.165058 138.13228 
L 779.165058 143.905668 
L 780.312184 143.905668 
L 780.312184 134.668247 
L 781.45931 134.668247 
L 781.45931 125.430827 
L 782.606436 125.430827 
L 782.606436 154.297765 
L 783.753562 154.297765 
L 783.753562 153.143088 
L 784.900688 153.143088 
L 784.900688 145.060345 
L 786.047815 145.060345 
L 786.047815 157.761798 
L 787.194941 157.761798 
L 787.194941 153.143088 
L 788.342067 153.143088 
L 788.342067 151.98841 
L 789.489193 151.98841 
L 789.489193 134.668247 
L 790.636319 134.668247 
L 790.636319 150.833733 
L 791.783445 150.833733 
L 791.783445 148.524378 
L 792.930572 148.524378 
L 792.930572 163.535185 
L 797.519076 163.535185 
L 797.519076 185.474058 
L 798.666202 185.474058 
L 798.666202 179.700671 
L 799.813329 179.700671 
L 799.813329 186.628736 
L 800.960455 186.628736 
L 800.960455 171.617928 
L 802.107581 171.617928 
L 802.107581 215.495674 
L 803.254707 215.495674 
L 803.254707 231.661159 
L 804.401833 231.661159 
L 804.401833 242.053257 
L 805.548959 242.053257 
L 805.548959 238.589224 
L 806.696086 238.589224 
L 806.696086 237.434546 
L 807.843212 237.434546 
L 807.843212 233.970514 
L 808.990338 233.970514 
L 808.990338 232.815836 
L 810.137464 232.815836 
L 810.137464 235.125191 
L 811.28459 235.125191 
L 811.28459 202.794221 
L 812.431716 202.794221 
L 812.431716 154.297765 
L 813.578843 154.297765 
L 813.578843 156.60712 
L 814.725969 156.60712 
L 814.725969 146.215023 
L 815.873095 146.215023 
L 815.873095 130.049537 
L 817.020221 130.049537 
L 817.020221 153.143088 
L 818.167347 153.143088 
L 818.167347 151.98841 
L 819.314473 151.98841 
L 819.314473 154.297765 
L 820.4616 154.297765 
L 820.4616 140.441635 
L 821.608726 140.441635 
L 821.608726 161.22583 
L 822.755852 161.22583 
L 822.755852 155.452443 
L 823.902978 155.452443 
L 823.902978 160.071153 
L 825.050104 160.071153 
L 825.050104 166.999218 
L 826.19723 166.999218 
L 826.19723 157.761798 
L 827.344357 157.761798 
L 827.344357 143.905668 
L 829.638609 143.905668 
L 829.638609 168.153895 
L 831.932861 168.153895 
L 831.932861 163.535185 
L 833.079987 163.535185 
L 833.079987 162.380508 
L 834.227114 162.380508 
L 834.227114 179.700671 
L 835.37424 179.700671 
L 835.37424 172.772605 
L 836.521366 172.772605 
L 836.521366 163.535185 
L 837.668492 163.535185 
L 837.668492 155.452443 
L 838.815618 155.452443 
L 838.815618 161.22583 
L 839.962744 161.22583 
L 839.962744 173.927283 
L 841.10987 173.927283 
L 841.10987 187.783413 
L 842.256997 187.783413 
L 842.256997 166.999218 
L 843.404123 166.999218 
L 843.404123 173.927283 
L 844.551249 173.927283 
L 844.551249 172.772605 
L 845.698375 172.772605 
L 845.698375 171.617928 
L 846.845501 171.617928 
L 846.845501 183.164703 
L 847.992628 183.164703 
L 847.992628 183.164703 
" clip-path="url(#p1f2c782fcf)" style="fill: none; stroke: #1f77b4; stroke-width: 1.5; stroke-linecap: square"/>
   </g>
  </g>
 </g>
 <defs>
  <clipPath id="p9c273bbaae">
   <rect x="59.690625" y="22.318125" width="378.551635" height="236.24702"/>
  </clipPath>
  <clipPath id="p1f2c782fcf">
   <rect x="486.647885" y="22.318125" width="378.551635" height="236.24702"/>
  </clipPath>
 </defs>
</svg>
