<?xml version="1.0" encoding="UTF-8" standalone="no"?>
<!DOCTYPE svg PUBLIC "-//W3C//DTD SVG 1.1//EN"
 "http://www.w3.org/Graphics/SVG/1.1/DTD/svg11.dtd">
<!-- Generated by graphviz version 2.43.0 (0)
 -->
<!-- Title: %3 Pages: 1 -->
<svg width="912pt" height="908pt"
 viewBox="0.00 0.00 911.67 908.00" xmlns="http://www.w3.org/2000/svg" xmlns:xlink="http://www.w3.org/1999/xlink">
<g id="graph0" class="graph" transform="scale(1 1) rotate(0) translate(4 904)">
<title>%3</title>
<polygon fill="white" stroke="transparent" points="-4,4 -4,-904 907.67,-904 907.67,4 -4,4"/>
<!-- ess.imaging.normalize.average_background_pixel_counts_AverageBackgroundPixelCounts -->
<g id="node1" class="node">
<title>ess.imaging.normalize.average_background_pixel_counts_AverageBackgroundPixelCounts</title>
<ellipse fill="none" stroke="black" cx="307.43" cy="-378" rx="168.97" ry="18"/>
<text text-anchor="middle" x="307.43" y="-374.3" font-family="Times,serif" font-size="14.00">average_background_pixel_counts</text>
</g>
<!-- AverageBackgroundPixelCounts -->
<g id="node3" class="node">
<title>AverageBackgroundPixelCounts</title>
<polygon fill="none" stroke="black" points="452.43,-324 206.43,-324 206.43,-288 452.43,-288 452.43,-324"/>
<text text-anchor="middle" x="329.43" y="-302.3" font-family="Times,serif" font-size="14.00">AverageBackgroundPixelCounts</text>
</g>
<!-- ess.imaging.normalize.average_background_pixel_counts_AverageBackgroundPixelCounts&#45;&gt;AverageBackgroundPixelCounts -->
<g id="edge2" class="edge">
<title>ess.imaging.normalize.average_background_pixel_counts_AverageBackgroundPixelCounts&#45;&gt;AverageBackgroundPixelCounts</title>
<path fill="none" stroke="black" d="M312.87,-359.7C315.32,-351.9 318.27,-342.51 321,-333.83"/>
<polygon fill="black" stroke="black" points="324.4,-334.69 324.06,-324.1 317.72,-332.59 324.4,-334.69"/>
</g>
<!-- BackgroundImage -->
<g id="node2" class="node">
<title>BackgroundImage</title>
<polygon fill="none" stroke="black" points="263.43,-468 117.43,-468 117.43,-432 263.43,-432 263.43,-468"/>
<text text-anchor="middle" x="190.43" y="-446.3" font-family="Times,serif" font-size="14.00">BackgroundImage</text>
</g>
<!-- BackgroundImage&#45;&gt;ess.imaging.normalize.average_background_pixel_counts_AverageBackgroundPixelCounts -->
<g id="edge1" class="edge">
<title>BackgroundImage&#45;&gt;ess.imaging.normalize.average_background_pixel_counts_AverageBackgroundPixelCounts</title>
<path fill="none" stroke="black" d="M219.05,-431.88C234.47,-422.66 253.66,-411.17 270.22,-401.26"/>
<polygon fill="black" stroke="black" points="272.32,-404.08 279.11,-395.95 268.73,-398.08 272.32,-404.08"/>
</g>
<!-- ess.imaging.normalize.normalize_sample_images_NormalizedSampleImages -->
<g id="node18" class="node">
<title>ess.imaging.normalize.normalize_sample_images_NormalizedSampleImages</title>
<ellipse fill="none" stroke="black" cx="464.43" cy="-90" rx="131.88" ry="18"/>
<text text-anchor="middle" x="464.43" y="-86.3" font-family="Times,serif" font-size="14.00">normalize_sample_images</text>
</g>
<!-- BackgroundImage&#45;&gt;ess.imaging.normalize.normalize_sample_images_NormalizedSampleImages -->
<g id="edge17" class="edge">
<title>BackgroundImage&#45;&gt;ess.imaging.normalize.normalize_sample_images_NormalizedSampleImages</title>
<path fill="none" stroke="black" d="M163.7,-431.83C151.46,-422.63 137.84,-410.26 129.43,-396 108.89,-361.16 110.43,-347.45 110.43,-307 110.43,-307 110.43,-307 110.43,-233 110.43,-174.95 276.51,-129.8 381.16,-107.12"/>
<polygon fill="black" stroke="black" points="382.04,-110.51 391.08,-104.99 380.57,-103.66 382.04,-110.51"/>
</g>
<!-- ess.imaging.normalize.calculate_scale_factor_ScaleFactor -->
<g id="node25" class="node">
<title>ess.imaging.normalize.calculate_scale_factor_ScaleFactor</title>
<ellipse fill="none" stroke="black" cx="464.43" cy="-234" rx="111.58" ry="18"/>
<text text-anchor="middle" x="464.43" y="-230.3" font-family="Times,serif" font-size="14.00">calculate_scale_factor</text>
</g>
<!-- AverageBackgroundPixelCounts&#45;&gt;ess.imaging.normalize.calculate_scale_factor_ScaleFactor -->
<g id="edge25" class="edge">
<title>AverageBackgroundPixelCounts&#45;&gt;ess.imaging.normalize.calculate_scale_factor_ScaleFactor</title>
<path fill="none" stroke="black" d="M362.46,-287.88C380.92,-278.3 404.09,-266.29 423.68,-256.13"/>
<polygon fill="black" stroke="black" points="425.41,-259.18 432.68,-251.47 422.19,-252.96 425.41,-259.18"/>
</g>
<!-- ess.imaging.normalize.average_sample_pixel_counts_AverageSamplePixelCounts -->
<g id="node4" class="node">
<title>ess.imaging.normalize.average_sample_pixel_counts_AverageSamplePixelCounts</title>
<ellipse fill="none" stroke="black" cx="642.43" cy="-378" rx="147.57" ry="18"/>
<text text-anchor="middle" x="642.43" y="-374.3" font-family="Times,serif" font-size="14.00">average_sample_pixel_counts</text>
</g>
<!-- AverageSamplePixelCounts -->
<g id="node6" class="node">
<title>AverageSamplePixelCounts</title>
<polygon fill="none" stroke="black" points="706.43,-324 492.43,-324 492.43,-288 706.43,-288 706.43,-324"/>
<text text-anchor="middle" x="599.43" y="-302.3" font-family="Times,serif" font-size="14.00">AverageSamplePixelCounts</text>
</g>
<!-- ess.imaging.normalize.average_sample_pixel_counts_AverageSamplePixelCounts&#45;&gt;AverageSamplePixelCounts -->
<g id="edge4" class="edge">
<title>ess.imaging.normalize.average_sample_pixel_counts_AverageSamplePixelCounts&#45;&gt;AverageSamplePixelCounts</title>
<path fill="none" stroke="black" d="M631.8,-359.7C626.8,-351.56 620.74,-341.69 615.22,-332.7"/>
<polygon fill="black" stroke="black" points="618.16,-330.79 609.94,-324.1 612.19,-334.46 618.16,-330.79"/>
</g>
<!-- SampleImageStacks -->
<g id="node5" class="node">
<title>SampleImageStacks</title>
<polygon fill="none" stroke="black" points="759.93,-468 598.93,-468 598.93,-432 759.93,-432 759.93,-468"/>
<text text-anchor="middle" x="679.43" y="-446.3" font-family="Times,serif" font-size="14.00">SampleImageStacks</text>
</g>
<!-- SampleImageStacks&#45;&gt;ess.imaging.normalize.average_sample_pixel_counts_AverageSamplePixelCounts -->
<g id="edge3" class="edge">
<title>SampleImageStacks&#45;&gt;ess.imaging.normalize.average_sample_pixel_counts_AverageSamplePixelCounts</title>
<path fill="none" stroke="black" d="M670.29,-431.7C666.03,-423.64 660.88,-413.89 656.17,-404.98"/>
<polygon fill="black" stroke="black" points="659.24,-403.31 651.47,-396.1 653.05,-406.58 659.24,-403.31"/>
</g>
<!-- SampleImageStacks&#45;&gt;ess.imaging.normalize.normalize_sample_images_NormalizedSampleImages -->
<g id="edge16" class="edge">
<title>SampleImageStacks&#45;&gt;ess.imaging.normalize.normalize_sample_images_NormalizedSampleImages</title>
<path fill="none" stroke="black" d="M747.18,-431.89C766.58,-423.92 786.07,-412.43 799.43,-396 824.95,-364.62 818.43,-347.45 818.43,-307 818.43,-307 818.43,-307 818.43,-233 818.43,-174.95 652.36,-129.8 547.71,-107.12"/>
<polygon fill="black" stroke="black" points="548.29,-103.66 537.78,-104.99 546.83,-110.51 548.29,-103.66"/>
</g>
<!-- AverageSamplePixelCounts&#45;&gt;ess.imaging.normalize.calculate_scale_factor_ScaleFactor -->
<g id="edge26" class="edge">
<title>AverageSamplePixelCounts&#45;&gt;ess.imaging.normalize.calculate_scale_factor_ScaleFactor</title>
<path fill="none" stroke="black" d="M566.41,-287.88C547.94,-278.3 524.78,-266.29 505.19,-256.13"/>
<polygon fill="black" stroke="black" points="506.68,-252.96 496.19,-251.47 503.45,-259.18 506.68,-252.96"/>
</g>
<!-- ess.imaging.normalize.apply_threshold_to_background_image_BackgroundImage -->
<g id="node7" class="node">
<title>ess.imaging.normalize.apply_threshold_to_background_image_BackgroundImage</title>
<ellipse fill="none" stroke="black" cx="190.43" cy="-522" rx="190.37" ry="18"/>
<text text-anchor="middle" x="190.43" y="-518.3" font-family="Times,serif" font-size="14.00">apply_threshold_to_background_image</text>
</g>
<!-- ess.imaging.normalize.apply_threshold_to_background_image_BackgroundImage&#45;&gt;BackgroundImage -->
<g id="edge7" class="edge">
<title>ess.imaging.normalize.apply_threshold_to_background_image_BackgroundImage&#45;&gt;BackgroundImage</title>
<path fill="none" stroke="black" d="M190.43,-503.7C190.43,-495.98 190.43,-486.71 190.43,-478.11"/>
<polygon fill="black" stroke="black" points="193.93,-478.1 190.43,-468.1 186.93,-478.1 193.93,-478.1"/>
</g>
<!-- CleansedOpenBeamImage -->
<g id="node8" class="node">
<title>CleansedOpenBeamImage</title>
<polygon fill="none" stroke="black" points="265.43,-612 61.43,-612 61.43,-576 265.43,-576 265.43,-612"/>
<text text-anchor="middle" x="163.43" y="-590.3" font-family="Times,serif" font-size="14.00">CleansedOpenBeamImage</text>
</g>
<!-- CleansedOpenBeamImage&#45;&gt;ess.imaging.normalize.apply_threshold_to_background_image_BackgroundImage -->
<g id="edge5" class="edge">
<title>CleansedOpenBeamImage&#45;&gt;ess.imaging.normalize.apply_threshold_to_background_image_BackgroundImage</title>
<path fill="none" stroke="black" d="M170.11,-575.7C173.15,-567.81 176.82,-558.3 180.19,-549.55"/>
<polygon fill="black" stroke="black" points="183.5,-550.69 183.84,-540.1 176.97,-548.17 183.5,-550.69"/>
</g>
<!-- BackgroundPixelThreshold -->
<g id="node9" class="node">
<title>BackgroundPixelThreshold</title>
<polygon fill="none" stroke="black" points="492.93,-612 283.93,-612 283.93,-576 492.93,-576 492.93,-612"/>
<text text-anchor="middle" x="388.43" y="-590.3" font-family="Times,serif" font-size="14.00">BackgroundPixelThreshold</text>
</g>
<!-- BackgroundPixelThreshold&#45;&gt;ess.imaging.normalize.apply_threshold_to_background_image_BackgroundImage -->
<g id="edge6" class="edge">
<title>BackgroundPixelThreshold&#45;&gt;ess.imaging.normalize.apply_threshold_to_background_image_BackgroundImage</title>
<path fill="none" stroke="black" d="M340.25,-575.97C312.07,-566 276.36,-553.38 246.86,-542.95"/>
<polygon fill="black" stroke="black" points="247.72,-539.54 237.12,-539.51 245.38,-546.14 247.72,-539.54"/>
</g>
<!-- ess.imaging.normalize.cleanse_open_beam_image_CleansedOpenBeamImage -->
<g id="node10" class="node">
<title>ess.imaging.normalize.cleanse_open_beam_image_CleansedOpenBeamImage</title>
<ellipse fill="none" stroke="black" cx="221.43" cy="-666" rx="134.58" ry="18"/>
<text text-anchor="middle" x="221.43" y="-662.3" font-family="Times,serif" font-size="14.00">cleanse_open_beam_image</text>
</g>
<!-- ess.imaging.normalize.cleanse_open_beam_image_CleansedOpenBeamImage&#45;&gt;CleansedOpenBeamImage -->
<g id="edge10" class="edge">
<title>ess.imaging.normalize.cleanse_open_beam_image_CleansedOpenBeamImage&#45;&gt;CleansedOpenBeamImage</title>
<path fill="none" stroke="black" d="M207.39,-648.05C200.44,-639.67 191.92,-629.38 184.23,-620.1"/>
<polygon fill="black" stroke="black" points="186.82,-617.74 177.75,-612.28 181.43,-622.21 186.82,-617.74"/>
</g>
<!-- OpenBeamImage -->
<g id="node11" class="node">
<title>OpenBeamImage</title>
<polygon fill="none" stroke="black" points="290.93,-756 151.93,-756 151.93,-720 290.93,-720 290.93,-756"/>
<text text-anchor="middle" x="221.43" y="-734.3" font-family="Times,serif" font-size="14.00">OpenBeamImage</text>
</g>
<!-- OpenBeamImage&#45;&gt;ess.imaging.normalize.cleanse_open_beam_image_CleansedOpenBeamImage -->
<g id="edge8" class="edge">
<title>OpenBeamImage&#45;&gt;ess.imaging.normalize.cleanse_open_beam_image_CleansedOpenBeamImage</title>
<path fill="none" stroke="black" d="M221.43,-719.7C221.43,-711.98 221.43,-702.71 221.43,-694.11"/>
<polygon fill="black" stroke="black" points="224.93,-694.1 221.43,-684.1 217.93,-694.1 224.93,-694.1"/>
</g>
<!-- DarkCurrentImage -->
<g id="node12" class="node">
<title>DarkCurrentImage</title>
<polygon fill="none" stroke="black" points="635.43,-756 483.43,-756 483.43,-720 635.43,-720 635.43,-756"/>
<text text-anchor="middle" x="559.43" y="-734.3" font-family="Times,serif" font-size="14.00">DarkCurrentImage</text>
</g>
<!-- DarkCurrentImage&#45;&gt;ess.imaging.normalize.cleanse_open_beam_image_CleansedOpenBeamImage -->
<g id="edge9" class="edge">
<title>DarkCurrentImage&#45;&gt;ess.imaging.normalize.cleanse_open_beam_image_CleansedOpenBeamImage</title>
<path fill="none" stroke="black" d="M483.16,-721.2C428.9,-709.97 356.18,-694.91 301.16,-683.51"/>
<polygon fill="black" stroke="black" points="301.6,-680.03 291.1,-681.43 300.18,-686.88 301.6,-680.03"/>
</g>
<!-- ess.imaging.normalize.cleanse_sample_images_CleansedSampleImages -->
<g id="node13" class="node">
<title>ess.imaging.normalize.cleanse_sample_images_CleansedSampleImages</title>
<ellipse fill="none" stroke="black" cx="783.43" cy="-666" rx="120.48" ry="18"/>
<text text-anchor="middle" x="783.43" y="-662.3" font-family="Times,serif" font-size="14.00">cleanse_sample_images</text>
</g>
<!-- DarkCurrentImage&#45;&gt;ess.imaging.normalize.cleanse_sample_images_CleansedSampleImages -->
<g id="edge12" class="edge">
<title>DarkCurrentImage&#45;&gt;ess.imaging.normalize.cleanse_sample_images_CleansedSampleImages</title>
<path fill="none" stroke="black" d="M613.94,-719.97C647.3,-709.54 689.99,-696.2 724.18,-685.52"/>
<polygon fill="black" stroke="black" points="725.54,-688.76 734.04,-682.44 723.45,-682.08 725.54,-688.76"/>
</g>
<!-- CleansedSampleImages -->
<g id="node15" class="node">
<title>CleansedSampleImages</title>
<polygon fill="none" stroke="black" points="891.93,-612 704.93,-612 704.93,-576 891.93,-576 891.93,-612"/>
<text text-anchor="middle" x="798.43" y="-590.3" font-family="Times,serif" font-size="14.00">CleansedSampleImages</text>
</g>
<!-- ess.imaging.normalize.cleanse_sample_images_CleansedSampleImages&#45;&gt;CleansedSampleImages -->
<g id="edge13" class="edge">
<title>ess.imaging.normalize.cleanse_sample_images_CleansedSampleImages&#45;&gt;CleansedSampleImages</title>
<path fill="none" stroke="black" d="M787.14,-647.7C788.79,-639.98 790.78,-630.71 792.62,-622.11"/>
<polygon fill="black" stroke="black" points="796.09,-622.62 794.77,-612.1 789.25,-621.15 796.09,-622.62"/>
</g>
<!-- SampleImageStacksWithLogs -->
<g id="node14" class="node">
<title>SampleImageStacksWithLogs</title>
<polygon fill="none" stroke="black" points="897.93,-756 668.93,-756 668.93,-720 897.93,-720 897.93,-756"/>
<text text-anchor="middle" x="783.43" y="-734.3" font-family="Times,serif" font-size="14.00">SampleImageStacksWithLogs</text>
</g>
<!-- SampleImageStacksWithLogs&#45;&gt;ess.imaging.normalize.cleanse_sample_images_CleansedSampleImages -->
<g id="edge11" class="edge">
<title>SampleImageStacksWithLogs&#45;&gt;ess.imaging.normalize.cleanse_sample_images_CleansedSampleImages</title>
<path fill="none" stroke="black" d="M783.43,-719.7C783.43,-711.98 783.43,-702.71 783.43,-694.11"/>
<polygon fill="black" stroke="black" points="786.93,-694.1 783.43,-684.1 779.93,-694.1 786.93,-694.1"/>
</g>
<!-- ess.imaging.normalize.apply_threshold_to_sample_images_SampleImageStacks -->
<g id="node23" class="node">
<title>ess.imaging.normalize.apply_threshold_to_sample_images_SampleImageStacks</title>
<ellipse fill="none" stroke="black" cx="679.43" cy="-522" rx="173.57" ry="18"/>
<text text-anchor="middle" x="679.43" y="-518.3" font-family="Times,serif" font-size="14.00">apply_threshold_to_sample_images</text>
</g>
<!-- CleansedSampleImages&#45;&gt;ess.imaging.normalize.apply_threshold_to_sample_images_SampleImageStacks -->
<g id="edge22" class="edge">
<title>CleansedSampleImages&#45;&gt;ess.imaging.normalize.apply_threshold_to_sample_images_SampleImageStacks</title>
<path fill="none" stroke="black" d="M769.32,-575.88C753.65,-566.66 734.13,-555.17 717.28,-545.26"/>
<polygon fill="black" stroke="black" points="718.64,-542 708.24,-539.95 715.09,-548.03 718.64,-542"/>
</g>
<!-- ess.imaging.normalize.average_dark_current_images_DarkCurrentImage -->
<g id="node16" class="node">
<title>ess.imaging.normalize.average_dark_current_images_DarkCurrentImage</title>
<ellipse fill="none" stroke="black" cx="559.43" cy="-810" rx="149.47" ry="18"/>
<text text-anchor="middle" x="559.43" y="-806.3" font-family="Times,serif" font-size="14.00">average_dark_current_images</text>
</g>
<!-- ess.imaging.normalize.average_dark_current_images_DarkCurrentImage&#45;&gt;DarkCurrentImage -->
<g id="edge15" class="edge">
<title>ess.imaging.normalize.average_dark_current_images_DarkCurrentImage&#45;&gt;DarkCurrentImage</title>
<path fill="none" stroke="black" d="M559.43,-791.7C559.43,-783.98 559.43,-774.71 559.43,-766.11"/>
<polygon fill="black" stroke="black" points="562.93,-766.1 559.43,-756.1 555.93,-766.1 562.93,-766.1"/>
</g>
<!-- DarkCurrentImageStacks -->
<g id="node17" class="node">
<title>DarkCurrentImageStacks</title>
<polygon fill="none" stroke="black" points="658.93,-900 459.93,-900 459.93,-864 658.93,-864 658.93,-900"/>
<text text-anchor="middle" x="559.43" y="-878.3" font-family="Times,serif" font-size="14.00">DarkCurrentImageStacks</text>
</g>
<!-- DarkCurrentImageStacks&#45;&gt;ess.imaging.normalize.average_dark_current_images_DarkCurrentImage -->
<g id="edge14" class="edge">
<title>DarkCurrentImageStacks&#45;&gt;ess.imaging.normalize.average_dark_current_images_DarkCurrentImage</title>
<path fill="none" stroke="black" d="M559.43,-863.7C559.43,-855.98 559.43,-846.71 559.43,-838.11"/>
<polygon fill="black" stroke="black" points="562.93,-838.1 559.43,-828.1 555.93,-838.1 562.93,-838.1"/>
</g>
<!-- NormalizedSampleImages -->
<g id="node20" class="node">
<title>NormalizedSampleImages</title>
<polygon fill="none" stroke="black" points="566.43,-36 362.43,-36 362.43,0 566.43,0 566.43,-36"/>
<text text-anchor="middle" x="464.43" y="-14.3" font-family="Times,serif" font-size="14.00">NormalizedSampleImages</text>
</g>
<!-- ess.imaging.normalize.normalize_sample_images_NormalizedSampleImages&#45;&gt;NormalizedSampleImages -->
<g id="edge19" class="edge">
<title>ess.imaging.normalize.normalize_sample_images_NormalizedSampleImages&#45;&gt;NormalizedSampleImages</title>
<path fill="none" stroke="black" d="M464.43,-71.7C464.43,-63.98 464.43,-54.71 464.43,-46.11"/>
<polygon fill="black" stroke="black" points="467.93,-46.1 464.43,-36.1 460.93,-46.1 467.93,-46.1"/>
</g>
<!-- ScaleFactor -->
<g id="node19" class="node">
<title>ScaleFactor</title>
<polygon fill="none" stroke="black" points="514.93,-180 413.93,-180 413.93,-144 514.93,-144 514.93,-180"/>
<text text-anchor="middle" x="464.43" y="-158.3" font-family="Times,serif" font-size="14.00">ScaleFactor</text>
</g>
<!-- ScaleFactor&#45;&gt;ess.imaging.normalize.normalize_sample_images_NormalizedSampleImages -->
<g id="edge18" class="edge">
<title>ScaleFactor&#45;&gt;ess.imaging.normalize.normalize_sample_images_NormalizedSampleImages</title>
<path fill="none" stroke="black" d="M464.43,-143.7C464.43,-135.98 464.43,-126.71 464.43,-118.11"/>
<polygon fill="black" stroke="black" points="467.93,-118.1 464.43,-108.1 460.93,-118.1 467.93,-118.1"/>
</g>
<!-- ess.imaging.normalize.average_open_beam_images_OpenBeamImage -->
<g id="node21" class="node">
<title>ess.imaging.normalize.average_open_beam_images_OpenBeamImage</title>
<ellipse fill="none" stroke="black" cx="221.43" cy="-810" rx="141.88" ry="18"/>
<text text-anchor="middle" x="221.43" y="-806.3" font-family="Times,serif" font-size="14.00">average_open_beam_images</text>
</g>
<!-- ess.imaging.normalize.average_open_beam_images_OpenBeamImage&#45;&gt;OpenBeamImage -->
<g id="edge21" class="edge">
<title>ess.imaging.normalize.average_open_beam_images_OpenBeamImage&#45;&gt;OpenBeamImage</title>
<path fill="none" stroke="black" d="M221.43,-791.7C221.43,-783.98 221.43,-774.71 221.43,-766.11"/>
<polygon fill="black" stroke="black" points="224.93,-766.1 221.43,-756.1 217.93,-766.1 224.93,-766.1"/>
</g>
<!-- OpenBeamImageStacks -->
<g id="node22" class="node">
<title>OpenBeamImageStacks</title>
<polygon fill="none" stroke="black" points="314.43,-900 128.43,-900 128.43,-864 314.43,-864 314.43,-900"/>
<text text-anchor="middle" x="221.43" y="-878.3" font-family="Times,serif" font-size="14.00">OpenBeamImageStacks</text>
</g>
<!-- OpenBeamImageStacks&#45;&gt;ess.imaging.normalize.average_open_beam_images_OpenBeamImage -->
<g id="edge20" class="edge">
<title>OpenBeamImageStacks&#45;&gt;ess.imaging.normalize.average_open_beam_images_OpenBeamImage</title>
<path fill="none" stroke="black" d="M221.43,-863.7C221.43,-855.98 221.43,-846.71 221.43,-838.11"/>
<polygon fill="black" stroke="black" points="224.93,-838.1 221.43,-828.1 217.93,-838.1 224.93,-838.1"/>
</g>
<!-- ess.imaging.normalize.apply_threshold_to_sample_images_SampleImageStacks&#45;&gt;SampleImageStacks -->
<g id="edge24" class="edge">
<title>ess.imaging.normalize.apply_threshold_to_sample_images_SampleImageStacks&#45;&gt;SampleImageStacks</title>
<path fill="none" stroke="black" d="M679.43,-503.7C679.43,-495.98 679.43,-486.71 679.43,-478.11"/>
<polygon fill="black" stroke="black" points="682.93,-478.1 679.43,-468.1 675.93,-478.1 682.93,-478.1"/>
</g>
<!-- SamplePixelThreshold -->
<g id="node24" class="node">
<title>SamplePixelThreshold</title>
<polygon fill="none" stroke="black" points="687.43,-612 511.43,-612 511.43,-576 687.43,-576 687.43,-612"/>
<text text-anchor="middle" x="599.43" y="-590.3" font-family="Times,serif" font-size="14.00">SamplePixelThreshold</text>
</g>
<!-- SamplePixelThreshold&#45;&gt;ess.imaging.normalize.apply_threshold_to_sample_images_SampleImageStacks -->
<g id="edge23" class="edge">
<title>SamplePixelThreshold&#45;&gt;ess.imaging.normalize.apply_threshold_to_sample_images_SampleImageStacks</title>
<path fill="none" stroke="black" d="M619.21,-575.7C629.19,-566.97 641.44,-556.24 652.29,-546.75"/>
<polygon fill="black" stroke="black" points="654.66,-549.32 659.89,-540.1 650.05,-544.06 654.66,-549.32"/>
</g>
<!-- ess.imaging.normalize.calculate_scale_factor_ScaleFactor&#45;&gt;ScaleFactor -->
<g id="edge27" class="edge">
<title>ess.imaging.normalize.calculate_scale_factor_ScaleFactor&#45;&gt;ScaleFactor</title>
<path fill="none" stroke="black" d="M464.43,-215.7C464.43,-207.98 464.43,-198.71 464.43,-190.11"/>
<polygon fill="black" stroke="black" points="467.93,-190.1 464.43,-180.1 460.93,-190.1 467.93,-190.1"/>
</g>
</g>
</svg>
