<?xml version="1.0" encoding="UTF-8" standalone="no"?>
<!DOCTYPE svg PUBLIC "-//W3C//DTD SVG 1.1//EN"
 "http://www.w3.org/Graphics/SVG/1.1/DTD/svg11.dtd">
<!-- Generated by graphviz version 2.43.0 (0)
 -->
<!-- Title: %3 Pages: 1 -->
<svg width="813pt" height="445pt"
 viewBox="0.00 0.00 812.50 445.00" xmlns="http://www.w3.org/2000/svg" xmlns:xlink="http://www.w3.org/1999/xlink">
<g id="graph0" class="graph" transform="scale(1 1) rotate(0) translate(4 441)">
<title>%3</title>
<polygon fill="white" stroke="transparent" points="-4,4 -4,-441 808.5,-441 808.5,4 -4,4"/>
<!-- BackgroundImage -->
<g id="node1" class="node">
<title>BackgroundImage</title>
<polygon fill="none" stroke="black" points="367,-240 114,-240 114,-207 367,-207 367,-240"/>
<text text-anchor="start" x="175.5" y="-225.8" font-family="Times,serif" font-size="14.00">BackgroundImage</text>
<text text-anchor="start" x="122" y="-214.2" font-family="Times,serif" font-size="11.00">via:</text>
<text text-anchor="start" x="143" y="-214.2" font-family="Times,serif" font-style="italic" font-size="11.00">apply_threshold_to_background_image</text>
</g>
<!-- AverageBackgroundPixelCounts -->
<g id="node2" class="node">
<title>AverageBackgroundPixelCounts</title>
<polygon fill="none" stroke="black" points="437.5,-171 191.5,-171 191.5,-138 437.5,-138 437.5,-171"/>
<text text-anchor="start" x="199.5" y="-156.8" font-family="Times,serif" font-size="14.00">AverageBackgroundPixelCounts</text>
<text text-anchor="start" x="209" y="-145.2" font-family="Times,serif" font-size="11.00">via:</text>
<text text-anchor="start" x="230" y="-145.2" font-family="Times,serif" font-style="italic" font-size="11.00">average_background_pixel_counts</text>
</g>
<!-- BackgroundImage&#45;&gt;AverageBackgroundPixelCounts -->
<g id="edge1" class="edge">
<title>BackgroundImage&#45;&gt;AverageBackgroundPixelCounts</title>
<path fill="none" stroke="black" d="M257.66,-206.96C267.12,-198.4 279.04,-187.61 289.51,-178.13"/>
<polygon fill="black" stroke="black" points="292.11,-180.49 297.17,-171.19 287.41,-175.3 292.11,-180.49"/>
</g>
<!-- NormalizedSampleImages -->
<g id="node12" class="node">
<title>NormalizedSampleImages</title>
<polygon fill="none" stroke="black" points="534.5,-33 330.5,-33 330.5,0 534.5,0 534.5,-33"/>
<text text-anchor="start" x="338.5" y="-18.8" font-family="Times,serif" font-size="14.00">NormalizedSampleImages</text>
<text text-anchor="start" x="348" y="-7.2" font-family="Times,serif" font-size="11.00">via:</text>
<text text-anchor="start" x="369" y="-7.2" font-family="Times,serif" font-style="italic" font-size="11.00">normalize_sample_images</text>
</g>
<!-- BackgroundImage&#45;&gt;NormalizedSampleImages -->
<g id="edge11" class="edge">
<title>BackgroundImage&#45;&gt;NormalizedSampleImages</title>
<path fill="none" stroke="black" d="M217.85,-206.92C206.75,-197.88 194.52,-185.42 188.5,-171 182.85,-157.46 180.76,-150.46 188.5,-138 222.61,-83.11 289.93,-52.48 345.23,-35.85"/>
<polygon fill="black" stroke="black" points="346.43,-39.15 355.06,-33 344.48,-32.42 346.43,-39.15"/>
</g>
<!-- ScaleFactor -->
<g id="node13" class="node">
<title>ScaleFactor</title>
<polygon fill="none" stroke="black" points="513,-102 352,-102 352,-69 513,-69 513,-102"/>
<text text-anchor="start" x="390" y="-87.8" font-family="Times,serif" font-size="14.00">ScaleFactor</text>
<text text-anchor="start" x="360" y="-76.2" font-family="Times,serif" font-size="11.00">via:</text>
<text text-anchor="start" x="381" y="-76.2" font-family="Times,serif" font-style="italic" font-size="11.00">calculate_scale_factor</text>
</g>
<!-- AverageBackgroundPixelCounts&#45;&gt;ScaleFactor -->
<g id="edge16" class="edge">
<title>AverageBackgroundPixelCounts&#45;&gt;ScaleFactor</title>
<path fill="none" stroke="black" d="M341.87,-137.96C357.99,-128.81 378.57,-117.12 396.05,-107.19"/>
<polygon fill="black" stroke="black" points="397.9,-110.17 404.87,-102.19 394.45,-104.08 397.9,-110.17"/>
</g>
<!-- SampleImageStacks -->
<g id="node3" class="node">
<title>SampleImageStacks</title>
<polygon fill="none" stroke="black" points="724.5,-240 490.5,-240 490.5,-207 724.5,-207 724.5,-240"/>
<text text-anchor="start" x="535" y="-225.8" font-family="Times,serif" font-size="14.00">SampleImageStacks</text>
<text text-anchor="start" x="498.5" y="-214.2" font-family="Times,serif" font-size="11.00">via:</text>
<text text-anchor="start" x="519.5" y="-214.2" font-family="Times,serif" font-style="italic" font-size="11.00">apply_threshold_to_sample_images</text>
</g>
<!-- AverageSamplePixelCounts -->
<g id="node4" class="node">
<title>AverageSamplePixelCounts</title>
<polygon fill="none" stroke="black" points="658.5,-171 444.5,-171 444.5,-138 658.5,-138 658.5,-171"/>
<text text-anchor="start" x="452.5" y="-156.8" font-family="Times,serif" font-size="14.00">AverageSamplePixelCounts</text>
<text text-anchor="start" x="458" y="-145.2" font-family="Times,serif" font-size="11.00">via:</text>
<text text-anchor="start" x="479" y="-145.2" font-family="Times,serif" font-style="italic" font-size="11.00">average_sample_pixel_counts</text>
</g>
<!-- SampleImageStacks&#45;&gt;AverageSamplePixelCounts -->
<g id="edge2" class="edge">
<title>SampleImageStacks&#45;&gt;AverageSamplePixelCounts</title>
<path fill="none" stroke="black" d="M594.51,-206.96C587.61,-198.71 578.99,-188.39 571.28,-179.17"/>
<polygon fill="black" stroke="black" points="573.91,-176.85 564.81,-171.42 568.53,-181.34 573.91,-176.85"/>
</g>
<!-- SampleImageStacks&#45;&gt;NormalizedSampleImages -->
<g id="edge10" class="edge">
<title>SampleImageStacks&#45;&gt;NormalizedSampleImages</title>
<path fill="none" stroke="black" d="M631.28,-206.88C642.72,-197.91 655.28,-185.53 661.5,-171 667.27,-157.52 669.08,-150.56 661.5,-138 628.93,-84.05 563.3,-53.05 510.62,-36.04"/>
<polygon fill="black" stroke="black" points="511.53,-32.66 500.94,-33.02 509.45,-39.34 511.53,-32.66"/>
</g>
<!-- AverageSamplePixelCounts&#45;&gt;ScaleFactor -->
<g id="edge17" class="edge">
<title>AverageSamplePixelCounts&#45;&gt;ScaleFactor</title>
<path fill="none" stroke="black" d="M523.9,-137.96C507.65,-128.81 486.88,-117.12 469.25,-107.19"/>
<polygon fill="black" stroke="black" points="470.79,-104.04 460.36,-102.19 467.36,-110.14 470.79,-104.04"/>
</g>
<!-- CleansedOpenBeamImage -->
<g id="node5" class="node">
<title>CleansedOpenBeamImage</title>
<polygon fill="none" stroke="black" points="207.5,-309 3.5,-309 3.5,-276 207.5,-276 207.5,-309"/>
<text text-anchor="start" x="11.5" y="-294.8" font-family="Times,serif" font-size="14.00">CleansedOpenBeamImage</text>
<text text-anchor="start" x="19.5" y="-283.2" font-family="Times,serif" font-size="11.00">via:</text>
<text text-anchor="start" x="40.5" y="-283.2" font-family="Times,serif" font-style="italic" font-size="11.00">cleanse_open_beam_image</text>
</g>
<!-- CleansedOpenBeamImage&#45;&gt;BackgroundImage -->
<g id="edge3" class="edge">
<title>CleansedOpenBeamImage&#45;&gt;BackgroundImage</title>
<path fill="none" stroke="black" d="M136.81,-275.96C155.59,-266.64 179.67,-254.69 199.9,-244.65"/>
<polygon fill="black" stroke="black" points="201.49,-247.77 208.89,-240.19 198.38,-241.5 201.49,-247.77"/>
</g>
<!-- BackgroundPixelThreshold -->
<g id="node6" class="node">
<title>BackgroundPixelThreshold</title>
<polygon fill="none" stroke="black" points="424,-304 215,-304 215,-281 424,-281 424,-304"/>
<text text-anchor="middle" x="319.5" y="-288.8" font-family="Times,serif" font-size="14.00">BackgroundPixelThreshold</text>
</g>
<!-- BackgroundPixelThreshold&#45;&gt;BackgroundImage -->
<g id="edge4" class="edge">
<title>BackgroundPixelThreshold&#45;&gt;BackgroundImage</title>
<path fill="none" stroke="black" d="M306.81,-280.74C296.12,-271.67 280.46,-258.39 267.05,-247.02"/>
<polygon fill="black" stroke="black" points="268.94,-244.03 259.05,-240.23 264.42,-249.37 268.94,-244.03"/>
</g>
<!-- OpenBeamImage -->
<g id="node7" class="node">
<title>OpenBeamImage</title>
<polygon fill="none" stroke="black" points="197,-378 0,-378 0,-345 197,-345 197,-378"/>
<text text-anchor="start" x="37" y="-363.8" font-family="Times,serif" font-size="14.00">OpenBeamImage</text>
<text text-anchor="start" x="8" y="-352.2" font-family="Times,serif" font-size="11.00">via:</text>
<text text-anchor="start" x="29" y="-352.2" font-family="Times,serif" font-style="italic" font-size="11.00">average_open_beam_images</text>
</g>
<!-- OpenBeamImage&#45;&gt;CleansedOpenBeamImage -->
<g id="edge5" class="edge">
<title>OpenBeamImage&#45;&gt;CleansedOpenBeamImage</title>
<path fill="none" stroke="black" d="M100.12,-344.96C100.92,-337.38 101.89,-328.05 102.79,-319.42"/>
<polygon fill="black" stroke="black" points="106.28,-319.73 103.84,-309.42 99.32,-319 106.28,-319.73"/>
</g>
<!-- DarkCurrentImage -->
<g id="node8" class="node">
<title>DarkCurrentImage</title>
<polygon fill="none" stroke="black" points="410.5,-378 204.5,-378 204.5,-345 410.5,-345 410.5,-378"/>
<text text-anchor="start" x="239.5" y="-363.8" font-family="Times,serif" font-size="14.00">DarkCurrentImage</text>
<text text-anchor="start" x="212.5" y="-352.2" font-family="Times,serif" font-size="11.00">via:</text>
<text text-anchor="start" x="233.5" y="-352.2" font-family="Times,serif" font-style="italic" font-size="11.00">average_dark_current_images</text>
</g>
<!-- DarkCurrentImage&#45;&gt;CleansedOpenBeamImage -->
<g id="edge6" class="edge">
<title>DarkCurrentImage&#45;&gt;CleansedOpenBeamImage</title>
<path fill="none" stroke="black" d="M260.65,-344.96C231.31,-335.23 193.31,-322.63 162.26,-312.33"/>
<polygon fill="black" stroke="black" points="163.04,-308.9 152.45,-309.07 160.84,-315.54 163.04,-308.9"/>
</g>
<!-- CleansedSampleImages -->
<g id="node10" class="node">
<title>CleansedSampleImages</title>
<polygon fill="none" stroke="black" points="622,-309 435,-309 435,-276 622,-276 622,-309"/>
<text text-anchor="start" x="443" y="-294.8" font-family="Times,serif" font-size="14.00">CleansedSampleImages</text>
<text text-anchor="start" x="450.5" y="-283.2" font-family="Times,serif" font-size="11.00">via:</text>
<text text-anchor="start" x="471.5" y="-283.2" font-family="Times,serif" font-style="italic" font-size="11.00">cleanse_sample_images</text>
</g>
<!-- DarkCurrentImage&#45;&gt;CleansedSampleImages -->
<g id="edge8" class="edge">
<title>DarkCurrentImage&#45;&gt;CleansedSampleImages</title>
<path fill="none" stroke="black" d="M358.76,-344.96C391.14,-335.14 433.15,-322.41 467.28,-312.06"/>
<polygon fill="black" stroke="black" points="468.58,-315.32 477.14,-309.07 466.55,-308.62 468.58,-315.32"/>
</g>
<!-- SampleImageStacksWithLogs -->
<g id="node9" class="node">
<title>SampleImageStacksWithLogs</title>
<polygon fill="none" stroke="black" points="647,-373 418,-373 418,-350 647,-350 647,-373"/>
<text text-anchor="middle" x="532.5" y="-357.8" font-family="Times,serif" font-size="14.00">SampleImageStacksWithLogs</text>
</g>
<!-- SampleImageStacksWithLogs&#45;&gt;CleansedSampleImages -->
<g id="edge7" class="edge">
<title>SampleImageStacksWithLogs&#45;&gt;CleansedSampleImages</title>
<path fill="none" stroke="black" d="M531.86,-349.74C531.37,-341.52 530.67,-329.86 530.04,-319.28"/>
<polygon fill="black" stroke="black" points="533.53,-319.01 529.44,-309.23 526.54,-319.43 533.53,-319.01"/>
</g>
<!-- CleansedSampleImages&#45;&gt;SampleImageStacks -->
<g id="edge14" class="edge">
<title>CleansedSampleImages&#45;&gt;SampleImageStacks</title>
<path fill="none" stroke="black" d="M546.82,-275.96C557.02,-267.31 569.89,-256.4 581.15,-246.85"/>
<polygon fill="black" stroke="black" points="583.64,-249.32 589,-240.19 579.11,-243.99 583.64,-249.32"/>
</g>
<!-- DarkCurrentImageStacks -->
<g id="node11" class="node">
<title>DarkCurrentImageStacks</title>
<polygon fill="none" stroke="black" points="407,-437 208,-437 208,-414 407,-414 407,-437"/>
<text text-anchor="middle" x="307.5" y="-421.8" font-family="Times,serif" font-size="14.00">DarkCurrentImageStacks</text>
</g>
<!-- DarkCurrentImageStacks&#45;&gt;DarkCurrentImage -->
<g id="edge9" class="edge">
<title>DarkCurrentImageStacks&#45;&gt;DarkCurrentImage</title>
<path fill="none" stroke="black" d="M307.5,-413.98C307.5,-406.93 307.5,-397.32 307.5,-388.31"/>
<polygon fill="black" stroke="black" points="311,-388.2 307.5,-378.2 304,-388.2 311,-388.2"/>
</g>
<!-- ScaleFactor&#45;&gt;NormalizedSampleImages -->
<g id="edge12" class="edge">
<title>ScaleFactor&#45;&gt;NormalizedSampleImages</title>
<path fill="none" stroke="black" d="M432.5,-68.96C432.5,-61.38 432.5,-52.05 432.5,-43.42"/>
<polygon fill="black" stroke="black" points="436,-43.42 432.5,-33.42 429,-43.42 436,-43.42"/>
</g>
<!-- OpenBeamImageStacks -->
<g id="node14" class="node">
<title>OpenBeamImageStacks</title>
<polygon fill="none" stroke="black" points="191.5,-437 5.5,-437 5.5,-414 191.5,-414 191.5,-437"/>
<text text-anchor="middle" x="98.5" y="-421.8" font-family="Times,serif" font-size="14.00">OpenBeamImageStacks</text>
</g>
<!-- OpenBeamImageStacks&#45;&gt;OpenBeamImage -->
<g id="edge13" class="edge">
<title>OpenBeamImageStacks&#45;&gt;OpenBeamImage</title>
<path fill="none" stroke="black" d="M98.5,-413.98C98.5,-406.93 98.5,-397.32 98.5,-388.31"/>
<polygon fill="black" stroke="black" points="102,-388.2 98.5,-378.2 95,-388.2 102,-388.2"/>
</g>
<!-- SamplePixelThreshold -->
<g id="node15" class="node">
<title>SamplePixelThreshold</title>
<polygon fill="none" stroke="black" points="804.5,-304 628.5,-304 628.5,-281 804.5,-281 804.5,-304"/>
<text text-anchor="middle" x="716.5" y="-288.8" font-family="Times,serif" font-size="14.00">SamplePixelThreshold</text>
</g>
<!-- SamplePixelThreshold&#45;&gt;SampleImageStacks -->
<g id="edge15" class="edge">
<title>SamplePixelThreshold&#45;&gt;SampleImageStacks</title>
<path fill="none" stroke="black" d="M698.99,-280.74C683.61,-271.28 660.79,-257.26 641.79,-245.58"/>
<polygon fill="black" stroke="black" points="643.45,-242.49 633.1,-240.23 639.79,-248.45 643.45,-242.49"/>
</g>
</g>
</svg>
