<?xml version="1.0" encoding="utf-8" standalone="no"?>
<!DOCTYPE svg PUBLIC "-//W3C//DTD SVG 1.1//EN"
  "http://www.w3.org/Graphics/SVG/1.1/DTD/svg11.dtd">
<svg xmlns:xlink="http://www.w3.org/1999/xlink" width="401.690625pt" height="283.31875pt" viewBox="0 0 401.690625 283.31875" xmlns="http://www.w3.org/2000/svg" version="1.1">
 <metadata>
  <rdf:RDF xmlns:dc="http://purl.org/dc/elements/1.1/" xmlns:cc="http://creativecommons.org/ns#" xmlns:rdf="http://www.w3.org/1999/02/22-rdf-syntax-ns#">
   <cc:Work>
    <dc:type rdf:resource="http://purl.org/dc/dcmitype/StillImage"/>
    <dc:date>2024-12-13T13:31:55.756274</dc:date>
    <dc:format>image/svg+xml</dc:format>
    <dc:creator>
     <cc:Agent>
      <dc:title>Matplotlib v3.9.4, https://matplotlib.org/</dc:title>
     </cc:Agent>
    </dc:creator>
   </cc:Work>
  </rdf:RDF>
 </metadata>
 <defs>
  <style type="text/css">*{stroke-linejoin: round; stroke-linecap: butt}</style>
 </defs>
 <g id="figure_1">
  <g id="patch_1">
   <path d="M 0 283.31875 
L 401.690625 283.31875 
L 401.690625 0 
L 0 0 
z
" style="fill: #ffffff"/>
  </g>
  <g id="axes_1">
   <g id="patch_2">
    <path d="M 59.690625 244.078125 
L 394.490625 244.078125 
L 394.490625 22.318125 
L 59.690625 22.318125 
z
" style="fill: #ffffff"/>
   </g>
   <g id="matplotlib.axis_1">
    <g id="xtick_1">
     <g id="line2d_1">
      <defs>
       <path id="m2ec481f1df" d="M 0 0 
L 0 3.5 
" style="stroke: #000000; stroke-width: 0.8"/>
      </defs>
      <g>
       <use xlink:href="#m2ec481f1df" x="113.517882" y="244.078125" style="stroke: #000000; stroke-width: 0.8"/>
      </g>
     </g>
     <g id="text_1">
      <!-- 2 -->
      <g transform="translate(110.336632 258.676563) scale(0.1 -0.1)">
       <defs>
        <path id="DejaVuSans-32" d="M 1228 531 
L 3431 531 
L 3431 0 
L 469 0 
L 469 531 
Q 828 903 1448 1529 
Q 2069 2156 2228 2338 
Q 2531 2678 2651 2914 
Q 2772 3150 2772 3378 
Q 2772 3750 2511 3984 
Q 2250 4219 1831 4219 
Q 1534 4219 1204 4116 
Q 875 4013 500 3803 
L 500 4441 
Q 881 4594 1212 4672 
Q 1544 4750 1819 4750 
Q 2544 4750 2975 4387 
Q 3406 4025 3406 3419 
Q 3406 3131 3298 2873 
Q 3191 2616 2906 2266 
Q 2828 2175 2409 1742 
Q 1991 1309 1228 531 
z
" transform="scale(0.015625)"/>
       </defs>
       <use xlink:href="#DejaVuSans-32"/>
      </g>
     </g>
    </g>
    <g id="xtick_2">
     <g id="line2d_2">
      <g>
       <use xlink:href="#m2ec481f1df" x="184.369689" y="244.078125" style="stroke: #000000; stroke-width: 0.8"/>
      </g>
     </g>
     <g id="text_2">
      <!-- 4 -->
      <g transform="translate(181.188439 258.676563) scale(0.1 -0.1)">
       <defs>
        <path id="DejaVuSans-34" d="M 2419 4116 
L 825 1625 
L 2419 1625 
L 2419 4116 
z
M 2253 4666 
L 3047 4666 
L 3047 1625 
L 3713 1625 
L 3713 1100 
L 3047 1100 
L 3047 0 
L 2419 0 
L 2419 1100 
L 313 1100 
L 313 1709 
L 2253 4666 
z
" transform="scale(0.015625)"/>
       </defs>
       <use xlink:href="#DejaVuSans-34"/>
      </g>
     </g>
    </g>
    <g id="xtick_3">
     <g id="line2d_3">
      <g>
       <use xlink:href="#m2ec481f1df" x="255.221496" y="244.078125" style="stroke: #000000; stroke-width: 0.8"/>
      </g>
     </g>
     <g id="text_3">
      <!-- 6 -->
      <g transform="translate(252.040246 258.676563) scale(0.1 -0.1)">
       <defs>
        <path id="DejaVuSans-36" d="M 2113 2584 
Q 1688 2584 1439 2293 
Q 1191 2003 1191 1497 
Q 1191 994 1439 701 
Q 1688 409 2113 409 
Q 2538 409 2786 701 
Q 3034 994 3034 1497 
Q 3034 2003 2786 2293 
Q 2538 2584 2113 2584 
z
M 3366 4563 
L 3366 3988 
Q 3128 4100 2886 4159 
Q 2644 4219 2406 4219 
Q 1781 4219 1451 3797 
Q 1122 3375 1075 2522 
Q 1259 2794 1537 2939 
Q 1816 3084 2150 3084 
Q 2853 3084 3261 2657 
Q 3669 2231 3669 1497 
Q 3669 778 3244 343 
Q 2819 -91 2113 -91 
Q 1303 -91 875 529 
Q 447 1150 447 2328 
Q 447 3434 972 4092 
Q 1497 4750 2381 4750 
Q 2619 4750 2861 4703 
Q 3103 4656 3366 4563 
z
" transform="scale(0.015625)"/>
       </defs>
       <use xlink:href="#DejaVuSans-36"/>
      </g>
     </g>
    </g>
    <g id="xtick_4">
     <g id="line2d_4">
      <g>
       <use xlink:href="#m2ec481f1df" x="326.073302" y="244.078125" style="stroke: #000000; stroke-width: 0.8"/>
      </g>
     </g>
     <g id="text_4">
      <!-- 8 -->
      <g transform="translate(322.892052 258.676563) scale(0.1 -0.1)">
       <defs>
        <path id="DejaVuSans-38" d="M 2034 2216 
Q 1584 2216 1326 1975 
Q 1069 1734 1069 1313 
Q 1069 891 1326 650 
Q 1584 409 2034 409 
Q 2484 409 2743 651 
Q 3003 894 3003 1313 
Q 3003 1734 2745 1975 
Q 2488 2216 2034 2216 
z
M 1403 2484 
Q 997 2584 770 2862 
Q 544 3141 544 3541 
Q 544 4100 942 4425 
Q 1341 4750 2034 4750 
Q 2731 4750 3128 4425 
Q 3525 4100 3525 3541 
Q 3525 3141 3298 2862 
Q 3072 2584 2669 2484 
Q 3125 2378 3379 2068 
Q 3634 1759 3634 1313 
Q 3634 634 3220 271 
Q 2806 -91 2034 -91 
Q 1263 -91 848 271 
Q 434 634 434 1313 
Q 434 1759 690 2068 
Q 947 2378 1403 2484 
z
M 1172 3481 
Q 1172 3119 1398 2916 
Q 1625 2713 2034 2713 
Q 2441 2713 2670 2916 
Q 2900 3119 2900 3481 
Q 2900 3844 2670 4047 
Q 2441 4250 2034 4250 
Q 1625 4250 1398 4047 
Q 1172 3844 1172 3481 
z
" transform="scale(0.015625)"/>
       </defs>
       <use xlink:href="#DejaVuSans-38"/>
      </g>
     </g>
    </g>
    <g id="text_5">
     <!-- wavelength [Å] -->
     <g transform="translate(189.053125 274.039062) scale(0.1 -0.1)">
      <defs>
       <path id="DejaVuSans-77" d="M 269 3500 
L 844 3500 
L 1563 769 
L 2278 3500 
L 2956 3500 
L 3675 769 
L 4391 3500 
L 4966 3500 
L 4050 0 
L 3372 0 
L 2619 2869 
L 1863 0 
L 1184 0 
L 269 3500 
z
" transform="scale(0.015625)"/>
       <path id="DejaVuSans-61" d="M 2194 1759 
Q 1497 1759 1228 1600 
Q 959 1441 959 1056 
Q 959 750 1161 570 
Q 1363 391 1709 391 
Q 2188 391 2477 730 
Q 2766 1069 2766 1631 
L 2766 1759 
L 2194 1759 
z
M 3341 1997 
L 3341 0 
L 2766 0 
L 2766 531 
Q 2569 213 2275 61 
Q 1981 -91 1556 -91 
Q 1019 -91 701 211 
Q 384 513 384 1019 
Q 384 1609 779 1909 
Q 1175 2209 1959 2209 
L 2766 2209 
L 2766 2266 
Q 2766 2663 2505 2880 
Q 2244 3097 1772 3097 
Q 1472 3097 1187 3025 
Q 903 2953 641 2809 
L 641 3341 
Q 956 3463 1253 3523 
Q 1550 3584 1831 3584 
Q 2591 3584 2966 3190 
Q 3341 2797 3341 1997 
z
" transform="scale(0.015625)"/>
       <path id="DejaVuSans-76" d="M 191 3500 
L 800 3500 
L 1894 563 
L 2988 3500 
L 3597 3500 
L 2284 0 
L 1503 0 
L 191 3500 
z
" transform="scale(0.015625)"/>
       <path id="DejaVuSans-65" d="M 3597 1894 
L 3597 1613 
L 953 1613 
Q 991 1019 1311 708 
Q 1631 397 2203 397 
Q 2534 397 2845 478 
Q 3156 559 3463 722 
L 3463 178 
Q 3153 47 2828 -22 
Q 2503 -91 2169 -91 
Q 1331 -91 842 396 
Q 353 884 353 1716 
Q 353 2575 817 3079 
Q 1281 3584 2069 3584 
Q 2775 3584 3186 3129 
Q 3597 2675 3597 1894 
z
M 3022 2063 
Q 3016 2534 2758 2815 
Q 2500 3097 2075 3097 
Q 1594 3097 1305 2825 
Q 1016 2553 972 2059 
L 3022 2063 
z
" transform="scale(0.015625)"/>
       <path id="DejaVuSans-6c" d="M 603 4863 
L 1178 4863 
L 1178 0 
L 603 0 
L 603 4863 
z
" transform="scale(0.015625)"/>
       <path id="DejaVuSans-6e" d="M 3513 2113 
L 3513 0 
L 2938 0 
L 2938 2094 
Q 2938 2591 2744 2837 
Q 2550 3084 2163 3084 
Q 1697 3084 1428 2787 
Q 1159 2491 1159 1978 
L 1159 0 
L 581 0 
L 581 3500 
L 1159 3500 
L 1159 2956 
Q 1366 3272 1645 3428 
Q 1925 3584 2291 3584 
Q 2894 3584 3203 3211 
Q 3513 2838 3513 2113 
z
" transform="scale(0.015625)"/>
       <path id="DejaVuSans-67" d="M 2906 1791 
Q 2906 2416 2648 2759 
Q 2391 3103 1925 3103 
Q 1463 3103 1205 2759 
Q 947 2416 947 1791 
Q 947 1169 1205 825 
Q 1463 481 1925 481 
Q 2391 481 2648 825 
Q 2906 1169 2906 1791 
z
M 3481 434 
Q 3481 -459 3084 -895 
Q 2688 -1331 1869 -1331 
Q 1566 -1331 1297 -1286 
Q 1028 -1241 775 -1147 
L 775 -588 
Q 1028 -725 1275 -790 
Q 1522 -856 1778 -856 
Q 2344 -856 2625 -561 
Q 2906 -266 2906 331 
L 2906 616 
Q 2728 306 2450 153 
Q 2172 0 1784 0 
Q 1141 0 747 490 
Q 353 981 353 1791 
Q 353 2603 747 3093 
Q 1141 3584 1784 3584 
Q 2172 3584 2450 3431 
Q 2728 3278 2906 2969 
L 2906 3500 
L 3481 3500 
L 3481 434 
z
" transform="scale(0.015625)"/>
       <path id="DejaVuSans-74" d="M 1172 4494 
L 1172 3500 
L 2356 3500 
L 2356 3053 
L 1172 3053 
L 1172 1153 
Q 1172 725 1289 603 
Q 1406 481 1766 481 
L 2356 481 
L 2356 0 
L 1766 0 
Q 1100 0 847 248 
Q 594 497 594 1153 
L 594 3053 
L 172 3053 
L 172 3500 
L 594 3500 
L 594 4494 
L 1172 4494 
z
" transform="scale(0.015625)"/>
       <path id="DejaVuSans-68" d="M 3513 2113 
L 3513 0 
L 2938 0 
L 2938 2094 
Q 2938 2591 2744 2837 
Q 2550 3084 2163 3084 
Q 1697 3084 1428 2787 
Q 1159 2491 1159 1978 
L 1159 0 
L 581 0 
L 581 4863 
L 1159 4863 
L 1159 2956 
Q 1366 3272 1645 3428 
Q 1925 3584 2291 3584 
Q 2894 3584 3203 3211 
Q 3513 2838 3513 2113 
z
" transform="scale(0.015625)"/>
       <path id="DejaVuSans-20" transform="scale(0.015625)"/>
       <path id="DejaVuSans-5b" d="M 550 4863 
L 1875 4863 
L 1875 4416 
L 1125 4416 
L 1125 -397 
L 1875 -397 
L 1875 -844 
L 550 -844 
L 550 4863 
z
" transform="scale(0.015625)"/>
       <path id="DejaVuSans-c5" d="M 2663 5081 
Q 2663 5278 2523 5417 
Q 2384 5556 2188 5556 
Q 1988 5556 1852 5420 
Q 1716 5284 1716 5081 
Q 1716 4884 1853 4746 
Q 1991 4609 2188 4609 
Q 2384 4609 2523 4746 
Q 2663 4884 2663 5081 
z
M 2188 4044 
L 1338 1722 
L 3041 1722 
L 2188 4044 
z
M 1716 4366 
Q 1525 4494 1428 4673 
Q 1331 4853 1331 5081 
Q 1331 5441 1579 5691 
Q 1828 5941 2188 5941 
Q 2544 5941 2795 5689 
Q 3047 5438 3047 5081 
Q 3047 4863 2948 4678 
Q 2850 4494 2663 4366 
L 4325 0 
L 3669 0 
L 3244 1197 
L 1141 1197 
L 716 0 
L 50 0 
L 1716 4366 
z
" transform="scale(0.015625)"/>
       <path id="DejaVuSans-5d" d="M 1947 4863 
L 1947 -844 
L 622 -844 
L 622 -397 
L 1369 -397 
L 1369 4416 
L 622 4416 
L 622 4863 
L 1947 4863 
z
" transform="scale(0.015625)"/>
      </defs>
      <use xlink:href="#DejaVuSans-77"/>
      <use xlink:href="#DejaVuSans-61" x="81.787109"/>
      <use xlink:href="#DejaVuSans-76" x="143.066406"/>
      <use xlink:href="#DejaVuSans-65" x="202.246094"/>
      <use xlink:href="#DejaVuSans-6c" x="263.769531"/>
      <use xlink:href="#DejaVuSans-65" x="291.552734"/>
      <use xlink:href="#DejaVuSans-6e" x="353.076172"/>
      <use xlink:href="#DejaVuSans-67" x="416.455078"/>
      <use xlink:href="#DejaVuSans-74" x="479.931641"/>
      <use xlink:href="#DejaVuSans-68" x="519.140625"/>
      <use xlink:href="#DejaVuSans-20" x="582.519531"/>
      <use xlink:href="#DejaVuSans-5b" x="614.306641"/>
      <use xlink:href="#DejaVuSans-c5" x="653.320312"/>
      <use xlink:href="#DejaVuSans-5d" x="721.728516"/>
     </g>
    </g>
   </g>
   <g id="matplotlib.axis_2">
    <g id="ytick_1">
     <g id="line2d_5">
      <defs>
       <path id="m717719c1d7" d="M 0 0 
L -3.5 0 
" style="stroke: #000000; stroke-width: 0.8"/>
      </defs>
      <g>
       <use xlink:href="#m717719c1d7" x="59.690625" y="234.036329" style="stroke: #000000; stroke-width: 0.8"/>
      </g>
     </g>
     <g id="text_6">
      <!-- 0 -->
      <g transform="translate(46.328125 237.835548) scale(0.1 -0.1)">
       <defs>
        <path id="DejaVuSans-30" d="M 2034 4250 
Q 1547 4250 1301 3770 
Q 1056 3291 1056 2328 
Q 1056 1369 1301 889 
Q 1547 409 2034 409 
Q 2525 409 2770 889 
Q 3016 1369 3016 2328 
Q 3016 3291 2770 3770 
Q 2525 4250 2034 4250 
z
M 2034 4750 
Q 2819 4750 3233 4129 
Q 3647 3509 3647 2328 
Q 3647 1150 3233 529 
Q 2819 -91 2034 -91 
Q 1250 -91 836 529 
Q 422 1150 422 2328 
Q 422 3509 836 4129 
Q 1250 4750 2034 4750 
z
" transform="scale(0.015625)"/>
       </defs>
       <use xlink:href="#DejaVuSans-30"/>
      </g>
     </g>
    </g>
    <g id="ytick_2">
     <g id="line2d_6">
      <g>
       <use xlink:href="#m717719c1d7" x="59.690625" y="208.566669" style="stroke: #000000; stroke-width: 0.8"/>
      </g>
     </g>
     <g id="text_7">
      <!-- 10000 -->
      <g transform="translate(20.878125 212.365888) scale(0.1 -0.1)">
       <defs>
        <path id="DejaVuSans-31" d="M 794 531 
L 1825 531 
L 1825 4091 
L 703 3866 
L 703 4441 
L 1819 4666 
L 2450 4666 
L 2450 531 
L 3481 531 
L 3481 0 
L 794 0 
L 794 531 
z
" transform="scale(0.015625)"/>
       </defs>
       <use xlink:href="#DejaVuSans-31"/>
       <use xlink:href="#DejaVuSans-30" x="63.623047"/>
       <use xlink:href="#DejaVuSans-30" x="127.246094"/>
       <use xlink:href="#DejaVuSans-30" x="190.869141"/>
       <use xlink:href="#DejaVuSans-30" x="254.492188"/>
      </g>
     </g>
    </g>
    <g id="ytick_3">
     <g id="line2d_7">
      <g>
       <use xlink:href="#m717719c1d7" x="59.690625" y="183.097009" style="stroke: #000000; stroke-width: 0.8"/>
      </g>
     </g>
     <g id="text_8">
      <!-- 20000 -->
      <g transform="translate(20.878125 186.896228) scale(0.1 -0.1)">
       <use xlink:href="#DejaVuSans-32"/>
       <use xlink:href="#DejaVuSans-30" x="63.623047"/>
       <use xlink:href="#DejaVuSans-30" x="127.246094"/>
       <use xlink:href="#DejaVuSans-30" x="190.869141"/>
       <use xlink:href="#DejaVuSans-30" x="254.492188"/>
      </g>
     </g>
    </g>
    <g id="ytick_4">
     <g id="line2d_8">
      <g>
       <use xlink:href="#m717719c1d7" x="59.690625" y="157.627349" style="stroke: #000000; stroke-width: 0.8"/>
      </g>
     </g>
     <g id="text_9">
      <!-- 30000 -->
      <g transform="translate(20.878125 161.426568) scale(0.1 -0.1)">
       <defs>
        <path id="DejaVuSans-33" d="M 2597 2516 
Q 3050 2419 3304 2112 
Q 3559 1806 3559 1356 
Q 3559 666 3084 287 
Q 2609 -91 1734 -91 
Q 1441 -91 1130 -33 
Q 819 25 488 141 
L 488 750 
Q 750 597 1062 519 
Q 1375 441 1716 441 
Q 2309 441 2620 675 
Q 2931 909 2931 1356 
Q 2931 1769 2642 2001 
Q 2353 2234 1838 2234 
L 1294 2234 
L 1294 2753 
L 1863 2753 
Q 2328 2753 2575 2939 
Q 2822 3125 2822 3475 
Q 2822 3834 2567 4026 
Q 2313 4219 1838 4219 
Q 1578 4219 1281 4162 
Q 984 4106 628 3988 
L 628 4550 
Q 988 4650 1302 4700 
Q 1616 4750 1894 4750 
Q 2613 4750 3031 4423 
Q 3450 4097 3450 3541 
Q 3450 3153 3228 2886 
Q 3006 2619 2597 2516 
z
" transform="scale(0.015625)"/>
       </defs>
       <use xlink:href="#DejaVuSans-33"/>
       <use xlink:href="#DejaVuSans-30" x="63.623047"/>
       <use xlink:href="#DejaVuSans-30" x="127.246094"/>
       <use xlink:href="#DejaVuSans-30" x="190.869141"/>
       <use xlink:href="#DejaVuSans-30" x="254.492188"/>
      </g>
     </g>
    </g>
    <g id="ytick_5">
     <g id="line2d_9">
      <g>
       <use xlink:href="#m717719c1d7" x="59.690625" y="132.157689" style="stroke: #000000; stroke-width: 0.8"/>
      </g>
     </g>
     <g id="text_10">
      <!-- 40000 -->
      <g transform="translate(20.878125 135.956908) scale(0.1 -0.1)">
       <use xlink:href="#DejaVuSans-34"/>
       <use xlink:href="#DejaVuSans-30" x="63.623047"/>
       <use xlink:href="#DejaVuSans-30" x="127.246094"/>
       <use xlink:href="#DejaVuSans-30" x="190.869141"/>
       <use xlink:href="#DejaVuSans-30" x="254.492188"/>
      </g>
     </g>
    </g>
    <g id="ytick_6">
     <g id="line2d_10">
      <g>
       <use xlink:href="#m717719c1d7" x="59.690625" y="106.688029" style="stroke: #000000; stroke-width: 0.8"/>
      </g>
     </g>
     <g id="text_11">
      <!-- 50000 -->
      <g transform="translate(20.878125 110.487248) scale(0.1 -0.1)">
       <defs>
        <path id="DejaVuSans-35" d="M 691 4666 
L 3169 4666 
L 3169 4134 
L 1269 4134 
L 1269 2991 
Q 1406 3038 1543 3061 
Q 1681 3084 1819 3084 
Q 2600 3084 3056 2656 
Q 3513 2228 3513 1497 
Q 3513 744 3044 326 
Q 2575 -91 1722 -91 
Q 1428 -91 1123 -41 
Q 819 9 494 109 
L 494 744 
Q 775 591 1075 516 
Q 1375 441 1709 441 
Q 2250 441 2565 725 
Q 2881 1009 2881 1497 
Q 2881 1984 2565 2268 
Q 2250 2553 1709 2553 
Q 1456 2553 1204 2497 
Q 953 2441 691 2322 
L 691 4666 
z
" transform="scale(0.015625)"/>
       </defs>
       <use xlink:href="#DejaVuSans-35"/>
       <use xlink:href="#DejaVuSans-30" x="63.623047"/>
       <use xlink:href="#DejaVuSans-30" x="127.246094"/>
       <use xlink:href="#DejaVuSans-30" x="190.869141"/>
       <use xlink:href="#DejaVuSans-30" x="254.492188"/>
      </g>
     </g>
    </g>
    <g id="ytick_7">
     <g id="line2d_11">
      <g>
       <use xlink:href="#m717719c1d7" x="59.690625" y="81.218369" style="stroke: #000000; stroke-width: 0.8"/>
      </g>
     </g>
     <g id="text_12">
      <!-- 60000 -->
      <g transform="translate(20.878125 85.017588) scale(0.1 -0.1)">
       <use xlink:href="#DejaVuSans-36"/>
       <use xlink:href="#DejaVuSans-30" x="63.623047"/>
       <use xlink:href="#DejaVuSans-30" x="127.246094"/>
       <use xlink:href="#DejaVuSans-30" x="190.869141"/>
       <use xlink:href="#DejaVuSans-30" x="254.492188"/>
      </g>
     </g>
    </g>
    <g id="ytick_8">
     <g id="line2d_12">
      <g>
       <use xlink:href="#m717719c1d7" x="59.690625" y="55.748709" style="stroke: #000000; stroke-width: 0.8"/>
      </g>
     </g>
     <g id="text_13">
      <!-- 70000 -->
      <g transform="translate(20.878125 59.547928) scale(0.1 -0.1)">
       <defs>
        <path id="DejaVuSans-37" d="M 525 4666 
L 3525 4666 
L 3525 4397 
L 1831 0 
L 1172 0 
L 2766 4134 
L 525 4134 
L 525 4666 
z
" transform="scale(0.015625)"/>
       </defs>
       <use xlink:href="#DejaVuSans-37"/>
       <use xlink:href="#DejaVuSans-30" x="63.623047"/>
       <use xlink:href="#DejaVuSans-30" x="127.246094"/>
       <use xlink:href="#DejaVuSans-30" x="190.869141"/>
       <use xlink:href="#DejaVuSans-30" x="254.492188"/>
      </g>
     </g>
    </g>
    <g id="ytick_9">
     <g id="line2d_13">
      <g>
       <use xlink:href="#m717719c1d7" x="59.690625" y="30.279049" style="stroke: #000000; stroke-width: 0.8"/>
      </g>
     </g>
     <g id="text_14">
      <!-- 80000 -->
      <g transform="translate(20.878125 34.078268) scale(0.1 -0.1)">
       <use xlink:href="#DejaVuSans-38"/>
       <use xlink:href="#DejaVuSans-30" x="63.623047"/>
       <use xlink:href="#DejaVuSans-30" x="127.246094"/>
       <use xlink:href="#DejaVuSans-30" x="190.869141"/>
       <use xlink:href="#DejaVuSans-30" x="254.492188"/>
      </g>
     </g>
    </g>
    <g id="text_15">
     <!-- [counts] -->
     <g transform="translate(14.798438 153.810625) rotate(-90) scale(0.1 -0.1)">
      <defs>
       <path id="DejaVuSans-63" d="M 3122 3366 
L 3122 2828 
Q 2878 2963 2633 3030 
Q 2388 3097 2138 3097 
Q 1578 3097 1268 2742 
Q 959 2388 959 1747 
Q 959 1106 1268 751 
Q 1578 397 2138 397 
Q 2388 397 2633 464 
Q 2878 531 3122 666 
L 3122 134 
Q 2881 22 2623 -34 
Q 2366 -91 2075 -91 
Q 1284 -91 818 406 
Q 353 903 353 1747 
Q 353 2603 823 3093 
Q 1294 3584 2113 3584 
Q 2378 3584 2631 3529 
Q 2884 3475 3122 3366 
z
" transform="scale(0.015625)"/>
       <path id="DejaVuSans-6f" d="M 1959 3097 
Q 1497 3097 1228 2736 
Q 959 2375 959 1747 
Q 959 1119 1226 758 
Q 1494 397 1959 397 
Q 2419 397 2687 759 
Q 2956 1122 2956 1747 
Q 2956 2369 2687 2733 
Q 2419 3097 1959 3097 
z
M 1959 3584 
Q 2709 3584 3137 3096 
Q 3566 2609 3566 1747 
Q 3566 888 3137 398 
Q 2709 -91 1959 -91 
Q 1206 -91 779 398 
Q 353 888 353 1747 
Q 353 2609 779 3096 
Q 1206 3584 1959 3584 
z
" transform="scale(0.015625)"/>
       <path id="DejaVuSans-75" d="M 544 1381 
L 544 3500 
L 1119 3500 
L 1119 1403 
Q 1119 906 1312 657 
Q 1506 409 1894 409 
Q 2359 409 2629 706 
Q 2900 1003 2900 1516 
L 2900 3500 
L 3475 3500 
L 3475 0 
L 2900 0 
L 2900 538 
Q 2691 219 2414 64 
Q 2138 -91 1772 -91 
Q 1169 -91 856 284 
Q 544 659 544 1381 
z
M 1991 3584 
L 1991 3584 
z
" transform="scale(0.015625)"/>
       <path id="DejaVuSans-73" d="M 2834 3397 
L 2834 2853 
Q 2591 2978 2328 3040 
Q 2066 3103 1784 3103 
Q 1356 3103 1142 2972 
Q 928 2841 928 2578 
Q 928 2378 1081 2264 
Q 1234 2150 1697 2047 
L 1894 2003 
Q 2506 1872 2764 1633 
Q 3022 1394 3022 966 
Q 3022 478 2636 193 
Q 2250 -91 1575 -91 
Q 1294 -91 989 -36 
Q 684 19 347 128 
L 347 722 
Q 666 556 975 473 
Q 1284 391 1588 391 
Q 1994 391 2212 530 
Q 2431 669 2431 922 
Q 2431 1156 2273 1281 
Q 2116 1406 1581 1522 
L 1381 1569 
Q 847 1681 609 1914 
Q 372 2147 372 2553 
Q 372 3047 722 3315 
Q 1072 3584 1716 3584 
Q 2034 3584 2315 3537 
Q 2597 3491 2834 3397 
z
" transform="scale(0.015625)"/>
      </defs>
      <use xlink:href="#DejaVuSans-5b"/>
      <use xlink:href="#DejaVuSans-63" x="39.013672"/>
      <use xlink:href="#DejaVuSans-6f" x="93.994141"/>
      <use xlink:href="#DejaVuSans-75" x="155.175781"/>
      <use xlink:href="#DejaVuSans-6e" x="218.554688"/>
      <use xlink:href="#DejaVuSans-74" x="281.933594"/>
      <use xlink:href="#DejaVuSans-73" x="321.142578"/>
      <use xlink:href="#DejaVuSans-5d" x="373.242188"/>
     </g>
    </g>
   </g>
   <g id="patch_3">
    <path d="M 59.690625 244.078125 
L 59.690625 22.318125 
" style="fill: none; stroke: #000000; stroke-width: 0.8; stroke-linejoin: miter; stroke-linecap: square"/>
   </g>
   <g id="patch_4">
    <path d="M 394.490625 244.078125 
L 394.490625 22.318125 
" style="fill: none; stroke: #000000; stroke-width: 0.8; stroke-linejoin: miter; stroke-linecap: square"/>
   </g>
   <g id="patch_5">
    <path d="M 59.690625 244.078125 
L 394.490625 244.078125 
" style="fill: none; stroke: #000000; stroke-width: 0.8; stroke-linejoin: miter; stroke-linecap: square"/>
   </g>
   <g id="patch_6">
    <path d="M 59.690625 22.318125 
L 394.490625 22.318125 
" style="fill: none; stroke: #000000; stroke-width: 0.8; stroke-linejoin: miter; stroke-linecap: square"/>
   </g>
   <g id="text_16">
    <!-- ODIN McStas simulation -->
    <g transform="translate(154.959375 16.318125) scale(0.12 -0.12)">
     <defs>
      <path id="DejaVuSans-4f" d="M 2522 4238 
Q 1834 4238 1429 3725 
Q 1025 3213 1025 2328 
Q 1025 1447 1429 934 
Q 1834 422 2522 422 
Q 3209 422 3611 934 
Q 4013 1447 4013 2328 
Q 4013 3213 3611 3725 
Q 3209 4238 2522 4238 
z
M 2522 4750 
Q 3503 4750 4090 4092 
Q 4678 3434 4678 2328 
Q 4678 1225 4090 567 
Q 3503 -91 2522 -91 
Q 1538 -91 948 565 
Q 359 1222 359 2328 
Q 359 3434 948 4092 
Q 1538 4750 2522 4750 
z
" transform="scale(0.015625)"/>
      <path id="DejaVuSans-44" d="M 1259 4147 
L 1259 519 
L 2022 519 
Q 2988 519 3436 956 
Q 3884 1394 3884 2338 
Q 3884 3275 3436 3711 
Q 2988 4147 2022 4147 
L 1259 4147 
z
M 628 4666 
L 1925 4666 
Q 3281 4666 3915 4102 
Q 4550 3538 4550 2338 
Q 4550 1131 3912 565 
Q 3275 0 1925 0 
L 628 0 
L 628 4666 
z
" transform="scale(0.015625)"/>
      <path id="DejaVuSans-49" d="M 628 4666 
L 1259 4666 
L 1259 0 
L 628 0 
L 628 4666 
z
" transform="scale(0.015625)"/>
      <path id="DejaVuSans-4e" d="M 628 4666 
L 1478 4666 
L 3547 763 
L 3547 4666 
L 4159 4666 
L 4159 0 
L 3309 0 
L 1241 3903 
L 1241 0 
L 628 0 
L 628 4666 
z
" transform="scale(0.015625)"/>
      <path id="DejaVuSans-4d" d="M 628 4666 
L 1569 4666 
L 2759 1491 
L 3956 4666 
L 4897 4666 
L 4897 0 
L 4281 0 
L 4281 4097 
L 3078 897 
L 2444 897 
L 1241 4097 
L 1241 0 
L 628 0 
L 628 4666 
z
" transform="scale(0.015625)"/>
      <path id="DejaVuSans-53" d="M 3425 4513 
L 3425 3897 
Q 3066 4069 2747 4153 
Q 2428 4238 2131 4238 
Q 1616 4238 1336 4038 
Q 1056 3838 1056 3469 
Q 1056 3159 1242 3001 
Q 1428 2844 1947 2747 
L 2328 2669 
Q 3034 2534 3370 2195 
Q 3706 1856 3706 1288 
Q 3706 609 3251 259 
Q 2797 -91 1919 -91 
Q 1588 -91 1214 -16 
Q 841 59 441 206 
L 441 856 
Q 825 641 1194 531 
Q 1563 422 1919 422 
Q 2459 422 2753 634 
Q 3047 847 3047 1241 
Q 3047 1584 2836 1778 
Q 2625 1972 2144 2069 
L 1759 2144 
Q 1053 2284 737 2584 
Q 422 2884 422 3419 
Q 422 4038 858 4394 
Q 1294 4750 2059 4750 
Q 2388 4750 2728 4690 
Q 3069 4631 3425 4513 
z
" transform="scale(0.015625)"/>
      <path id="DejaVuSans-69" d="M 603 3500 
L 1178 3500 
L 1178 0 
L 603 0 
L 603 3500 
z
M 603 4863 
L 1178 4863 
L 1178 4134 
L 603 4134 
L 603 4863 
z
" transform="scale(0.015625)"/>
      <path id="DejaVuSans-6d" d="M 3328 2828 
Q 3544 3216 3844 3400 
Q 4144 3584 4550 3584 
Q 5097 3584 5394 3201 
Q 5691 2819 5691 2113 
L 5691 0 
L 5113 0 
L 5113 2094 
Q 5113 2597 4934 2840 
Q 4756 3084 4391 3084 
Q 3944 3084 3684 2787 
Q 3425 2491 3425 1978 
L 3425 0 
L 2847 0 
L 2847 2094 
Q 2847 2600 2669 2842 
Q 2491 3084 2119 3084 
Q 1678 3084 1418 2786 
Q 1159 2488 1159 1978 
L 1159 0 
L 581 0 
L 581 3500 
L 1159 3500 
L 1159 2956 
Q 1356 3278 1631 3431 
Q 1906 3584 2284 3584 
Q 2666 3584 2933 3390 
Q 3200 3197 3328 2828 
z
" transform="scale(0.015625)"/>
     </defs>
     <use xlink:href="#DejaVuSans-4f"/>
     <use xlink:href="#DejaVuSans-44" x="78.710938"/>
     <use xlink:href="#DejaVuSans-49" x="155.712891"/>
     <use xlink:href="#DejaVuSans-4e" x="185.205078"/>
     <use xlink:href="#DejaVuSans-20" x="260.009766"/>
     <use xlink:href="#DejaVuSans-4d" x="291.796875"/>
     <use xlink:href="#DejaVuSans-63" x="378.076172"/>
     <use xlink:href="#DejaVuSans-53" x="433.056641"/>
     <use xlink:href="#DejaVuSans-74" x="496.533203"/>
     <use xlink:href="#DejaVuSans-61" x="535.742188"/>
     <use xlink:href="#DejaVuSans-73" x="597.021484"/>
     <use xlink:href="#DejaVuSans-20" x="649.121094"/>
     <use xlink:href="#DejaVuSans-73" x="680.908203"/>
     <use xlink:href="#DejaVuSans-69" x="733.007812"/>
     <use xlink:href="#DejaVuSans-6d" x="760.791016"/>
     <use xlink:href="#DejaVuSans-75" x="858.203125"/>
     <use xlink:href="#DejaVuSans-6c" x="921.582031"/>
     <use xlink:href="#DejaVuSans-61" x="949.365234"/>
     <use xlink:href="#DejaVuSans-74" x="1010.644531"/>
     <use xlink:href="#DejaVuSans-69" x="1049.853516"/>
     <use xlink:href="#DejaVuSans-6f" x="1077.636719"/>
     <use xlink:href="#DejaVuSans-6e" x="1138.818359"/>
    </g>
   </g>
   <g id="legend_1">
    <g id="patch_7">
     <path d="M 334.051562 59.674375 
L 387.490625 59.674375 
Q 389.490625 59.674375 389.490625 57.674375 
L 389.490625 29.318125 
Q 389.490625 27.318125 387.490625 27.318125 
L 334.051562 27.318125 
Q 332.051562 27.318125 332.051562 29.318125 
L 332.051562 57.674375 
Q 332.051562 59.674375 334.051562 59.674375 
z
" style="fill: #ffffff; opacity: 0.8; stroke: #cccccc; stroke-linejoin: miter"/>
    </g>
    <g id="line2d_14">
     <path d="M 336.051562 35.416563 
L 336.051562 35.416563 
L 346.051562 35.416563 
L 346.051562 35.416563 
L 356.051562 35.416563 
" style="fill: none; stroke: #1f77b4; stroke-width: 1.5; stroke-linecap: square"/>
    </g>
    <g id="text_17">
     <!-- true -->
     <g transform="translate(364.051562 38.916563) scale(0.1 -0.1)">
      <defs>
       <path id="DejaVuSans-72" d="M 2631 2963 
Q 2534 3019 2420 3045 
Q 2306 3072 2169 3072 
Q 1681 3072 1420 2755 
Q 1159 2438 1159 1844 
L 1159 0 
L 581 0 
L 581 3500 
L 1159 3500 
L 1159 2956 
Q 1341 3275 1631 3429 
Q 1922 3584 2338 3584 
Q 2397 3584 2469 3576 
Q 2541 3569 2628 3553 
L 2631 2963 
z
" transform="scale(0.015625)"/>
      </defs>
      <use xlink:href="#DejaVuSans-74"/>
      <use xlink:href="#DejaVuSans-72" x="39.208984"/>
      <use xlink:href="#DejaVuSans-75" x="80.322266"/>
      <use xlink:href="#DejaVuSans-65" x="143.701172"/>
     </g>
    </g>
    <g id="line2d_15">
     <path d="M 336.051562 50.094688 
L 336.051562 50.094688 
L 346.051562 50.094688 
L 346.051562 50.094688 
L 356.051562 50.094688 
" style="fill: none; stroke: #ff7f0e; stroke-width: 1.5; stroke-linecap: square"/>
    </g>
    <g id="text_18">
     <!-- wfm -->
     <g transform="translate(364.051562 53.594688) scale(0.1 -0.1)">
      <defs>
       <path id="DejaVuSans-66" d="M 2375 4863 
L 2375 4384 
L 1825 4384 
Q 1516 4384 1395 4259 
Q 1275 4134 1275 3809 
L 1275 3500 
L 2222 3500 
L 2222 3053 
L 1275 3053 
L 1275 0 
L 697 0 
L 697 3053 
L 147 3053 
L 147 3500 
L 697 3500 
L 697 3744 
Q 697 4328 969 4595 
Q 1241 4863 1831 4863 
L 2375 4863 
z
" transform="scale(0.015625)"/>
      </defs>
      <use xlink:href="#DejaVuSans-77"/>
      <use xlink:href="#DejaVuSans-66" x="81.787109"/>
      <use xlink:href="#DejaVuSans-6d" x="116.992188"/>
     </g>
    </g>
   </g>
   <g id="line2d_16">
    <path d="M 74.908807 232.205061 
L 75.923352 232.205061 
L 75.923352 224.390969 
L 76.937898 224.390969 
L 76.937898 214.159807 
L 77.952443 214.159807 
L 77.952443 204.960166 
L 78.966989 204.960166 
L 78.966989 180.353927 
L 79.981534 180.353927 
L 79.981534 176.612434 
L 80.99608 176.612434 
L 80.99608 171.480298 
L 82.010625 171.480298 
L 82.010625 161.317903 
L 83.02517 161.317903 
L 83.02517 146.935186 
L 84.039716 146.935186 
L 84.039716 141.853989 
L 85.054261 141.853989 
L 85.054261 136.887405 
L 86.068807 136.887405 
L 86.068807 144.237949 
L 87.083352 144.237949 
L 87.083352 144.082584 
L 88.097898 144.082584 
L 88.097898 140.66965 
L 89.112443 140.66965 
L 89.112443 137.305108 
L 90.126989 137.305108 
L 90.126989 138.958089 
L 91.141534 138.958089 
L 91.141534 142.987389 
L 92.15608 142.987389 
L 92.15608 152.579263 
L 93.170625 152.579263 
L 93.170625 133.336935 
L 94.18517 133.336935 
L 94.18517 146.311179 
L 95.199716 146.311179 
L 95.199716 132.104203 
L 96.214261 132.104203 
L 96.214261 143.015405 
L 97.228807 143.015405 
L 97.228807 124.654328 
L 98.243352 124.654328 
L 98.243352 134.676639 
L 99.257898 134.676639 
L 99.257898 137.931661 
L 100.272443 137.931661 
L 100.272443 145.837444 
L 101.286989 145.837444 
L 101.286989 155.992197 
L 102.301534 155.992197 
L 102.301534 140.353826 
L 103.31608 140.353826 
L 103.31608 152.61492 
L 104.330625 152.61492 
L 104.330625 147.778232 
L 105.34517 147.778232 
L 105.34517 148.962571 
L 106.359716 148.962571 
L 106.359716 161.106505 
L 107.374261 161.106505 
L 107.374261 150.508579 
L 108.388807 150.508579 
L 108.388807 147.953973 
L 109.403352 147.953973 
L 109.403352 144.428972 
L 110.417898 144.428972 
L 110.417898 148.038022 
L 111.432443 148.038022 
L 111.432443 152.788114 
L 112.446989 152.788114 
L 112.446989 148.514305 
L 113.461534 148.514305 
L 113.461534 150.737806 
L 114.47608 150.737806 
L 114.47608 156.221424 
L 115.490625 156.221424 
L 115.490625 149.561108 
L 116.50517 149.561108 
L 116.50517 153.241474 
L 117.519716 153.241474 
L 117.519716 146.031013 
L 118.534261 146.031013 
L 118.534261 149.871838 
L 120.563352 149.848915 
L 120.563352 158.753108 
L 121.577898 158.753108 
L 121.577898 146.736523 
L 122.592443 146.736523 
L 122.592443 147.291761 
L 123.606989 147.291761 
L 123.606989 145.755941 
L 124.621534 145.755941 
L 124.621534 149.449042 
L 125.63608 149.449042 
L 125.63608 145.9164 
L 126.650625 145.9164 
L 126.650625 150.844779 
L 127.66517 150.844779 
L 127.66517 148.92182 
L 128.679716 148.92182 
L 128.679716 163.831759 
L 129.694261 163.831759 
L 129.694261 164.4685 
L 130.708807 164.4685 
L 130.708807 146.553141 
L 131.723352 146.553141 
L 131.723352 134.572213 
L 132.737898 134.572213 
L 132.737898 119.746324 
L 133.752443 119.746324 
L 133.752443 117.451508 
L 134.766989 117.451508 
L 134.766989 100.404664 
L 135.781534 100.404664 
L 135.781534 80.354948 
L 136.79608 80.354948 
L 136.79608 60.88594 
L 137.810625 60.88594 
L 137.810625 66.084297 
L 138.82517 66.084297 
L 138.82517 45.912327 
L 139.839716 45.912327 
L 139.839716 55.01773 
L 140.854261 55.01773 
L 140.854261 79.896494 
L 141.868807 79.896494 
L 141.868807 76.282349 
L 142.883352 76.282349 
L 142.883352 58.038432 
L 143.897898 58.038432 
L 143.897898 67.976693 
L 144.912443 67.976693 
L 144.912443 32.398125 
L 145.926989 32.398125 
L 145.926989 53.902159 
L 146.941534 53.902159 
L 146.941534 50.947678 
L 147.95608 50.947678 
L 147.95608 51.795818 
L 148.970625 51.795818 
L 148.970625 62.931153 
L 149.98517 62.931153 
L 149.98517 50.254904 
L 150.999716 50.254904 
L 150.999716 59.087782 
L 152.014261 59.087782 
L 152.014261 68.949634 
L 153.028807 68.949634 
L 153.028807 56.072174 
L 154.043352 56.072174 
L 154.043352 60.274668 
L 155.057898 60.274668 
L 155.057898 55.860776 
L 156.072443 55.860776 
L 156.072443 52.745836 
L 157.086989 52.745836 
L 157.086989 75.569199 
L 158.101534 75.569199 
L 158.101534 71.585744 
L 159.11608 71.585744 
L 159.11608 58.310957 
L 160.130625 58.310957 
L 160.130625 75.380723 
L 161.14517 75.380723 
L 161.14517 56.584114 
L 162.159716 56.584114 
L 162.159716 73.233631 
L 163.174261 73.233631 
L 163.174261 66.033358 
L 164.188807 66.033358 
L 164.188807 75.683812 
L 165.203352 75.683812 
L 165.203352 80.614738 
L 166.217898 80.614738 
L 166.217898 84.924205 
L 167.232443 84.924205 
L 167.232443 83.984374 
L 168.246989 83.984374 
L 168.246989 91.571786 
L 169.261534 91.571786 
L 169.261534 82.733814 
L 170.27608 82.733814 
L 170.27608 109.66798 
L 171.290625 109.66798 
L 171.290625 95.071317 
L 172.30517 95.071317 
L 172.30517 88.413548 
L 173.319716 88.413548 
L 173.319716 91.411327 
L 174.334261 91.411327 
L 174.334261 117.805536 
L 175.348807 117.805536 
L 175.348807 113.934148 
L 176.363352 113.934148 
L 176.363352 108.980299 
L 177.377898 108.980299 
L 177.377898 133.364951 
L 178.392443 133.364951 
L 178.392443 130.812891 
L 179.406989 130.812891 
L 179.406989 140.692572 
L 180.421534 140.692572 
L 180.421534 151.211542 
L 181.43608 151.211542 
L 181.43608 147.892845 
L 182.450625 147.892845 
L 182.450625 155.149151 
L 183.46517 155.149151 
L 183.46517 150.421983 
L 184.479716 150.421983 
L 184.479716 146.418152 
L 185.494261 146.418152 
L 185.494261 141.530524 
L 186.508807 141.530524 
L 186.508807 117.739315 
L 187.523352 117.739315 
L 187.523352 64.99929 
L 188.537898 64.99929 
L 188.537898 61.532869 
L 189.552443 61.532869 
L 189.552443 49.641085 
L 190.566989 49.641085 
L 190.566989 58.063901 
L 191.581534 58.063901 
L 191.581534 62.444683 
L 192.59608 62.444683 
L 192.59608 52.379073 
L 193.610625 52.379073 
L 193.610625 74.395047 
L 194.62517 74.395047 
L 194.62517 62.928606 
L 195.639716 62.928606 
L 195.639716 51.816194 
L 196.654261 51.816194 
L 196.654261 58.438305 
L 197.668807 58.438305 
L 197.668807 60.804437 
L 198.683352 60.804437 
L 198.683352 66.254944 
L 199.697898 66.254944 
L 199.697898 64.472068 
L 200.712443 64.472068 
L 200.712443 60.82736 
L 201.726989 60.82736 
L 201.726989 54.903117 
L 202.741534 54.903117 
L 202.741534 67.401079 
L 204.770625 67.306841 
L 204.770625 67.24062 
L 205.78517 67.24062 
L 205.78517 75.581934 
L 206.799716 75.581934 
L 206.799716 78.620464 
L 207.814261 78.620464 
L 207.814261 78.740171 
L 208.828807 78.740171 
L 208.828807 72.263237 
L 209.843352 72.263237 
L 209.843352 79.988185 
L 210.857898 79.988185 
L 210.857898 84.603287 
L 211.872443 84.603287 
L 211.872443 83.477528 
L 212.886989 83.477528 
L 212.886989 87.46353 
L 213.901534 87.46353 
L 213.901534 97.149642 
L 214.91608 97.149642 
L 214.91608 94.230819 
L 215.930625 94.230819 
L 215.930625 103.117183 
L 216.94517 103.117183 
L 216.94517 98.232102 
L 217.959716 98.232102 
L 217.959716 106.043647 
L 218.974261 106.043647 
L 218.974261 109.308857 
L 219.988807 109.308857 
L 219.988807 99.961492 
L 221.003352 99.961492 
L 221.003352 97.39415 
L 222.017898 97.39415 
L 222.017898 113.766048 
L 223.032443 113.766048 
L 223.032443 112.3372 
L 224.046989 112.3372 
L 224.046989 118.455012 
L 225.061534 118.455012 
L 225.061534 130.334062 
L 226.07608 130.334062 
L 226.07608 127.529852 
L 227.090625 127.529852 
L 227.090625 128.798241 
L 228.10517 128.798241 
L 228.10517 138.255126 
L 229.119716 138.255126 
L 229.119716 148.621278 
L 230.134261 148.621278 
L 230.134261 148.030382 
L 231.148807 148.030382 
L 231.148807 161.929175 
L 232.163352 161.929175 
L 232.163352 167.122439 
L 233.177898 167.122439 
L 233.177898 173.640125 
L 234.192443 173.640125 
L 234.192443 172.814908 
L 235.206989 172.814908 
L 235.206989 166.495885 
L 236.221534 166.495885 
L 236.221534 154.397797 
L 237.23608 154.397797 
L 237.23608 141.20706 
L 238.250625 141.20706 
L 238.250625 136.84156 
L 239.26517 136.84156 
L 239.26517 133.44136 
L 240.279716 133.44136 
L 240.279716 127.621543 
L 241.294261 127.621543 
L 241.294261 131.803661 
L 242.308807 131.803661 
L 242.308807 137.654042 
L 243.323352 137.654042 
L 243.323352 131.910634 
L 244.337898 131.910634 
L 244.337898 136.67346 
L 245.352443 136.67346 
L 245.352443 130.593852 
L 246.366989 130.593852 
L 246.366989 136.057094 
L 247.381534 136.057094 
L 247.381534 135.198767 
L 248.39608 135.198767 
L 248.39608 139.467482 
L 249.410625 139.467482 
L 249.410625 138.835834 
L 250.42517 138.835834 
L 250.42517 137.603103 
L 251.439716 137.603103 
L 251.439716 139.617753 
L 252.454261 139.617753 
L 252.454261 143.366887 
L 253.468807 143.366887 
L 253.468807 140.374202 
L 254.483352 140.374202 
L 254.483352 145.964792 
L 255.497898 145.964792 
L 255.497898 141.527977 
L 256.512443 141.527977 
L 256.512443 148.947289 
L 257.526989 148.947289 
L 257.526989 141.808144 
L 258.541534 141.808144 
L 258.541534 148.61109 
L 259.55608 148.61109 
L 259.55608 150.753088 
L 260.570625 150.753088 
L 260.570625 147.184789 
L 261.58517 147.184789 
L 261.58517 158.404174 
L 262.599716 158.404174 
L 262.599716 156.679878 
L 263.614261 156.679878 
L 263.614261 155.088024 
L 264.628807 155.088024 
L 264.628807 157.935532 
L 265.643352 157.935532 
L 265.643352 158.842252 
L 266.657898 158.842252 
L 266.657898 159.512104 
L 267.672443 159.512104 
L 267.672443 163.312178 
L 268.686989 163.312178 
L 268.686989 165.25806 
L 269.701534 165.25806 
L 269.701534 167.229411 
L 270.71608 167.229411 
L 270.71608 168.91805 
L 271.730625 168.91805 
L 271.730625 169.702515 
L 272.74517 169.702515 
L 272.74517 170.812992 
L 273.759716 170.812992 
L 273.759716 172.960085 
L 274.774261 172.960085 
L 274.774261 174.982376 
L 275.788807 174.982376 
L 275.788807 180.323363 
L 276.803352 180.323363 
L 276.803352 184.133625 
L 277.817898 184.133625 
L 277.817898 183.430662 
L 278.832443 183.430662 
L 278.832443 189.487347 
L 279.846989 189.487347 
L 279.846989 199.023188 
L 280.861534 199.023188 
L 280.861534 203.32756 
L 281.87608 203.32756 
L 281.87608 206.182709 
L 282.890625 206.182709 
L 282.890625 204.888851 
L 283.90517 204.888851 
L 283.90517 199.988488 
L 284.919716 199.988488 
L 284.919716 191.491809 
L 285.934261 191.491809 
L 285.934261 184.38068 
L 286.948807 184.38068 
L 286.948807 178.828294 
L 287.963352 178.828294 
L 287.963352 175.912018 
L 288.977898 175.912018 
L 288.977898 176.953727 
L 289.992443 176.953727 
L 289.992443 178.604161 
L 291.006989 178.604161 
L 291.006989 175.937488 
L 292.021534 175.937488 
L 292.021534 179.289295 
L 293.03608 179.289295 
L 293.03608 180.555137 
L 294.050625 180.555137 
L 294.050625 178.038735 
L 295.06517 178.038735 
L 295.06517 176.958821 
L 296.079716 176.958821 
L 296.079716 180.822569 
L 297.094261 180.822569 
L 297.094261 180.654469 
L 298.108807 180.654469 
L 298.108807 181.255553 
L 300.137898 181.301398 
L 300.137898 181.107829 
L 301.152443 181.107829 
L 301.152443 182.317638 
L 302.166989 182.317638 
L 302.166989 185.160052 
L 303.181534 185.160052 
L 303.181534 182.378765 
L 304.19608 182.378765 
L 304.19608 186.033661 
L 305.210625 186.033661 
L 305.210625 188.970313 
L 306.22517 188.970313 
L 306.22517 188.616285 
L 307.239716 188.616285 
L 307.239716 187.712112 
L 309.268807 187.819084 
L 309.268807 190.144464 
L 310.283352 190.144464 
L 310.283352 189.512817 
L 311.297898 189.512817 
L 311.297898 190.02221 
L 313.326989 190.124089 
L 313.326989 191.069013 
L 314.341534 191.069013 
L 314.341534 194.525246 
L 315.35608 194.525246 
L 315.35608 193.96746 
L 316.370625 193.96746 
L 316.370625 194.92512 
L 317.38517 194.92512 
L 317.38517 195.750337 
L 318.399716 195.750337 
L 318.399716 197.642732 
L 319.414261 197.642732 
L 319.414261 200.981805 
L 320.428807 200.981805 
L 320.428807 200.123477 
L 321.443352 200.123477 
L 321.443352 201.939464 
L 322.457898 201.939464 
L 322.457898 203.403969 
L 323.472443 203.403969 
L 323.472443 206.437406 
L 324.486989 206.437406 
L 324.486989 211.4371 
L 325.501534 211.4371 
L 325.501534 216.821386 
L 326.51608 216.821386 
L 326.51608 221.933147 
L 327.530625 221.933147 
L 327.530625 223.978361 
L 329.559716 224.052223 
L 329.559716 221.665716 
L 330.574261 221.665716 
L 330.574261 218.288439 
L 331.588807 218.288439 
L 331.588807 213.171584 
L 332.603352 213.171584 
L 332.603352 211.347956 
L 333.617898 211.347956 
L 333.617898 207.794939 
L 334.632443 207.794939 
L 334.632443 207.955398 
L 335.646989 207.955398 
L 335.646989 205.996781 
L 336.661534 205.996781 
L 336.661534 206.730307 
L 337.67608 206.730307 
L 337.67608 206.15724 
L 338.690625 206.15724 
L 338.690625 205.673316 
L 339.70517 205.673316 
L 339.70517 206.302417 
L 340.719716 206.302417 
L 340.719716 205.843963 
L 341.734261 205.843963 
L 341.734261 207.244794 
L 342.748807 207.244794 
L 342.748807 205.36768 
L 343.763352 205.36768 
L 343.763352 206.778699 
L 344.777898 206.778699 
L 344.777898 207.545336 
L 345.792443 207.545336 
L 345.792443 206.152146 
L 346.806989 206.152146 
L 346.806989 208.115856 
L 347.821534 208.115856 
L 347.821534 207.657403 
L 348.83608 207.657403 
L 348.83608 207.002832 
L 349.850625 207.002832 
L 349.850625 208.143873 
L 350.86517 208.143873 
L 350.86517 207.614104 
L 351.879716 207.614104 
L 351.879716 208.915604 
L 352.894261 208.915604 
L 352.894261 207.025755 
L 353.908807 207.025755 
L 353.908807 209.368964 
L 354.923352 209.368964 
L 354.923352 210.35464 
L 355.937898 210.35464 
L 355.937898 209.172847 
L 356.952443 209.172847 
L 356.952443 210.015893 
L 357.966989 210.015893 
L 357.966989 210.451424 
L 358.981534 210.451424 
L 358.981534 210.999022 
L 359.99608 210.999022 
L 359.99608 211.66378 
L 361.010625 211.66378 
L 361.010625 211.798769 
L 362.02517 211.798769 
L 362.02517 212.183361 
L 363.039716 212.183361 
L 363.039716 212.7386 
L 364.054261 212.7386 
L 364.054261 214.070663 
L 365.068807 214.070663 
L 365.068807 213.528159 
L 366.083352 213.528159 
L 366.083352 214.684482 
L 367.097898 214.684482 
L 367.097898 216.126065 
L 369.126989 216.156628 
L 369.126989 218.036289 
L 370.141534 218.036289 
L 370.141534 219.386181 
L 371.15608 219.386181 
L 371.15608 221.298953 
L 372.170625 221.298953 
L 372.170625 224.711887 
L 373.18517 224.711887 
L 373.18517 227.162068 
L 374.199716 227.162068 
L 374.199716 229.627531 
L 375.214261 229.627531 
L 375.214261 231.013081 
L 376.228807 231.013081 
L 376.228807 232.846896 
L 377.243352 232.846896 
L 377.243352 233.654285 
L 378.257898 233.654285 
L 378.257898 233.998125 
L 379.272443 233.998125 
L 379.272443 233.998125 
" clip-path="url(#pa87b946d24)" style="fill: none; stroke: #1f77b4; stroke-width: 1.5; stroke-linecap: square"/>
   </g>
   <g id="line2d_17">
    <path d="M 74.908807 234.036329 
L 76.937898 234.036329 
L 76.937898 228.145197 
L 77.952443 228.145197 
L 77.952443 203.312279 
L 78.966989 203.312279 
L 78.966989 183.777049 
L 79.981534 183.777049 
L 79.981534 175.463752 
L 80.99608 175.463752 
L 80.99608 168.849282 
L 82.010625 168.849282 
L 82.010625 160.762665 
L 83.02517 160.762665 
L 83.02517 151.917052 
L 84.039716 151.917052 
L 84.039716 141.227435 
L 85.054261 141.227435 
L 85.054261 136.054547 
L 86.068807 136.054547 
L 86.068807 149.848915 
L 87.083352 149.848915 
L 87.083352 142.442338 
L 88.097898 142.442338 
L 88.097898 134.462694 
L 89.112443 134.462694 
L 89.112443 137.97496 
L 90.126989 137.97496 
L 90.126989 139.363056 
L 91.141534 139.363056 
L 91.141534 145.666797 
L 92.15608 145.666797 
L 92.15608 146.066671 
L 93.170625 146.066671 
L 93.170625 142.045011 
L 94.18517 142.045011 
L 94.18517 142.23094 
L 95.199716 142.23094 
L 95.199716 136.752416 
L 96.214261 136.752416 
L 96.214261 139.808775 
L 97.228807 139.808775 
L 97.228807 124.886101 
L 98.243352 124.886101 
L 98.243352 133.173929 
L 99.257898 133.173929 
L 99.257898 139.179675 
L 100.272443 139.179675 
L 100.272443 145.014774 
L 101.286989 145.014774 
L 101.286989 153.786525 
L 102.301534 153.786525 
L 102.301534 141.110275 
L 103.31608 141.110275 
L 103.31608 154.62957 
L 104.330625 154.62957 
L 104.330625 145.921494 
L 105.34517 145.921494 
L 105.34517 150.001733 
L 106.359716 150.001733 
L 106.359716 163.332553 
L 107.374261 163.332553 
L 107.374261 148.101697 
L 108.388807 148.101697 
L 108.388807 147.031971 
L 109.403352 147.031971 
L 109.403352 145.46304 
L 110.417898 145.46304 
L 110.417898 147.780779 
L 111.432443 147.780779 
L 111.432443 153.893497 
L 112.446989 153.893497 
L 112.446989 147.724746 
L 113.461534 147.724746 
L 113.461534 150.725072 
L 114.47608 150.725072 
L 114.47608 156.476121 
L 115.490625 156.476121 
L 115.490625 147.294308 
L 116.50517 147.294308 
L 116.50517 151.812626 
L 117.519716 151.812626 
L 117.519716 148.626372 
L 118.534261 148.626372 
L 118.534261 149.691003 
L 119.548807 149.691003 
L 119.548807 151.47388 
L 120.563352 151.47388 
L 120.563352 152.316925 
L 121.577898 152.316925 
L 121.577898 152.194671 
L 122.592443 152.194671 
L 122.592443 148.320736 
L 123.606989 148.320736 
L 123.606989 144.989304 
L 124.621534 144.989304 
L 124.621534 148.399692 
L 125.63608 148.399692 
L 125.63608 142.368476 
L 126.650625 142.368476 
L 126.650625 152.762644 
L 127.66517 152.762644 
L 127.66517 148.628919 
L 128.679716 148.628919 
L 128.679716 167.417887 
L 129.694261 167.417887 
L 129.694261 184.742349 
L 130.708807 184.742349 
L 130.708807 186.385143 
L 131.723352 186.385143 
L 131.723352 139.36815 
L 132.737898 139.36815 
L 132.737898 132.239192 
L 133.752443 132.239192 
L 133.752443 124.50151 
L 134.766989 124.50151 
L 134.766989 108.743431 
L 135.781534 108.743431 
L 135.781534 74.280434 
L 136.79608 74.280434 
L 136.79608 65.959496 
L 137.810625 65.959496 
L 137.810625 58.303316 
L 138.82517 58.303316 
L 138.82517 52.328134 
L 139.839716 52.328134 
L 139.839716 58.833085 
L 140.854261 58.833085 
L 140.854261 74.652291 
L 141.868807 74.652291 
L 141.868807 71.162948 
L 142.883352 71.162948 
L 142.883352 68.778987 
L 143.897898 68.778987 
L 143.897898 58.889118 
L 144.912443 58.889118 
L 144.912443 43.828908 
L 145.926989 43.828908 
L 145.926989 52.188051 
L 146.941534 52.188051 
L 146.941534 48.716536 
L 147.95608 48.716536 
L 147.95608 47.150152 
L 148.970625 47.150152 
L 148.970625 66.44342 
L 149.98517 66.44342 
L 149.98517 45.06164 
L 150.999716 45.06164 
L 150.999716 60.175336 
L 152.014261 60.175336 
L 152.014261 65.832148 
L 153.028807 65.832148 
L 153.028807 61.02857 
L 154.043352 61.02857 
L 154.043352 63.669774 
L 155.057898 63.669774 
L 155.057898 55.860776 
L 156.072443 55.860776 
L 156.072443 49.236117 
L 157.086989 49.236117 
L 157.086989 78.786017 
L 158.101534 78.786017 
L 158.101534 66.252397 
L 159.11608 66.252397 
L 159.11608 59.401059 
L 160.130625 59.401059 
L 160.130625 81.748138 
L 161.14517 81.748138 
L 161.14517 54.470132 
L 162.159716 54.470132 
L 162.159716 69.413182 
L 163.174261 69.413182 
L 163.174261 74.018096 
L 164.188807 74.018096 
L 164.188807 74.61918 
L 165.203352 74.61918 
L 165.203352 75.599762 
L 166.217898 75.599762 
L 166.217898 83.74496 
L 167.232443 83.74496 
L 167.232443 90.649784 
L 168.246989 90.649784 
L 168.246989 85.751969 
L 169.261534 85.751969 
L 169.261534 92.595666 
L 170.27608 92.595666 
L 170.27608 103.593466 
L 171.290625 103.593466 
L 171.290625 89.490915 
L 172.30517 89.490915 
L 172.30517 94.760588 
L 173.319716 94.760588 
L 173.319716 91.500471 
L 174.334261 91.500471 
L 174.334261 117.372552 
L 175.348807 117.372552 
L 175.348807 111.868558 
L 176.363352 111.868558 
L 176.363352 116.603368 
L 177.377898 116.603368 
L 177.377898 125.683302 
L 178.392443 125.683302 
L 178.392443 133.703698 
L 179.406989 133.703698 
L 179.406989 137.103897 
L 180.421534 137.103897 
L 180.421534 151.351625 
L 181.43608 151.351625 
L 181.43608 161.29498 
L 182.450625 161.29498 
L 182.450625 179.240903 
L 183.46517 179.240903 
L 183.46517 158.765843 
L 184.479716 158.765843 
L 184.479716 149.01351 
L 185.494261 149.01351 
L 185.494261 145.43757 
L 186.508807 145.43757 
L 186.508807 130.29331 
L 187.523352 130.29331 
L 187.523352 61.927649 
L 188.537898 61.927649 
L 188.537898 70.294432 
L 189.552443 70.294432 
L 189.552443 52.567549 
L 190.566989 52.567549 
L 190.566989 47.715579 
L 191.581534 47.715579 
L 191.581534 78.885348 
L 192.59608 78.885348 
L 192.59608 46.857251 
L 193.610625 46.857251 
L 193.610625 64.678372 
L 194.62517 64.678372 
L 194.62517 61.08715 
L 195.639716 61.08715 
L 195.639716 62.060091 
L 196.654261 62.060091 
L 196.654261 56.846452 
L 197.668807 56.846452 
L 197.668807 52.572643 
L 198.683352 52.572643 
L 198.683352 69.639862 
L 199.697898 69.639862 
L 199.697898 70.814013 
L 200.712443 70.814013 
L 200.712443 58.420477 
L 201.726989 58.420477 
L 201.726989 52.053062 
L 202.741534 52.053062 
L 202.741534 71.341235 
L 203.75608 71.341235 
L 203.75608 66.002794 
L 204.770625 66.002794 
L 204.770625 65.391523 
L 205.78517 65.391523 
L 205.78517 75.255922 
L 206.799716 75.255922 
L 206.799716 76.358758 
L 207.814261 76.358758 
L 207.814261 75.273751 
L 208.828807 75.273751 
L 208.828807 78.391237 
L 209.843352 78.391237 
L 209.843352 83.18208 
L 210.857898 83.18208 
L 210.857898 81.582585 
L 211.872443 81.582585 
L 211.872443 85.604245 
L 212.886989 85.604245 
L 212.886989 86.027041 
L 213.901534 86.027041 
L 213.901534 97.279537 
L 214.91608 97.279537 
L 214.91608 97.883168 
L 215.930625 97.883168 
L 215.930625 96.892398 
L 216.94517 96.892398 
L 216.94517 103.458476 
L 217.959716 103.458476 
L 217.959716 102.829376 
L 218.974261 102.829376 
L 218.974261 105.735464 
L 219.988807 105.735464 
L 219.988807 102.116225 
L 221.003352 102.116225 
L 221.003352 99.026756 
L 222.017898 99.026756 
L 222.017898 111.911857 
L 224.046989 111.871105 
L 224.046989 121.687112 
L 225.061534 121.687112 
L 225.061534 129.340745 
L 226.07608 129.340745 
L 226.07608 128.617407 
L 227.090625 128.617407 
L 227.090625 128.851728 
L 228.10517 128.851728 
L 228.10517 135.703066 
L 229.119716 135.703066 
L 229.119716 150.139269 
L 230.134261 150.139269 
L 230.134261 147.755309 
L 231.148807 147.755309 
L 231.148807 160.800869 
L 232.163352 160.800869 
L 232.163352 176.108135 
L 233.177898 176.108135 
L 233.177898 189.42622 
L 234.192443 189.42622 
L 234.192443 187.824178 
L 235.206989 187.824178 
L 235.206989 178.262868 
L 236.221534 178.262868 
L 236.221534 165.757265 
L 237.23608 165.757265 
L 237.23608 148.41752 
L 238.250625 148.41752 
L 238.250625 130.046255 
L 239.26517 130.046255 
L 239.26517 132.032888 
L 240.279716 132.032888 
L 240.279716 134.202903 
L 241.294261 134.202903 
L 241.294261 131.490384 
L 243.323352 131.523495 
L 243.323352 134.274218 
L 244.337898 134.274218 
L 244.337898 140.218837 
L 245.352443 140.218837 
L 245.352443 128.805882 
L 246.366989 128.805882 
L 246.366989 134.34808 
L 247.381534 134.34808 
L 247.381534 136.291415 
L 248.39608 136.291415 
L 248.39608 138.339176 
L 250.42517 138.239844 
L 250.42517 138.17617 
L 251.439716 138.17617 
L 251.439716 138.517463 
L 252.454261 138.517463 
L 252.454261 143.22171 
L 253.468807 143.22171 
L 253.468807 142.006807 
L 254.483352 142.006807 
L 254.483352 144.772812 
L 255.497898 144.772812 
L 255.497898 142.607891 
L 256.512443 142.607891 
L 256.512443 147.571928 
L 257.526989 147.571928 
L 257.526989 142.730145 
L 258.541534 142.730145 
L 258.541534 149.026245 
L 259.55608 149.026245 
L 259.55608 150.65121 
L 260.570625 150.65121 
L 260.570625 147.408922 
L 261.58517 147.408922 
L 261.58517 159.025634 
L 262.599716 159.025634 
L 262.599716 155.118588 
L 263.614261 155.118588 
L 263.614261 157.044094 
L 264.628807 157.044094 
L 264.628807 156.13228 
L 265.643352 156.13228 
L 265.643352 160.836527 
L 266.657898 160.836527 
L 266.657898 157.713946 
L 267.672443 157.713946 
L 267.672443 164.381903 
L 268.686989 164.381903 
L 268.686989 165.522944 
L 269.701534 165.522944 
L 269.701534 166.933963 
L 270.71608 166.933963 
L 270.71608 168.986818 
L 271.730625 168.986818 
L 271.730625 170.094748 
L 273.759716 170.069278 
L 273.759716 173.571357 
L 274.774261 173.571357 
L 274.774261 175.922206 
L 275.788807 175.922206 
L 275.788807 179.628042 
L 276.803352 179.628042 
L 276.803352 183.848364 
L 277.817898 183.848364 
L 277.817898 182.704777 
L 278.832443 182.704777 
L 278.832443 187.561841 
L 279.846989 187.561841 
L 279.846989 202.945515 
L 280.861534 202.945515 
L 280.861534 207.937569 
L 281.87608 207.937569 
L 281.87608 217.947145 
L 282.890625 217.947145 
L 282.890625 219.959248 
L 283.90517 219.959248 
L 283.90517 204.995823 
L 284.919716 204.995823 
L 284.919716 193.042912 
L 285.934261 193.042912 
L 285.934261 184.958842 
L 286.948807 184.958842 
L 286.948807 178.807919 
L 287.963352 178.807919 
L 287.963352 175.336404 
L 288.977898 175.336404 
L 288.977898 176.136151 
L 289.992443 176.136151 
L 289.992443 178.415686 
L 291.006989 178.415686 
L 291.006989 175.815234 
L 292.021534 175.815234 
L 292.021534 180.249501 
L 293.03608 180.249501 
L 293.03608 180.129794 
L 294.050625 180.129794 
L 294.050625 176.867131 
L 295.06517 176.867131 
L 295.06517 177.916481 
L 296.079716 177.916481 
L 296.079716 180.476181 
L 297.094261 180.476181 
L 297.094261 178.993847 
L 298.108807 178.993847 
L 298.108807 182.455174 
L 299.123352 182.455174 
L 299.123352 181.319227 
L 300.137898 181.319227 
L 300.137898 182.261605 
L 301.152443 182.261605 
L 301.152443 181.410918 
L 302.166989 181.410918 
L 302.166989 184.176923 
L 303.181534 184.176923 
L 303.181534 183.547822 
L 304.19608 183.547822 
L 304.19608 186.981133 
L 305.210625 186.981133 
L 305.210625 187.360631 
L 306.22517 187.360631 
L 306.22517 189.416032 
L 307.239716 189.416032 
L 307.239716 186.787563 
L 308.254261 186.787563 
L 308.254261 188.445638 
L 309.268807 188.445638 
L 309.268807 188.725804 
L 310.283352 188.725804 
L 310.283352 191.473981 
L 311.297898 191.473981 
L 311.297898 190.343128 
L 312.312443 190.343128 
L 312.312443 190.900913 
L 313.326989 190.900913 
L 313.326989 189.943254 
L 314.341534 189.943254 
L 314.341534 195.133971 
L 315.35608 195.133971 
L 315.35608 193.743327 
L 316.370625 193.743327 
L 316.370625 194.942948 
L 317.38517 194.942948 
L 317.38517 197.095135 
L 318.399716 197.095135 
L 318.399716 197.861771 
L 319.414261 197.861771 
L 319.414261 199.237133 
L 320.428807 199.237133 
L 320.428807 199.843311 
L 321.443352 199.843311 
L 321.443352 203.426892 
L 322.457898 203.426892 
L 322.457898 202.448857 
L 323.472443 202.448857 
L 323.472443 205.436448 
L 324.486989 205.436448 
L 324.486989 211.167122 
L 325.501534 211.167122 
L 325.501534 217.239089 
L 326.51608 217.239089 
L 326.51608 222.638657 
L 327.530625 222.638657 
L 327.530625 229.306614 
L 328.54517 229.306614 
L 328.54517 234.036329 
L 329.559716 234.036329 
L 329.559716 226.482028 
L 330.574261 226.482028 
L 330.574261 218.01846 
L 331.588807 218.01846 
L 331.588807 214.794001 
L 332.603352 214.794001 
L 332.603352 210.662822 
L 333.617898 210.662822 
L 333.617898 206.990098 
L 334.632443 206.990098 
L 334.632443 207.502038 
L 335.646989 207.502038 
L 335.646989 206.091019 
L 336.661534 206.091019 
L 336.661534 206.549472 
L 337.67608 206.549472 
L 337.67608 206.119035 
L 338.690625 206.119035 
L 338.690625 205.352398 
L 339.70517 205.352398 
L 339.70517 207.066506 
L 340.719716 207.066506 
L 340.719716 205.467012 
L 341.734261 205.467012 
L 341.734261 206.939158 
L 342.748807 206.939158 
L 342.748807 205.818493 
L 343.763352 205.818493 
L 343.763352 206.396654 
L 344.777898 206.396654 
L 344.777898 206.939158 
L 345.792443 206.939158 
L 345.792443 206.684462 
L 346.806989 206.684462 
L 346.806989 207.784751 
L 347.821534 207.784751 
L 347.821534 207.993602 
L 348.83608 207.993602 
L 348.83608 207.254982 
L 349.850625 207.254982 
L 349.850625 209.07861 
L 350.86517 209.07861 
L 350.86517 207.214231 
L 351.879716 207.214231 
L 351.879716 208.739863 
L 352.894261 208.739863 
L 352.894261 207.005379 
L 353.908807 207.005379 
L 353.908807 209.351135 
L 355.937898 209.394433 
L 355.937898 210.150882 
L 356.952443 210.150882 
L 356.952443 210.290965 
L 357.966989 210.290965 
L 357.966989 210.701027 
L 358.981534 210.701027 
L 358.981534 211.162028 
L 359.99608 211.162028 
L 359.99608 211.426912 
L 362.02517 211.365785 
L 362.02517 212.468621 
L 363.039716 212.468621 
L 363.039716 212.830291 
L 364.054261 212.830291 
L 364.054261 213.815966 
L 365.068807 213.815966 
L 365.068807 214.205652 
L 366.083352 214.205652 
L 366.083352 214.839847 
L 367.097898 214.839847 
L 367.097898 216.052203 
L 368.112443 216.052203 
L 368.112443 216.54122 
L 369.126989 216.54122 
L 369.126989 217.621134 
L 370.141534 217.621134 
L 370.141534 218.920086 
L 371.15608 218.920086 
L 371.15608 221.658075 
L 372.170625 221.658075 
L 372.170625 224.441909 
L 373.18517 224.441909 
L 373.18517 227.123864 
L 374.199716 227.123864 
L 374.199716 229.240393 
L 375.214261 229.240393 
L 375.214261 231.986022 
L 376.228807 231.986022 
L 376.228807 234.036329 
L 379.272443 234.036329 
L 379.272443 234.036329 
" clip-path="url(#pa87b946d24)" style="fill: none; stroke: #ff7f0e; stroke-width: 1.5; stroke-linecap: square"/>
   </g>
  </g>
 </g>
 <defs>
  <clipPath id="pa87b946d24">
   <rect x="59.690625" y="22.318125" width="334.8" height="221.76"/>
  </clipPath>
 </defs>
</svg>
