<?xml version="1.0" encoding="utf-8" standalone="no"?>
<!DOCTYPE svg PUBLIC "-//W3C//DTD SVG 1.1//EN"
  "http://www.w3.org/Graphics/SVG/1.1/DTD/svg11.dtd">
<svg xmlns:xlink="http://www.w3.org/1999/xlink" width="872.39952pt" height="296.39952pt" viewBox="0 0 872.39952 296.39952" xmlns="http://www.w3.org/2000/svg" version="1.1">
 <metadata>
  <rdf:RDF xmlns:dc="http://purl.org/dc/elements/1.1/" xmlns:cc="http://creativecommons.org/ns#" xmlns:rdf="http://www.w3.org/1999/02/22-rdf-syntax-ns#">
   <cc:Work>
    <dc:type rdf:resource="http://purl.org/dc/dcmitype/StillImage"/>
    <dc:date>2024-12-13T13:31:49.841871</dc:date>
    <dc:format>image/svg+xml</dc:format>
    <dc:creator>
     <cc:Agent>
      <dc:title>Matplotlib v3.9.4, https://matplotlib.org/</dc:title>
     </cc:Agent>
    </dc:creator>
   </cc:Work>
  </rdf:RDF>
 </metadata>
 <defs>
  <style type="text/css">*{stroke-linejoin: round; stroke-linecap: butt}</style>
 </defs>
 <g id="figure_1">
  <g id="patch_1">
   <path d="M 0 296.39952 
L 872.39952 296.39952 
L 872.39952 0 
L 0 0 
z
" style="fill: #ffffff"/>
  </g>
  <g id="axes_1">
   <g id="patch_2">
    <path d="M 59.690625 258.565145 
L 428.69851 258.565145 
L 428.69851 22.318125 
L 59.690625 22.318125 
z
" style="fill: #ffffff"/>
   </g>
   <g id="matplotlib.axis_1">
    <g id="xtick_1">
     <g id="line2d_1">
      <defs>
       <path id="me2190a1de6" d="M 0 0 
L 0 3.5 
" style="stroke: #000000; stroke-width: 0.8"/>
      </defs>
      <g>
       <use xlink:href="#me2190a1de6" x="76.461397" y="258.565145" style="stroke: #000000; stroke-width: 0.8"/>
      </g>
     </g>
     <g id="text_1">
      <!-- 0 -->
      <g transform="translate(73.280147 273.163582) scale(0.1 -0.1)">
       <defs>
        <path id="DejaVuSans-30" d="M 2034 4250 
Q 1547 4250 1301 3770 
Q 1056 3291 1056 2328 
Q 1056 1369 1301 889 
Q 1547 409 2034 409 
Q 2525 409 2770 889 
Q 3016 1369 3016 2328 
Q 3016 3291 2770 3770 
Q 2525 4250 2034 4250 
z
M 2034 4750 
Q 2819 4750 3233 4129 
Q 3647 3509 3647 2328 
Q 3647 1150 3233 529 
Q 2819 -91 2034 -91 
Q 1250 -91 836 529 
Q 422 1150 422 2328 
Q 422 3509 836 4129 
Q 1250 4750 2034 4750 
z
" transform="scale(0.015625)"/>
       </defs>
       <use xlink:href="#DejaVuSans-30"/>
      </g>
     </g>
    </g>
    <g id="xtick_2">
     <g id="line2d_2">
      <g>
       <use xlink:href="#me2190a1de6" x="123.426389" y="258.565145" style="stroke: #000000; stroke-width: 0.8"/>
      </g>
     </g>
     <g id="text_2">
      <!-- 10000 -->
      <g transform="translate(107.520139 273.163582) scale(0.1 -0.1)">
       <defs>
        <path id="DejaVuSans-31" d="M 794 531 
L 1825 531 
L 1825 4091 
L 703 3866 
L 703 4441 
L 1819 4666 
L 2450 4666 
L 2450 531 
L 3481 531 
L 3481 0 
L 794 0 
L 794 531 
z
" transform="scale(0.015625)"/>
       </defs>
       <use xlink:href="#DejaVuSans-31"/>
       <use xlink:href="#DejaVuSans-30" x="63.623047"/>
       <use xlink:href="#DejaVuSans-30" x="127.246094"/>
       <use xlink:href="#DejaVuSans-30" x="190.869141"/>
       <use xlink:href="#DejaVuSans-30" x="254.492188"/>
      </g>
     </g>
    </g>
    <g id="xtick_3">
     <g id="line2d_3">
      <g>
       <use xlink:href="#me2190a1de6" x="170.391382" y="258.565145" style="stroke: #000000; stroke-width: 0.8"/>
      </g>
     </g>
     <g id="text_3">
      <!-- 20000 -->
      <g transform="translate(154.485132 273.163582) scale(0.1 -0.1)">
       <defs>
        <path id="DejaVuSans-32" d="M 1228 531 
L 3431 531 
L 3431 0 
L 469 0 
L 469 531 
Q 828 903 1448 1529 
Q 2069 2156 2228 2338 
Q 2531 2678 2651 2914 
Q 2772 3150 2772 3378 
Q 2772 3750 2511 3984 
Q 2250 4219 1831 4219 
Q 1534 4219 1204 4116 
Q 875 4013 500 3803 
L 500 4441 
Q 881 4594 1212 4672 
Q 1544 4750 1819 4750 
Q 2544 4750 2975 4387 
Q 3406 4025 3406 3419 
Q 3406 3131 3298 2873 
Q 3191 2616 2906 2266 
Q 2828 2175 2409 1742 
Q 1991 1309 1228 531 
z
" transform="scale(0.015625)"/>
       </defs>
       <use xlink:href="#DejaVuSans-32"/>
       <use xlink:href="#DejaVuSans-30" x="63.623047"/>
       <use xlink:href="#DejaVuSans-30" x="127.246094"/>
       <use xlink:href="#DejaVuSans-30" x="190.869141"/>
       <use xlink:href="#DejaVuSans-30" x="254.492188"/>
      </g>
     </g>
    </g>
    <g id="xtick_4">
     <g id="line2d_4">
      <g>
       <use xlink:href="#me2190a1de6" x="217.356374" y="258.565145" style="stroke: #000000; stroke-width: 0.8"/>
      </g>
     </g>
     <g id="text_4">
      <!-- 30000 -->
      <g transform="translate(201.450124 273.163582) scale(0.1 -0.1)">
       <defs>
        <path id="DejaVuSans-33" d="M 2597 2516 
Q 3050 2419 3304 2112 
Q 3559 1806 3559 1356 
Q 3559 666 3084 287 
Q 2609 -91 1734 -91 
Q 1441 -91 1130 -33 
Q 819 25 488 141 
L 488 750 
Q 750 597 1062 519 
Q 1375 441 1716 441 
Q 2309 441 2620 675 
Q 2931 909 2931 1356 
Q 2931 1769 2642 2001 
Q 2353 2234 1838 2234 
L 1294 2234 
L 1294 2753 
L 1863 2753 
Q 2328 2753 2575 2939 
Q 2822 3125 2822 3475 
Q 2822 3834 2567 4026 
Q 2313 4219 1838 4219 
Q 1578 4219 1281 4162 
Q 984 4106 628 3988 
L 628 4550 
Q 988 4650 1302 4700 
Q 1616 4750 1894 4750 
Q 2613 4750 3031 4423 
Q 3450 4097 3450 3541 
Q 3450 3153 3228 2886 
Q 3006 2619 2597 2516 
z
" transform="scale(0.015625)"/>
       </defs>
       <use xlink:href="#DejaVuSans-33"/>
       <use xlink:href="#DejaVuSans-30" x="63.623047"/>
       <use xlink:href="#DejaVuSans-30" x="127.246094"/>
       <use xlink:href="#DejaVuSans-30" x="190.869141"/>
       <use xlink:href="#DejaVuSans-30" x="254.492188"/>
      </g>
     </g>
    </g>
    <g id="xtick_5">
     <g id="line2d_5">
      <g>
       <use xlink:href="#me2190a1de6" x="264.321367" y="258.565145" style="stroke: #000000; stroke-width: 0.8"/>
      </g>
     </g>
     <g id="text_5">
      <!-- 40000 -->
      <g transform="translate(248.415117 273.163582) scale(0.1 -0.1)">
       <defs>
        <path id="DejaVuSans-34" d="M 2419 4116 
L 825 1625 
L 2419 1625 
L 2419 4116 
z
M 2253 4666 
L 3047 4666 
L 3047 1625 
L 3713 1625 
L 3713 1100 
L 3047 1100 
L 3047 0 
L 2419 0 
L 2419 1100 
L 313 1100 
L 313 1709 
L 2253 4666 
z
" transform="scale(0.015625)"/>
       </defs>
       <use xlink:href="#DejaVuSans-34"/>
       <use xlink:href="#DejaVuSans-30" x="63.623047"/>
       <use xlink:href="#DejaVuSans-30" x="127.246094"/>
       <use xlink:href="#DejaVuSans-30" x="190.869141"/>
       <use xlink:href="#DejaVuSans-30" x="254.492188"/>
      </g>
     </g>
    </g>
    <g id="xtick_6">
     <g id="line2d_6">
      <g>
       <use xlink:href="#me2190a1de6" x="311.286359" y="258.565145" style="stroke: #000000; stroke-width: 0.8"/>
      </g>
     </g>
     <g id="text_6">
      <!-- 50000 -->
      <g transform="translate(295.380109 273.163582) scale(0.1 -0.1)">
       <defs>
        <path id="DejaVuSans-35" d="M 691 4666 
L 3169 4666 
L 3169 4134 
L 1269 4134 
L 1269 2991 
Q 1406 3038 1543 3061 
Q 1681 3084 1819 3084 
Q 2600 3084 3056 2656 
Q 3513 2228 3513 1497 
Q 3513 744 3044 326 
Q 2575 -91 1722 -91 
Q 1428 -91 1123 -41 
Q 819 9 494 109 
L 494 744 
Q 775 591 1075 516 
Q 1375 441 1709 441 
Q 2250 441 2565 725 
Q 2881 1009 2881 1497 
Q 2881 1984 2565 2268 
Q 2250 2553 1709 2553 
Q 1456 2553 1204 2497 
Q 953 2441 691 2322 
L 691 4666 
z
" transform="scale(0.015625)"/>
       </defs>
       <use xlink:href="#DejaVuSans-35"/>
       <use xlink:href="#DejaVuSans-30" x="63.623047"/>
       <use xlink:href="#DejaVuSans-30" x="127.246094"/>
       <use xlink:href="#DejaVuSans-30" x="190.869141"/>
       <use xlink:href="#DejaVuSans-30" x="254.492188"/>
      </g>
     </g>
    </g>
    <g id="xtick_7">
     <g id="line2d_7">
      <g>
       <use xlink:href="#me2190a1de6" x="358.251352" y="258.565145" style="stroke: #000000; stroke-width: 0.8"/>
      </g>
     </g>
     <g id="text_7">
      <!-- 60000 -->
      <g transform="translate(342.345102 273.163582) scale(0.1 -0.1)">
       <defs>
        <path id="DejaVuSans-36" d="M 2113 2584 
Q 1688 2584 1439 2293 
Q 1191 2003 1191 1497 
Q 1191 994 1439 701 
Q 1688 409 2113 409 
Q 2538 409 2786 701 
Q 3034 994 3034 1497 
Q 3034 2003 2786 2293 
Q 2538 2584 2113 2584 
z
M 3366 4563 
L 3366 3988 
Q 3128 4100 2886 4159 
Q 2644 4219 2406 4219 
Q 1781 4219 1451 3797 
Q 1122 3375 1075 2522 
Q 1259 2794 1537 2939 
Q 1816 3084 2150 3084 
Q 2853 3084 3261 2657 
Q 3669 2231 3669 1497 
Q 3669 778 3244 343 
Q 2819 -91 2113 -91 
Q 1303 -91 875 529 
Q 447 1150 447 2328 
Q 447 3434 972 4092 
Q 1497 4750 2381 4750 
Q 2619 4750 2861 4703 
Q 3103 4656 3366 4563 
z
" transform="scale(0.015625)"/>
       </defs>
       <use xlink:href="#DejaVuSans-36"/>
       <use xlink:href="#DejaVuSans-30" x="63.623047"/>
       <use xlink:href="#DejaVuSans-30" x="127.246094"/>
       <use xlink:href="#DejaVuSans-30" x="190.869141"/>
       <use xlink:href="#DejaVuSans-30" x="254.492188"/>
      </g>
     </g>
    </g>
    <g id="xtick_8">
     <g id="line2d_8">
      <g>
       <use xlink:href="#me2190a1de6" x="405.216344" y="258.565145" style="stroke: #000000; stroke-width: 0.8"/>
      </g>
     </g>
     <g id="text_8">
      <!-- 70000 -->
      <g transform="translate(389.310094 273.163582) scale(0.1 -0.1)">
       <defs>
        <path id="DejaVuSans-37" d="M 525 4666 
L 3525 4666 
L 3525 4397 
L 1831 0 
L 1172 0 
L 2766 4134 
L 525 4134 
L 525 4666 
z
" transform="scale(0.015625)"/>
       </defs>
       <use xlink:href="#DejaVuSans-37"/>
       <use xlink:href="#DejaVuSans-30" x="63.623047"/>
       <use xlink:href="#DejaVuSans-30" x="127.246094"/>
       <use xlink:href="#DejaVuSans-30" x="190.869141"/>
       <use xlink:href="#DejaVuSans-30" x="254.492188"/>
      </g>
     </g>
    </g>
    <g id="text_9">
     <!-- event_time_offset [µs] -->
     <g transform="translate(188.159411 286.841707) scale(0.1 -0.1)">
      <defs>
       <path id="DejaVuSans-65" d="M 3597 1894 
L 3597 1613 
L 953 1613 
Q 991 1019 1311 708 
Q 1631 397 2203 397 
Q 2534 397 2845 478 
Q 3156 559 3463 722 
L 3463 178 
Q 3153 47 2828 -22 
Q 2503 -91 2169 -91 
Q 1331 -91 842 396 
Q 353 884 353 1716 
Q 353 2575 817 3079 
Q 1281 3584 2069 3584 
Q 2775 3584 3186 3129 
Q 3597 2675 3597 1894 
z
M 3022 2063 
Q 3016 2534 2758 2815 
Q 2500 3097 2075 3097 
Q 1594 3097 1305 2825 
Q 1016 2553 972 2059 
L 3022 2063 
z
" transform="scale(0.015625)"/>
       <path id="DejaVuSans-76" d="M 191 3500 
L 800 3500 
L 1894 563 
L 2988 3500 
L 3597 3500 
L 2284 0 
L 1503 0 
L 191 3500 
z
" transform="scale(0.015625)"/>
       <path id="DejaVuSans-6e" d="M 3513 2113 
L 3513 0 
L 2938 0 
L 2938 2094 
Q 2938 2591 2744 2837 
Q 2550 3084 2163 3084 
Q 1697 3084 1428 2787 
Q 1159 2491 1159 1978 
L 1159 0 
L 581 0 
L 581 3500 
L 1159 3500 
L 1159 2956 
Q 1366 3272 1645 3428 
Q 1925 3584 2291 3584 
Q 2894 3584 3203 3211 
Q 3513 2838 3513 2113 
z
" transform="scale(0.015625)"/>
       <path id="DejaVuSans-74" d="M 1172 4494 
L 1172 3500 
L 2356 3500 
L 2356 3053 
L 1172 3053 
L 1172 1153 
Q 1172 725 1289 603 
Q 1406 481 1766 481 
L 2356 481 
L 2356 0 
L 1766 0 
Q 1100 0 847 248 
Q 594 497 594 1153 
L 594 3053 
L 172 3053 
L 172 3500 
L 594 3500 
L 594 4494 
L 1172 4494 
z
" transform="scale(0.015625)"/>
       <path id="DejaVuSans-5f" d="M 3263 -1063 
L 3263 -1509 
L -63 -1509 
L -63 -1063 
L 3263 -1063 
z
" transform="scale(0.015625)"/>
       <path id="DejaVuSans-69" d="M 603 3500 
L 1178 3500 
L 1178 0 
L 603 0 
L 603 3500 
z
M 603 4863 
L 1178 4863 
L 1178 4134 
L 603 4134 
L 603 4863 
z
" transform="scale(0.015625)"/>
       <path id="DejaVuSans-6d" d="M 3328 2828 
Q 3544 3216 3844 3400 
Q 4144 3584 4550 3584 
Q 5097 3584 5394 3201 
Q 5691 2819 5691 2113 
L 5691 0 
L 5113 0 
L 5113 2094 
Q 5113 2597 4934 2840 
Q 4756 3084 4391 3084 
Q 3944 3084 3684 2787 
Q 3425 2491 3425 1978 
L 3425 0 
L 2847 0 
L 2847 2094 
Q 2847 2600 2669 2842 
Q 2491 3084 2119 3084 
Q 1678 3084 1418 2786 
Q 1159 2488 1159 1978 
L 1159 0 
L 581 0 
L 581 3500 
L 1159 3500 
L 1159 2956 
Q 1356 3278 1631 3431 
Q 1906 3584 2284 3584 
Q 2666 3584 2933 3390 
Q 3200 3197 3328 2828 
z
" transform="scale(0.015625)"/>
       <path id="DejaVuSans-6f" d="M 1959 3097 
Q 1497 3097 1228 2736 
Q 959 2375 959 1747 
Q 959 1119 1226 758 
Q 1494 397 1959 397 
Q 2419 397 2687 759 
Q 2956 1122 2956 1747 
Q 2956 2369 2687 2733 
Q 2419 3097 1959 3097 
z
M 1959 3584 
Q 2709 3584 3137 3096 
Q 3566 2609 3566 1747 
Q 3566 888 3137 398 
Q 2709 -91 1959 -91 
Q 1206 -91 779 398 
Q 353 888 353 1747 
Q 353 2609 779 3096 
Q 1206 3584 1959 3584 
z
" transform="scale(0.015625)"/>
       <path id="DejaVuSans-66" d="M 2375 4863 
L 2375 4384 
L 1825 4384 
Q 1516 4384 1395 4259 
Q 1275 4134 1275 3809 
L 1275 3500 
L 2222 3500 
L 2222 3053 
L 1275 3053 
L 1275 0 
L 697 0 
L 697 3053 
L 147 3053 
L 147 3500 
L 697 3500 
L 697 3744 
Q 697 4328 969 4595 
Q 1241 4863 1831 4863 
L 2375 4863 
z
" transform="scale(0.015625)"/>
       <path id="DejaVuSans-73" d="M 2834 3397 
L 2834 2853 
Q 2591 2978 2328 3040 
Q 2066 3103 1784 3103 
Q 1356 3103 1142 2972 
Q 928 2841 928 2578 
Q 928 2378 1081 2264 
Q 1234 2150 1697 2047 
L 1894 2003 
Q 2506 1872 2764 1633 
Q 3022 1394 3022 966 
Q 3022 478 2636 193 
Q 2250 -91 1575 -91 
Q 1294 -91 989 -36 
Q 684 19 347 128 
L 347 722 
Q 666 556 975 473 
Q 1284 391 1588 391 
Q 1994 391 2212 530 
Q 2431 669 2431 922 
Q 2431 1156 2273 1281 
Q 2116 1406 1581 1522 
L 1381 1569 
Q 847 1681 609 1914 
Q 372 2147 372 2553 
Q 372 3047 722 3315 
Q 1072 3584 1716 3584 
Q 2034 3584 2315 3537 
Q 2597 3491 2834 3397 
z
" transform="scale(0.015625)"/>
       <path id="DejaVuSans-20" transform="scale(0.015625)"/>
       <path id="DejaVuSans-5b" d="M 550 4863 
L 1875 4863 
L 1875 4416 
L 1125 4416 
L 1125 -397 
L 1875 -397 
L 1875 -844 
L 550 -844 
L 550 4863 
z
" transform="scale(0.015625)"/>
       <path id="DejaVuSans-b5" d="M 544 -1331 
L 544 3500 
L 1119 3500 
L 1119 1325 
Q 1119 872 1334 640 
Q 1550 409 1972 409 
Q 2434 409 2667 671 
Q 2900 934 2900 1459 
L 2900 3500 
L 3475 3500 
L 3475 806 
Q 3475 619 3529 530 
Q 3584 441 3700 441 
Q 3728 441 3778 458 
Q 3828 475 3916 513 
L 3916 50 
Q 3788 -22 3673 -56 
Q 3559 -91 3450 -91 
Q 3234 -91 3106 31 
Q 2978 153 2931 403 
Q 2775 156 2548 32 
Q 2322 -91 2016 -91 
Q 1697 -91 1473 31 
Q 1250 153 1119 397 
L 1119 -1331 
L 544 -1331 
z
" transform="scale(0.015625)"/>
       <path id="DejaVuSans-5d" d="M 1947 4863 
L 1947 -844 
L 622 -844 
L 622 -397 
L 1369 -397 
L 1369 4416 
L 622 4416 
L 622 4863 
L 1947 4863 
z
" transform="scale(0.015625)"/>
      </defs>
      <use xlink:href="#DejaVuSans-65"/>
      <use xlink:href="#DejaVuSans-76" x="61.523438"/>
      <use xlink:href="#DejaVuSans-65" x="120.703125"/>
      <use xlink:href="#DejaVuSans-6e" x="182.226562"/>
      <use xlink:href="#DejaVuSans-74" x="245.605469"/>
      <use xlink:href="#DejaVuSans-5f" x="284.814453"/>
      <use xlink:href="#DejaVuSans-74" x="334.814453"/>
      <use xlink:href="#DejaVuSans-69" x="374.023438"/>
      <use xlink:href="#DejaVuSans-6d" x="401.806641"/>
      <use xlink:href="#DejaVuSans-65" x="499.21875"/>
      <use xlink:href="#DejaVuSans-5f" x="560.742188"/>
      <use xlink:href="#DejaVuSans-6f" x="610.742188"/>
      <use xlink:href="#DejaVuSans-66" x="671.923828"/>
      <use xlink:href="#DejaVuSans-66" x="707.128906"/>
      <use xlink:href="#DejaVuSans-73" x="742.333984"/>
      <use xlink:href="#DejaVuSans-65" x="794.433594"/>
      <use xlink:href="#DejaVuSans-74" x="855.957031"/>
      <use xlink:href="#DejaVuSans-20" x="895.166016"/>
      <use xlink:href="#DejaVuSans-5b" x="926.953125"/>
      <use xlink:href="#DejaVuSans-b5" x="965.966797"/>
      <use xlink:href="#DejaVuSans-73" x="1029.589844"/>
      <use xlink:href="#DejaVuSans-5d" x="1081.689453"/>
     </g>
    </g>
   </g>
   <g id="matplotlib.axis_2">
    <g id="ytick_1">
     <g id="line2d_9">
      <defs>
       <path id="m1240eafea2" d="M 0 0 
L -3.5 0 
" style="stroke: #000000; stroke-width: 0.8"/>
      </defs>
      <g>
       <use xlink:href="#m1240eafea2" x="59.690625" y="249.754412" style="stroke: #000000; stroke-width: 0.8"/>
      </g>
     </g>
     <g id="text_10">
      <!-- 0 -->
      <g transform="translate(46.328125 253.553631) scale(0.1 -0.1)">
       <use xlink:href="#DejaVuSans-30"/>
      </g>
     </g>
    </g>
    <g id="ytick_2">
     <g id="line2d_10">
      <g>
       <use xlink:href="#m1240eafea2" x="59.690625" y="211.880778" style="stroke: #000000; stroke-width: 0.8"/>
      </g>
     </g>
     <g id="text_11">
      <!-- 10000 -->
      <g transform="translate(20.878125 215.679997) scale(0.1 -0.1)">
       <use xlink:href="#DejaVuSans-31"/>
       <use xlink:href="#DejaVuSans-30" x="63.623047"/>
       <use xlink:href="#DejaVuSans-30" x="127.246094"/>
       <use xlink:href="#DejaVuSans-30" x="190.869141"/>
       <use xlink:href="#DejaVuSans-30" x="254.492188"/>
      </g>
     </g>
    </g>
    <g id="ytick_3">
     <g id="line2d_11">
      <g>
       <use xlink:href="#m1240eafea2" x="59.690625" y="174.007143" style="stroke: #000000; stroke-width: 0.8"/>
      </g>
     </g>
     <g id="text_12">
      <!-- 20000 -->
      <g transform="translate(20.878125 177.806362) scale(0.1 -0.1)">
       <use xlink:href="#DejaVuSans-32"/>
       <use xlink:href="#DejaVuSans-30" x="63.623047"/>
       <use xlink:href="#DejaVuSans-30" x="127.246094"/>
       <use xlink:href="#DejaVuSans-30" x="190.869141"/>
       <use xlink:href="#DejaVuSans-30" x="254.492188"/>
      </g>
     </g>
    </g>
    <g id="ytick_4">
     <g id="line2d_12">
      <g>
       <use xlink:href="#m1240eafea2" x="59.690625" y="136.133509" style="stroke: #000000; stroke-width: 0.8"/>
      </g>
     </g>
     <g id="text_13">
      <!-- 30000 -->
      <g transform="translate(20.878125 139.932728) scale(0.1 -0.1)">
       <use xlink:href="#DejaVuSans-33"/>
       <use xlink:href="#DejaVuSans-30" x="63.623047"/>
       <use xlink:href="#DejaVuSans-30" x="127.246094"/>
       <use xlink:href="#DejaVuSans-30" x="190.869141"/>
       <use xlink:href="#DejaVuSans-30" x="254.492188"/>
      </g>
     </g>
    </g>
    <g id="ytick_5">
     <g id="line2d_13">
      <g>
       <use xlink:href="#m1240eafea2" x="59.690625" y="98.259875" style="stroke: #000000; stroke-width: 0.8"/>
      </g>
     </g>
     <g id="text_14">
      <!-- 40000 -->
      <g transform="translate(20.878125 102.059094) scale(0.1 -0.1)">
       <use xlink:href="#DejaVuSans-34"/>
       <use xlink:href="#DejaVuSans-30" x="63.623047"/>
       <use xlink:href="#DejaVuSans-30" x="127.246094"/>
       <use xlink:href="#DejaVuSans-30" x="190.869141"/>
       <use xlink:href="#DejaVuSans-30" x="254.492188"/>
      </g>
     </g>
    </g>
    <g id="ytick_6">
     <g id="line2d_14">
      <g>
       <use xlink:href="#m1240eafea2" x="59.690625" y="60.38624" style="stroke: #000000; stroke-width: 0.8"/>
      </g>
     </g>
     <g id="text_15">
      <!-- 50000 -->
      <g transform="translate(20.878125 64.185459) scale(0.1 -0.1)">
       <use xlink:href="#DejaVuSans-35"/>
       <use xlink:href="#DejaVuSans-30" x="63.623047"/>
       <use xlink:href="#DejaVuSans-30" x="127.246094"/>
       <use xlink:href="#DejaVuSans-30" x="190.869141"/>
       <use xlink:href="#DejaVuSans-30" x="254.492188"/>
      </g>
     </g>
    </g>
    <g id="ytick_7">
     <g id="line2d_15">
      <g>
       <use xlink:href="#m1240eafea2" x="59.690625" y="22.512606" style="stroke: #000000; stroke-width: 0.8"/>
      </g>
     </g>
     <g id="text_16">
      <!-- 60000 -->
      <g transform="translate(20.878125 26.311825) scale(0.1 -0.1)">
       <use xlink:href="#DejaVuSans-36"/>
       <use xlink:href="#DejaVuSans-30" x="63.623047"/>
       <use xlink:href="#DejaVuSans-30" x="127.246094"/>
       <use xlink:href="#DejaVuSans-30" x="190.869141"/>
       <use xlink:href="#DejaVuSans-30" x="254.492188"/>
      </g>
     </g>
    </g>
    <g id="text_17">
     <!-- [counts] -->
     <g transform="translate(14.798438 161.054135) rotate(-90) scale(0.1 -0.1)">
      <defs>
       <path id="DejaVuSans-63" d="M 3122 3366 
L 3122 2828 
Q 2878 2963 2633 3030 
Q 2388 3097 2138 3097 
Q 1578 3097 1268 2742 
Q 959 2388 959 1747 
Q 959 1106 1268 751 
Q 1578 397 2138 397 
Q 2388 397 2633 464 
Q 2878 531 3122 666 
L 3122 134 
Q 2881 22 2623 -34 
Q 2366 -91 2075 -91 
Q 1284 -91 818 406 
Q 353 903 353 1747 
Q 353 2603 823 3093 
Q 1294 3584 2113 3584 
Q 2378 3584 2631 3529 
Q 2884 3475 3122 3366 
z
" transform="scale(0.015625)"/>
       <path id="DejaVuSans-75" d="M 544 1381 
L 544 3500 
L 1119 3500 
L 1119 1403 
Q 1119 906 1312 657 
Q 1506 409 1894 409 
Q 2359 409 2629 706 
Q 2900 1003 2900 1516 
L 2900 3500 
L 3475 3500 
L 3475 0 
L 2900 0 
L 2900 538 
Q 2691 219 2414 64 
Q 2138 -91 1772 -91 
Q 1169 -91 856 284 
Q 544 659 544 1381 
z
M 1991 3584 
L 1991 3584 
z
" transform="scale(0.015625)"/>
      </defs>
      <use xlink:href="#DejaVuSans-5b"/>
      <use xlink:href="#DejaVuSans-63" x="39.013672"/>
      <use xlink:href="#DejaVuSans-6f" x="93.994141"/>
      <use xlink:href="#DejaVuSans-75" x="155.175781"/>
      <use xlink:href="#DejaVuSans-6e" x="218.554688"/>
      <use xlink:href="#DejaVuSans-74" x="281.933594"/>
      <use xlink:href="#DejaVuSans-73" x="321.142578"/>
      <use xlink:href="#DejaVuSans-5d" x="373.242188"/>
     </g>
    </g>
   </g>
   <g id="patch_3">
    <path d="M 59.690625 258.565145 
L 59.690625 22.318125 
" style="fill: none; stroke: #000000; stroke-width: 0.8; stroke-linejoin: miter; stroke-linecap: square"/>
   </g>
   <g id="patch_4">
    <path d="M 428.69851 258.565145 
L 428.69851 22.318125 
" style="fill: none; stroke: #000000; stroke-width: 0.8; stroke-linejoin: miter; stroke-linecap: square"/>
   </g>
   <g id="patch_5">
    <path d="M 59.690625 258.565145 
L 428.69851 258.565145 
" style="fill: none; stroke: #000000; stroke-width: 0.8; stroke-linejoin: miter; stroke-linecap: square"/>
   </g>
   <g id="patch_6">
    <path d="M 59.690625 22.318125 
L 428.69851 22.318125 
" style="fill: none; stroke: #000000; stroke-width: 0.8; stroke-linejoin: miter; stroke-linecap: square"/>
   </g>
   <g id="text_18">
    <!-- McStas simulation: sample -->
    <g transform="translate(163.829255 16.318125) scale(0.12 -0.12)">
     <defs>
      <path id="DejaVuSans-4d" d="M 628 4666 
L 1569 4666 
L 2759 1491 
L 3956 4666 
L 4897 4666 
L 4897 0 
L 4281 0 
L 4281 4097 
L 3078 897 
L 2444 897 
L 1241 4097 
L 1241 0 
L 628 0 
L 628 4666 
z
" transform="scale(0.015625)"/>
      <path id="DejaVuSans-53" d="M 3425 4513 
L 3425 3897 
Q 3066 4069 2747 4153 
Q 2428 4238 2131 4238 
Q 1616 4238 1336 4038 
Q 1056 3838 1056 3469 
Q 1056 3159 1242 3001 
Q 1428 2844 1947 2747 
L 2328 2669 
Q 3034 2534 3370 2195 
Q 3706 1856 3706 1288 
Q 3706 609 3251 259 
Q 2797 -91 1919 -91 
Q 1588 -91 1214 -16 
Q 841 59 441 206 
L 441 856 
Q 825 641 1194 531 
Q 1563 422 1919 422 
Q 2459 422 2753 634 
Q 3047 847 3047 1241 
Q 3047 1584 2836 1778 
Q 2625 1972 2144 2069 
L 1759 2144 
Q 1053 2284 737 2584 
Q 422 2884 422 3419 
Q 422 4038 858 4394 
Q 1294 4750 2059 4750 
Q 2388 4750 2728 4690 
Q 3069 4631 3425 4513 
z
" transform="scale(0.015625)"/>
      <path id="DejaVuSans-61" d="M 2194 1759 
Q 1497 1759 1228 1600 
Q 959 1441 959 1056 
Q 959 750 1161 570 
Q 1363 391 1709 391 
Q 2188 391 2477 730 
Q 2766 1069 2766 1631 
L 2766 1759 
L 2194 1759 
z
M 3341 1997 
L 3341 0 
L 2766 0 
L 2766 531 
Q 2569 213 2275 61 
Q 1981 -91 1556 -91 
Q 1019 -91 701 211 
Q 384 513 384 1019 
Q 384 1609 779 1909 
Q 1175 2209 1959 2209 
L 2766 2209 
L 2766 2266 
Q 2766 2663 2505 2880 
Q 2244 3097 1772 3097 
Q 1472 3097 1187 3025 
Q 903 2953 641 2809 
L 641 3341 
Q 956 3463 1253 3523 
Q 1550 3584 1831 3584 
Q 2591 3584 2966 3190 
Q 3341 2797 3341 1997 
z
" transform="scale(0.015625)"/>
      <path id="DejaVuSans-6c" d="M 603 4863 
L 1178 4863 
L 1178 0 
L 603 0 
L 603 4863 
z
" transform="scale(0.015625)"/>
      <path id="DejaVuSans-3a" d="M 750 794 
L 1409 794 
L 1409 0 
L 750 0 
L 750 794 
z
M 750 3309 
L 1409 3309 
L 1409 2516 
L 750 2516 
L 750 3309 
z
" transform="scale(0.015625)"/>
      <path id="DejaVuSans-70" d="M 1159 525 
L 1159 -1331 
L 581 -1331 
L 581 3500 
L 1159 3500 
L 1159 2969 
Q 1341 3281 1617 3432 
Q 1894 3584 2278 3584 
Q 2916 3584 3314 3078 
Q 3713 2572 3713 1747 
Q 3713 922 3314 415 
Q 2916 -91 2278 -91 
Q 1894 -91 1617 61 
Q 1341 213 1159 525 
z
M 3116 1747 
Q 3116 2381 2855 2742 
Q 2594 3103 2138 3103 
Q 1681 3103 1420 2742 
Q 1159 2381 1159 1747 
Q 1159 1113 1420 752 
Q 1681 391 2138 391 
Q 2594 391 2855 752 
Q 3116 1113 3116 1747 
z
" transform="scale(0.015625)"/>
     </defs>
     <use xlink:href="#DejaVuSans-4d"/>
     <use xlink:href="#DejaVuSans-63" x="86.279297"/>
     <use xlink:href="#DejaVuSans-53" x="141.259766"/>
     <use xlink:href="#DejaVuSans-74" x="204.736328"/>
     <use xlink:href="#DejaVuSans-61" x="243.945312"/>
     <use xlink:href="#DejaVuSans-73" x="305.224609"/>
     <use xlink:href="#DejaVuSans-20" x="357.324219"/>
     <use xlink:href="#DejaVuSans-73" x="389.111328"/>
     <use xlink:href="#DejaVuSans-69" x="441.210938"/>
     <use xlink:href="#DejaVuSans-6d" x="468.994141"/>
     <use xlink:href="#DejaVuSans-75" x="566.40625"/>
     <use xlink:href="#DejaVuSans-6c" x="629.785156"/>
     <use xlink:href="#DejaVuSans-61" x="657.568359"/>
     <use xlink:href="#DejaVuSans-74" x="718.847656"/>
     <use xlink:href="#DejaVuSans-69" x="758.056641"/>
     <use xlink:href="#DejaVuSans-6f" x="785.839844"/>
     <use xlink:href="#DejaVuSans-6e" x="847.021484"/>
     <use xlink:href="#DejaVuSans-3a" x="910.400391"/>
     <use xlink:href="#DejaVuSans-20" x="944.091797"/>
     <use xlink:href="#DejaVuSans-73" x="975.878906"/>
     <use xlink:href="#DejaVuSans-61" x="1027.978516"/>
     <use xlink:href="#DejaVuSans-6d" x="1089.257812"/>
     <use xlink:href="#DejaVuSans-70" x="1186.669922"/>
     <use xlink:href="#DejaVuSans-6c" x="1250.146484"/>
     <use xlink:href="#DejaVuSans-65" x="1277.929688"/>
    </g>
   </g>
   <g id="line2d_16">
    <path d="M 76.463711 82.269626 
L 77.581916 82.269626 
L 77.581916 94.271781 
L 78.700122 94.271781 
L 78.700122 89.79133 
L 79.818328 89.79133 
L 79.818328 95.487525 
L 80.936534 95.487525 
L 80.936534 100.020999 
L 82.054739 100.020999 
L 82.054739 100.255815 
L 83.172945 100.255815 
L 83.172945 110.671065 
L 84.291151 110.671065 
L 84.291151 106.565563 
L 85.409356 106.565563 
L 85.409356 103.778063 
L 86.527562 103.778063 
L 86.527562 104.607496 
L 87.645768 104.607496 
L 87.645768 114.026669 
L 88.763974 114.026669 
L 88.763974 108.656187 
L 89.882179 108.656187 
L 89.882179 113.401754 
L 91.000385 113.401754 
L 91.000385 113.09119 
L 92.118591 113.09119 
L 92.118591 115.92035 
L 93.236796 115.92035 
L 93.236796 106.92915 
L 94.355002 106.92915 
L 94.355002 125.244839 
L 96.591414 125.172879 
L 96.591414 121.817275 
L 97.709619 121.817275 
L 97.709619 125.566765 
L 98.827825 125.566765 
L 98.827825 129.414726 
L 99.946031 129.414726 
L 99.946031 130.497912 
L 101.064236 130.497912 
L 101.064236 123.578399 
L 102.182442 123.578399 
L 102.182442 132.668072 
L 103.300648 132.668072 
L 103.300648 137.633305 
L 104.418853 137.633305 
L 104.418853 127.91493 
L 105.537059 127.91493 
L 105.537059 128.941306 
L 106.655265 128.941306 
L 106.655265 125.044109 
L 107.773471 125.044109 
L 107.773471 132.050731 
L 108.891676 132.050731 
L 108.891676 131.016781 
L 110.009882 131.016781 
L 110.009882 138.898284 
L 111.128088 138.898284 
L 111.128088 144.352088 
L 112.246293 144.352088 
L 112.246293 137.830248 
L 113.364499 137.830248 
L 113.364499 142.242526 
L 114.482705 142.242526 
L 114.482705 151.3019 
L 115.600911 151.3019 
L 115.600911 156.384541 
L 116.719116 156.384541 
L 116.719116 155.99823 
L 117.837322 155.99823 
L 117.837322 150.055857 
L 118.955528 150.055857 
L 118.955528 156.543611 
L 120.073733 156.543611 
L 120.073733 154.665078 
L 121.191939 154.665078 
L 121.191939 165.864312 
L 122.310145 165.864312 
L 122.310145 173.988207 
L 123.428351 173.988207 
L 123.428351 173.242096 
L 124.546556 173.242096 
L 124.546556 170.541706 
L 125.664762 170.541706 
L 125.664762 184.748106 
L 126.782968 184.748106 
L 126.782968 185.721459 
L 127.901173 185.721459 
L 127.901173 196.62149 
L 129.019379 196.62149 
L 129.019379 207.544247 
L 130.137585 207.544247 
L 130.137585 210.00982 
L 131.255791 210.00982 
L 131.255791 219.262349 
L 132.373996 219.262349 
L 132.373996 229.927565 
L 133.492202 229.927565 
L 133.492202 233.635393 
L 134.610408 233.635393 
L 134.610408 238.388534 
L 135.728613 238.388534 
L 135.728613 242.903072 
L 136.846819 242.903072 
L 136.846819 246.186716 
L 137.965025 246.186716 
L 137.965025 247.826644 
L 139.083231 247.826644 
L 139.083231 244.580874 
L 140.201436 244.580874 
L 140.201436 240.259492 
L 141.319642 240.259492 
L 141.319642 234.563297 
L 142.437848 234.563297 
L 142.437848 226.583323 
L 143.556053 226.583323 
L 143.556053 212.94124 
L 144.674259 212.94124 
L 144.674259 210.691546 
L 145.792465 210.691546 
L 145.792465 195.701161 
L 146.910671 195.701161 
L 146.910671 182.767315 
L 148.028876 182.767315 
L 148.028876 173.397378 
L 149.147082 173.397378 
L 149.147082 167.208826 
L 150.265288 167.208826 
L 150.265288 152.960765 
L 151.383493 152.960765 
L 151.383493 159.119018 
L 152.501699 159.119018 
L 152.501699 151.748809 
L 153.619905 151.748809 
L 153.619905 155.361953 
L 154.738111 155.361953 
L 154.738111 155.676304 
L 155.856316 155.676304 
L 155.856316 160.592302 
L 156.974522 160.592302 
L 156.974522 154.888533 
L 158.092728 154.888533 
L 158.092728 149.593799 
L 159.210933 149.593799 
L 159.210933 144.988365 
L 160.329139 144.988365 
L 160.329139 148.684832 
L 161.447345 148.684832 
L 161.447345 133.050595 
L 162.565551 133.050595 
L 162.565551 122.900461 
L 163.683756 122.900461 
L 163.683756 115.439355 
L 164.801962 115.439355 
L 164.801962 114.322083 
L 165.920168 114.322083 
L 165.920168 101.244317 
L 167.038373 101.244317 
L 167.038373 109.057648 
L 168.156579 109.057648 
L 168.156579 95.1353 
L 169.274785 95.1353 
L 169.274785 103.175873 
L 170.39299 103.175873 
L 170.39299 85.894133 
L 171.511196 85.894133 
L 171.511196 81.080394 
L 172.629402 81.080394 
L 172.629402 88.61346 
L 173.747608 88.61346 
L 173.747608 66.139245 
L 174.865813 66.139245 
L 174.865813 91.726673 
L 175.984019 91.726673 
L 175.984019 70.574248 
L 177.102225 70.574248 
L 177.102225 92.737899 
L 178.22043 92.737899 
L 178.22043 77.463462 
L 179.338636 77.463462 
L 179.338636 80.319134 
L 180.456842 80.319134 
L 180.456842 83.436134 
L 181.575048 83.436134 
L 181.575048 71.149927 
L 182.693253 71.149927 
L 182.693253 87.878712 
L 183.811459 87.878712 
L 183.811459 86.799313 
L 184.929665 86.799313 
L 184.929665 74.433571 
L 186.04787 74.433571 
L 186.04787 86.519048 
L 187.166076 86.519048 
L 187.166076 104.713542 
L 188.284282 104.713542 
L 188.284282 92.957566 
L 189.402488 92.957566 
L 189.402488 77.94067 
L 190.520693 77.94067 
L 190.520693 77.103663 
L 191.638899 77.103663 
L 191.638899 104.539323 
L 192.757105 104.539323 
L 192.757105 95.237559 
L 193.87531 95.237559 
L 193.87531 82.799857 
L 194.993516 82.799857 
L 194.993516 97.119878 
L 196.111722 97.119878 
L 196.111722 86.322105 
L 197.229928 86.322105 
L 197.229928 72.543677 
L 198.348133 72.543677 
L 198.348133 91.204017 
L 199.466339 91.204017 
L 199.466339 98.729508 
L 200.584545 98.729508 
L 200.584545 92.230392 
L 201.70275 92.230392 
L 201.70275 92.737899 
L 202.820956 92.737899 
L 202.820956 111.170997 
L 203.939162 111.170997 
L 203.939162 105.387693 
L 205.057368 105.387693 
L 205.057368 122.620196 
L 206.175573 122.620196 
L 206.175573 91.143419 
L 207.293779 91.143419 
L 207.293779 115.742344 
L 208.411985 115.742344 
L 208.411985 116.848254 
L 209.53019 116.848254 
L 209.53019 115.825666 
L 210.648396 115.825666 
L 210.648396 109.606816 
L 211.766602 109.606816 
L 211.766602 114.333445 
L 212.884808 114.333445 
L 212.884808 122.006643 
L 214.003013 122.006643 
L 214.003013 123.631422 
L 215.121219 123.631422 
L 215.121219 121.324918 
L 216.239425 121.324918 
L 216.239425 122.502788 
L 217.35763 122.502788 
L 217.35763 117.628451 
L 218.475836 117.628451 
L 218.475836 119.821335 
L 219.594042 119.821335 
L 219.594042 116.681611 
L 220.712248 116.681611 
L 220.712248 131.361431 
L 221.830453 131.361431 
L 221.830453 130.475188 
L 222.948659 130.475188 
L 222.948659 132.077243 
L 224.066865 132.077243 
L 224.066865 139.394429 
L 225.18507 139.394429 
L 225.18507 147.620582 
L 226.303276 147.620582 
L 226.303276 144.916405 
L 227.421482 144.916405 
L 227.421482 160.728647 
L 228.539688 160.728647 
L 228.539688 162.785186 
L 229.657893 162.785186 
L 229.657893 161.349775 
L 230.776099 161.349775 
L 230.776099 163.49721 
L 231.894305 163.49721 
L 231.894305 175.351657 
L 233.01251 175.351657 
L 233.01251 167.045969 
L 234.130716 167.045969 
L 234.130716 166.061255 
L 235.248922 166.061255 
L 235.248922 175.238037 
L 236.367128 175.238037 
L 236.367128 170.587154 
L 237.485333 170.587154 
L 237.485333 172.124824 
L 238.603539 172.124824 
L 238.603539 168.269288 
L 239.721745 168.269288 
L 239.721745 170.78031 
L 240.83995 170.78031 
L 240.83995 150.498979 
L 241.958156 150.498979 
L 241.958156 148.31367 
L 243.076362 148.31367 
L 243.076362 141.727445 
L 244.194567 141.727445 
L 244.194567 132.240099 
L 245.312773 132.240099 
L 245.312773 136.633441 
L 246.430979 136.633441 
L 246.430979 127.486958 
L 247.549185 127.486958 
L 247.549185 124.638861 
L 248.66739 124.638861 
L 248.66739 120.169772 
L 249.785596 120.169772 
L 249.785596 110.576381 
L 250.903802 110.576381 
L 250.903802 116.314236 
L 252.022007 116.314236 
L 252.022007 131.478839 
L 253.140213 131.478839 
L 253.140213 133.209665 
L 254.258419 133.209665 
L 254.258419 143.855943 
L 255.376625 143.855943 
L 255.376625 156.808726 
L 256.49483 156.808726 
L 256.49483 154.214382 
L 257.613036 154.214382 
L 257.613036 152.60854 
L 258.731242 152.60854 
L 258.731242 177.415771 
L 259.849447 177.415771 
L 259.849447 175.370594 
L 260.967653 175.370594 
L 260.967653 184.308772 
L 262.085859 184.308772 
L 262.085859 185.694947 
L 263.204065 185.694947 
L 263.204065 194.314986 
L 264.32227 194.314986 
L 264.32227 195.125482 
L 265.440476 195.125482 
L 265.440476 201.825328 
L 266.558682 201.825328 
L 266.558682 189.667891 
L 267.676887 189.667891 
L 267.676887 181.918946 
L 268.795093 181.918946 
L 268.795093 173.412527 
L 269.913299 173.412527 
L 269.913299 154.89232 
L 271.031505 154.89232 
L 271.031505 147.306231 
L 272.14971 147.306231 
L 272.14971 127.710413 
L 273.267916 127.710413 
L 273.267916 119.874358 
L 274.386122 119.874358 
L 274.386122 98.752232 
L 275.504327 98.752232 
L 275.504327 114.132715 
L 276.622533 114.132715 
L 276.622533 68.566945 
L 277.740739 68.566945 
L 277.740739 87.329544 
L 278.858945 87.329544 
L 278.858945 49.175645 
L 279.97715 49.175645 
L 279.97715 59.189434 
L 281.095356 59.189434 
L 281.095356 35.389642 
L 282.213562 35.389642 
L 282.213562 51.508661 
L 283.331767 51.508661 
L 283.331767 48.020499 
L 284.449973 48.020499 
L 284.449973 39.991288 
L 285.568179 39.991288 
L 285.568179 47.3009 
L 286.686385 47.3009 
L 286.686385 54.258286 
L 287.80459 54.258286 
L 287.80459 63.556264 
L 288.922796 63.556264 
L 288.922796 65.427221 
L 290.041002 65.427221 
L 290.041002 54.924862 
L 291.159207 54.924862 
L 291.159207 58.132759 
L 292.277413 58.132759 
L 292.277413 56.882929 
L 293.395619 56.882929 
L 293.395619 45.816253 
L 294.513825 45.816253 
L 294.513825 33.43915 
L 295.63203 33.43915 
L 295.63203 42.191747 
L 296.750236 42.191747 
L 296.750236 42.513672 
L 297.868442 42.513672 
L 297.868442 33.056626 
L 298.986647 33.056626 
L 298.986647 57.053361 
L 300.104853 57.053361 
L 300.104853 42.604569 
L 301.223059 42.604569 
L 301.223059 63.609287 
L 302.341265 63.609287 
L 302.341265 53.031181 
L 303.45947 53.031181 
L 303.45947 35.92366 
L 304.577676 35.92366 
L 304.577676 58.572093 
L 305.695882 58.572093 
L 305.695882 63.628224 
L 306.814087 63.628224 
L 306.814087 51.626069 
L 307.932293 51.626069 
L 307.932293 66.57858 
L 309.050499 66.57858 
L 309.050499 78.410303 
L 310.168705 78.410303 
L 310.168705 47.600101 
L 311.28691 47.600101 
L 311.28691 56.45117 
L 312.405116 56.45117 
L 312.405116 62.158727 
L 314.641527 62.253411 
L 314.641527 55.386921 
L 315.759733 55.386921 
L 315.759733 73.020885 
L 316.877939 73.020885 
L 316.877939 95.919284 
L 317.996144 95.919284 
L 317.996144 77.406652 
L 319.11435 77.406652 
L 319.11435 93.61278 
L 320.232556 93.61278 
L 320.232556 69.237309 
L 321.350762 69.237309 
L 321.350762 98.040208 
L 322.468967 98.040208 
L 322.468967 111.299767 
L 323.587173 111.299767 
L 323.587173 87.371205 
L 324.705379 87.371205 
L 324.705379 79.194287 
L 325.823584 79.194287 
L 325.823584 106.550413 
L 326.94179 106.550413 
L 326.94179 102.717602 
L 328.059996 102.717602 
L 328.059996 96.805527 
L 329.178202 96.805527 
L 329.178202 96.237423 
L 330.296407 96.237423 
L 330.296407 110.19007 
L 331.414613 110.19007 
L 331.414613 103.679592 
L 332.532819 103.679592 
L 332.532819 119.461535 
L 333.651024 119.461535 
L 333.651024 99.221865 
L 334.76923 99.221865 
L 334.76923 111.049801 
L 335.887436 111.049801 
L 335.887436 116.855829 
L 337.005642 116.855829 
L 337.005642 93.484009 
L 338.123847 93.484009 
L 338.123847 102.744113 
L 339.242053 102.744113 
L 339.242053 103.020591 
L 340.360259 103.020591 
L 340.360259 116.06427 
L 341.478464 116.06427 
L 341.478464 96.631308 
L 342.59667 96.631308 
L 342.59667 99.839205 
L 343.714876 99.839205 
L 343.714876 96.267722 
L 344.833082 96.267722 
L 344.833082 102.270693 
L 345.951287 102.270693 
L 345.951287 93.010589 
L 347.069493 93.010589 
L 347.069493 103.001654 
L 348.187699 103.001654 
L 348.187699 118.378349 
L 349.305904 118.378349 
L 349.305904 119.692564 
L 350.42411 119.692564 
L 350.42411 110.905881 
L 351.542316 110.905881 
L 351.542316 115.780218 
L 352.660522 115.780218 
L 352.660522 118.696488 
L 353.778727 118.696488 
L 353.778727 137.864334 
L 354.896933 137.864334 
L 354.896933 123.972285 
L 356.015139 123.972285 
L 356.015139 140.072367 
L 357.133344 140.072367 
L 357.133344 137.542408 
L 358.25155 137.542408 
L 358.25155 145.529958 
L 359.369756 145.529958 
L 359.369756 154.695377 
L 360.487962 154.695377 
L 360.487962 156.888261 
L 361.606167 156.888261 
L 361.606167 169.628951 
L 362.724373 169.628951 
L 362.724373 180.453236 
L 363.842579 180.453236 
L 363.842579 181.286456 
L 364.960784 181.286456 
L 364.960784 186.827369 
L 366.07899 186.827369 
L 366.07899 197.147934 
L 367.197196 197.147934 
L 367.197196 208.457001 
L 368.315402 208.457001 
L 368.315402 213.183631 
L 369.433607 213.183631 
L 369.433607 216.846011 
L 370.551813 216.846011 
L 370.551813 216.970994 
L 371.670019 216.970994 
L 371.670019 217.561823 
L 372.788224 217.561823 
L 372.788224 213.706287 
L 373.90643 213.706287 
L 373.90643 203.984125 
L 375.024636 203.984125 
L 375.024636 196.36395 
L 376.142842 196.36395 
L 376.142842 193.727945 
L 377.261047 193.727945 
L 377.261047 182.805189 
L 378.379253 182.805189 
L 378.379253 166.458928 
L 379.497459 166.458928 
L 379.497459 158.887989 
L 380.615664 158.887989 
L 380.615664 153.006213 
L 381.73387 153.006213 
L 381.73387 126.755997 
L 382.852076 126.755997 
L 382.852076 71.729394 
L 383.970282 71.729394 
L 383.970282 74.566129 
L 385.088487 74.566129 
L 385.088487 74.75171 
L 386.206693 74.75171 
L 386.206693 66.786885 
L 387.324899 66.786885 
L 387.324899 57.000338 
L 388.443104 57.000338 
L 388.443104 70.468202 
L 389.56131 70.468202 
L 389.56131 53.95151 
L 390.679516 53.95151 
L 390.679516 92.457634 
L 391.797721 92.457634 
L 391.797721 65.052272 
L 392.915927 65.052272 
L 392.915927 58.86372 
L 394.034133 58.86372 
L 394.034133 78.046716 
L 395.152339 78.046716 
L 395.152339 74.088921 
L 396.270544 74.088921 
L 396.270544 73.551116 
L 397.38875 73.551116 
L 397.38875 73.039822 
L 399.625161 72.990586 
L 399.625161 66.309677 
L 400.743367 66.309677 
L 400.743367 74.918354 
L 401.861573 74.918354 
L 401.861573 61.177799 
L 402.979779 61.177799 
L 402.979779 86.893997 
L 404.097984 86.893997 
L 404.097984 80.781193 
L 405.21619 80.781193 
L 405.21619 90.946476 
L 406.334396 90.946476 
L 406.334396 74.675963 
L 407.452601 74.675963 
L 407.452601 70.684082 
L 408.570807 70.684082 
L 408.570807 74.827457 
L 409.689013 74.827457 
L 409.689013 72.104343 
L 410.807219 72.104343 
L 410.807219 94.873972 
L 411.925424 94.873972 
L 411.925424 94.873972 
" clip-path="url(#p817d721958)" style="fill: none; stroke: #1f77b4; stroke-width: 1.5; stroke-linecap: square"/>
   </g>
  </g>
  <g id="axes_2">
   <g id="patch_7">
    <path d="M 496.191635 258.565145 
L 865.19952 258.565145 
L 865.19952 22.318125 
L 496.191635 22.318125 
z
" style="fill: #ffffff"/>
   </g>
   <g id="matplotlib.axis_3">
    <g id="xtick_9">
     <g id="line2d_17">
      <g>
       <use xlink:href="#me2190a1de6" x="512.963633" y="258.565145" style="stroke: #000000; stroke-width: 0.8"/>
      </g>
     </g>
     <g id="text_19">
      <!-- 0 -->
      <g transform="translate(509.782383 273.163582) scale(0.1 -0.1)">
       <use xlink:href="#DejaVuSans-30"/>
      </g>
     </g>
    </g>
    <g id="xtick_10">
     <g id="line2d_18">
      <g>
       <use xlink:href="#me2190a1de6" x="559.928458" y="258.565145" style="stroke: #000000; stroke-width: 0.8"/>
      </g>
     </g>
     <g id="text_20">
      <!-- 10000 -->
      <g transform="translate(544.022208 273.163582) scale(0.1 -0.1)">
       <use xlink:href="#DejaVuSans-31"/>
       <use xlink:href="#DejaVuSans-30" x="63.623047"/>
       <use xlink:href="#DejaVuSans-30" x="127.246094"/>
       <use xlink:href="#DejaVuSans-30" x="190.869141"/>
       <use xlink:href="#DejaVuSans-30" x="254.492188"/>
      </g>
     </g>
    </g>
    <g id="xtick_11">
     <g id="line2d_19">
      <g>
       <use xlink:href="#me2190a1de6" x="606.893282" y="258.565145" style="stroke: #000000; stroke-width: 0.8"/>
      </g>
     </g>
     <g id="text_21">
      <!-- 20000 -->
      <g transform="translate(590.987032 273.163582) scale(0.1 -0.1)">
       <use xlink:href="#DejaVuSans-32"/>
       <use xlink:href="#DejaVuSans-30" x="63.623047"/>
       <use xlink:href="#DejaVuSans-30" x="127.246094"/>
       <use xlink:href="#DejaVuSans-30" x="190.869141"/>
       <use xlink:href="#DejaVuSans-30" x="254.492188"/>
      </g>
     </g>
    </g>
    <g id="xtick_12">
     <g id="line2d_20">
      <g>
       <use xlink:href="#me2190a1de6" x="653.858107" y="258.565145" style="stroke: #000000; stroke-width: 0.8"/>
      </g>
     </g>
     <g id="text_22">
      <!-- 30000 -->
      <g transform="translate(637.951857 273.163582) scale(0.1 -0.1)">
       <use xlink:href="#DejaVuSans-33"/>
       <use xlink:href="#DejaVuSans-30" x="63.623047"/>
       <use xlink:href="#DejaVuSans-30" x="127.246094"/>
       <use xlink:href="#DejaVuSans-30" x="190.869141"/>
       <use xlink:href="#DejaVuSans-30" x="254.492188"/>
      </g>
     </g>
    </g>
    <g id="xtick_13">
     <g id="line2d_21">
      <g>
       <use xlink:href="#me2190a1de6" x="700.822931" y="258.565145" style="stroke: #000000; stroke-width: 0.8"/>
      </g>
     </g>
     <g id="text_23">
      <!-- 40000 -->
      <g transform="translate(684.916681 273.163582) scale(0.1 -0.1)">
       <use xlink:href="#DejaVuSans-34"/>
       <use xlink:href="#DejaVuSans-30" x="63.623047"/>
       <use xlink:href="#DejaVuSans-30" x="127.246094"/>
       <use xlink:href="#DejaVuSans-30" x="190.869141"/>
       <use xlink:href="#DejaVuSans-30" x="254.492188"/>
      </g>
     </g>
    </g>
    <g id="xtick_14">
     <g id="line2d_22">
      <g>
       <use xlink:href="#me2190a1de6" x="747.787755" y="258.565145" style="stroke: #000000; stroke-width: 0.8"/>
      </g>
     </g>
     <g id="text_24">
      <!-- 50000 -->
      <g transform="translate(731.881505 273.163582) scale(0.1 -0.1)">
       <use xlink:href="#DejaVuSans-35"/>
       <use xlink:href="#DejaVuSans-30" x="63.623047"/>
       <use xlink:href="#DejaVuSans-30" x="127.246094"/>
       <use xlink:href="#DejaVuSans-30" x="190.869141"/>
       <use xlink:href="#DejaVuSans-30" x="254.492188"/>
      </g>
     </g>
    </g>
    <g id="xtick_15">
     <g id="line2d_23">
      <g>
       <use xlink:href="#me2190a1de6" x="794.75258" y="258.565145" style="stroke: #000000; stroke-width: 0.8"/>
      </g>
     </g>
     <g id="text_25">
      <!-- 60000 -->
      <g transform="translate(778.84633 273.163582) scale(0.1 -0.1)">
       <use xlink:href="#DejaVuSans-36"/>
       <use xlink:href="#DejaVuSans-30" x="63.623047"/>
       <use xlink:href="#DejaVuSans-30" x="127.246094"/>
       <use xlink:href="#DejaVuSans-30" x="190.869141"/>
       <use xlink:href="#DejaVuSans-30" x="254.492188"/>
      </g>
     </g>
    </g>
    <g id="xtick_16">
     <g id="line2d_24">
      <g>
       <use xlink:href="#me2190a1de6" x="841.717404" y="258.565145" style="stroke: #000000; stroke-width: 0.8"/>
      </g>
     </g>
     <g id="text_26">
      <!-- 70000 -->
      <g transform="translate(825.811154 273.163582) scale(0.1 -0.1)">
       <use xlink:href="#DejaVuSans-37"/>
       <use xlink:href="#DejaVuSans-30" x="63.623047"/>
       <use xlink:href="#DejaVuSans-30" x="127.246094"/>
       <use xlink:href="#DejaVuSans-30" x="190.869141"/>
       <use xlink:href="#DejaVuSans-30" x="254.492188"/>
      </g>
     </g>
    </g>
    <g id="text_27">
     <!-- event_time_offset [µs] -->
     <g transform="translate(624.660421 286.841707) scale(0.1 -0.1)">
      <use xlink:href="#DejaVuSans-65"/>
      <use xlink:href="#DejaVuSans-76" x="61.523438"/>
      <use xlink:href="#DejaVuSans-65" x="120.703125"/>
      <use xlink:href="#DejaVuSans-6e" x="182.226562"/>
      <use xlink:href="#DejaVuSans-74" x="245.605469"/>
      <use xlink:href="#DejaVuSans-5f" x="284.814453"/>
      <use xlink:href="#DejaVuSans-74" x="334.814453"/>
      <use xlink:href="#DejaVuSans-69" x="374.023438"/>
      <use xlink:href="#DejaVuSans-6d" x="401.806641"/>
      <use xlink:href="#DejaVuSans-65" x="499.21875"/>
      <use xlink:href="#DejaVuSans-5f" x="560.742188"/>
      <use xlink:href="#DejaVuSans-6f" x="610.742188"/>
      <use xlink:href="#DejaVuSans-66" x="671.923828"/>
      <use xlink:href="#DejaVuSans-66" x="707.128906"/>
      <use xlink:href="#DejaVuSans-73" x="742.333984"/>
      <use xlink:href="#DejaVuSans-65" x="794.433594"/>
      <use xlink:href="#DejaVuSans-74" x="855.957031"/>
      <use xlink:href="#DejaVuSans-20" x="895.166016"/>
      <use xlink:href="#DejaVuSans-5b" x="926.953125"/>
      <use xlink:href="#DejaVuSans-b5" x="965.966797"/>
      <use xlink:href="#DejaVuSans-73" x="1029.589844"/>
      <use xlink:href="#DejaVuSans-5d" x="1081.689453"/>
     </g>
    </g>
   </g>
   <g id="matplotlib.axis_4">
    <g id="ytick_8">
     <g id="line2d_25">
      <g>
       <use xlink:href="#m1240eafea2" x="496.191635" y="249.438431" style="stroke: #000000; stroke-width: 0.8"/>
      </g>
     </g>
     <g id="text_28">
      <!-- 0 -->
      <g transform="translate(482.829135 253.237649) scale(0.1 -0.1)">
       <use xlink:href="#DejaVuSans-30"/>
      </g>
     </g>
    </g>
    <g id="ytick_9">
     <g id="line2d_26">
      <g>
       <use xlink:href="#m1240eafea2" x="496.191635" y="222.682346" style="stroke: #000000; stroke-width: 0.8"/>
      </g>
     </g>
     <g id="text_29">
      <!-- 25000 -->
      <g transform="translate(457.379135 226.481565) scale(0.1 -0.1)">
       <use xlink:href="#DejaVuSans-32"/>
       <use xlink:href="#DejaVuSans-35" x="63.623047"/>
       <use xlink:href="#DejaVuSans-30" x="127.246094"/>
       <use xlink:href="#DejaVuSans-30" x="190.869141"/>
       <use xlink:href="#DejaVuSans-30" x="254.492188"/>
      </g>
     </g>
    </g>
    <g id="ytick_10">
     <g id="line2d_27">
      <g>
       <use xlink:href="#m1240eafea2" x="496.191635" y="195.926262" style="stroke: #000000; stroke-width: 0.8"/>
      </g>
     </g>
     <g id="text_30">
      <!-- 50000 -->
      <g transform="translate(457.379135 199.725481) scale(0.1 -0.1)">
       <use xlink:href="#DejaVuSans-35"/>
       <use xlink:href="#DejaVuSans-30" x="63.623047"/>
       <use xlink:href="#DejaVuSans-30" x="127.246094"/>
       <use xlink:href="#DejaVuSans-30" x="190.869141"/>
       <use xlink:href="#DejaVuSans-30" x="254.492188"/>
      </g>
     </g>
    </g>
    <g id="ytick_11">
     <g id="line2d_28">
      <g>
       <use xlink:href="#m1240eafea2" x="496.191635" y="169.170178" style="stroke: #000000; stroke-width: 0.8"/>
      </g>
     </g>
     <g id="text_31">
      <!-- 75000 -->
      <g transform="translate(457.379135 172.969397) scale(0.1 -0.1)">
       <use xlink:href="#DejaVuSans-37"/>
       <use xlink:href="#DejaVuSans-35" x="63.623047"/>
       <use xlink:href="#DejaVuSans-30" x="127.246094"/>
       <use xlink:href="#DejaVuSans-30" x="190.869141"/>
       <use xlink:href="#DejaVuSans-30" x="254.492188"/>
      </g>
     </g>
    </g>
    <g id="ytick_12">
     <g id="line2d_29">
      <g>
       <use xlink:href="#m1240eafea2" x="496.191635" y="142.414094" style="stroke: #000000; stroke-width: 0.8"/>
      </g>
     </g>
     <g id="text_32">
      <!-- 100000 -->
      <g transform="translate(451.016635 146.213312) scale(0.1 -0.1)">
       <use xlink:href="#DejaVuSans-31"/>
       <use xlink:href="#DejaVuSans-30" x="63.623047"/>
       <use xlink:href="#DejaVuSans-30" x="127.246094"/>
       <use xlink:href="#DejaVuSans-30" x="190.869141"/>
       <use xlink:href="#DejaVuSans-30" x="254.492188"/>
       <use xlink:href="#DejaVuSans-30" x="318.115234"/>
      </g>
     </g>
    </g>
    <g id="ytick_13">
     <g id="line2d_30">
      <g>
       <use xlink:href="#m1240eafea2" x="496.191635" y="115.658009" style="stroke: #000000; stroke-width: 0.8"/>
      </g>
     </g>
     <g id="text_33">
      <!-- 125000 -->
      <g transform="translate(451.016635 119.457228) scale(0.1 -0.1)">
       <use xlink:href="#DejaVuSans-31"/>
       <use xlink:href="#DejaVuSans-32" x="63.623047"/>
       <use xlink:href="#DejaVuSans-35" x="127.246094"/>
       <use xlink:href="#DejaVuSans-30" x="190.869141"/>
       <use xlink:href="#DejaVuSans-30" x="254.492188"/>
       <use xlink:href="#DejaVuSans-30" x="318.115234"/>
      </g>
     </g>
    </g>
    <g id="ytick_14">
     <g id="line2d_31">
      <g>
       <use xlink:href="#m1240eafea2" x="496.191635" y="88.901925" style="stroke: #000000; stroke-width: 0.8"/>
      </g>
     </g>
     <g id="text_34">
      <!-- 150000 -->
      <g transform="translate(451.016635 92.701144) scale(0.1 -0.1)">
       <use xlink:href="#DejaVuSans-31"/>
       <use xlink:href="#DejaVuSans-35" x="63.623047"/>
       <use xlink:href="#DejaVuSans-30" x="127.246094"/>
       <use xlink:href="#DejaVuSans-30" x="190.869141"/>
       <use xlink:href="#DejaVuSans-30" x="254.492188"/>
       <use xlink:href="#DejaVuSans-30" x="318.115234"/>
      </g>
     </g>
    </g>
    <g id="ytick_15">
     <g id="line2d_32">
      <g>
       <use xlink:href="#m1240eafea2" x="496.191635" y="62.145841" style="stroke: #000000; stroke-width: 0.8"/>
      </g>
     </g>
     <g id="text_35">
      <!-- 175000 -->
      <g transform="translate(451.016635 65.945059) scale(0.1 -0.1)">
       <use xlink:href="#DejaVuSans-31"/>
       <use xlink:href="#DejaVuSans-37" x="63.623047"/>
       <use xlink:href="#DejaVuSans-35" x="127.246094"/>
       <use xlink:href="#DejaVuSans-30" x="190.869141"/>
       <use xlink:href="#DejaVuSans-30" x="254.492188"/>
       <use xlink:href="#DejaVuSans-30" x="318.115234"/>
      </g>
     </g>
    </g>
    <g id="ytick_16">
     <g id="line2d_33">
      <g>
       <use xlink:href="#m1240eafea2" x="496.191635" y="35.389756" style="stroke: #000000; stroke-width: 0.8"/>
      </g>
     </g>
     <g id="text_36">
      <!-- 200000 -->
      <g transform="translate(451.016635 39.188975) scale(0.1 -0.1)">
       <use xlink:href="#DejaVuSans-32"/>
       <use xlink:href="#DejaVuSans-30" x="63.623047"/>
       <use xlink:href="#DejaVuSans-30" x="127.246094"/>
       <use xlink:href="#DejaVuSans-30" x="190.869141"/>
       <use xlink:href="#DejaVuSans-30" x="254.492188"/>
       <use xlink:href="#DejaVuSans-30" x="318.115234"/>
      </g>
     </g>
    </g>
    <g id="text_37">
     <!-- [counts] -->
     <g transform="translate(444.936947 161.054135) rotate(-90) scale(0.1 -0.1)">
      <use xlink:href="#DejaVuSans-5b"/>
      <use xlink:href="#DejaVuSans-63" x="39.013672"/>
      <use xlink:href="#DejaVuSans-6f" x="93.994141"/>
      <use xlink:href="#DejaVuSans-75" x="155.175781"/>
      <use xlink:href="#DejaVuSans-6e" x="218.554688"/>
      <use xlink:href="#DejaVuSans-74" x="281.933594"/>
      <use xlink:href="#DejaVuSans-73" x="321.142578"/>
      <use xlink:href="#DejaVuSans-5d" x="373.242188"/>
     </g>
    </g>
   </g>
   <g id="patch_8">
    <path d="M 496.191635 258.565145 
L 496.191635 22.318125 
" style="fill: none; stroke: #000000; stroke-width: 0.8; stroke-linejoin: miter; stroke-linecap: square"/>
   </g>
   <g id="patch_9">
    <path d="M 865.19952 258.565145 
L 865.19952 22.318125 
" style="fill: none; stroke: #000000; stroke-width: 0.8; stroke-linejoin: miter; stroke-linecap: square"/>
   </g>
   <g id="patch_10">
    <path d="M 496.191635 258.565145 
L 865.19952 258.565145 
" style="fill: none; stroke: #000000; stroke-width: 0.8; stroke-linejoin: miter; stroke-linecap: square"/>
   </g>
   <g id="patch_11">
    <path d="M 496.191635 22.318125 
L 865.19952 22.318125 
" style="fill: none; stroke: #000000; stroke-width: 0.8; stroke-linejoin: miter; stroke-linecap: square"/>
   </g>
   <g id="text_38">
    <!-- McStas simulation: open beam -->
    <g transform="translate(588.241202 16.318125) scale(0.12 -0.12)">
     <defs>
      <path id="DejaVuSans-62" d="M 3116 1747 
Q 3116 2381 2855 2742 
Q 2594 3103 2138 3103 
Q 1681 3103 1420 2742 
Q 1159 2381 1159 1747 
Q 1159 1113 1420 752 
Q 1681 391 2138 391 
Q 2594 391 2855 752 
Q 3116 1113 3116 1747 
z
M 1159 2969 
Q 1341 3281 1617 3432 
Q 1894 3584 2278 3584 
Q 2916 3584 3314 3078 
Q 3713 2572 3713 1747 
Q 3713 922 3314 415 
Q 2916 -91 2278 -91 
Q 1894 -91 1617 61 
Q 1341 213 1159 525 
L 1159 0 
L 581 0 
L 581 4863 
L 1159 4863 
L 1159 2969 
z
" transform="scale(0.015625)"/>
     </defs>
     <use xlink:href="#DejaVuSans-4d"/>
     <use xlink:href="#DejaVuSans-63" x="86.279297"/>
     <use xlink:href="#DejaVuSans-53" x="141.259766"/>
     <use xlink:href="#DejaVuSans-74" x="204.736328"/>
     <use xlink:href="#DejaVuSans-61" x="243.945312"/>
     <use xlink:href="#DejaVuSans-73" x="305.224609"/>
     <use xlink:href="#DejaVuSans-20" x="357.324219"/>
     <use xlink:href="#DejaVuSans-73" x="389.111328"/>
     <use xlink:href="#DejaVuSans-69" x="441.210938"/>
     <use xlink:href="#DejaVuSans-6d" x="468.994141"/>
     <use xlink:href="#DejaVuSans-75" x="566.40625"/>
     <use xlink:href="#DejaVuSans-6c" x="629.785156"/>
     <use xlink:href="#DejaVuSans-61" x="657.568359"/>
     <use xlink:href="#DejaVuSans-74" x="718.847656"/>
     <use xlink:href="#DejaVuSans-69" x="758.056641"/>
     <use xlink:href="#DejaVuSans-6f" x="785.839844"/>
     <use xlink:href="#DejaVuSans-6e" x="847.021484"/>
     <use xlink:href="#DejaVuSans-3a" x="910.400391"/>
     <use xlink:href="#DejaVuSans-20" x="944.091797"/>
     <use xlink:href="#DejaVuSans-6f" x="975.878906"/>
     <use xlink:href="#DejaVuSans-70" x="1037.060547"/>
     <use xlink:href="#DejaVuSans-65" x="1100.537109"/>
     <use xlink:href="#DejaVuSans-6e" x="1162.060547"/>
     <use xlink:href="#DejaVuSans-20" x="1225.439453"/>
     <use xlink:href="#DejaVuSans-62" x="1257.226562"/>
     <use xlink:href="#DejaVuSans-65" x="1320.703125"/>
     <use xlink:href="#DejaVuSans-61" x="1382.226562"/>
     <use xlink:href="#DejaVuSans-6d" x="1443.505859"/>
    </g>
   </g>
   <g id="line2d_34">
    <path d="M 512.964721 122.570711 
L 514.082926 122.570711 
L 514.082926 118.070338 
L 515.201132 118.070338 
L 515.201132 128.427083 
L 516.319338 128.427083 
L 516.319338 119.410283 
L 517.437544 119.410283 
L 517.437544 129.412777 
L 518.555749 129.412777 
L 518.555749 126.766065 
L 519.673955 126.766065 
L 519.673955 131.999555 
L 520.792161 131.999555 
L 520.792161 134.397971 
L 521.910366 134.397971 
L 521.910366 138.0871 
L 523.028572 138.0871 
L 523.028572 142.74908 
L 524.146778 142.74908 
L 524.146778 142.39804 
L 525.264984 142.39804 
L 525.264984 139.905443 
L 526.383189 139.905443 
L 526.383189 142.034157 
L 527.501395 142.034157 
L 527.501395 138.972191 
L 528.619601 138.972191 
L 528.619601 149.848004 
L 529.737806 149.848004 
L 529.737806 145.233115 
L 530.856012 145.233115 
L 530.856012 146.79781 
L 531.974218 146.79781 
L 531.974218 148.828062 
L 533.092423 148.828062 
L 533.092423 148.271536 
L 534.210629 148.271536 
L 534.210629 147.991132 
L 535.328835 147.991132 
L 535.328835 145.582014 
L 536.447041 145.582014 
L 536.447041 155.166043 
L 537.565246 155.166043 
L 537.565246 152.228225 
L 538.683452 152.228225 
L 538.683452 147.707517 
L 539.801658 147.707517 
L 539.801658 149.326795 
L 540.919863 149.326795 
L 540.919863 153.891383 
L 542.038069 153.891383 
L 542.038069 152.966693 
L 543.156275 152.966693 
L 543.156275 155.720429 
L 544.274481 155.720429 
L 544.274481 158.094229 
L 546.510892 158.159514 
L 546.510892 157.933693 
L 547.629098 157.933693 
L 547.629098 162.729453 
L 548.747303 162.729453 
L 548.747303 156.60445 
L 549.865509 156.60445 
L 549.865509 164.038361 
L 550.983715 164.038361 
L 550.983715 169.124157 
L 552.101921 169.124157 
L 552.101921 165.097902 
L 553.220126 165.097902 
L 553.220126 174.219586 
L 554.338332 174.219586 
L 554.338332 173.483259 
L 555.456538 173.483259 
L 555.456538 176.344019 
L 557.692949 176.270172 
L 557.692949 179.712075 
L 558.811155 179.712075 
L 558.811155 182.847888 
L 559.929361 182.847888 
L 559.929361 184.685496 
L 561.047566 184.685496 
L 561.047566 183.903148 
L 562.165772 183.903148 
L 562.165772 190.006746 
L 563.283978 190.006746 
L 563.283978 198.530164 
L 564.402183 198.530164 
L 564.402183 206.563411 
L 565.520389 206.563411 
L 565.520389 210.437692 
L 566.638595 210.437692 
L 566.638595 218.668934 
L 567.756801 218.668934 
L 567.756801 224.01908 
L 568.875006 224.01908 
L 568.875006 230.949976 
L 569.993212 230.949976 
L 569.993212 236.85986 
L 571.111418 236.85986 
L 571.111418 239.857612 
L 572.229623 239.857612 
L 572.229623 243.682662 
L 573.347829 243.682662 
L 573.347829 246.422485 
L 574.466035 246.422485 
L 574.466035 247.826644 
L 575.584241 247.826644 
L 575.584241 244.655513 
L 576.702446 244.655513 
L 576.702446 239.769852 
L 577.820652 239.769852 
L 577.820652 235.580919 
L 578.938858 235.580919 
L 578.938858 227.150612 
L 580.057063 227.150612 
L 580.057063 219.272551 
L 581.175269 219.272551 
L 581.175269 212.619918 
L 582.293475 212.619918 
L 582.293475 203.606328 
L 583.411681 203.606328 
L 583.411681 196.517036 
L 584.529886 196.517036 
L 584.529886 188.842321 
L 585.648092 188.842321 
L 585.648092 186.327249 
L 586.766298 186.327249 
L 586.766298 176.035789 
L 587.884503 176.035789 
L 587.884503 165.911287 
L 589.002709 165.911287 
L 589.002709 166.563065 
L 590.120915 166.563065 
L 590.120915 171.796555 
L 591.239121 171.796555 
L 591.239121 164.159298 
L 592.357326 164.159298 
L 592.357326 167.000794 
L 593.475532 167.000794 
L 593.475532 164.56278 
L 594.593738 164.56278 
L 594.593738 167.708225 
L 595.711943 167.708225 
L 595.711943 162.543231 
L 596.830149 162.543231 
L 596.830149 155.569525 
L 597.948355 155.569525 
L 597.948355 156.877362 
L 599.066561 156.877362 
L 599.066561 149.858706 
L 600.184766 149.858706 
L 600.184766 135.286273 
L 601.302972 135.286273 
L 601.302972 129.793784 
L 602.421178 129.793784 
L 602.421178 136.868092 
L 603.539383 136.868092 
L 603.539383 125.288059 
L 604.657589 125.288059 
L 604.657589 107.837741 
L 605.775795 107.837741 
L 605.775795 107.17526 
L 606.894 107.17526 
L 606.894 106.044013 
L 608.012206 106.044013 
L 608.012206 112.119785 
L 609.130412 112.119785 
L 609.130412 104.507144 
L 610.248618 104.507144 
L 610.248618 106.493515 
L 611.366823 106.493515 
L 611.366823 99.944696 
L 612.485029 99.944696 
L 612.485029 94.669467 
L 613.603235 94.669467 
L 613.603235 109.45916 
L 614.72144 109.45916 
L 614.72144 113.891037 
L 615.839646 113.891037 
L 615.839646 93.637752 
L 616.957852 93.637752 
L 616.957852 98.431372 
L 618.076058 98.431372 
L 618.076058 106.20669 
L 619.194263 106.20669 
L 619.194263 89.519455 
L 620.312469 89.519455 
L 620.312469 110.857968 
L 621.430675 110.857968 
L 621.430675 100.79875 
L 622.54888 100.79875 
L 622.54888 100.062423 
L 623.667086 100.062423 
L 623.667086 93.669859 
L 624.785292 93.669859 
L 624.785292 104.836779 
L 625.903498 104.836779 
L 625.903498 108.572998 
L 627.021703 108.572998 
L 627.021703 111.508676 
L 628.139909 111.508676 
L 628.139909 105.909162 
L 629.258115 105.909162 
L 629.258115 107.478139 
L 630.37632 107.478139 
L 630.37632 109.704245 
L 631.494526 109.704245 
L 631.494526 115.508175 
L 632.612732 115.508175 
L 632.612732 111.631754 
L 633.730938 111.631754 
L 633.730938 112.606745 
L 634.849143 112.606745 
L 634.849143 106.238797 
L 635.967349 106.238797 
L 635.967349 95.2581 
L 637.085555 95.2581 
L 637.085555 104.440788 
L 638.20376 104.440788 
L 638.20376 109.018219 
L 639.321966 109.018219 
L 639.321966 111.551485 
L 640.440172 111.551485 
L 640.440172 108.75494 
L 641.558378 108.75494 
L 641.558378 121.054176 
L 642.676583 121.054176 
L 642.676583 116.512063 
L 643.794789 116.512063 
L 643.794789 122.098734 
L 644.912995 122.098734 
L 644.912995 119.609348 
L 646.0312 119.609348 
L 646.0312 121.608562 
L 647.149406 121.608562 
L 647.149406 128.205543 
L 648.267612 128.205543 
L 648.267612 124.122564 
L 649.385818 124.122564 
L 649.385818 134.710482 
L 650.504023 134.710482 
L 650.504023 130.061345 
L 651.622229 130.061345 
L 651.622229 135.292694 
L 652.740435 135.292694 
L 652.740435 127.149212 
L 653.85864 127.149212 
L 653.85864 133.274215 
L 654.976846 133.274215 
L 654.976846 130.986035 
L 656.095052 130.986035 
L 656.095052 126.43536 
L 657.213258 126.43536 
L 657.213258 136.163872 
L 658.331463 136.163872 
L 658.331463 139.357478 
L 659.449669 139.357478 
L 659.449669 141.766596 
L 660.567875 141.766596 
L 660.567875 150.345667 
L 661.68608 150.345667 
L 661.68608 147.474204 
L 662.804286 147.474204 
L 662.804286 153.61205 
L 663.922492 153.61205 
L 663.922492 159.595781 
L 665.040698 159.595781 
L 665.040698 169.405631 
L 666.158903 169.405631 
L 666.158903 170.156942 
L 667.277109 170.156942 
L 667.277109 160.760205 
L 668.395315 160.760205 
L 668.395315 167.851638 
L 669.51352 167.851638 
L 669.51352 170.216876 
L 670.631726 170.216876 
L 670.631726 171.625316 
L 671.749932 171.625316 
L 671.749932 173.744398 
L 672.868138 173.744398 
L 672.868138 181.068073 
L 673.986343 181.068073 
L 673.986343 172.30278 
L 675.104549 172.30278 
L 675.104549 170.210454 
L 676.222755 170.210454 
L 676.222755 153.248167 
L 677.34096 153.248167 
L 677.34096 143.699456 
L 678.459166 143.699456 
L 678.459166 144.479663 
L 679.577372 144.479663 
L 679.577372 142.646336 
L 680.695578 142.646336 
L 680.695578 143.526076 
L 681.813783 143.526076 
L 681.813783 144.939868 
L 682.931989 144.939868 
L 682.931989 126.657971 
L 684.050195 126.657971 
L 684.050195 133.42833 
L 685.1684 133.42833 
L 685.1684 127.046469 
L 686.286606 127.046469 
L 686.286606 139.910794 
L 687.404812 139.910794 
L 687.404812 120.813372 
L 688.523017 120.813372 
L 688.523017 131.218278 
L 689.641223 131.218278 
L 689.641223 127.31403 
L 690.759429 127.31403 
L 690.759429 145.503886 
L 691.877635 145.503886 
L 691.877635 150.039578 
L 692.99584 150.039578 
L 692.99584 158.629351 
L 694.114046 158.629351 
L 694.114046 160.805156 
L 695.232252 160.805156 
L 695.232252 163.561032 
L 696.350457 163.561032 
L 696.350457 178.434204 
L 697.468663 178.434204 
L 697.468663 183.808967 
L 698.586869 183.808967 
L 698.586869 188.682855 
L 699.705075 188.682855 
L 699.705075 193.215336 
L 700.82328 193.215336 
L 700.82328 197.473834 
L 701.941486 197.473834 
L 701.941486 198.611503 
L 703.059692 198.611503 
L 703.059692 196.819915 
L 704.177897 196.819915 
L 704.177897 188.973961 
L 705.296103 188.973961 
L 705.296103 180.315692 
L 706.414309 180.315692 
L 706.414309 165.168538 
L 707.532515 165.168538 
L 707.532515 148.07247 
L 708.65072 148.07247 
L 708.65072 138.965769 
L 709.768926 138.965769 
L 709.768926 114.858537 
L 710.887132 114.858537 
L 710.887132 114.116859 
L 712.005337 114.116859 
L 712.005337 104.874237 
L 713.123543 104.874237 
L 713.123543 95.438972 
L 714.241749 95.438972 
L 714.241749 84.448642 
L 715.359955 84.448642 
L 715.359955 77.18062 
L 716.47816 77.18062 
L 716.47816 55.177486 
L 717.596366 55.177486 
L 717.596366 64.396563 
L 718.714572 64.396563 
L 718.714572 44.335921 
L 719.832777 44.335921 
L 719.832777 62.255006 
L 720.950983 62.255006 
L 720.950983 60.580075 
L 722.069189 60.580075 
L 722.069189 52.136925 
L 723.187395 52.136925 
L 723.187395 40.94539 
L 724.3056 40.94539 
L 724.3056 63.948131 
L 725.423806 63.948131 
L 725.423806 67.625487 
L 726.542012 67.625487 
L 726.542012 61.045631 
L 727.660217 61.045631 
L 727.660217 51.357788 
L 728.778423 51.357788 
L 728.778423 68.021477 
L 729.896629 68.021477 
L 729.896629 38.92156 
L 731.014835 38.92156 
L 731.014835 53.83326 
L 732.13304 53.83326 
L 732.13304 42.638515 
L 733.251246 42.638515 
L 733.251246 54.263498 
L 734.369452 54.263498 
L 734.369452 48.768869 
L 736.605863 48.739972 
L 736.605863 59.145949 
L 737.724069 59.145949 
L 737.724069 55.402237 
L 738.842275 55.402237 
L 738.842275 56.441444 
L 739.96048 56.441444 
L 739.96048 33.056626 
L 741.078686 33.056626 
L 741.078686 54.281692 
L 742.196892 54.281692 
L 742.196892 60.856197 
L 743.315097 60.856197 
L 743.315097 55.755418 
L 744.433303 55.755418 
L 744.433303 64.807536 
L 745.551509 64.807536 
L 745.551509 61.865437 
L 746.669715 61.865437 
L 746.669715 70.107381 
L 747.78792 70.107381 
L 747.78792 48.197359 
L 748.906126 48.197359 
L 748.906126 53.681286 
L 750.024332 53.681286 
L 750.024332 62.073064 
L 751.142537 62.073064 
L 751.142537 83.709104 
L 752.260743 83.709104 
L 752.260743 83.25211 
L 753.378949 83.25211 
L 753.378949 69.188042 
L 754.497155 69.188042 
L 754.497155 85.497481 
L 755.61536 85.497481 
L 755.61536 83.083012 
L 756.733566 83.083012 
L 756.733566 69.049981 
L 757.851772 69.049981 
L 757.851772 81.691695 
L 758.969977 81.691695 
L 758.969977 99.30255 
L 760.088183 99.30255 
L 760.088183 99.539074 
L 761.206389 99.539074 
L 761.206389 81.303197 
L 762.324594 81.303197 
L 762.324594 104.104732 
L 763.4428 104.104732 
L 763.4428 88.539112 
L 764.561006 88.539112 
L 764.561006 98.754585 
L 765.679212 98.754585 
L 765.679212 99.804494 
L 766.797417 99.804494 
L 766.797417 98.878734 
L 767.915623 98.878734 
L 767.915623 93.172196 
L 769.033829 93.172196 
L 769.033829 93.020221 
L 770.152034 93.020221 
L 770.152034 96.061853 
L 771.27024 96.061853 
L 771.27024 93.503971 
L 772.388446 93.503971 
L 772.388446 87.690409 
L 773.506652 87.690409 
L 773.506652 91.463017 
L 774.624857 91.463017 
L 774.624857 99.957539 
L 776.861269 99.952188 
L 776.861269 85.325172 
L 777.979474 85.325172 
L 777.979474 87.975094 
L 779.09768 87.975094 
L 779.09768 91.200808 
L 780.215886 91.200808 
L 780.215886 93.178618 
L 781.334092 93.178618 
L 781.334092 81.934641 
L 782.452297 81.934641 
L 782.452297 93.508252 
L 783.570503 93.508252 
L 783.570503 96.337976 
L 784.688709 96.337976 
L 784.688709 94.369798 
L 785.806914 94.369798 
L 785.806914 107.320813 
L 786.92512 107.320813 
L 786.92512 103.624193 
L 788.043326 103.624193 
L 788.043326 110.696361 
L 789.161532 110.696361 
L 789.161532 106.079331 
L 790.279737 106.079331 
L 790.279737 105.626618 
L 791.397943 105.626618 
L 791.397943 109.619696 
L 792.516149 109.619696 
L 792.516149 122.110507 
L 793.634354 122.110507 
L 793.634354 119.936842 
L 794.75256 119.936842 
L 794.75256 127.171687 
L 795.870766 127.171687 
L 795.870766 124.660896 
L 796.988972 124.660896 
L 796.988972 141.999909 
L 798.107177 141.999909 
L 798.107177 155.894879 
L 799.225383 155.894879 
L 799.225383 169.161616 
L 800.343589 169.161616 
L 800.343589 173.920988 
L 801.461794 173.920988 
L 801.461794 179.6896 
L 802.58 179.6896 
L 802.58 189.107742 
L 803.698206 189.107742 
L 803.698206 196.479578 
L 804.816412 196.479578 
L 804.816412 205.563804 
L 805.934617 205.563804 
L 805.934617 211.413754 
L 807.052823 211.413754 
L 807.052823 218.398162 
L 808.171029 218.398162 
L 808.171029 212.957045 
L 809.289234 212.957045 
L 809.289234 209.06778 
L 810.40744 209.06778 
L 810.40744 202.008455 
L 811.525646 202.008455 
L 811.525646 183.710504 
L 812.643852 183.710504 
L 812.643852 180.165858 
L 813.762057 180.165858 
L 813.762057 163.351265 
L 814.880263 163.351265 
L 814.880263 156.16351 
L 815.998469 156.16351 
L 815.998469 147.285841 
L 817.116674 147.285841 
L 817.116674 141.291408 
L 818.23488 141.291408 
L 818.23488 123.676273 
L 819.353086 123.676273 
L 819.353086 117.280498 
L 820.471292 117.280498 
L 820.471292 112.568217 
L 821.589497 112.568217 
L 821.589497 103.974162 
L 822.707703 103.974162 
L 822.707703 103.251748 
L 823.825909 103.251748 
L 823.825909 94.575285 
L 824.944114 94.575285 
L 824.944114 98.810238 
L 826.06232 98.810238 
L 826.06232 103.91958 
L 827.180526 103.91958 
L 827.180526 96.447141 
L 828.298732 96.447141 
L 828.298732 101.710598 
L 829.416937 101.710598 
L 829.416937 98.209832 
L 830.535143 98.209832 
L 830.535143 90.195849 
L 831.653349 90.195849 
L 831.653349 109.413139 
L 832.771554 109.413139 
L 832.771554 107.78744 
L 833.88976 107.78744 
L 833.88976 103.089071 
L 835.007966 103.089071 
L 835.007966 101.921436 
L 836.126171 101.921436 
L 836.126171 104.531759 
L 837.244377 104.531759 
L 837.244377 104.893501 
L 838.362583 104.893501 
L 838.362583 102.114079 
L 839.480789 102.114079 
L 839.480789 104.022323 
L 840.598994 104.022323 
L 840.598994 100.594334 
L 841.7172 100.594334 
L 841.7172 105.380462 
L 842.835406 105.380462 
L 842.835406 110.552948 
L 843.953611 110.552948 
L 843.953611 110.763786 
L 845.071817 110.763786 
L 845.071817 118.527332 
L 846.190023 118.527332 
L 846.190023 123.813264 
L 847.308229 123.813264 
L 847.308229 117.368258 
L 848.426434 117.368258 
L 848.426434 117.368258 
" clip-path="url(#pa33b7d98d5)" style="fill: none; stroke: #1f77b4; stroke-width: 1.5; stroke-linecap: square"/>
   </g>
  </g>
 </g>
 <defs>
  <clipPath id="p817d721958">
   <rect x="59.690625" y="22.318125" width="369.007885" height="236.24702"/>
  </clipPath>
  <clipPath id="pa33b7d98d5">
   <rect x="496.191635" y="22.318125" width="369.007885" height="236.24702"/>
  </clipPath>
 </defs>
</svg>
