<?xml version="1.0" encoding="UTF-8" standalone="no"?>
<!DOCTYPE svg PUBLIC "-//W3C//DTD SVG 1.1//EN"
 "http://www.w3.org/Graphics/SVG/1.1/DTD/svg11.dtd">
<!-- Generated by graphviz version 2.43.0 (0)
 -->
<!-- Title: %3 Pages: 1 -->
<svg width="3800pt" height="416pt"
 viewBox="0.00 0.00 3800.00 415.92" xmlns="http://www.w3.org/2000/svg" xmlns:xlink="http://www.w3.org/1999/xlink">
<g id="graph0" class="graph" transform="scale(1 1) rotate(0) translate(4 411.92)">
<title>%3</title>
<polygon fill="white" stroke="transparent" points="-4,4 -4,-411.92 3796,-411.92 3796,4 -4,4"/>
<g id="clust16" class="cluster">
<title>cluster_NeXusClass</title>
<polygon fill="#f0f0ff" stroke="#f0f0ff" points="673,-62.2 673,-203.2 873,-203.2 873,-62.2 673,-62.2"/>
<text text-anchor="middle" x="773" y="-188" font-family="Times,serif" font-size="14.00">NeXusClass</text>
</g>
<g id="clust25" class="cluster">
<title>cluster_Position</title>
<polygon fill="#f0f0ff" stroke="#f0f0ff" points="2306,-218.2 2306,-314.2 2486,-314.2 2486,-218.2 2306,-218.2"/>
<text text-anchor="start" x="2367" y="-300" font-family="Times,serif" font-size="14.00">Position</text>
<text text-anchor="start" x="2336" y="-288.4" font-family="Times,serif" font-size="11.00">via:</text>
<text text-anchor="start" x="2357" y="-288.4" font-family="Times,serif" font-style="italic" font-size="11.00">compute_position</text>
</g>
<g id="clust17" class="cluster">
<title>cluster_NeXusComponentLocationSpec</title>
<polygon fill="#f0f0ff" stroke="#f0f0ff" points="653,-211.2 653,-352.2 893,-352.2 893,-211.2 653,-211.2"/>
<text text-anchor="middle" x="773" y="-337" font-family="Times,serif" font-size="14.00">NeXusComponentLocationSpec</text>
</g>
<g id="clust18" class="cluster">
<title>cluster_NeXusComponent</title>
<polygon fill="#f0f0ff" stroke="#f0f0ff" points="1182,-176.2 1182,-317.2 1368,-317.2 1368,-176.2 1182,-176.2"/>
<text text-anchor="middle" x="1275" y="-302" font-family="Times,serif" font-size="14.00">NeXusComponent</text>
</g>
<g id="clust23" class="cluster">
<title>cluster_NeXusTransformationChain</title>
<polygon fill="#f0f0ff" stroke="#f0f0ff" points="1540,-193.2 1540,-314.2 1755,-314.2 1755,-193.2 1540,-193.2"/>
<text text-anchor="start" x="1548" y="-300" font-family="Times,serif" font-size="14.00">NeXusTransformationChain</text>
<text text-anchor="start" x="1565.5" y="-288.4" font-family="Times,serif" font-size="11.00">via:</text>
<text text-anchor="start" x="1586.5" y="-288.4" font-family="Times,serif" font-style="italic" font-size="11.00">get_transformation_chain</text>
</g>
<g id="clust24" class="cluster">
<title>cluster_NeXusTransformation</title>
<polygon fill="#f0f0ff" stroke="#f0f0ff" points="1921,-193.2 1921,-314.2 2107,-314.2 2107,-193.2 1921,-193.2"/>
<text text-anchor="start" x="1935.5" y="-300" font-family="Times,serif" font-size="14.00">NeXusTransformation</text>
<text text-anchor="start" x="1953" y="-288.4" font-family="Times,serif" font-size="11.00">via:</text>
<text text-anchor="start" x="1974" y="-288.4" font-family="Times,serif" font-style="italic" font-size="11.00">to_transformation</text>
</g>
<!-- NeXusAllComponentLocationSpec[NXdisk_chopper, SampleRun] -->
<g id="node1" class="node">
<title>NeXusAllComponentLocationSpec[NXdisk_chopper, SampleRun]</title>
<polygon fill="none" stroke="black" points="1010,-53.7 536,-53.7 536,-20.7 1010,-20.7 1010,-53.7"/>
<text text-anchor="start" x="544" y="-39.5" font-family="Times,serif" font-size="14.00">NeXusAllComponentLocationSpec[NXdisk_chopper, SampleRun]</text>
<text text-anchor="start" x="706.5" y="-27.9" font-family="Times,serif" font-size="11.00">via:</text>
<text text-anchor="start" x="727.5" y="-27.9" font-family="Times,serif" font-style="italic" font-size="11.00">all_component_spec</text>
</g>
<!-- AllNeXusComponents[NXdisk_chopper, SampleRun] -->
<g id="node2" class="node">
<title>AllNeXusComponents[NXdisk_chopper, SampleRun]</title>
<polygon fill="none" stroke="black" points="1468,-102.7 1082,-102.7 1082,-69.7 1468,-69.7 1468,-102.7"/>
<text text-anchor="start" x="1090" y="-88.5" font-family="Times,serif" font-size="14.00">AllNeXusComponents[NXdisk_chopper, SampleRun]</text>
<text text-anchor="start" x="1187.5" y="-76.9" font-family="Times,serif" font-size="11.00">via:</text>
<text text-anchor="start" x="1208.5" y="-76.9" font-family="Times,serif" font-style="italic" font-size="11.00">load_all_nexus_components</text>
</g>
<!-- NeXusAllComponentLocationSpec[NXdisk_chopper, SampleRun]&#45;&gt;AllNeXusComponents[NXdisk_chopper, SampleRun] -->
<g id="edge1" class="edge">
<title>NeXusAllComponentLocationSpec[NXdisk_chopper, SampleRun]:e&#45;&gt;AllNeXusComponents[NXdisk_chopper, SampleRun]:w</title>
<path fill="none" stroke="black" d="M1010,-37.2C1044.93,-37.2 1043.93,-77.1 1071.84,-84.89"/>
<polygon fill="black" stroke="black" points="1071.63,-88.39 1082,-86.2 1072.53,-81.45 1071.63,-88.39"/>
</g>
<!-- Choppers[SampleRun] -->
<g id="node13" class="node">
<title>Choppers[SampleRun]</title>
<polygon fill="none" stroke="black" points="2818.5,-157.7 2641.5,-157.7 2641.5,-124.7 2818.5,-124.7 2818.5,-157.7"/>
<text text-anchor="start" x="2649.5" y="-143.5" font-family="Times,serif" font-size="14.00">Choppers[SampleRun]</text>
<text text-anchor="start" x="2661" y="-131.9" font-family="Times,serif" font-size="11.00">via:</text>
<text text-anchor="start" x="2682" y="-131.9" font-family="Times,serif" font-style="italic" font-size="11.00">parse_disk_choppers</text>
</g>
<!-- AllNeXusComponents[NXdisk_chopper, SampleRun]&#45;&gt;Choppers[SampleRun] -->
<g id="edge11" class="edge">
<title>AllNeXusComponents[NXdisk_chopper, SampleRun]:e&#45;&gt;Choppers[SampleRun]:w</title>
<path fill="none" stroke="black" d="M1468,-86.2C1794,-86.2 1875.41,-96.85 2201,-113.2 2393.26,-122.86 2443.3,-140.56 2630.8,-141.18"/>
<polygon fill="black" stroke="black" points="2630.99,-144.68 2641,-141.2 2631.01,-137.68 2630.99,-144.68"/>
</g>
<!-- NeXusClass[NXdisk_chopper] -->
<g id="node3" class="node">
<title>NeXusClass[NXdisk_chopper]</title>
<polygon fill="none" stroke="black" points="865,-101.7 681,-101.7 681,-70.7 865,-70.7 865,-101.7"/>
<text text-anchor="start" x="718.5" y="-89.1" font-family="Times,serif" font-size="12.00">[NXdisk_chopper]</text>
<text text-anchor="start" x="689" y="-77.9" font-family="Times,serif" font-size="11.00">via:</text>
<text text-anchor="start" x="710" y="-77.9" font-family="Times,serif" font-style="italic" font-size="11.00">nx_class_for_disk_chopper</text>
</g>
<!-- NeXusClass[NXdisk_chopper]&#45;&gt;AllNeXusComponents[NXdisk_chopper, SampleRun] -->
<g id="edge2" class="edge">
<title>NeXusClass[NXdisk_chopper]:e&#45;&gt;AllNeXusComponents[NXdisk_chopper, SampleRun]:w</title>
<path fill="none" stroke="black" d="M866,-86.2C958.53,-86.2 984.17,-86.2 1071.87,-86.2"/>
<polygon fill="black" stroke="black" points="1072,-89.7 1082,-86.2 1072,-82.7 1072,-89.7"/>
</g>
<!-- CalibratedDetector[SampleRun] -->
<g id="node4" class="node">
<title>CalibratedDetector[SampleRun]</title>
<polygon fill="none" stroke="black" points="2519,-198.7 2273,-198.7 2273,-165.7 2519,-165.7 2519,-198.7"/>
<text text-anchor="start" x="2281" y="-184.5" font-family="Times,serif" font-size="14.00">CalibratedDetector[SampleRun]</text>
<text text-anchor="start" x="2319" y="-172.9" font-family="Times,serif" font-size="11.00">via:</text>
<text text-anchor="start" x="2340" y="-172.9" font-family="Times,serif" font-style="italic" font-size="11.00">get_calibrated_detector</text>
</g>
<!-- CalibratedBeamline[SampleRun] -->
<g id="node5" class="node">
<title>CalibratedBeamline[SampleRun]</title>
<polygon fill="none" stroke="black" points="2855.5,-265.7 2604.5,-265.7 2604.5,-232.7 2855.5,-232.7 2855.5,-265.7"/>
<text text-anchor="start" x="2612.5" y="-251.5" font-family="Times,serif" font-size="14.00">CalibratedBeamline[SampleRun]</text>
<text text-anchor="start" x="2664" y="-239.9" font-family="Times,serif" font-size="11.00">via:</text>
<text text-anchor="start" x="2685" y="-239.9" font-family="Times,serif" font-style="italic" font-size="11.00">assemble_beamline</text>
</g>
<!-- CalibratedDetector[SampleRun]&#45;&gt;CalibratedBeamline[SampleRun] -->
<g id="edge3" class="edge">
<title>CalibratedDetector[SampleRun]:e&#45;&gt;CalibratedBeamline[SampleRun]:w</title>
<path fill="none" stroke="black" d="M2519,-182.2C2563.34,-182.2 2557.29,-239.14 2593.76,-248.04"/>
<polygon fill="black" stroke="black" points="2593.67,-251.55 2604,-249.2 2594.46,-244.59 2593.67,-251.55"/>
</g>
<!-- DetectorData[SampleRun] -->
<g id="node15" class="node">
<title>DetectorData[SampleRun]</title>
<polygon fill="none" stroke="black" points="3181,-265.7 2976,-265.7 2976,-232.7 3181,-232.7 3181,-265.7"/>
<text text-anchor="start" x="2984" y="-251.5" font-family="Times,serif" font-size="14.00">DetectorData[SampleRun]</text>
<text text-anchor="start" x="3000" y="-239.9" font-family="Times,serif" font-size="11.00">via:</text>
<text text-anchor="start" x="3021" y="-239.9" font-family="Times,serif" font-style="italic" font-size="11.00">assemble_detector_data</text>
</g>
<!-- CalibratedBeamline[SampleRun]&#45;&gt;DetectorData[SampleRun] -->
<g id="edge12" class="edge">
<title>CalibratedBeamline[SampleRun]:e&#45;&gt;DetectorData[SampleRun]:w</title>
<path fill="none" stroke="black" d="M2856,-249.2C2905.58,-249.2 2920.45,-249.2 2965.42,-249.2"/>
<polygon fill="black" stroke="black" points="2965.5,-252.7 2975.5,-249.2 2965.5,-245.7 2965.5,-252.7"/>
</g>
<!-- Position[NXsource, SampleRun] -->
<g id="node6" class="node">
<title>Position[NXsource, SampleRun]</title>
<polygon fill="none" stroke="black" points="2476.5,-247.7 2315.5,-247.7 2315.5,-226.7 2476.5,-226.7 2476.5,-247.7"/>
<text text-anchor="start" x="2323.5" y="-234.1" font-family="Times,serif" font-size="12.00">[NXsource, SampleRun]</text>
</g>
<!-- Position[NXsource, SampleRun]&#45;&gt;CalibratedBeamline[SampleRun] -->
<g id="edge4" class="edge">
<title>Position[NXsource, SampleRun]:e&#45;&gt;CalibratedBeamline[SampleRun]:w</title>
<path fill="none" stroke="black" d="M2478,-237.2C2530.74,-237.2 2545.89,-247.75 2593.93,-249.07"/>
<polygon fill="black" stroke="black" points="2593.95,-252.57 2604,-249.2 2594.05,-245.57 2593.95,-252.57"/>
</g>
<!-- Position[NXsample, SampleRun] -->
<g id="node7" class="node">
<title>Position[NXsample, SampleRun]</title>
<polygon fill="none" stroke="black" points="2478,-272.7 2314,-272.7 2314,-251.7 2478,-251.7 2478,-272.7"/>
<text text-anchor="start" x="2322" y="-259.1" font-family="Times,serif" font-size="12.00">[NXsample, SampleRun]</text>
</g>
<!-- Position[NXsample, SampleRun]&#45;&gt;CalibratedBeamline[SampleRun] -->
<g id="edge5" class="edge">
<title>Position[NXsample, SampleRun]:e&#45;&gt;CalibratedBeamline[SampleRun]:w</title>
<path fill="none" stroke="black" d="M2479,-262.2C2531.26,-262.2 2546.25,-250.82 2593.71,-249.36"/>
<polygon fill="black" stroke="black" points="2594.05,-252.85 2604,-249.2 2593.95,-245.85 2594.05,-252.85"/>
</g>
<!-- GravityVector -->
<g id="node8" class="node">
<title>GravityVector</title>
<polygon fill="none" stroke="black" points="2473,-355.7 2319,-355.7 2319,-322.7 2473,-322.7 2473,-355.7"/>
<text text-anchor="start" x="2346" y="-341.5" font-family="Times,serif" font-size="14.00">GravityVector</text>
<text text-anchor="start" x="2327" y="-329.9" font-family="Times,serif" font-size="11.00">via:</text>
<text text-anchor="start" x="2348" y="-329.9" font-family="Times,serif" font-style="italic" font-size="11.00">gravity_vector_neg_y</text>
</g>
<!-- GravityVector&#45;&gt;CalibratedBeamline[SampleRun] -->
<g id="edge6" class="edge">
<title>GravityVector:e&#45;&gt;CalibratedBeamline[SampleRun]:w</title>
<path fill="none" stroke="black" d="M2474,-339.2C2540.7,-339.2 2534.59,-258.11 2593.9,-249.87"/>
<polygon fill="black" stroke="black" points="2594.25,-253.36 2604,-249.2 2593.79,-246.37 2594.25,-253.36"/>
</g>
<!-- NeXusComponent[NXdetector, SampleRun] -->
<g id="node9" class="node">
<title>NeXusComponent[NXdetector, SampleRun]</title>
<polygon fill="none" stroke="black" points="1360,-215.7 1190,-215.7 1190,-184.7 1360,-184.7 1360,-215.7"/>
<text text-anchor="start" x="1198" y="-203.1" font-family="Times,serif" font-size="12.00">[NXdetector, SampleRun]</text>
<text text-anchor="start" x="1200" y="-191.9" font-family="Times,serif" font-size="11.00">via:</text>
<text text-anchor="start" x="1221" y="-191.9" font-family="Times,serif" font-style="italic" font-size="11.00">load_nexus_component</text>
</g>
<!-- NeXusComponent[NXdetector, SampleRun]&#45;&gt;CalibratedDetector[SampleRun] -->
<g id="edge7" class="edge">
<title>NeXusComponent[NXdetector, SampleRun]:e&#45;&gt;CalibratedDetector[SampleRun]:w</title>
<path fill="none" stroke="black" d="M1361,-200.2C1440.63,-200.2 1460.4,-194.52 1540,-192.2 1862.17,-182.81 1945.41,-182.21 2262.58,-182.2"/>
<polygon fill="black" stroke="black" points="2263,-185.7 2273,-182.2 2263,-178.7 2263,-185.7"/>
</g>
<!-- NeXusTransformationChain[NXdetector, SampleRun] -->
<g id="node34" class="node">
<title>NeXusTransformationChain[NXdetector, SampleRun]</title>
<polygon fill="none" stroke="black" points="1732,-222.7 1562,-222.7 1562,-201.7 1732,-201.7 1732,-222.7"/>
<text text-anchor="start" x="1570" y="-209.1" font-family="Times,serif" font-size="12.00">[NXdetector, SampleRun]</text>
</g>
<!-- NeXusComponent[NXdetector, SampleRun]&#45;&gt;NeXusTransformationChain[NXdetector, SampleRun] -->
<g id="edge32" class="edge">
<title>NeXusComponent[NXdetector, SampleRun]:e&#45;&gt;NeXusTransformationChain[NXdetector, SampleRun]:w</title>
<path fill="none" stroke="black" d="M1361,-200.2C1446.57,-200.2 1470.14,-211.28 1550.86,-212.15"/>
<polygon fill="black" stroke="black" points="1550.98,-215.65 1561,-212.2 1551.02,-208.65 1550.98,-215.65"/>
</g>
<!-- NeXusTransformation[NXdetector, SampleRun] -->
<g id="node10" class="node">
<title>NeXusTransformation[NXdetector, SampleRun]</title>
<polygon fill="none" stroke="black" points="2099,-222.7 1929,-222.7 1929,-201.7 2099,-201.7 2099,-222.7"/>
<text text-anchor="start" x="1937" y="-209.1" font-family="Times,serif" font-size="12.00">[NXdetector, SampleRun]</text>
</g>
<!-- NeXusTransformation[NXdetector, SampleRun]&#45;&gt;CalibratedDetector[SampleRun] -->
<g id="edge8" class="edge">
<title>NeXusTransformation[NXdetector, SampleRun]:e&#45;&gt;CalibratedDetector[SampleRun]:w</title>
<path fill="none" stroke="black" d="M2100,-212.2C2174.53,-212.2 2193.32,-184.83 2262.84,-182.38"/>
<polygon fill="black" stroke="black" points="2263.06,-185.87 2273,-182.2 2262.94,-178.87 2263.06,-185.87"/>
</g>
<!-- DetectorPositionOffset[SampleRun] -->
<g id="node11" class="node">
<title>DetectorPositionOffset[SampleRun]</title>
<polygon fill="none" stroke="black" points="2149.5,-174.7 1878.5,-174.7 1878.5,-141.7 2149.5,-141.7 2149.5,-174.7"/>
<text text-anchor="start" x="1886.5" y="-160.5" font-family="Times,serif" font-size="14.00">DetectorPositionOffset[SampleRun]</text>
<text text-anchor="start" x="1926.5" y="-148.9" font-family="Times,serif" font-size="11.00">via:</text>
<text text-anchor="start" x="1947.5" y="-148.9" font-family="Times,serif" font-style="italic" font-size="11.00">no_detector_position_offset</text>
</g>
<!-- DetectorPositionOffset[SampleRun]&#45;&gt;CalibratedDetector[SampleRun] -->
<g id="edge9" class="edge">
<title>DetectorPositionOffset[SampleRun]:e&#45;&gt;CalibratedDetector[SampleRun]:w</title>
<path fill="none" stroke="black" d="M2151,-158.2C2202.7,-158.2 2216.08,-179.21 2262.84,-181.91"/>
<polygon fill="black" stroke="black" points="2262.91,-185.42 2273,-182.2 2263.1,-178.42 2262.91,-185.42"/>
</g>
<!-- DetectorBankSizes -->
<g id="node12" class="node">
<title>DetectorBankSizes</title>
<polygon fill="none" stroke="black" points="2090,-137.7 1938,-137.7 1938,-114.7 2090,-114.7 2090,-137.7"/>
<text text-anchor="middle" x="2014" y="-122.5" font-family="Times,serif" font-size="14.00">DetectorBankSizes</text>
</g>
<!-- DetectorBankSizes&#45;&gt;CalibratedDetector[SampleRun] -->
<g id="edge10" class="edge">
<title>DetectorBankSizes:e&#45;&gt;CalibratedDetector[SampleRun]:w</title>
<path fill="none" stroke="black" d="M2091,-126.2C2140.4,-126.2 2154.2,-126.39 2201,-142.2 2232.16,-152.73 2235.9,-176.63 2262.88,-181.37"/>
<polygon fill="black" stroke="black" points="2262.75,-184.87 2273,-182.2 2263.32,-177.9 2262.75,-184.87"/>
</g>
<!-- SimulationResults -->
<g id="node42" class="node">
<title>SimulationResults</title>
<polygon fill="none" stroke="black" points="3172,-201.7 2985,-201.7 2985,-168.7 3172,-168.7 3172,-201.7"/>
<text text-anchor="start" x="3013" y="-187.5" font-family="Times,serif" font-size="14.00">SimulationResults</text>
<text text-anchor="start" x="2993" y="-175.9" font-family="Times,serif" font-size="11.00">via:</text>
<text text-anchor="start" x="3014" y="-175.9" font-family="Times,serif" font-style="italic" font-size="11.00">simulate_chopper_cascade</text>
</g>
<!-- Choppers[SampleRun]&#45;&gt;SimulationResults -->
<g id="edge43" class="edge">
<title>Choppers[SampleRun]:e&#45;&gt;SimulationResults:w</title>
<path fill="none" stroke="black" d="M2819,-141.2C2891.54,-141.2 2907.01,-181.17 2974.2,-184.92"/>
<polygon fill="black" stroke="black" points="2974.41,-188.43 2984.5,-185.2 2974.6,-181.43 2974.41,-188.43"/>
</g>
<!-- CoordTransformGraph -->
<g id="node14" class="node">
<title>CoordTransformGraph</title>
<polygon fill="none" stroke="black" points="3194.5,-302.7 2962.5,-302.7 2962.5,-269.7 3194.5,-269.7 3194.5,-302.7"/>
<text text-anchor="start" x="2997.5" y="-288.5" font-family="Times,serif" font-size="14.00">CoordTransformGraph</text>
<text text-anchor="start" x="2970.5" y="-276.9" font-family="Times,serif" font-size="11.00">via:</text>
<text text-anchor="start" x="2991.5" y="-276.9" font-family="Times,serif" font-style="italic" font-size="11.00">make_coordinate_transform_graph</text>
</g>
<!-- DetectorLtotal[SampleRun] -->
<g id="node17" class="node">
<title>DetectorLtotal[SampleRun]</title>
<polygon fill="none" stroke="black" points="3501,-265.7 3288,-265.7 3288,-232.7 3501,-232.7 3501,-265.7"/>
<text text-anchor="start" x="3296" y="-251.5" font-family="Times,serif" font-size="14.00">DetectorLtotal[SampleRun]</text>
<text text-anchor="start" x="3320" y="-239.9" font-family="Times,serif" font-size="11.00">via:</text>
<text text-anchor="start" x="3341" y="-239.9" font-family="Times,serif" font-style="italic" font-size="11.00">extract_detector_ltotal</text>
</g>
<!-- CoordTransformGraph&#45;&gt;DetectorLtotal[SampleRun] -->
<g id="edge15" class="edge">
<title>CoordTransformGraph:e&#45;&gt;DetectorLtotal[SampleRun]:w</title>
<path fill="none" stroke="black" d="M3195.5,-286.2C3236.15,-286.2 3242.8,-255.02 3277.87,-249.91"/>
<polygon fill="black" stroke="black" points="3278.27,-253.39 3288,-249.2 3277.78,-246.4 3278.27,-253.39"/>
</g>
<!-- DetectorData[SampleRun]&#45;&gt;DetectorLtotal[SampleRun] -->
<g id="edge14" class="edge">
<title>DetectorData[SampleRun]:e&#45;&gt;DetectorLtotal[SampleRun]:w</title>
<path fill="none" stroke="black" d="M3181.5,-249.2C3225.14,-249.2 3238.6,-249.2 3277.52,-249.2"/>
<polygon fill="black" stroke="black" points="3278,-252.7 3288,-249.2 3278,-245.7 3278,-252.7"/>
</g>
<!-- TofData[SampleRun] -->
<g id="node45" class="node">
<title>TofData[SampleRun]</title>
<polygon fill="none" stroke="black" points="3792,-186.7 3573,-186.7 3573,-153.7 3792,-153.7 3792,-186.7"/>
<text text-anchor="start" x="3608.5" y="-172.5" font-family="Times,serif" font-size="14.00">TofData[SampleRun]</text>
<text text-anchor="start" x="3581" y="-160.9" font-family="Times,serif" font-size="11.00">via:</text>
<text text-anchor="start" x="3602" y="-160.9" font-family="Times,serif" font-style="italic" font-size="11.00">compute_detector_time_of_flight</text>
</g>
<!-- DetectorData[SampleRun]&#45;&gt;TofData[SampleRun] -->
<g id="edge52" class="edge">
<title>DetectorData[SampleRun]:e&#45;&gt;TofData[SampleRun]:w</title>
<path fill="none" stroke="black" d="M3181.5,-249.2C3190.52,-249.2 3492.24,-194.31 3501,-192.2 3529.97,-185.22 3537.91,-173.22 3562.94,-170.68"/>
<polygon fill="black" stroke="black" points="3563.18,-174.17 3573,-170.2 3562.84,-167.18 3563.18,-174.17"/>
</g>
<!-- NeXusData[NXdetector, SampleRun] -->
<g id="node16" class="node">
<title>NeXusData[NXdetector, SampleRun]</title>
<polygon fill="none" stroke="black" points="2869,-346.7 2591,-346.7 2591,-313.7 2869,-313.7 2869,-346.7"/>
<text text-anchor="start" x="2599" y="-332.5" font-family="Times,serif" font-size="14.00">NeXusData[NXdetector, SampleRun]</text>
<text text-anchor="start" x="2673.5" y="-320.9" font-family="Times,serif" font-size="11.00">via:</text>
<text text-anchor="start" x="2694.5" y="-320.9" font-family="Times,serif" font-style="italic" font-size="11.00">load_nexus_data</text>
</g>
<!-- NeXusData[NXdetector, SampleRun]&#45;&gt;DetectorData[SampleRun] -->
<g id="edge13" class="edge">
<title>NeXusData[NXdetector, SampleRun]:e&#45;&gt;DetectorData[SampleRun]:w</title>
<path fill="none" stroke="black" d="M2869,-330.2C2924.87,-330.2 2917.27,-258.71 2965.46,-250.05"/>
<polygon fill="black" stroke="black" points="2965.83,-253.54 2975.5,-249.2 2965.24,-246.56 2965.83,-253.54"/>
</g>
<!-- DetectorLtotal[SampleRun]&#45;&gt;TofData[SampleRun] -->
<g id="edge54" class="edge">
<title>DetectorLtotal[SampleRun]:e&#45;&gt;TofData[SampleRun]:w</title>
<path fill="none" stroke="black" d="M3501,-249.2C3544.79,-249.2 3528.66,-182.06 3563.09,-171.57"/>
<polygon fill="black" stroke="black" points="3563.57,-175.04 3573,-170.2 3562.61,-168.1 3563.57,-175.04"/>
</g>
<!-- DistanceResolution -->
<g id="node18" class="node">
<title>DistanceResolution</title>
<polygon fill="none" stroke="black" points="3156,-164.7 3001,-164.7 3001,-141.7 3156,-141.7 3156,-164.7"/>
<text text-anchor="middle" x="3078.5" y="-149.5" font-family="Times,serif" font-size="14.00">DistanceResolution</text>
</g>
<!-- TimeOfFlightLookupTable -->
<g id="node43" class="node">
<title>TimeOfFlightLookupTable</title>
<polygon fill="none" stroke="black" points="3495,-142.7 3294,-142.7 3294,-109.7 3495,-109.7 3495,-142.7"/>
<text text-anchor="start" x="3302" y="-128.5" font-family="Times,serif" font-size="14.00">TimeOfFlightLookupTable</text>
<text text-anchor="start" x="3321.5" y="-116.9" font-family="Times,serif" font-size="11.00">via:</text>
<text text-anchor="start" x="3342.5" y="-116.9" font-family="Times,serif" font-style="italic" font-size="11.00">build_tof_lookup_table</text>
</g>
<!-- DistanceResolution&#45;&gt;TimeOfFlightLookupTable -->
<g id="edge49" class="edge">
<title>DistanceResolution:e&#45;&gt;TimeOfFlightLookupTable:w</title>
<path fill="none" stroke="black" d="M3157.5,-153.2C3215.1,-153.2 3229.67,-129.27 3282.22,-126.47"/>
<polygon fill="black" stroke="black" points="3282.59,-129.96 3292.5,-126.2 3282.41,-122.96 3282.59,-129.96"/>
</g>
<!-- Filename[SampleRun] -->
<g id="node19" class="node">
<title>Filename[SampleRun]</title>
<polygon fill="none" stroke="black" points="175,-295.7 0,-295.7 0,-272.7 175,-272.7 175,-295.7"/>
<text text-anchor="middle" x="87.5" y="-280.5" font-family="Times,serif" font-size="14.00">Filename[SampleRun]</text>
</g>
<!-- NeXusFileSpec[SampleRun] -->
<g id="node22" class="node">
<title>NeXusFileSpec[SampleRun]</title>
<polygon fill="none" stroke="black" points="464,-286.7 247,-286.7 247,-253.7 464,-253.7 464,-286.7"/>
<text text-anchor="start" x="255" y="-272.5" font-family="Times,serif" font-size="14.00">NeXusFileSpec[SampleRun]</text>
<text text-anchor="start" x="285.5" y="-260.9" font-family="Times,serif" font-size="11.00">via:</text>
<text text-anchor="start" x="306.5" y="-260.9" font-family="Times,serif" font-style="italic" font-size="11.00">file_path_to_file_spec</text>
</g>
<!-- Filename[SampleRun]&#45;&gt;NeXusFileSpec[SampleRun] -->
<g id="edge30" class="edge">
<title>Filename[SampleRun]:e&#45;&gt;NeXusFileSpec[SampleRun]:w</title>
<path fill="none" stroke="black" d="M175,-284.2C203.91,-284.2 212.53,-273.19 236.84,-270.7"/>
<polygon fill="black" stroke="black" points="237.18,-274.19 247,-270.2 236.84,-267.19 237.18,-274.19"/>
</g>
<!-- LookupTableRelativeErrorThreshold -->
<g id="node20" class="node">
<title>LookupTableRelativeErrorThreshold</title>
<polygon fill="none" stroke="black" points="3216,-137.7 2941,-137.7 2941,-114.7 3216,-114.7 3216,-137.7"/>
<text text-anchor="middle" x="3078.5" y="-122.5" font-family="Times,serif" font-size="14.00">LookupTableRelativeErrorThreshold</text>
</g>
<!-- LookupTableRelativeErrorThreshold&#45;&gt;TimeOfFlightLookupTable -->
<g id="edge51" class="edge">
<title>LookupTableRelativeErrorThreshold:e&#45;&gt;TimeOfFlightLookupTable:w</title>
<path fill="none" stroke="black" d="M3216,-126.2C3246.28,-126.2 3256.34,-126.2 3282.19,-126.2"/>
<polygon fill="black" stroke="black" points="3282.5,-129.7 3292.5,-126.2 3282.5,-122.7 3282.5,-129.7"/>
</g>
<!-- LtotalRange -->
<g id="node21" class="node">
<title>LtotalRange</title>
<polygon fill="none" stroke="black" points="3130.5,-110.7 3026.5,-110.7 3026.5,-87.7 3130.5,-87.7 3130.5,-110.7"/>
<text text-anchor="middle" x="3078.5" y="-95.5" font-family="Times,serif" font-size="14.00">LtotalRange</text>
</g>
<!-- LtotalRange&#45;&gt;TimeOfFlightLookupTable -->
<g id="edge45" class="edge">
<title>LtotalRange:e&#45;&gt;TimeOfFlightLookupTable:w</title>
<path fill="none" stroke="black" d="M3131.5,-99.2C3200.51,-99.2 3218.26,-123.63 3282.26,-126.01"/>
<polygon fill="black" stroke="black" points="3282.44,-129.52 3292.5,-126.2 3282.57,-122.52 3282.44,-129.52"/>
</g>
<!-- NeXusFileSpec[SampleRun]&#45;&gt;NeXusAllComponentLocationSpec[NXdisk_chopper, SampleRun] -->
<g id="edge16" class="edge">
<title>NeXusFileSpec[SampleRun]:e&#45;&gt;NeXusAllComponentLocationSpec[NXdisk_chopper, SampleRun]:w</title>
<path fill="none" stroke="black" d="M464,-270.2C568.79,-270.2 436.95,-52.42 526.02,-37.95"/>
<polygon fill="black" stroke="black" points="526.29,-41.44 536,-37.2 525.76,-34.46 526.29,-41.44"/>
</g>
<!-- NeXusComponentLocationSpec[NXdetector, SampleRun] -->
<g id="node25" class="node">
<title>NeXusComponentLocationSpec[NXdetector, SampleRun]</title>
<polygon fill="none" stroke="black" points="865,-320.7 681,-320.7 681,-289.7 865,-289.7 865,-320.7"/>
<text text-anchor="start" x="696" y="-308.1" font-family="Times,serif" font-size="12.00">[NXdetector, SampleRun]</text>
<text text-anchor="start" x="689" y="-296.9" font-family="Times,serif" font-size="11.00">via:</text>
<text text-anchor="start" x="710" y="-296.9" font-family="Times,serif" font-style="italic" font-size="11.00">component_spec_by_name</text>
</g>
<!-- NeXusFileSpec[SampleRun]&#45;&gt;NeXusComponentLocationSpec[NXdetector, SampleRun] -->
<g id="edge17" class="edge">
<title>NeXusFileSpec[SampleRun]:e&#45;&gt;NeXusComponentLocationSpec[NXdetector, SampleRun]:w</title>
<path fill="none" stroke="black" d="M464,-270.2C496.78,-270.2 503.72,-280.49 536,-286.2 596.09,-296.82 613.57,-304.34 669.83,-305.13"/>
<polygon fill="black" stroke="black" points="669.98,-308.63 680,-305.2 670.02,-301.63 669.98,-308.63"/>
</g>
<!-- NeXusComponentLocationSpec[NXsample, SampleRun] -->
<g id="node27" class="node">
<title>NeXusComponentLocationSpec[NXsample, SampleRun]</title>
<polygon fill="none" stroke="black" points="859.5,-285.7 686.5,-285.7 686.5,-254.7 859.5,-254.7 859.5,-285.7"/>
<text text-anchor="start" x="699" y="-273.1" font-family="Times,serif" font-size="12.00">[NXsample, SampleRun]</text>
<text text-anchor="start" x="694.5" y="-261.9" font-family="Times,serif" font-size="11.00">via:</text>
<text text-anchor="start" x="715.5" y="-261.9" font-family="Times,serif" font-style="italic" font-size="11.00">unique_component_spec</text>
</g>
<!-- NeXusFileSpec[SampleRun]&#45;&gt;NeXusComponentLocationSpec[NXsample, SampleRun] -->
<g id="edge19" class="edge">
<title>NeXusFileSpec[SampleRun]:e&#45;&gt;NeXusComponentLocationSpec[NXsample, SampleRun]:w</title>
<path fill="none" stroke="black" d="M464,-270.2C558.77,-270.2 584.96,-270.2 674.91,-270.2"/>
<polygon fill="black" stroke="black" points="675,-273.7 685,-270.2 675,-266.7 675,-273.7"/>
</g>
<!-- NeXusComponentLocationSpec[NXsource, SampleRun] -->
<g id="node28" class="node">
<title>NeXusComponentLocationSpec[NXsource, SampleRun]</title>
<polygon fill="none" stroke="black" points="859.5,-250.7 686.5,-250.7 686.5,-219.7 859.5,-219.7 859.5,-250.7"/>
<text text-anchor="start" x="700.5" y="-238.1" font-family="Times,serif" font-size="12.00">[NXsource, SampleRun]</text>
<text text-anchor="start" x="694.5" y="-226.9" font-family="Times,serif" font-size="11.00">via:</text>
<text text-anchor="start" x="715.5" y="-226.9" font-family="Times,serif" font-style="italic" font-size="11.00">unique_component_spec</text>
</g>
<!-- NeXusFileSpec[SampleRun]&#45;&gt;NeXusComponentLocationSpec[NXsource, SampleRun] -->
<g id="edge20" class="edge">
<title>NeXusFileSpec[SampleRun]:e&#45;&gt;NeXusComponentLocationSpec[NXsource, SampleRun]:w</title>
<path fill="none" stroke="black" d="M464,-270.2C496.69,-270.2 503.78,-260.71 536,-255.2 598.39,-244.53 616.32,-236.13 674.84,-235.27"/>
<polygon fill="black" stroke="black" points="675.03,-238.77 685,-235.2 674.98,-231.77 675.03,-238.77"/>
</g>
<!-- NeXusDataLocationSpec[NXdetector, SampleRun] -->
<g id="node31" class="node">
<title>NeXusDataLocationSpec[NXdetector, SampleRun]</title>
<polygon fill="none" stroke="black" points="2201,-379.7 1827,-379.7 1827,-346.7 2201,-346.7 2201,-379.7"/>
<text text-anchor="start" x="1835" y="-365.5" font-family="Times,serif" font-size="14.00">NeXusDataLocationSpec[NXdetector, SampleRun]</text>
<text text-anchor="start" x="1964" y="-353.9" font-family="Times,serif" font-size="11.00">via:</text>
<text text-anchor="start" x="1985" y="-353.9" font-family="Times,serif" font-style="italic" font-size="11.00">data_by_name</text>
</g>
<!-- NeXusFileSpec[SampleRun]&#45;&gt;NeXusDataLocationSpec[NXdetector, SampleRun] -->
<g id="edge26" class="edge">
<title>NeXusFileSpec[SampleRun]:e&#45;&gt;NeXusDataLocationSpec[NXdetector, SampleRun]:w</title>
<path fill="none" stroke="black" d="M464,-270.2C512.83,-270.2 491.65,-332.75 536,-353.2 599.04,-382.26 1682.02,-364.44 1816.77,-363.26"/>
<polygon fill="black" stroke="black" points="1817.02,-366.76 1827,-363.2 1816.98,-359.76 1817.02,-366.76"/>
</g>
<!-- NeXusClass[NXdetector] -->
<g id="node23" class="node">
<title>NeXusClass[NXdetector]</title>
<polygon fill="none" stroke="black" points="852,-136.7 694,-136.7 694,-105.7 852,-105.7 852,-136.7"/>
<text text-anchor="start" x="733.5" y="-124.1" font-family="Times,serif" font-size="12.00">[NXdetector]</text>
<text text-anchor="start" x="702" y="-112.9" font-family="Times,serif" font-size="11.00">via:</text>
<text text-anchor="start" x="723" y="-112.9" font-family="Times,serif" font-style="italic" font-size="11.00">nx_class_for_detector</text>
</g>
<!-- NeXusClass[NXdetector]&#45;&gt;NeXusComponent[NXdetector, SampleRun] -->
<g id="edge22" class="edge">
<title>NeXusClass[NXdetector]:e&#45;&gt;NeXusComponent[NXdetector, SampleRun]:w</title>
<path fill="none" stroke="black" d="M853,-121.2C923.34,-121.2 941.39,-125.67 1010,-141.2 1088.19,-158.89 1103.95,-196.76 1178.58,-199.98"/>
<polygon fill="black" stroke="black" points="1178.93,-203.49 1189,-200.2 1179.08,-196.49 1178.93,-203.49"/>
</g>
<!-- NeXusClass[NXsource] -->
<g id="node24" class="node">
<title>NeXusClass[NXsource]</title>
<polygon fill="none" stroke="black" points="847,-171.7 699,-171.7 699,-140.7 847,-140.7 847,-171.7"/>
<text text-anchor="start" x="738.5" y="-159.1" font-family="Times,serif" font-size="12.00">[NXsource]</text>
<text text-anchor="start" x="707" y="-147.9" font-family="Times,serif" font-size="11.00">via:</text>
<text text-anchor="start" x="728" y="-147.9" font-family="Times,serif" font-style="italic" font-size="11.00">nx_class_for_source</text>
</g>
<!-- NeXusComponent[NXsource, SampleRun] -->
<g id="node30" class="node">
<title>NeXusComponent[NXsource, SampleRun]</title>
<polygon fill="none" stroke="black" points="1358,-250.7 1192,-250.7 1192,-219.7 1358,-219.7 1358,-250.7"/>
<text text-anchor="start" x="1202.5" y="-238.1" font-family="Times,serif" font-size="12.00">[NXsource, SampleRun]</text>
<text text-anchor="start" x="1200" y="-226.9" font-family="Times,serif" font-size="11.00">via:</text>
<text text-anchor="start" x="1221" y="-226.9" font-family="Times,serif" font-style="italic" font-size="11.00">load_nexus_component</text>
</g>
<!-- NeXusClass[NXsource]&#45;&gt;NeXusComponent[NXsource, SampleRun] -->
<g id="edge25" class="edge">
<title>NeXusClass[NXsource]:e&#45;&gt;NeXusComponent[NXsource, SampleRun]:w</title>
<path fill="none" stroke="black" d="M848,-156.2C1000.92,-156.2 1033.15,-231.69 1180.65,-235.08"/>
<polygon fill="black" stroke="black" points="1180.96,-238.59 1191,-235.2 1181.04,-231.59 1180.96,-238.59"/>
</g>
<!-- NeXusComponentLocationSpec[NXdetector, SampleRun]&#45;&gt;NeXusComponent[NXdetector, SampleRun] -->
<g id="edge21" class="edge">
<title>NeXusComponentLocationSpec[NXdetector, SampleRun]:e&#45;&gt;NeXusComponent[NXdetector, SampleRun]:w</title>
<path fill="none" stroke="black" d="M866,-305.2C930.55,-305.2 951.5,-313.5 1010,-286.2 1049.34,-267.84 1043.17,-239.6 1082,-220.2 1122.07,-200.18 1138.19,-200.09 1178.75,-200.18"/>
<polygon fill="black" stroke="black" points="1178.99,-203.68 1189,-200.2 1179.01,-196.68 1178.99,-203.68"/>
</g>
<!-- NeXusName[NXdetector] -->
<g id="node26" class="node">
<title>NeXusName[NXdetector]</title>
<polygon fill="none" stroke="black" points="454,-350.7 257,-350.7 257,-327.7 454,-327.7 454,-350.7"/>
<text text-anchor="middle" x="355.5" y="-335.5" font-family="Times,serif" font-size="14.00">NeXusName[NXdetector]</text>
</g>
<!-- NeXusName[NXdetector]&#45;&gt;NeXusComponentLocationSpec[NXdetector, SampleRun] -->
<g id="edge18" class="edge">
<title>NeXusName[NXdetector]:e&#45;&gt;NeXusComponentLocationSpec[NXdetector, SampleRun]:w</title>
<path fill="none" stroke="black" d="M455.5,-339.2C552.97,-339.2 577.44,-307.48 669.92,-305.32"/>
<polygon fill="black" stroke="black" points="670.04,-308.82 680,-305.2 669.96,-301.82 670.04,-308.82"/>
</g>
<!-- NeXusName[NXdetector]&#45;&gt;NeXusDataLocationSpec[NXdetector, SampleRun] -->
<g id="edge27" class="edge">
<title>NeXusName[NXdetector]:e&#45;&gt;NeXusDataLocationSpec[NXdetector, SampleRun]:w</title>
<path fill="none" stroke="black" d="M455.5,-339.2C493.24,-339.2 498.76,-360.12 536,-366.2 1070.7,-453.48 1213.34,-377.48 1755,-366.2 1783.39,-365.61 1792.86,-363.71 1816.97,-363.28"/>
<polygon fill="black" stroke="black" points="1817.03,-366.78 1827,-363.2 1816.97,-359.78 1817.03,-366.78"/>
</g>
<!-- NeXusComponent[NXsample, SampleRun] -->
<g id="node29" class="node">
<title>NeXusComponent[NXsample, SampleRun]</title>
<polygon fill="none" stroke="black" points="1357,-285.7 1193,-285.7 1193,-254.7 1357,-254.7 1357,-285.7"/>
<text text-anchor="start" x="1201" y="-273.1" font-family="Times,serif" font-size="12.00">[NXsample, SampleRun]</text>
<text text-anchor="start" x="1210.5" y="-261.9" font-family="Times,serif" font-size="11.00">via:</text>
<text text-anchor="start" x="1231.5" y="-261.9" font-family="Times,serif" font-style="italic" font-size="11.00">load_nexus_sample</text>
</g>
<!-- NeXusComponentLocationSpec[NXsample, SampleRun]&#45;&gt;NeXusComponent[NXsample, SampleRun] -->
<g id="edge23" class="edge">
<title>NeXusComponentLocationSpec[NXsample, SampleRun]:e&#45;&gt;NeXusComponent[NXsample, SampleRun]:w</title>
<path fill="none" stroke="black" d="M861,-270.2C1004.66,-270.2 1043.1,-270.2 1181.84,-270.2"/>
<polygon fill="black" stroke="black" points="1182,-273.7 1192,-270.2 1182,-266.7 1182,-273.7"/>
</g>
<!-- NeXusComponentLocationSpec[NXsource, SampleRun]&#45;&gt;NeXusComponent[NXsource, SampleRun] -->
<g id="edge24" class="edge">
<title>NeXusComponentLocationSpec[NXsource, SampleRun]:e&#45;&gt;NeXusComponent[NXsource, SampleRun]:w</title>
<path fill="none" stroke="black" d="M861,-235.2C1004.23,-235.2 1042.55,-235.2 1180.87,-235.2"/>
<polygon fill="black" stroke="black" points="1181,-238.7 1191,-235.2 1181,-231.7 1181,-238.7"/>
</g>
<!-- NeXusTransformationChain[NXsample, SampleRun] -->
<g id="node35" class="node">
<title>NeXusTransformationChain[NXsample, SampleRun]</title>
<polygon fill="none" stroke="black" points="1729,-272.7 1565,-272.7 1565,-251.7 1729,-251.7 1729,-272.7"/>
<text text-anchor="start" x="1573" y="-259.1" font-family="Times,serif" font-size="12.00">[NXsample, SampleRun]</text>
</g>
<!-- NeXusComponent[NXsample, SampleRun]&#45;&gt;NeXusTransformationChain[NXsample, SampleRun] -->
<g id="edge33" class="edge">
<title>NeXusComponent[NXsample, SampleRun]:e&#45;&gt;NeXusTransformationChain[NXsample, SampleRun]:w</title>
<path fill="none" stroke="black" d="M1358,-270.2C1446.13,-270.2 1470.54,-262.8 1553.82,-262.23"/>
<polygon fill="black" stroke="black" points="1554.01,-265.73 1564,-262.2 1553.99,-258.73 1554.01,-265.73"/>
</g>
<!-- NeXusTransformationChain[NXsource, SampleRun] -->
<g id="node36" class="node">
<title>NeXusTransformationChain[NXsource, SampleRun]</title>
<polygon fill="none" stroke="black" points="1727.5,-247.7 1566.5,-247.7 1566.5,-226.7 1727.5,-226.7 1727.5,-247.7"/>
<text text-anchor="start" x="1574.5" y="-234.1" font-family="Times,serif" font-size="12.00">[NXsource, SampleRun]</text>
</g>
<!-- NeXusComponent[NXsource, SampleRun]&#45;&gt;NeXusTransformationChain[NXsource, SampleRun] -->
<g id="edge34" class="edge">
<title>NeXusComponent[NXsource, SampleRun]:e&#45;&gt;NeXusTransformationChain[NXsource, SampleRun]:w</title>
<path fill="none" stroke="black" d="M1359,-235.2C1447.07,-235.2 1471.6,-237.05 1554.83,-237.19"/>
<polygon fill="black" stroke="black" points="1555,-240.69 1565,-237.2 1555,-233.69 1555,-240.69"/>
</g>
<!-- NeXusDataLocationSpec[NXdetector, SampleRun]&#45;&gt;NeXusData[NXdetector, SampleRun] -->
<g id="edge29" class="edge">
<title>NeXusDataLocationSpec[NXdetector, SampleRun]:e&#45;&gt;NeXusData[NXdetector, SampleRun]:w</title>
<path fill="none" stroke="black" d="M2201,-363.2C2342.37,-363.2 2380.03,-382.1 2519,-356.2 2548.79,-350.65 2555.64,-334.36 2580.82,-330.87"/>
<polygon fill="black" stroke="black" points="2581.25,-334.35 2591,-330.2 2580.79,-327.36 2581.25,-334.35"/>
</g>
<!-- TimeInterval[SampleRun] -->
<g id="node32" class="node">
<title>TimeInterval[SampleRun]</title>
<polygon fill="none" stroke="black" points="1747,-355.7 1547,-355.7 1547,-322.7 1747,-322.7 1747,-355.7"/>
<text text-anchor="start" x="1555" y="-341.5" font-family="Times,serif" font-size="14.00">TimeInterval[SampleRun]</text>
<text text-anchor="start" x="1587.5" y="-329.9" font-family="Times,serif" font-size="11.00">via:</text>
<text text-anchor="start" x="1608.5" y="-329.9" font-family="Times,serif" font-style="italic" font-size="11.00">full_time_interval</text>
</g>
<!-- TimeInterval[SampleRun]&#45;&gt;NeXusTransformation[NXdetector, SampleRun] -->
<g id="edge36" class="edge">
<title>TimeInterval[SampleRun]:e&#45;&gt;NeXusTransformation[NXdetector, SampleRun]:w</title>
<path fill="none" stroke="black" d="M1748,-339.2C1808.91,-339.2 1775.13,-259.14 1827,-227.2 1862.62,-205.26 1879.83,-211.02 1917.86,-212.06"/>
<polygon fill="black" stroke="black" points="1917.95,-215.56 1928,-212.2 1918.05,-208.56 1917.95,-215.56"/>
</g>
<!-- TimeInterval[SampleRun]&#45;&gt;NeXusDataLocationSpec[NXdetector, SampleRun] -->
<g id="edge28" class="edge">
<title>TimeInterval[SampleRun]:e&#45;&gt;NeXusDataLocationSpec[NXdetector, SampleRun]:w</title>
<path fill="none" stroke="black" d="M1748,-339.2C1780.97,-339.2 1788.84,-358.57 1816.72,-362.51"/>
<polygon fill="black" stroke="black" points="1816.79,-366.02 1827,-363.2 1817.26,-359.04 1816.79,-366.02"/>
</g>
<!-- NeXusTransformation[NXsample, SampleRun] -->
<g id="node37" class="node">
<title>NeXusTransformation[NXsample, SampleRun]</title>
<polygon fill="none" stroke="black" points="2096,-272.7 1932,-272.7 1932,-251.7 2096,-251.7 2096,-272.7"/>
<text text-anchor="start" x="1940" y="-259.1" font-family="Times,serif" font-size="12.00">[NXsample, SampleRun]</text>
</g>
<!-- TimeInterval[SampleRun]&#45;&gt;NeXusTransformation[NXsample, SampleRun] -->
<g id="edge38" class="edge">
<title>TimeInterval[SampleRun]:e&#45;&gt;NeXusTransformation[NXsample, SampleRun]:w</title>
<path fill="none" stroke="black" d="M1748,-339.2C1832.62,-339.2 1842.09,-268.39 1920.54,-262.58"/>
<polygon fill="black" stroke="black" points="1921.13,-266.06 1931,-262.2 1920.88,-259.06 1921.13,-266.06"/>
</g>
<!-- NeXusTransformation[NXsource, SampleRun] -->
<g id="node38" class="node">
<title>NeXusTransformation[NXsource, SampleRun]</title>
<polygon fill="none" stroke="black" points="2094.5,-247.7 1933.5,-247.7 1933.5,-226.7 2094.5,-226.7 2094.5,-247.7"/>
<text text-anchor="start" x="1941.5" y="-234.1" font-family="Times,serif" font-size="12.00">[NXsource, SampleRun]</text>
</g>
<!-- TimeInterval[SampleRun]&#45;&gt;NeXusTransformation[NXsource, SampleRun] -->
<g id="edge40" class="edge">
<title>TimeInterval[SampleRun]:e&#45;&gt;NeXusTransformation[NXsource, SampleRun]:w</title>
<path fill="none" stroke="black" d="M1748,-339.2C1800.23,-339.2 1780.86,-276.68 1827,-252.2 1865.55,-231.75 1882.31,-236.31 1921.99,-237.1"/>
<polygon fill="black" stroke="black" points="1921.96,-240.6 1932,-237.2 1922.04,-233.6 1921.96,-240.6"/>
</g>
<!-- PreopenNeXusFile -->
<g id="node33" class="node">
<title>PreopenNeXusFile</title>
<polygon fill="none" stroke="black" points="162,-268.7 13,-268.7 13,-245.7 162,-245.7 162,-268.7"/>
<text text-anchor="middle" x="87.5" y="-253.5" font-family="Times,serif" font-size="14.00">PreopenNeXusFile</text>
</g>
<!-- PreopenNeXusFile&#45;&gt;NeXusFileSpec[SampleRun] -->
<g id="edge31" class="edge">
<title>PreopenNeXusFile:e&#45;&gt;NeXusFileSpec[SampleRun]:w</title>
<path fill="none" stroke="black" d="M162.5,-257.2C196.79,-257.2 207.06,-267.78 236.66,-269.85"/>
<polygon fill="black" stroke="black" points="236.89,-273.36 247,-270.2 237.12,-266.37 236.89,-273.36"/>
</g>
<!-- NeXusTransformationChain[NXdetector, SampleRun]&#45;&gt;NeXusTransformation[NXdetector, SampleRun] -->
<g id="edge35" class="edge">
<title>NeXusTransformationChain[NXdetector, SampleRun]:e&#45;&gt;NeXusTransformation[NXdetector, SampleRun]:w</title>
<path fill="none" stroke="black" d="M1733,-212.2C1816.11,-212.2 1839.45,-212.2 1917.66,-212.2"/>
<polygon fill="black" stroke="black" points="1918,-215.7 1928,-212.2 1918,-208.7 1918,-215.7"/>
</g>
<!-- NeXusTransformationChain[NXsample, SampleRun]&#45;&gt;NeXusTransformation[NXsample, SampleRun] -->
<g id="edge37" class="edge">
<title>NeXusTransformationChain[NXsample, SampleRun]:e&#45;&gt;NeXusTransformation[NXsample, SampleRun]:w</title>
<path fill="none" stroke="black" d="M1730,-262.2C1815.84,-262.2 1839.82,-262.2 1920.83,-262.2"/>
<polygon fill="black" stroke="black" points="1921,-265.7 1931,-262.2 1921,-258.7 1921,-265.7"/>
</g>
<!-- NeXusTransformationChain[NXsource, SampleRun]&#45;&gt;NeXusTransformation[NXsource, SampleRun] -->
<g id="edge39" class="edge">
<title>NeXusTransformationChain[NXsource, SampleRun]:e&#45;&gt;NeXusTransformation[NXsource, SampleRun]:w</title>
<path fill="none" stroke="black" d="M1729,-237.2C1815.79,-237.2 1839.96,-237.2 1921.98,-237.2"/>
<polygon fill="black" stroke="black" points="1922,-240.7 1932,-237.2 1922,-233.7 1922,-240.7"/>
</g>
<!-- NeXusTransformation[NXsample, SampleRun]&#45;&gt;Position[NXsample, SampleRun] -->
<g id="edge41" class="edge">
<title>NeXusTransformation[NXsample, SampleRun]:e&#45;&gt;Position[NXsample, SampleRun]:w</title>
<path fill="none" stroke="black" d="M2097,-262.2C2189.53,-262.2 2215.17,-262.2 2302.87,-262.2"/>
<polygon fill="black" stroke="black" points="2303,-265.7 2313,-262.2 2303,-258.7 2303,-265.7"/>
</g>
<!-- NeXusTransformation[NXsource, SampleRun]&#45;&gt;Position[NXsource, SampleRun] -->
<g id="edge42" class="edge">
<title>NeXusTransformation[NXsource, SampleRun]:e&#45;&gt;Position[NXsource, SampleRun]:w</title>
<path fill="none" stroke="black" d="M2096,-237.2C2189.39,-237.2 2215.27,-237.2 2303.78,-237.2"/>
<polygon fill="black" stroke="black" points="2304,-240.7 2314,-237.2 2304,-233.7 2304,-240.7"/>
</g>
<!-- PulsePeriod -->
<g id="node39" class="node">
<title>PulsePeriod</title>
<polygon fill="none" stroke="black" points="3129,-228.7 3028,-228.7 3028,-205.7 3129,-205.7 3129,-228.7"/>
<text text-anchor="middle" x="3078.5" y="-213.5" font-family="Times,serif" font-size="14.00">PulsePeriod</text>
</g>
<!-- PulsePeriod&#45;&gt;TimeOfFlightLookupTable -->
<g id="edge46" class="edge">
<title>PulsePeriod:e&#45;&gt;TimeOfFlightLookupTable:w</title>
<path fill="none" stroke="black" d="M3130.5,-217.2C3169.08,-217.2 3181.74,-219.94 3216,-202.2 3255.23,-181.88 3246.41,-134.44 3282.34,-127.15"/>
<polygon fill="black" stroke="black" points="3282.87,-130.61 3292.5,-126.2 3282.22,-123.64 3282.87,-130.61"/>
</g>
<!-- PulsePeriod&#45;&gt;TofData[SampleRun] -->
<g id="edge55" class="edge">
<title>PulsePeriod:e&#45;&gt;TofData[SampleRun]:w</title>
<path fill="none" stroke="black" d="M3130.5,-217.2C3324.89,-217.2 3373.58,-171.79 3562.99,-170.24"/>
<polygon fill="black" stroke="black" points="3563.01,-173.74 3573,-170.2 3562.99,-166.74 3563.01,-173.74"/>
</g>
<!-- PulseStride -->
<g id="node40" class="node">
<title>PulseStride</title>
<polygon fill="none" stroke="black" points="3128.5,-56.7 3028.5,-56.7 3028.5,-33.7 3128.5,-33.7 3128.5,-56.7"/>
<text text-anchor="middle" x="3078.5" y="-41.5" font-family="Times,serif" font-size="14.00">PulseStride</text>
</g>
<!-- PulseStride&#45;&gt;TimeOfFlightLookupTable -->
<g id="edge47" class="edge">
<title>PulseStride:e&#45;&gt;TimeOfFlightLookupTable:w</title>
<path fill="none" stroke="black" d="M3129.5,-45.2C3168.6,-45.2 3180.69,-44.42 3216,-61.2 3252.99,-78.78 3248.94,-118.86 3282.53,-125.31"/>
<polygon fill="black" stroke="black" points="3282.23,-128.8 3292.5,-126.2 3282.85,-121.83 3282.23,-128.8"/>
</g>
<!-- PulseStride&#45;&gt;TofData[SampleRun] -->
<g id="edge56" class="edge">
<title>PulseStride:e&#45;&gt;TofData[SampleRun]:w</title>
<path fill="none" stroke="black" d="M3129.5,-45.2C3296.97,-45.2 3349.44,-36.95 3501,-108.2 3535.78,-124.55 3531.91,-162.5 3562.77,-169.18"/>
<polygon fill="black" stroke="black" points="3562.7,-172.69 3573,-170.2 3563.39,-165.73 3562.7,-172.69"/>
</g>
<!-- PulseStrideOffset -->
<g id="node41" class="node">
<title>PulseStrideOffset</title>
<polygon fill="none" stroke="black" points="3150,-29.7 3007,-29.7 3007,-6.7 3150,-6.7 3150,-29.7"/>
<text text-anchor="middle" x="3078.5" y="-14.5" font-family="Times,serif" font-size="14.00">PulseStrideOffset</text>
</g>
<!-- PulseStrideOffset&#45;&gt;TimeOfFlightLookupTable -->
<g id="edge48" class="edge">
<title>PulseStrideOffset:e&#45;&gt;TimeOfFlightLookupTable:w</title>
<path fill="none" stroke="black" d="M3151.5,-18.2C3180.93,-18.2 3190.99,-17.68 3216,-33.2 3258.28,-59.44 3241.81,-117.27 3282.29,-125.27"/>
<polygon fill="black" stroke="black" points="3282.22,-128.78 3292.5,-126.2 3282.86,-121.81 3282.22,-128.78"/>
</g>
<!-- PulseStrideOffset&#45;&gt;TofData[SampleRun] -->
<g id="edge57" class="edge">
<title>PulseStrideOffset:e&#45;&gt;TofData[SampleRun]:w</title>
<path fill="none" stroke="black" d="M3151.5,-18.2C3307.33,-18.2 3369.17,36.88 3501,-46.2 3551.76,-78.19 3514.28,-159.84 3562.88,-169.3"/>
<polygon fill="black" stroke="black" points="3562.73,-172.8 3573,-170.2 3563.35,-165.83 3562.73,-172.8"/>
</g>
<!-- SimulationResults&#45;&gt;TimeOfFlightLookupTable -->
<g id="edge44" class="edge">
<title>SimulationResults:e&#45;&gt;TimeOfFlightLookupTable:w</title>
<path fill="none" stroke="black" d="M3172.5,-185.2C3228.33,-185.2 3232.72,-133.13 3282.32,-126.82"/>
<polygon fill="black" stroke="black" points="3282.73,-130.3 3292.5,-126.2 3282.3,-123.32 3282.73,-130.3"/>
</g>
<!-- TimeOfFlightLookupTable&#45;&gt;TofData[SampleRun] -->
<g id="edge53" class="edge">
<title>TimeOfFlightLookupTable:e&#45;&gt;TofData[SampleRun]:w</title>
<path fill="none" stroke="black" d="M3496.5,-126.2C3532.05,-126.2 3533.78,-162.34 3562.99,-169.11"/>
<polygon fill="black" stroke="black" points="3562.68,-172.6 3573,-170.2 3563.44,-165.64 3562.68,-172.6"/>
</g>
<!-- TimeResolution -->
<g id="node44" class="node">
<title>TimeResolution</title>
<polygon fill="none" stroke="black" points="3142.5,-83.7 3014.5,-83.7 3014.5,-60.7 3142.5,-60.7 3142.5,-83.7"/>
<text text-anchor="middle" x="3078.5" y="-68.5" font-family="Times,serif" font-size="14.00">TimeResolution</text>
</g>
<!-- TimeResolution&#45;&gt;TimeOfFlightLookupTable -->
<g id="edge50" class="edge">
<title>TimeResolution:e&#45;&gt;TimeOfFlightLookupTable:w</title>
<path fill="none" stroke="black" d="M3143.5,-72.2C3176.5,-72.2 3184.88,-77.22 3216,-88.2 3248.31,-99.6 3253.69,-121.37 3282.32,-125.51"/>
<polygon fill="black" stroke="black" points="3282.29,-129.02 3292.5,-126.2 3282.76,-122.03 3282.29,-129.02"/>
</g>
</g>
</svg>
