<?xml version="1.0" encoding="utf-8" standalone="no"?>
<!DOCTYPE svg PUBLIC "-//W3C//DTD SVG 1.1//EN"
  "http://www.w3.org/Graphics/SVG/1.1/DTD/svg11.dtd">
<svg xmlns:xlink="http://www.w3.org/1999/xlink" width="392.14375pt" height="268.200625pt" viewBox="0 0 392.14375 268.200625" xmlns="http://www.w3.org/2000/svg" version="1.1">
 <metadata>
  <rdf:RDF xmlns:dc="http://purl.org/dc/elements/1.1/" xmlns:cc="http://creativecommons.org/ns#" xmlns:rdf="http://www.w3.org/1999/02/22-rdf-syntax-ns#">
   <cc:Work>
    <dc:type rdf:resource="http://purl.org/dc/dcmitype/StillImage"/>
    <dc:date>2025-04-22T14:39:39.819485</dc:date>
    <dc:format>image/svg+xml</dc:format>
    <dc:creator>
     <cc:Agent>
      <dc:title>Matplotlib v3.10.1, https://matplotlib.org/</dc:title>
     </cc:Agent>
    </dc:creator>
   </cc:Work>
  </rdf:RDF>
 </metadata>
 <defs>
  <style type="text/css">*{stroke-linejoin: round; stroke-linecap: butt}</style>
 </defs>
 <g id="figure_1">
  <g id="patch_1">
   <path d="M 0 268.200625 
L 392.14375 268.200625 
L 392.14375 0 
L 0 0 
z
" style="fill: #ffffff"/>
  </g>
  <g id="axes_1">
   <g id="patch_2">
    <path d="M 50.14375 228.96 
L 384.94375 228.96 
L 384.94375 7.2 
L 50.14375 7.2 
z
" style="fill: #ffffff"/>
   </g>
   <g id="matplotlib.axis_1">
    <g id="xtick_1">
     <g id="line2d_1">
      <defs>
       <path id="m4c4eb33094" d="M 0 0 
L 0 3.5 
" style="stroke: #000000; stroke-width: 0.8"/>
      </defs>
      <g>
       <use xlink:href="#m4c4eb33094" x="97.972321" y="228.96" style="stroke: #000000; stroke-width: 0.8"/>
      </g>
     </g>
     <g id="text_1">
      <!-- 2 -->
      <g transform="translate(94.791071 243.558437) scale(0.1 -0.1)">
       <defs>
        <path id="DejaVuSans-32" d="M 1228 531 
L 3431 531 
L 3431 0 
L 469 0 
L 469 531 
Q 828 903 1448 1529 
Q 2069 2156 2228 2338 
Q 2531 2678 2651 2914 
Q 2772 3150 2772 3378 
Q 2772 3750 2511 3984 
Q 2250 4219 1831 4219 
Q 1534 4219 1204 4116 
Q 875 4013 500 3803 
L 500 4441 
Q 881 4594 1212 4672 
Q 1544 4750 1819 4750 
Q 2544 4750 2975 4387 
Q 3406 4025 3406 3419 
Q 3406 3131 3298 2873 
Q 3191 2616 2906 2266 
Q 2828 2175 2409 1742 
Q 1991 1309 1228 531 
z
" transform="scale(0.015625)"/>
       </defs>
       <use xlink:href="#DejaVuSans-32"/>
      </g>
     </g>
    </g>
    <g id="xtick_2">
     <g id="line2d_2">
      <g>
       <use xlink:href="#m4c4eb33094" x="170.439854" y="228.96" style="stroke: #000000; stroke-width: 0.8"/>
      </g>
     </g>
     <g id="text_2">
      <!-- 4 -->
      <g transform="translate(167.258604 243.558437) scale(0.1 -0.1)">
       <defs>
        <path id="DejaVuSans-34" d="M 2419 4116 
L 825 1625 
L 2419 1625 
L 2419 4116 
z
M 2253 4666 
L 3047 4666 
L 3047 1625 
L 3713 1625 
L 3713 1100 
L 3047 1100 
L 3047 0 
L 2419 0 
L 2419 1100 
L 313 1100 
L 313 1709 
L 2253 4666 
z
" transform="scale(0.015625)"/>
       </defs>
       <use xlink:href="#DejaVuSans-34"/>
      </g>
     </g>
    </g>
    <g id="xtick_3">
     <g id="line2d_3">
      <g>
       <use xlink:href="#m4c4eb33094" x="242.907386" y="228.96" style="stroke: #000000; stroke-width: 0.8"/>
      </g>
     </g>
     <g id="text_3">
      <!-- 6 -->
      <g transform="translate(239.726136 243.558437) scale(0.1 -0.1)">
       <defs>
        <path id="DejaVuSans-36" d="M 2113 2584 
Q 1688 2584 1439 2293 
Q 1191 2003 1191 1497 
Q 1191 994 1439 701 
Q 1688 409 2113 409 
Q 2538 409 2786 701 
Q 3034 994 3034 1497 
Q 3034 2003 2786 2293 
Q 2538 2584 2113 2584 
z
M 3366 4563 
L 3366 3988 
Q 3128 4100 2886 4159 
Q 2644 4219 2406 4219 
Q 1781 4219 1451 3797 
Q 1122 3375 1075 2522 
Q 1259 2794 1537 2939 
Q 1816 3084 2150 3084 
Q 2853 3084 3261 2657 
Q 3669 2231 3669 1497 
Q 3669 778 3244 343 
Q 2819 -91 2113 -91 
Q 1303 -91 875 529 
Q 447 1150 447 2328 
Q 447 3434 972 4092 
Q 1497 4750 2381 4750 
Q 2619 4750 2861 4703 
Q 3103 4656 3366 4563 
z
" transform="scale(0.015625)"/>
       </defs>
       <use xlink:href="#DejaVuSans-36"/>
      </g>
     </g>
    </g>
    <g id="xtick_4">
     <g id="line2d_4">
      <g>
       <use xlink:href="#m4c4eb33094" x="315.374919" y="228.96" style="stroke: #000000; stroke-width: 0.8"/>
      </g>
     </g>
     <g id="text_4">
      <!-- 8 -->
      <g transform="translate(312.193669 243.558437) scale(0.1 -0.1)">
       <defs>
        <path id="DejaVuSans-38" d="M 2034 2216 
Q 1584 2216 1326 1975 
Q 1069 1734 1069 1313 
Q 1069 891 1326 650 
Q 1584 409 2034 409 
Q 2484 409 2743 651 
Q 3003 894 3003 1313 
Q 3003 1734 2745 1975 
Q 2488 2216 2034 2216 
z
M 1403 2484 
Q 997 2584 770 2862 
Q 544 3141 544 3541 
Q 544 4100 942 4425 
Q 1341 4750 2034 4750 
Q 2731 4750 3128 4425 
Q 3525 4100 3525 3541 
Q 3525 3141 3298 2862 
Q 3072 2584 2669 2484 
Q 3125 2378 3379 2068 
Q 3634 1759 3634 1313 
Q 3634 634 3220 271 
Q 2806 -91 2034 -91 
Q 1263 -91 848 271 
Q 434 634 434 1313 
Q 434 1759 690 2068 
Q 947 2378 1403 2484 
z
M 1172 3481 
Q 1172 3119 1398 2916 
Q 1625 2713 2034 2713 
Q 2441 2713 2670 2916 
Q 2900 3119 2900 3481 
Q 2900 3844 2670 4047 
Q 2441 4250 2034 4250 
Q 1625 4250 1398 4047 
Q 1172 3844 1172 3481 
z
" transform="scale(0.015625)"/>
       </defs>
       <use xlink:href="#DejaVuSans-38"/>
      </g>
     </g>
    </g>
    <g id="text_5">
     <!-- wavelength [Å] -->
     <g transform="translate(179.50625 258.920937) scale(0.1 -0.1)">
      <defs>
       <path id="DejaVuSans-77" d="M 269 3500 
L 844 3500 
L 1563 769 
L 2278 3500 
L 2956 3500 
L 3675 769 
L 4391 3500 
L 4966 3500 
L 4050 0 
L 3372 0 
L 2619 2869 
L 1863 0 
L 1184 0 
L 269 3500 
z
" transform="scale(0.015625)"/>
       <path id="DejaVuSans-61" d="M 2194 1759 
Q 1497 1759 1228 1600 
Q 959 1441 959 1056 
Q 959 750 1161 570 
Q 1363 391 1709 391 
Q 2188 391 2477 730 
Q 2766 1069 2766 1631 
L 2766 1759 
L 2194 1759 
z
M 3341 1997 
L 3341 0 
L 2766 0 
L 2766 531 
Q 2569 213 2275 61 
Q 1981 -91 1556 -91 
Q 1019 -91 701 211 
Q 384 513 384 1019 
Q 384 1609 779 1909 
Q 1175 2209 1959 2209 
L 2766 2209 
L 2766 2266 
Q 2766 2663 2505 2880 
Q 2244 3097 1772 3097 
Q 1472 3097 1187 3025 
Q 903 2953 641 2809 
L 641 3341 
Q 956 3463 1253 3523 
Q 1550 3584 1831 3584 
Q 2591 3584 2966 3190 
Q 3341 2797 3341 1997 
z
" transform="scale(0.015625)"/>
       <path id="DejaVuSans-76" d="M 191 3500 
L 800 3500 
L 1894 563 
L 2988 3500 
L 3597 3500 
L 2284 0 
L 1503 0 
L 191 3500 
z
" transform="scale(0.015625)"/>
       <path id="DejaVuSans-65" d="M 3597 1894 
L 3597 1613 
L 953 1613 
Q 991 1019 1311 708 
Q 1631 397 2203 397 
Q 2534 397 2845 478 
Q 3156 559 3463 722 
L 3463 178 
Q 3153 47 2828 -22 
Q 2503 -91 2169 -91 
Q 1331 -91 842 396 
Q 353 884 353 1716 
Q 353 2575 817 3079 
Q 1281 3584 2069 3584 
Q 2775 3584 3186 3129 
Q 3597 2675 3597 1894 
z
M 3022 2063 
Q 3016 2534 2758 2815 
Q 2500 3097 2075 3097 
Q 1594 3097 1305 2825 
Q 1016 2553 972 2059 
L 3022 2063 
z
" transform="scale(0.015625)"/>
       <path id="DejaVuSans-6c" d="M 603 4863 
L 1178 4863 
L 1178 0 
L 603 0 
L 603 4863 
z
" transform="scale(0.015625)"/>
       <path id="DejaVuSans-6e" d="M 3513 2113 
L 3513 0 
L 2938 0 
L 2938 2094 
Q 2938 2591 2744 2837 
Q 2550 3084 2163 3084 
Q 1697 3084 1428 2787 
Q 1159 2491 1159 1978 
L 1159 0 
L 581 0 
L 581 3500 
L 1159 3500 
L 1159 2956 
Q 1366 3272 1645 3428 
Q 1925 3584 2291 3584 
Q 2894 3584 3203 3211 
Q 3513 2838 3513 2113 
z
" transform="scale(0.015625)"/>
       <path id="DejaVuSans-67" d="M 2906 1791 
Q 2906 2416 2648 2759 
Q 2391 3103 1925 3103 
Q 1463 3103 1205 2759 
Q 947 2416 947 1791 
Q 947 1169 1205 825 
Q 1463 481 1925 481 
Q 2391 481 2648 825 
Q 2906 1169 2906 1791 
z
M 3481 434 
Q 3481 -459 3084 -895 
Q 2688 -1331 1869 -1331 
Q 1566 -1331 1297 -1286 
Q 1028 -1241 775 -1147 
L 775 -588 
Q 1028 -725 1275 -790 
Q 1522 -856 1778 -856 
Q 2344 -856 2625 -561 
Q 2906 -266 2906 331 
L 2906 616 
Q 2728 306 2450 153 
Q 2172 0 1784 0 
Q 1141 0 747 490 
Q 353 981 353 1791 
Q 353 2603 747 3093 
Q 1141 3584 1784 3584 
Q 2172 3584 2450 3431 
Q 2728 3278 2906 2969 
L 2906 3500 
L 3481 3500 
L 3481 434 
z
" transform="scale(0.015625)"/>
       <path id="DejaVuSans-74" d="M 1172 4494 
L 1172 3500 
L 2356 3500 
L 2356 3053 
L 1172 3053 
L 1172 1153 
Q 1172 725 1289 603 
Q 1406 481 1766 481 
L 2356 481 
L 2356 0 
L 1766 0 
Q 1100 0 847 248 
Q 594 497 594 1153 
L 594 3053 
L 172 3053 
L 172 3500 
L 594 3500 
L 594 4494 
L 1172 4494 
z
" transform="scale(0.015625)"/>
       <path id="DejaVuSans-68" d="M 3513 2113 
L 3513 0 
L 2938 0 
L 2938 2094 
Q 2938 2591 2744 2837 
Q 2550 3084 2163 3084 
Q 1697 3084 1428 2787 
Q 1159 2491 1159 1978 
L 1159 0 
L 581 0 
L 581 4863 
L 1159 4863 
L 1159 2956 
Q 1366 3272 1645 3428 
Q 1925 3584 2291 3584 
Q 2894 3584 3203 3211 
Q 3513 2838 3513 2113 
z
" transform="scale(0.015625)"/>
       <path id="DejaVuSans-20" transform="scale(0.015625)"/>
       <path id="DejaVuSans-5b" d="M 550 4863 
L 1875 4863 
L 1875 4416 
L 1125 4416 
L 1125 -397 
L 1875 -397 
L 1875 -844 
L 550 -844 
L 550 4863 
z
" transform="scale(0.015625)"/>
       <path id="DejaVuSans-c5" d="M 2663 5081 
Q 2663 5278 2523 5417 
Q 2384 5556 2188 5556 
Q 1988 5556 1852 5420 
Q 1716 5284 1716 5081 
Q 1716 4884 1853 4746 
Q 1991 4609 2188 4609 
Q 2384 4609 2523 4746 
Q 2663 4884 2663 5081 
z
M 2188 4044 
L 1338 1722 
L 3041 1722 
L 2188 4044 
z
M 1716 4366 
Q 1525 4494 1428 4673 
Q 1331 4853 1331 5081 
Q 1331 5441 1579 5691 
Q 1828 5941 2188 5941 
Q 2544 5941 2795 5689 
Q 3047 5438 3047 5081 
Q 3047 4863 2948 4678 
Q 2850 4494 2663 4366 
L 4325 0 
L 3669 0 
L 3244 1197 
L 1141 1197 
L 716 0 
L 50 0 
L 1716 4366 
z
" transform="scale(0.015625)"/>
       <path id="DejaVuSans-5d" d="M 1947 4863 
L 1947 -844 
L 622 -844 
L 622 -397 
L 1369 -397 
L 1369 4416 
L 622 4416 
L 622 4863 
L 1947 4863 
z
" transform="scale(0.015625)"/>
      </defs>
      <use xlink:href="#DejaVuSans-77"/>
      <use xlink:href="#DejaVuSans-61" transform="translate(81.787109 0)"/>
      <use xlink:href="#DejaVuSans-76" transform="translate(143.066406 0)"/>
      <use xlink:href="#DejaVuSans-65" transform="translate(202.246094 0)"/>
      <use xlink:href="#DejaVuSans-6c" transform="translate(263.769531 0)"/>
      <use xlink:href="#DejaVuSans-65" transform="translate(291.552734 0)"/>
      <use xlink:href="#DejaVuSans-6e" transform="translate(353.076172 0)"/>
      <use xlink:href="#DejaVuSans-67" transform="translate(416.455078 0)"/>
      <use xlink:href="#DejaVuSans-74" transform="translate(479.931641 0)"/>
      <use xlink:href="#DejaVuSans-68" transform="translate(519.140625 0)"/>
      <use xlink:href="#DejaVuSans-20" transform="translate(582.519531 0)"/>
      <use xlink:href="#DejaVuSans-5b" transform="translate(614.306641 0)"/>
      <use xlink:href="#DejaVuSans-c5" transform="translate(653.320312 0)"/>
      <use xlink:href="#DejaVuSans-5d" transform="translate(721.728516 0)"/>
     </g>
    </g>
   </g>
   <g id="matplotlib.axis_2">
    <g id="ytick_1">
     <g id="line2d_5">
      <defs>
       <path id="m9b67a90853" d="M 0 0 
L -3.5 0 
" style="stroke: #000000; stroke-width: 0.8"/>
      </defs>
      <g>
       <use xlink:href="#m9b67a90853" x="50.14375" y="210.012952" style="stroke: #000000; stroke-width: 0.8"/>
      </g>
     </g>
     <g id="text_6">
      <!-- 0.10 -->
      <g transform="translate(20.878125 213.812171) scale(0.1 -0.1)">
       <defs>
        <path id="DejaVuSans-30" d="M 2034 4250 
Q 1547 4250 1301 3770 
Q 1056 3291 1056 2328 
Q 1056 1369 1301 889 
Q 1547 409 2034 409 
Q 2525 409 2770 889 
Q 3016 1369 3016 2328 
Q 3016 3291 2770 3770 
Q 2525 4250 2034 4250 
z
M 2034 4750 
Q 2819 4750 3233 4129 
Q 3647 3509 3647 2328 
Q 3647 1150 3233 529 
Q 2819 -91 2034 -91 
Q 1250 -91 836 529 
Q 422 1150 422 2328 
Q 422 3509 836 4129 
Q 1250 4750 2034 4750 
z
" transform="scale(0.015625)"/>
        <path id="DejaVuSans-2e" d="M 684 794 
L 1344 794 
L 1344 0 
L 684 0 
L 684 794 
z
" transform="scale(0.015625)"/>
        <path id="DejaVuSans-31" d="M 794 531 
L 1825 531 
L 1825 4091 
L 703 3866 
L 703 4441 
L 1819 4666 
L 2450 4666 
L 2450 531 
L 3481 531 
L 3481 0 
L 794 0 
L 794 531 
z
" transform="scale(0.015625)"/>
       </defs>
       <use xlink:href="#DejaVuSans-30"/>
       <use xlink:href="#DejaVuSans-2e" transform="translate(63.623047 0)"/>
       <use xlink:href="#DejaVuSans-31" transform="translate(95.410156 0)"/>
       <use xlink:href="#DejaVuSans-30" transform="translate(159.033203 0)"/>
      </g>
     </g>
    </g>
    <g id="ytick_2">
     <g id="line2d_6">
      <g>
       <use xlink:href="#m9b67a90853" x="50.14375" y="172.501241" style="stroke: #000000; stroke-width: 0.8"/>
      </g>
     </g>
     <g id="text_7">
      <!-- 0.15 -->
      <g transform="translate(20.878125 176.300459) scale(0.1 -0.1)">
       <defs>
        <path id="DejaVuSans-35" d="M 691 4666 
L 3169 4666 
L 3169 4134 
L 1269 4134 
L 1269 2991 
Q 1406 3038 1543 3061 
Q 1681 3084 1819 3084 
Q 2600 3084 3056 2656 
Q 3513 2228 3513 1497 
Q 3513 744 3044 326 
Q 2575 -91 1722 -91 
Q 1428 -91 1123 -41 
Q 819 9 494 109 
L 494 744 
Q 775 591 1075 516 
Q 1375 441 1709 441 
Q 2250 441 2565 725 
Q 2881 1009 2881 1497 
Q 2881 1984 2565 2268 
Q 2250 2553 1709 2553 
Q 1456 2553 1204 2497 
Q 953 2441 691 2322 
L 691 4666 
z
" transform="scale(0.015625)"/>
       </defs>
       <use xlink:href="#DejaVuSans-30"/>
       <use xlink:href="#DejaVuSans-2e" transform="translate(63.623047 0)"/>
       <use xlink:href="#DejaVuSans-31" transform="translate(95.410156 0)"/>
       <use xlink:href="#DejaVuSans-35" transform="translate(159.033203 0)"/>
      </g>
     </g>
    </g>
    <g id="ytick_3">
     <g id="line2d_7">
      <g>
       <use xlink:href="#m9b67a90853" x="50.14375" y="134.989529" style="stroke: #000000; stroke-width: 0.8"/>
      </g>
     </g>
     <g id="text_8">
      <!-- 0.20 -->
      <g transform="translate(20.878125 138.788747) scale(0.1 -0.1)">
       <use xlink:href="#DejaVuSans-30"/>
       <use xlink:href="#DejaVuSans-2e" transform="translate(63.623047 0)"/>
       <use xlink:href="#DejaVuSans-32" transform="translate(95.410156 0)"/>
       <use xlink:href="#DejaVuSans-30" transform="translate(159.033203 0)"/>
      </g>
     </g>
    </g>
    <g id="ytick_4">
     <g id="line2d_8">
      <g>
       <use xlink:href="#m9b67a90853" x="50.14375" y="97.477817" style="stroke: #000000; stroke-width: 0.8"/>
      </g>
     </g>
     <g id="text_9">
      <!-- 0.25 -->
      <g transform="translate(20.878125 101.277035) scale(0.1 -0.1)">
       <use xlink:href="#DejaVuSans-30"/>
       <use xlink:href="#DejaVuSans-2e" transform="translate(63.623047 0)"/>
       <use xlink:href="#DejaVuSans-32" transform="translate(95.410156 0)"/>
       <use xlink:href="#DejaVuSans-35" transform="translate(159.033203 0)"/>
      </g>
     </g>
    </g>
    <g id="ytick_5">
     <g id="line2d_9">
      <g>
       <use xlink:href="#m9b67a90853" x="50.14375" y="59.966105" style="stroke: #000000; stroke-width: 0.8"/>
      </g>
     </g>
     <g id="text_10">
      <!-- 0.30 -->
      <g transform="translate(20.878125 63.765324) scale(0.1 -0.1)">
       <defs>
        <path id="DejaVuSans-33" d="M 2597 2516 
Q 3050 2419 3304 2112 
Q 3559 1806 3559 1356 
Q 3559 666 3084 287 
Q 2609 -91 1734 -91 
Q 1441 -91 1130 -33 
Q 819 25 488 141 
L 488 750 
Q 750 597 1062 519 
Q 1375 441 1716 441 
Q 2309 441 2620 675 
Q 2931 909 2931 1356 
Q 2931 1769 2642 2001 
Q 2353 2234 1838 2234 
L 1294 2234 
L 1294 2753 
L 1863 2753 
Q 2328 2753 2575 2939 
Q 2822 3125 2822 3475 
Q 2822 3834 2567 4026 
Q 2313 4219 1838 4219 
Q 1578 4219 1281 4162 
Q 984 4106 628 3988 
L 628 4550 
Q 988 4650 1302 4700 
Q 1616 4750 1894 4750 
Q 2613 4750 3031 4423 
Q 3450 4097 3450 3541 
Q 3450 3153 3228 2886 
Q 3006 2619 2597 2516 
z
" transform="scale(0.015625)"/>
       </defs>
       <use xlink:href="#DejaVuSans-30"/>
       <use xlink:href="#DejaVuSans-2e" transform="translate(63.623047 0)"/>
       <use xlink:href="#DejaVuSans-33" transform="translate(95.410156 0)"/>
       <use xlink:href="#DejaVuSans-30" transform="translate(159.033203 0)"/>
      </g>
     </g>
    </g>
    <g id="ytick_6">
     <g id="line2d_10">
      <g>
       <use xlink:href="#m9b67a90853" x="50.14375" y="22.454393" style="stroke: #000000; stroke-width: 0.8"/>
      </g>
     </g>
     <g id="text_11">
      <!-- 0.35 -->
      <g transform="translate(20.878125 26.253612) scale(0.1 -0.1)">
       <use xlink:href="#DejaVuSans-30"/>
       <use xlink:href="#DejaVuSans-2e" transform="translate(63.623047 0)"/>
       <use xlink:href="#DejaVuSans-33" transform="translate(95.410156 0)"/>
       <use xlink:href="#DejaVuSans-35" transform="translate(159.033203 0)"/>
      </g>
     </g>
    </g>
    <g id="text_12">
     <!-- [dimensionless] -->
     <g transform="translate(14.798438 157.557344) rotate(-90) scale(0.1 -0.1)">
      <defs>
       <path id="DejaVuSans-64" d="M 2906 2969 
L 2906 4863 
L 3481 4863 
L 3481 0 
L 2906 0 
L 2906 525 
Q 2725 213 2448 61 
Q 2172 -91 1784 -91 
Q 1150 -91 751 415 
Q 353 922 353 1747 
Q 353 2572 751 3078 
Q 1150 3584 1784 3584 
Q 2172 3584 2448 3432 
Q 2725 3281 2906 2969 
z
M 947 1747 
Q 947 1113 1208 752 
Q 1469 391 1925 391 
Q 2381 391 2643 752 
Q 2906 1113 2906 1747 
Q 2906 2381 2643 2742 
Q 2381 3103 1925 3103 
Q 1469 3103 1208 2742 
Q 947 2381 947 1747 
z
" transform="scale(0.015625)"/>
       <path id="DejaVuSans-69" d="M 603 3500 
L 1178 3500 
L 1178 0 
L 603 0 
L 603 3500 
z
M 603 4863 
L 1178 4863 
L 1178 4134 
L 603 4134 
L 603 4863 
z
" transform="scale(0.015625)"/>
       <path id="DejaVuSans-6d" d="M 3328 2828 
Q 3544 3216 3844 3400 
Q 4144 3584 4550 3584 
Q 5097 3584 5394 3201 
Q 5691 2819 5691 2113 
L 5691 0 
L 5113 0 
L 5113 2094 
Q 5113 2597 4934 2840 
Q 4756 3084 4391 3084 
Q 3944 3084 3684 2787 
Q 3425 2491 3425 1978 
L 3425 0 
L 2847 0 
L 2847 2094 
Q 2847 2600 2669 2842 
Q 2491 3084 2119 3084 
Q 1678 3084 1418 2786 
Q 1159 2488 1159 1978 
L 1159 0 
L 581 0 
L 581 3500 
L 1159 3500 
L 1159 2956 
Q 1356 3278 1631 3431 
Q 1906 3584 2284 3584 
Q 2666 3584 2933 3390 
Q 3200 3197 3328 2828 
z
" transform="scale(0.015625)"/>
       <path id="DejaVuSans-73" d="M 2834 3397 
L 2834 2853 
Q 2591 2978 2328 3040 
Q 2066 3103 1784 3103 
Q 1356 3103 1142 2972 
Q 928 2841 928 2578 
Q 928 2378 1081 2264 
Q 1234 2150 1697 2047 
L 1894 2003 
Q 2506 1872 2764 1633 
Q 3022 1394 3022 966 
Q 3022 478 2636 193 
Q 2250 -91 1575 -91 
Q 1294 -91 989 -36 
Q 684 19 347 128 
L 347 722 
Q 666 556 975 473 
Q 1284 391 1588 391 
Q 1994 391 2212 530 
Q 2431 669 2431 922 
Q 2431 1156 2273 1281 
Q 2116 1406 1581 1522 
L 1381 1569 
Q 847 1681 609 1914 
Q 372 2147 372 2553 
Q 372 3047 722 3315 
Q 1072 3584 1716 3584 
Q 2034 3584 2315 3537 
Q 2597 3491 2834 3397 
z
" transform="scale(0.015625)"/>
       <path id="DejaVuSans-6f" d="M 1959 3097 
Q 1497 3097 1228 2736 
Q 959 2375 959 1747 
Q 959 1119 1226 758 
Q 1494 397 1959 397 
Q 2419 397 2687 759 
Q 2956 1122 2956 1747 
Q 2956 2369 2687 2733 
Q 2419 3097 1959 3097 
z
M 1959 3584 
Q 2709 3584 3137 3096 
Q 3566 2609 3566 1747 
Q 3566 888 3137 398 
Q 2709 -91 1959 -91 
Q 1206 -91 779 398 
Q 353 888 353 1747 
Q 353 2609 779 3096 
Q 1206 3584 1959 3584 
z
" transform="scale(0.015625)"/>
      </defs>
      <use xlink:href="#DejaVuSans-5b"/>
      <use xlink:href="#DejaVuSans-64" transform="translate(39.013672 0)"/>
      <use xlink:href="#DejaVuSans-69" transform="translate(102.490234 0)"/>
      <use xlink:href="#DejaVuSans-6d" transform="translate(130.273438 0)"/>
      <use xlink:href="#DejaVuSans-65" transform="translate(227.685547 0)"/>
      <use xlink:href="#DejaVuSans-6e" transform="translate(289.208984 0)"/>
      <use xlink:href="#DejaVuSans-73" transform="translate(352.587891 0)"/>
      <use xlink:href="#DejaVuSans-69" transform="translate(404.6875 0)"/>
      <use xlink:href="#DejaVuSans-6f" transform="translate(432.470703 0)"/>
      <use xlink:href="#DejaVuSans-6e" transform="translate(493.652344 0)"/>
      <use xlink:href="#DejaVuSans-6c" transform="translate(557.03125 0)"/>
      <use xlink:href="#DejaVuSans-65" transform="translate(584.814453 0)"/>
      <use xlink:href="#DejaVuSans-73" transform="translate(646.337891 0)"/>
      <use xlink:href="#DejaVuSans-73" transform="translate(698.4375 0)"/>
      <use xlink:href="#DejaVuSans-5d" transform="translate(750.537109 0)"/>
     </g>
    </g>
   </g>
   <g id="patch_3">
    <path d="M 50.14375 228.96 
L 50.14375 7.2 
" style="fill: none; stroke: #000000; stroke-width: 0.8; stroke-linejoin: miter; stroke-linecap: square"/>
   </g>
   <g id="patch_4">
    <path d="M 384.94375 228.96 
L 384.94375 7.2 
" style="fill: none; stroke: #000000; stroke-width: 0.8; stroke-linejoin: miter; stroke-linecap: square"/>
   </g>
   <g id="patch_5">
    <path d="M 50.14375 228.96 
L 384.94375 228.96 
" style="fill: none; stroke: #000000; stroke-width: 0.8; stroke-linejoin: miter; stroke-linecap: square"/>
   </g>
   <g id="patch_6">
    <path d="M 50.14375 7.2 
L 384.94375 7.2 
" style="fill: none; stroke: #000000; stroke-width: 0.8; stroke-linejoin: miter; stroke-linecap: square"/>
   </g>
   <g id="line2d_11">
    <path d="M 65.361932 130.438734 
L 66.376477 130.438734 
L 66.376477 64.128779 
L 67.391023 64.128779 
L 67.391023 84.862028 
L 68.405568 84.862028 
L 68.405568 99.418101 
L 69.420114 99.418101 
L 69.420114 90.290573 
L 70.434659 90.290573 
L 70.434659 88.823812 
L 71.449205 88.823812 
L 71.449205 127.97232 
L 72.46375 127.97232 
L 72.46375 140.158004 
L 73.478295 140.158004 
L 73.478295 117.886519 
L 74.492841 117.886519 
L 74.492841 119.071949 
L 75.507386 119.071949 
L 75.507386 123.140593 
L 76.521932 123.140593 
L 76.521932 127.173523 
L 77.536477 127.173523 
L 77.536477 91.813405 
L 78.551023 91.813405 
L 78.551023 107.498501 
L 79.565568 107.498501 
L 79.565568 81.510359 
L 80.580114 81.510359 
L 80.580114 62.517427 
L 81.594659 62.517427 
L 81.594659 89.34981 
L 82.609205 89.34981 
L 82.609205 134.380449 
L 83.62375 134.380449 
L 83.62375 118.602724 
L 84.638295 118.602724 
L 84.638295 138.741714 
L 85.652841 138.741714 
L 85.652841 104.662619 
L 86.667386 104.662619 
L 86.667386 106.245222 
L 87.681932 106.245222 
L 87.681932 152.049802 
L 88.696477 152.049802 
L 88.696477 104.921751 
L 89.711023 104.921751 
L 89.711023 125.876662 
L 90.725568 125.876662 
L 90.725568 134.448238 
L 91.740114 134.448238 
L 91.740114 106.321491 
L 92.754659 106.321491 
L 92.754659 120.358065 
L 93.769205 120.358065 
L 93.769205 116.874963 
L 94.78375 116.874963 
L 94.78375 114.426129 
L 95.798295 114.426129 
L 95.798295 105.056684 
L 96.812841 105.056684 
L 96.812841 130.334101 
L 97.827386 130.334101 
L 97.827386 136.358523 
L 98.841932 136.358523 
L 98.841932 140.339273 
L 99.856477 140.339273 
L 99.856477 110.354054 
L 100.871023 110.354054 
L 100.871023 137.432721 
L 101.885568 137.432721 
L 101.885568 132.925647 
L 102.900114 132.925647 
L 102.900114 115.725292 
L 103.914659 115.725292 
L 103.914659 112.583066 
L 104.929205 112.583066 
L 104.929205 114.844679 
L 105.94375 114.844679 
L 105.94375 183.577918 
L 106.958295 183.577918 
L 106.958295 164.10877 
L 107.972841 164.10877 
L 107.972841 164.463404 
L 108.987386 164.463404 
L 108.987386 151.994772 
L 110.001932 151.994772 
L 110.001932 148.34682 
L 111.016477 148.34682 
L 111.016477 67.505907 
L 112.031023 67.505907 
L 112.031023 84.180163 
L 113.045568 84.180163 
L 113.045568 143.925927 
L 114.060114 143.925927 
L 114.060114 156.655153 
L 115.074659 156.655153 
L 115.074659 137.51975 
L 116.089205 137.51975 
L 116.089205 116.626517 
L 117.10375 116.626517 
L 117.10375 104.886513 
L 118.118295 104.886513 
L 118.118295 111.141924 
L 119.132841 111.141924 
L 119.132841 139.995479 
L 120.147386 139.995479 
L 120.147386 129.379488 
L 121.161932 129.379488 
L 121.161932 97.866597 
L 122.176477 97.866597 
L 122.176477 99.947836 
L 123.191023 99.947836 
L 123.191023 141.63166 
L 124.205568 141.63166 
L 124.205568 151.697333 
L 125.220114 151.697333 
L 125.220114 143.728066 
L 126.234659 143.728066 
L 126.234659 154.011682 
L 127.249205 154.011682 
L 127.249205 149.670105 
L 128.26375 149.670105 
L 128.26375 145.894077 
L 129.278295 145.894077 
L 129.278295 136.049058 
L 130.292841 136.049058 
L 130.292841 146.446923 
L 131.307386 146.446923 
L 131.307386 105.563796 
L 132.321932 105.563796 
L 132.321932 108.091814 
L 133.336477 108.091814 
L 133.336477 141.632341 
L 134.351023 141.632341 
L 134.351023 150.316852 
L 135.365568 150.316852 
L 135.365568 140.532939 
L 136.380114 140.532939 
L 136.380114 135.93665 
L 137.394659 135.93665 
L 137.394659 141.555906 
L 138.409205 141.555906 
L 138.409205 152.10407 
L 139.42375 152.10407 
L 139.42375 145.067086 
L 140.438295 145.067086 
L 140.438295 147.100875 
L 141.452841 147.100875 
L 141.452841 134.400248 
L 142.467386 134.400248 
L 142.467386 152.814685 
L 143.481932 152.814685 
L 143.481932 140.163562 
L 144.496477 140.163562 
L 144.496477 162.922146 
L 145.511023 162.922146 
L 145.511023 158.88965 
L 146.525568 158.88965 
L 146.525568 123.77235 
L 147.540114 123.77235 
L 147.540114 148.835779 
L 148.554659 148.835779 
L 148.554659 159.615395 
L 149.569205 159.615395 
L 149.569205 159.928309 
L 150.58375 159.928309 
L 150.58375 168.38109 
L 151.598295 168.38109 
L 151.598295 169.769865 
L 152.612841 169.769865 
L 152.612841 172.182773 
L 153.627386 172.182773 
L 153.627386 166.597756 
L 154.641932 166.597756 
L 154.641932 163.076264 
L 155.656477 163.076264 
L 155.656477 164.521411 
L 156.671023 164.521411 
L 156.671023 189.508457 
L 157.685568 189.508457 
L 157.685568 160.002683 
L 158.700114 160.002683 
L 158.700114 168.590624 
L 159.714659 168.590624 
L 159.714659 177.190216 
L 160.729205 177.190216 
L 160.729205 188.610482 
L 161.74375 188.610482 
L 161.74375 181.986876 
L 162.758295 181.986876 
L 162.758295 174.012876 
L 163.772841 174.012876 
L 163.772841 196.21789 
L 164.787386 196.21789 
L 164.787386 176.888414 
L 165.801932 176.888414 
L 165.801932 206.912593 
L 166.816477 206.912593 
L 166.816477 192.860074 
L 167.831023 192.860074 
L 167.831023 209.859022 
L 168.845568 209.859022 
L 168.845568 181.492712 
L 169.860114 181.492712 
L 169.860114 184.001333 
L 170.874659 184.001333 
L 170.874659 195.185541 
L 171.889205 195.185541 
L 171.889205 185.164084 
L 172.90375 185.164084 
L 172.90375 107.367736 
L 173.918295 107.367736 
L 173.918295 35.112152 
L 174.932841 35.112152 
L 174.932841 54.153167 
L 175.947386 54.153167 
L 175.947386 47.972844 
L 176.961932 47.972844 
L 176.961932 39.03077 
L 177.976477 39.03077 
L 177.976477 90.771964 
L 178.991023 90.771964 
L 178.991023 63.82931 
L 180.005568 63.82931 
L 180.005568 72.221719 
L 181.020114 72.221719 
L 181.020114 51.261174 
L 182.034659 51.261174 
L 182.034659 62.045496 
L 183.049205 62.045496 
L 183.049205 70.917468 
L 184.06375 70.917468 
L 184.06375 40.056926 
L 185.078295 40.056926 
L 185.078295 75.259372 
L 186.092841 75.259372 
L 186.092841 72.888414 
L 187.107386 72.888414 
L 187.107386 51.851374 
L 188.121932 51.851374 
L 188.121932 32.492236 
L 189.136477 32.492236 
L 189.136477 56.188324 
L 190.151023 56.188324 
L 190.151023 63.985522 
L 191.165568 63.985522 
L 191.165568 61.750695 
L 192.180114 61.750695 
L 192.180114 68.447665 
L 194.209205 68.54942 
L 194.209205 81.452211 
L 195.22375 81.452211 
L 195.22375 48.495284 
L 196.238295 48.495284 
L 196.238295 77.215293 
L 197.252841 77.215293 
L 197.252841 66.178881 
L 198.267386 66.178881 
L 198.267386 63.692808 
L 199.281932 63.692808 
L 199.281932 53.371176 
L 200.296477 53.371176 
L 200.296477 60.856296 
L 201.311023 60.856296 
L 201.311023 61.988677 
L 202.325568 61.988677 
L 202.325568 89.253524 
L 203.340114 89.253524 
L 203.340114 83.634552 
L 204.354659 83.634552 
L 204.354659 78.515626 
L 205.369205 78.515626 
L 205.369205 88.329056 
L 206.38375 88.329056 
L 206.38375 71.817532 
L 207.398295 71.817532 
L 207.398295 47.481892 
L 208.412841 47.481892 
L 208.412841 71.219205 
L 209.427386 71.219205 
L 209.427386 94.26526 
L 210.441932 94.26526 
L 210.441932 92.62213 
L 211.456477 92.62213 
L 211.456477 74.217243 
L 212.471023 74.217243 
L 212.471023 80.447563 
L 213.485568 80.447563 
L 213.485568 76.657286 
L 214.500114 76.657286 
L 214.500114 47.350006 
L 215.514659 47.350006 
L 215.514659 92.877056 
L 216.529205 92.877056 
L 216.529205 102.570917 
L 217.54375 102.570917 
L 217.54375 89.189721 
L 218.558295 89.189721 
L 218.558295 57.490013 
L 219.572841 57.490013 
L 219.572841 69.194335 
L 220.587386 69.194335 
L 220.587386 83.413178 
L 221.601932 83.413178 
L 221.601932 97.83403 
L 222.616477 97.83403 
L 222.616477 105.935865 
L 223.631023 105.935865 
L 223.631023 69.385826 
L 224.645568 69.385826 
L 224.645568 87.560298 
L 225.660114 87.560298 
L 225.660114 54.093114 
L 226.674659 54.093114 
L 226.674659 87.806437 
L 227.689205 87.806437 
L 227.689205 94.848736 
L 228.70375 94.848736 
L 228.70375 95.489831 
L 229.718295 95.489831 
L 229.718295 92.630506 
L 230.732841 92.630506 
L 230.732841 84.332034 
L 231.747386 84.332034 
L 231.747386 112.23745 
L 232.761932 112.23745 
L 232.761932 68.061258 
L 233.776477 68.061258 
L 233.776477 95.060695 
L 234.791023 95.060695 
L 234.791023 103.714814 
L 235.805568 103.714814 
L 235.805568 104.723104 
L 236.820114 104.723104 
L 236.820114 112.684305 
L 237.834659 112.684305 
L 237.834659 96.529982 
L 238.849205 96.529982 
L 238.849205 99.460493 
L 239.86375 99.460493 
L 239.86375 98.872921 
L 240.878295 98.872921 
L 240.878295 86.423624 
L 241.892841 86.423624 
L 241.892841 98.133836 
L 242.907386 98.133836 
L 242.907386 94.907186 
L 243.921932 94.907186 
L 243.921932 95.190271 
L 244.936477 95.190271 
L 244.936477 81.85127 
L 245.951023 81.85127 
L 245.951023 90.170273 
L 246.965568 90.170273 
L 246.965568 100.564755 
L 247.980114 100.564755 
L 247.980114 88.765571 
L 248.994659 88.765571 
L 248.994659 110.619796 
L 250.009205 110.619796 
L 250.009205 126.704115 
L 251.02375 126.704115 
L 251.02375 104.69248 
L 252.038295 104.69248 
L 252.038295 105.419408 
L 253.052841 105.419408 
L 253.052841 99.801725 
L 254.067386 99.801725 
L 254.067386 99.519536 
L 255.081932 99.519536 
L 255.081932 116.043045 
L 256.096477 116.043045 
L 256.096477 109.427147 
L 257.111023 109.427147 
L 257.111023 109.287626 
L 258.125568 109.287626 
L 258.125568 115.913597 
L 259.140114 115.913597 
L 259.140114 103.874695 
L 260.154659 103.874695 
L 260.154659 113.594548 
L 261.169205 113.594548 
L 261.169205 95.588444 
L 262.18375 95.588444 
L 262.18375 108.744325 
L 263.198295 108.744325 
L 263.198295 106.313051 
L 264.212841 106.313051 
L 264.212841 113.584132 
L 265.227386 113.584132 
L 265.227386 118.409559 
L 266.241932 118.409559 
L 266.241932 109.263654 
L 267.256477 109.263654 
L 267.256477 112.197939 
L 268.271023 112.197939 
L 268.271023 118.611527 
L 269.285568 118.611527 
L 269.285568 129.719438 
L 270.300114 129.719438 
L 270.300114 122.49 
L 271.314659 122.49 
L 271.314659 155.304415 
L 272.329205 155.304415 
L 272.329205 120.330189 
L 273.34375 120.330189 
L 273.34375 121.686658 
L 274.358295 121.686658 
L 274.358295 121.422764 
L 275.372841 121.422764 
L 275.372841 129.564228 
L 276.387386 129.564228 
L 276.387386 118.675809 
L 277.401932 118.675809 
L 277.401932 114.196375 
L 278.416477 114.196375 
L 278.416477 124.27452 
L 279.431023 124.27452 
L 279.431023 114.812492 
L 280.445568 114.812492 
L 280.445568 126.768637 
L 281.460114 126.768637 
L 281.460114 135.505425 
L 282.474659 135.505425 
L 282.474659 127.465552 
L 283.489205 127.465552 
L 283.489205 117.447123 
L 284.50375 117.447123 
L 284.50375 118.899767 
L 285.518295 118.899767 
L 285.518295 110.478233 
L 286.532841 110.478233 
L 286.532841 120.788414 
L 287.547386 120.788414 
L 287.547386 126.11393 
L 288.561932 126.11393 
L 288.561932 119.258302 
L 289.576477 119.258302 
L 289.576477 130.700826 
L 290.591023 130.700826 
L 290.591023 123.500505 
L 291.605568 123.500505 
L 291.605568 114.866854 
L 292.620114 114.866854 
L 292.620114 128.412707 
L 293.634659 128.412707 
L 293.634659 131.974531 
L 294.649205 131.974531 
L 294.649205 131.743009 
L 295.66375 131.743009 
L 295.66375 122.434214 
L 296.678295 122.434214 
L 296.678295 131.475427 
L 297.692841 131.475427 
L 297.692841 129.091785 
L 298.707386 129.091785 
L 298.707386 143.855232 
L 299.721932 143.855232 
L 299.721932 146.66537 
L 300.736477 146.66537 
L 300.736477 126.890243 
L 301.751023 126.890243 
L 301.751023 135.710272 
L 302.765568 135.710272 
L 302.765568 136.353012 
L 303.780114 136.353012 
L 303.780114 151.981733 
L 304.794659 151.981733 
L 304.794659 130.839961 
L 305.809205 130.839961 
L 305.809205 133.535906 
L 306.82375 133.535906 
L 306.82375 132.992045 
L 307.838295 132.992045 
L 307.838295 143.572295 
L 308.852841 143.572295 
L 308.852841 146.675514 
L 309.867386 146.675514 
L 309.867386 143.416571 
L 310.881932 143.416571 
L 310.881932 136.870412 
L 311.896477 136.870412 
L 311.896477 139.54975 
L 312.911023 139.54975 
L 312.911023 135.486255 
L 313.925568 135.486255 
L 313.925568 142.450534 
L 314.940114 142.450534 
L 314.940114 143.160201 
L 315.954659 143.160201 
L 315.954659 160.365193 
L 316.969205 160.365193 
M 318.998295 163.142465 
L 320.012841 163.142465 
L 320.012841 131.882528 
L 321.027386 131.882528 
L 321.027386 158.069372 
L 322.041932 158.069372 
L 322.041932 144.411416 
L 323.056477 144.411416 
L 323.056477 142.690001 
L 324.071023 142.690001 
L 324.071023 146.019463 
L 325.085568 146.019463 
L 325.085568 143.666563 
L 326.100114 143.666563 
L 326.100114 137.686757 
L 327.114659 137.686757 
L 327.114659 149.657638 
L 328.129205 149.657638 
L 328.129205 140.644881 
L 329.14375 140.644881 
L 329.14375 134.182689 
L 330.158295 134.182689 
L 330.158295 152.03499 
L 331.172841 152.03499 
L 331.172841 151.122935 
L 332.187386 151.122935 
L 332.187386 147.111793 
L 333.201932 147.111793 
L 333.201932 143.759808 
L 334.216477 143.759808 
L 334.216477 162.227238 
L 335.231023 162.227238 
L 335.231023 150.297619 
L 336.245568 150.297619 
L 336.245568 160.930923 
L 337.260114 160.930923 
L 337.260114 163.224441 
L 338.274659 163.224441 
L 338.274659 157.536729 
L 339.289205 157.536729 
L 339.289205 146.825649 
L 340.30375 146.825649 
L 340.30375 153.807383 
L 341.318295 153.807383 
L 341.318295 162.073763 
L 342.332841 162.073763 
L 342.332841 151.221076 
L 343.347386 151.221076 
L 343.347386 146.984226 
L 344.361932 146.984226 
L 344.361932 163.631559 
L 345.376477 163.631559 
L 345.376477 154.355386 
L 346.391023 154.355386 
L 346.391023 153.24379 
L 347.405568 153.24379 
L 347.405568 164.19552 
L 348.420114 164.19552 
L 348.420114 160.814685 
L 349.434659 160.814685 
L 349.434659 154.319492 
L 350.449205 154.319492 
L 350.449205 159.03659 
L 351.46375 159.03659 
L 351.46375 151.530312 
L 352.478295 151.530312 
L 352.478295 152.708506 
L 353.492841 152.708506 
L 353.492841 165.701815 
L 354.507386 165.701815 
L 354.507386 158.148511 
L 355.521932 158.148511 
L 355.521932 155.7585 
L 356.536477 155.7585 
L 356.536477 157.493803 
L 357.551023 157.493803 
L 357.551023 157.99399 
L 358.565568 157.99399 
L 358.565568 161.808716 
L 359.580114 161.808716 
L 359.580114 166.520856 
L 360.594659 166.520856 
L 360.594659 161.479699 
L 361.609205 161.479699 
L 361.609205 166.787722 
L 362.62375 166.787722 
L 362.62375 162.102575 
L 363.638295 162.102575 
L 363.638295 175.600638 
L 364.652841 175.600638 
L 364.652841 157.953778 
L 365.667386 157.953778 
L 365.667386 157.953778 
" clip-path="url(#pe22738e695)" style="fill: none; stroke: #1f77b4; stroke-width: 1.5; stroke-linecap: square"/>
   </g>
   <g id="LineCollection_1">
    <path d="M 65.869205 161.392862 
L 65.869205 99.484606 
" clip-path="url(#pe22738e695)" style="fill: none; stroke: #1f77b4; stroke-width: 1.5"/>
    <path d="M 66.88375 103.951648 
L 66.88375 24.305909 
" clip-path="url(#pe22738e695)" style="fill: none; stroke: #1f77b4; stroke-width: 1.5"/>
    <path d="M 67.898295 120.924569 
L 67.898295 48.799488 
" clip-path="url(#pe22738e695)" style="fill: none; stroke: #1f77b4; stroke-width: 1.5"/>
    <path d="M 68.912841 134.62006 
L 68.912841 64.216142 
" clip-path="url(#pe22738e695)" style="fill: none; stroke: #1f77b4; stroke-width: 1.5"/>
    <path d="M 69.927386 121.554984 
L 69.927386 59.026163 
" clip-path="url(#pe22738e695)" style="fill: none; stroke: #1f77b4; stroke-width: 1.5"/>
    <path d="M 70.941932 122.952803 
L 70.941932 54.694821 
" clip-path="url(#pe22738e695)" style="fill: none; stroke: #1f77b4; stroke-width: 1.5"/>
    <path d="M 71.956477 153.576781 
L 71.956477 102.36786 
" clip-path="url(#pe22738e695)" style="fill: none; stroke: #1f77b4; stroke-width: 1.5"/>
    <path d="M 72.971023 163.557952 
L 72.971023 116.758057 
" clip-path="url(#pe22738e695)" style="fill: none; stroke: #1f77b4; stroke-width: 1.5"/>
    <path d="M 73.985568 143.686302 
L 73.985568 92.086736 
" clip-path="url(#pe22738e695)" style="fill: none; stroke: #1f77b4; stroke-width: 1.5"/>
    <path d="M 75.000114 144.564832 
L 75.000114 93.579067 
" clip-path="url(#pe22738e695)" style="fill: none; stroke: #1f77b4; stroke-width: 1.5"/>
    <path d="M 76.014659 147.206476 
L 76.014659 99.074709 
" clip-path="url(#pe22738e695)" style="fill: none; stroke: #1f77b4; stroke-width: 1.5"/>
    <path d="M 77.029205 151.188787 
L 77.029205 103.158259 
" clip-path="url(#pe22738e695)" style="fill: none; stroke: #1f77b4; stroke-width: 1.5"/>
    <path d="M 78.04375 120.436736 
L 78.04375 63.190073 
" clip-path="url(#pe22738e695)" style="fill: none; stroke: #1f77b4; stroke-width: 1.5"/>
    <path d="M 79.058295 132.811726 
L 79.058295 82.185276 
" clip-path="url(#pe22738e695)" style="fill: none; stroke: #1f77b4; stroke-width: 1.5"/>
    <path d="M 80.072841 109.06504 
L 80.072841 53.955677 
" clip-path="url(#pe22738e695)" style="fill: none; stroke: #1f77b4; stroke-width: 1.5"/>
    <path d="M 81.087386 91.723849 
L 81.087386 33.311006 
" clip-path="url(#pe22738e695)" style="fill: none; stroke: #1f77b4; stroke-width: 1.5"/>
    <path d="M 82.101932 114.227662 
L 82.101932 64.471959 
" clip-path="url(#pe22738e695)" style="fill: none; stroke: #1f77b4; stroke-width: 1.5"/>
    <path d="M 83.116477 154.379628 
L 83.116477 114.38127 
" clip-path="url(#pe22738e695)" style="fill: none; stroke: #1f77b4; stroke-width: 1.5"/>
    <path d="M 84.131023 139.351998 
L 84.131023 97.85345 
" clip-path="url(#pe22738e695)" style="fill: none; stroke: #1f77b4; stroke-width: 1.5"/>
    <path d="M 85.145568 157.866131 
L 85.145568 119.617296 
" clip-path="url(#pe22738e695)" style="fill: none; stroke: #1f77b4; stroke-width: 1.5"/>
    <path d="M 86.160114 126.903162 
L 86.160114 82.422075 
" clip-path="url(#pe22738e695)" style="fill: none; stroke: #1f77b4; stroke-width: 1.5"/>
    <path d="M 87.174659 127.318318 
L 87.174659 85.172125 
" clip-path="url(#pe22738e695)" style="fill: none; stroke: #1f77b4; stroke-width: 1.5"/>
    <path d="M 88.189205 168.304357 
L 88.189205 135.795247 
" clip-path="url(#pe22738e695)" style="fill: none; stroke: #1f77b4; stroke-width: 1.5"/>
    <path d="M 89.20375 125.627313 
L 89.20375 84.216189 
" clip-path="url(#pe22738e695)" style="fill: none; stroke: #1f77b4; stroke-width: 1.5"/>
    <path d="M 90.218295 144.815952 
L 90.218295 106.937372 
" clip-path="url(#pe22738e695)" style="fill: none; stroke: #1f77b4; stroke-width: 1.5"/>
    <path d="M 91.232841 151.793898 
L 91.232841 117.102578 
" clip-path="url(#pe22738e695)" style="fill: none; stroke: #1f77b4; stroke-width: 1.5"/>
    <path d="M 92.247386 125.507065 
L 92.247386 87.135917 
" clip-path="url(#pe22738e695)" style="fill: none; stroke: #1f77b4; stroke-width: 1.5"/>
    <path d="M 93.261932 137.911404 
L 93.261932 102.804726 
" clip-path="url(#pe22738e695)" style="fill: none; stroke: #1f77b4; stroke-width: 1.5"/>
    <path d="M 94.276477 134.585993 
L 94.276477 99.163932 
" clip-path="url(#pe22738e695)" style="fill: none; stroke: #1f77b4; stroke-width: 1.5"/>
    <path d="M 95.291023 132.433373 
L 95.291023 96.418885 
" clip-path="url(#pe22738e695)" style="fill: none; stroke: #1f77b4; stroke-width: 1.5"/>
    <path d="M 96.305568 124.023911 
L 96.305568 86.089458 
" clip-path="url(#pe22738e695)" style="fill: none; stroke: #1f77b4; stroke-width: 1.5"/>
    <path d="M 97.320114 147.08712 
L 97.320114 113.581083 
" clip-path="url(#pe22738e695)" style="fill: none; stroke: #1f77b4; stroke-width: 1.5"/>
    <path d="M 98.334659 152.127393 
L 98.334659 120.589652 
" clip-path="url(#pe22738e695)" style="fill: none; stroke: #1f77b4; stroke-width: 1.5"/>
    <path d="M 99.349205 155.86119 
L 99.349205 124.817355 
" clip-path="url(#pe22738e695)" style="fill: none; stroke: #1f77b4; stroke-width: 1.5"/>
    <path d="M 100.36375 128.318335 
L 100.36375 92.389774 
" clip-path="url(#pe22738e695)" style="fill: none; stroke: #1f77b4; stroke-width: 1.5"/>
    <path d="M 101.378295 153.036033 
L 101.378295 121.829409 
" clip-path="url(#pe22738e695)" style="fill: none; stroke: #1f77b4; stroke-width: 1.5"/>
    <path d="M 102.392841 149.595022 
L 102.392841 116.256272 
" clip-path="url(#pe22738e695)" style="fill: none; stroke: #1f77b4; stroke-width: 1.5"/>
    <path d="M 103.407386 134.016466 
L 103.407386 97.434119 
" clip-path="url(#pe22738e695)" style="fill: none; stroke: #1f77b4; stroke-width: 1.5"/>
    <path d="M 104.421932 132.620525 
L 104.421932 92.545607 
" clip-path="url(#pe22738e695)" style="fill: none; stroke: #1f77b4; stroke-width: 1.5"/>
    <path d="M 105.436477 134.625817 
L 105.436477 95.063541 
" clip-path="url(#pe22738e695)" style="fill: none; stroke: #1f77b4; stroke-width: 1.5"/>
    <path d="M 106.451023 196.243965 
L 106.451023 170.911872 
" clip-path="url(#pe22738e695)" style="fill: none; stroke: #1f77b4; stroke-width: 1.5"/>
    <path d="M 107.465568 179.369121 
L 107.465568 148.84842 
" clip-path="url(#pe22738e695)" style="fill: none; stroke: #1f77b4; stroke-width: 1.5"/>
    <path d="M 108.480114 180.384536 
L 108.480114 148.542272 
" clip-path="url(#pe22738e695)" style="fill: none; stroke: #1f77b4; stroke-width: 1.5"/>
    <path d="M 109.494659 170.818267 
L 109.494659 133.171277 
" clip-path="url(#pe22738e695)" style="fill: none; stroke: #1f77b4; stroke-width: 1.5"/>
    <path d="M 110.509205 167.733762 
L 110.509205 128.959877 
" clip-path="url(#pe22738e695)" style="fill: none; stroke: #1f77b4; stroke-width: 1.5"/>
    <path d="M 111.52375 95.957149 
L 111.52375 39.054666 
" clip-path="url(#pe22738e695)" style="fill: none; stroke: #1f77b4; stroke-width: 1.5"/>
    <path d="M 112.538295 110.789305 
L 112.538295 57.571021 
" clip-path="url(#pe22738e695)" style="fill: none; stroke: #1f77b4; stroke-width: 1.5"/>
    <path d="M 113.552841 164.211838 
L 113.552841 123.640015 
" clip-path="url(#pe22738e695)" style="fill: none; stroke: #1f77b4; stroke-width: 1.5"/>
    <path d="M 114.567386 178.460584 
L 114.567386 134.849721 
" clip-path="url(#pe22738e695)" style="fill: none; stroke: #1f77b4; stroke-width: 1.5"/>
    <path d="M 115.581932 163.754894 
L 115.581932 111.284607 
" clip-path="url(#pe22738e695)" style="fill: none; stroke: #1f77b4; stroke-width: 1.5"/>
    <path d="M 116.596477 143.987391 
L 116.596477 89.265643 
" clip-path="url(#pe22738e695)" style="fill: none; stroke: #1f77b4; stroke-width: 1.5"/>
    <path d="M 117.611023 129.200295 
L 117.611023 80.572732 
" clip-path="url(#pe22738e695)" style="fill: none; stroke: #1f77b4; stroke-width: 1.5"/>
    <path d="M 118.625568 135.500798 
L 118.625568 86.783051 
" clip-path="url(#pe22738e695)" style="fill: none; stroke: #1f77b4; stroke-width: 1.5"/>
    <path d="M 119.640114 159.852934 
L 119.640114 120.138024 
" clip-path="url(#pe22738e695)" style="fill: none; stroke: #1f77b4; stroke-width: 1.5"/>
    <path d="M 120.654659 149.23474 
L 120.654659 109.524236 
" clip-path="url(#pe22738e695)" style="fill: none; stroke: #1f77b4; stroke-width: 1.5"/>
    <path d="M 121.669205 120.058404 
L 121.669205 75.674791 
" clip-path="url(#pe22738e695)" style="fill: none; stroke: #1f77b4; stroke-width: 1.5"/>
    <path d="M 122.68375 120.185311 
L 122.68375 79.71036 
" clip-path="url(#pe22738e695)" style="fill: none; stroke: #1f77b4; stroke-width: 1.5"/>
    <path d="M 123.698295 158.627735 
L 123.698295 124.635584 
" clip-path="url(#pe22738e695)" style="fill: none; stroke: #1f77b4; stroke-width: 1.5"/>
    <path d="M 124.712841 167.873897 
L 124.712841 135.52077 
" clip-path="url(#pe22738e695)" style="fill: none; stroke: #1f77b4; stroke-width: 1.5"/>
    <path d="M 125.727386 159.838908 
L 125.727386 127.617225 
" clip-path="url(#pe22738e695)" style="fill: none; stroke: #1f77b4; stroke-width: 1.5"/>
    <path d="M 126.741932 169.229181 
L 126.741932 138.794184 
" clip-path="url(#pe22738e695)" style="fill: none; stroke: #1f77b4; stroke-width: 1.5"/>
    <path d="M 127.756477 164.964825 
L 127.756477 134.375385 
" clip-path="url(#pe22738e695)" style="fill: none; stroke: #1f77b4; stroke-width: 1.5"/>
    <path d="M 128.771023 162.292609 
L 128.771023 129.495544 
" clip-path="url(#pe22738e695)" style="fill: none; stroke: #1f77b4; stroke-width: 1.5"/>
    <path d="M 129.785568 151.663861 
L 129.785568 120.434254 
" clip-path="url(#pe22738e695)" style="fill: none; stroke: #1f77b4; stroke-width: 1.5"/>
    <path d="M 130.800114 160.750582 
L 130.800114 132.143264 
" clip-path="url(#pe22738e695)" style="fill: none; stroke: #1f77b4; stroke-width: 1.5"/>
    <path d="M 131.814659 123.514193 
L 131.814659 87.613398 
" clip-path="url(#pe22738e695)" style="fill: none; stroke: #1f77b4; stroke-width: 1.5"/>
    <path d="M 132.829205 125.309273 
L 132.829205 90.874356 
" clip-path="url(#pe22738e695)" style="fill: none; stroke: #1f77b4; stroke-width: 1.5"/>
    <path d="M 133.84375 156.709321 
L 133.84375 126.555361 
" clip-path="url(#pe22738e695)" style="fill: none; stroke: #1f77b4; stroke-width: 1.5"/>
    <path d="M 134.858295 163.921365 
L 134.858295 136.712338 
" clip-path="url(#pe22738e695)" style="fill: none; stroke: #1f77b4; stroke-width: 1.5"/>
    <path d="M 135.872841 154.455859 
L 135.872841 126.61002 
" clip-path="url(#pe22738e695)" style="fill: none; stroke: #1f77b4; stroke-width: 1.5"/>
    <path d="M 136.887386 150.539971 
L 136.887386 121.333328 
" clip-path="url(#pe22738e695)" style="fill: none; stroke: #1f77b4; stroke-width: 1.5"/>
    <path d="M 137.901932 155.955713 
L 137.901932 127.156099 
" clip-path="url(#pe22738e695)" style="fill: none; stroke: #1f77b4; stroke-width: 1.5"/>
    <path d="M 138.916477 165.50981 
L 138.916477 138.698329 
" clip-path="url(#pe22738e695)" style="fill: none; stroke: #1f77b4; stroke-width: 1.5"/>
    <path d="M 139.931023 158.930067 
L 139.931023 131.204105 
" clip-path="url(#pe22738e695)" style="fill: none; stroke: #1f77b4; stroke-width: 1.5"/>
    <path d="M 140.945568 160.513638 
L 140.945568 133.688113 
" clip-path="url(#pe22738e695)" style="fill: none; stroke: #1f77b4; stroke-width: 1.5"/>
    <path d="M 141.960114 148.981709 
L 141.960114 119.818787 
" clip-path="url(#pe22738e695)" style="fill: none; stroke: #1f77b4; stroke-width: 1.5"/>
    <path d="M 142.974659 166.145536 
L 142.974659 139.483835 
" clip-path="url(#pe22738e695)" style="fill: none; stroke: #1f77b4; stroke-width: 1.5"/>
    <path d="M 143.989205 154.289495 
L 143.989205 126.03763 
" clip-path="url(#pe22738e695)" style="fill: none; stroke: #1f77b4; stroke-width: 1.5"/>
    <path d="M 145.00375 174.463194 
L 145.00375 151.381098 
" clip-path="url(#pe22738e695)" style="fill: none; stroke: #1f77b4; stroke-width: 1.5"/>
    <path d="M 146.018295 171.055982 
L 146.018295 146.723318 
" clip-path="url(#pe22738e695)" style="fill: none; stroke: #1f77b4; stroke-width: 1.5"/>
    <path d="M 147.032841 138.66706 
L 147.032841 108.87764 
" clip-path="url(#pe22738e695)" style="fill: none; stroke: #1f77b4; stroke-width: 1.5"/>
    <path d="M 148.047386 161.913298 
L 148.047386 135.758261 
" clip-path="url(#pe22738e695)" style="fill: none; stroke: #1f77b4; stroke-width: 1.5"/>
    <path d="M 149.061932 171.510223 
L 149.061932 147.720567 
" clip-path="url(#pe22738e695)" style="fill: none; stroke: #1f77b4; stroke-width: 1.5"/>
    <path d="M 150.076477 171.819645 
L 150.076477 148.036973 
" clip-path="url(#pe22738e695)" style="fill: none; stroke: #1f77b4; stroke-width: 1.5"/>
    <path d="M 151.091023 179.807169 
L 151.091023 156.955011 
" clip-path="url(#pe22738e695)" style="fill: none; stroke: #1f77b4; stroke-width: 1.5"/>
    <path d="M 152.105568 180.872743 
L 152.105568 158.666986 
" clip-path="url(#pe22738e695)" style="fill: none; stroke: #1f77b4; stroke-width: 1.5"/>
    <path d="M 153.120114 182.984954 
L 153.120114 161.380593 
" clip-path="url(#pe22738e695)" style="fill: none; stroke: #1f77b4; stroke-width: 1.5"/>
    <path d="M 154.134659 177.644921 
L 154.134659 155.550591 
" clip-path="url(#pe22738e695)" style="fill: none; stroke: #1f77b4; stroke-width: 1.5"/>
    <path d="M 155.149205 174.789327 
L 155.149205 151.3632 
" clip-path="url(#pe22738e695)" style="fill: none; stroke: #1f77b4; stroke-width: 1.5"/>
    <path d="M 156.16375 175.962844 
L 156.16375 153.079977 
" clip-path="url(#pe22738e695)" style="fill: none; stroke: #1f77b4; stroke-width: 1.5"/>
    <path d="M 157.178295 199.268062 
L 157.178295 179.748851 
" clip-path="url(#pe22738e695)" style="fill: none; stroke: #1f77b4; stroke-width: 1.5"/>
    <path d="M 158.192841 171.61685 
L 158.192841 148.388517 
" clip-path="url(#pe22738e695)" style="fill: none; stroke: #1f77b4; stroke-width: 1.5"/>
    <path d="M 159.207386 179.545722 
L 159.207386 157.635527 
" clip-path="url(#pe22738e695)" style="fill: none; stroke: #1f77b4; stroke-width: 1.5"/>
    <path d="M 160.221932 187.795 
L 160.221932 166.585433 
" clip-path="url(#pe22738e695)" style="fill: none; stroke: #1f77b4; stroke-width: 1.5"/>
    <path d="M 161.236477 198.186181 
L 161.236477 179.034782 
" clip-path="url(#pe22738e695)" style="fill: none; stroke: #1f77b4; stroke-width: 1.5"/>
    <path d="M 162.251023 192.444511 
L 162.251023 171.52924 
" clip-path="url(#pe22738e695)" style="fill: none; stroke: #1f77b4; stroke-width: 1.5"/>
    <path d="M 163.265568 184.635368 
L 163.265568 163.390385 
" clip-path="url(#pe22738e695)" style="fill: none; stroke: #1f77b4; stroke-width: 1.5"/>
    <path d="M 164.280114 205.226904 
L 164.280114 187.208876 
" clip-path="url(#pe22738e695)" style="fill: none; stroke: #1f77b4; stroke-width: 1.5"/>
    <path d="M 165.294659 187.330512 
L 165.294659 166.446317 
" clip-path="url(#pe22738e695)" style="fill: none; stroke: #1f77b4; stroke-width: 1.5"/>
    <path d="M 166.309205 215.256363 
L 166.309205 198.568822 
" clip-path="url(#pe22738e695)" style="fill: none; stroke: #1f77b4; stroke-width: 1.5"/>
    <path d="M 167.32375 202.38879 
L 167.32375 183.331359 
" clip-path="url(#pe22738e695)" style="fill: none; stroke: #1f77b4; stroke-width: 1.5"/>
    <path d="M 168.338295 218.88 
L 168.338295 200.838043 
" clip-path="url(#pe22738e695)" style="fill: none; stroke: #1f77b4; stroke-width: 1.5"/>
    <path d="M 169.352841 193.837579 
L 169.352841 169.147845 
" clip-path="url(#pe22738e695)" style="fill: none; stroke: #1f77b4; stroke-width: 1.5"/>
    <path d="M 170.367386 193.851878 
L 170.367386 174.150788 
" clip-path="url(#pe22738e695)" style="fill: none; stroke: #1f77b4; stroke-width: 1.5"/>
    <path d="M 171.381932 203.740142 
L 171.381932 186.63094 
" clip-path="url(#pe22738e695)" style="fill: none; stroke: #1f77b4; stroke-width: 1.5"/>
    <path d="M 172.396477 195.202248 
L 172.396477 175.125921 
" clip-path="url(#pe22738e695)" style="fill: none; stroke: #1f77b4; stroke-width: 1.5"/>
    <path d="M 173.411023 121.590703 
L 173.411023 93.144769 
" clip-path="url(#pe22738e695)" style="fill: none; stroke: #1f77b4; stroke-width: 1.5"/>
    <path d="M 174.425568 52.380067 
L 174.425568 17.844237 
" clip-path="url(#pe22738e695)" style="fill: none; stroke: #1f77b4; stroke-width: 1.5"/>
    <path d="M 175.440114 70.040178 
L 175.440114 38.266155 
" clip-path="url(#pe22738e695)" style="fill: none; stroke: #1f77b4; stroke-width: 1.5"/>
    <path d="M 176.454659 63.522865 
L 176.454659 32.422822 
" clip-path="url(#pe22738e695)" style="fill: none; stroke: #1f77b4; stroke-width: 1.5"/>
    <path d="M 177.469205 55.000924 
L 177.469205 23.060615 
" clip-path="url(#pe22738e695)" style="fill: none; stroke: #1f77b4; stroke-width: 1.5"/>
    <path d="M 178.48375 103.946058 
L 178.48375 77.59787 
" clip-path="url(#pe22738e695)" style="fill: none; stroke: #1f77b4; stroke-width: 1.5"/>
    <path d="M 179.498295 78.126882 
L 179.498295 49.531738 
" clip-path="url(#pe22738e695)" style="fill: none; stroke: #1f77b4; stroke-width: 1.5"/>
    <path d="M 180.512841 86.455085 
L 180.512841 57.988352 
" clip-path="url(#pe22738e695)" style="fill: none; stroke: #1f77b4; stroke-width: 1.5"/>
    <path d="M 181.527386 66.361667 
L 181.527386 36.160682 
" clip-path="url(#pe22738e695)" style="fill: none; stroke: #1f77b4; stroke-width: 1.5"/>
    <path d="M 182.541932 76.216912 
L 182.541932 47.874081 
" clip-path="url(#pe22738e695)" style="fill: none; stroke: #1f77b4; stroke-width: 1.5"/>
    <path d="M 183.556477 84.415029 
L 183.556477 57.419908 
" clip-path="url(#pe22738e695)" style="fill: none; stroke: #1f77b4; stroke-width: 1.5"/>
    <path d="M 184.571023 55.172137 
L 184.571023 24.941714 
" clip-path="url(#pe22738e695)" style="fill: none; stroke: #1f77b4; stroke-width: 1.5"/>
    <path d="M 185.585568 88.236452 
L 185.585568 62.282292 
" clip-path="url(#pe22738e695)" style="fill: none; stroke: #1f77b4; stroke-width: 1.5"/>
    <path d="M 186.600114 86.226711 
L 186.600114 59.550117 
" clip-path="url(#pe22738e695)" style="fill: none; stroke: #1f77b4; stroke-width: 1.5"/>
    <path d="M 187.614659 65.949015 
L 187.614659 37.753733 
" clip-path="url(#pe22738e695)" style="fill: none; stroke: #1f77b4; stroke-width: 1.5"/>
    <path d="M 188.629205 47.704472 
L 188.629205 17.28 
" clip-path="url(#pe22738e695)" style="fill: none; stroke: #1f77b4; stroke-width: 1.5"/>
    <path d="M 189.64375 70.562914 
L 189.64375 41.813734 
" clip-path="url(#pe22738e695)" style="fill: none; stroke: #1f77b4; stroke-width: 1.5"/>
    <path d="M 190.658295 77.295535 
L 190.658295 50.67551 
" clip-path="url(#pe22738e695)" style="fill: none; stroke: #1f77b4; stroke-width: 1.5"/>
    <path d="M 191.672841 75.136568 
L 191.672841 48.364822 
" clip-path="url(#pe22738e695)" style="fill: none; stroke: #1f77b4; stroke-width: 1.5"/>
    <path d="M 192.687386 81.594695 
L 192.687386 55.300636 
" clip-path="url(#pe22738e695)" style="fill: none; stroke: #1f77b4; stroke-width: 1.5"/>
    <path d="M 193.701932 81.716535 
L 193.701932 55.382304 
" clip-path="url(#pe22738e695)" style="fill: none; stroke: #1f77b4; stroke-width: 1.5"/>
    <path d="M 194.716477 93.684984 
L 194.716477 69.219437 
" clip-path="url(#pe22738e695)" style="fill: none; stroke: #1f77b4; stroke-width: 1.5"/>
    <path d="M 195.731023 62.478985 
L 195.731023 34.511583 
" clip-path="url(#pe22738e695)" style="fill: none; stroke: #1f77b4; stroke-width: 1.5"/>
    <path d="M 196.745568 90.005457 
L 196.745568 64.425129 
" clip-path="url(#pe22738e695)" style="fill: none; stroke: #1f77b4; stroke-width: 1.5"/>
    <path d="M 197.760114 79.354128 
L 197.760114 53.003634 
" clip-path="url(#pe22738e695)" style="fill: none; stroke: #1f77b4; stroke-width: 1.5"/>
    <path d="M 198.774659 76.66413 
L 198.774659 50.721486 
" clip-path="url(#pe22738e695)" style="fill: none; stroke: #1f77b4; stroke-width: 1.5"/>
    <path d="M 199.789205 66.828983 
L 199.789205 39.913368 
" clip-path="url(#pe22738e695)" style="fill: none; stroke: #1f77b4; stroke-width: 1.5"/>
    <path d="M 200.80375 74.173178 
L 200.80375 47.539414 
" clip-path="url(#pe22738e695)" style="fill: none; stroke: #1f77b4; stroke-width: 1.5"/>
    <path d="M 201.818295 75.323282 
L 201.818295 48.654072 
" clip-path="url(#pe22738e695)" style="fill: none; stroke: #1f77b4; stroke-width: 1.5"/>
    <path d="M 202.832841 101.067631 
L 202.832841 77.439416 
" clip-path="url(#pe22738e695)" style="fill: none; stroke: #1f77b4; stroke-width: 1.5"/>
    <path d="M 203.847386 95.848178 
L 203.847386 71.420926 
" clip-path="url(#pe22738e695)" style="fill: none; stroke: #1f77b4; stroke-width: 1.5"/>
    <path d="M 204.861932 90.382141 
L 204.861932 66.649111 
" clip-path="url(#pe22738e695)" style="fill: none; stroke: #1f77b4; stroke-width: 1.5"/>
    <path d="M 205.876477 100.015802 
L 205.876477 76.642309 
" clip-path="url(#pe22738e695)" style="fill: none; stroke: #1f77b4; stroke-width: 1.5"/>
    <path d="M 206.891023 83.997756 
L 206.891023 59.637308 
" clip-path="url(#pe22738e695)" style="fill: none; stroke: #1f77b4; stroke-width: 1.5"/>
    <path d="M 207.905568 61.114899 
L 207.905568 33.848884 
" clip-path="url(#pe22738e695)" style="fill: none; stroke: #1f77b4; stroke-width: 1.5"/>
    <path d="M 208.920114 83.940282 
L 208.920114 58.498128 
" clip-path="url(#pe22738e695)" style="fill: none; stroke: #1f77b4; stroke-width: 1.5"/>
    <path d="M 209.934659 105.348406 
L 209.934659 83.182114 
" clip-path="url(#pe22738e695)" style="fill: none; stroke: #1f77b4; stroke-width: 1.5"/>
    <path d="M 210.949205 103.8964 
L 210.949205 81.347861 
" clip-path="url(#pe22738e695)" style="fill: none; stroke: #1f77b4; stroke-width: 1.5"/>
    <path d="M 211.96375 86.848334 
L 211.96375 61.586153 
" clip-path="url(#pe22738e695)" style="fill: none; stroke: #1f77b4; stroke-width: 1.5"/>
    <path d="M 212.978295 92.205117 
L 212.978295 68.690009 
" clip-path="url(#pe22738e695)" style="fill: none; stroke: #1f77b4; stroke-width: 1.5"/>
    <path d="M 213.992841 89.410909 
L 213.992841 63.903663 
" clip-path="url(#pe22738e695)" style="fill: none; stroke: #1f77b4; stroke-width: 1.5"/>
    <path d="M 215.007386 61.35644 
L 215.007386 33.343571 
" clip-path="url(#pe22738e695)" style="fill: none; stroke: #1f77b4; stroke-width: 1.5"/>
    <path d="M 216.021932 104.58878 
L 216.021932 81.165331 
" clip-path="url(#pe22738e695)" style="fill: none; stroke: #1f77b4; stroke-width: 1.5"/>
    <path d="M 217.036477 114.323136 
L 217.036477 90.818699 
" clip-path="url(#pe22738e695)" style="fill: none; stroke: #1f77b4; stroke-width: 1.5"/>
    <path d="M 218.051023 101.244856 
L 218.051023 77.134586 
" clip-path="url(#pe22738e695)" style="fill: none; stroke: #1f77b4; stroke-width: 1.5"/>
    <path d="M 219.065568 71.484535 
L 219.065568 43.495491 
" clip-path="url(#pe22738e695)" style="fill: none; stroke: #1f77b4; stroke-width: 1.5"/>
    <path d="M 220.080114 84.366764 
L 220.080114 54.021906 
" clip-path="url(#pe22738e695)" style="fill: none; stroke: #1f77b4; stroke-width: 1.5"/>
    <path d="M 221.094659 99.405298 
L 221.094659 67.421059 
" clip-path="url(#pe22738e695)" style="fill: none; stroke: #1f77b4; stroke-width: 1.5"/>
    <path d="M 222.109205 114.301505 
L 222.109205 81.366555 
" clip-path="url(#pe22738e695)" style="fill: none; stroke: #1f77b4; stroke-width: 1.5"/>
    <path d="M 223.12375 121.017473 
L 223.12375 90.854257 
" clip-path="url(#pe22738e695)" style="fill: none; stroke: #1f77b4; stroke-width: 1.5"/>
    <path d="M 224.138295 83.9398 
L 224.138295 54.831851 
" clip-path="url(#pe22738e695)" style="fill: none; stroke: #1f77b4; stroke-width: 1.5"/>
    <path d="M 225.152841 100.341317 
L 225.152841 74.779279 
" clip-path="url(#pe22738e695)" style="fill: none; stroke: #1f77b4; stroke-width: 1.5"/>
    <path d="M 226.167386 66.918581 
L 226.167386 41.267648 
" clip-path="url(#pe22738e695)" style="fill: none; stroke: #1f77b4; stroke-width: 1.5"/>
    <path d="M 227.181932 98.732471 
L 227.181932 76.880403 
" clip-path="url(#pe22738e695)" style="fill: none; stroke: #1f77b4; stroke-width: 1.5"/>
    <path d="M 228.196477 105.349863 
L 228.196477 84.347609 
" clip-path="url(#pe22738e695)" style="fill: none; stroke: #1f77b4; stroke-width: 1.5"/>
    <path d="M 229.211023 105.786742 
L 229.211023 85.192919 
" clip-path="url(#pe22738e695)" style="fill: none; stroke: #1f77b4; stroke-width: 1.5"/>
    <path d="M 230.225568 103.148376 
L 230.225568 82.112636 
" clip-path="url(#pe22738e695)" style="fill: none; stroke: #1f77b4; stroke-width: 1.5"/>
    <path d="M 231.240114 95.187617 
L 231.240114 73.476451 
" clip-path="url(#pe22738e695)" style="fill: none; stroke: #1f77b4; stroke-width: 1.5"/>
    <path d="M 232.254659 121.918538 
L 232.254659 102.556362 
" clip-path="url(#pe22738e695)" style="fill: none; stroke: #1f77b4; stroke-width: 1.5"/>
    <path d="M 233.269205 79.521459 
L 233.269205 56.601056 
" clip-path="url(#pe22738e695)" style="fill: none; stroke: #1f77b4; stroke-width: 1.5"/>
    <path d="M 234.28375 105.130335 
L 234.28375 84.991055 
" clip-path="url(#pe22738e695)" style="fill: none; stroke: #1f77b4; stroke-width: 1.5"/>
    <path d="M 235.298295 113.725753 
L 235.298295 93.703875 
" clip-path="url(#pe22738e695)" style="fill: none; stroke: #1f77b4; stroke-width: 1.5"/>
    <path d="M 236.312841 114.337289 
L 236.312841 95.108919 
" clip-path="url(#pe22738e695)" style="fill: none; stroke: #1f77b4; stroke-width: 1.5"/>
    <path d="M 237.327386 122.141049 
L 237.327386 103.227561 
" clip-path="url(#pe22738e695)" style="fill: none; stroke: #1f77b4; stroke-width: 1.5"/>
    <path d="M 238.341932 106.234627 
L 238.341932 86.825338 
" clip-path="url(#pe22738e695)" style="fill: none; stroke: #1f77b4; stroke-width: 1.5"/>
    <path d="M 239.356477 109.522952 
L 239.356477 89.398035 
" clip-path="url(#pe22738e695)" style="fill: none; stroke: #1f77b4; stroke-width: 1.5"/>
    <path d="M 240.371023 108.575913 
L 240.371023 89.16993 
" clip-path="url(#pe22738e695)" style="fill: none; stroke: #1f77b4; stroke-width: 1.5"/>
    <path d="M 241.385568 97.06306 
L 241.385568 75.784189 
" clip-path="url(#pe22738e695)" style="fill: none; stroke: #1f77b4; stroke-width: 1.5"/>
    <path d="M 242.400114 107.984735 
L 242.400114 88.282936 
" clip-path="url(#pe22738e695)" style="fill: none; stroke: #1f77b4; stroke-width: 1.5"/>
    <path d="M 243.414659 104.918081 
L 243.414659 84.896292 
" clip-path="url(#pe22738e695)" style="fill: none; stroke: #1f77b4; stroke-width: 1.5"/>
    <path d="M 244.429205 105.127305 
L 244.429205 85.253236 
" clip-path="url(#pe22738e695)" style="fill: none; stroke: #1f77b4; stroke-width: 1.5"/>
    <path d="M 245.44375 92.476705 
L 245.44375 71.225836 
" clip-path="url(#pe22738e695)" style="fill: none; stroke: #1f77b4; stroke-width: 1.5"/>
    <path d="M 246.458295 100.00831 
L 246.458295 80.332235 
" clip-path="url(#pe22738e695)" style="fill: none; stroke: #1f77b4; stroke-width: 1.5"/>
    <path d="M 247.472841 109.858182 
L 247.472841 91.271329 
" clip-path="url(#pe22738e695)" style="fill: none; stroke: #1f77b4; stroke-width: 1.5"/>
    <path d="M 248.487386 99.37713 
L 248.487386 78.154013 
" clip-path="url(#pe22738e695)" style="fill: none; stroke: #1f77b4; stroke-width: 1.5"/>
    <path d="M 249.501932 119.809266 
L 249.501932 101.430326 
" clip-path="url(#pe22738e695)" style="fill: none; stroke: #1f77b4; stroke-width: 1.5"/>
    <path d="M 250.516477 135.085358 
L 250.516477 118.322873 
" clip-path="url(#pe22738e695)" style="fill: none; stroke: #1f77b4; stroke-width: 1.5"/>
    <path d="M 251.531023 114.260035 
L 251.531023 95.124925 
" clip-path="url(#pe22738e695)" style="fill: none; stroke: #1f77b4; stroke-width: 1.5"/>
    <path d="M 252.545568 114.852194 
L 252.545568 95.986622 
" clip-path="url(#pe22738e695)" style="fill: none; stroke: #1f77b4; stroke-width: 1.5"/>
    <path d="M 253.560114 109.274592 
L 253.560114 90.328858 
" clip-path="url(#pe22738e695)" style="fill: none; stroke: #1f77b4; stroke-width: 1.5"/>
    <path d="M 254.574659 109.246307 
L 254.574659 89.792765 
" clip-path="url(#pe22738e695)" style="fill: none; stroke: #1f77b4; stroke-width: 1.5"/>
    <path d="M 255.589205 124.836088 
L 255.589205 107.250002 
" clip-path="url(#pe22738e695)" style="fill: none; stroke: #1f77b4; stroke-width: 1.5"/>
    <path d="M 256.60375 118.606489 
L 256.60375 100.247804 
" clip-path="url(#pe22738e695)" style="fill: none; stroke: #1f77b4; stroke-width: 1.5"/>
    <path d="M 257.618295 118.494938 
L 257.618295 100.080315 
" clip-path="url(#pe22738e695)" style="fill: none; stroke: #1f77b4; stroke-width: 1.5"/>
    <path d="M 258.632841 124.776595 
L 258.632841 107.050599 
" clip-path="url(#pe22738e695)" style="fill: none; stroke: #1f77b4; stroke-width: 1.5"/>
    <path d="M 259.647386 113.575655 
L 259.647386 94.173736 
" clip-path="url(#pe22738e695)" style="fill: none; stroke: #1f77b4; stroke-width: 1.5"/>
    <path d="M 260.661932 122.885583 
L 260.661932 104.303513 
" clip-path="url(#pe22738e695)" style="fill: none; stroke: #1f77b4; stroke-width: 1.5"/>
    <path d="M 261.676477 105.159687 
L 261.676477 86.0172 
" clip-path="url(#pe22738e695)" style="fill: none; stroke: #1f77b4; stroke-width: 1.5"/>
    <path d="M 262.691023 118.328798 
L 262.691023 99.159853 
" clip-path="url(#pe22738e695)" style="fill: none; stroke: #1f77b4; stroke-width: 1.5"/>
    <path d="M 263.705568 115.882539 
L 263.705568 96.743564 
" clip-path="url(#pe22738e695)" style="fill: none; stroke: #1f77b4; stroke-width: 1.5"/>
    <path d="M 264.720114 122.840274 
L 264.720114 104.32799 
" clip-path="url(#pe22738e695)" style="fill: none; stroke: #1f77b4; stroke-width: 1.5"/>
    <path d="M 265.734659 127.475596 
L 265.734659 109.343523 
" clip-path="url(#pe22738e695)" style="fill: none; stroke: #1f77b4; stroke-width: 1.5"/>
    <path d="M 266.749205 118.885239 
L 266.749205 99.642068 
" clip-path="url(#pe22738e695)" style="fill: none; stroke: #1f77b4; stroke-width: 1.5"/>
    <path d="M 267.76375 122.208085 
L 267.76375 102.187793 
" clip-path="url(#pe22738e695)" style="fill: none; stroke: #1f77b4; stroke-width: 1.5"/>
    <path d="M 268.778295 129.325476 
L 268.778295 107.897578 
" clip-path="url(#pe22738e695)" style="fill: none; stroke: #1f77b4; stroke-width: 1.5"/>
    <path d="M 269.792841 141.590258 
L 269.792841 117.848618 
" clip-path="url(#pe22738e695)" style="fill: none; stroke: #1f77b4; stroke-width: 1.5"/>
    <path d="M 270.807386 143.566928 
L 270.807386 101.413072 
" clip-path="url(#pe22738e695)" style="fill: none; stroke: #1f77b4; stroke-width: 1.5"/>
    <path d="M 271.821932 185.001845 
L 271.821932 125.606985 
" clip-path="url(#pe22738e695)" style="fill: none; stroke: #1f77b4; stroke-width: 1.5"/>
    <path d="M 272.836477 132.553876 
L 272.836477 108.106502 
" clip-path="url(#pe22738e695)" style="fill: none; stroke: #1f77b4; stroke-width: 1.5"/>
    <path d="M 273.851023 131.57524 
L 273.851023 111.798076 
" clip-path="url(#pe22738e695)" style="fill: none; stroke: #1f77b4; stroke-width: 1.5"/>
    <path d="M 274.865568 130.870293 
L 274.865568 111.975234 
" clip-path="url(#pe22738e695)" style="fill: none; stroke: #1f77b4; stroke-width: 1.5"/>
    <path d="M 275.880114 137.93894 
L 275.880114 121.189517 
" clip-path="url(#pe22738e695)" style="fill: none; stroke: #1f77b4; stroke-width: 1.5"/>
    <path d="M 276.894659 126.805819 
L 276.894659 110.545799 
" clip-path="url(#pe22738e695)" style="fill: none; stroke: #1f77b4; stroke-width: 1.5"/>
    <path d="M 277.909205 123.117586 
L 277.909205 105.275164 
" clip-path="url(#pe22738e695)" style="fill: none; stroke: #1f77b4; stroke-width: 1.5"/>
    <path d="M 278.92375 132.555663 
L 278.92375 115.993377 
" clip-path="url(#pe22738e695)" style="fill: none; stroke: #1f77b4; stroke-width: 1.5"/>
    <path d="M 279.938295 123.452664 
L 279.938295 106.17232 
" clip-path="url(#pe22738e695)" style="fill: none; stroke: #1f77b4; stroke-width: 1.5"/>
    <path d="M 280.952841 134.597443 
L 280.952841 118.939831 
" clip-path="url(#pe22738e695)" style="fill: none; stroke: #1f77b4; stroke-width: 1.5"/>
    <path d="M 281.967386 142.92867 
L 281.967386 128.08218 
" clip-path="url(#pe22738e695)" style="fill: none; stroke: #1f77b4; stroke-width: 1.5"/>
    <path d="M 282.981932 135.759809 
L 282.981932 119.171295 
" clip-path="url(#pe22738e695)" style="fill: none; stroke: #1f77b4; stroke-width: 1.5"/>
    <path d="M 283.996477 125.634787 
L 283.996477 109.259459 
" clip-path="url(#pe22738e695)" style="fill: none; stroke: #1f77b4; stroke-width: 1.5"/>
    <path d="M 285.011023 127.243 
L 285.011023 110.556533 
" clip-path="url(#pe22738e695)" style="fill: none; stroke: #1f77b4; stroke-width: 1.5"/>
    <path d="M 286.025568 119.014729 
L 286.025568 101.941738 
" clip-path="url(#pe22738e695)" style="fill: none; stroke: #1f77b4; stroke-width: 1.5"/>
    <path d="M 287.040114 128.771862 
L 287.040114 112.804967 
" clip-path="url(#pe22738e695)" style="fill: none; stroke: #1f77b4; stroke-width: 1.5"/>
    <path d="M 288.054659 134.002286 
L 288.054659 118.225574 
" clip-path="url(#pe22738e695)" style="fill: none; stroke: #1f77b4; stroke-width: 1.5"/>
    <path d="M 289.069205 127.349738 
L 289.069205 111.166867 
" clip-path="url(#pe22738e695)" style="fill: none; stroke: #1f77b4; stroke-width: 1.5"/>
    <path d="M 290.08375 138.171237 
L 290.08375 123.230415 
" clip-path="url(#pe22738e695)" style="fill: none; stroke: #1f77b4; stroke-width: 1.5"/>
    <path d="M 291.098295 131.591192 
L 291.098295 115.409819 
" clip-path="url(#pe22738e695)" style="fill: none; stroke: #1f77b4; stroke-width: 1.5"/>
    <path d="M 292.112841 123.387613 
L 292.112841 106.346095 
" clip-path="url(#pe22738e695)" style="fill: none; stroke: #1f77b4; stroke-width: 1.5"/>
    <path d="M 293.127386 136.215109 
L 293.127386 120.610305 
" clip-path="url(#pe22738e695)" style="fill: none; stroke: #1f77b4; stroke-width: 1.5"/>
    <path d="M 294.141932 139.581515 
L 294.141932 124.367548 
" clip-path="url(#pe22738e695)" style="fill: none; stroke: #1f77b4; stroke-width: 1.5"/>
    <path d="M 295.156477 139.333238 
L 295.156477 124.152779 
" clip-path="url(#pe22738e695)" style="fill: none; stroke: #1f77b4; stroke-width: 1.5"/>
    <path d="M 296.171023 130.682689 
L 296.171023 114.185739 
" clip-path="url(#pe22738e695)" style="fill: none; stroke: #1f77b4; stroke-width: 1.5"/>
    <path d="M 297.185568 138.868714 
L 297.185568 124.082139 
" clip-path="url(#pe22738e695)" style="fill: none; stroke: #1f77b4; stroke-width: 1.5"/>
    <path d="M 298.200114 136.651427 
L 298.200114 121.532143 
" clip-path="url(#pe22738e695)" style="fill: none; stroke: #1f77b4; stroke-width: 1.5"/>
    <path d="M 299.214659 151.13201 
L 299.214659 136.578453 
" clip-path="url(#pe22738e695)" style="fill: none; stroke: #1f77b4; stroke-width: 1.5"/>
    <path d="M 300.229205 153.793409 
L 300.229205 139.537331 
" clip-path="url(#pe22738e695)" style="fill: none; stroke: #1f77b4; stroke-width: 1.5"/>
    <path d="M 301.24375 134.650429 
L 301.24375 119.130057 
" clip-path="url(#pe22738e695)" style="fill: none; stroke: #1f77b4; stroke-width: 1.5"/>
    <path d="M 302.258295 143.011975 
L 302.258295 128.408569 
" clip-path="url(#pe22738e695)" style="fill: none; stroke: #1f77b4; stroke-width: 1.5"/>
    <path d="M 303.272841 143.391437 
L 303.272841 129.314588 
" clip-path="url(#pe22738e695)" style="fill: none; stroke: #1f77b4; stroke-width: 1.5"/>
    <path d="M 304.287386 158.932307 
L 304.287386 145.031159 
" clip-path="url(#pe22738e695)" style="fill: none; stroke: #1f77b4; stroke-width: 1.5"/>
    <path d="M 305.301932 138.299516 
L 305.301932 123.380406 
" clip-path="url(#pe22738e695)" style="fill: none; stroke: #1f77b4; stroke-width: 1.5"/>
    <path d="M 306.316477 141.169329 
L 306.316477 125.902483 
" clip-path="url(#pe22738e695)" style="fill: none; stroke: #1f77b4; stroke-width: 1.5"/>
    <path d="M 307.331023 140.617919 
L 307.331023 125.366171 
" clip-path="url(#pe22738e695)" style="fill: none; stroke: #1f77b4; stroke-width: 1.5"/>
    <path d="M 308.345568 150.631017 
L 308.345568 136.513572 
" clip-path="url(#pe22738e695)" style="fill: none; stroke: #1f77b4; stroke-width: 1.5"/>
    <path d="M 309.360114 153.930195 
L 309.360114 139.420834 
" clip-path="url(#pe22738e695)" style="fill: none; stroke: #1f77b4; stroke-width: 1.5"/>
    <path d="M 310.374659 150.316237 
L 310.374659 136.516905 
" clip-path="url(#pe22738e695)" style="fill: none; stroke: #1f77b4; stroke-width: 1.5"/>
    <path d="M 311.389205 144.215875 
L 311.389205 129.52495 
" clip-path="url(#pe22738e695)" style="fill: none; stroke: #1f77b4; stroke-width: 1.5"/>
    <path d="M 312.40375 146.955916 
L 312.40375 132.143583 
" clip-path="url(#pe22738e695)" style="fill: none; stroke: #1f77b4; stroke-width: 1.5"/>
    <path d="M 313.418295 143.253579 
L 313.418295 127.718931 
" clip-path="url(#pe22738e695)" style="fill: none; stroke: #1f77b4; stroke-width: 1.5"/>
    <path d="M 314.432841 150.57837 
L 314.432841 134.322697 
" clip-path="url(#pe22738e695)" style="fill: none; stroke: #1f77b4; stroke-width: 1.5"/>
    <path d="M 315.447386 153.309539 
L 315.447386 133.010863 
" clip-path="url(#pe22738e695)" style="fill: none; stroke: #1f77b4; stroke-width: 1.5"/>
    <path d="M 316.461932 172.197377 
L 316.461932 148.533008 
" clip-path="url(#pe22738e695)" style="fill: none; stroke: #1f77b4; stroke-width: 1.5"/>
    <path clip-path="url(#pe22738e695)" style="fill: none; stroke: #1f77b4; stroke-width: 1.5"/>
    <path clip-path="url(#pe22738e695)" style="fill: none; stroke: #1f77b4; stroke-width: 1.5"/>
    <path d="M 319.505568 177.098483 
L 319.505568 149.186448 
" clip-path="url(#pe22738e695)" style="fill: none; stroke: #1f77b4; stroke-width: 1.5"/>
    <path d="M 320.520114 143.171849 
L 320.520114 120.593206 
" clip-path="url(#pe22738e695)" style="fill: none; stroke: #1f77b4; stroke-width: 1.5"/>
    <path d="M 321.534659 166.773938 
L 321.534659 149.364805 
" clip-path="url(#pe22738e695)" style="fill: none; stroke: #1f77b4; stroke-width: 1.5"/>
    <path d="M 322.549205 152.470233 
L 322.549205 136.352598 
" clip-path="url(#pe22738e695)" style="fill: none; stroke: #1f77b4; stroke-width: 1.5"/>
    <path d="M 323.56375 150.503058 
L 323.56375 134.876943 
" clip-path="url(#pe22738e695)" style="fill: none; stroke: #1f77b4; stroke-width: 1.5"/>
    <path d="M 324.578295 153.428172 
L 324.578295 138.610754 
" clip-path="url(#pe22738e695)" style="fill: none; stroke: #1f77b4; stroke-width: 1.5"/>
    <path d="M 325.592841 151.298232 
L 325.592841 136.034893 
" clip-path="url(#pe22738e695)" style="fill: none; stroke: #1f77b4; stroke-width: 1.5"/>
    <path d="M 326.607386 145.931826 
L 326.607386 129.441688 
" clip-path="url(#pe22738e695)" style="fill: none; stroke: #1f77b4; stroke-width: 1.5"/>
    <path d="M 327.621932 156.403275 
L 327.621932 142.912001 
" clip-path="url(#pe22738e695)" style="fill: none; stroke: #1f77b4; stroke-width: 1.5"/>
    <path d="M 328.636477 148.089983 
L 328.636477 133.19978 
" clip-path="url(#pe22738e695)" style="fill: none; stroke: #1f77b4; stroke-width: 1.5"/>
    <path d="M 329.651023 141.906195 
L 329.651023 126.459183 
" clip-path="url(#pe22738e695)" style="fill: none; stroke: #1f77b4; stroke-width: 1.5"/>
    <path d="M 330.665568 158.863326 
L 330.665568 145.206654 
" clip-path="url(#pe22738e695)" style="fill: none; stroke: #1f77b4; stroke-width: 1.5"/>
    <path d="M 331.680114 158.082638 
L 331.680114 144.163232 
" clip-path="url(#pe22738e695)" style="fill: none; stroke: #1f77b4; stroke-width: 1.5"/>
    <path d="M 332.694659 153.993331 
L 332.694659 140.230256 
" clip-path="url(#pe22738e695)" style="fill: none; stroke: #1f77b4; stroke-width: 1.5"/>
    <path d="M 333.709205 151.033392 
L 333.709205 136.486225 
" clip-path="url(#pe22738e695)" style="fill: none; stroke: #1f77b4; stroke-width: 1.5"/>
    <path d="M 334.72375 168.516325 
L 334.72375 155.938151 
" clip-path="url(#pe22738e695)" style="fill: none; stroke: #1f77b4; stroke-width: 1.5"/>
    <path d="M 335.738295 157.140774 
L 335.738295 143.454464 
" clip-path="url(#pe22738e695)" style="fill: none; stroke: #1f77b4; stroke-width: 1.5"/>
    <path d="M 336.752841 166.879143 
L 336.752841 154.982704 
" clip-path="url(#pe22738e695)" style="fill: none; stroke: #1f77b4; stroke-width: 1.5"/>
    <path d="M 337.767386 169.424283 
L 337.767386 157.024598 
" clip-path="url(#pe22738e695)" style="fill: none; stroke: #1f77b4; stroke-width: 1.5"/>
    <path d="M 338.781932 164.135424 
L 338.781932 150.938034 
" clip-path="url(#pe22738e695)" style="fill: none; stroke: #1f77b4; stroke-width: 1.5"/>
    <path d="M 339.796477 153.761018 
L 339.796477 139.890279 
" clip-path="url(#pe22738e695)" style="fill: none; stroke: #1f77b4; stroke-width: 1.5"/>
    <path d="M 340.811023 160.370341 
L 340.811023 147.244425 
" clip-path="url(#pe22738e695)" style="fill: none; stroke: #1f77b4; stroke-width: 1.5"/>
    <path d="M 341.825568 168.120413 
L 341.825568 156.027113 
" clip-path="url(#pe22738e695)" style="fill: none; stroke: #1f77b4; stroke-width: 1.5"/>
    <path d="M 342.840114 157.679759 
L 342.840114 144.762393 
" clip-path="url(#pe22738e695)" style="fill: none; stroke: #1f77b4; stroke-width: 1.5"/>
    <path d="M 343.854659 153.487005 
L 343.854659 140.481447 
" clip-path="url(#pe22738e695)" style="fill: none; stroke: #1f77b4; stroke-width: 1.5"/>
    <path d="M 344.869205 169.613291 
L 344.869205 157.649827 
" clip-path="url(#pe22738e695)" style="fill: none; stroke: #1f77b4; stroke-width: 1.5"/>
    <path d="M 345.88375 160.477252 
L 345.88375 148.233521 
" clip-path="url(#pe22738e695)" style="fill: none; stroke: #1f77b4; stroke-width: 1.5"/>
    <path d="M 346.898295 159.800243 
L 346.898295 146.687336 
" clip-path="url(#pe22738e695)" style="fill: none; stroke: #1f77b4; stroke-width: 1.5"/>
    <path d="M 347.912841 170.609465 
L 347.912841 157.781576 
" clip-path="url(#pe22738e695)" style="fill: none; stroke: #1f77b4; stroke-width: 1.5"/>
    <path d="M 348.927386 167.007846 
L 348.927386 154.621525 
" clip-path="url(#pe22738e695)" style="fill: none; stroke: #1f77b4; stroke-width: 1.5"/>
    <path d="M 349.941932 160.718498 
L 349.941932 147.920485 
" clip-path="url(#pe22738e695)" style="fill: none; stroke: #1f77b4; stroke-width: 1.5"/>
    <path d="M 350.956477 165.147277 
L 350.956477 152.925903 
" clip-path="url(#pe22738e695)" style="fill: none; stroke: #1f77b4; stroke-width: 1.5"/>
    <path d="M 351.971023 157.935876 
L 351.971023 145.124747 
" clip-path="url(#pe22738e695)" style="fill: none; stroke: #1f77b4; stroke-width: 1.5"/>
    <path d="M 352.985568 159.026432 
L 352.985568 146.390581 
" clip-path="url(#pe22738e695)" style="fill: none; stroke: #1f77b4; stroke-width: 1.5"/>
    <path d="M 354.000114 171.554488 
L 354.000114 159.849142 
" clip-path="url(#pe22738e695)" style="fill: none; stroke: #1f77b4; stroke-width: 1.5"/>
    <path d="M 355.014659 164.038217 
L 355.014659 152.258805 
" clip-path="url(#pe22738e695)" style="fill: none; stroke: #1f77b4; stroke-width: 1.5"/>
    <path d="M 356.029205 162.251418 
L 356.029205 149.265582 
" clip-path="url(#pe22738e695)" style="fill: none; stroke: #1f77b4; stroke-width: 1.5"/>
    <path d="M 357.04375 163.98339 
L 357.04375 151.004217 
" clip-path="url(#pe22738e695)" style="fill: none; stroke: #1f77b4; stroke-width: 1.5"/>
    <path d="M 358.058295 164.217024 
L 358.058295 151.770956 
" clip-path="url(#pe22738e695)" style="fill: none; stroke: #1f77b4; stroke-width: 1.5"/>
    <path d="M 359.072841 168.064801 
L 359.072841 155.552632 
" clip-path="url(#pe22738e695)" style="fill: none; stroke: #1f77b4; stroke-width: 1.5"/>
    <path d="M 360.087386 172.490282 
L 360.087386 160.55143 
" clip-path="url(#pe22738e695)" style="fill: none; stroke: #1f77b4; stroke-width: 1.5"/>
    <path d="M 361.101932 167.574751 
L 361.101932 155.384646 
" clip-path="url(#pe22738e695)" style="fill: none; stroke: #1f77b4; stroke-width: 1.5"/>
    <path d="M 362.116477 173.404343 
L 362.116477 160.171101 
" clip-path="url(#pe22738e695)" style="fill: none; stroke: #1f77b4; stroke-width: 1.5"/>
    <path d="M 363.131023 169.765982 
L 363.131023 154.439169 
" clip-path="url(#pe22738e695)" style="fill: none; stroke: #1f77b4; stroke-width: 1.5"/>
    <path d="M 364.145568 183.850634 
L 364.145568 167.350642 
" clip-path="url(#pe22738e695)" style="fill: none; stroke: #1f77b4; stroke-width: 1.5"/>
    <path d="M 365.160114 169.16976 
L 365.160114 146.737797 
" clip-path="url(#pe22738e695)" style="fill: none; stroke: #1f77b4; stroke-width: 1.5"/>
    <path clip-path="url(#pe22738e695)" style="fill: none; stroke: #1f77b4; stroke-width: 1.5"/>
    <path clip-path="url(#pe22738e695)" style="fill: none; stroke: #1f77b4; stroke-width: 1.5"/>
    <path clip-path="url(#pe22738e695)" style="fill: none; stroke: #1f77b4; stroke-width: 1.5"/>
    <path clip-path="url(#pe22738e695)" style="fill: none; stroke: #1f77b4; stroke-width: 1.5"/>
   </g>
  </g>
 </g>
 <defs>
  <clipPath id="pe22738e695">
   <rect x="50.14375" y="7.2" width="334.8" height="221.76"/>
  </clipPath>
 </defs>
</svg>
