<?xml version="1.0" encoding="UTF-8" standalone="no"?>
<!DOCTYPE svg PUBLIC "-//W3C//DTD SVG 1.1//EN"
 "http://www.w3.org/Graphics/SVG/1.1/DTD/svg11.dtd">
<!-- Generated by graphviz version 2.43.0 (0)
 -->
<!-- Title: %3 Pages: 1 -->
<svg width="972pt" height="307pt"
 viewBox="0.00 0.00 972.00 307.00" xmlns="http://www.w3.org/2000/svg" xmlns:xlink="http://www.w3.org/1999/xlink">
<g id="graph0" class="graph" transform="scale(1 1) rotate(0) translate(4 303)">
<title>%3</title>
<polygon fill="white" stroke="transparent" points="-4,4 -4,-303 968,-303 968,4 -4,4"/>
<!-- HistogramModeDetectorData -->
<g id="node1" class="node">
<title>HistogramModeDetectorData</title>
<polygon fill="none" stroke="black" points="546.5,-171 318.5,-171 318.5,-138 546.5,-138 546.5,-171"/>
<text text-anchor="start" x="326.5" y="-156.8" font-family="Times,serif" font-size="14.00">HistogramModeDetectorData</text>
<text text-anchor="start" x="348" y="-145.2" font-family="Times,serif" font-size="11.00">via:</text>
<text text-anchor="start" x="369" y="-145.2" font-family="Times,serif" font-style="italic" font-size="11.00">separate_detector_images</text>
</g>
<!-- AllImageStacks -->
<g id="node2" class="node">
<title>AllImageStacks</title>
<polygon fill="none" stroke="black" points="520.5,-102 344.5,-102 344.5,-69 520.5,-69 520.5,-102"/>
<text text-anchor="start" x="377" y="-87.8" font-family="Times,serif" font-size="14.00">AllImageStacks</text>
<text text-anchor="start" x="352.5" y="-76.2" font-family="Times,serif" font-size="11.00">via:</text>
<text text-anchor="start" x="373.5" y="-76.2" font-family="Times,serif" font-style="italic" font-size="11.00">separate_image_by_keys</text>
</g>
<!-- HistogramModeDetectorData&#45;&gt;AllImageStacks -->
<g id="edge1" class="edge">
<title>HistogramModeDetectorData&#45;&gt;AllImageStacks</title>
<path fill="none" stroke="black" d="M432.5,-137.96C432.5,-130.38 432.5,-121.05 432.5,-112.42"/>
<polygon fill="black" stroke="black" points="436,-112.42 432.5,-102.42 429,-112.42 436,-112.42"/>
</g>
<!-- DarkCurrentImageStacks -->
<g id="node4" class="node">
<title>DarkCurrentImageStacks</title>
<polygon fill="none" stroke="black" points="932.5,-102 726.5,-102 726.5,-69 932.5,-69 932.5,-102"/>
<text text-anchor="start" x="738" y="-87.8" font-family="Times,serif" font-size="14.00">DarkCurrentImageStacks</text>
<text text-anchor="start" x="734.5" y="-76.2" font-family="Times,serif" font-size="11.00">via:</text>
<text text-anchor="start" x="755.5" y="-76.2" font-family="Times,serif" font-style="italic" font-size="11.00">retrieve_dark_current_images</text>
</g>
<!-- HistogramModeDetectorData&#45;&gt;DarkCurrentImageStacks -->
<g id="edge3" class="edge">
<title>HistogramModeDetectorData&#45;&gt;DarkCurrentImageStacks</title>
<path fill="none" stroke="black" d="M524.58,-137.96C585.35,-127.7 665.01,-114.26 727.67,-103.68"/>
<polygon fill="black" stroke="black" points="728.3,-107.13 737.58,-102.01 727.14,-100.23 728.3,-107.13"/>
</g>
<!-- OpenBeamImageStacks -->
<g id="node14" class="node">
<title>OpenBeamImageStacks</title>
<polygon fill="none" stroke="black" points="337,-102 140,-102 140,-69 337,-69 337,-102"/>
<text text-anchor="start" x="153.5" y="-87.8" font-family="Times,serif" font-size="14.00">OpenBeamImageStacks</text>
<text text-anchor="start" x="148" y="-76.2" font-family="Times,serif" font-size="11.00">via:</text>
<text text-anchor="start" x="169" y="-76.2" font-family="Times,serif" font-style="italic" font-size="11.00">retrieve_open_beam_images</text>
</g>
<!-- HistogramModeDetectorData&#45;&gt;OpenBeamImageStacks -->
<g id="edge15" class="edge">
<title>HistogramModeDetectorData&#45;&gt;OpenBeamImageStacks</title>
<path fill="none" stroke="black" d="M387.5,-137.96C359.45,-128.27 323.15,-115.73 293.4,-105.46"/>
<polygon fill="black" stroke="black" points="294.18,-102.03 283.59,-102.07 291.9,-108.64 294.18,-102.03"/>
</g>
<!-- RawSampleImageStacks -->
<g id="node15" class="node">
<title>RawSampleImageStacks</title>
<polygon fill="none" stroke="black" points="719.5,-102 527.5,-102 527.5,-69 719.5,-69 719.5,-102"/>
<text text-anchor="start" x="535.5" y="-87.8" font-family="Times,serif" font-size="14.00">RawSampleImageStacks</text>
<text text-anchor="start" x="544.5" y="-76.2" font-family="Times,serif" font-size="11.00">via:</text>
<text text-anchor="start" x="565.5" y="-76.2" font-family="Times,serif" font-style="italic" font-size="11.00">retrieve_sample_images</text>
</g>
<!-- HistogramModeDetectorData&#45;&gt;RawSampleImageStacks -->
<g id="edge17" class="edge">
<title>HistogramModeDetectorData&#45;&gt;RawSampleImageStacks</title>
<path fill="none" stroke="black" d="M476.8,-137.96C504.42,-128.27 540.16,-115.73 569.45,-105.46"/>
<polygon fill="black" stroke="black" points="570.83,-108.68 579.11,-102.07 568.52,-102.08 570.83,-108.68"/>
</g>
<!-- ImageKeyLogs -->
<g id="node3" class="node">
<title>ImageKeyLogs</title>
<polygon fill="none" stroke="black" points="733.5,-171 553.5,-171 553.5,-138 733.5,-138 733.5,-171"/>
<text text-anchor="start" x="591" y="-156.8" font-family="Times,serif" font-size="14.00">ImageKeyLogs</text>
<text text-anchor="start" x="561.5" y="-145.2" font-family="Times,serif" font-size="11.00">via:</text>
<text text-anchor="start" x="582.5" y="-145.2" font-family="Times,serif" font-style="italic" font-size="11.00">separate_image_key_logs</text>
</g>
<!-- ImageKeyLogs&#45;&gt;AllImageStacks -->
<g id="edge2" class="edge">
<title>ImageKeyLogs&#45;&gt;AllImageStacks</title>
<path fill="none" stroke="black" d="M594.56,-137.96C563.78,-128.19 523.88,-115.52 491.37,-105.19"/>
<polygon fill="black" stroke="black" points="492.13,-101.76 481.54,-102.07 490.01,-108.43 492.13,-101.76"/>
</g>
<!-- ImageKeyLogs&#45;&gt;DarkCurrentImageStacks -->
<g id="edge4" class="edge">
<title>ImageKeyLogs&#45;&gt;DarkCurrentImageStacks</title>
<path fill="none" stroke="black" d="M686.64,-137.96C713.54,-128.27 748.34,-115.73 776.86,-105.46"/>
<polygon fill="black" stroke="black" points="778.05,-108.75 786.27,-102.07 775.68,-102.17 778.05,-108.75"/>
</g>
<!-- ImageKeyLogs&#45;&gt;OpenBeamImageStacks -->
<g id="edge16" class="edge">
<title>ImageKeyLogs&#45;&gt;OpenBeamImageStacks</title>
<path fill="none" stroke="black" d="M553.37,-138.59C490.85,-128.25 407.41,-114.44 342.14,-103.65"/>
<polygon fill="black" stroke="black" points="342.68,-100.19 332.24,-102.01 341.53,-107.09 342.68,-100.19"/>
</g>
<!-- ImageKeyLogs&#45;&gt;RawSampleImageStacks -->
<g id="edge18" class="edge">
<title>ImageKeyLogs&#45;&gt;RawSampleImageStacks</title>
<path fill="none" stroke="black" d="M638.86,-137.96C636.57,-130.29 633.75,-120.84 631.15,-112.14"/>
<polygon fill="black" stroke="black" points="634.47,-111 628.25,-102.42 627.76,-113 634.47,-111"/>
</g>
<!-- FileLock -->
<g id="node5" class="node">
<title>FileLock</title>
<polygon fill="none" stroke="black" points="527,-299 450,-299 450,-276 527,-276 527,-299"/>
<text text-anchor="middle" x="488.5" y="-283.8" font-family="Times,serif" font-size="14.00">FileLock</text>
</g>
<!-- HistogramModeDetector -->
<g id="node7" class="node">
<title>HistogramModeDetector</title>
<polygon fill="none" stroke="black" points="823.5,-240 573.5,-240 573.5,-207 823.5,-207 823.5,-240"/>
<text text-anchor="start" x="609.5" y="-225.8" font-family="Times,serif" font-size="14.00">HistogramModeDetector</text>
<text text-anchor="start" x="581.5" y="-214.2" font-family="Times,serif" font-size="11.00">via:</text>
<text text-anchor="start" x="602.5" y="-214.2" font-family="Times,serif" font-style="italic" font-size="11.00">load_nexus_histogram_mode_detector</text>
</g>
<!-- FileLock&#45;&gt;HistogramModeDetector -->
<g id="edge8" class="edge">
<title>FileLock&#45;&gt;HistogramModeDetector</title>
<path fill="none" stroke="black" d="M524.12,-275.98C554.61,-266.98 599.21,-253.81 635.68,-243.05"/>
<polygon fill="black" stroke="black" points="637.13,-246.27 645.73,-240.08 635.15,-239.55 637.13,-246.27"/>
</g>
<!-- RotationLogs -->
<g id="node16" class="node">
<title>RotationLogs</title>
<polygon fill="none" stroke="black" points="198.5,-240 20.5,-240 20.5,-207 198.5,-207 198.5,-240"/>
<text text-anchor="start" x="62" y="-225.8" font-family="Times,serif" font-size="14.00">RotationLogs</text>
<text text-anchor="start" x="28.5" y="-214.2" font-family="Times,serif" font-size="11.00">via:</text>
<text text-anchor="start" x="49.5" y="-214.2" font-family="Times,serif" font-style="italic" font-size="11.00">load_nexus_rotation_logs</text>
</g>
<!-- FileLock&#45;&gt;RotationLogs -->
<g id="edge21" class="edge">
<title>FileLock&#45;&gt;RotationLogs</title>
<path fill="none" stroke="black" d="M449.63,-280.23C396.6,-271.67 298.29,-255.75 208.64,-241.01"/>
<polygon fill="black" stroke="black" points="209.03,-237.53 198.6,-239.36 207.89,-244.43 209.03,-237.53"/>
</g>
<!-- FilePath -->
<g id="node6" class="node">
<title>FilePath</title>
<polygon fill="none" stroke="black" points="395.5,-299 319.5,-299 319.5,-276 395.5,-276 395.5,-299"/>
<text text-anchor="middle" x="357.5" y="-283.8" font-family="Times,serif" font-size="14.00">FilePath</text>
</g>
<!-- FilePath&#45;&gt;HistogramModeDetector -->
<g id="edge5" class="edge">
<title>FilePath&#45;&gt;HistogramModeDetector</title>
<path fill="none" stroke="black" d="M395.62,-279.57C445.48,-270.5 534.56,-254.31 603.25,-241.82"/>
<polygon fill="black" stroke="black" points="604.02,-245.24 613.23,-240 602.77,-238.35 604.02,-245.24"/>
</g>
<!-- FilePath&#45;&gt;RotationLogs -->
<g id="edge19" class="edge">
<title>FilePath&#45;&gt;RotationLogs</title>
<path fill="none" stroke="black" d="M319.29,-276.95C282.71,-267.8 226.59,-253.77 181.59,-242.52"/>
<polygon fill="black" stroke="black" points="182.43,-239.12 171.88,-240.09 180.73,-245.92 182.43,-239.12"/>
</g>
<!-- HistogramModeDetector&#45;&gt;HistogramModeDetectorData -->
<g id="edge9" class="edge">
<title>HistogramModeDetector&#45;&gt;HistogramModeDetectorData</title>
<path fill="none" stroke="black" d="M636.81,-206.96C597.16,-196.98 545.52,-183.97 504.08,-173.53"/>
<polygon fill="black" stroke="black" points="504.87,-170.12 494.32,-171.07 503.16,-176.91 504.87,-170.12"/>
</g>
<!-- HistogramModeDetector&#45;&gt;ImageKeyLogs -->
<g id="edge14" class="edge">
<title>HistogramModeDetector&#45;&gt;ImageKeyLogs</title>
<path fill="none" stroke="black" d="M685.74,-206.96C678.97,-198.71 670.5,-188.39 662.93,-179.17"/>
<polygon fill="black" stroke="black" points="665.62,-176.93 656.57,-171.42 660.21,-181.37 665.62,-176.93"/>
</g>
<!-- ImageDetectorName -->
<g id="node8" class="node">
<title>ImageDetectorName</title>
<polygon fill="none" stroke="black" points="964,-299 799,-299 799,-276 964,-276 964,-299"/>
<text text-anchor="middle" x="881.5" y="-283.8" font-family="Times,serif" font-size="14.00">ImageDetectorName</text>
</g>
<!-- ImageDetectorName&#45;&gt;HistogramModeDetector -->
<g id="edge6" class="edge">
<title>ImageDetectorName&#45;&gt;HistogramModeDetector</title>
<path fill="none" stroke="black" d="M850.46,-275.98C824.12,-267.06 785.68,-254.04 754.06,-243.32"/>
<polygon fill="black" stroke="black" points="755.08,-239.97 744.48,-240.08 752.83,-246.6 755.08,-239.97"/>
</g>
<!-- HistogramModeDetectorsPath -->
<g id="node9" class="node">
<title>HistogramModeDetectorsPath</title>
<polygon fill="none" stroke="black" points="791.5,-299 557.5,-299 557.5,-276 791.5,-276 791.5,-299"/>
<text text-anchor="middle" x="674.5" y="-283.8" font-family="Times,serif" font-size="14.00">HistogramModeDetectorsPath</text>
</g>
<!-- HistogramModeDetectorsPath&#45;&gt;HistogramModeDetector -->
<g id="edge7" class="edge">
<title>HistogramModeDetectorsPath&#45;&gt;HistogramModeDetector</title>
<path fill="none" stroke="black" d="M678.57,-275.98C681.36,-268.78 685.18,-258.9 688.74,-249.72"/>
<polygon fill="black" stroke="black" points="692.08,-250.79 692.42,-240.2 685.55,-248.26 692.08,-250.79"/>
</g>
<!-- MinDim1 -->
<g id="node10" class="node">
<title>MinDim1</title>
<polygon fill="none" stroke="black" points="566,-235 483,-235 483,-212 566,-212 566,-235"/>
<text text-anchor="middle" x="524.5" y="-219.8" font-family="Times,serif" font-size="14.00">MinDim1</text>
</g>
<!-- MinDim1&#45;&gt;HistogramModeDetectorData -->
<g id="edge10" class="edge">
<title>MinDim1&#45;&gt;HistogramModeDetectorData</title>
<path fill="none" stroke="black" d="M509.72,-211.74C497.03,-202.5 478.35,-188.89 462.54,-177.38"/>
<polygon fill="black" stroke="black" points="464.25,-174.29 454.11,-171.23 460.13,-179.95 464.25,-174.29"/>
</g>
<!-- MaxDim1 -->
<g id="node11" class="node">
<title>MaxDim1</title>
<polygon fill="none" stroke="black" points="291.5,-235 205.5,-235 205.5,-212 291.5,-212 291.5,-235"/>
<text text-anchor="middle" x="248.5" y="-219.8" font-family="Times,serif" font-size="14.00">MaxDim1</text>
</g>
<!-- MaxDim1&#45;&gt;HistogramModeDetectorData -->
<g id="edge11" class="edge">
<title>MaxDim1&#45;&gt;HistogramModeDetectorData</title>
<path fill="none" stroke="black" d="M277.66,-211.88C305.14,-201.88 346.96,-186.65 380.21,-174.54"/>
<polygon fill="black" stroke="black" points="381.59,-177.76 389.79,-171.05 379.19,-171.19 381.59,-177.76"/>
</g>
<!-- MinDim2 -->
<g id="node12" class="node">
<title>MinDim2</title>
<polygon fill="none" stroke="black" points="382,-235 299,-235 299,-212 382,-212 382,-235"/>
<text text-anchor="middle" x="340.5" y="-219.8" font-family="Times,serif" font-size="14.00">MinDim2</text>
</g>
<!-- MinDim2&#45;&gt;HistogramModeDetectorData -->
<g id="edge12" class="edge">
<title>MinDim2&#45;&gt;HistogramModeDetectorData</title>
<path fill="none" stroke="black" d="M355.28,-211.74C367.97,-202.5 386.65,-188.89 402.46,-177.38"/>
<polygon fill="black" stroke="black" points="404.87,-179.95 410.89,-171.23 400.75,-174.29 404.87,-179.95"/>
</g>
<!-- MaxDim2 -->
<g id="node13" class="node">
<title>MaxDim2</title>
<polygon fill="none" stroke="black" points="475.5,-235 389.5,-235 389.5,-212 475.5,-212 475.5,-235"/>
<text text-anchor="middle" x="432.5" y="-219.8" font-family="Times,serif" font-size="14.00">MaxDim2</text>
</g>
<!-- MaxDim2&#45;&gt;HistogramModeDetectorData -->
<g id="edge13" class="edge">
<title>MaxDim2&#45;&gt;HistogramModeDetectorData</title>
<path fill="none" stroke="black" d="M432.5,-211.74C432.5,-203.52 432.5,-191.86 432.5,-181.28"/>
<polygon fill="black" stroke="black" points="436,-181.23 432.5,-171.23 429,-181.24 436,-181.23"/>
</g>
<!-- SampleImageStacksWithLogs -->
<g id="node18" class="node">
<title>SampleImageStacksWithLogs</title>
<polygon fill="none" stroke="black" points="481,-33 252,-33 252,0 481,0 481,-33"/>
<text text-anchor="start" x="260" y="-18.8" font-family="Times,serif" font-size="14.00">SampleImageStacksWithLogs</text>
<text text-anchor="start" x="296" y="-7.2" font-family="Times,serif" font-size="11.00">via:</text>
<text text-anchor="start" x="317" y="-7.2" font-family="Times,serif" font-style="italic" font-size="11.00">apply_logs_as_coords</text>
</g>
<!-- RawSampleImageStacks&#45;&gt;SampleImageStacksWithLogs -->
<g id="edge22" class="edge">
<title>RawSampleImageStacks&#45;&gt;SampleImageStacksWithLogs</title>
<path fill="none" stroke="black" d="M563.89,-68.96C525.67,-59 475.91,-46.02 435.91,-35.6"/>
<polygon fill="black" stroke="black" points="436.79,-32.21 426.23,-33.07 435.02,-38.98 436.79,-32.21"/>
</g>
<!-- RotationLogs&#45;&gt;SampleImageStacksWithLogs -->
<g id="edge23" class="edge">
<title>RotationLogs&#45;&gt;SampleImageStacksWithLogs</title>
<path fill="none" stroke="black" d="M107.1,-206.53C103.43,-175.54 100.25,-106.97 136.5,-69 151.97,-52.8 196.26,-41.04 241.9,-32.88"/>
<polygon fill="black" stroke="black" points="242.7,-36.3 251.96,-31.14 241.51,-29.4 242.7,-36.3"/>
</g>
<!-- RotationMotionSensorName -->
<g id="node17" class="node">
<title>RotationMotionSensorName</title>
<polygon fill="none" stroke="black" points="219,-299 0,-299 0,-276 219,-276 219,-299"/>
<text text-anchor="middle" x="109.5" y="-283.8" font-family="Times,serif" font-size="14.00">RotationMotionSensorName</text>
</g>
<!-- RotationMotionSensorName&#45;&gt;RotationLogs -->
<g id="edge20" class="edge">
<title>RotationMotionSensorName&#45;&gt;RotationLogs</title>
<path fill="none" stroke="black" d="M109.5,-275.98C109.5,-268.93 109.5,-259.32 109.5,-250.31"/>
<polygon fill="black" stroke="black" points="113,-250.2 109.5,-240.2 106,-250.2 113,-250.2"/>
</g>
</g>
</svg>
